<svg xmlns="http://www.w3.org/2000/svg" width="265.082" height="246.551" viewBox="0 0 265.082 246.551">
  <g id="Call_center-pana_1_" data-name="Call center-pana (1)" transform="translate(-22.49 -42.85)">
    <g id="freepik--background-complete--inject-123" transform="translate(28.991 42.85)" style="mix-blend-mode: multiply;isolation: isolate">
      <rect id="Rectangle_317" data-name="Rectangle 317" width="37.051" height="37.051" rx="6.37" transform="translate(0 140.092) rotate(-12.08)" fill="#ebebeb"/>
      <path id="Path_6447" data-name="Path 6447" d="M74.621,302.325a2.409,2.409,0,0,0-.223-.805l-.1-.253a6.565,6.565,0,0,0-2.821-2.657,14.28,14.28,0,0,0-3.385-1.3l-.147-.035a.212.212,0,0,0-.241.1L65.4,301.3,56.971,295.9l2.3-4.249a.217.217,0,0,0,0-.17.2.2,0,0,0-.118-.129l-1.934-.929c-.317-.147-.517-.241-.647-.282a1.316,1.316,0,0,0-.188-.1l-.112-.059a2.9,2.9,0,0,0-.435-.188,5.977,5.977,0,0,0-2.3-.353,5.912,5.912,0,0,0-3.444,1.311,5.478,5.478,0,0,0-2.069,4.379,3.85,3.85,0,0,0,1.246,2.668,7.354,7.354,0,0,0,1.228.9l12.83,8.228c.159.094.317.2.476.3a12.294,12.294,0,0,0,1.175.7,7.315,7.315,0,0,0,1.922.676,6.956,6.956,0,0,0,1.393.141A6.647,6.647,0,0,0,71,308.15a6.183,6.183,0,0,0,3-2.845,4.947,4.947,0,0,0,.4-.958l.053-.17a2.757,2.757,0,0,0,.182-.852l.035-.553ZM58.546,291.746,56.136,296a.223.223,0,0,0,.065.294l9.286,6.089a.194.194,0,0,0,.17.029.217.217,0,0,0,.141-.1l2.392-4.05a13.163,13.163,0,0,1,2.868,1.175A5.877,5.877,0,0,1,73.5,301.7c.029.082.059.165.094.247a1.522,1.522,0,0,1,.153.552l.065.382-.041.47a2.157,2.157,0,0,1-.135.635l-.059.182a3.9,3.9,0,0,1-.341.811,5.4,5.4,0,0,1-2.58,2.422,5.942,5.942,0,0,1-3.579.37,6.789,6.789,0,0,1-1.693-.588c-.37-.188-.741-.429-1.1-.658l-.482-.306-12.86-8.164a7.344,7.344,0,0,1-1.123-.805,3.074,3.074,0,0,1-1.029-2.128,4.837,4.837,0,0,1,1.763-3.82,5.407,5.407,0,0,1,3.039-1.228h.394a5.531,5.531,0,0,1,2.245.441l.194.076c.118.076.306.176.588.329Z" transform="translate(-39.515 -144.505)" fill="#fff"/>
      <path id="Path_6448" data-name="Path 6448" d="M72.4,292.679a16.069,16.069,0,0,0,2.58-.411c.494,2.48.676,2.745.858,2.745h.071c.206-.041.37-.076-.159-2.892,2.868-.623,2.845-.788,2.809-.993h0a.253.253,0,0,0-.106-.153,8.226,8.226,0,0,0-2.856.376,8.617,8.617,0,0,0-.746-2.7.247.247,0,0,0-.329.059,8.734,8.734,0,0,0,.312,2.8c-2.639.588-2.745.764-2.786.835a.247.247,0,0,0,0,.194C72.064,292.608,72.087,292.679,72.4,292.679Z" transform="translate(-49.412 -144.169)" fill="#fff"/>
      <rect id="Rectangle_318" data-name="Rectangle 318" width="64.187" height="106.246" transform="translate(187.377 10.121)" fill="#e0e0e0"/>
      <rect id="Rectangle_319" data-name="Rectangle 319" width="64.187" height="106.246" transform="translate(185.244 10.121)" fill="#ebebeb"/>
      <rect id="Rectangle_320" data-name="Rectangle 320" width="58.721" height="101.938" transform="translate(187.977 12.278)" fill="#fafafa"/>
      <rect id="Rectangle_321" data-name="Rectangle 321" width="36.105" height="75.442" transform="translate(199.155 25.526)" fill="#ebebeb"/>
      <path id="Path_6449" data-name="Path 6449" d="M372.4,149.7c-.082-7.053,6.254-13.929,13.23-14.917,3.333-.464,6.865.194,9.992-1.081,5.554-2.275,7.317-9.651,12.9-11.837l.259,54.531H372.4Z" transform="translate(-173.244 -75.423)" fill="#e0e0e0"/>
      <rect id="Rectangle_322" data-name="Rectangle 322" width="49.37" height="51.468" transform="translate(119.67 9.921)" fill="#e0e0e0"/>
      <rect id="Rectangle_323" data-name="Rectangle 323" width="49.37" height="51.468" transform="translate(116.325 9.921)" fill="#fafafa"/>
      <path id="Path_6450" data-name="Path 6450" d="M280.845,111.2H231.44V59.7h49.405Zm-49.37,0h49.341V59.735H231.475Z" transform="translate(-115.132 -49.797)" fill="#e0e0e0"/>
      <rect id="Rectangle_324" data-name="Rectangle 324" width="36.099" height="37.627" transform="translate(122.961 16.839)" fill="#fafafa"/>
      <path id="Path_6451" data-name="Path 6451" d="M238.147,136a5.589,5.589,0,0,1-.887,1.034c-.588.588-1.387,1.434-2.3,2.351s-1.763,1.693-2.351,2.257a6.191,6.191,0,0,1-1.04.87,5.535,5.535,0,0,1,.882-1.034c.588-.588,1.393-1.434,2.3-2.351s1.763-1.7,2.351-2.263A5.49,5.49,0,0,1,238.147,136Z" transform="translate(-115.186 -81.252)" fill="#e0e0e0"/>
      <path id="Path_6452" data-name="Path 6452" d="M304.18,135.79a5.805,5.805,0,0,1,1.034.893c.588.588,1.434,1.387,2.351,2.292s1.693,1.763,2.257,2.351a6.065,6.065,0,0,1,.87,1.046,6.083,6.083,0,0,1-1.034-.887c-.588-.588-1.428-1.387-2.351-2.3s-1.7-1.763-2.263-2.351A5.611,5.611,0,0,1,304.18,135.79Z" transform="translate(-145.12 -81.165)" fill="#e0e0e0"/>
      <path id="Path_6453" data-name="Path 6453" d="M304,67.1a6.06,6.06,0,0,1,.893-1.034c.588-.588,1.387-1.434,2.292-2.351s1.763-1.693,2.351-2.257a6.067,6.067,0,0,1,1.046-.87,5.825,5.825,0,0,1-.887,1.034c-.588.588-1.387,1.434-2.3,2.351s-1.763,1.7-2.351,2.263A5.612,5.612,0,0,1,304,67.1Z" transform="translate(-145.046 -50.163)" fill="#e0e0e0"/>
      <path id="Path_6454" data-name="Path 6454" d="M238.026,67.213a6.336,6.336,0,0,1-1.034-.893c-.588-.588-1.428-1.387-2.351-2.292s-1.687-1.763-2.257-2.351a5.513,5.513,0,0,1-.864-1.046,5.942,5.942,0,0,1,1.029.887c.588.588,1.434,1.387,2.351,2.3s1.693,1.763,2.257,2.351A5.32,5.32,0,0,1,238.026,67.213Z" transform="translate(-115.165 -50.18)" fill="#e0e0e0"/>
      <path id="Path_6455" data-name="Path 6455" d="M278.654,108.975v-2.739c0-1.763,0-4.373-.035-7.641,0-6.594-.041-15.981-.07-27.224l.135.141H242.69l.159-.159v37.615l-.141-.135,26.066.071,7.323.035h2.557a.677.677,0,0,1-.159,0h-2.4l-7.288.035-26.154.071h-.135V71.13h36.3v.141c-.029,11.279-.053,20.7-.071,27.312,0,3.28-.029,5.877-.035,7.641v2.516a.774.774,0,0,1-.059.235Z" transform="translate(-119.7 -54.509)" fill="#e0e0e0"/>
      <rect id="Rectangle_325" data-name="Rectangle 325" width="12.043" height="12.043" transform="translate(134.986 29.634)" fill="#ebebeb"/>
      <path id="Path_6456" data-name="Path 6456" d="M449.874,428.45l-1.9,19.566h-10.1L435.88,428.45Z" transform="translate(-199.415 -201.818)" fill="#e0e0e0"/>
      <rect id="Rectangle_326" data-name="Rectangle 326" width="16.704" height="1.434" transform="translate(251.97 226.632) rotate(180)" fill="#ebebeb"/>
      <path id="Path_6457" data-name="Path 6457" d="M448.7,421.82l1.669,2.786H437.09l.641-2.786Z" transform="translate(-199.914 -199.084)" fill="#ebebeb"/>
      <path id="Path_6458" data-name="Path 6458" d="M449.7,439.66l-.682,6.982h-11.3l-.711-6.982Z" transform="translate(-199.881 -206.439)" fill="#f5f5f5"/>
      <path id="Path_6459" data-name="Path 6459" d="M445.34,445.79a3.221,3.221,0,0,1,.523-1.728c.282-.435.623-.811.9-1.175a3.638,3.638,0,0,0,.588-1.1,2.046,2.046,0,0,0,.088-.488l.076.041a1.763,1.763,0,0,1,.741,1.176,3.286,3.286,0,0,1-.065,1.393,3,3,0,0,1-.735,1.481,2.016,2.016,0,0,1-1.763.547A1.492,1.492,0,0,1,445.34,445.79Z" transform="translate(-203.315 -207.115)" fill="#fafafa"/>
      <path id="Path_6460" data-name="Path 6460" d="M443.866,444.137a6.047,6.047,0,0,1,.359-1.834,2.016,2.016,0,0,1,1.34-1.234,1.546,1.546,0,0,1,.97.041,2.28,2.28,0,0,1-.118.494,3.827,3.827,0,0,1-.588,1.034c-.276.364-.623.741-.917,1.176a3.173,3.173,0,0,0-.517,1.44,2.806,2.806,0,0,0,0,.311,1.176,1.176,0,0,1-.388-.388A1.916,1.916,0,0,1,443.866,444.137Z" transform="translate(-202.699 -206.995)" fill="#fafafa"/>
      <path id="Path_6461" data-name="Path 6461" d="M265.873,364.6c9.122-9.128,9.075-23.051,6.5-35.117-.429-2.01-.588-4.185-1.863-5.8s-3.75-2.416-5.413-1.24c-1.375.976-1.722,2.845-2.3,4.437a12,12,0,0,1-3.944,5.384,4.632,4.632,0,0,1-4.114,1.123c-1.922-.658-2.557-3.033-2.9-5.049q-.97-5.642-1.934-11.279a19.138,19.138,0,0,0-1.675-5.877,6.34,6.34,0,0,0-4.7-3.526c-2.034-.194-4.185,1.328-4.238,3.374a18.547,18.547,0,0,0,.388,2.521,2.152,2.152,0,0,1-.882,2.216,2.5,2.5,0,0,1-2.38-.529,27.267,27.267,0,0,1-6.1-6.406,37.079,37.079,0,0,0-5.825-6.694,11.082,11.082,0,0,0-8.117-2.827c-2.915.353-5.672,2.68-5.877,5.642s1.945,5.56,4.161,7.535a45.4,45.4,0,0,0,10.955,7.259,3.809,3.809,0,0,1,1.863,1.4c.682,1.27-.359,2.827-1.6,3.526a23.806,23.806,0,0,1-4.608,1.364c-1.54.464-3.115,1.463-3.444,3.05-.458,2.21,1.646,4.061,3.591,5.172a39.232,39.232,0,0,0,12.578,4.555,13.124,13.124,0,0,1,4.6,1.3c1.381.829,2.427,2.51,1.957,4.055s-2.239,2.351-3.844,2.322a26.768,26.768,0,0,1-4.7-.9c-2.939-.552-6.495.276-7.846,2.986a6.516,6.516,0,0,0,.329,5.76,14.859,14.859,0,0,0,3.938,4.432,39.314,39.314,0,0,0,18.62,8.681c6.818,1.087,12.877.629,18.843-2.845" transform="translate(-106.49 -148.554)" fill="#f5f5f5"/>
      <path id="Path_6462" data-name="Path 6462" d="M263.109,359.253a183.549,183.549,0,0,0-10.638-18.161l-3.027-4.614c-1-1.516-1.992-3.015-3.05-4.426a90.208,90.208,0,0,0-6.542-7.729c-2.2-2.351-4.379-4.526-6.424-6.53s-4.008-3.832-5.877-5.425a73.019,73.019,0,0,0-9.251-6.853c-1.175-.723-2.063-1.252-2.692-1.6l-.711-.4a1.654,1.654,0,0,0-.247-.118,1.312,1.312,0,0,0,.229.153l.694.429c.588.37,1.511.923,2.651,1.657a77.193,77.193,0,0,1,9.175,6.929c1.834,1.6,3.767,3.438,5.813,5.442s4.2,4.185,6.389,6.547a92.392,92.392,0,0,1,6.506,7.723c1.052,1.4,2.034,2.892,3.033,4.408l3.027,4.62A187.486,187.486,0,0,1,262.8,359.417" transform="translate(-108.21 -150.264)" fill="#e0e0e0"/>
      <path id="Path_6463" data-name="Path 6463" d="M267.67,336.243a4.653,4.653,0,0,0,.041-.893c0-.588,0-1.411-.047-2.439-.071-2.057-.27-4.9-.5-8.023s-.388-5.96-.429-8.011v-2.433a3.83,3.83,0,0,0-.047-.893,4.355,4.355,0,0,0-.1.887c-.047.588-.076,1.411-.088,2.439,0,2.057.088,4.908.317,8.034s.447,5.877.588,8.011c.065.964.118,1.763.165,2.427a3.726,3.726,0,0,0,.1.893Z" transform="translate(-129.586 -154.449)" fill="#e0e0e0"/>
      <path id="Path_6464" data-name="Path 6464" d="M222.94,351.129A5.116,5.116,0,0,0,224,351.07c.676-.059,1.652-.153,2.862-.223,2.416-.165,5.766-.282,9.463-.241s7.053.223,9.469.423c1.211.094,2.186.194,2.862.259a5.877,5.877,0,0,0,1.058.071,5.747,5.747,0,0,0-1.04-.217c-.67-.112-1.646-.253-2.856-.376-2.416-.27-5.777-.5-9.486-.541a93.6,93.6,0,0,0-9.492.353c-1.211.112-2.186.241-2.862.347A5.579,5.579,0,0,0,222.94,351.129Z" transform="translate(-111.628 -169.564)" fill="#e0e0e0"/>
      <path id="Path_6465" data-name="Path 6465" d="M296.41,372.881a1.47,1.47,0,0,0,.123-.347c.071-.276.165-.588.276-1.017.235-.882.541-2.169.9-3.767.723-3.191,1.581-7.641,2.463-12.536s1.693-9.357,2.351-12.554c.317-1.558.588-2.839.782-3.791.082-.411.153-.752.212-1.034a1.511,1.511,0,0,0,.047-.364,1.086,1.086,0,0,0-.123.347l-.276,1.017c-.235.882-.547,2.169-.905,3.767-.717,3.191-1.575,7.641-2.457,12.542s-1.7,9.351-2.351,12.548c-.323,1.557-.588,2.839-.782,3.791-.088.411-.153.752-.212,1.034a1.51,1.51,0,0,0-.047.364Z" transform="translate(-141.917 -164.31)" fill="#e0e0e0"/>
      <path id="Path_6466" data-name="Path 6466" d="M234.48,389.268a1.6,1.6,0,0,0,.364.076l1.058.159,3.9.535c3.291.458,7.829,1.14,12.848,1.9s9.568,1.4,12.872,1.763c1.652.194,2.986.335,3.914.417l1.064.082a1.4,1.4,0,0,0,.376,0,1.462,1.462,0,0,0-.364-.082l-1.064-.153-3.9-.541c-3.291-.453-7.835-1.134-12.848-1.892s-9.568-1.4-12.871-1.763c-1.652-.194-2.986-.341-3.914-.417l-1.07-.088A1.176,1.176,0,0,0,234.48,389.268Z" transform="translate(-116.386 -185.657)" fill="#e0e0e0"/>
      <rect id="Rectangle_327" data-name="Rectangle 327" width="41.647" height="43.416" transform="translate(6.954 0.025) rotate(0.13)" fill="#e0e0e0"/>
      <rect id="Rectangle_328" data-name="Rectangle 328" width="41.647" height="43.416" transform="translate(4.133 0.013) rotate(0.13)" fill="#455a64"/>
      <path id="Path_6467" data-name="Path 6467" d="M82.071,86.384,40.4,86.29l.1-43.44,41.671.094Z" transform="translate(-36.374 -42.85)" fill="#f5f5f5"/>
      <rect id="Rectangle_329" data-name="Rectangle 329" width="30.451" height="31.744" transform="translate(9.721 5.862) rotate(0.13)" fill="#fff"/>
      <path id="Path_6468" data-name="Path 6468" d="M46.092,107.19a5.243,5.243,0,0,1-.752.87c-.488.511-1.175,1.175-1.945,1.957s-1.469,1.428-1.992,1.9a4.4,4.4,0,0,1-.882.729,5.166,5.166,0,0,1,.735-.87c.488-.511,1.175-1.175,1.945-1.957s1.475-1.428,1.992-1.9A4.825,4.825,0,0,1,46.092,107.19Z" transform="translate(-36.424 -69.375)" fill="#e0e0e0"/>
      <path id="Path_6469" data-name="Path 6469" d="M101.78,107.18a5.166,5.166,0,0,1,.87.752c.511.488,1.175,1.175,1.957,1.94s1.422,1.475,1.9,1.992a5.43,5.43,0,0,1,.735.882,4.413,4.413,0,0,1-.87-.746c-.511-.488-1.175-1.175-1.963-1.945s-1.428-1.481-1.9-2a4.7,4.7,0,0,1-.723-.876Z" transform="translate(-61.679 -69.371)" fill="#e0e0e0"/>
      <path id="Path_6470" data-name="Path 6470" d="M101.76,49.26a4.8,4.8,0,0,1,.729-.876c.488-.511,1.175-1.2,1.94-1.957s1.475-1.422,1.992-1.9a4.826,4.826,0,0,1,.882-.729,4.7,4.7,0,0,1-.7.864c-.488.517-1.175,1.211-1.945,1.963s-1.475,1.428-2,1.9A4.7,4.7,0,0,1,101.76,49.26Z" transform="translate(-61.67 -43.242)" fill="#e0e0e0"/>
      <path id="Path_6471" data-name="Path 6471" d="M46.149,49.2a4.908,4.908,0,0,1-.87-.752c-.517-.488-1.175-1.175-1.963-1.94s-1.452-1.481-1.928-1.992a4.825,4.825,0,0,1-.729-.882,4.849,4.849,0,0,1,.87.746c.511.488,1.175,1.175,1.957,1.945s1.428,1.475,1.9,2A4.7,4.7,0,0,1,46.149,49.2Z" transform="translate(-36.481 -43.172)" fill="#e0e0e0"/>
      <path id="Path_6472" data-name="Path 6472" d="M80.268,84.561a.782.782,0,0,1,0-.153V52.823l.118.118-30.41-.088h0l.135-.129c-.035,11.649-.065,22.546-.094,31.738l-.112-.118,21.987.112,6.177.047H79.7l-1.575.059H49.8v-.118c0-9.192.035-20.089.053-31.738V52.57h.141l30.363.082h.118v.118c-.047,9.516-.088,17.462-.112,23.039,0,2.768-.035,4.943-.047,6.465V84.4A.277.277,0,0,1,80.268,84.561Z" transform="translate(-40.249 -46.857)" fill="#e0e0e0"/>
      <path id="Path_6473" data-name="Path 6473" d="M65.083,80.985a6.741,6.741,0,0,1-.282-8.863c.852-.964,1.975-1.675,2.762-2.692,1.7-2.21,1.687-5.7,4.055-7.176A4.325,4.325,0,0,1,77.072,63.4a5.783,5.783,0,0,1,.529,5.789c-.588,1.375-1.657,2.545-2.086,3.979s-.2,3.086-.647,4.584c-.588,1.763-2.433,2.886-4.173,3.526a7.823,7.823,0,0,1-5.6-.264" transform="translate(-45.805 -50.628)" fill="#f5f5f5"/>
      <path id="Path_6474" data-name="Path 6474" d="M72.664,69.66a5.431,5.431,0,0,1-.3.835c-.2.535-.523,1.3-.946,2.228a63.576,63.576,0,0,1-3.779,7.053,62.889,62.889,0,0,1-4.655,6.465c-.652.793-1.175,1.416-1.581,1.84a6.332,6.332,0,0,1-.623.635,4.8,4.8,0,0,1,.541-.705c.364-.441.882-1.087,1.51-1.887A74.041,74.041,0,0,0,71.212,72.64c.441-.917.793-1.663,1.029-2.186A4.978,4.978,0,0,1,72.664,69.66Z" transform="translate(-44.776 -53.903)" fill="#e0e0e0"/>
      <path id="Path_6475" data-name="Path 6475" d="M70.239,79a10.15,10.15,0,0,1,.241,1.6c.118,1.005.264,2.4.411,3.979l-.206-.112.658-.382c1.522-.887,2.939-1.675,3.92-2.233A13.069,13.069,0,0,1,76.928,81a12.144,12.144,0,0,1-1.54,1.023c-.982.588-2.351,1.416-3.879,2.3l-.658.382-.182.106V84.6c-.141-1.575-.253-2.98-.323-3.985A9.938,9.938,0,0,1,70.239,79Z" transform="translate(-48.675 -57.753)" fill="#e0e0e0"/>
      <path id="Path_6476" data-name="Path 6476" d="M80.7,73.714a5.243,5.243,0,0,1-1.029.588c-.652.323-1.552.746-2.563,1.175l-.311.141-.165.076v-.176c-.153-1.017-.282-1.922-.359-2.574a4.373,4.373,0,0,1-.071-1.064,4.32,4.32,0,0,1,.253,1.034c.129.647.288,1.546.447,2.563L76.67,75.4l.311-.141c1.005-.458,1.922-.858,2.592-1.134A5.537,5.537,0,0,1,80.7,73.714Z" transform="translate(-51.132 -54.818)" fill="#e0e0e0"/>
    </g>
    <g id="freepik--background-complete--inject-123-2" data-name="freepik--background-complete--inject-123" transform="translate(28.991 42.85)" opacity="0.15" style="isolation: isolate">
      <rect id="Rectangle_317-2" data-name="Rectangle 317" width="37.051" height="37.051" rx="6.37" transform="translate(0 140.092) rotate(-12.08)" fill="#ebebeb"/>
      <path id="Path_6447-2" data-name="Path 6447" d="M74.621,302.325a2.409,2.409,0,0,0-.223-.805l-.1-.253a6.565,6.565,0,0,0-2.821-2.657,14.28,14.28,0,0,0-3.385-1.3l-.147-.035a.212.212,0,0,0-.241.1L65.4,301.3,56.971,295.9l2.3-4.249a.217.217,0,0,0,0-.17.2.2,0,0,0-.118-.129l-1.934-.929c-.317-.147-.517-.241-.647-.282a1.316,1.316,0,0,0-.188-.1l-.112-.059a2.9,2.9,0,0,0-.435-.188,5.977,5.977,0,0,0-2.3-.353,5.912,5.912,0,0,0-3.444,1.311,5.478,5.478,0,0,0-2.069,4.379,3.85,3.85,0,0,0,1.246,2.668,7.354,7.354,0,0,0,1.228.9l12.83,8.228c.159.094.317.2.476.3a12.294,12.294,0,0,0,1.175.7,7.315,7.315,0,0,0,1.922.676,6.956,6.956,0,0,0,1.393.141A6.647,6.647,0,0,0,71,308.15a6.183,6.183,0,0,0,3-2.845,4.947,4.947,0,0,0,.4-.958l.053-.17a2.757,2.757,0,0,0,.182-.852l.035-.553ZM58.546,291.746,56.136,296a.223.223,0,0,0,.065.294l9.286,6.089a.194.194,0,0,0,.17.029.217.217,0,0,0,.141-.1l2.392-4.05a13.163,13.163,0,0,1,2.868,1.175A5.877,5.877,0,0,1,73.5,301.7c.029.082.059.165.094.247a1.522,1.522,0,0,1,.153.552l.065.382-.041.47a2.157,2.157,0,0,1-.135.635l-.059.182a3.9,3.9,0,0,1-.341.811,5.4,5.4,0,0,1-2.58,2.422,5.942,5.942,0,0,1-3.579.37,6.789,6.789,0,0,1-1.693-.588c-.37-.188-.741-.429-1.1-.658l-.482-.306-12.86-8.164a7.344,7.344,0,0,1-1.123-.805,3.074,3.074,0,0,1-1.029-2.128,4.837,4.837,0,0,1,1.763-3.82,5.407,5.407,0,0,1,3.039-1.228h.394a5.531,5.531,0,0,1,2.245.441l.194.076c.118.076.306.176.588.329Z" transform="translate(-39.515 -144.505)" fill="#fff"/>
      <path id="Path_6448-2" data-name="Path 6448" d="M72.4,292.679a16.069,16.069,0,0,0,2.58-.411c.494,2.48.676,2.745.858,2.745h.071c.206-.041.37-.076-.159-2.892,2.868-.623,2.845-.788,2.809-.993h0a.253.253,0,0,0-.106-.153,8.226,8.226,0,0,0-2.856.376,8.617,8.617,0,0,0-.746-2.7.247.247,0,0,0-.329.059,8.734,8.734,0,0,0,.312,2.8c-2.639.588-2.745.764-2.786.835a.247.247,0,0,0,0,.194C72.064,292.608,72.087,292.679,72.4,292.679Z" transform="translate(-49.412 -144.169)" fill="#fff"/>
      <rect id="Rectangle_318-2" data-name="Rectangle 318" width="64.187" height="106.246" transform="translate(187.377 10.121)" fill="#e0e0e0"/>
      <rect id="Rectangle_319-2" data-name="Rectangle 319" width="64.187" height="106.246" transform="translate(185.244 10.121)" fill="#ebebeb"/>
      <rect id="Rectangle_320-2" data-name="Rectangle 320" width="58.721" height="101.938" transform="translate(187.977 12.278)" fill="#fafafa"/>
      <rect id="Rectangle_321-2" data-name="Rectangle 321" width="36.105" height="75.442" transform="translate(199.155 25.526)" fill="#ebebeb"/>
      <path id="Path_6449-2" data-name="Path 6449" d="M372.4,149.7c-.082-7.053,6.254-13.929,13.23-14.917,3.333-.464,6.865.194,9.992-1.081,5.554-2.275,7.317-9.651,12.9-11.837l.259,54.531H372.4Z" transform="translate(-173.244 -75.423)" fill="#e0e0e0"/>
      <rect id="Rectangle_322-2" data-name="Rectangle 322" width="49.37" height="51.468" transform="translate(119.67 9.921)" fill="#e0e0e0"/>
      <rect id="Rectangle_323-2" data-name="Rectangle 323" width="49.37" height="51.468" transform="translate(116.325 9.921)" fill="#fafafa"/>
      <path id="Path_6450-2" data-name="Path 6450" d="M280.845,111.2H231.44V59.7h49.405Zm-49.37,0h49.341V59.735H231.475Z" transform="translate(-115.132 -49.797)" fill="#e0e0e0"/>
      <rect id="Rectangle_324-2" data-name="Rectangle 324" width="36.099" height="37.627" transform="translate(122.961 16.839)" fill="#fafafa"/>
      <path id="Path_6451-2" data-name="Path 6451" d="M238.147,136a5.589,5.589,0,0,1-.887,1.034c-.588.588-1.387,1.434-2.3,2.351s-1.763,1.693-2.351,2.257a6.191,6.191,0,0,1-1.04.87,5.535,5.535,0,0,1,.882-1.034c.588-.588,1.393-1.434,2.3-2.351s1.763-1.7,2.351-2.263A5.49,5.49,0,0,1,238.147,136Z" transform="translate(-115.186 -81.252)" fill="#e0e0e0"/>
      <path id="Path_6452-2" data-name="Path 6452" d="M304.18,135.79a5.805,5.805,0,0,1,1.034.893c.588.588,1.434,1.387,2.351,2.292s1.693,1.763,2.257,2.351a6.065,6.065,0,0,1,.87,1.046,6.083,6.083,0,0,1-1.034-.887c-.588-.588-1.428-1.387-2.351-2.3s-1.7-1.763-2.263-2.351A5.611,5.611,0,0,1,304.18,135.79Z" transform="translate(-145.12 -81.165)" fill="#e0e0e0"/>
      <path id="Path_6453-2" data-name="Path 6453" d="M304,67.1a6.06,6.06,0,0,1,.893-1.034c.588-.588,1.387-1.434,2.292-2.351s1.763-1.693,2.351-2.257a6.067,6.067,0,0,1,1.046-.87,5.825,5.825,0,0,1-.887,1.034c-.588.588-1.387,1.434-2.3,2.351s-1.763,1.7-2.351,2.263A5.612,5.612,0,0,1,304,67.1Z" transform="translate(-145.046 -50.163)" fill="#e0e0e0"/>
      <path id="Path_6454-2" data-name="Path 6454" d="M238.026,67.213a6.336,6.336,0,0,1-1.034-.893c-.588-.588-1.428-1.387-2.351-2.292s-1.687-1.763-2.257-2.351a5.513,5.513,0,0,1-.864-1.046,5.942,5.942,0,0,1,1.029.887c.588.588,1.434,1.387,2.351,2.3s1.693,1.763,2.257,2.351A5.32,5.32,0,0,1,238.026,67.213Z" transform="translate(-115.165 -50.18)" fill="#e0e0e0"/>
      <path id="Path_6455-2" data-name="Path 6455" d="M278.654,108.975v-2.739c0-1.763,0-4.373-.035-7.641,0-6.594-.041-15.981-.07-27.224l.135.141H242.69l.159-.159v37.615l-.141-.135,26.066.071,7.323.035h2.557a.677.677,0,0,1-.159,0h-2.4l-7.288.035-26.154.071h-.135V71.13h36.3v.141c-.029,11.279-.053,20.7-.071,27.312,0,3.28-.029,5.877-.035,7.641v2.516a.774.774,0,0,1-.059.235Z" transform="translate(-119.7 -54.509)" fill="#e0e0e0"/>
      <rect id="Rectangle_325-2" data-name="Rectangle 325" width="12.043" height="12.043" transform="translate(134.986 29.634)" fill="#ebebeb"/>
      <path id="Path_6456-2" data-name="Path 6456" d="M449.874,428.45l-1.9,19.566h-10.1L435.88,428.45Z" transform="translate(-199.415 -201.818)" fill="#e0e0e0"/>
      <rect id="Rectangle_326-2" data-name="Rectangle 326" width="16.704" height="1.434" transform="translate(251.97 226.632) rotate(180)" fill="#ebebeb"/>
      <path id="Path_6457-2" data-name="Path 6457" d="M448.7,421.82l1.669,2.786H437.09l.641-2.786Z" transform="translate(-199.914 -199.084)" fill="#ebebeb"/>
      <path id="Path_6458-2" data-name="Path 6458" d="M449.7,439.66l-.682,6.982h-11.3l-.711-6.982Z" transform="translate(-199.881 -206.439)" fill="#f5f5f5"/>
      <path id="Path_6459-2" data-name="Path 6459" d="M445.34,445.79a3.221,3.221,0,0,1,.523-1.728c.282-.435.623-.811.9-1.175a3.638,3.638,0,0,0,.588-1.1,2.046,2.046,0,0,0,.088-.488l.076.041a1.763,1.763,0,0,1,.741,1.176,3.286,3.286,0,0,1-.065,1.393,3,3,0,0,1-.735,1.481,2.016,2.016,0,0,1-1.763.547A1.492,1.492,0,0,1,445.34,445.79Z" transform="translate(-203.315 -207.115)" fill="#fafafa"/>
      <path id="Path_6460-2" data-name="Path 6460" d="M443.866,444.137a6.047,6.047,0,0,1,.359-1.834,2.016,2.016,0,0,1,1.34-1.234,1.546,1.546,0,0,1,.97.041,2.28,2.28,0,0,1-.118.494,3.827,3.827,0,0,1-.588,1.034c-.276.364-.623.741-.917,1.176a3.173,3.173,0,0,0-.517,1.44,2.806,2.806,0,0,0,0,.311,1.176,1.176,0,0,1-.388-.388A1.916,1.916,0,0,1,443.866,444.137Z" transform="translate(-202.699 -206.995)" fill="#fafafa"/>
      <path id="Path_6461-2" data-name="Path 6461" d="M265.873,364.6c9.122-9.128,9.075-23.051,6.5-35.117-.429-2.01-.588-4.185-1.863-5.8s-3.75-2.416-5.413-1.24c-1.375.976-1.722,2.845-2.3,4.437a12,12,0,0,1-3.944,5.384,4.632,4.632,0,0,1-4.114,1.123c-1.922-.658-2.557-3.033-2.9-5.049q-.97-5.642-1.934-11.279a19.138,19.138,0,0,0-1.675-5.877,6.34,6.34,0,0,0-4.7-3.526c-2.034-.194-4.185,1.328-4.238,3.374a18.547,18.547,0,0,0,.388,2.521,2.152,2.152,0,0,1-.882,2.216,2.5,2.5,0,0,1-2.38-.529,27.267,27.267,0,0,1-6.1-6.406,37.079,37.079,0,0,0-5.825-6.694,11.082,11.082,0,0,0-8.117-2.827c-2.915.353-5.672,2.68-5.877,5.642s1.945,5.56,4.161,7.535a45.4,45.4,0,0,0,10.955,7.259,3.809,3.809,0,0,1,1.863,1.4c.682,1.27-.359,2.827-1.6,3.526a23.806,23.806,0,0,1-4.608,1.364c-1.54.464-3.115,1.463-3.444,3.05-.458,2.21,1.646,4.061,3.591,5.172a39.232,39.232,0,0,0,12.578,4.555,13.124,13.124,0,0,1,4.6,1.3c1.381.829,2.427,2.51,1.957,4.055s-2.239,2.351-3.844,2.322a26.768,26.768,0,0,1-4.7-.9c-2.939-.552-6.495.276-7.846,2.986a6.516,6.516,0,0,0,.329,5.76,14.859,14.859,0,0,0,3.938,4.432,39.314,39.314,0,0,0,18.62,8.681c6.818,1.087,12.877.629,18.843-2.845" transform="translate(-106.49 -148.554)" fill="#f5f5f5"/>
      <path id="Path_6462-2" data-name="Path 6462" d="M263.109,359.253a183.549,183.549,0,0,0-10.638-18.161l-3.027-4.614c-1-1.516-1.992-3.015-3.05-4.426a90.208,90.208,0,0,0-6.542-7.729c-2.2-2.351-4.379-4.526-6.424-6.53s-4.008-3.832-5.877-5.425a73.019,73.019,0,0,0-9.251-6.853c-1.175-.723-2.063-1.252-2.692-1.6l-.711-.4a1.654,1.654,0,0,0-.247-.118,1.312,1.312,0,0,0,.229.153l.694.429c.588.37,1.511.923,2.651,1.657a77.193,77.193,0,0,1,9.175,6.929c1.834,1.6,3.767,3.438,5.813,5.442s4.2,4.185,6.389,6.547a92.392,92.392,0,0,1,6.506,7.723c1.052,1.4,2.034,2.892,3.033,4.408l3.027,4.62A187.486,187.486,0,0,1,262.8,359.417" transform="translate(-108.21 -150.264)" fill="#e0e0e0"/>
      <path id="Path_6463-2" data-name="Path 6463" d="M267.67,336.243a4.653,4.653,0,0,0,.041-.893c0-.588,0-1.411-.047-2.439-.071-2.057-.27-4.9-.5-8.023s-.388-5.96-.429-8.011v-2.433a3.83,3.83,0,0,0-.047-.893,4.355,4.355,0,0,0-.1.887c-.047.588-.076,1.411-.088,2.439,0,2.057.088,4.908.317,8.034s.447,5.877.588,8.011c.065.964.118,1.763.165,2.427a3.726,3.726,0,0,0,.1.893Z" transform="translate(-129.586 -154.449)" fill="#e0e0e0"/>
      <path id="Path_6464-2" data-name="Path 6464" d="M222.94,351.129A5.116,5.116,0,0,0,224,351.07c.676-.059,1.652-.153,2.862-.223,2.416-.165,5.766-.282,9.463-.241s7.053.223,9.469.423c1.211.094,2.186.194,2.862.259a5.877,5.877,0,0,0,1.058.071,5.747,5.747,0,0,0-1.04-.217c-.67-.112-1.646-.253-2.856-.376-2.416-.27-5.777-.5-9.486-.541a93.6,93.6,0,0,0-9.492.353c-1.211.112-2.186.241-2.862.347A5.579,5.579,0,0,0,222.94,351.129Z" transform="translate(-111.628 -169.564)" fill="#e0e0e0"/>
      <path id="Path_6465-2" data-name="Path 6465" d="M296.41,372.881a1.47,1.47,0,0,0,.123-.347c.071-.276.165-.588.276-1.017.235-.882.541-2.169.9-3.767.723-3.191,1.581-7.641,2.463-12.536s1.693-9.357,2.351-12.554c.317-1.558.588-2.839.782-3.791.082-.411.153-.752.212-1.034a1.511,1.511,0,0,0,.047-.364,1.086,1.086,0,0,0-.123.347l-.276,1.017c-.235.882-.547,2.169-.905,3.767-.717,3.191-1.575,7.641-2.457,12.542s-1.7,9.351-2.351,12.548c-.323,1.557-.588,2.839-.782,3.791-.088.411-.153.752-.212,1.034a1.51,1.51,0,0,0-.047.364Z" transform="translate(-141.917 -164.31)" fill="#e0e0e0"/>
      <path id="Path_6466-2" data-name="Path 6466" d="M234.48,389.268a1.6,1.6,0,0,0,.364.076l1.058.159,3.9.535c3.291.458,7.829,1.14,12.848,1.9s9.568,1.4,12.872,1.763c1.652.194,2.986.335,3.914.417l1.064.082a1.4,1.4,0,0,0,.376,0,1.462,1.462,0,0,0-.364-.082l-1.064-.153-3.9-.541c-3.291-.453-7.835-1.134-12.848-1.892s-9.568-1.4-12.871-1.763c-1.652-.194-2.986-.341-3.914-.417l-1.07-.088A1.176,1.176,0,0,0,234.48,389.268Z" transform="translate(-116.386 -185.657)" fill="#e0e0e0"/>
      <rect id="Rectangle_327-2" data-name="Rectangle 327" width="41.647" height="43.416" transform="translate(6.954 0.025) rotate(0.13)" fill="#e0e0e0"/>
      <rect id="Rectangle_328-2" data-name="Rectangle 328" width="41.647" height="43.416" transform="translate(4.133 0.013) rotate(0.13)" fill="#455a64"/>
      <path id="Path_6467-2" data-name="Path 6467" d="M82.071,86.384,40.4,86.29l.1-43.44,41.671.094Z" transform="translate(-36.374 -42.85)" fill="#f5f5f5"/>
      <rect id="Rectangle_329-2" data-name="Rectangle 329" width="30.451" height="31.744" transform="translate(9.721 5.862) rotate(0.13)" fill="#fff"/>
      <path id="Path_6468-2" data-name="Path 6468" d="M46.092,107.19a5.243,5.243,0,0,1-.752.87c-.488.511-1.175,1.175-1.945,1.957s-1.469,1.428-1.992,1.9a4.4,4.4,0,0,1-.882.729,5.166,5.166,0,0,1,.735-.87c.488-.511,1.175-1.175,1.945-1.957s1.475-1.428,1.992-1.9A4.825,4.825,0,0,1,46.092,107.19Z" transform="translate(-36.424 -69.375)" fill="#e0e0e0"/>
      <path id="Path_6469-2" data-name="Path 6469" d="M101.78,107.18a5.166,5.166,0,0,1,.87.752c.511.488,1.175,1.175,1.957,1.94s1.422,1.475,1.9,1.992a5.43,5.43,0,0,1,.735.882,4.413,4.413,0,0,1-.87-.746c-.511-.488-1.175-1.175-1.963-1.945s-1.428-1.481-1.9-2a4.7,4.7,0,0,1-.723-.876Z" transform="translate(-61.679 -69.371)" fill="#e0e0e0"/>
      <path id="Path_6470-2" data-name="Path 6470" d="M101.76,49.26a4.8,4.8,0,0,1,.729-.876c.488-.511,1.175-1.2,1.94-1.957s1.475-1.422,1.992-1.9a4.826,4.826,0,0,1,.882-.729,4.7,4.7,0,0,1-.7.864c-.488.517-1.175,1.211-1.945,1.963s-1.475,1.428-2,1.9A4.7,4.7,0,0,1,101.76,49.26Z" transform="translate(-61.67 -43.242)" fill="#e0e0e0"/>
      <path id="Path_6471-2" data-name="Path 6471" d="M46.149,49.2a4.908,4.908,0,0,1-.87-.752c-.517-.488-1.175-1.175-1.963-1.94s-1.452-1.481-1.928-1.992a4.825,4.825,0,0,1-.729-.882,4.849,4.849,0,0,1,.87.746c.511.488,1.175,1.175,1.957,1.945s1.428,1.475,1.9,2A4.7,4.7,0,0,1,46.149,49.2Z" transform="translate(-36.481 -43.172)" fill="#e0e0e0"/>
      <path id="Path_6472-2" data-name="Path 6472" d="M80.268,84.561a.782.782,0,0,1,0-.153V52.823l.118.118-30.41-.088h0l.135-.129c-.035,11.649-.065,22.546-.094,31.738l-.112-.118,21.987.112,6.177.047H79.7l-1.575.059H49.8v-.118c0-9.192.035-20.089.053-31.738V52.57h.141l30.363.082h.118v.118c-.047,9.516-.088,17.462-.112,23.039,0,2.768-.035,4.943-.047,6.465V84.4A.277.277,0,0,1,80.268,84.561Z" transform="translate(-40.249 -46.857)" fill="#e0e0e0"/>
      <path id="Path_6473-2" data-name="Path 6473" d="M65.083,80.985a6.741,6.741,0,0,1-.282-8.863c.852-.964,1.975-1.675,2.762-2.692,1.7-2.21,1.687-5.7,4.055-7.176A4.325,4.325,0,0,1,77.072,63.4a5.783,5.783,0,0,1,.529,5.789c-.588,1.375-1.657,2.545-2.086,3.979s-.2,3.086-.647,4.584c-.588,1.763-2.433,2.886-4.173,3.526a7.823,7.823,0,0,1-5.6-.264" transform="translate(-45.805 -50.628)" fill="#f5f5f5"/>
      <path id="Path_6474-2" data-name="Path 6474" d="M72.664,69.66a5.431,5.431,0,0,1-.3.835c-.2.535-.523,1.3-.946,2.228a63.576,63.576,0,0,1-3.779,7.053,62.889,62.889,0,0,1-4.655,6.465c-.652.793-1.175,1.416-1.581,1.84a6.332,6.332,0,0,1-.623.635,4.8,4.8,0,0,1,.541-.705c.364-.441.882-1.087,1.51-1.887A74.041,74.041,0,0,0,71.212,72.64c.441-.917.793-1.663,1.029-2.186A4.978,4.978,0,0,1,72.664,69.66Z" transform="translate(-44.776 -53.903)" fill="#e0e0e0"/>
      <path id="Path_6475-2" data-name="Path 6475" d="M70.239,79a10.15,10.15,0,0,1,.241,1.6c.118,1.005.264,2.4.411,3.979l-.206-.112.658-.382c1.522-.887,2.939-1.675,3.92-2.233A13.069,13.069,0,0,1,76.928,81a12.144,12.144,0,0,1-1.54,1.023c-.982.588-2.351,1.416-3.879,2.3l-.658.382-.182.106V84.6c-.141-1.575-.253-2.98-.323-3.985A9.938,9.938,0,0,1,70.239,79Z" transform="translate(-48.675 -57.753)" fill="#e0e0e0"/>
      <path id="Path_6476-2" data-name="Path 6476" d="M80.7,73.714a5.243,5.243,0,0,1-1.029.588c-.652.323-1.552.746-2.563,1.175l-.311.141-.165.076v-.176c-.153-1.017-.282-1.922-.359-2.574a4.373,4.373,0,0,1-.071-1.064,4.32,4.32,0,0,1,.253,1.034c.129.647.288,1.546.447,2.563L76.67,75.4l.311-.141c1.005-.458,1.922-.858,2.592-1.134A5.537,5.537,0,0,1,80.7,73.714Z" transform="translate(-51.132 -54.818)" fill="#e0e0e0"/>
    </g>
    <g id="freepik--Floor--inject-123" transform="translate(22.49 288.895)">
      <path id="Path_6477" data-name="Path 6477" d="M287.572,461.633c0,.088-59.362.153-132.535.153s-132.547-.065-132.547-.153,59.362-.153,132.547-.153S287.572,461.551,287.572,461.633Z" transform="translate(-22.49 -461.48)" fill="#263238"/>
    </g>
    <g id="freepik--Plant--inject-123" transform="translate(64.082 199.71)">
      <path id="Path_6478" data-name="Path 6478" d="M142.791,372.294a14.637,14.637,0,0,1,9.1-1.1,7.541,7.541,0,0,1,4.5,2c1.123,1.24,1.34,3.427.047,4.49a4.343,4.343,0,0,1-2.833.723c-2.41,0-5.078-.453-7,.993-1.093.829-1.828,2.2-3.139,2.6a3.1,3.1,0,0,1-3.409-1.516,5.29,5.29,0,0,1-.388-3.908A5.971,5.971,0,0,1,142.791,372.294Z" transform="translate(-112.302 -334.965)" fill="#b24bf3"/>
      <path id="Path_6479" data-name="Path 6479" d="M133.213,334.823c1.693,2.416,4.984,1.616,6.512.141s2.169-3.615,2.757-5.654c1.34-4.661,2.692-9.551,1.7-14.294a7.964,7.964,0,0,0-1.828-3.891,4.155,4.155,0,0,0-3.932-1.3c-1.657.435-2.692,2.063-3.438,3.609a34.054,34.054,0,0,0-3.362,14.623,11.9,11.9,0,0,0,1.593,6.771" transform="translate(-109.071 -309.737)" fill="#b24bf3"/>
      <path id="Path_6480" data-name="Path 6480" d="M112.753,343.75a8.788,8.788,0,0,0,1.364-8.093,15.658,15.658,0,0,0-4.79-6.959,25.961,25.961,0,0,0-8.581-5.066,9.122,9.122,0,0,0-3.867-.641,4.055,4.055,0,0,0-3.244,1.957c-.9,1.728-.035,3.814.9,5.519a64.992,64.992,0,0,0,5.642,8.593c1.693,2.175,3.626,4.326,6.2,5.29s5.254.87,6.618-.917" transform="translate(-93.255 -315.196)" fill="#b24bf3"/>
      <path id="Path_6481" data-name="Path 6481" d="M134.1,398.862a5.437,5.437,0,0,0,.153-1.1c.076-.8.176-1.8.294-3a43.055,43.055,0,0,1,.647-4.408,34.745,34.745,0,0,1,1.6-5.19,19.222,19.222,0,0,1,2.651-4.7,9.845,9.845,0,0,1,3.35-2.786,9.4,9.4,0,0,1,2.827-.882,4.83,4.83,0,0,0,1.093-.159,5.458,5.458,0,0,0-1.117,0,8.608,8.608,0,0,0-2.939.77,9.856,9.856,0,0,0-3.526,2.809,18.678,18.678,0,0,0-2.745,4.79,31.479,31.479,0,0,0-1.587,5.29,36.835,36.835,0,0,0-.588,4.449c-.094,1.275-.129,2.3-.147,3.021A5.048,5.048,0,0,0,134.1,398.862Z" transform="translate(-110.075 -337.307)" fill="#263238"/>
      <path id="Path_6482" data-name="Path 6482" d="M134.325,375.788a2.155,2.155,0,0,0,0-.511c0-.382,0-.864,0-1.458,0-1.264,0-3.1.071-5.354.112-4.526.5-9.4,1.252-16.251.711-6.465,1.669-13.959,2.674-18.837.217-1.111.435-2.11.641-2.986s.364-1.634.523-2.245.253-1.046.341-1.416a2.129,2.129,0,0,0,.088-.5,2.2,2.2,0,0,0-.176.476c-.112.364-.253.829-.423,1.4s-.382,1.352-.588,2.228-.47,1.869-.705,2.974a165.044,165.044,0,0,0-2.809,17.474c-.752,6.871-1.093,13.13-1.123,17.667,0,2.263,0,4.114.076,5.366.041.588.071,1.07.094,1.458A2.068,2.068,0,0,0,134.325,375.788Z" transform="translate(-110.09 -316.536)" fill="#263238"/>
      <path id="Path_6483" data-name="Path 6483" d="M123.2,366.3a8.669,8.669,0,0,0,0-1.522,40.726,40.726,0,0,0-.464-4.114,54.536,54.536,0,0,0-1.34-6.013,49.17,49.17,0,0,0-2.516-7.112,37.915,37.915,0,0,0-7.382-11.5,19.106,19.106,0,0,0-1.763-1.616c-.27-.223-.505-.447-.746-.623l-.67-.464a9,9,0,0,0-1.281-.823,46.22,46.22,0,0,1,4.2,3.75,39.966,39.966,0,0,1,7.194,11.449,55.8,55.8,0,0,1,2.527,7.053,59.482,59.482,0,0,1,1.428,5.954c.317,1.716.5,3.115.588,4.085a10.322,10.322,0,0,0,.223,1.493Z" transform="translate(-98.937 -319.129)" fill="#263238"/>
      <path id="Path_6484" data-name="Path 6484" d="M114.69,426.24l1.211,16.574h21.288L138.4,426.24Z" transform="translate(-102.092 -357.766)" fill="#263238"/>
      <rect id="Rectangle_330" data-name="Rectangle 330" width="28.311" height="6.53" transform="translate(10.541 61.944)" fill="#263238"/>
      <path id="Path_6485" data-name="Path 6485" d="M111.19,453.36v1.81h27.841v-1.81Z" transform="translate(-100.649 -368.947)" fill="#455a64"/>
      <path id="Path_6486" data-name="Path 6486" d="M114.755,459.631l-1.3-3.191h25.5l-1.516,3.191Z" transform="translate(-101.581 -370.217)" fill="#455a64"/>
      <path id="Path_6487" data-name="Path 6487" d="M138.245,433.848a.88.88,0,0,1-.1.153l-.317.417-1.24,1.593-.059.071-.053-.076c-.776-1.076-1.816-2.521-3.044-4.214h.176c-.911,1.281-1.916,2.715-3,4.249l-.094.129-.106-.123-3.538-4.232h.206l-.194.247-3.186,3.991-.106.129-.094-.135-3.021-4.232h.176l-3.7,4.208-.071.076-.047-.082-1.175-1.945c-.123-.212-.217-.382-.3-.517a.683.683,0,0,1-.088-.188,1.026,1.026,0,0,1,.123.165l.329.5,1.217,1.91h-.118l3.638-4.261.094-.106.082.112,3.027,4.232h-.206l3.174-4,.2-.247.1-.123.106.123,3.526,4.238h-.2l3.033-4.226.088-.123.088.123,2.98,4.261h-.106l1.287-1.546.347-.4C138.2,433.889,138.239,433.842,138.245,433.848Z" transform="translate(-102.331 -359.956)" fill="#e0e0e0"/>
      <path id="Path_6488" data-name="Path 6488" d="M138.823,425.965c0,.071-5.337.129-11.919.129s-11.913-.059-11.913-.129,5.331-.135,11.913-.135S138.823,425.889,138.823,425.965Z" transform="translate(-102.216 -357.597)" fill="#455a64"/>
      <path id="Path_6489" data-name="Path 6489" d="M139.231,456.655c0,.071-5.8.129-12.93.129s-12.93-.059-12.93-.129,5.8-.135,12.93-.135S139.231,456.579,139.231,456.655Z" transform="translate(-101.548 -370.25)" fill="#263238"/>
    </g>
    <g id="freepik--character-2--inject-123" transform="translate(132.992 125.99)">
      <path id="Path_6490" data-name="Path 6490" d="M412.65,234.539c-.464-1.992,1.887-8.881.37-9.034-1.934-.194-2.263,7.641-2.351,8.334s-1.081.588-.987,0c.141-.905,1.428-9.762-.523-9.78-1.081,0-1.128,1.957-1.128,1.957s-.729,8.728-1.652,8.687-.264-5.008-.17-6.853-.793-2.792-1.452-2.028c-.958,1.123-.952,5.625-1.076,7.394s-.588,6.865-2.422,4.32-4.173-3.838-5.037-3.75-1.023,1.334-.188,1.822a11.531,11.531,0,0,1,2.286,2.181,11.319,11.319,0,0,1,1.322,2.169,9.751,9.751,0,0,1,.958,3.086,6.066,6.066,0,0,0,2.692,4.191l-.106,13.982-.417,6.888,10.891,3.779L412.227,247.2c.535-4.743,2.627-10.738,3.385-13.518,1.217-4.437.647-4.626.106-4.649C414.519,228.991,413.1,236.485,412.65,234.539Z" transform="translate(-286.763 -200.696)" fill="#a36957"/>
      <path id="Path_6491" data-name="Path 6491" d="M416.905,252.079a10.336,10.336,0,0,0-1.334.223,5.225,5.225,0,0,0-2.662,1.816,5.168,5.168,0,0,0-.529.864l-.071.141-.106-.106a7.782,7.782,0,0,0-2.063-1.511c-.588-.288-.946-.4-.94-.435a3.174,3.174,0,0,1,1,.306,6.965,6.965,0,0,1,2.163,1.475l-.176.035a5.013,5.013,0,0,1,.547-.905,5.155,5.155,0,0,1,1.4-1.258,4.766,4.766,0,0,1,1.4-.588,4.3,4.3,0,0,1,1.005-.118,1.44,1.44,0,0,1,.364.059Z" transform="translate(-292.417 -212.223)" fill="#7c3b29"/>
      <path id="Path_6492" data-name="Path 6492" d="M418.1,263.262a8.117,8.117,0,0,1-4.7.153c0-.071,1.064.094,2.351.053S418.084,263.2,418.1,263.262Z" transform="translate(-294.149 -216.853)" fill="#7c3b29"/>
      <path id="Path_6493" data-name="Path 6493" d="M309.41,194.236a8.181,8.181,0,0,1,6.7-7.353,10.578,10.578,0,0,0,2.762-.517,15.705,15.705,0,0,0,1.91-1.281,5.466,5.466,0,0,1,6.759.911c1.563,1.728,1.963-.858,5.478.905,2.939,1.463,1.622,3.879,1.622,3.879a6.265,6.265,0,0,1,6.559,4.514c.464,1.763.253,4,1.763,5.072.723.523,1.681.588,2.427,1.1,1.375.917,1.563,2.856,1.381,4.5s-.558,3.4.153,4.89c1.175,2.451,4.825,3.191,5.46,5.83.3,1.246-.123,2.792.823,3.662a4.413,4.413,0,0,0,1.375.676,5.725,5.725,0,0,1,.94,10.121c-.488.311-1.076.588-1.234,1.175s.276,1.228.588,1.763a5.5,5.5,0,0,1-7.294,7.67,8.622,8.622,0,0,1-4.755,4.367,5.231,5.231,0,0,1-2.992.294,6.041,6.041,0,0,1-2.151-1.123c-3.1-2.351-7.47-5.93-8.017-9.768" transform="translate(-251.278 -184.308)" fill="#263238"/>
      <path id="Path_6494" data-name="Path 6494" d="M309.2,206.84l-.135-2.751,16.421-3.656c5.084-.7,10.75,4.238,11.232,9.339.535,5.672.964,12.619.423,16.88-1.093,8.569-7.594,9.856-7.594,9.856l.229,8.463-18.849.823Z" transform="translate(-251.134 -190.928)" fill="#a36957"/>
      <path id="Path_6495" data-name="Path 6495" d="M349.318,226.246a1.093,1.093,0,0,1-1.023,1.134,1.052,1.052,0,0,1-1.175-.952,1.1,1.1,0,0,1,1.023-1.134,1.046,1.046,0,0,1,1.175.952Z" transform="translate(-266.824 -201.201)" fill="#263238"/>
      <path id="Path_6496" data-name="Path 6496" d="M350.2,221.887c-.135.147-.982-.441-2.157-.4s-2.022.652-2.151.517.065-.323.429-.588a3.021,3.021,0,0,1,1.722-.588,2.88,2.88,0,0,1,1.716.494C350.129,221.569,350.265,221.822,350.2,221.887Z" transform="translate(-266.301 -199.363)" fill="#263238"/>
      <path id="Path_6497" data-name="Path 6497" d="M330.632,227.177a1.1,1.1,0,0,1-1.017,1.14,1.046,1.046,0,0,1-1.176-.952,1.1,1.1,0,0,1,1.017-1.14,1.052,1.052,0,0,1,1.175.952Z" transform="translate(-259.122 -201.585)" fill="#263238"/>
      <path id="Path_6498" data-name="Path 6498" d="M330.53,222.873c-.129.147-.982-.441-2.157-.406s-2.022.658-2.151.517.065-.323.435-.588a3.027,3.027,0,0,1,1.716-.588,2.9,2.9,0,0,1,1.722.5C330.465,222.549,330.595,222.8,330.53,222.873Z" transform="translate(-258.192 -199.767)" fill="#263238"/>
      <path id="Path_6499" data-name="Path 6499" d="M340.7,231.376a7.594,7.594,0,0,1,1.9-.406c.3-.041.588-.112.623-.317a1.54,1.54,0,0,0-.223-.882c-.306-.717-.629-1.469-.964-2.263a39.868,39.868,0,0,1-2.181-5.919,40.446,40.446,0,0,1,2.657,5.73c.317.793.629,1.552.917,2.275a1.7,1.7,0,0,1,.194,1.175.735.735,0,0,1-.482.453,1.945,1.945,0,0,1-.505.088,7.959,7.959,0,0,1-1.94.065Z" transform="translate(-263.827 -199.677)" fill="#263238"/>
      <path id="Path_6500" data-name="Path 6500" d="M335.638,260a22.563,22.563,0,0,1-11.808-2.7s3.068,5.877,11.866,4.825Z" transform="translate(-257.223 -214.4)" fill="#7c3b29"/>
      <path id="Path_6501" data-name="Path 6501" d="M338.164,242.563a2.116,2.116,0,0,0-1.928-.729,1.934,1.934,0,0,0-1.311.758,1.222,1.222,0,0,0-.053,1.4,1.434,1.434,0,0,0,1.557.341,4.473,4.473,0,0,0,1.475-.94,1.34,1.34,0,0,0,.323-.359.4.4,0,0,0,0-.441" transform="translate(-261.694 -208.014)" fill="#7c3b29"/>
      <path id="Path_6502" data-name="Path 6502" d="M335.339,239.8c.188,0,.229,1.264,1.352,2.133s2.474.694,2.492.87c0,.082-.294.259-.87.294a3.2,3.2,0,0,1-2.069-.652,2.774,2.774,0,0,1-1.058-1.793C335.116,240.117,335.251,239.8,335.339,239.8Z" transform="translate(-261.896 -207.185)" fill="#263238"/>
      <path id="Path_6503" data-name="Path 6503" d="M330.1,215.176c-.106.329-1.281.212-2.657.423s-2.48.617-2.674.335c-.088-.135.1-.441.541-.764a4.667,4.667,0,0,1,4.061-.588C329.878,214.782,330.143,215.023,330.1,215.176Z" transform="translate(-257.599 -196.696)" fill="#263238"/>
      <path id="Path_6504" data-name="Path 6504" d="M349.516,216.047c-.2.276-1.017,0-1.992.041s-1.793.235-1.992-.041c-.088-.129.035-.406.388-.67a2.88,2.88,0,0,1,3.209,0C349.48,215.642,349.6,215.912,349.516,216.047Z" transform="translate(-266.158 -196.915)" fill="#263238"/>
      <path id="Path_6505" data-name="Path 6505" d="M337.48,198.036c-1.175,3.074-3.9,7.723-7.141,8.275a9.651,9.651,0,0,1-8.816-3.238c-.376,2.451-3.009,3.867-5.431,4.39a9.8,9.8,0,0,1-5.2-.1,5.16,5.16,0,0,1-3.462-3.638c-.347-1.716,1.9-6.089,3.615-6.465" transform="translate(-250.449 -189.647)" fill="#263238"/>
      <path id="Path_6506" data-name="Path 6506" d="M301.252,243.5a6.718,6.718,0,0,1-4.479,6.3,4.761,4.761,0,0,1-9.057,2.5,5.742,5.742,0,0,0-.8-1.558c-.905-.993-2.516-.67-3.82-.993-2.351-.588-3.556-3.327-3.468-5.754a6.1,6.1,0,0,0-.035-1.428,6.368,6.368,0,0,0-1.64-2.4c-2.551-3.115-1.928-7.952.417-11.226.782-1.087,1.763-2.245,1.61-3.573a7.207,7.207,0,0,0-.882-2.057,6.1,6.1,0,0,1,1.176-6.741,1.328,1.328,0,0,0,.588-1.6,7.118,7.118,0,0,1,5.454-8.011,1.681,1.681,0,0,0,.617-.188c.529-.323.494-1.076.517-1.693.076-1.634,1.111-4.743,2.269-5.877,3.221-3.174,6.718-1.029,7.987,0,0,0,3.186,11.479,2.886,13.683s-1.5,7.723-.7,10.133,2.2,7.37,1.369,9.651S301.252,243.5,301.252,243.5Z" transform="translate(-237.631 -189.764)" fill="#263238"/>
      <path id="Path_6507" data-name="Path 6507" d="M349.884,438.4s24.885,6.888,25.861,7.241c1.5.523,1.246,6.018-1.087,5.93-1.1-.041-19.113.67-21.388.529s-9.139-2.845-9.139-2.845Z" transform="translate(-265.592 -289.06)" fill="#b24bf3"/>
      <path id="Path_6508" data-name="Path 6508" d="M371.527,451.064a21.516,21.516,0,0,1,1.1-2.668c.805-1.369,1.834-2.192,1.763-2.292a4.207,4.207,0,0,0-2.122,2.086A4.586,4.586,0,0,0,371.527,451.064Z" transform="translate(-276.867 -292.232)" fill="#263238"/>
      <path id="Path_6509" data-name="Path 6509" d="M367.121,449.214c.123,0,.376-1.175,1.04-2.451s1.446-2.21,1.352-2.3a4.48,4.48,0,0,0-1.722,2.11A5.163,5.163,0,0,0,367.121,449.214Z" transform="translate(-275.058 -291.558)" fill="#263238"/>
      <path id="Path_6510" data-name="Path 6510" d="M362.882,447.94a17.32,17.32,0,0,1,.588-2.627c.558-1.381,1.446-2.233,1.358-2.351s-1.175.676-1.763,2.175A3.847,3.847,0,0,0,362.882,447.94Z" transform="translate(-273.253 -290.936)" fill="#263238"/>
      <path id="Path_6511" data-name="Path 6511" d="M362.374,441.946a4.449,4.449,0,0,0,.264-1.851,8.7,8.7,0,0,0-.253-2.028,7.689,7.689,0,0,0-.37-1.175,1.358,1.358,0,0,0-.4-.588.658.658,0,0,0-.852.041,1.128,1.128,0,0,0-.335.705,5.035,5.035,0,0,0-.029.658,5.425,5.425,0,0,0,.153,1.217,7.506,7.506,0,0,0,.764,1.9,4.99,4.99,0,0,0,1.123,1.493c.053-.035-.364-.617-.858-1.634a8.022,8.022,0,0,1-.652-1.846,5.513,5.513,0,0,1-.123-1.14c0-.382,0-.858.229-1.04a.241.241,0,0,1,.329-.029,1.011,1.011,0,0,1,.276.435,9.743,9.743,0,0,1,.376,1.1,10.293,10.293,0,0,1,.329,1.94C362.415,441.217,362.3,441.946,362.374,441.946Z" transform="translate(-272.298 -288.139)" fill="#263238"/>
      <path id="Path_6512" data-name="Path 6512" d="M360.2,445.352a3.526,3.526,0,0,0-1.6-.259,7.228,7.228,0,0,0-1.763.217,3.847,3.847,0,0,0-1.017.376,1.046,1.046,0,0,0-.588,1.134,1.258,1.258,0,0,0,.9.893,2.31,2.31,0,0,0,1.117,0,4.372,4.372,0,0,0,1.616-.793,4.3,4.3,0,0,0,1.175-1.14,11.685,11.685,0,0,0-1.322.9,4.4,4.4,0,0,1-1.528.658,1.957,1.957,0,0,1-.923,0,.846.846,0,0,1-.588-.588.646.646,0,0,1,.37-.694,3.814,3.814,0,0,1,.905-.353,8.605,8.605,0,0,1,1.675-.294C359.583,445.323,360.189,445.423,360.2,445.352Z" transform="translate(-270.16 -291.816)" fill="#263238"/>
      <path id="Path_6513" data-name="Path 6513" d="M377.935,452.049a12.947,12.947,0,0,1,.488-2.245,18.859,18.859,0,0,1,1.217-1.951c-.082-.1-1.081.494-1.6,1.793A2.908,2.908,0,0,0,377.935,452.049Z" transform="translate(-279.449 -292.952)" fill="#263238"/>
      <path id="Path_6514" data-name="Path 6514" d="M348.52,456.992a4.7,4.7,0,0,0,.964.453,21.163,21.163,0,0,0,2.768.858,39.708,39.708,0,0,0,9.48.882c3.726-.041,7.088-.212,9.527-.311l2.88-.153a5.393,5.393,0,0,0,1.058-.112,5.1,5.1,0,0,0-1.064-.053h-2.886l-9.516.2a44.472,44.472,0,0,1-9.4-.776C349.936,457.5,348.549,456.892,348.52,456.992Z" transform="translate(-267.401 -296.72)" fill="#263238"/>
      <path id="Path_6515" data-name="Path 6515" d="M347.27,456.458c.035.053.717-.341,1.863-.846a8.663,8.663,0,0,1,4.7-.782,7.46,7.46,0,0,1,4.073,2.421,14.108,14.108,0,0,0,1.434,1.463,7.874,7.874,0,0,0-1.217-1.663,9.92,9.92,0,0,0-1.652-1.546,5.912,5.912,0,0,0-2.574-1.087,8.228,8.228,0,0,0-4.9.929,6.6,6.6,0,0,0-1.734,1.111Z" transform="translate(-266.886 -295.639)" fill="#263238"/>
      <g id="Group_3694" data-name="Group 3694" transform="translate(78.538 149.34)" opacity="0.3">
        <path id="Path_6516" data-name="Path 6516" d="M349.884,438.4s24.885,6.888,25.861,7.241c1.5.523,1.246,6.018-1.087,5.93-1.1-.041-19.113.67-21.388.529s-9.139-2.845-9.139-2.845Z" transform="translate(-344.13 -438.4)"/>
      </g>
      <path id="Path_6517" data-name="Path 6517" d="M267.147,389.77l-5.372,11.038s-28.723-8.734-35.958-8.334-13.165,3.309-14.576,9.186-1.6,13.988,6.847,19.619,50.4,8.74,50.4,8.74h16.6l27.142-35.788-4.373-3.526Z" transform="translate(-210.502 -269.012)" fill="#d7a1f9"/>
      <path id="Path_6518" data-name="Path 6518" d="M287.018,419.218a2.4,2.4,0,0,1-.547,0,8.153,8.153,0,0,1-1.557-.123,32.706,32.706,0,0,1-5.631-1.175,54.189,54.189,0,0,1-7.935-3.109c-2.9-1.369-6-3.056-9.257-4.8a95.11,95.11,0,0,0-9.4-4.5,41.769,41.769,0,0,0-8.111-2.427,28.1,28.1,0,0,0-5.683-.494c-.676,0-1.175.053-1.558.059a3.006,3.006,0,0,1-.547,0,2.941,2.941,0,0,1,.541-.076c.359-.029.876-.123,1.557-.129a26.711,26.711,0,0,1,5.736.382,40.634,40.634,0,0,1,8.187,2.351,91.193,91.193,0,0,1,9.4,4.49c3.256,1.763,6.342,3.438,9.228,4.819a56.587,56.587,0,0,0,7.87,3.162,34.793,34.793,0,0,0,5.572,1.264c.67.118,1.175.141,1.546.194a3.584,3.584,0,0,1,.588.112Z" transform="translate(-221.34 -274.227)" fill="#455a64"/>
      <path id="Path_6519" data-name="Path 6519" d="M340.081,422.006c5.337-2.1,34.677-11.432,45.062-23.433a11.473,11.473,0,0,0,2.839-9.962c-1.446-8.005-8.816-13.342-16.457-10.321-1.087.435-3.579,1.4-4.626,1.963-2.845,1.528-49,30.8-49,30.8s8.04,15.681,7.84,16.28Z" transform="translate(-254.778 -263.926)" fill="#d7a1f9"/>
      <path id="Path_6520" data-name="Path 6520" d="M354.74,394.059a.624.624,0,0,1-.123.1l-.388.264-1.5.982-5.578,3.526-18.455,11.6-10.027,6.248.065-.206c2.139,5.137,3.956,9.521,5.29,12.648.623,1.534,1.123,2.757,1.475,3.632.159.4.282.723.382.97a1.618,1.618,0,0,1,.112.341,1.936,1.936,0,0,1-.165-.317c-.106-.241-.247-.558-.429-.952l-1.563-3.591c-1.328-3.121-3.191-7.482-5.378-12.6l-.053-.129.118-.076,9.992-6.271,18.5-11.5,5.636-3.45,1.54-.929.406-.229A.6.6,0,0,1,354.74,394.059Z" transform="translate(-254.984 -270.78)" fill="#455a64"/>
      <path id="Path_6521" data-name="Path 6521" d="M305.711,413.531a4.777,4.777,0,0,1-1.364-.511,19.052,19.052,0,0,1-3.015-1.8,19.263,19.263,0,0,1-2.633-2.351,4.8,4.8,0,0,1-.9-1.146c.082-.076,1.552,1.587,3.744,3.18S305.758,413.431,305.711,413.531Z" transform="translate(-246.491 -276.41)" fill="#455a64"/>
      <path id="Path_6522" data-name="Path 6522" d="M338.3,395.48a10.5,10.5,0,0,1,.071,1.834c0,1.134.065,2.692.217,4.408s.394,3.262.588,4.379a10.71,10.71,0,0,1,.259,1.822,7.958,7.958,0,0,1-.511-1.763,34.224,34.224,0,0,1-.8-8.816A8.293,8.293,0,0,1,338.3,395.48Z" transform="translate(-263.104 -271.366)" fill="#455a64"/>
      <path id="Path_6523" data-name="Path 6523" d="M343,394.825a.674.674,0,0,1,.364.047,1.652,1.652,0,0,1,.758.641,1.763,1.763,0,0,1,.223,1.481,1.6,1.6,0,0,1-1.51,1.046,1.546,1.546,0,0,1-1.569-.917,1.64,1.64,0,0,1,.2-1.481,1.464,1.464,0,0,1,.805-.588.541.541,0,0,1,.364,0,1.763,1.763,0,0,0-.952.735,1.417,1.417,0,0,0-.112,1.222,1.252,1.252,0,0,0,1.246.682,1.287,1.287,0,0,0,1.176-.8,1.522,1.522,0,0,0-.123-1.234,2.151,2.151,0,0,0-.87-.835Z" transform="translate(-264.372 -271.092)" fill="#455a64"/>
      <path id="Path_6524" data-name="Path 6524" d="M313.789,392.85a1.6,1.6,0,0,1,.253.547,4.835,4.835,0,0,1,.241,1.622,5.765,5.765,0,0,1-.535,2.351,5.325,5.325,0,0,1-4.767,3.209,5.76,5.76,0,0,1-2.41-.4,5.119,5.119,0,0,1-1.411-.835,1.705,1.705,0,0,1-.411-.441,9.1,9.1,0,0,0,1.91,1.087,5.877,5.877,0,0,0,2.3.311,5.16,5.16,0,0,0,4.484-3.021,5.807,5.807,0,0,0,.588-2.245A8.607,8.607,0,0,0,313.789,392.85Z" transform="translate(-249.357 -270.281)" fill="#455a64"/>
      <path id="Path_6525" data-name="Path 6525" d="M364,398.345a1.887,1.887,0,0,1-1.087-.153,4.114,4.114,0,0,1-2.756-4.214,1.9,1.9,0,0,1,.3-1.058c.059,0-.053.417-.041,1.064a4.332,4.332,0,0,0,2.592,3.973C363.587,398.257,364.011,398.286,364,398.345Z" transform="translate(-272.195 -270.31)" fill="#455a64"/>
      <path id="Path_6526" data-name="Path 6526" d="M388.607,414a1.583,1.583,0,0,1,.176-.094l.523-.259,2.034-.982c1.763-.858,4.32-2.092,7.4-3.756a56.672,56.672,0,0,0,10.215-6.8,30.139,30.139,0,0,0,4.884-5.319,11.8,11.8,0,0,0,1.763-7.382,11.631,11.631,0,0,0-.97-3.779,10.236,10.236,0,0,0-.946-1.657,13.728,13.728,0,0,0-1.211-1.458,31.806,31.806,0,0,0-2.745-2.474,8.229,8.229,0,0,0-2.992-1.763,11.091,11.091,0,0,0-3.321-.37,17.131,17.131,0,0,0-3.156.347,19.4,19.4,0,0,0-5.319,2.01l-7.259,4.026-1.981,1.087-.517.276-.176.088a1.028,1.028,0,0,1,.165-.106l.505-.3,1.957-1.128c1.7-.97,4.161-2.386,7.229-4.114a19.431,19.431,0,0,1,5.354-2.057,17.5,17.5,0,0,1,3.191-.364,11.4,11.4,0,0,1,3.385.37,8.41,8.41,0,0,1,3.08,1.822,33,33,0,0,1,2.768,2.492,15.051,15.051,0,0,1,1.234,1.475,10.58,10.58,0,0,1,.97,1.7,12.155,12.155,0,0,1-.823,11.385,30.231,30.231,0,0,1-4.931,5.354,55.837,55.837,0,0,1-10.28,6.783c-3.1,1.646-5.666,2.862-7.441,3.691l-2.051.94-.541.235Z" transform="translate(-282.445 -264.021)" fill="#455a64"/>
      <path id="Path_6527" data-name="Path 6527" d="M302.323,438.66s-24.967,6.583-25.972,6.918c-1.5.511-1.322,6.007,1.011,5.948,1.1,0,19.107.911,21.382.793s8.434-2.457,8.434-2.457Z" transform="translate(-237.249 -289.167)" fill="#b24bf3"/>
      <path id="Path_6528" data-name="Path 6528" d="M301.419,451.09a21.56,21.56,0,0,0-1.064-2.686c-.788-1.381-1.81-2.216-1.728-2.31s1.27.588,2.092,2.11A4.565,4.565,0,0,1,301.419,451.09Z" transform="translate(-246.83 -292.228)" fill="#263238"/>
      <path id="Path_6529" data-name="Path 6529" d="M306.178,449.294c-.123,0-.359-1.175-1.005-2.469s-1.416-2.228-1.328-2.31a4.574,4.574,0,0,1,1.7,2.128A4.785,4.785,0,0,1,306.178,449.294Z" transform="translate(-248.981 -291.579)" fill="#263238"/>
      <path id="Path_6530" data-name="Path 6530" d="M310.681,448.089a15.286,15.286,0,0,0-.547-2.633,24.515,24.515,0,0,0-1.328-2.351,3.568,3.568,0,0,1,1.716,2.2A4.082,4.082,0,0,1,310.681,448.089Z" transform="translate(-251.026 -290.996)" fill="#263238"/>
      <path id="Path_6531" data-name="Path 6531" d="M311.11,442.086a4.414,4.414,0,0,1-.241-1.857,8.534,8.534,0,0,1,.276-2.028,8.74,8.74,0,0,1,.382-1.146,1.358,1.358,0,0,1,.406-.588.664.664,0,0,1,.858.053,1.069,1.069,0,0,1,.317.705,5.029,5.029,0,0,1,.029.658,5.68,5.68,0,0,1-.17,1.217,7.517,7.517,0,0,1-.788,1.892,5.084,5.084,0,0,1-1.14,1.487c-.053-.041.37-.617.876-1.628a7.938,7.938,0,0,0,.676-1.84,5.444,5.444,0,0,0,.135-1.134c0-.382,0-.864-.217-1.046a.241.241,0,0,0-.329-.035,1.134,1.134,0,0,0-.276.435,8.723,8.723,0,0,0-.388,1.093,9.532,9.532,0,0,0-.353,1.94C311.075,441.369,311.18,442.074,311.11,442.086Z" transform="translate(-251.873 -288.209)" fill="#263238"/>
      <path id="Path_6532" data-name="Path 6532" d="M311.35,445.511a3.444,3.444,0,0,1,1.61-.241,7,7,0,0,1,1.763.241,3.874,3.874,0,0,1,1.017.382,1.064,1.064,0,0,1,.547,1.175,1.228,1.228,0,0,1-.905.876,2.233,2.233,0,0,1-1.117,0,4.308,4.308,0,0,1-1.61-.811,4.478,4.478,0,0,1-1.14-1.175,10.492,10.492,0,0,1,1.311.911,4.55,4.55,0,0,0,1.522.682,1.957,1.957,0,0,0,.923,0,.829.829,0,0,0,.588-.588.641.641,0,0,0-.358-.7,4.18,4.18,0,0,0-.9-.364,8.393,8.393,0,0,0-1.675-.312C311.973,445.482,311.362,445.576,311.35,445.511Z" transform="translate(-252.078 -291.886)" fill="#263238"/>
      <path id="Path_6533" data-name="Path 6533" d="M295.714,452.037a15.392,15.392,0,0,0-.464-2.251,20,20,0,0,0-1.175-1.963c.094-.1,1.076.505,1.581,1.81A3.035,3.035,0,0,1,295.714,452.037Z" transform="translate(-244.953 -292.94)" fill="#263238"/>
      <path id="Path_6534" data-name="Path 6534" d="M307.649,457.285a4.959,4.959,0,0,1-.97.441,20.249,20.249,0,0,1-2.78.823,39.64,39.64,0,0,1-9.51.788c-3.732-.088-7.088-.3-9.521-.429l-2.886-.188a5.229,5.229,0,0,1-1.052-.123,5.052,5.052,0,0,1,1.064-.035l2.886.053,9.516.306a44.46,44.46,0,0,0,9.445-.629C306.244,457.8,307.619,457.209,307.649,457.285Z" transform="translate(-239.537 -296.843)" fill="#263238"/>
      <path id="Path_6535" data-name="Path 6535" d="M319.125,456.736c-.035.059-.711-.347-1.857-.864a8.569,8.569,0,0,0-4.7-.84,7.591,7.591,0,0,0-4.114,2.351A14.349,14.349,0,0,1,307,458.828a8.076,8.076,0,0,1,1.24-1.652,10.077,10.077,0,0,1,1.669-1.522A5.96,5.96,0,0,1,312.5,454.6a8.229,8.229,0,0,1,4.884.987,6.687,6.687,0,0,1,1.746,1.152Z" transform="translate(-250.284 -295.717)" fill="#263238"/>
      <path id="Path_6536" data-name="Path 6536" d="M284.387,455.255c-.041-.029.176-.359.376-.934a4.555,4.555,0,0,0-.77-4.473c-.382-.476-.693-.711-.664-.752s.394.135.846.588a4.243,4.243,0,0,1,.811,4.7C284.71,455,284.416,455.279,284.387,455.255Z" transform="translate(-240.525 -293.467)" fill="#263238"/>
      <path id="Path_6537" data-name="Path 6537" d="M310.256,273l-12.836,3.6,4.173,39.937s-2.4,14.259-2.4,18a7.453,7.453,0,0,0,3.785,6.7l41.012,1.234,2.092-1.81a5.913,5.913,0,0,0,1.369-4.579l-7.641-60.937-14.276-3.1Z" transform="translate(-246.335 -220.48)" fill="#b24bf3"/>
      <path id="Path_6538" data-name="Path 6538" d="M300.99,326.519a1.761,1.761,0,0,1-.076-.306l-.171-.876c-.147-.788-.347-1.881-.588-3.221-.482-2.751-1.134-6.5-1.863-10.644s-1.328-7.911-1.793-10.662c-.212-1.346-.388-2.445-.517-3.238-.053-.364-.094-.658-.129-.882a1.238,1.238,0,0,1,0-.312,2.933,2.933,0,0,1,.076.306c.041.223.1.511.17.87.141.788.347,1.887.588,3.227.482,2.745,1.14,6.5,1.863,10.65l1.8,10.656c.212,1.346.388,2.445.511,3.238.053.364.1.652.129.882A1.123,1.123,0,0,1,300.99,326.519Z" transform="translate(-245.685 -230.511)" fill="#263238"/>
      <path id="Path_6539" data-name="Path 6539" d="M335.469,273.29a4.918,4.918,0,0,1-.588.47c-.2.141-.458.288-.746.47a6.743,6.743,0,0,1-1.052.523,14.256,14.256,0,0,1-2.939.911,21.793,21.793,0,0,1-3.7.394,35.937,35.937,0,0,1-3.726-.112,21.627,21.627,0,0,1-3.021-.4,8.7,8.7,0,0,1-1.951-.647c-.217-.112-.382-.2-.494-.27l-.159-.112a7.011,7.011,0,0,1,.688.294,10.5,10.5,0,0,0,1.951.588,22.794,22.794,0,0,0,3,.341c1.134.076,2.392.129,3.7.1a23.351,23.351,0,0,0,3.679-.364,14.826,14.826,0,0,0,2.892-.846A16.455,16.455,0,0,0,335.469,273.29Z" transform="translate(-254.444 -220.992)" fill="#263238"/>
      <path id="Path_6540" data-name="Path 6540" d="M351.672,375.759a.918.918,0,0,1-.276.059l-.805.118c-.353.047-.782.106-1.281.147s-1.076.112-1.7.141c-1.264.094-2.774.129-4.449.106a53.942,53.942,0,0,1-5.437-.37c-1.91-.223-3.738-.588-5.372-.923a35.673,35.673,0,0,1-4.3-1.175c-.588-.176-1.175-.376-1.622-.541s-.882-.311-1.175-.447l-.758-.3a1.022,1.022,0,0,1-.259-.123,1.483,1.483,0,0,1,.276.076l.77.264c.335.118.741.259,1.223.406s1.017.335,1.628.505c1.2.364,2.662.741,4.3,1.1s3.438.664,5.354.893,3.744.341,5.413.394,3.174,0,4.432-.053c.635,0,1.176-.076,1.7-.112s.929-.071,1.281-.106l.811-.071Z" transform="translate(-257.388 -261.871)" fill="#263238"/>
      <path id="Path_6541" data-name="Path 6541" d="M376.724,309.61a2.663,2.663,0,0,1-.2-.558c-.106-.359-.259-.888-.435-1.54-.359-1.3-.811-3.115-1.264-5.125s-.8-3.85-1.034-5.178c-.112-.67-.2-1.2-.253-1.581a2.7,2.7,0,0,1-.059-.588,2.7,2.7,0,0,1,.153.588c.082.417.194.94.329,1.563.27,1.322.652,3.15,1.1,5.16s.876,3.826,1.176,5.137c.141.623.264,1.146.364,1.558A3.308,3.308,0,0,1,376.724,309.61Z" transform="translate(-277.691 -229.958)" fill="#263238"/>
      <g id="Group_3695" data-name="Group 3695" transform="translate(65.499 54.332)" opacity="0.3">
        <path id="Path_6542" data-name="Path 6542" d="M324.845,276.75c.517,1.763.035,4.39.288,5.983a85.112,85.112,0,0,1,1.029,19.354,2.639,2.639,0,0,0,.065,1.052,3.3,3.3,0,0,0,.523.811,8.475,8.475,0,0,1,1.369,6.148,24.854,24.854,0,0,1-1.857,6.177c-.041-1.722.047-4.3.182-6.018,0-.347.206-.123.212-.47a6.989,6.989,0,0,0-1.763-5.46,4.541,4.541,0,0,1-.823-.923,3.091,3.091,0,0,1-.276-1.1q-1.34-10.832-1.828-21.746a1.728,1.728,0,0,1,.235-1.175,3.179,3.179,0,0,1,.8-.552c.588-.364.905-1.011,1.5-1.3" transform="translate(-321.944 -276.75)"/>
      </g>
      <path id="Path_6543" data-name="Path 6543" d="M290.88,279.79s-11.72,2.762-8.881,20.324a108.609,108.609,0,0,0,6.994,24.944c1.922,4.52,6.271,7.641,11.167,6.994,2.128-.276,4.232.059,5.66-.8,2.163-1.3,3.1-5.7,3.526-10.438.276-3.233.165-6.594.588-9.351.7-4.5-1.364-6.624-4.008-7.153l-10.4-2.063-.588,5.478Z" transform="translate(-239.795 -223.671)" fill="#b24bf3"/>
      <path id="Path_6544" data-name="Path 6544" d="M311.46,332.385c.029,0,.2.212.588.511a4.115,4.115,0,0,0,1.934.77,6.424,6.424,0,0,0,3.068-.435,9.909,9.909,0,0,0,3.315-1.91,5.842,5.842,0,0,0,1.716-3.315,5.672,5.672,0,0,0-.364-3.056,8.076,8.076,0,0,0-1.652-2.38,2.04,2.04,0,0,1,.647.476,5.572,5.572,0,0,1,1.27,1.763,5.807,5.807,0,0,1,.476,3.233,6.107,6.107,0,0,1-1.81,3.556,9.822,9.822,0,0,1-3.468,1.969,6.465,6.465,0,0,1-3.238.364,3.938,3.938,0,0,1-1.992-.935,1.581,1.581,0,0,1-.488-.611Z" transform="translate(-252.123 -241.308)" fill="#263238"/>
      <path id="Path_6545" data-name="Path 6545" d="M293.14,345.66c.041,0,.223.552.705,1.5a13.4,13.4,0,0,0,2.668,3.585,12.661,12.661,0,0,0,5.736,3.174,12.871,12.871,0,0,0,7.935-.558c1.328-.535,1.81-2.01,2.316-3.244a20.923,20.923,0,0,0,.987-3.8,66.542,66.542,0,0,0,.664-6.653c.135-1.863.247-3.391.329-4.52.047-.494.082-.9.112-1.228a1.845,1.845,0,0,1,.065-.423,1.342,1.342,0,0,1,0,.429v1.234c-.053,1.128-.118,2.657-.206,4.526a59.6,59.6,0,0,1-.588,6.712,20.984,20.984,0,0,1-.982,3.879,14.242,14.242,0,0,1-.876,1.945,3.48,3.48,0,0,1-1.646,1.534,13.054,13.054,0,0,1-8.228.547,12.9,12.9,0,0,1-8.458-7.053,9.644,9.644,0,0,1-.453-1.175A1.81,1.81,0,0,1,293.14,345.66Z" transform="translate(-244.57 -245.814)" fill="#263238"/>
      <path id="Path_6546" data-name="Path 6546" d="M299.752,332.041a10.218,10.218,0,0,1,0-2.11c.071-1.3.194-3.092.353-5.072.088-.993.153-1.928.259-2.792a4.331,4.331,0,0,1,.8-2.2,2.351,2.351,0,0,1,1.328-.87.858.858,0,0,1,.588,0c0,.041-.212,0-.541.141a2.351,2.351,0,0,0-1.14.888c-.764,1.011-.676,2.892-.876,4.855s-.329,3.767-.47,5.06A11.448,11.448,0,0,1,299.752,332.041Z" transform="translate(-247.274 -239.812)" fill="#263238"/>
      <path id="Path_6547" data-name="Path 6547" d="M302.3,297.236c-.106-.552-.27-1.358-.482-2.351-.423-1.981-1.034-4.7-1.734-7.723a43.456,43.456,0,0,0-1.117-4.226,9.7,9.7,0,0,0-1.716-3.156l-.229.182a9.921,9.921,0,0,1,1.587,3.1c.417,1.252.711,2.692,1.07,4.2.7,3.009,1.358,5.73,1.857,7.693.247.982.453,1.763.588,2.322a3.467,3.467,0,0,0,.282.835A3.96,3.96,0,0,0,302.3,297.236Z" transform="translate(-246.17 -223.667)" fill="#263238"/>
      <g id="Group_3696" data-name="Group 3696" transform="translate(49.78 77.248)" opacity="0.3">
        <path id="Path_6548" data-name="Path 6548" d="M301.659,315.84a4.555,4.555,0,0,0-2.633.893,8.757,8.757,0,0,0-3.491,4.937,10.268,10.268,0,0,0,.27,6.077c.217.588.629,1.293,1.27,1.264.758-.029,1.058-.97,1.176-1.716q.435-3.1.87-6.212a5.836,5.836,0,0,1,.547-2.045,1.963,1.963,0,0,1,1.71-1.081l.194-2.216" transform="translate(-295.199 -315.74)"/>
      </g>
      <path id="Path_6549" data-name="Path 6549" d="M416.969,317.336a17.356,17.356,0,0,0,2.421-8.134,27.165,27.165,0,0,0-1.175-8.91l-12.448-3.861-.076,4.161Z" transform="translate(-290.97 -230.531)" fill="#b24bf3"/>
      <path id="Path_6550" data-name="Path 6550" d="M390.831,292.684,369.59,277.32v1.064l2.292,23.915s17.562,7.864,22.211,9.022a9.263,9.263,0,0,0,7.993-1.869Z" transform="translate(-276.088 -222.653)" fill="#b24bf3"/>
      <path id="Path_6551" data-name="Path 6551" d="M411.852,315.02a1.834,1.834,0,0,1-.482-.259,8.422,8.422,0,0,1-1.175-.911,13.106,13.106,0,0,1-2.833-3.961,25.612,25.612,0,0,1-1.622-4.59c-.159-.588-.27-1.093-.347-1.434a2.091,2.091,0,0,1-.082-.535,13.3,13.3,0,0,1,.641,1.91,32.37,32.37,0,0,0,1.687,4.52,14.383,14.383,0,0,0,2.709,3.938C411.223,314.568,411.881,314.973,411.852,315.02Z" transform="translate(-290.814 -233.376)" fill="#263238"/>
      <path id="Path_6552" data-name="Path 6552" d="M418.277,304.05a1.762,1.762,0,0,1-.552,0,13.771,13.771,0,0,1-1.487-.159,18.261,18.261,0,0,1-8.875-4.114,12.389,12.389,0,0,1-1.087-1.034c-.241-.259-.364-.411-.347-.423s.588.511,1.569,1.293a21.279,21.279,0,0,0,4.149,2.557,21.024,21.024,0,0,0,4.625,1.516C417.5,303.933,418.277,304.009,418.277,304.05Z" transform="translate(-291.068 -231.31)" fill="#263238"/>
      <path id="Path_6553" data-name="Path 6553" d="M406.326,312.96a4.337,4.337,0,0,1-.664-1.316,12.93,12.93,0,0,1-.705-3.485,25.584,25.584,0,0,1,.029-3.526,6.305,6.305,0,0,1,.182-1.452,7.535,7.535,0,0,1,.035,1.464c0,.905-.035,2.151.059,3.526a15.653,15.653,0,0,0,.588,3.438A10.8,10.8,0,0,1,406.326,312.96Z" transform="translate(-290.649 -233.314)" fill="#263238"/>
      <path id="Path_6554" data-name="Path 6554" d="M369.05,293a3.263,3.263,0,0,1,.217.647c.123.423.288,1.04.488,1.8.388,1.528.888,3.65,1.381,6s.888,4.5,1.14,6.06c.129.776.223,1.4.276,1.846a2.687,2.687,0,0,1,.059.682,3.222,3.222,0,0,1-.176-.664l-.37-1.828c-.329-1.61-.758-3.709-1.228-6.03s-.946-4.408-1.293-6.013c-.153-.723-.288-1.334-.394-1.828a2.9,2.9,0,0,1-.1-.676Z" transform="translate(-275.865 -229.117)" fill="#263238"/>
      <path id="Path_6555" data-name="Path 6555" d="M305.11,301.479l2.6-28.8,8.628,3.4,1.111,29.293s-2.762,4.173-7.423,2.463a7.564,7.564,0,0,1-4.914-6.359Z" transform="translate(-249.505 -220.74)" fill="#a36957"/>
      <path id="Path_6556" data-name="Path 6556" d="M306.513,229.78l16.128,14.182-2.921,10.591-1.17.347-14.1-14.429.893-10.344Z" transform="translate(-249.233 -203.054)" fill="#263238"/>
      <path id="Path_6557" data-name="Path 6557" d="M304.523,230.37l16.128,14.182-2.921,10.591-15.27-14.082Z" transform="translate(-248.413 -203.297)" fill="#455a64"/>
      <path id="Path_6558" data-name="Path 6558" d="M316.7,262.022a6.253,6.253,0,0,0,1.616-3.961c-.035-2.169-.635-7.394-.635-7.394s2.8-5.877,2.733-6.683-.2-.77-1.176-.453-4.114,5.689-4.114,5.689l-1.023-3.985s2.6-4.185,2.8-4.772.547-1.064-.1-1.117-5.531,4.673-5.531,4.673l.394,4.367s-.1.347-.8-.264-.523-5.824-.523-5.824a22.586,22.586,0,0,0,1.622-3.526c-.041-.441.3-.929,0-1.693s-1.287.118-1.287.118l-3.285,4.226-1.176-4.2s.047-.9-1.117-.905l.453,13.618,2.939,10.479Z" transform="translate(-249.501 -205.75)" fill="#a36957"/>
      <path id="Path_6559" data-name="Path 6559" d="M317.4,290.284a4.124,4.124,0,0,0-.047-.511c-.047-.335-.047-.864-.082-1.5-.059-1.334-.141-3.262-.253-5.713-.194-4.966-.476-12.043-.817-20.606v-.065l.071-.065a5.59,5.59,0,0,0,1.563-2.2,6.389,6.389,0,0,0,.323-2.833c-.1-1.992-.347-4.067-.629-6.189v-.112c.529-1.117,1.058-2.275,1.569-3.462.253-.588.511-1.175.741-1.8.118-.306.229-.617.317-.923l.059-.229v-.188a1.174,1.174,0,0,0-.082-.411c.035-.094-.411,0-.694.1a.934.934,0,0,0-.382.194,3.05,3.05,0,0,0-.341.335,16.1,16.1,0,0,0-1.234,1.6c-.776,1.128-1.5,2.316-2.216,3.526l-.259.435-.123-.488c-.323-1.258-.67-2.615-1.017-3.985v-.082l.047-.076,1.317-2.157c.5-.846,1.052-1.716,1.458-2.551.082-.235.2-.476.253-.676.035-.106,0-.153,0-.141a.306.306,0,0,0-.194-.041,2.06,2.06,0,0,0-.235.118c-.094.053-.194.135-.288.194-.194.141-.388.288-.588.441-1.493,1.228-2.892,2.551-4.255,3.856l.059-.165q.206,2.21.394,4.367v.071a.37.37,0,0,1-.388.247.693.693,0,0,1-.282-.094,1.846,1.846,0,0,1-.4-.276,1.546,1.546,0,0,1-.417-.887,11.954,11.954,0,0,1-.2-1.763,32.645,32.645,0,0,1,0-3.391V242.1a29.693,29.693,0,0,0,1.563-3.244.938.938,0,0,0,.035-.165v-.241a2.581,2.581,0,0,1,.082-.453,1.522,1.522,0,0,0-.029-.782c-.088-.288-.176-.406-.394-.364a1.552,1.552,0,0,0-.658.37h0l-3.25,4.232-.206.276-.094-.335q-.588-2.181-1.14-4.2v-.047a.705.705,0,0,0-.294-.588,1.2,1.2,0,0,0-.664-.17l.159-.159c.159,5.537.294,10.133.394,13.618h0c.647,2.5,1.146,4.437,1.493,5.772l.37,1.493c.082.335.106.511.106.511s-.059-.165-.159-.5-.241-.84-.417-1.481c-.37-1.322-.9-3.256-1.587-5.748h0L305,236.224v-.165h.159a1.487,1.487,0,0,1,.84.223,1,1,0,0,1,.435.846v-.053q.588,2.022,1.175,4.2l-.3-.059,3.233-4.249h0a1.928,1.928,0,0,1,.84-.464.664.664,0,0,1,.588.153,1.029,1.029,0,0,1,.247.464,1.9,1.9,0,0,1,.041.958,3.967,3.967,0,0,1-.071.423,1.13,1.13,0,0,0,0,.206,1.217,1.217,0,0,1-.053.27,28.166,28.166,0,0,1-1.587,3.321v-.082c-.029,1.1,0,2.228.035,3.362a11.412,11.412,0,0,0,.194,1.681,1.24,1.24,0,0,0,.288.664,1.764,1.764,0,0,0,.317.229.464.464,0,0,0,.135.047h0v.041h0c.094.041-.123-.047-.1-.035v.082q-.194-2.151-.4-4.367v-.094l.071-.071c1.369-1.311,2.762-2.633,4.279-3.885.194-.153.388-.306.588-.453.106-.071.2-.147.317-.212a1.129,1.129,0,0,1,.435-.176.652.652,0,0,1,.494.153.529.529,0,0,1,.1.547c-.076.276-.182.482-.264.711-.458.946-.982,1.763-1.493,2.627l-1.317,2.157v-.159l1.017,3.985-.376-.053c.717-1.217,1.452-2.4,2.239-3.526a17.038,17.038,0,0,1,1.27-1.646,3.367,3.367,0,0,1,.388-.376,1.358,1.358,0,0,1,.511-.259,4.333,4.333,0,0,1,.511-.135.941.941,0,0,1,.323,0,.488.488,0,0,1,.341.241,1.761,1.761,0,0,1,.123.588,2.759,2.759,0,0,1,0,.306l-.065.253c-.1.335-.212.647-.329.958-.241.588-.5,1.223-.752,1.816-.517,1.175-1.052,2.351-1.581,3.474v-.112c.276,2.133.517,4.208.617,6.224a6.806,6.806,0,0,1-.364,2.98,5.96,5.96,0,0,1-1.681,2.351l.071-.147c.276,8.569.505,15.652.67,20.612.071,2.457.123,4.385.159,5.725,0,.641,0,1.14.029,1.5A4.243,4.243,0,0,0,317.4,290.284Z" transform="translate(-249.46 -205.642)" fill="#7c3b29"/>
      <path id="Path_6560" data-name="Path 6560" d="M309.662,252.346a17.567,17.567,0,0,1-.5-3.72,17.183,17.183,0,0,1-.088-3.756,34.153,34.153,0,0,1,.588,7.476Z" transform="translate(-251.113 -209.275)" fill="#7c3b29"/>
    </g>
    <g id="freepik--character-1--inject-123" transform="translate(30.001 58.178)">
      <path id="Path_6561" data-name="Path 6561" d="M174.993,184.644l-9.21-18.62a68.407,68.407,0,1,0-14.106,20.06v.035Z" transform="translate(-35.27 -68.929)" fill="#fafafa"/>
      <path id="Path_6562" data-name="Path 6562" d="M175,184.736l-23.31,1.54h-.123l.065-.112v-.035l.106.082a71.382,71.382,0,0,1-5.36,4.767c-.976.823-2.057,1.575-3.133,2.386a40.753,40.753,0,0,1-3.468,2.3,67.59,67.59,0,0,1-17.091,7.641A69.171,69.171,0,0,1,101,205.942a68.008,68.008,0,0,1-24.027-5.39,68.357,68.357,0,0,1-41.236-70.787c.112-1.328.37-2.645.588-3.973s.529-2.627.805-3.95A68.53,68.53,0,0,1,52.108,92.708l1.416-1.558.705-.782.746-.741,1.481-1.481L58,86.7a67.19,67.19,0,0,1,13.518-9.474c1.175-.67,2.421-1.222,3.644-1.816s2.486-1.064,3.72-1.593c1.27-.441,2.516-.94,3.791-1.334s2.545-.817,3.844-1.111a70.1,70.1,0,0,1,15.522-2.192,68.431,68.431,0,0,1,65.08,42.582,71.444,71.444,0,0,1,3.409,10.914c.182.905.359,1.8.535,2.686s.27,1.763.411,2.657l.194,1.317c.047.435.088.87.135,1.3.1.864.165,1.722.212,2.58a68.107,68.107,0,0,1-1.369,18.661,70.1,70.1,0,0,1-2.163,7.7c-.823,2.351-1.722,4.555-2.627,6.547v-.053c5.924,12.078,8.951,18.22,9.151,18.643-.206-.406-3.262-6.547-9.269-18.59h0c.9-1.992,1.763-4.167,2.6-6.542A68.272,68.272,0,0,0,171.8,133.25c-.053-.852-.118-1.71-.217-2.574l-.141-1.3-.194-1.311c-.141-.87-.229-1.763-.417-2.645s-.353-1.763-.535-2.68a70.781,70.781,0,0,0-3.409-10.873,68.178,68.178,0,0,0-64.863-42.376,69.941,69.941,0,0,0-15.458,2.186c-1.287.294-2.545.729-3.82,1.1s-2.51.893-3.773,1.334c-1.234.529-2.492,1.005-3.709,1.587s-2.445,1.134-3.626,1.81a66.709,66.709,0,0,0-13.43,9.4l-1.534,1.4L55.194,89.8l-.741.741-.705.776-1.411,1.552a68.565,68.565,0,0,0-14.917,29.046c-.27,1.311-.588,2.615-.8,3.932s-.453,2.627-.588,3.955a68.419,68.419,0,0,0,3.474,30.6,67.708,67.708,0,0,0,15.328,24.685A68.7,68.7,0,0,0,77.07,200.37a67.89,67.89,0,0,0,23.939,5.4,68.948,68.948,0,0,0,21.617-2.61,67.471,67.471,0,0,0,17.044-7.57c1.222-.729,2.351-1.528,3.468-2.286s2.151-1.552,3.127-2.351a71.417,71.417,0,0,0,5.366-4.743l.353-.335-.247.417v.035l-.059-.106Z" transform="translate(-35.276 -69.021)" fill="#263238"/>
      <path id="Path_6563" data-name="Path 6563" d="M92,285.462l70.388-.112s-16.827,11.167-37.028,9.833C107.793,294.043,92,285.462,92,285.462Z" transform="translate(-58.658 -158.151)" fill="#455a64"/>
      <path id="Path_6564" data-name="Path 6564" d="M136.164,201.617l4.014,14.693,14.664-19.8-3.456,51.921H130.451l-6.1.294s.905-8.181,1.275-12.807a51.567,51.567,0,0,1,1.857-10.908C130.609,214.842,136.164,201.617,136.164,201.617Z" transform="translate(-71.994 -121.526)" fill="#fafafa"/>
      <path id="Path_6565" data-name="Path 6565" d="M144.945,244.3c.053.065-2.316,1.969-5.29,4.255s-5.413,4.079-5.466,4.014,2.31-1.975,5.29-4.255S144.892,244.228,144.945,244.3Z" transform="translate(-76.05 -141.226)" fill="#263238"/>
      <path id="Path_6566" data-name="Path 6566" d="M187.163,185.447l-11.4-5.484-4.473-5.313-6.324,6.571L148.19,239.272h28.764l3.685-9.962,6.524-38.462Z" transform="translate(-81.822 -112.514)" fill="#b24bf3"/>
      <path id="Path_6567" data-name="Path 6567" d="M126.66,247.652l-.77-12.343,34.741-5.877s5.936-28.67,9.592-33.366A7.19,7.19,0,0,1,178,193.233s3.967,2.715,3.021,13.112c-.5,5.448-2.492,24.327-3.209,31.15a10.926,10.926,0,0,1-1.587,4.6h0a10.9,10.9,0,0,1-9.245,5.137Z" transform="translate(-72.629 -120.07)" fill="#b24bf3"/>
      <path id="Path_6568" data-name="Path 6568" d="M190.488,262.279c-.053,0-.1-.547-.353-1.387a8.281,8.281,0,0,0-4.285-5.084c-.788-.394-1.328-.529-1.311-.588a3.8,3.8,0,0,1,1.4.388,7.588,7.588,0,0,1,4.4,5.219A3.855,3.855,0,0,1,190.488,262.279Z" transform="translate(-96.808 -145.729)" fill="#263238"/>
      <g id="Group_3697" data-name="Group 3697" transform="translate(73.914 68.284)" opacity="0.2">
        <path id="Path_6569" data-name="Path 6569" d="M180.161,185.11a53.925,53.925,0,0,1-2.075,10.7l-2.61-.764a6.794,6.794,0,0,1,.776,5.4A20.112,20.112,0,0,1,174,205.575q-6.465,11.643-12.966,23.3L174.1,199.192l-.341-5.489,2.516-.535Z" transform="translate(-161.03 -185.11)"/>
      </g>
      <g id="Group_3698" data-name="Group 3698" transform="translate(87.538 109.038)" opacity="0.2">
        <path id="Path_6570" data-name="Path 6570" d="M184.563,254.462a6.941,6.941,0,0,1,7.106,5.143,1.763,1.763,0,0,1,0,1.117.752.752,0,0,1-.911.464,1.175,1.175,0,0,1-.505-.676,10.579,10.579,0,0,0-6.042-5.625" transform="translate(-184.21 -254.45)"/>
      </g>
      <path id="Path_6571" data-name="Path 6571" d="M161.19,228.137a3.857,3.857,0,0,1,.176-.476l.588-1.346,2.11-4.908,7.088-16.157c1.011-2.292,1.987-4.5,2.9-6.571v.065c-.112-1.951-.223-3.785-.323-5.484v-.118h.106l2.521-.523-.082.065,3.133-6.342.876-1.734.241-.447a1.1,1.1,0,0,1,.088-.153.488.488,0,0,1-.059.165l-.206.464c-.2.429-.47,1.023-.817,1.763l-3.039,6.389v.053h-.059l-2.516.547.106-.135q.159,2.548.353,5.484v.071c-.917,2.075-1.887,4.285-2.9,6.577l-7.165,16.122c-.923,2.034-1.669,3.691-2.2,4.872l-.588,1.317A3.653,3.653,0,0,1,161.19,228.137Z" transform="translate(-87.182 -116.372)" fill="#263238"/>
      <path id="Path_6572" data-name="Path 6572" d="M126.565,253.9a1.462,1.462,0,0,1-.029-.206,2.848,2.848,0,0,0-.047-.588c-.041-.552-.1-1.328-.17-2.351-.135-2.028-.329-4.937-.588-8.516v-.1h.094l25.138-4.62,9.269-1.681-.118.112c2.039-7.741,3.8-14.458,5.072-19.266.635-2.351,1.175-4.273,1.5-5.6.182-.641.317-1.14.417-1.5l.112-.388.047-.123a.394.394,0,0,1,0,.135l-.088.388c-.088.364-.212.87-.37,1.51l-1.416,5.625c-1.24,4.814-2.974,11.543-4.966,19.29v.094h-.094l-9.292,1.716-25.144,4.526.094-.118c.194,3.585.353,6.495.464,8.528.047.993.082,1.763.106,2.322v.588A1.1,1.1,0,0,1,126.565,253.9Z" transform="translate(-72.563 -126.704)" fill="#263238"/>
      <path id="Path_6573" data-name="Path 6573" d="M206.373,191.38c0,.053-.588.141-1.469.47a9.369,9.369,0,0,0-5.249,4.913,13.84,13.84,0,0,1-.588,1.434c-.076-.018,0-.147.041-.417a6.055,6.055,0,0,1,.323-1.1,8.652,8.652,0,0,1,5.378-5.037,6.467,6.467,0,0,1,1.117-.253C206.22,191.362,206.367,191.356,206.373,191.38Z" transform="translate(-102.784 -119.405)" fill="#263238"/>
      <path id="Path_6574" data-name="Path 6574" d="M96,162.334c1.029-1.9.588-9.563,2.157-9.292,2.028.347.153,8.4,0,9.139s.934.911,1.011.247c.118-.958,1.293-10.332,3.285-9.8,1.1.288.588,2.3.588,2.3s-1.716,9.086-.764,9.3,1.675-5.019,2.1-6.924,1.6-2.615,2.051-1.652c.658,1.411-.588,5.989-.987,7.823s-1.328,7.153,1.252,5.072,5.29-2.727,6.177-2.392.664,1.646-.323,1.9a12.479,12.479,0,0,0-2.939,1.575,11.755,11.755,0,0,0-1.951,1.834,10.3,10.3,0,0,0-1.846,2.868,6.43,6.43,0,0,1-3.914,3.526h0l-1.5,7.159-9.745-2.086,2.169-7.576c.793-4.978.359-11.667.364-14.693,0-4.855.641-4.89,1.175-4.761C95.658,156.163,95,164.186,96,162.334Z" transform="translate(-58.101 -103.425)" fill="#ffd1bd"/>
      <path id="Path_6575" data-name="Path 6575" d="M99.29,180.234a11.385,11.385,0,0,1,1.3.588,5.478,5.478,0,0,1,2.2,2.6,6.246,6.246,0,0,1,.294,1.023l.029.165.141-.076a8.052,8.052,0,0,1,2.521-.958c.664-.129,1.076-.141,1.076-.176a3.262,3.262,0,0,0-1.1,0,7.387,7.387,0,0,0-2.615.9l.17.088a5.29,5.29,0,0,0-.3-1.081,5.66,5.66,0,0,0-1.07-1.669,5.331,5.331,0,0,0-1.27-.987,4.343,4.343,0,0,0-.987-.394A1.175,1.175,0,0,0,99.29,180.234Z" transform="translate(-61.663 -114.812)" fill="#cc8f75"/>
      <path id="Path_6576" data-name="Path 6576" d="M97.09,191.836a8.569,8.569,0,0,0,4.767,1.487c0-.071-1.111-.2-2.427-.617S97.119,191.771,97.09,191.836Z" transform="translate(-60.756 -119.596)" fill="#cc8f75"/>
      <path id="Path_6577" data-name="Path 6577" d="M151.891,178.941l-7.441,14.905,4.014,14.688,10.691-11.3,10.538-19.578Z" transform="translate(-80.281 -113.754)" fill="#ffd1bd"/>
      <path id="Path_6578" data-name="Path 6578" d="M115.4,179.441s-10.579,3.762-10.579,4.461h0c-1.869,1.463-8.093,16.515-10.074,19.36l-5.666,8.375h0L93.832,193.1l-10.444-3.068s-8.922,21.523-10,26.307a17.632,17.632,0,0,0,.176,8.61l.059-.047a9.9,9.9,0,0,0,3.914,5.26c4.426,2.839,8.563,3.374,12.8.247,2.4-1.763,5.137-3.908,7.641-5.907l.658,15.563h5.766c0-.876-.176-11.537-.176-11.537a59.637,59.637,0,0,0,1.763-7.694c.523-3.668,9.116-27.753,9.116-27.753l6.659-12.848.159-4.755Z" transform="translate(-50.798 -112.856)" fill="#b24bf3"/>
      <path id="Path_6579" data-name="Path 6579" d="M115.615,248.515a3.109,3.109,0,0,1-.047-.482q-.035-.517-.088-1.393c-.065-1.246-.153-3-.264-5.16-.2-4.4-.47-10.462-.776-17.256v-.035c.123-.641.259-1.328.394-2.022,1.393-7.135,2.662-13.6,3.585-18.308l1.123-5.537c.129-.635.241-1.134.317-1.5l.088-.388a.717.717,0,0,1,.041-.129.341.341,0,0,1,0,.135l-.065.394-.264,1.516-1.023,5.56c-.9,4.7-2.133,11.167-3.526,18.326-.129.688-.264,1.375-.388,2.016v-.035c.27,6.794.511,12.86.682,17.256.071,2.169.129,3.92.17,5.166,0,.588,0,1.052.035,1.4a3.016,3.016,0,0,1,.006.482Z" transform="translate(-67.909 -121.439)" fill="#263238"/>
      <path id="Path_6580" data-name="Path 6580" d="M126.51,228.878a2.557,2.557,0,0,1,.053-.488c.053-.341.118-.805.206-1.387.206-1.234.488-2.939.835-5.1.735-4.326,1.763-10.25,2.856-16.8.746-4.285,1.446-8.3,2.045-11.755v-.035c1.469-3.327,2.7-6.107,3.568-8.087.429-.952.776-1.71,1.023-2.263l.276-.588a.922.922,0,0,1,.112-.2.97.97,0,0,1-.071.212c-.065.165-.141.364-.241.588-.235.552-.552,1.322-.952,2.286-.852,1.992-2.045,4.79-3.468,8.134h0c-.588,3.427-1.27,7.453-2,11.755-1.175,6.547-2.186,12.466-2.939,16.792-.388,2.122-.7,3.85-.929,5.078l-.264,1.381a3.59,3.59,0,0,1-.106.482Z" transform="translate(-72.885 -115.614)" fill="#263238"/>
      <path id="Path_6581" data-name="Path 6581" d="M92,249.581c-.041-.029.411-.676,1.046-1.763a31.738,31.738,0,0,0,2.128-4.526,38.3,38.3,0,0,0,1.458-4.7c.294-1.24.429-2.016.476-2.01a1.763,1.763,0,0,1,0,.558c-.035.359-.112.87-.235,1.5a29.244,29.244,0,0,1-1.381,4.814,26.112,26.112,0,0,1-2.222,4.49c-.347.547-.641.97-.864,1.252A1.3,1.3,0,0,1,92,249.581Z" transform="translate(-58.656 -138.045)" fill="#263238"/>
      <g id="Group_3699" data-name="Group 3699" transform="translate(33.638 99.534)" opacity="0.2">
        <path id="Path_6582" data-name="Path 6582" d="M93.012,249.424a.647.647,0,0,0-.447.911.964.964,0,0,0,1.011.458,2.022,2.022,0,0,0,1.029-.558,6.994,6.994,0,0,0,1.763-3.139,30.294,30.294,0,0,0,.976-8.816,36.04,36.04,0,0,1-4.308,11" transform="translate(-92.502 -238.28)"/>
      </g>
      <g id="Group_3700" data-name="Group 3700" transform="translate(44.788 89.649)" opacity="0.2">
        <path id="Path_6583" data-name="Path 6583" d="M113.682,243.871a15.622,15.622,0,0,1-2.133-9.521c.317-4.526,2.516-8.663,4.155-12.889-.94,4.443-1.481,8.857-2.351,13.13,0,0,.453,6.353.464,9.169" transform="translate(-111.475 -221.46)"/>
      </g>
      <g id="Group_3701" data-name="Group 3701" transform="translate(54.295 69.466)" opacity="0.2">
        <path id="Path_6584" data-name="Path 6584" d="M127.65,226.881a186.392,186.392,0,0,1,2.116-20.23,64.653,64.653,0,0,1,6.818-19.531c-.852,2.68-3.479,8.311-3.479,8.311s-3.791,19.983-5.437,30.069" transform="translate(-127.65 -187.12)"/>
      </g>
      <path id="Path_6585" data-name="Path 6585" d="M112.953,265.681l.946,10.5h-4.955l-4.385-.07a30.6,30.6,0,0,1-5.031.129.53.53,0,0,1-.235-.047,3.961,3.961,0,0,1-.764-.188h0c-.447-.165-.905-.453-.835-.946.217-1.5,1.111-1.628,1.111-1.628h.447l.035-.129a11.855,11.855,0,0,1-1.552-.053c-.141,0-.223-.029-.235-.053s-1.763-.206-1.622-1.134c.194-1.552,1.087-1.675,1.087-1.675l1.446-.094a12.619,12.619,0,0,1-1.6-.053c-.141,0-.223-.029-.235-.053s-1.763-.206-1.622-1.134c.217-1.5,1.111-1.628,1.111-1.628l1.175-.082a9.366,9.366,0,0,1-1.3-.047c-.141,0-.223-.029-.235-.053s-1.763-.206-1.622-1.134c.241-1.511,1.128-1.6,1.128-1.6s2.762-.2,4.661-.276c0,0,2.157-1.94,3-1.851,1.27.135,8.64,2.856,8.64,2.856Z" transform="translate(-59.509 -148.679)" fill="#ffd1bd"/>
      <path id="Path_6586" data-name="Path 6586" d="M106.95,280.542a9.833,9.833,0,0,1-2.457.235,9.881,9.881,0,0,1-2.433-.076,9.893,9.893,0,0,1,2.457-.241A9.367,9.367,0,0,1,106.95,280.542Z" transform="translate(-62.805 -156.117)" fill="#cc8f75"/>
      <path id="Path_6587" data-name="Path 6587" d="M105.478,275.493a19.2,19.2,0,0,1-3.491.288,19.738,19.738,0,0,1-3.526-.035,18.916,18.916,0,0,1,3.491-.282,19.431,19.431,0,0,1,3.526.029Z" transform="translate(-61.321 -154.048)" fill="#cc8f75"/>
      <g id="Group_3702" data-name="Group 3702" transform="translate(36.869 118.323)" opacity="0.78">
        <path id="Path_6588" data-name="Path 6588" d="M105.053,270.349a19.734,19.734,0,0,1-3.526.282A19.143,19.143,0,0,1,98,270.6a19.7,19.7,0,0,1,3.491-.282A19.189,19.189,0,0,1,105.053,270.349Z" transform="translate(-98 -270.247)" fill="#cc8f75"/>
      </g>
      <path id="Path_6589" data-name="Path 6589" d="M102.6,265.512a4.946,4.946,0,0,0,1.111.088l2.686.088,2.686.1a5.489,5.489,0,0,0,1.117,0,4.5,4.5,0,0,0-1.1-.176c-.688-.065-1.64-.135-2.692-.17s-2-.035-2.692,0A4.7,4.7,0,0,0,102.6,265.512Z" transform="translate(-63.028 -149.932)" fill="#cc8f75"/>
      <path id="Path_6590" data-name="Path 6590" d="M194.8,117.535c1.246-3.027,5.184-4.408,8.264-3.28a9.066,9.066,0,0,1,5.5,7.535,6.753,6.753,0,0,1-.94,4.631,6.259,6.259,0,0,1-4.3,2.421,8.581,8.581,0,0,1-9.069-11.89" transform="translate(-100.523 -87.454)" fill="#263238"/>
      <path id="Path_6591" data-name="Path 6591" d="M209.847,120.789a2.2,2.2,0,0,1-.223.406,7.237,7.237,0,0,1-.788.964,8.769,8.769,0,0,1-7.547,2.592,7.7,7.7,0,0,1-1.217-.276,1.258,1.258,0,0,1-.423-.182c0-.053.635.147,1.663.241a9.4,9.4,0,0,0,7.37-2.527C209.418,121.295,209.789,120.76,209.847,120.789Z" transform="translate(-103.037 -90.308)" fill="#455a64"/>
      <path id="Path_6592" data-name="Path 6592" d="M211.534,126.668a2.593,2.593,0,0,1-.335.317,10.405,10.405,0,0,1-1.023.741,11.754,11.754,0,0,1-3.832,1.61,9.509,9.509,0,0,1-2.3.176,8.263,8.263,0,0,1-1.851-.306,6.37,6.37,0,0,1-1.175-.441c-.265-.129-.411-.212-.4-.229s.623.223,1.64.464a9.492,9.492,0,0,0,1.81.235,10.35,10.35,0,0,0,2.228-.2,13.212,13.212,0,0,0,3.779-1.5C210.976,127.015,211.5,126.627,211.534,126.668Z" transform="translate(-103.437 -92.731)" fill="#455a64"/>
      <path id="Path_6593" data-name="Path 6593" d="M140.38,120.154c-7.276-16,10.033-24.039,19.472-21.376,8.875,2.51,12.66,6.924,14.106,12.86a29.43,29.43,0,0,1-.935,18.026c-1.175,2.786-3.215,5.625-6.212,5.971" transform="translate(-77.885 -81.027)" fill="#263238"/>
      <path id="Path_6594" data-name="Path 6594" d="M150.362,163.73c-.129-7.641-.217-18.149-.217-18.1s-6.571-1.093-7.934-9.668c-.676-4.261-.464-11.255-.106-16.968.329-5.149,3.732-11.455,8.863-10.914l16,4.055a3.015,3.015,0,0,1,2.7,3.062h0l-1.046,33.1" transform="translate(-79.175 -85.055)" fill="#ffd1bd"/>
      <path id="Path_6595" data-name="Path 6595" d="M149,136.317a1.1,1.1,0,0,0,1.04,1.117,1.046,1.046,0,0,0,1.14-.97,1.093,1.093,0,0,0-1.04-1.117,1.046,1.046,0,0,0-1.14.97Z" transform="translate(-82.156 -96.309)" fill="#263238"/>
      <path id="Path_6596" data-name="Path 6596" d="M169.2,136.317a1.093,1.093,0,0,0,1.04,1.117,1.046,1.046,0,0,0,1.14-.97,1.1,1.1,0,0,0-1.04-1.117,1.046,1.046,0,0,0-1.14.97Z" transform="translate(-90.484 -96.309)" fill="#263238"/>
      <path id="Path_6597" data-name="Path 6597" d="M155.024,140.446a8.164,8.164,0,0,0-1.922-.347c-.306-.029-.588-.088-.641-.294a1.54,1.54,0,0,1,.2-.9l.893-2.3a40.539,40.539,0,0,0,2.01-6.018,40.166,40.166,0,0,0-2.486,5.842c-.3.805-.588,1.575-.858,2.316a1.722,1.722,0,0,0-.159,1.175.764.764,0,0,0,.5.447,2.2,2.2,0,0,0,.511.071A7.452,7.452,0,0,0,155.024,140.446Z" transform="translate(-83.402 -94.349)" fill="#263238"/>
      <path id="Path_6598" data-name="Path 6598" d="M156,169.9a21.811,21.811,0,0,0,11.484-3.068S164.575,172.807,156,172Z" transform="translate(-85.042 -109.29)" fill="#cc8f75"/>
      <path id="Path_6599" data-name="Path 6599" d="M186.112,138.294c.129-.059,4.59-2.034,4.643,3.1s-5.113,4.114-5.125,3.985S186.112,138.294,186.112,138.294Z" transform="translate(-97.257 -97.351)" fill="#ffd1bd"/>
      <path id="Path_6600" data-name="Path 6600" d="M188.267,144.44a1.946,1.946,0,0,0,.241.129.887.887,0,0,0,.67,0,2.216,2.216,0,0,0,1.005-1.992,2.992,2.992,0,0,0-.264-1.281,1.029,1.029,0,0,0-.682-.676.453.453,0,0,0-.523.247c-.071.147-.035.247-.065.259s-.112-.088-.071-.3a.588.588,0,0,1,.2-.323.682.682,0,0,1,.494-.135,1.258,1.258,0,0,1,.94.788,2.939,2.939,0,0,1,.323,1.428,2.283,2.283,0,0,1-1.281,2.228.935.935,0,0,1-.817-.129C188.279,144.563,188.249,144.452,188.267,144.44Z" transform="translate(-98.343 -98.378)" fill="#cc8f75"/>
      <path id="Path_6601" data-name="Path 6601" d="M157.638,152.126a4.666,4.666,0,0,0,.641,1.252,1.663,1.663,0,0,0,1.175.688,1.51,1.51,0,0,0,1.287-.705,2.439,2.439,0,0,0,.353-1.434c0-.453-.229-.993-.676-1.046a1.111,1.111,0,0,0-.547.123l-2.351.952" transform="translate(-85.669 -102.714)" fill="#cc8f75"/>
      <path id="Path_6602" data-name="Path 6602" d="M158.219,153.908a3.262,3.262,0,0,0,1.264-.153,1.816,1.816,0,0,0,.952-.864,1.9,1.9,0,0,0,0-1.546,1.763,1.763,0,0,0-.206-.353c-.094-.1-.076-.094-.176-.076a3.3,3.3,0,0,0-.382.147l-.388.159c-.505.206-.964.382-1.346.529a4.043,4.043,0,0,1-1.287.382,4.291,4.291,0,0,1,1.175-.658c.37-.182.817-.388,1.311-.588l.382-.17a4.116,4.116,0,0,1,.435-.176.541.541,0,0,1,.347,0,.706.706,0,0,1,.264.206,2.468,2.468,0,0,1,.264.453,2.2,2.2,0,0,1-.076,1.887,2.01,2.01,0,0,1-1.175.97,1.934,1.934,0,0,1-1.023.041C158.325,154.014,158.213,153.931,158.219,153.908Z" transform="translate(-85.31 -102.562)" fill="#263238"/>
      <path id="Path_6603" data-name="Path 6603" d="M193.128,132.609c-.529-.035-4.767.511-4.432,8.393.312,7.364,5.472,5.742,7.123,2.974C197.378,141.349,198.271,132.973,193.128,132.609Z" transform="translate(-98.514 -95.181)" fill="#455a64"/>
      <path id="Path_6604" data-name="Path 6604" d="M196.876,126.561a1.178,1.178,0,0,1,0-.206v-.588c0-.541-.035-1.3-.065-2.245-.035-1.934-.088-4.62-.153-7.729l.094.094h-2.233l.1-.1c0,.588.035,1.2.047,1.834.076,2.939.147,5.707.2,8.017v.065H194.8a3.985,3.985,0,0,0-2.251,1.446,5.378,5.378,0,0,0-.9,1.9,8.391,8.391,0,0,0-.229,1.346v.482a.34.34,0,0,1,0-.123v-.364a7.766,7.766,0,0,1,.188-1.364,5.289,5.289,0,0,1,.887-1.957,4.114,4.114,0,0,1,2.351-1.534l-.065.082c-.065-2.3-.147-5.055-.229-8.011,0-.629-.035-1.252-.047-1.84v-.1h2.38v.094c.035,3.1.065,5.8.088,7.729v2.833A1.441,1.441,0,0,1,196.876,126.561Z" transform="translate(-99.641 -88.198)" fill="#455a64"/>
      <path id="Path_6605" data-name="Path 6605" d="M186.545,108.683a16.945,16.945,0,0,0-7.505-7.752,31.467,31.467,0,0,0-6.33-2.351s3.086-.729,8.076,1.487a15.631,15.631,0,0,1,6.06,4.29,13.07,13.07,0,0,1,2.151,4.32Z" transform="translate(-91.931 -81.105)" fill="#455a64"/>
      <path id="Path_6606" data-name="Path 6606" d="M193.6,146.4a.424.424,0,0,1-.153-.041,2.608,2.608,0,0,1-.394-.206,3.479,3.479,0,0,1-1.111-1.175,5.783,5.783,0,0,1-.682-2.31,16.405,16.405,0,0,1,0-2.939,18,18,0,0,1,.488-2.9,8.193,8.193,0,0,1,.846-2.257,3.485,3.485,0,0,1,1.117-1.175,2.051,2.051,0,0,1,.394-.2.423.423,0,0,1,.153-.041,3.6,3.6,0,0,0-.505.306,3.679,3.679,0,0,0-1.04,1.175,8.616,8.616,0,0,0-.788,2.228,19.26,19.26,0,0,0-.47,2.88,17.85,17.85,0,0,0,0,2.909,5.813,5.813,0,0,0,.623,2.263,3.567,3.567,0,0,0,1.034,1.175C193.433,146.309,193.609,146.38,193.6,146.4Z" transform="translate(-99.553 -95.405)" fill="#263238"/>
      <rect id="Rectangle_331" data-name="Rectangle 331" width="6.136" height="2.31" rx="1.155" transform="translate(72.009 50.793) rotate(-11.1)" fill="#455a64"/>
      <path id="Path_6607" data-name="Path 6607" d="M167.5,150.683l18.014-5.654a.858.858,0,0,1,1.087.553h0a.852.852,0,0,1-.588,1.081l-18.426,4.978Z" transform="translate(-89.783 -100.284)" fill="#455a64"/>
      <path id="Path_6608" data-name="Path 6608" d="M187.874,148.228a5.106,5.106,0,0,1,.588-.206l1.646-.505c.694-.212,1.54-.435,2.439-.729a1.681,1.681,0,0,0,.588-.364.888.888,0,0,0,.253-.629.547.547,0,0,0-.37-.517,1.434,1.434,0,0,0-.752,0l-5.4,1.763-1.646.511a4.394,4.394,0,0,1-.588.159,4.264,4.264,0,0,1,.588-.235l1.628-.588c1.375-.464,3.268-1.117,5.4-1.763a1.487,1.487,0,0,1,.864,0,.735.735,0,0,1,.5.694,1.058,1.058,0,0,1-.311.764,1.8,1.8,0,0,1-.658.406c-.929.294-1.763.494-2.463.694l-1.663.441A3.327,3.327,0,0,1,187.874,148.228Z" transform="translate(-96.845 -100.315)" fill="#263238"/>
      <path id="Path_6609" data-name="Path 6609" d="M170.132,131.951c-.141.217-1.375-.453-2.9-.182s-2.474,1.3-2.674,1.146c-.1-.065,0-.447.411-.911a3.691,3.691,0,0,1,2.1-1.134,3.65,3.65,0,0,1,2.351.364C169.98,131.51,170.2,131.857,170.132,131.951Z" transform="translate(-88.554 -94.441)" fill="#cc8f75"/>
      <path id="Path_6610" data-name="Path 6610" d="M170,132.652a6.934,6.934,0,0,1-.84-.212,4.582,4.582,0,0,0-3.861.876c-.417.329-.635.588-.67.552s.129-.329.529-.717a4.079,4.079,0,0,1,4.055-.911C169.74,132.4,170.016,132.6,170,132.652Z" transform="translate(-88.597 -94.948)" fill="#263238"/>
      <path id="Path_6611" data-name="Path 6611" d="M170.891,126.457c-.129.411-1.44.382-3,.458s-2.874.165-3.021-.235c-.071-.2.2-.5.735-.77a5.954,5.954,0,0,1,4.5-.165C170.656,125.975,170.944,126.257,170.891,126.457Z" transform="translate(-88.695 -92.203)" fill="#263238"/>
      <path id="Path_6612" data-name="Path 6612" d="M149.731,132.894c-.118.065-.347-.153-.723-.411a3.7,3.7,0,0,0-1.558-.629c-1.328-.217-2.4.394-2.551.176-.071-.088.112-.394.588-.688a3.191,3.191,0,0,1,2.11-.4,2.886,2.886,0,0,1,1.875,1.081C149.8,132.483,149.831,132.841,149.731,132.894Z" transform="translate(-80.46 -94.479)" fill="#cc8f75"/>
      <path id="Path_6613" data-name="Path 6613" d="M149.5,133.977c-.041,0-.241-.264-.658-.635a4.114,4.114,0,0,0-4.008-.87c-.529.165-.835.347-.858.306s.241-.282.788-.511a3.885,3.885,0,0,1,2.257-.188A3.832,3.832,0,0,1,149,133.189,1.722,1.722,0,0,1,149.5,133.977Z" transform="translate(-80.086 -94.927)" fill="#263238"/>
      <path id="Path_6614" data-name="Path 6614" d="M150.328,127.406c-.076.417-1.328.541-2.809.558s-2.739-.094-2.821-.517,1.175-1.005,2.809-1.017S150.41,126.994,150.328,127.406Z" transform="translate(-80.381 -92.634)" fill="#263238"/>
      <path id="Path_6615" data-name="Path 6615" d="M175.959,107.323a16.945,16.945,0,0,0-2.351,4.426,5.754,5.754,0,0,0,.5,4.837c.905,1.322,2.451,2.022,3.861,2.792s2.851,1.828,3.2,3.391c.106.488-.1,2.2.264,2.545a1.241,1.241,0,0,0,1.763-.394,9.234,9.234,0,0,0,.647-3.144l.088-6.406a12.012,12.012,0,0,0-.782-5.29c-1.1-2.28-3.368-3.009-6.683-2.845" transform="translate(-92.171 -84.712)" fill="#263238"/>
      <path id="Path_6616" data-name="Path 6616" d="M141.864,118.668a12.078,12.078,0,0,1,2.433-5.989,8.857,8.857,0,0,1,5.478-3.28c2.163-.329,4.349.27,6.536.394s4.667-.411,5.807-2.275a1.648,1.648,0,0,0,.071-1.9,1.963,1.963,0,0,0-.641-.423,16.457,16.457,0,0,0-9.345-1.51,12.889,12.889,0,0,0-8.187,4.578,10.638,10.638,0,0,0-2.069,9.069" transform="translate(-79.135 -83.197)" fill="#263238"/>
      <path id="Path_6617" data-name="Path 6617" d="M139.559,116.368a1.11,1.11,0,0,1-.1-.276,5.624,5.624,0,0,1-.176-.835,7.347,7.347,0,0,1,.294-3.115,8.281,8.281,0,0,1,2.58-3.85,10.685,10.685,0,0,1,5.172-2.351,14.523,14.523,0,0,1,5.678.253,19.876,19.876,0,0,1,2.351.717,19.215,19.215,0,0,0,2.016.735,8.669,8.669,0,0,0,3.044.27,2.263,2.263,0,0,0,1-.488.946.946,0,0,1-.2.223,1.828,1.828,0,0,1-.77.382,8.093,8.093,0,0,1-3.133-.182c-.647-.159-1.317-.447-2.039-.7a20.317,20.317,0,0,0-2.351-.682,14.559,14.559,0,0,0-5.566-.229,10.579,10.579,0,0,0-5.037,2.239,8.228,8.228,0,0,0-2.557,3.7,7.429,7.429,0,0,0-.376,3.033C139.471,115.969,139.588,116.362,139.559,116.368Z" transform="translate(-78.128 -84.118)" fill="#455a64"/>
      <path id="Path_6618" data-name="Path 6618" d="M155.93,100.759a1.763,1.763,0,0,1,.541-.106,7.364,7.364,0,0,1,1.5,0,8.728,8.728,0,0,1,4.561,1.822c.758.588,1.393,1.264,2.069,1.716a5.4,5.4,0,0,0,1.981.8,4.379,4.379,0,0,0,1.446.1c.341-.041.511-.135.529-.112a.964.964,0,0,1-.505.229,4.026,4.026,0,0,1-1.51,0,5.331,5.331,0,0,1-2.1-.776c-.711-.464-1.364-1.123-2.1-1.71a9.157,9.157,0,0,0-4.4-1.851C156.712,100.7,155.936,100.841,155.93,100.759Z" transform="translate(-85.013 -81.992)" fill="#455a64"/>
      <path id="Path_6619" data-name="Path 6619" d="M189.334,125.315a6.4,6.4,0,0,0-.364-.529,3.656,3.656,0,0,0-1.364-1.052,5.877,5.877,0,0,0-2.5-.5,19.8,19.8,0,0,0-3.168.435,11.561,11.561,0,0,1-3.25.247,8.881,8.881,0,0,1-2.586-.623,8.433,8.433,0,0,1-1.581-.846A2.063,2.063,0,0,1,174,122a16.931,16.931,0,0,0,2.163,1.07,9.433,9.433,0,0,0,2.533.541,11.791,11.791,0,0,0,3.168-.264,18,18,0,0,1,3.221-.417,5.813,5.813,0,0,1,2.6.588,3.568,3.568,0,0,1,1.369,1.175,2.8,2.8,0,0,1,.223.435C189.328,125.256,189.346,125.315,189.334,125.315Z" transform="translate(-92.463 -90.808)" fill="#455a64"/>
      <path id="Path_6620" data-name="Path 6620" d="M188.812,117.375a4.32,4.32,0,0,0-.364-.517,3.444,3.444,0,0,0-1.369-.964,5.1,5.1,0,0,0-2.48-.264c-.946.094-1.975.382-3.086.588a6.706,6.706,0,0,1-3.191-.047,5.143,5.143,0,0,1-2.222-1.381,4.949,4.949,0,0,1-.982-1.458,3.389,3.389,0,0,1-.123-.447.441.441,0,0,1,0-.165,6.864,6.864,0,0,0,1.317,1.922,5.19,5.19,0,0,0,2.145,1.264,6.548,6.548,0,0,0,3.062,0c1.087-.206,2.128-.488,3.115-.588a5.143,5.143,0,0,1,2.586.347,3.262,3.262,0,0,1,1.381,1.093,1.281,1.281,0,0,1,.212.617Z" transform="translate(-92.87 -86.982)" fill="#455a64"/>
      <path id="Path_6621" data-name="Path 6621" d="M161,193.977l.112-.094.323-.259a14.366,14.366,0,0,0,1.175-1.081,20.152,20.152,0,0,0,1.687-1.963c.588-.8,1.275-1.763,2-2.833,1.446-2.139,3.139-4.749,4.937-7.752.9-1.5,1.828-3.109,2.762-4.8.235-.423.464-.852.705-1.281a7.774,7.774,0,0,1,.805-1.281,2.792,2.792,0,0,1,1.246-.905,1.51,1.51,0,0,1,.793-.088.823.823,0,0,1,.376.206,1.034,1.034,0,0,1,.206.388h0v.029a1.346,1.346,0,0,1-.276.488.782.782,0,0,1-.517.247,1.652,1.652,0,0,1-1.017-.353,1.722,1.722,0,0,1-.623-1.969,1.5,1.5,0,0,1,.746-.852,1.693,1.693,0,0,1,1.111-.159,1.176,1.176,0,0,1,.905.705.588.588,0,0,1-.129.623,1.123,1.123,0,0,1-.529.288,1.558,1.558,0,0,1-1.722-.788,1.4,1.4,0,0,1-.106-1.011,1.763,1.763,0,0,1,.529-.852,1.369,1.369,0,0,1,.911-.353,1.081,1.081,0,0,1,.87.453.705.705,0,0,1,.106.523.67.67,0,0,1-.288.441,1.04,1.04,0,0,1-.952.118,1.175,1.175,0,0,1-.647-.705,2.7,2.7,0,0,1-.141-.934,3.233,3.233,0,0,1,.464-1.763,1.311,1.311,0,0,1,.735-.552,1.175,1.175,0,0,1,.887.159.87.87,0,0,1,.447.793.811.811,0,0,1-.588.682.946.946,0,0,1-.864-.135,1.234,1.234,0,0,1-.435-.758,1.728,1.728,0,0,1,.076-.852,3.738,3.738,0,0,1,.288-.776,1.475,1.475,0,0,1,.558-.588,1.763,1.763,0,0,1,.758-.259.776.776,0,0,1,.411.053.952.952,0,0,1,.311.276.993.993,0,0,1,.17.376.588.588,0,0,1-.047.429.682.682,0,0,1-.729.282,1.252,1.252,0,0,1-.67-.347,2.01,2.01,0,0,1-.588-1.322,2.163,2.163,0,0,1,.359-1.352,1.652,1.652,0,0,1,.5-.47,1.4,1.4,0,0,1,.641-.176.946.946,0,0,1,.629.188.711.711,0,0,1,.264.588.97.97,0,0,1-.846.823,1.023,1.023,0,0,1-.964-.547,1.763,1.763,0,0,1-.241-1.04,6.376,6.376,0,0,1,.641-1.763l.641-1.458c.382-.87.688-1.546.893-2.01l.235-.523a1.875,1.875,0,0,1,.088-.176,1.4,1.4,0,0,1-.071.182l-.217.529-.858,2.028-.605,1.4a6.506,6.506,0,0,0-.588,1.763,1.628,1.628,0,0,0,.229.97.917.917,0,0,0,.852.482.846.846,0,0,0,.723-.7.588.588,0,0,0-.217-.482.87.87,0,0,0-.535-.153,1.328,1.328,0,0,0-.588.165,1.57,1.57,0,0,0-.453.429,1.987,1.987,0,0,0-.323,1.252,1.834,1.834,0,0,0,.535,1.217,1.07,1.07,0,0,0,.588.3.535.535,0,0,0,.588-.2.623.623,0,0,0-.112-.588.758.758,0,0,0-.253-.223.652.652,0,0,0-.329-.041,1.452,1.452,0,0,0-1.175.788,3.65,3.65,0,0,0-.276.735,1.575,1.575,0,0,0-.065.77,1.023,1.023,0,0,0,.37.641.758.758,0,0,0,.7.112.623.623,0,0,0,.458-.523.694.694,0,0,0-.364-.617,1.011,1.011,0,0,0-.746-.135,1.175,1.175,0,0,0-.623.482,3.115,3.115,0,0,0-.429,1.657,2.457,2.457,0,0,0,.135.858,1,1,0,0,0,.529.588.864.864,0,0,0,.776-.1.494.494,0,0,0,.129-.688.888.888,0,0,0-.711-.364,1.176,1.176,0,0,0-.782.306,1.3,1.3,0,0,0,1.128,2.3.887.887,0,0,0,.435-.229.394.394,0,0,0,.082-.411.987.987,0,0,0-.758-.588,1.428,1.428,0,0,0-1.634.882,1.516,1.516,0,0,0,.588,1.763,1.457,1.457,0,0,0,.893.317.752.752,0,0,0,.623-.588v.053a.588.588,0,0,0-.435-.447,1.358,1.358,0,0,0-.694.082,2.592,2.592,0,0,0-1.175.84,8.564,8.564,0,0,0-.788,1.246q-.353.652-.705,1.287c-.94,1.693-1.875,3.291-2.78,4.8-1.8,3-3.526,5.6-4.972,7.741-.735,1.064-1.4,2.022-2.028,2.821a20.319,20.319,0,0,1-1.716,1.945A10.58,10.58,0,0,1,161,193.977Z" transform="translate(-87.104 -104.804)" fill="#263238"/>
    </g>
  </g>
</svg>
