<svg id="chat_black_24dp_1_" data-name="chat_black_24dp (1)" xmlns="http://www.w3.org/2000/svg" width="45.631" height="45.63" viewBox="0 0 45.631 45.63">
  <path id="Path_9220" data-name="Path 9220" d="M0,0H45.63V45.63H0Z" fill="none"/>
  <path id="Path_9221" data-name="Path 9221" d="M34.42,4H4V29.039l2.224-2.224h28.2ZM23.013,23.013H7.8v-3.8h15.21Zm7.6-5.7H7.8v-3.8H30.618Zm0-5.7H7.8V7.8H30.618Z" transform="translate(3.605 3.605)" fill="#6c0ba9" opacity="0.3"/>
  <path id="Path_9222" data-name="Path 9222" d="M36.223,32.42a3.814,3.814,0,0,0,3.8-3.8V5.8a3.814,3.814,0,0,0-3.8-3.8H5.8A3.8,3.8,0,0,0,2.019,5.8L2,40.025l7.605-7.6ZM5.8,30.842V5.8h30.42V28.618H8.027Zm3.8-9.829h15.21v3.8H9.605Zm0-5.7H32.42v3.8H9.605Zm0-5.7H32.42v3.8H9.605Z" transform="translate(1.803 1.803)" fill="#6c0ba9"/>
</svg>
