<svg xmlns="http://www.w3.org/2000/svg" width="24" height="24" viewBox="0 0 24 24"><defs><style>.a{fill:none;}.b{fill:#51087e;}</style></defs><path class="a" d="M0,0H24V24H0Z"/><circle class="b" cx="1.25" cy="1.25" r="1.25" transform="translate(13.25 9.25)"/><circle class="b" cx="1.25" cy="1.25" r="1.25" transform="translate(8.25 9.25)"/><path class="b" d="M16.1,14H7.9a.255.255,0,0,0-.23.37,4.879,4.879,0,0,0,8.66,0A.262.262,0,0,0,16.1,14Zm6.84-2.66a4.008,4.008,0,0,0-2.81-3.17,9.114,9.114,0,0,0-2.19-2.91A8.991,8.991,0,0,0,3.87,8.17a3.994,3.994,0,0,0-2.81,3.17,3.66,3.66,0,0,0,0,1.32,4.008,4.008,0,0,0,2.81,3.17,8.977,8.977,0,0,0,2.17,2.89,8.943,8.943,0,0,0,11.93,0,9.086,9.086,0,0,0,2.17-2.89,4,4,0,0,0,2.8-3.17,3.66,3.66,0,0,0,0-1.32ZM19,14a2.851,2.851,0,0,1-.29-.03,7.168,7.168,0,0,1-.86,1.86,6.983,6.983,0,0,1-11.7,0,7.168,7.168,0,0,1-.86-1.86A2.85,2.85,0,0,1,5,14a2,2,0,0,1,0-4,2.851,2.851,0,0,1,.29.03,7.168,7.168,0,0,1,.86-1.86,6.983,6.983,0,0,1,11.7,0,7.168,7.168,0,0,1,.86,1.86A2.85,2.85,0,0,1,19,10a2,2,0,0,1,0,4Z"/></svg>