<svg xmlns="http://www.w3.org/2000/svg" width="317.977" height="236.931" viewBox="0 0 317.977 236.931"><defs><style>.a{fill:#ebebeb;}.b{fill:#f0f0f0;}.c{fill:#f5f5f5;}.d{fill:#e6e6e6;}.e,.i,.o,.r{fill:#fff;}.f{fill:#e0e0e0;}.g{fill:#b24bf3;}.h{fill:#263238;}.i,.k{opacity:0.2;}.j{fill:#ffb573;}.l{fill:#3c474c;}.m,.o{opacity:0.1;}.n,.p{fill:#fafafa;}.p{opacity:0.4;}.q{fill:#ed893e;}.r{opacity:0.5;}.s{opacity:0.3;}</style></defs><g transform="translate(0 -55)"><g transform="translate(0 55)"><rect class="a" width="317.977" height="0.159" transform="translate(0 208.211)"/><rect class="a" width="16.535" height="0.159" transform="translate(269.581 214.265)"/><rect class="a" width="34.405" height="0.159" transform="translate(192.013 212.542)"/><rect class="a" width="22.519" height="0.159" transform="translate(252.213 220.173)"/><rect class="a" width="15.066" height="0.159" transform="translate(33.362 219.105)"/><rect class="a" width="16.433" height="0.159" transform="translate(54.088 219.105)"/><rect class="a" width="34.698" height="0.159" transform="translate(133.919 216.421)"/><path class="a" d="M164.631,234.848H41.835a3.631,3.631,0,0,1-3.625-3.631V58.6A3.631,3.631,0,0,1,41.835,55h122.8a3.631,3.631,0,0,1,3.631,3.631V231.216A3.631,3.631,0,0,1,164.631,234.848ZM41.835,55.127A3.472,3.472,0,0,0,38.369,58.6V231.216a3.472,3.472,0,0,0,3.466,3.472h122.8a3.479,3.479,0,0,0,3.472-3.472V58.6a3.479,3.479,0,0,0-3.472-3.472Z" transform="translate(-13.91 -55)"/><path class="a" d="M380.934,234.848h-122.8a3.638,3.638,0,0,1-3.631-3.631V58.6a3.638,3.638,0,0,1,3.631-3.6h122.8a3.631,3.631,0,0,1,3.619,3.6V231.216A3.631,3.631,0,0,1,380.934,234.848Zm-122.8-179.72a3.479,3.479,0,0,0-3.472,3.472V231.216a3.479,3.479,0,0,0,3.472,3.472h122.8a3.479,3.479,0,0,0,3.472-3.472V58.6a3.479,3.479,0,0,0-3.472-3.472Z" transform="translate(-92.65 -55)"/><rect class="b" width="7.784" height="93.542" transform="translate(86.617 204.974) rotate(180)"/><rect class="b" width="43.118" height="3.224" transform="translate(84.556 208.198) rotate(180)"/><rect class="c" width="39.442" height="93.542" transform="translate(39.391 111.432)"/><rect class="b" width="31.035" height="16.7" transform="translate(43.595 160.139)"/><rect class="b" width="31.035" height="16.7" transform="translate(43.595 182.003)"/><rect class="c" width="10.563" height="2.289" rx="1.145" transform="translate(64.39 169.641) rotate(180)"/><rect class="c" width="10.563" height="2.289" rx="1.145" transform="translate(64.39 191.498) rotate(180)"/><rect class="b" width="31.035" height="16.7" transform="translate(43.595 116.589)"/><rect class="b" width="31.035" height="16.7" transform="translate(43.595 138.282)"/><rect class="c" width="10.563" height="2.289" rx="1.145" transform="translate(64.39 126.09) rotate(180)"/><rect class="c" width="10.563" height="2.289" rx="1.145" transform="translate(64.39 147.776) rotate(180)"/><rect class="b" width="23.365" height="93.542" transform="translate(145.36 204.974) rotate(180)"/><rect class="b" width="58.361" height="3.224" transform="translate(142.962 208.198) rotate(180)"/><rect class="c" width="39.442" height="93.542" transform="translate(82.553 111.432)"/><rect class="b" width="31.035" height="16.7" transform="translate(86.757 160.139)"/><rect class="b" width="31.035" height="16.7" transform="translate(86.757 182.003)"/><rect class="c" width="10.563" height="2.289" rx="1.145" transform="translate(107.552 169.641) rotate(180)"/><rect class="c" width="10.563" height="2.289" rx="1.145" transform="translate(107.552 191.498) rotate(180)"/><rect class="b" width="31.035" height="16.7" transform="translate(86.757 116.589)"/><rect class="b" width="31.035" height="16.7" transform="translate(86.757 138.282)"/><rect class="c" width="10.563" height="2.289" rx="1.145" transform="translate(107.552 126.09) rotate(180)"/><rect class="c" width="10.563" height="2.289" rx="1.145" transform="translate(107.552 147.776) rotate(180)"/><rect class="d" width="98.236" height="185.883" transform="translate(272.913 201.273) rotate(180)"/><rect class="c" width="98.236" height="185.883" transform="translate(270.954 201.273) rotate(180)"/><rect class="e" width="178.003" height="91.221" transform="translate(267.456 19.327) rotate(90)"/><rect class="d" width="178.003" height="1.475" transform="translate(177.711 19.333) rotate(90)"/><rect class="c" width="95.336" height="5.291" transform="translate(269.504 77.058) rotate(180)"/><rect class="f" width="52.867" height="78.388" transform="translate(118.395 89.708) rotate(180)"/><rect class="c" width="55.061" height="78.388" transform="translate(117.378 89.708) rotate(180)"/><rect class="e" width="66.031" height="45.833" transform="translate(66.928 83.532) rotate(-90)"/><path class="c" d="M133.586,136.713c-1.52,1.272-4.14,5.088-10.086-.865s-2.156-8.566-.859-10.08-5.444-10.811-8.808-5.838-.77,10.938,6.945,18.646,13.679,10.309,18.64,6.945S135.106,135.422,133.586,136.713Z" transform="translate(-40.915 -78.11)"/><path class="c" d="M144.688,136.2a.636.636,0,0,1-.636-.636,11.829,11.829,0,0,0-11.816-11.816.636.636,0,1,1,0-1.272,13.1,13.1,0,0,1,13.088,13.088A.636.636,0,0,1,144.688,136.2Z" transform="translate(-47.909 -79.566)"/><path class="c" d="M150.455,132.407a.636.636,0,0,1-.636-.636,16.458,16.458,0,0,0-16.433-16.439.636.636,0,1,1,0-1.272,17.724,17.724,0,0,1,17.7,17.711A.636.636,0,0,1,150.455,132.407Z" transform="translate(-48.327 -76.501)"/><path class="c" d="M156.462,129.032a.636.636,0,0,1-.636-.636,22.525,22.525,0,0,0-22.5-22.494.636.636,0,1,1,0-1.272A23.8,23.8,0,0,1,157.1,128.4.636.636,0,0,1,156.462,129.032Z" transform="translate(-48.305 -73.068)"/><path class="f" d="M63.831,168.714c1.418.553,5.278-.038,3.994,1.984a17.611,17.611,0,0,1-2.639,2.976c-1.437,1.374-1.164,2.862.534,3.4a2.226,2.226,0,0,1,.935.509c.782.865-1.062,2.035-1.971,2.9s-1.272,1.73-.6,2.378,2.277.452,3.5.636c2.944.515-.083,3.663.229,5.285.216,1.107,1.374,1.412,2.944,1.571,1.272.127,3,.216,3.065,1.234.064.884-1.418,1.908-1.806,2.811a2.334,2.334,0,0,0,.286,2.448,3.606,3.606,0,0,0,2.289,1.2c1.456.242,3.657,0,3.765,1.272.045.572-.464,1.075-.108,1.6a2.544,2.544,0,0,0,1.7.776,15.855,15.855,0,0,0,4.2-.057c1.711-.242,4.235-1.412,3.307-2.544a2.162,2.162,0,0,0-1.323-.591c-.413-.064-1.609.038-1.762-.178s.261-1.043.28-1.348a5.011,5.011,0,0,0-.5-2.429,7.434,7.434,0,0,0-2.207-2.715c-.4-.318-1.049-.553-1.132-1.018s.293-.973.706-1.431c.636-.712,1.673-1.393,2.035-2.156.579-1.2-.82-1.584-2.111-1.857-1.17-.248-2.709-.566-2.315-1.666.293-.795,1.584-1.45,1.971-2.226.515-1.037-.75-1.081-1.66-1.45a1.685,1.685,0,0,1-1.037-2.436c.7-1.8,4.954-4.344,2.779-5.507-.553-.3-1.068-.4-1.4-.846s-.407-1.075-.871-1.507c-.731-.687-2.245-.8-3.04-1.437-1.622-1.31,1.908-3.631-1.316-4.185a4.452,4.452,0,0,1-1.87-.6c-.293-.21-.528-1.234-.859-1.31-1.469-.318-4.121,1.908-4.954,2.582C65.878,165.611,62.133,168.053,63.831,168.714Z" transform="translate(-23.079 -94.015)"/><path class="d" d="M96.057,195.323c-.871-1.272-4.681-2.506-2.15-3.962a23.974,23.974,0,0,1,4.375-1.768c2.213-.719,3-2.372,1.908-3.746a1.908,1.908,0,0,1-.477-.967c-.089-1.272,2.347-1.571,3.746-2.029s2.309-1.151,2.169-2.143c-.159-1.087-1.7-1.558-2.633-2.366-2.239-1.952,2.6-3.72,3.447-5.526.572-1.234-.235-2.111-1.514-3.027-1.043-.75-2.493-1.666-1.851-2.741.553-.935,2.544-1.272,3.536-2.01a3.345,3.345,0,0,0,1.431-2.639,3.072,3.072,0,0,0-1.227-2.315c-1.119-.948-3.237-1.755-2.448-3.11.35-.636,1.151-.878,1.2-1.584a2.124,2.124,0,0,0-.967-1.628,13.355,13.355,0,0,0-3.746-1.959c-1.679-.579-4.712-.6-4.668,1a1.793,1.793,0,0,0,.757,1.24c.318.267,1.444.738,1.431,1.03s-.948.948-1.177,1.272a7.123,7.123,0,0,0-1.234,2.735,8.013,8.013,0,0,0,.07,3.816c.14.521.553,1.068.305,1.584a2.983,2.983,0,0,1-1.615,1.126,16.564,16.564,0,0,0-3.288,1.234c-1.335.948-.362,2.016.585,2.919s2,1.908.89,2.817c-.8.674-2.391.719-3.262,1.329-1.177.814-.089,1.469.452,2.283.712,1.062.382,2.086-.75,3-1.863,1.5-7.371,2.054-6.258,4.3.286.572.636.922.636,1.539s-.382,1.272-.273,1.959c.172,1.062,1.431,1.908,1.685,2.944.534,2.124-4.165,2.811-1.723,4.916a3.6,3.6,0,0,1,1.272,1.52c.108.356-.388,1.52-.146,1.755,1.075,1.03,4.941.045,6.143-.254C92.108,197.51,97.1,196.817,96.057,195.323Z" transform="translate(-30.109 -90.111)"/><path class="b" d="M96.129,209.59S95.791,222.71,83,222.71,69.87,209.59,69.87,209.59Z" transform="translate(-25.436 -111.278)"/></g><g transform="translate(35.683 277.533)"><ellipse class="c" cx="123.305" cy="7.199" rx="123.305" ry="7.199"/></g><g transform="translate(124.125 55.884)"><path class="g" d="M195.816,70.336h-.636a13.775,13.775,0,0,1,1.145-5.533,13.946,13.946,0,0,1,12.8-8.414v.636A13.355,13.355,0,0,0,196.9,65.045a13.183,13.183,0,0,0-1.087,5.291Z" transform="translate(-195.18 -56.39)"/><rect class="g" width="0.636" height="8.534" transform="translate(0 17.915)"/><rect class="g" width="64.765" height="35.944" rx="17.972" transform="translate(2.226 2.226)"/><path class="g" d="M261.3,110.889c4.013,9.469,14.932,13.132,21.266,13.953-6.213-8.643-5.94-16.242-5.94-16.242Z" transform="translate(-219.251 -75.397)"/><path class="f" d="M224.712,74.96l-5.666-1.38L215.02,77.8l1.634,5.6,5.673,1.38,4.026-4.216Z" transform="translate(-202.403 -62.648)"/><path class="e" d="M221.588,74.2l-5.673-1.38-4.026,4.216,1.641,5.6,5.666,1.38,4.026-4.216Z" transform="translate(-201.263 -62.371)"/><path class="e" d="M258.541,83.525l-20.09-4.884a8.585,8.585,0,0,0-13.991-5.088l6.722,1.634,1.634,5.6-4.026,4.223L222.05,83.34a8.585,8.585,0,0,0,14.8,1.908h0l20.09,4.884a3.4,3.4,0,0,0,4.1-2.493h0a3.4,3.4,0,0,0-2.493-4.115Z" transform="translate(-204.962 -61.902)"/><circle class="g" cx="2.213" cy="2.213" r="2.213" transform="translate(50.469 22.704)"/></g><g transform="translate(112.475 96.212)"><rect class="f" width="6.042" height="15.269" transform="translate(78.82 156.474)"/><path class="h" d="M307.016,381.6h-8.433L298,396.3a2.779,2.779,0,0,0,2.779,2.894h4.076a2.779,2.779,0,0,0,2.773-2.894Z" transform="translate(-220.959 -215.11)"/><path class="h" d="M313.921,404.774a1.081,1.081,0,0,1-.9-.483,9.177,9.177,0,0,0-7.7-4.146h-24.8a9.177,9.177,0,0,0-7.7,4.146,1.075,1.075,0,0,1-1.793-1.183,11.333,11.333,0,0,1,9.488-5.088h24.8a11.333,11.333,0,0,1,9.508,5.075,1.075,1.075,0,0,1-.9,1.666Z" transform="translate(-211.088 -221.088)"/><path class="h" d="M306.867,363.562h-20.35a4.776,4.776,0,0,1-4.681-3.816l-.636-3.116h31.009l-.636,3.116a4.776,4.776,0,0,1-4.706,3.816Z" transform="translate(-214.845 -206.02)"/><path class="h" d="M235.53,308.7h24.4a38.469,38.469,0,0,0,37.966-33.07l6.69-47.111h43.1L341,275.631A38.469,38.469,0,0,1,303.03,308.7Z" transform="translate(-198.219 -159.382)"/><path class="h" d="M233.394,310.215a3.58,3.58,0,1,1,0-7.154h24.465A34.977,34.977,0,0,0,292.2,273.049l6.69-47.111a3.587,3.587,0,0,1,3.542-3.078h43.1a3.58,3.58,0,0,1,3.542,4.083l-6.69,47.111a42.19,42.19,0,0,1-41.509,36.16H233.394Zm72.162-80.194L299.3,274.054a42.176,42.176,0,0,1-18.226,29.025h19.823a34.977,34.977,0,0,0,34.424-30l6.112-43.035Z" transform="translate(-196.083 -157.321)"/><path class="i" d="M301.164,310.139a3.58,3.58,0,1,1,0-7.154h24.4a34.977,34.977,0,0,0,34.424-30l6.69-47.111a3.58,3.58,0,1,1,7.085,1l-6.69,47.111a42.19,42.19,0,0,1-41.509,36.16Z" transform="translate(-220.754 -157.246)"/><path class="h" d="M273.946,406.728a3.078,3.078,0,1,0-3.078,3.078,3.078,3.078,0,0,0,3.078-3.078Z" transform="translate(-209.963 -223.137)"/><path class="h" d="M339.786,406.728a3.078,3.078,0,1,0-3.078,3.078,3.078,3.078,0,0,0,3.078-3.078Z" transform="translate(-233.932 -223.137)"/><path class="h" d="M313.921,404.774a1.081,1.081,0,0,1-.9-.483,9.177,9.177,0,0,0-7.7-4.146h-24.8a9.177,9.177,0,0,0-7.7,4.146,1.075,1.075,0,0,1-1.793-1.183,11.333,11.333,0,0,1,9.488-5.088h24.8a11.333,11.333,0,0,1,9.508,5.075,1.075,1.075,0,0,1-.9,1.666Z" transform="translate(-211.088 -221.088)"/><path class="h" d="M309.433,407.609a1.088,1.088,0,0,1-1.024-.744c-.776-2.359-2.06-3.892-3.275-3.892h-12.4c-1.215,0-2.5,1.533-3.275,3.892a1.075,1.075,0,0,1-2.041-.668c1.107-3.364,3.091-5.367,5.317-5.367h12.4c2.226,0,4.21,2,5.317,5.367a1.075,1.075,0,0,1-.687,1.355A1.006,1.006,0,0,1,309.433,407.609Z" transform="translate(-217.093 -222.111)"/><path class="h" d="M290.356,409.578a3.078,3.078,0,1,0-3.078,3.078,3.078,3.078,0,0,0,3.078-3.078Z" transform="translate(-215.937 -224.175)"/><path class="h" d="M323.376,409.578a3.078,3.078,0,1,0-3.078,3.078,3.078,3.078,0,0,0,3.078-3.078Z" transform="translate(-227.958 -224.175)"/><path class="j" d="M198.843,344.92l10.83,4.7-6.207,7.244-9.056-3.924Z" transform="translate(-183.249 -201.757)"/><path class="k" d="M199.967,344.92l10.83,4.706-3.479,4.057-9.838-4.267Z" transform="translate(-184.367 -201.757)"/><path class="h" d="M198.616,364.629l-1.221-.28a2.245,2.245,0,0,1-1.6-1.38h0l-.782.362a2.232,2.232,0,0,1-1.45.159l-16.706-3.816a6.7,6.7,0,0,1,1.367-3.18s7.434,1.272,9.584-.5a.553.553,0,0,1,.585-.032c1.348.636,6.665,2.932,10.074,2.607a.68.68,0,0,1,.719.82,36.421,36.421,0,0,0-.572,5.24Z" transform="translate(-176.86 -205.751)"/><path class="h" d="M193.484,354.68a.172.172,0,0,1-.127-.057c-.07-.076-1.768-1.908-1.717-2.944a.757.757,0,0,1,.254-.547.585.585,0,0,1,.68-.108c.731.369,1.189,2.41,1.094,3.5a.191.191,0,0,1-.121.153Zm-1.17-3.364a.267.267,0,0,0-.184.089.363.363,0,0,0-.127.293,4.9,4.9,0,0,0,1.316,2.347c-.038-1.049-.439-2.467-.9-2.7A.268.268,0,0,0,192.313,351.316Z" transform="translate(-182.24 -203.955)"/><path class="h" d="M191.124,355.972a3.676,3.676,0,0,1-2.048-.426.731.731,0,0,1-.293-.522.585.585,0,0,1,.312-.636c.725-.369,2.646.464,3.466,1.183a.178.178,0,0,1-.1.312A12.267,12.267,0,0,1,191.124,355.972Zm-1.571-1.31a.769.769,0,0,0-.318.057c-.064.038-.134.1-.114.273a.4.4,0,0,0,.159.273,5.009,5.009,0,0,0,2.677.318,5.355,5.355,0,0,0-2.4-.922Z" transform="translate(-181.197 -205.171)"/><path class="g" d="M297.055,282.239l-4.662,9.711c-6.843,14.334-23.7,21.54-37.165,15.9-7.86-3.294-16.439-10.258-22.258-13.444-4.992,10.945-14.341,23.015-21.5,31.416L197,318.539c5.406-12.407,13.819-31.8,19.161-44.364a12.891,12.891,0,0,1,11.25-7.816C251.476,265.711,297.055,282.239,297.055,282.239Z" transform="translate(-184.192 -173.15)"/><path class="l" d="M327.481,133.153c-2.716-.9-5.813.827-5.851,6.894s5.476,9.317,7.8,1.475C330.832,136.79,329.5,133.808,327.481,133.153Z" transform="translate(-229.563 -124.583)"/><path class="j" d="M243.469,394.553,255.259,394l-2.372,9.234-9.857.471Z" transform="translate(-200.949 -219.624)"/><path class="k" d="M243.588,394.553,255.379,394l-1.329,5.177-10.709.509Z" transform="translate(-201.062 -219.624)"/><path class="h" d="M248.567,412.619h-1.272a2.232,2.232,0,0,1-1.857-1h0l-.68.534a2.264,2.264,0,0,1-1.38.471h-17.12a6.576,6.576,0,0,1,.636-3.39s7.53-.4,9.228-2.607a.56.56,0,0,1,.547-.223c1.456.305,7.154,1.386,10.4.312a.674.674,0,0,1,.878.636,36.658,36.658,0,0,0,.617,5.266Z" transform="translate(-194.822 -224.137)"/><path class="h" d="M240.951,405.411a.152.152,0,0,1-.1-.032c-.089-.057-2.143-1.444-2.328-2.493a.744.744,0,0,1,.127-.585.585.585,0,0,1,.636-.261c.789.2,1.692,2.086,1.838,3.18a.184.184,0,0,1-.089.178.146.146,0,0,1-.083.013Zm-1.812-3.033a.267.267,0,0,0-.2.134.388.388,0,0,0-.057.318c.108.636,1.132,1.495,1.806,2-.267-1.018-.979-2.309-1.482-2.436Z" transform="translate(-199.302 -222.545)"/><path class="h" d="M237.642,407.338a1.8,1.8,0,0,1-.776-.14.744.744,0,0,1-.4-.445.6.6,0,0,1,.165-.674c.636-.521,2.684-.134,3.644.382a.2.2,0,0,1,.1.172.172.172,0,0,1-.121.153,9.188,9.188,0,0,1-2.607.553Zm0-1.157a1.348,1.348,0,0,0-.776.172c-.057.051-.108.121-.057.293a.394.394,0,0,0,.223.229,4.955,4.955,0,0,0,2.677-.28,6.2,6.2,0,0,0-2.073-.413Z" transform="translate(-198.544 -223.931)"/><path class="g" d="M318.862,285.29l-.076,10.258c-.121,15.129-12.948,28.618-28.262,29.775-8.941.636-21.025.865-27.982.725-1.011,10.595-4.324,23.079-7.631,32.122l-15.059-1.049c-.394-12.84-.973-31.047-1.456-43.124a12.674,12.674,0,0,1,7.218-11.549C268.158,291.332,318.862,285.29,318.862,285.29Z" transform="translate(-199.258 -180.049)"/><path class="m" d="M259.068,357.172a.28.28,0,0,1-.1,0,.356.356,0,0,1-.235-.445c2.277-7.485,6.359-30.85,6.557-41.579a.394.394,0,0,1,.127-.267.369.369,0,0,1,.28-.083c22,2.925,36.885,1.908,43.086-2.874,10.868-8.445,10.709-22.118,7.956-29.254a.358.358,0,1,1,.668-.261c2.83,7.326,2.989,21.381-8.185,30.068-6.4,4.967-20.936,6-43.245,3.072-.273,10.945-4.324,33.947-6.582,41.369a.35.35,0,0,1-.324.254Z" transform="translate(-206.659 -178.917)"/><path class="k" d="M247.514,312.443a108.442,108.442,0,0,1-8.954,14.843c.076,2.118.159,4.363.242,6.7,5.329-8.414,8.719-21.552,8.719-21.552Z" transform="translate(-199.322 -189.929)"/><path class="j" d="M279.005,197.531l-.566.363-.458.28-.89.515c-.591.337-1.183.636-1.768.928-1.177.6-2.385,1.113-3.612,1.6a43.279,43.279,0,0,1-7.7,2.251c-1.342.261-2.722.445-4.121.579a35.772,35.772,0,0,1-4.3.07,29.345,29.345,0,0,1-4.42-.515,28.216,28.216,0,0,1-4.4-1.272l-.585-.216a6.149,6.149,0,0,1-2.334-1.533,14.112,14.112,0,0,1-3.1-5.088,17.457,17.457,0,0,1-.935-4.655,26.648,26.648,0,0,1,.636-7.631,41.466,41.466,0,0,1,2.048-6.48c.42-1.024.878-2.022,1.361-3l.757-1.463c.28-.49.534-.928.859-1.482a4.127,4.127,0,0,1,7.676,2.169v.636c0,.388-.064.9-.089,1.361l-.108,1.418c-.076.941-.121,1.908-.165,2.811s-.064,1.844-.07,2.735,0,1.774.057,2.614a17.611,17.611,0,0,0,.68,4.375,3.384,3.384,0,0,0,.572,1.145c.178.184.261.1.165-.114l-2.919-1.749a17.094,17.094,0,0,0,4.35.223,19.77,19.77,0,0,0,2.372-.318c.808-.14,1.634-.312,2.467-.541s1.666-.5,2.512-.776,1.685-.636,2.544-.967,1.673-.731,2.506-1.113c.407-.191.814-.394,1.2-.591l.572-.293.267-.134c.057-.032.191-.108.146-.07a8.236,8.236,0,1,1,8.8,13.927Z" transform="translate(-199.759 -137.627)"/><path class="j" d="M249.006,171.533l4.744.223c4.751-1.545,1.7-7.307,1.7-7.307l-.35-3.358a2.544,2.544,0,0,0-2.493-2.1l-3.313-.184a2.624,2.624,0,0,0-2.9,2.239l-.184,2.938a5.24,5.24,0,0,0,.464,2.493Z" transform="translate(-202.105 -134.001)"/><path class="f" d="M295.95,180.218c-2-2.684-8.5-2.054-12.248,2.188-1.552-.064-7.631,5.437-12.287,6.614s-8.013,6.8-6.716,9.978c2.4,5.857,4.026,8.662,8.356,9.132s10.029-2.334,14.627-5.774S299.486,184.981,295.95,180.218Z" transform="translate(-208.735 -141.211)"/><path class="n" d="M268.174,194.4c-3.619-2.328-7.174,1.577-7.174,6.487a23.317,23.317,0,0,0,2.913,11.975c1.762,2.881,4.871,2.639,7.771,2.506,2.506-.121,3.739-1.024,2.544-3.3s-5.6-5.571-6.258-11.969C267.608,196.866,269.846,195.479,268.174,194.4Z" transform="translate(-207.491 -146.711)"/><path class="n" d="M270.382,266.35c-.776.8-1.336,3.9.242,8.554,1.087,3.224,5.367,1.615,5.367,1.615s.75,5.844,6.08,7.1c8.783,2.06,41.909,1.507,47.538-2.862C311.954,280.57,270.382,266.35,270.382,266.35Z" transform="translate(-210.628 -173.154)"/><path class="h" d="M299.643,177.78a142.651,142.651,0,0,1,25.826,2.506,10.55,10.55,0,0,1,8.032,13.056c-6.36,24.223-2.773,50.825-3.275,55.678,0,0-50.832,7.32-58.622-7.79-10.461-17.094,7.345-28.262,13.431-52.275A15.485,15.485,0,0,1,299.643,177.78Z" transform="translate(-210.177 -140.91)"/><path class="o" d="M299.643,177.78a142.651,142.651,0,0,1,25.826,2.506,10.55,10.55,0,0,1,8.032,13.056c-6.36,24.223-2.773,50.825-3.275,55.678,0,0-50.832,7.32-58.622-7.79-10.461-17.094,7.345-28.262,13.431-52.275A15.485,15.485,0,0,1,299.643,177.78Z" transform="translate(-210.177 -140.91)"/><path class="p" d="M332.87,178.909l-.089-.038-.28-.1-.076.057c-4.267-.509-8.713-.839-12.954-.973-1.037-.038-2.06-.057-3.065-.07a6.487,6.487,0,0,0-2.887,3.364c-1.272,3.218-.369,6.8,2.5,9.59l.235.229.337-.032c6.232-.6,17.883-5.6,18.373-9.444C335.045,180.849,334.879,179.641,332.87,178.909Z" transform="translate(-226.405 -140.914)"/><path class="j" d="M356.746,205.055l.464.89.413.814c.273.541.515,1.081.77,1.622.5,1.075.948,2.162,1.4,3.256.865,2.188,1.673,4.407,2.347,6.684.35,1.132.636,2.277.979,3.434s.553,2.328.795,3.517a63.991,63.991,0,0,1,1.094,7.263l.064.636a6.646,6.646,0,0,1-.331,2.779,11.937,11.937,0,0,1-2.188,3.816,12.483,12.483,0,0,1-2.83,2.455,16.662,16.662,0,0,1-5.183,2.124,29.814,29.814,0,0,1-8.388.636,51.2,51.2,0,0,1-7.415-.979c-1.2-.235-2.372-.528-3.542-.839s-2.289-.636-3.523-1.094a4.146,4.146,0,0,1,1.03-8.038h.242l3.18-.267c1.087-.076,2.162-.184,3.224-.293s2.118-.229,3.148-.362,2.035-.293,3.008-.483a21.622,21.622,0,0,0,5-1.437c.585-.286,1-.636.96-.706s-.153,0-.35.165a2.62,2.62,0,0,0-.572.833l-.267,3.4c-.477-1.857-.979-3.714-1.59-5.59-.3-.935-.636-1.908-.973-2.811s-.636-1.908-1.03-2.817c-.738-1.87-1.469-3.752-2.264-5.615l-1.2-2.779-1.157-2.614-.146-.343a8.229,8.229,0,0,1,14.8-7.161Z" transform="translate(-232.214 -149.285)"/><rect class="g" width="11.244" height="14.004" rx="1.38" transform="translate(75.634 79.186)"/><path class="g" d="M308.753,247.86a4.293,4.293,0,1,1,0,8.579H308.7a4.293,4.293,0,1,1,0-8.579h.076m0-1.272H308.7a5.584,5.584,0,1,0,0,11.161h.076a5.584,5.584,0,1,0,0-11.161Z" transform="translate(-222.753 -165.958)"/><path class="j" d="M328.23,253.693l-.038,3c-1.825,4.649-7.4,1.272-7.4,1.272l-3.332-.547a2.544,2.544,0,0,1-1.946-2.614v-3.32a2.633,2.633,0,0,1,2.4-2.766h2.989a5.19,5.19,0,0,1,2.455.636l3.364,1.793A2.875,2.875,0,0,1,328.23,253.693Z" transform="translate(-227.336 -166.736)"/><path class="f" d="M356.114,185.638c3.294-.636,7.631,4.242,7.542,9.908,1.183,1,3.231,9.323,5.851,13.355s1.272,10.43-1.806,11.886c-5.724,2.69-8.827,3.657-12.337,1.075a22.758,22.758,0,0,1-8.128-14.3C346.41,199.2,350.27,186.738,356.114,185.638Z" transform="translate(-238.844 -143.75)"/><path class="n" d="M353.813,233.056c-2.086,3.765,2.041,7.065,6.913,6.779a23.1,23.1,0,0,0,11.759-3.689c2.766-1.946,2.321-5.024,1.991-7.918-.28-2.493-1.272-3.663-3.453-2.321s-5.2,5.953-11.536,7C356.306,233.463,354.773,231.32,353.813,233.056Z" transform="translate(-241.077 -158.226)"/><path class="j" d="M315.6,176.4a6.627,6.627,0,0,1,3.345-2.8,6.162,6.162,0,0,0,.356-4.108l15.721-3.968c-1.558,5.024-2.779,8.992-1.037,11.581-3.142,1.666-8.9,4.649-14.945,4.108S314.486,178.484,315.6,176.4Z" transform="translate(-226.998 -136.45)"/><path class="k" d="M322.023,172.53l11.612.032c-3.854,3.644-9.431,4.763-11.835,3.04a6.188,6.188,0,0,0,.223-3.072Z" transform="translate(-229.625 -138.999)"/><path class="j" d="M339.312,145.8c-2.239,7.065-3.911,11.81-8.833,13.8-9.775,3.943-13.762-1.208-13.679-8.814.076-6.849,3.727-17.247,11.447-18.277A10.213,10.213,0,0,1,339.312,145.8Z" transform="translate(-227.804 -124.396)"/><path class="l" d="M343.617,154.08c-2.906-1.272-2.029-2.156-2.029-2.156s2.353-2.62,2.728-4.146-1.908-4.789-1.1-6.5,9.342-2.544,12.961,1.825a11.974,11.974,0,0,1-2.582.28,5.393,5.393,0,0,1,.833,6.029C352.762,152.929,346.715,155.473,343.617,154.08Z" transform="translate(-236.784 -127.118)"/><path class="h" d="M320,163.36l7.511.114s-1.062,1.812-4.216,2.092S320,163.36,320,163.36Z" transform="translate(-228.97 -135.661)"/><path class="e" d="M320.24,163.36c.235.483.948,1.208,3.1,1.018a8.725,8.725,0,0,0,3.377-.916C325.391,163.449,322.727,163.4,320.24,163.36Z" transform="translate(-229.057 -135.661)"/><path class="k" d="M336.84,151.9a3.4,3.4,0,0,1,2.544.509,6.779,6.779,0,0,1-2.544-.509Z" transform="translate(-235.1 -131.466)"/><path class="k" d="M336.71,152.91a2.817,2.817,0,0,1,2.13,1.024A5.6,5.6,0,0,1,336.71,152.91Z" transform="translate(-235.053 -131.856)"/><path class="k" d="M320.7,147.884s-.49-.795-.992-.477a1.437,1.437,0,0,0,.992.477Z" transform="translate(-228.864 -129.826)"/><path class="k" d="M320.545,148.86s-.388-.712-.795-.153a.687.687,0,0,0,.795.153Z" transform="translate(-228.879 -130.248)"/><path class="k" d="M327.41,138.6a20.878,20.878,0,0,1,6.449,1.081A58,58,0,0,1,327.41,138.6Z" transform="translate(-231.667 -126.647)"/><path class="k" d="M325.82,140.16s4.973.56,7.269,2.054A40.865,40.865,0,0,1,325.82,140.16Z" transform="translate(-231.088 -127.215)"/><path class="j" d="M349.438,162.1a7,7,0,0,1-4.712,2.544c-2.461.235-3.275-2.073-2.245-4.165.922-1.908,3.32-4.28,5.615-3.542A3.185,3.185,0,0,1,349.438,162.1Z" transform="translate(-236.995 -133.273)"/><path class="h" d="M332.882,151.064c-.146.585-.572.979-.954.884s-.572-.636-.426-1.24.572-.979.954-.878S333.028,150.486,332.882,151.064Z" transform="translate(-233.139 -130.729)"/><path class="h" d="M323.112,148.754c-.146.585-.572.979-.954.878s-.572-.636-.426-1.234.572-.979.954-.878S323.258,148.169,323.112,148.754Z" transform="translate(-229.582 -129.888)"/><path class="q" d="M324.566,151l-1.215,4.916a4.146,4.146,0,0,1-2.881-1.138A10.664,10.664,0,0,1,324.566,151Z" transform="translate(-229.141 -131.161)"/><path class="l" d="M336.051,148.032a.324.324,0,0,0,.172,0,.35.35,0,0,0,.191-.464,3.555,3.555,0,0,0-2.436-2.143.356.356,0,1,0-.127.7h0a2.855,2.855,0,0,1,1.908,1.717.35.35,0,0,0,.293.191Z" transform="translate(-233.898 -129.127)"/><path class="l" d="M319.19,144.44a.356.356,0,0,0,.324-.083,2.817,2.817,0,0,1,2.429-.782.343.343,0,0,0,.42-.261.356.356,0,0,0-.261-.426,3.491,3.491,0,0,0-3.072.948.356.356,0,0,0,0,.5A.363.363,0,0,0,319.19,144.44Z" transform="translate(-228.579 -128.187)"/><path class="j" d="M257.878,174.286c3.466-2.15,3.11-5.8,3.72-8.706.108-.5-1.024-1.221-1.692-.6a4.21,4.21,0,0,0-1.577,2.875c-1.272.191-4.509,1.946-4,5.514A5.164,5.164,0,0,0,257.878,174.286Z" transform="translate(-205.043 -136.163)"/><path class="n" d="M316.923,190.384c8.267-.808,22.583-8.267,16.109-10.646-4.076,3.237-10.926,4.528-14.15,4.534a5.087,5.087,0,0,1-.127-6.048C315.378,177.939,311.136,184.756,316.923,190.384Z" transform="translate(-226.809 -141.069)"/><path class="f" d="M321.64,183.71c3-2.067,12.509-7.085,15.174-7.04a6.467,6.467,0,0,1,.146,3.18S333.45,183.691,321.64,183.71Z" transform="translate(-229.567 -140.506)"/><path class="f" d="M320.479,183.248s.464-6.48-.121-7.848a3.065,3.065,0,0,0-1.908,2.334S319.073,182.256,320.479,183.248Z" transform="translate(-228.405 -140.044)"/><path class="l" d="M343.81,133.773c-4.305.515-17.063-.687-21.234-5.495s-1.132-8.07,3.332-5.291c0,0-2.964-4.032,1.8-3.021,4.5.954,9.819,8.763,16.579,8.433C350.042,128.113,348.064,133.284,343.81,133.773Z" transform="translate(-229.186 -119.804)"/><path class="h" d="M350.193,165.024c-2,1.622-4.642,1.679-5.9.134s-.636-4.115,1.355-5.724,4.642-1.679,5.9-.134S352.19,163.4,350.193,165.024Z" transform="translate(-237.579 -133.776)"/><path class="h" d="M327.376,171.389a1.31,1.31,0,1,1,1.768-1.087A1.488,1.488,0,0,1,327.376,171.389Z" transform="translate(-231.347 -137.661)"/><path class="h" d="M351.413,150.353a.725.725,0,0,1-.572-.286.712.712,0,0,1,.134-1c1.609-1.227,2.588-4.28,2.448-7.631-.089-2.124-.833-7.409-5.724-10.531a.715.715,0,1,1,.763-1.208,14.25,14.25,0,0,1,6.4,11.682c.159,3.816-1.018,7.275-3.008,8.8a.706.706,0,0,1-.439.178Z" transform="translate(-238.932 -123.365)"/><path class="h" d="M331.462,171.037a23.833,23.833,0,0,1-3.123-.21.356.356,0,0,1-.312-.4.362.362,0,0,1,.4-.305c7.631,1,12.191-2.137,12.236-2.169a.358.358,0,0,1,.413.585A17.441,17.441,0,0,1,331.462,171.037Z" transform="translate(-231.891 -137.308)"/></g><g transform="translate(65.484 135.893)"><rect class="g" width="182.099" height="4.954" transform="translate(2.245 53.515)"/><rect class="r" width="182.099" height="4.954" transform="translate(2.245 53.515)"/><rect class="r" width="41.464" height="4.954" transform="translate(142.88 53.515)"/><rect class="e" width="0.725" height="4.954" transform="translate(142.873 58.463) rotate(180)"/><path class="g" d="M364.635,274.14l5.495,92.232h-2.181l-6.595-88.938H332.64l-6.589,88.938H323.87l5.488-92.232Z" transform="translate(-183.388 -215.67)"/><path class="r" d="M364.635,274.14l5.495,92.232h-2.181l-6.595-88.938H332.64l-6.589,88.938H323.87l5.488-92.232Z" transform="translate(-183.388 -215.67)"/><path class="g" d="M143.735,274.14l5.495,92.232h-2.181l-6.588-88.938H111.74l-6.588,88.938H102.97l5.495-92.232Z" transform="translate(-102.97 -215.67)"/><path class="i" d="M143.735,274.14l5.495,92.232h-2.181l-6.588-88.938H111.74l-6.588,88.938H102.97l5.495-92.232Z" transform="translate(-102.97 -215.67)"/><path class="g" d="M194.084,222.882H127.016L120.93,182.2H188Z" transform="translate(-109.508 -182.2)"/><path class="s" d="M177.25,235.438h9.228l-2.207-18.748-2.849,7.9Z" transform="translate(-130.011 -194.756)"/><path class="s" d="M232.039,222.882h-.77L225.19,182.2h.77Z" transform="translate(-147.464 -182.2)"/><path class="g" d="M187.262,263.64H169.01v1.723h19.829Z" transform="translate(-127.012 -211.848)"/><path class="s" d="M187.262,263.64H169.01v1.723h19.829Z" transform="translate(-127.012 -211.848)"/><path class="g" d="M169.188,227.27l-.254,1.876h-.763a1.6,1.6,0,0,0-1.577,1.335l-1.571,9.584a1.6,1.6,0,0,0,1.571,1.857h.636v.77H163V227.27Z" transform="translate(-124.824 -198.608)"/><path class="s" d="M169.188,227.27l-.254,1.876h-.763a1.6,1.6,0,0,0-1.577,1.335l-1.571,9.584a1.6,1.6,0,0,0,1.571,1.857h.636v.77H163V227.27Z" transform="translate(-124.824 -198.608)"/><path class="g" d="M159.88,214.19l-5.45,33.171h16.834l5.45-33.171Zm9.329,12.051-1.577,9.577a1.6,1.6,0,0,1-1.571,1.342h-3.25a1.6,1.6,0,0,1-1.577-1.857l1.577-9.584a1.6,1.6,0,0,1,1.577-1.335h3.243a1.6,1.6,0,0,1,1.6,1.857Z" transform="translate(-121.704 -193.846)"/><path class="s" d="M180.464,247.361l-.814-.108,5.431-33.063h.833Z" transform="translate(-130.885 -193.846)"/><path class="s" d="M176.019,196.548h-.973l-1.266-8.458h.973Z" transform="translate(-128.748 -184.344)"/><path class="s" d="M178.869,196.548h-.979l-1.259-8.458h.973Z" transform="translate(-129.786 -184.344)"/><path class="s" d="M181.715,196.548h-.979l-1.266-8.458h.979Z" transform="translate(-130.82 -184.344)"/><path class="s" d="M184.565,196.548h-.979l-1.266-8.458h.979Z" transform="translate(-131.857 -184.344)"/><path class="s" d="M187.409,196.548h-.973l-1.266-8.458h.979Z" transform="translate(-132.895 -184.344)"/><path class="s" d="M173.169,196.548H172.2l-1.266-8.458h.973Z" transform="translate(-127.711 -184.344)"/><path class="s" d="M170.319,196.548h-.973l-1.266-8.458h.979Z" transform="translate(-126.673 -184.344)"/><path class="s" d="M167.469,196.548H166.5l-1.266-8.458h.979Z" transform="translate(-125.636 -184.344)"/><path class="s" d="M164.625,196.548h-.979l-1.266-8.458h.979Z" transform="translate(-124.598 -184.344)"/></g></g></svg>