<svg xmlns="http://www.w3.org/2000/svg" xmlns:xlink="http://www.w3.org/1999/xlink" width="114" height="104" viewBox="0 0 114 104"><defs><style>.a{fill:#fff;}.b{clip-path:url(#c);}.c{fill:#ebebeb;}.d{fill:#e0e0e0;}.e{fill:#f5f5f5;}.f{fill:#fafafa;}.g{fill:#263238;}.h{fill:#455a64;}.i{fill:#b24bf3;}.j{opacity:0.3;}.k{fill:#ffbe9d;}.l{fill:#eb996e;}.m{fill:#b78876;}.n{fill:#aa6550;}.o{opacity:0.6;}.p{filter:url(#a);}</style><filter id="a" x="-22.5" y="-19.5" width="159" height="149" filterUnits="userSpaceOnUse"><feOffset dy="3" input="SourceAlpha"/><feGaussianBlur stdDeviation="7.5" result="b"/><feFlood flood-color="#51087e" flood-opacity="0.051"/><feComposite operator="in" in2="b"/><feComposite in="SourceGraphic"/></filter><clipPath id="c"><g class="p" transform="matrix(1, 0, 0, 1, 0, 0)"><rect class="a" width="114" height="104" rx="5" transform="translate(36 250)"/></g></clipPath></defs><g class="b" transform="translate(-36 -250)"><g transform="translate(14.727 226.165)"><g transform="translate(26.825 31.73)"><path class="c" d="M412.382,260.628s-2.071-.149-1.88,4.494a53.978,53.978,0,0,0,.664,7.119s-.06,1.03-.86.826-2.3-1.2-3.038-.455-.494,1.969.523,3.373,3.137,4.562,3.328,4.847.261.808-.3.758-4.382-1.344-4.889.5,2.975,5.3,3.349,5.676.392.625.243.858-1.394-.324-2.494-.646-2.434-.507-2.635.583,1.331,4.283,7.075,7.637l2.764,1.388,2.615-1.668c5.381-3.922,6.589-7.24,6.275-8.3s-1.618-.75-2.68-.319-2.243,1.109-2.418.894-.178-.46.157-.878,3.454-4.183,2.766-5.982-4.356-.12-4.913,0-.536-.424-.379-.722,1.956-3.66,2.829-5.156,1.027-2.711.186-3.4-2.207.476-2.978.758-.939-.737-.939-.737a53.751,53.751,0,0,0-.05-7.151c-.275-4.641-2.369-4.264-2.369-4.264" transform="translate(-309.796 -200.782)"/><path class="d" d="M435.6,276.54v.1c0,.065.013.162.024.285.018.261.042.625.073,1.1.065.954.146,2.332.241,4.037.188,3.4.41,8.118.638,13.334s.437,9.914.607,13.334c.086,1.7.157,3.08.207,4.039.024.471.042.842.052,1.1a1.762,1.762,0,0,0,.013.288.913.913,0,0,1,0,.1v-.1c0-.063-.013-.165-.024-.285-.016-.261-.042-.625-.073-1.1-.063-.952-.146-2.33-.241-4.034-.188-3.4-.41-8.121-.638-13.334s-.437-9.914-.607-13.334c-.086-1.7-.157-3.077-.2-4.037-.023-.473-.042-.842-.055-1.1v-.285Z" transform="translate(-332.857 -212.534)"/><path class="d" d="M423.23,312.16a.8.8,0,0,1,.173.141c.107.1.261.243.439.424.363.361.855.873,1.386,1.448l1.352,1.477.41.447a.938.938,0,0,1,.144.17.888.888,0,0,1-.173-.141c-.107-.1-.261-.241-.437-.424-.361-.366-.844-.884-1.375-1.459l-1.362-1.469-.413-.442A1,1,0,0,1,423.23,312.16Z" transform="translate(-323.721 -238.841)"/><path class="d" d="M439.209,314.41c-.021-.018.988-1.077,2.256-2.353s2.311-2.309,2.332-2.288-.988,1.077-2.256,2.353S439.23,314.431,439.209,314.41Z" transform="translate(-335.522 -237.075)"/><path class="d" d="M439.17,349.62a.969.969,0,0,1,.191-.123l.541-.3c.455-.261,1.085-.612,1.765-1.03s1.284-.813,1.718-1.1l.523-.345a.831.831,0,0,1,.2-.115,1,1,0,0,1-.173.149c-.115.092-.282.217-.5.371-.424.309-1.022.716-1.7,1.135s-1.307.766-1.786,1c-.233.12-.424.214-.557.275A.8.8,0,0,1,439.17,349.62Z" transform="translate(-335.494 -264.276)"/><path class="d" d="M421.659,347.43a.9.9,0,0,1,.191.091c.118.063.29.157.5.277.421.241,1,.575,1.634.954s1.205.724,1.616.978c.207.128.371.233.484.309s.175.118.17.126a.9.9,0,0,1-.191-.092c-.12-.063-.29-.157-.5-.277-.421-.241-1-.575-1.634-.954s-1.205-.724-1.616-.978c-.207-.128-.371-.233-.484-.309S421.654,347.438,421.659,347.43Z" transform="translate(-322.561 -264.889)"/><path class="d" d="M418.18,374.47a1.017,1.017,0,0,1,.243.118l.643.353c.541.3,1.284.729,2.092,1.205s1.556.912,2.092,1.231l.627.384a1.343,1.343,0,0,1,.222.154,1.367,1.367,0,0,1-.243-.118l-.643-.356c-.541-.3-1.284-.729-2.092-1.205s-1.569-.91-2.092-1.231l-.628-.384A1.463,1.463,0,0,1,418.18,374.47Z" transform="translate(-319.991 -284.86)"/><path class="d" d="M440.38,375.873a1.812,1.812,0,0,1,.241-.159l.672-.41c.567-.345,1.349-.824,2.2-1.378s1.605-1.072,2.149-1.451l.646-.45a1.57,1.57,0,0,1,.246-.154,1.828,1.828,0,0,1-.22.188c-.146.115-.361.28-.628.476-.523.395-1.284.926-2.136,1.48s-1.639,1.025-2.215,1.354c-.29.162-.523.293-.69.379A1.615,1.615,0,0,1,440.38,375.873Z" transform="translate(-336.387 -282.94)"/><path class="d" d="M434.675,405.42H427.03l2.494,18.887h2.656Z" transform="translate(-326.528 -307.718)"/><path class="e" d="M428.55,412.119s0,.026.039.068a.523.523,0,0,0,.186.131.926.926,0,0,0,.808-.1,5.967,5.967,0,0,1,.991-.651,2.178,2.178,0,0,1,1.4.026,6.037,6.037,0,0,1,1.307.635,9.373,9.373,0,0,0,1.064.573,2.892,2.892,0,0,0,.784.225,1.266,1.266,0,0,0,.22.016.262.262,0,0,0,.078,0,4.056,4.056,0,0,1-1.046-.316,10.187,10.187,0,0,1-1.046-.591,5.9,5.9,0,0,0-1.331-.654,2.246,2.246,0,0,0-1.485-.016,1.949,1.949,0,0,0-.549.34,4.443,4.443,0,0,1-.437.34.9.9,0,0,1-.745.128A.7.7,0,0,1,428.55,412.119Z" transform="translate(-327.65 -312.095)"/><path class="e" d="M429.61,423.7s.06-.078.18-.2a1.724,1.724,0,0,1,.612-.387,2.712,2.712,0,0,1,1.061-.159,11.178,11.178,0,0,1,1.331.18,4.573,4.573,0,0,0,1.362.057,3.808,3.808,0,0,0,1.072-.306,3.443,3.443,0,0,0,.646-.384,1.058,1.058,0,0,0,.2-.183,7.237,7.237,0,0,1-.884.486,3.989,3.989,0,0,1-1.046.261,4.737,4.737,0,0,1-1.328-.065,10.054,10.054,0,0,0-1.346-.173,2.686,2.686,0,0,0-1.1.193,1.613,1.613,0,0,0-.614.437,1.145,1.145,0,0,0-.115.167A.224.224,0,0,0,429.61,423.7Z" transform="translate(-328.433 -320.192)"/><path class="e" d="M436.981,433.246a.633.633,0,0,0-.212-.11,2.353,2.353,0,0,0-.633-.136,4.183,4.183,0,0,0-.96.055c-.356.057-.737.157-1.14.241a4.706,4.706,0,0,1-1.137.131,2.5,2.5,0,0,1-.9-.2,2.121,2.121,0,0,1-.685-.51.564.564,0,0,0,.128.2,1.637,1.637,0,0,0,.523.39,2.447,2.447,0,0,0,.936.233,4.622,4.622,0,0,0,1.169-.123c.405-.086.784-.188,1.135-.261a4.415,4.415,0,0,1,.933-.078A3.61,3.61,0,0,1,436.981,433.246Z" transform="translate(-329.689 -327.88)"/><path class="e" d="M432.2,443.494a1.25,1.25,0,0,1,.743-.076,3.659,3.659,0,0,1,.784.29,2.973,2.973,0,0,0,1.007.277,3.022,3.022,0,0,0,1.83-.424,2.565,2.565,0,0,0,.455-.35c.092-.1.139-.154.133-.162a6.258,6.258,0,0,1-.633.437,3.137,3.137,0,0,1-1.775.376,16.428,16.428,0,0,1-1.781-.523,1.122,1.122,0,0,0-.575.05C432.249,443.432,432.194,443.489,432.2,443.494Z" transform="translate(-330.345 -335.509)"/><path class="e" d="M433.83,455.634a1.433,1.433,0,0,0,.635-.126c.384-.128.86-.424,1.417-.643a2.243,2.243,0,0,1,.811-.17,1.472,1.472,0,0,1,.654.149,1.453,1.453,0,0,1,.473.408.356.356,0,0,0-.073-.162,1.03,1.03,0,0,0-.358-.324,1.493,1.493,0,0,0-.693-.186,2.273,2.273,0,0,0-.858.167c-.575.23-1.046.523-1.4.68S433.825,455.615,433.83,455.634Z" transform="translate(-331.549 -344.025)"/><path class="e" d="M435.26,465.056a1.755,1.755,0,0,0,.484.157,8.728,8.728,0,0,0,1.211.2,8.546,8.546,0,0,0,1.226.034,1.6,1.6,0,0,0,.5-.06c0-.037-.784,0-1.72-.1S435.268,465.019,435.26,465.056Z" transform="translate(-332.606 -351.758)"/><rect class="f" width="23.743" height="30.564" transform="translate(82.271)"/><path class="c" d="M379.659,48.919a.348.348,0,0,1-.044.063l-.136.17a2.947,2.947,0,0,0-.209.282,4.394,4.394,0,0,0-.261.405,6.857,6.857,0,0,0-.562,1.192,9.976,9.976,0,0,0-.437,1.692,18.66,18.66,0,0,0-.22,2.11c-.044.763-.047,1.569-.089,2.442a18,18,0,0,1-.29,2.693,10.5,10.5,0,0,1-.379,1.386,7.3,7.3,0,0,1-.648,1.333,6.22,6.22,0,0,1-2.092,2.008,11.242,11.242,0,0,1-2.5,1.046c-.826.261-1.626.429-2.374.6s-1.438.335-2.06.523a13.415,13.415,0,0,0-1.647.593,8.348,8.348,0,0,0-1.161.627c-.152.1-.285.188-.395.275s-.207.154-.28.22l-.167.139a.292.292,0,0,1-.06.044.306.306,0,0,1,.052-.055l.159-.149a3.145,3.145,0,0,1,.261-.23,4.815,4.815,0,0,1,.392-.288,7.754,7.754,0,0,1,1.158-.651,12.372,12.372,0,0,1,1.65-.617c.625-.191,1.32-.361,2.065-.523s1.543-.356,2.353-.609a11.284,11.284,0,0,0,2.465-1.046,6.134,6.134,0,0,0,2.05-1.969,7.014,7.014,0,0,0,.635-1.307,10.5,10.5,0,0,0,.376-1.365,18.739,18.739,0,0,0,.3-2.672c.042-.858.05-1.676.1-2.442a18.077,18.077,0,0,1,.238-2.12,9.491,9.491,0,0,1,.478-1.713,6.536,6.536,0,0,1,.586-1.195,3.879,3.879,0,0,1,.275-.4,2.683,2.683,0,0,1,.222-.277l.146-.162C379.638,48.94,379.656,48.917,379.659,48.919Z" transform="translate(-279.718 -44.425)"/><path class="c" d="M395.9,62.719a.7.7,0,0,1-.029.068l-.1.2a4.243,4.243,0,0,1-.478.693,5.309,5.309,0,0,1-.986.9,7.485,7.485,0,0,1-1.553.844,13.106,13.106,0,0,1-2.05.617c-.75.175-1.569.319-2.395.523a11.384,11.384,0,0,0-2.552.858,5.574,5.574,0,0,0-2.186,1.814,5.726,5.726,0,0,0-.881,2.706,12.724,12.724,0,0,0,.073,2.69c.094.855.214,1.668.275,2.437a10.8,10.8,0,0,1-.016,2.144,6.537,6.537,0,0,1-.447,1.71,4.635,4.635,0,0,1-.675,1.15,3.8,3.8,0,0,1-.588.588l-.18.128q-.057.044-.063.039l.055-.05.17-.139a4.047,4.047,0,0,0,.573-.607,4.768,4.768,0,0,0,.646-1.148,6.581,6.581,0,0,0,.421-1.694,10.821,10.821,0,0,0,0-2.12c-.065-.763-.188-1.569-.288-2.434a12.932,12.932,0,0,1-.081-2.716,5.861,5.861,0,0,1,.91-2.764,5.681,5.681,0,0,1,2.238-1.859,11.457,11.457,0,0,1,2.575-.868c.842-.191,1.652-.335,2.4-.5a13.335,13.335,0,0,0,2.042-.6,7.64,7.64,0,0,0,1.543-.818,5.3,5.3,0,0,0,.988-.873,4.772,4.772,0,0,0,.5-.675l.107-.188C395.879,62.74,395.894,62.717,395.9,62.719Z" transform="translate(-292.584 -54.617)"/><path class="c" d="M392.526,98.643a4.968,4.968,0,0,1-.677-.458c-.408-.3-.965-.714-1.569-1.179s-1.158-.9-1.553-1.213a4.652,4.652,0,0,1-.617-.523,4.678,4.678,0,0,1,.672.452c.408.3.965.714,1.569,1.179s1.158.9,1.553,1.213a4.652,4.652,0,0,1,.622.528Z" transform="translate(-297.783 -78.657)"/><path class="c" d="M397.224,90.117a.889.889,0,0,1-.225-.139c-.139-.094-.337-.238-.58-.416-.486-.356-1.153-.855-1.882-1.414s-1.388-1.072-1.862-1.446c-.235-.188-.424-.343-.552-.452a.907.907,0,0,1-.193-.18.947.947,0,0,1,.225.139c.139.1.337.238.58.416.486.358,1.153.858,1.882,1.417s1.388,1.069,1.859,1.446c.235.188.426.343.554.45A1,1,0,0,1,397.224,90.117Z" transform="translate(-300.605 -71.863)"/><path class="c" d="M402.984,84.25a4.374,4.374,0,0,1-.654-.437c-.392-.285-.928-.685-1.514-1.135s-1.122-.86-1.493-1.156A4.865,4.865,0,0,1,398.73,81a4.128,4.128,0,0,1,.654.437c.392.285.928.685,1.514,1.135s1.114.86,1.493,1.163A4.718,4.718,0,0,1,402.984,84.25Z" transform="translate(-305.627 -68.118)"/><path class="c" d="M410.626,79.346a14.921,14.921,0,0,1-2.256-1.726,14.815,14.815,0,0,1,2.256,1.726Z" transform="translate(-312.746 -65.622)"/><path class="c" d="M420.776,66.572a8.964,8.964,0,0,1-1.307-.907,9.6,9.6,0,0,1-1.218-1.014,8.962,8.962,0,0,1,1.307.907,9.6,9.6,0,0,1,1.218,1.014Z" transform="translate(-320.043 -56.043)"/><path class="c" d="M425.051,57.73a4.529,4.529,0,0,1-.651-.439c-.392-.282-.928-.685-1.516-1.132s-1.114-.863-1.49-1.166a4.471,4.471,0,0,1-.593-.523,4.829,4.829,0,0,1,.651.439c.392.285.928.685,1.516,1.132s1.114.863,1.49,1.166A4.075,4.075,0,0,1,425.051,57.73Z" transform="translate(-321.926 -48.525)"/><path class="c" d="M389.333,105.664a9.581,9.581,0,0,1-1.307-.907,9.358,9.358,0,0,1-1.216-1.017,9.4,9.4,0,0,1,1.307.907A8.889,8.889,0,0,1,389.333,105.664Z" transform="translate(-296.823 -84.913)"/><path class="c" d="M379.113,119.391a16.017,16.017,0,0,1-2.343-1.791,8.408,8.408,0,0,1,1.213.842A8.317,8.317,0,0,1,379.113,119.391Z" transform="translate(-289.408 -95.149)"/><path class="c" d="M373.08,125.565a4.478,4.478,0,0,1-.664-.447c-.4-.29-.949-.7-1.548-1.156s-1.135-.878-1.522-1.19a4.971,4.971,0,0,1-.607-.523,4.407,4.407,0,0,1,.667.447c.4.29.946.7,1.545,1.156s1.137.878,1.522,1.19A5.259,5.259,0,0,1,373.08,125.565Z" transform="translate(-283.478 -98.583)"/><path class="d" d="M364.666,37.293a.473.473,0,1,1-.473-.473A.473.473,0,0,1,364.666,37.293Z" transform="translate(-279.77 -35.489)"/><path class="d" d="M439.006,37.293a.473.473,0,1,1-.473-.473.473.473,0,0,1,.473.473Z" transform="translate(-334.674 -35.489)"/><rect class="d" width="18.553" height="26.89" transform="translate(0.933 1.665)"/><rect class="e" width="18.553" height="26.89" transform="translate(0.003 1.665)"/><rect class="a" width="13.943" height="21.065" transform="translate(2.309 4.578)"/><path class="d" d="M65.282,70.187v-5.9c0-3.715,0-8.973-.021-15.164l.044.047H51.365l.05-.052V70.187l-.039-.039,10.147.021h.034l-10.215.068H51.3V49.08H65.34v.044c0,6.207-.018,11.478-.024,15.2v5.768A.118.118,0,0,1,65.282,70.187Z" transform="translate(-49.033 -44.544)"/><path class="d" d="M106.666,38.1a3.031,3.031,0,0,1-.332.481c-.214.288-.523.68-.871,1.1s-.675.8-.915,1.067a3.587,3.587,0,0,1-.408.418,3.349,3.349,0,0,1,.353-.465l.894-1.082.892-1.085A3.629,3.629,0,0,1,106.666,38.1Z" transform="translate(-88.058 -36.435)"/><path class="a" d="M105.06,129.56a17.123,17.123,0,0,0,2.432,3.041" transform="translate(-88.738 -103.982)"/><path class="d" d="M107.492,132.564a2.92,2.92,0,0,1-.426-.387,13.614,13.614,0,0,1-.915-1.046,13.236,13.236,0,0,1-.808-1.124,2.614,2.614,0,0,1-.282-.5,4.081,4.081,0,0,1,.34.458c.207.288.492.68.829,1.1s.654.784.889,1.046A3.865,3.865,0,0,1,107.492,132.564Z" transform="translate(-88.738 -103.945)"/><path class="a" d="M42.63,132.406l2.432-3" transform="translate(-42.63 -103.871)"/><path class="d" d="M45.062,129.41a19.259,19.259,0,0,1-1.177,1.529,18.367,18.367,0,0,1-1.255,1.467,18.717,18.717,0,0,1,1.177-1.529A17.745,17.745,0,0,1,45.062,129.41Z" transform="translate(-42.63 -103.871)"/><path class="d" d="M42.64,38.1a16.246,16.246,0,0,1,1.179,1.412,15.991,15.991,0,0,1,1.1,1.472,17.1,17.1,0,0,1-1.179-1.409,16.836,16.836,0,0,1-1.1-1.475Z" transform="translate(-42.637 -36.435)"/><circle class="d" cx="1.496" cy="1.496" r="1.496" transform="translate(9.36 13.962)"/><path class="d" d="M86.623,67.556a1.116,1.116,0,1,1-1.116-1.116,1.116,1.116,0,0,1,1.116,1.116Z" transform="translate(-73.472 -57.365)"/><path class="d" d="M71.736,75.008a.808.808,0,1,1-.808-.808A.808.808,0,0,1,71.736,75.008Z" transform="translate(-62.933 -63.096)"/><path class="d" d="M90.931,107.278a.5.5,0,1,1,0-.711A.5.5,0,0,1,90.931,107.278Z" transform="translate(-77.67 -86.892)"/><path class="d" d="M62.746,92.2a.808.808,0,1,1-.808-.808A.808.808,0,0,1,62.746,92.2Z" transform="translate(-56.293 -75.792)"/><path class="d" d="M84.143,90.849A14.889,14.889,0,0,1,85.259,93a14.4,14.4,0,0,1,.933,2.235,14.538,14.538,0,0,1-1.116-2.149A16.492,16.492,0,0,1,84.143,90.849Z" transform="translate(-73.287 -75.392)"/><path class="d" d="M69.887,91.382a15.693,15.693,0,0,1-2.437.463,15.265,15.265,0,0,1-2.45.264,15.614,15.614,0,0,1,2.434-.463A15.2,15.2,0,0,1,69.887,91.382Z" transform="translate(-59.151 -75.776)"/><path class="d" d="M76.223,80.05A5.954,5.954,0,0,1,74.8,78.672,6.039,6.039,0,0,1,73.721,77c.044-.037.541.7,1.231,1.537S76.262,80.006,76.223,80.05Z" transform="translate(-65.59 -65.16)"/><path class="d" d="M85.113,70.644h0v.039l-.026.144c-.037.17-.073.345-.112.523-.1.444-.261,1.046-.424,1.728a20.168,20.168,0,0,1-.685,2.421,13.47,13.47,0,0,1,.489-2.471c.173-.675.342-1.279.481-1.715.068-.217.128-.392.178-.523a1.307,1.307,0,0,1,.06-.136l.024-.034h.013C85.106,70.62,85.113,70.644,85.113,70.644Z" transform="translate(-73.079 -60.452)"/></g><g transform="translate(21.23 148.218)"><path class="g" d="M140.855,477.338c0,.039-26.781.068-59.81.068s-59.815-.029-59.815-.068,26.775-.068,59.815-.068S140.855,477.3,140.855,477.338Z" transform="translate(-21.23 -477.27)"/></g><g transform="translate(100.5 42.4)"><path class="h" d="M344.5,445.18l.157,5.415s-5.449,1.977-5.519,2.978l10.508.073.1-8.442Z" transform="translate(-335.291 -347.753)"/><path class="g" d="M355.37,467.332c0,.05.209.139.382.356s.222.45.275.447.086-.293-.136-.56S355.373,467.282,355.37,467.332Z" transform="translate(-347.278 -364.098)"/><path class="g" d="M351.826,469.923c.047,0,.12-.246,0-.523s-.371-.395-.392-.353.125.2.227.429S351.777,469.917,351.826,469.923Z" transform="translate(-344.37 -365.374)"/><path class="h" d="M415.406,445.19l1.1,5.409s5.449,1.977,5.517,2.978l-10.505.073-1.279-8.437Z" transform="translate(-387.802 -347.76)"/><path class="g" d="M437.149,467.322c.013.05-.209.139-.382.356s-.222.45-.261.447-.086-.293.133-.56S437.149,467.272,437.149,467.322Z" transform="translate(-407.176 -364.091)"/><path class="g" d="M441.3,469.913c-.047,0-.12-.246,0-.523s.369-.395.39-.353-.125.2-.227.429S441.357,469.907,441.3,469.913Z" transform="translate(-410.697 -365.366)"/><path class="i" d="M359.345,246.855l7.943,56.989-7.708-.152-8.657-48.5,2.011,48.727-8.44-.518L341.53,246.51Z" transform="translate(-337.057 -201.026)"/><g class="j" transform="translate(4.664 49.134)"><path d="M342.291,261.3l-.031-.826,18.163.565.188,1.582Z" transform="translate(-342.26 -260.47)"/></g><path class="g" d="M358.031,321.884c-.039,0-.6-11.339-1.252-25.33s-1.15-25.335-1.114-25.335.6,11.337,1.25,25.33S358.067,321.884,358.031,321.884Z" transform="translate(-347.494 -219.275)"/><path class="g" d="M402.735,322.734a.5.5,0,0,0-.026-.128c-.026-.086-.034-.214-.06-.376-.05-.337-.123-.826-.217-1.454-.188-1.265-.458-3.09-.784-5.341-.675-4.513-1.631-10.74-2.766-17.606s-2.233-13.073-3.046-17.562c-.41-2.238-.74-4.053-.97-5.313-.112-.625-.2-1.109-.261-1.446-.029-.162-.05-.288-.065-.376s-.018-.131-.018-.131.013.044.031.128l.078.374c.068.335.165.818.288,1.441.246,1.25.594,3.064,1.012,5.3.839,4.484,1.95,10.688,3.085,17.559s2.079,13.1,2.727,17.611c.324,2.259.58,4.087.748,5.352.084.627.149,1.116.193,1.456.018.162.034.288.047.379A.422.422,0,0,1,402.735,322.734Z" transform="translate(-376.192 -220.59)"/><path class="i" d="M328.53,152.292s-3.979-.949-4.11-1.116l3.271-8.427a6.147,6.147,0,0,1,3.817-3.72,10.775,10.775,0,0,1,3.864-.6l5.525-.293a10.913,10.913,0,0,1,4.356,1.205,8.772,8.772,0,0,1,4.092,4.51l2.479,6.189-6.249,1.307L345.336,158l2.858,12.741-19.941-.651.892-17.457h0Z" transform="translate(-324.42 -120.989)"/><g class="j" transform="translate(0.675 29.085)"><path class="a" d="M327,183.788c0,.018,1.025.356,2.306.753s2.319.7,2.324.682-1.025-.356-2.3-.75S327,183.77,327,183.788Z" transform="translate(-327 -183.787)"/></g><path class="g" d="M396.06,153.205a.838.838,0,0,0,.107-.146c.063-.094.159-.23.285-.395a6.724,6.724,0,0,1,.468-.546,6.974,6.974,0,0,1,.648-.6,6.875,6.875,0,0,1,1.354-.85c.186-.089.34-.154.447-.2a.84.84,0,0,0,.165-.073.9.9,0,0,0-.175.047c-.11.034-.261.094-.458.175a6.225,6.225,0,0,0-2.029,1.448,6.093,6.093,0,0,0-.463.578,4.082,4.082,0,0,0-.261.41A.785.785,0,0,0,396.06,153.205Z" transform="translate(-377.33 -130.044)"/><path class="g" d="M399.176,168.82c-.021,0,.173,2.031.429,4.534s.481,4.528.5,4.526-.173-2.031-.431-4.534S399.194,168.817,399.176,168.82Z" transform="translate(-379.629 -143.648)"/><path class="g" d="M347.207,146.844a2.914,2.914,0,0,0,.089-.41,7.9,7.9,0,0,1,.275-.975,7.516,7.516,0,0,1,.408-.926c.12-.23.2-.369.193-.374s-.029.029-.071.089-.1.149-.167.261a5.825,5.825,0,0,0-.429.926,5.427,5.427,0,0,0-.261.988c-.021.131-.034.235-.039.309a.525.525,0,0,0,0,.112Z" transform="translate(-341.246 -125.434)"/><path class="g" d="M345.89,167.1a1.2,1.2,0,0,0,.034-.2c.018-.131.037-.316.06-.549.044-.463.092-1.1.118-1.812s.023-1.352,0-1.817c0-.233-.013-.421-.021-.549a.964.964,0,0,0-.021-.2,1.006,1.006,0,0,0,0,.2v.549c0,.465,0,1.106-.031,1.814s-.065,1.349-.1,1.812l-.039.549a1.074,1.074,0,0,0,0,.2Z" transform="translate(-340.274 -138.589)"/><path class="a" d="M377.85,176.771a28.429,28.429,0,0,0,4.351-.081v.565H377.85Z" transform="translate(-363.881 -149.46)"/><g class="j" transform="translate(9.347 17.692)"><path class="a" d="M360.465,140.437a.465.465,0,0,0-.018.086c0,.063-.021.146-.037.261-.029.22-.065.541-.1.952-.065.816-.123,1.977-.144,3.349v.052l.047-.024c.868-.421,1.83-.881,2.852-1.388l4.944-2.473,1.5-.758.405-.209.1-.055.034-.021-.039.016-.107.05-.41.2-1.5.729-4.955,2.455c-1.012.507-1.982.967-2.847,1.394l.044.029c.016-1.37.063-2.531.118-3.347.024-.408.058-.732.078-.952a2.57,2.57,0,0,1,.026-.261A.744.744,0,0,0,360.465,140.437Z" transform="translate(-360.17 -140.21)"/></g><g class="j" transform="translate(20.022 27.993)"><path class="a" d="M401,181.281a.3.3,0,0,0,.071,0l.2-.05.742-.188c.628-.16,1.5-.382,2.458-.612s1.83-.434,2.463-.578l.748-.173.2-.05c.044,0,.071-.018.068-.021h-.071l-.207.037-.753.149c-.635.131-1.509.324-2.471.557s-1.83.46-2.452.635l-.737.209-.2.063A.16.16,0,0,1,401,181.281Z" transform="translate(-401 -179.61)"/></g><path class="g" d="M359.207,137.15a1.83,1.83,0,0,0-.735.709,6.68,6.68,0,0,0-.873,2.309,9.367,9.367,0,0,0-.159,1.352v.6c0,.188.013.358.029.523s.031.3.047.424.037.23.052.319a.947.947,0,0,0,.065.261,1.157,1.157,0,0,0,0-.275l-.047-.322c0-.125-.016-.261-.026-.421s0-.329,0-.523,0-.379.016-.586a10.378,10.378,0,0,1,.167-1.333,7.29,7.29,0,0,1,.818-2.28,3.105,3.105,0,0,1,.455-.575A2.481,2.481,0,0,0,359.207,137.15Z" transform="translate(-348.807 -120.258)"/><path class="g" d="M387.84,137.3a3.33,3.33,0,0,0,.288.413,5.6,5.6,0,0,1,.641,1.195,8.184,8.184,0,0,1,.476,1.953c.1.756.141,1.6.2,2.479s.047,1.723.05,2.489v2.039c0,.58.016,1.046.034,1.375a2.055,2.055,0,0,0,.05.5,2.354,2.354,0,0,0,.031-.5c0-.329.021-.8.037-1.373s.034-1.271.044-2.037.013-1.613-.034-2.5-.1-1.728-.214-2.494a7.733,7.733,0,0,0-.523-1.984,5.014,5.014,0,0,0-.711-1.187A1.8,1.8,0,0,0,387.84,137.3Z" transform="translate(-371.259 -120.369)"/><path class="g" d="M352.669,166.56a2.465,2.465,0,0,0,.029-.45c0-.29.013-.709.018-1.224v-.847c0-.3,0-.63.018-.965a1.6,1.6,0,0,1,.348-.949,1.307,1.307,0,0,1,.957-.452,1.5,1.5,0,0,1,1,.387,1.731,1.731,0,0,1,.5.884c.084.322.12.648.17.946s.092.58.133.837c.081.523.152.923.2,1.208a2.353,2.353,0,0,0,.094.439,3.083,3.083,0,0,0-.039-.447c-.034-.288-.089-.7-.157-1.216-.037-.261-.073-.523-.115-.837a8.62,8.62,0,0,0-.159-.965,1.843,1.843,0,0,0-.541-.952,1.631,1.631,0,0,0-1.1-.429,1.441,1.441,0,0,0-1.061.5,1.726,1.726,0,0,0-.374,1.03c-.021.35,0,.672,0,.975v.847c0,.523.016.933.026,1.224A3.092,3.092,0,0,0,352.669,166.56Z" transform="translate(-345.228 -138.264)"/><path class="g" d="M356.9,157a2.306,2.306,0,0,0,.523,1.357,1.919,1.919,0,0,0-.878.016,2.984,2.984,0,0,0,.233-1.373" transform="translate(-348.142 -134.918)"/><path class="g" d="M352.85,164.634a4.481,4.481,0,0,1,.217-.539,1.645,1.645,0,0,1,.395-.46,1.454,1.454,0,0,1,.669-.319,1.438,1.438,0,0,1,.737.073,1.615,1.615,0,0,1,.523.319,4.308,4.308,0,0,1,.374.444.978.978,0,0,0-.306-.523,1.569,1.569,0,0,0-.546-.366,1.477,1.477,0,0,0-.808-.092,1.5,1.5,0,0,0-.729.358,1.616,1.616,0,0,0-.4.523A1.017,1.017,0,0,0,352.85,164.634Z" transform="translate(-345.414 -139.462)"/><path class="k" d="M332.06,199.451a2.289,2.289,0,0,1-1.914-1.307,5.49,5.49,0,0,1-.523-2.353,19.036,19.036,0,0,1,.784-6.351l3.548.62-.965,9.556Z" transform="translate(-328.248 -158.877)"/><path class="g" d="M353.294,192.849l-11.554-.421-2.8-13.538,12.168.677Z" transform="translate(-335.144 -151.085)"/><path class="h" d="M358.345,177.522l-.175-.345-.923-.071s-.233-.607-1.55-.667c-1.182-.055-1.229.539-1.229.539h-.638v.29Z" transform="translate(-346.141 -149.273)"/><path class="k" d="M338.186,214.739l-.876-.261a1.075,1.075,0,0,0-.507-.024h0a1.08,1.08,0,0,0-.544.288,7.061,7.061,0,0,0-.824.9.852.852,0,0,0,0,.69c.1.133-.214.805-.175,1.03a1.39,1.39,0,0,0,.175.544c.078.094,0,.413.2.656a3.2,3.2,0,0,0,.371.392,20.6,20.6,0,0,0,2.641,0,3.455,3.455,0,0,0,.646-.544s.214-.392-.118-.429l1.367-.523a.322.322,0,0,0,.2-.41.23.23,0,0,0-.12-.133s.614-.193.758-.261c.282-.125.39-.784-.2-.7-.311.044-.732.133-.732.133a.431.431,0,0,0-.089-.58c-.191-.133-1.046.029-1.046.029l-1.127-.8Z" transform="translate(-332.424 -177.336)"/><path class="l" d="M345.29,228.265a1.953,1.953,0,0,0,.709-.1,1.812,1.812,0,0,0,.656-.3c0-.018-.3.123-.675.227S345.287,228.247,345.29,228.265Z" transform="translate(-339.833 -187.255)"/><path class="l" d="M347.29,224.535a8.652,8.652,0,0,0,1.116-.248,9.127,9.127,0,0,0,1.1-.316,9.221,9.221,0,0,0-1.116.248A9.934,9.934,0,0,0,347.29,224.535Z" transform="translate(-341.311 -184.379)"/><path class="l" d="M346.2,221.3a10.926,10.926,0,0,0,1.2-.246,10.414,10.414,0,0,0,1.187-.314,10.923,10.923,0,0,0-1.2.246,11.109,11.109,0,0,0-1.187.314Z" transform="translate(-340.506 -181.993)"/><path class="l" d="M342.8,218.69a1.465,1.465,0,0,0,.309.1l.34.089.2.05a.748.748,0,0,0,.23.021,1.047,1.047,0,0,0,.227-.037l.2-.044.34-.084a1.568,1.568,0,0,0,.311-.091,1.385,1.385,0,0,0-.322.044l-.345.065a3.347,3.347,0,0,1-.416.076,1.531,1.531,0,0,1-.413-.063l-.343-.073A1.43,1.43,0,0,0,342.8,218.69Z" transform="translate(-337.994 -180.479)"/><path class="l" d="M341.956,220.45a.2.2,0,0,0-.068.089.4.4,0,0,0,0,.261.4.4,0,0,0,.159.214c.06.039.1.044.107.037a.625.625,0,0,1-.2-.261A.761.761,0,0,1,341.956,220.45Z" transform="translate(-337.305 -181.779)"/><path class="l" d="M342.22,224c-.018,0-.071.086-.063.22s.071.222.086.212,0-.1-.016-.217S342.239,224,342.22,224Z" transform="translate(-337.52 -184.401)"/><path class="l" d="M342.228,227.87c-.018,0-.055.058-.039.144s.076.131.092.118,0-.065-.021-.133S342.247,227.875,342.228,227.87Z" transform="translate(-337.541 -187.259)"/><path class="l" d="M341.34,218.137a.922.922,0,0,0,.233,0l.246-.031a.92.92,0,0,1,.3-.016.719.719,0,0,1,.261.118c.076.052.141.107.2.144a.363.363,0,0,0,.222.076.943.943,0,0,1-.193-.118,1.216,1.216,0,0,0-.484-.29.9.9,0,0,0-.167,0,.816.816,0,0,0-.146.024l-.246.047A.717.717,0,0,0,341.34,218.137Z" transform="translate(-336.916 -179.981)"/><path class="l" d="M335.431,217.924a1.144,1.144,0,0,0-.063-.173,1.365,1.365,0,0,1-.1-.478,1.45,1.45,0,0,1,.052-.335c.029-.12.084-.238.112-.382a1.159,1.159,0,0,0-.029-.444.784.784,0,0,1,.078-.437,2.046,2.046,0,0,1,.261-.387c.094-.12.186-.235.277-.337a1.569,1.569,0,0,1,.567-.444.926.926,0,0,1,.478-.073c.115.016.175.047.178.039s-.013,0-.042-.024a.549.549,0,0,0-.131-.042.891.891,0,0,0-.5.052,1.616,1.616,0,0,0-.6.447c-.094.1-.188.22-.282.337a2.089,2.089,0,0,0-.261.4.816.816,0,0,0-.084.473,1.272,1.272,0,0,1,.034.424c-.026.131-.081.261-.107.382a1.381,1.381,0,0,0-.044.348,1.245,1.245,0,0,0,.123.489A.547.547,0,0,0,335.431,217.924Z" transform="translate(-332.404 -177.306)"/><path class="k" d="M363.7,189.683l9.486,1.506-.421-4.949,5.276-1.02.641,7.321.112,1.681a3.284,3.284,0,0,1-1.378,2.892h0a3.273,3.273,0,0,1-2.913.442l-2.037-.664-9.935-3.535" transform="translate(-352.566 -155.76)"/><path class="k" d="M341.567,197.489a.261.261,0,0,1,.261-.319,13.651,13.651,0,0,1,2.489.152c.63.178,2.981,1.187,2.981,1.187l-1,3.679-3.608.039s-1.307-.607-1.333-.868a4.51,4.51,0,0,1,.034-.492l-.4-.214c-.594-.376-.214-1.1-.214-1.1a.879.879,0,0,1-.429-.643.646.646,0,0,1,.319-.609s-.165-.58.139-.737a1.237,1.237,0,0,1,.818.044A.209.209,0,0,1,341.567,197.489Z" transform="translate(-336.187 -164.585)"/><path class="l" d="M344.21,198.614a.471.471,0,0,0,.112.037c.073.021.178.044.311.068.261.047.635.086,1.046.131a8.93,8.93,0,0,1,1.03.157c.261.06.405.141.41.131s-.034-.026-.1-.063a1.548,1.548,0,0,0-.3-.115,6.229,6.229,0,0,0-1.046-.18c-.408-.044-.784-.076-1.046-.11S344.215,198.6,344.21,198.614Z" transform="translate(-339.036 -165.651)"/><path class="l" d="M341.62,201.43a.844.844,0,0,0,.261.131,4.083,4.083,0,0,0,.656.191c.261.055.5.089.675.112a1.138,1.138,0,0,0,.282.021,9.109,9.109,0,0,0-.941-.2c-.261-.055-.492-.118-.656-.17A1.67,1.67,0,0,0,341.62,201.43Z" transform="translate(-337.123 -167.732)"/><path class="l" d="M342,206.314a2.8,2.8,0,0,0,.784.261,2.751,2.751,0,0,0,.811.1c0-.021-.361-.065-.784-.165S342,206.3,342,206.314Z" transform="translate(-337.404 -171.338)"/><path class="l" d="M342.86,210.483a1.778,1.778,0,0,0,.591.22,1.843,1.843,0,0,0,.627.076,6.116,6.116,0,0,0-.609-.146C343.132,210.554,342.865,210.465,342.86,210.483Z" transform="translate(-338.039 -174.416)"/><path class="l" d="M350.05,206.907a.212.212,0,0,0,.11.039.413.413,0,0,0,.434-.309.206.206,0,0,0,0-.118.727.727,0,0,1-.2.293A.756.756,0,0,1,350.05,206.907Z" transform="translate(-343.349 -171.491)"/><path class="l" d="M350.34,211.385c0,.018.141.026.261-.084s.133-.261.112-.261-.055.11-.159.2S350.337,211.364,350.34,211.385Z" transform="translate(-343.563 -174.829)"/><path class="l" d="M351.94,202.961c0,.018.092.052.183-.018s.089-.175.071-.173-.044.065-.112.115S351.956,202.942,351.94,202.961Z" transform="translate(-344.745 -168.721)"/><path class="l" d="M347.265,198.447l-.029-.016-.086-.039-.335-.149c-.29-.126-.719-.311-1.258-.523-.261-.11-.565-.23-.892-.35a3.245,3.245,0,0,0-.523-.162,5.614,5.614,0,0,0-.573-.071c-.395-.031-.813-.044-1.25-.05h-.5a.345.345,0,0,0-.18.037.288.288,0,0,0-.154.327.094.094,0,0,0,.042.047l.042.026.081.037a1.186,1.186,0,0,0,.17.06.031.031,0,0,0,.042-.024.034.034,0,0,0-.024-.042,3.625,3.625,0,0,0-.45-.1,1.7,1.7,0,0,0-.476-.016.434.434,0,0,0-.233.1.413.413,0,0,0-.115.227,1.179,1.179,0,0,0,.031.5l.018-.042a.685.685,0,0,0-.2.178.7.7,0,0,0-.1.643.933.933,0,0,0,.413.492l-.016-.047a1.145,1.145,0,0,0-.112.63.719.719,0,0,0,.34.523h0l.4.212-.018-.034c0,.1-.018.191-.026.285v.141a.641.641,0,0,0,0,.071.175.175,0,0,0,.029.078.848.848,0,0,0,.2.2c.076.055.149.1.225.149a8.976,8.976,0,0,0,.9.468h.013l2.615-.039.724-.016h.256a.3.3,0,0,0-.065,0h-.918l-2.615.016h0c-.288-.139-.588-.29-.886-.471-.076-.047-.149-.094-.22-.146a.828.828,0,0,1-.188-.18.134.134,0,0,1-.018-.047.568.568,0,0,1,0-.068v-.136a2.581,2.581,0,0,1,.026-.282.029.029,0,0,0-.016-.031l-.4-.214h0a.643.643,0,0,1-.309-.465,1.067,1.067,0,0,1,.107-.586.037.037,0,0,0-.013-.047.881.881,0,0,1-.382-.455.638.638,0,0,1,.094-.578.583.583,0,0,1,.175-.157.034.034,0,0,0,.018-.039,1.127,1.127,0,0,1-.029-.465.332.332,0,0,1,.107-.212.374.374,0,0,1,.193-.084,1.569,1.569,0,0,1,.455.018,3.09,3.09,0,0,1,.442.1l.016-.068a.96.96,0,0,1-.159-.055l-.076-.034c-.023,0-.047-.037-.057-.034a.28.28,0,0,1,.024-.144.261.261,0,0,1,.1-.1.311.311,0,0,1,.149-.029h.5c.437,0,.852.016,1.245.044.2.016.387.034.567.065a3.4,3.4,0,0,1,.51.154c.327.12.625.238.894.342l1.265.523.34.136.086.034Z" transform="translate(-336.132 -164.524)"/><path class="l" d="M403.1,208a3.661,3.661,0,0,1,.7.6,3.6,3.6,0,0,1,.465.8.675.675,0,0,0-.071-.261,2.115,2.115,0,0,0-.844-1.017A.784.784,0,0,0,403.1,208Z" transform="translate(-382.529 -172.584)"/><path class="k" d="M354.771,83.356a4.792,4.792,0,0,1,4.779-4.416h.248c2.677.152,4.045,2.507,3.82,5.177l-.463,10.72a.484.484,0,0,1-.277.416l-6.013,2.818.186-5.619a3.094,3.094,0,0,1-2.615-2.967C354.418,88.232,354.582,85.672,354.771,83.356Z" transform="translate(-346.587 -77.267)"/><path class="l" d="M364.34,127.754a6.223,6.223,0,0,0,3.368-.994,3.161,3.161,0,0,1-3.354,1.626Z" transform="translate(-353.903 -112.585)"/><path class="g" d="M358.1,102.589a.369.369,0,0,0,.356.369.353.353,0,0,0,.379-.332.369.369,0,0,0-.356-.369.353.353,0,0,0-.379.332Z" transform="translate(-349.294 -94.487)"/><path class="g" d="M357.825,99.547c.047.047.324-.159.719-.159s.685.2.729.149-.026-.107-.152-.2a1,1,0,0,0-.583-.178.941.941,0,0,0-.573.186C357.843,99.44,357.8,99.526,357.825,99.547Z" transform="translate(-349.087 -92.2)"/><path class="g" d="M372.29,102.949a.366.366,0,0,0,.353.371.353.353,0,0,0,.379-.332.369.369,0,0,0-.356-.371.35.35,0,0,0-.376.332Z" transform="translate(-359.774 -94.753)"/><path class="g" d="M372.685,99.8c.047.047.324-.159.719-.157s.685.2.729.146-.026-.107-.154-.2a.991.991,0,0,0-.583-.178.957.957,0,0,0-.57.186C372.7,99.689,372.664,99.776,372.685,99.8Z" transform="translate(-360.062 -92.385)"/><path class="g" d="M364.407,102.811a2.81,2.81,0,0,0-.643-.115c-.1,0-.2-.029-.212-.1a.523.523,0,0,1,.065-.3l.3-.769a13.3,13.3,0,0,0,.664-2.011,13.343,13.343,0,0,0-.826,1.953q-.149.392-.282.784a.567.567,0,0,0-.052.395.246.246,0,0,0,.167.146.6.6,0,0,0,.17.024A2.526,2.526,0,0,0,364.407,102.811Z" transform="translate(-353.212 -92.466)"/><path class="g" d="M368.137,113.15c-.065,0-.065.426-.431.729s-.824.261-.826.319.1.084.3.089a1.069,1.069,0,0,0,.69-.243.926.926,0,0,0,.332-.612C368.219,113.252,368.166,113.147,368.137,113.15Z" transform="translate(-355.779 -102.533)"/><path class="g" d="M372.293,94.126c.039.107.434.055.9.11s.839.18.9.084c.026-.044-.039-.146-.191-.261a1.5,1.5,0,0,0-.667-.23,1.469,1.469,0,0,0-.7.084C372.361,93.982,372.275,94.066,372.293,94.126Z" transform="translate(-359.775 -88.254)"/><path class="g" d="M358.361,95.121c.071.092.342,0,.669,0s.6.058.669-.034c.026-.047-.018-.136-.139-.222a.946.946,0,0,0-.544-.146.928.928,0,0,0-.523.183C358.369,94.985,358.33,95.079,358.361,95.121Z" transform="translate(-349.479 -88.92)"/><path class="k" d="M387.734,105.771c.044-.018,1.767-.523,1.715,1.231a1.323,1.323,0,0,1-1.809,1.292C387.637,108.242,387.734,105.771,387.734,105.771Z" transform="translate(-371.111 -97.024)"/><path class="l" d="M389.206,109.264a.628.628,0,0,0,.081.047.3.3,0,0,0,.227,0,.758.758,0,0,0,.371-.669,1,1,0,0,0-.071-.439.358.358,0,0,0-.225-.243.157.157,0,0,0-.183.078c-.026.05-.016.084-.024.086s-.037-.029-.021-.1a.18.18,0,0,1,.073-.107.23.23,0,0,1,.17-.042.437.437,0,0,1,.311.282,1.046,1.046,0,0,1,.092.494.784.784,0,0,1-.468.745.324.324,0,0,1-.28-.055C389.209,109.306,389.2,109.266,389.206,109.264Z" transform="translate(-372.267 -98.634)"/><path class="g" d="M362.914,79.559l-7.334.162a3.365,3.365,0,0,1,1.077-1.247,5.752,5.752,0,0,1,3.32-1.195c1.195-.021,3.629,1.435,4.5,2.262a1.868,1.868,0,0,1,.688,1.229,9.681,9.681,0,0,1-.633,2.965c-.11.481-.319,1.937-.319,1.937h0c-.405,0-.554-.322-.494-.722l.076-1.569a2.366,2.366,0,0,1-.724-2.764C363.173,80.487,363.4,79.836,362.914,79.559Z" transform="translate(-347.433 -76.041)"/><path class="l" d="M377.641,107.049a.047.047,0,1,0-.034-.055.047.047,0,0,0,.034.055Z" transform="translate(-363.701 -97.958)"/><path class="l" d="M374.754,106.357a.056.056,0,1,0-.031-.063A.05.05,0,0,0,374.754,106.357Z" transform="translate(-361.569 -97.437)"/><path class="l" d="M372.8,106.211c.023,0,.047-.026.052-.065s0-.073-.034-.076-.047.026-.052.065S372.778,106.208,372.8,106.211Z" transform="translate(-360.126 -97.304)"/><path class="l" d="M376.194,108.965c.024,0,.044-.013.044-.026s-.021-.029-.044-.029-.044,0-.044.029S376.171,108.965,376.194,108.965Z" transform="translate(-362.625 -99.402)"/><path class="l" d="M373.557,108.237a.047.047,0,0,0,.047-.044.044.044,0,0,0-.039-.052.047.047,0,0,0-.047.044.044.044,0,0,0,.039.052Z" transform="translate(-360.681 -98.833)"/><path class="l" d="M359.786,106.626a.047.047,0,0,0,.052-.042.044.044,0,0,0-.031-.055.05.05,0,0,0-.021.1Z" transform="translate(-350.515 -97.643)"/><path class="l" d="M357.807,106.409a.051.051,0,0,0,.047-.05c0-.029-.013-.058-.037-.06a.052.052,0,0,0-.05.052A.05.05,0,0,0,357.807,106.409Z" transform="translate(-349.048 -97.473)"/><path class="l" d="M361.523,106.723a.039.039,0,0,0,.05-.029.043.043,0,0,0-.084-.016.039.039,0,0,0,.034.044Z" transform="translate(-351.797 -97.73)"/><path class="l" d="M360.094,108.648a.05.05,0,1,0-.021-.063.044.044,0,0,0,.021.063Z" transform="translate(-350.748 -99.139)"/><path class="l" d="M358.34,108.374a.037.037,0,1,0-.021-.071.039.039,0,0,0-.031.047A.042.042,0,0,0,358.34,108.374Z" transform="translate(-349.432 -98.952)"/><path class="g" d="M360.557,76.152a2.167,2.167,0,0,0-2.165-2.706,6.437,6.437,0,0,1-1.025.073c-.633-.068-1.122-.578-1.71-.824a2.241,2.241,0,0,0-2.638.784c-.222.335-.369.745-.711.954a3.747,3.747,0,0,1-1,.261,1.631,1.631,0,0,0-1.1,1.626,1.922,1.922,0,0,0,1.169,1.616,2.353,2.353,0,0,0,2.026-.144c.554-.309,1.046-.831,1.684-.813s1.226.648,1.862.518a1.807,1.807,0,0,0,.845-.565,1.467,1.467,0,0,1,.873-.5c.345-.018.523.452.4.784l1.477-1.046" transform="translate(-343.468 -72.542)"/><path class="h" d="M356.13,80.1v.026l.044.071a1.156,1.156,0,0,0,.209.238,1.307,1.307,0,0,0,.437.261,1.263,1.263,0,0,0,.664.039,1.326,1.326,0,0,0,.7-.4,8.559,8.559,0,0,0,.523-.784.954.954,0,0,1,.842-.429,1.106,1.106,0,0,1,.5.133.931.931,0,0,1,.366.379,5.3,5.3,0,0,0,.261.494.607.607,0,0,0,.471.285.918.918,0,0,0,.51-.146,1.892,1.892,0,0,0,.39-.322,1.616,1.616,0,0,1,.727-.523.92.92,0,0,1,.737.173,1.263,1.263,0,0,1,.405.5,2.171,2.171,0,0,1,.152.473c.026.133.039.238.047.311a.539.539,0,0,0,.016.107v-.11a3.06,3.06,0,0,0-.037-.314,1.992,1.992,0,0,0-.144-.484,1.271,1.271,0,0,0-.41-.523.975.975,0,0,0-.784-.188,1.647,1.647,0,0,0-.758.523,1.9,1.9,0,0,1-.379.311.845.845,0,0,1-.473.136.541.541,0,0,1-.416-.261c-.1-.146-.162-.322-.261-.489a.983.983,0,0,0-.395-.405,1.179,1.179,0,0,0-.523-.144,1.1,1.1,0,0,0-.523.118,1.082,1.082,0,0,0-.376.342,9,9,0,0,1-.5.771,1.265,1.265,0,0,1-.669.39,1.2,1.2,0,0,1-.643-.029,1.308,1.308,0,0,1-.429-.235A1.687,1.687,0,0,1,356.13,80.1Z" transform="translate(-347.839 -77.34)"/><path class="h" d="M350.952,83.2a.338.338,0,0,0-.031.141,1.19,1.19,0,0,0,.037.392,1.37,1.37,0,0,0,.275.523,1.616,1.616,0,0,0,.58.421,2.371,2.371,0,0,0,1.279.146,3.318,3.318,0,0,0,.384-.078.476.476,0,0,0,.136-.044s-.2.037-.523.073a2.5,2.5,0,0,1-1.245-.159,1.631,1.631,0,0,1-.56-.4,1.409,1.409,0,0,1-.275-.489,1.524,1.524,0,0,1-.057-.526Z" transform="translate(-343.99 -80.413)"/><path class="d" d="M392.348,185a1.446,1.446,0,0,1-.309.763,1.007,1.007,0,0,1-.732.39,1.119,1.119,0,0,1-.988-.5,2.813,2.813,0,0,1-.141-2.149,1.245,1.245,0,0,1,1.017-.824,1.122,1.122,0,0,1,1.1.868" transform="translate(-372.875 -153.884)"/><path class="g" d="M392.2,183.507a.9.9,0,0,0-.11-.293,1.281,1.281,0,0,0-.225-.3,1.077,1.077,0,0,0-.424-.248,1,1,0,0,0-.285-.044.863.863,0,0,0-.311.039,1.239,1.239,0,0,0-.554.4,1.6,1.6,0,0,0-.327.68,2.929,2.929,0,0,0-.06.805,2.2,2.2,0,0,0,.348,1.174,1.046,1.046,0,0,0,.45.34,1.223,1.223,0,0,0,.523.086h0a.766.766,0,0,0,.366-.092,1.213,1.213,0,0,0,.275-.191,1.4,1.4,0,0,0,.3-.447,1.24,1.24,0,0,0,.094-.332.864.864,0,0,0,0-.089v-.031a1.884,1.884,0,0,1-.131.437,1.4,1.4,0,0,1-.3.426,1.163,1.163,0,0,1-.261.18.74.74,0,0,1-.34.081h0a1.085,1.085,0,0,1-.9-.41,2.181,2.181,0,0,1-.329-1.135,2.063,2.063,0,0,1,.366-1.441,1.166,1.166,0,0,1,.523-.384.759.759,0,0,1,.293-.042,1.019,1.019,0,0,1,.261.039,1.046,1.046,0,0,1,.411.227,1.337,1.337,0,0,1,.227.28,2.57,2.57,0,0,1,.128.28Z" transform="translate(-372.778 -153.843)"/><path class="d" d="M393.568,185.1a1.459,1.459,0,0,1-.309.761,1,1,0,0,1-.735.39,1.122,1.122,0,0,1-.988-.5,2.824,2.824,0,0,1-.139-2.149,1.242,1.242,0,0,1,1.017-.824,1.124,1.124,0,0,1,1.1.855" transform="translate(-373.776 -153.958)"/><path class="g" d="M393.419,183.558a.923.923,0,0,0-.11-.293,1.221,1.221,0,0,0-.225-.293,1.046,1.046,0,0,0-.424-.248,1.1,1.1,0,0,0-.285-.047.868.868,0,0,0-.311.042,1.187,1.187,0,0,0-.554.4,1.569,1.569,0,0,0-.327.68,2.928,2.928,0,0,0-.06.805,2.217,2.217,0,0,0,.345,1.174,1.046,1.046,0,0,0,.452.34,1.213,1.213,0,0,0,.51.086h0a.766.766,0,0,0,.366-.092,1.19,1.19,0,0,0,.275-.191,1.37,1.37,0,0,0,.3-.447,1.307,1.307,0,0,0,.094-.329.763.763,0,0,0,0-.092v-.029a1.868,1.868,0,0,1-.133.437,1.378,1.378,0,0,1-.3.426,1.247,1.247,0,0,1-.261.178.748.748,0,0,1-.34.081h0a1.085,1.085,0,0,1-.9-.41,2.181,2.181,0,0,1-.329-1.135,2.053,2.053,0,0,1,.366-1.441,1.185,1.185,0,0,1,.523-.384.811.811,0,0,1,.293-.042,1,1,0,0,1,.261.039.975.975,0,0,1,.41.23,1.194,1.194,0,0,1,.227.277,2.376,2.376,0,0,1,.139.28Z" transform="translate(-373.679 -153.881)"/><path class="d" d="M395.95,185.454a.7.7,0,0,1,.732.421,1.208,1.208,0,0,1,0,.886,1.069,1.069,0,0,1-.227.4.583.583,0,0,1-.405.2.706.706,0,0,1-.562-.332,1.265,1.265,0,0,1-.191-1.046c.063-.238.235-.478.478-.484" transform="translate(-376.736 -155.929)"/><path class="g" d="M395.688,185.463h-.052a.363.363,0,0,0-.149.05.734.734,0,0,0-.311.468,1.279,1.279,0,0,0,.086.831,1.046,1.046,0,0,0,.3.4.58.58,0,0,0,.523.125.722.722,0,0,0,.418-.342,1.57,1.57,0,0,0,.175-.468,1.046,1.046,0,0,0-.136-.821.735.735,0,0,0-.473-.3.523.523,0,0,0-.157,0l-.052.016a.853.853,0,0,1,.2.013.709.709,0,0,1,.437.3.993.993,0,0,1,.112.784,1.42,1.42,0,0,1-.17.447.659.659,0,0,1-.376.309.523.523,0,0,1-.465-.112,1.046,1.046,0,0,1-.288-.371,1.26,1.26,0,0,1-.094-.784.714.714,0,0,1,.277-.455A.546.546,0,0,1,395.688,185.463Z" transform="translate(-376.651 -155.891)"/><path class="g" d="M395.276,193.022a.775.775,0,0,1,.073-.1.5.5,0,0,1,.23-.149,1.518,1.518,0,0,1,.288-.044c.076,0,.123,0,.123-.021s-.047-.021-.123-.029a.845.845,0,0,0-.309.029.457.457,0,0,0-.261.186C395.265,192.973,395.268,193.022,395.276,193.022Z" transform="translate(-376.746 -161.267)"/><path class="g" d="M394.88,184.76a.284.284,0,0,0,.084.1.685.685,0,0,0,.288.126.653.653,0,0,0,.311-.018c.078-.024.118-.055.115-.063a1.831,1.831,0,0,1-.413,0A1.673,1.673,0,0,1,394.88,184.76Z" transform="translate(-376.458 -155.42)"/><path class="g" d="M358.822,260.962c0,.039-4.481-.076-10.008-.261s-10-.353-10-.39,4.481.076,10.008.261S358.822,260.925,358.822,260.962Z" transform="translate(-335.048 -211.213)"/></g><g transform="translate(63.36 44.69)"><path class="g" d="M252.08,438.661l2.28,5.213s-3.111,2.377-2.876,3.347l9.959-2.973-2.353-8.019Z" transform="translate(-233.405 -343.432)"/><path class="g" d="M264,464.066c0,.05.241.071.465.227s.34.358.387.342,0-.3-.288-.489S263.976,464.011,264,464.066Z" transform="translate(-242.655 -363.953)"/><path class="g" d="M261.332,467.605c.047,0,.044-.261-.162-.494s-.463-.261-.471-.222.175.149.34.34S261.282,467.616,261.332,467.605Z" transform="translate(-240.22 -366.064)"/><path class="h" d="M257.132,445.524l.2,5.355s-5.373,2-5.433,2.994l10.4-.016.029-8.366Z" transform="translate(-233.721 -350.271)"/><path class="g" d="M267.87,467.57c0,.05.209.133.382.348s.222.442.275.439.081-.288-.139-.552S267.873,467.52,267.87,467.57Z" transform="translate(-245.516 -366.562)"/><path class="g" d="M264.367,470.143c.047,0,.118-.243-.013-.523s-.369-.387-.39-.345.126.191.227.421S264.317,470.138,264.367,470.143Z" transform="translate(-242.63 -367.831)"/><path class="c" d="M221.811,150.48a6.271,6.271,0,0,0-2.39,3.561c-.392,1.8-1.464,11.313-1.464,11.313l-1.877,3.66,1.226,2.915h0a4.487,4.487,0,0,0,2.936-.847l.824-.6,1.514-2.243Z" transform="translate(-207.266 -132.392)"/><path class="i" d="M243.939,154l1.543-.261s-3.255-8.986-5.19-9.865l-1.407-.646V143.2l-2.319-.946-2.714-1h0l-.207-.076.086.084-5.438.348-.424.322-2.79,1.459h0a5.576,5.576,0,0,0-2.369,1.88c-1.127,1.467-2.771,8.96-2.771,8.96l3.647,1.5.907,6.055-2.316,11.559,19.87-.379-4.3-12.006.667-6Z" transform="translate(-210.117 -125.524)"/><g class="j" transform="translate(14.037 37.409)"><path d="M236.06,225.421a16.924,16.924,0,0,0,6.476,1.59,3.951,3.951,0,0,0,2.309-.431,5.256,5.256,0,0,1,.837-.552,2.807,2.807,0,0,1,1.352-.039,9.128,9.128,0,0,0,3.15-.207.837.837,0,0,0,.426-.2.3.3,0,0,0,.013-.421.465.465,0,0,0-.275-.073l-14.181-.709Z" transform="translate(-236.06 -224.38)"/></g><path class="g" d="M231.129,173.6c.039,0,.322,1.859.633,4.165s.536,4.183.5,4.183-.322-1.859-.633-4.165S231.092,173.605,231.129,173.6Z" transform="translate(-218.378 -149.467)"/><path class="g" d="M250.66,150.649a1.1,1.1,0,0,1-.2-.193c-.125-.131-.3-.322-.523-.56l-.748-.842c-.277-.319-.591-.667-.884-1.061a4.515,4.515,0,0,1-.669-1.221,2.8,2.8,0,0,1-.141-1.132,1.94,1.94,0,0,1,.207-.737.785.785,0,0,1,.159-.233,2.57,2.57,0,0,0-.261.978,2.9,2.9,0,0,0,.165,1.082,4.672,4.672,0,0,0,.661,1.182c.288.39.6.737.871,1.059l.724.863c.2.246.366.447.478.588A1.366,1.366,0,0,1,250.66,150.649Z" transform="translate(-230.46 -128.101)"/><path class="g" d="M264.381,143.18a1.364,1.364,0,0,1-.031.316,4.444,4.444,0,0,1-.243.837,7.583,7.583,0,0,1-1.634,2.353c-.766.811-1.475,1.529-1.99,2.047l-.614.609a1.494,1.494,0,0,1-.238.212,1.39,1.39,0,0,1,.2-.248l.586-.638,1.958-2.076a8.124,8.124,0,0,0,1.645-2.29A9.519,9.519,0,0,0,264.381,143.18Z" transform="translate(-239.43 -127.001)"/><path class="c" d="M268.095,191.2l.63,3.517-8.385,1.234.484,3.859s10.356.567,11.5.314c1.446-.319,2.552-2.052,2.515-4.583a31.106,31.106,0,0,0-1.069-5.331Z" transform="translate(-239.955 -161.735)"/><path class="g" d="M286.182,150.046c0,.016-.183.021-.494.118a2.8,2.8,0,0,0-1.145.732,3.383,3.383,0,0,0-.876,1.8,5.025,5.025,0,0,0-.058,1.2,8.152,8.152,0,0,0,.207,1.281c.384,1.744.735,3.32.991,4.487.123.575.217,1.046.261,1.367.029.162.05.288.06.374a.43.43,0,0,1,0,.133s-.044-.178-.12-.5-.183-.8-.314-1.357c-.261-1.145-.648-2.722-1.03-4.479a8.163,8.163,0,0,1-.207-1.307,5.025,5.025,0,0,1,.068-1.231,3.417,3.417,0,0,1,.931-1.843,2.724,2.724,0,0,1,1.226-.711,2.169,2.169,0,0,1,.376-.063A.7.7,0,0,1,286.182,150.046Z" transform="translate(-257.019 -132.07)"/><path class="g" d="M248.217,262.7c0,.039-4.458.144-9.956.233s-9.961.136-9.961.1,4.445-.141,9.959-.233S248.217,262.666,248.217,262.7Z" transform="translate(-216.291 -215.264)"/><path class="i" d="M220.268,252.519l-4.426,23.371a13.933,13.933,0,0,0,.811,7.912l9.391,22.746,7.4-4.722-7.582-22.485,4.8-19.938L229.1,251.05Z" transform="translate(-206.91 -206.668)"/><path class="i" d="M246.875,257.838l3.386,26.875.586,21.792,8.424.131s-.3-22.074-.3-23.405V261.467a28.014,28.014,0,0,0,1.692-2.669c.484-.967,0-5.8,0-5.8s-1.8-3.679-8.584-2.552S246.875,257.838,246.875,257.838Z" transform="translate(-229.891 -206.062)"/><path class="g" d="M249.7,318.322a1.313,1.313,0,0,1,0-.133,3.47,3.47,0,0,0-.018-.4c-.016-.356-.037-.868-.063-1.524-.047-1.331-.115-3.245-.2-5.606s-.173-5.187-.277-8.317c-.058-1.569-.112-3.208-.193-4.907s-.183-3.464-.395-5.255c-.1-.9-.238-1.778-.384-2.646s-.3-1.723-.447-2.562c-.28-1.681-.507-3.31-.706-4.866-.395-3.106-.677-5.914-.936-8.267s-.486-4.259-.659-5.572c-.089-.651-.157-1.161-.2-1.511-.021-.167-.039-.3-.05-.392a.434.434,0,0,1,0-.136.536.536,0,0,0,.026.133c.026.089.037.222.065.392.055.342.136.85.227,1.506.191,1.307.434,3.213.7,5.569s.565,5.158.965,8.262c.2,1.553.434,3.179.716,4.86.146.839.3,1.694.45,2.56s.277,1.754.382,2.654c.214,1.8.311,3.561.395,5.263s.133,3.347.186,4.91c.094,3.137.178,5.948.248,8.317s.12,4.28.157,5.608c.016.659.029,1.171.037,1.527v.395A.332.332,0,0,1,249.7,318.322Z" transform="translate(-228.745 -217.879)"/><path class="g" d="M265.158,324.57c-.037,0-.661-11.164-1.391-24.935s-1.292-24.943-1.252-24.945.659,11.161,1.388,24.937S265.194,324.57,265.158,324.57Z" transform="translate(-241.559 -224.127)"/><path class="g" d="M266.206,267.046a.858.858,0,0,1-.173.225,3.578,3.578,0,0,1-.583.5,3.872,3.872,0,0,1-4.758-.235,3.4,3.4,0,0,1-.523-.56.952.952,0,0,1-.149-.238,7.893,7.893,0,0,0,.74.724,3.937,3.937,0,0,0,4.643.23A7.246,7.246,0,0,0,266.206,267.046Z" transform="translate(-239.718 -218.256)"/><path class="g" d="M231.965,316.488l-.06-.123L231.74,316l-.617-1.414c-.523-1.234-1.307-3.012-2.246-5.208s-2.052-4.829-3.289-7.742-2.588-6.123-3.922-9.527c-.078-.214-.159-.429-.241-.641a3.831,3.831,0,0,1-.141-.68,8.673,8.673,0,0,1-.042-1.352c.034-.894.136-1.767.246-2.615.241-1.71.552-3.344.871-4.894.643-3.1,1.331-5.872,1.922-8.194s1.111-4.183,1.475-5.477l.426-1.482c.05-.165.089-.29.115-.382a.994.994,0,0,1,.044-.131.439.439,0,0,1-.031.133c-.031.086-.058.222-.1.387-.094.348-.227.847-.4,1.49-.345,1.292-.847,3.164-1.43,5.491s-1.258,5.093-1.893,8.194c-.316,1.55-.622,3.184-.86,4.889-.11.852-.209,1.723-.243,2.615a8.708,8.708,0,0,0,.055,1.31,3.4,3.4,0,0,0,.133.648c.081.212.159.426.241.638,1.331,3.4,2.69,6.607,3.922,9.527s2.335,5.545,3.263,7.752l2.207,5.229c.261.614.455,1.093.594,1.422l.152.371A.756.756,0,0,0,231.965,316.488Z" transform="translate(-211.072 -217.901)"/><path class="g" d="M249.109,351.682a7.045,7.045,0,0,1-1.077-1.279,10.235,10.235,0,0,1-.952-1.383,10.8,10.8,0,0,1,1.046,1.307c.28.369.523.709.7.954A3.15,3.15,0,0,1,249.109,351.682Z" transform="translate(-230.161 -279.023)"/><g class="j" transform="translate(16.628 49.948)"><path d="M245.97,272.34l1.218,20.88,1.1,1.83.4-1.652Z" transform="translate(-245.97 -272.34)"/></g><g class="j" transform="translate(12.824 47.462)"><path d="M231.587,263.162l-.167.876H249.5l-.091-1.208Z" transform="translate(-231.42 -262.83)"/></g><path class="g" d="M182.37,207.44l12.116,4.487,10.215,1.561-12.144-5.919Z" transform="translate(-182.37 -174.46)"/><path class="k" d="M199.864,218.554a5.146,5.146,0,0,0-.643-1.83,1.4,1.4,0,0,1-.167-.345.4.4,0,0,1,.071-.363c.154-.167.439-.094.63.034a2.23,2.23,0,0,1,.816,1.143,6.67,6.67,0,0,1,.261,1.4" transform="translate(-194.679 -180.721)"/><path class="k" d="M205.542,215.461h-.593a1.171,1.171,0,0,0-.523-.3.416.416,0,0,0-.4.157c.261-.444.56-.933.614-1.067.11-.261-.131-.455-.523-.455s-2.1,2.429-2.1,2.429,1.067-1.953,1.169-2.254c.261-.745-.557-.8-.852-.439-.369.444-1.854,2.693-1.854,2.693a1.046,1.046,0,0,0-.089.889c.2.434.761.261.761.261a.727.727,0,0,0,.4.6,1.242,1.242,0,0,0,1.007-.039l2.217.5.8-.081a2.46,2.46,0,0,0,2.188-2.092h0Z" transform="translate(-195.633 -178.797)"/><path class="l" d="M210.665,220.84a7.236,7.236,0,0,1-.651,1.046c-.193.277-.369.523-.5.706a1.905,1.905,0,0,1-.222.28,1.868,1.868,0,0,1,.183-.309c.12-.186.293-.439.484-.716s.366-.523.494-.709l.154-.212C210.644,220.864,210.66,220.84,210.665,220.84Z" transform="translate(-202.252 -184.356)"/><path class="l" d="M214.05,223.4a2.035,2.035,0,0,1,.2-.361c.131-.22.316-.523.523-.847.1-.165.2-.322.28-.465a.546.546,0,0,0,.05-.413,1.017,1.017,0,0,0-.191-.353.293.293,0,0,1,.086.073.687.687,0,0,1,.152.261.578.578,0,0,1-.039.455c-.081.152-.178.309-.28.473-.2.332-.4.625-.539.837A3.3,3.3,0,0,1,214.05,223.4Z" transform="translate(-205.767 -184.445)"/><path class="l" d="M217.7,226.066a1.362,1.362,0,0,1,.118-.345l.159-.361a2.923,2.923,0,0,0,.162-.45.523.523,0,0,0-.071-.431.371.371,0,0,0-.157-.112.429.429,0,0,0-.165-.047.7.7,0,0,0-.241.084c-.055.029-.089.042-.089.037s.024-.026.076-.06a.99.99,0,0,1,.1-.06.4.4,0,0,1,.154-.05.5.5,0,0,1,.188.042.507.507,0,0,1,.186.125.578.578,0,0,1,.086.489,2.455,2.455,0,0,1-.173.458c-.063.136-.123.261-.17.358C217.765,225.941,217.713,226.069,217.7,226.066Z" transform="translate(-208.256 -186.89)"/><path class="l" d="M220.066,223.12a.246.246,0,0,1,.094.029,1.114,1.114,0,0,1,.23.136,1.258,1.258,0,0,1,.358,1.605.973.973,0,0,1-.152.222c-.042.047-.071.068-.073.065a1.909,1.909,0,0,0,.18-.309,1.279,1.279,0,0,0-.345-1.548C220.191,223.18,220.047,223.13,220.066,223.12Z" transform="translate(-210.209 -186.04)"/><path class="l" d="M202.141,218.24a12.636,12.636,0,0,1-1.061,1.569A13.18,13.18,0,0,1,202.141,218.24Z" transform="translate(-196.188 -182.436)"/><path class="k" d="M237.439,207.222l-1.383-.314-1.336-1.252a.952.952,0,0,0-.593-.261l-2.421-.139a.949.949,0,0,0-.664.222l-1.731,1.462,7.553,3.686,1.046.091Z" transform="translate(-217.037 -172.846)"/><path class="l" d="M236.185,209.88s-.18-.021-.468-.058a2.029,2.029,0,0,0-1.1.112,2.918,2.918,0,0,0-.523.327c-.152.115-.29.222-.41.3a2.48,2.48,0,0,1-.3.175.4.4,0,0,1-.118.042,2.973,2.973,0,0,0,.39-.261c.115-.086.261-.2.4-.314a2.686,2.686,0,0,1,.523-.34,1.605,1.605,0,0,1,.62-.139,2.706,2.706,0,0,1,.523.039,3.414,3.414,0,0,1,.337.071A.4.4,0,0,1,236.185,209.88Z" transform="translate(-219.962 -176.149)"/><path class="l" d="M241.549,215.142a1.4,1.4,0,0,0-.261-.047,1.367,1.367,0,0,0-.622.086,3.161,3.161,0,0,0-.57.293,1.179,1.179,0,0,1-.235.131.933.933,0,0,1,.207-.173,2.387,2.387,0,0,1,.575-.316,1.237,1.237,0,0,1,.651-.071A.547.547,0,0,1,241.549,215.142Z" transform="translate(-224.829 -180.065)"/><path class="l" d="M255.6,212.79c-.016,0-.212-.28-.468-.622a7.739,7.739,0,0,1-.463-.627A4.678,4.678,0,0,1,255.6,212.79Z" transform="translate(-235.767 -177.488)"/><path class="i" d="M241.036,196.322l3.069-2.858a.293.293,0,0,0-.021-.447h0a.293.293,0,0,0-.374.013l-3.6,3.226" transform="translate(-225.014 -163.763)"/><g class="j" transform="translate(15.096 29.193)"><path d="M241.036,196.322l3.069-2.858a.293.293,0,0,0-.021-.447h0a.293.293,0,0,0-.374.013l-3.6,3.226" transform="translate(-240.11 -192.956)"/></g><path class="g" d="M241.173,87.972a3.66,3.66,0,0,1,.808-3.252,4.772,4.772,0,0,1,2.228-1.326,5.156,5.156,0,0,1,3.456.078,3.389,3.389,0,0,1,2.092,2.638,7.358,7.358,0,0,0,.128,1.592,1.184,1.184,0,0,1,.133.669.552.552,0,0,1-.478.363,1.242,1.242,0,0,1-.617-.125,6.672,6.672,0,0,1-1.754-1.26" transform="translate(-225.726 -82.654)"/><path class="k" d="M241.057,93.868c.107-1.658,1.211-3.686,2.86-3.509l5.151,1.307a.973.973,0,0,1,.865.986l-.578,12.427h0l-3.373,4s-2.154-2.507-2.29-3.268h0a2.094,2.094,0,0,1-.037-.261,8.135,8.135,0,0,1-.021-1.7h0v-1.407a3.423,3.423,0,0,1-2.547-3.117A28.476,28.476,0,0,1,241.057,93.868Z" transform="translate(-225.629 -87.982)"/><path class="g" d="M244.5,110.566a.358.358,0,0,0,.343.358.343.343,0,0,0,.366-.319.356.356,0,0,0-.343-.358.34.34,0,0,0-.366.319Z" transform="translate(-228.256 -102.678)"/><path class="g" d="M243.222,107.241c.042.047.311-.152.693-.149s.659.193.7.146-.024-.1-.146-.193a.96.96,0,0,0-.56-.175.944.944,0,0,0-.552.178C243.241,107.137,243.2,107.22,243.222,107.241Z" transform="translate(-227.308 -100.184)"/><path class="g" d="M258.83,110.565a.356.356,0,0,0,.34.358.34.34,0,0,0,.366-.319.353.353,0,0,0-.34-.358.337.337,0,0,0-.366.319Z" transform="translate(-238.839 -102.677)"/><path class="g" d="M257.545,107.551c.044.044.314-.152.693-.152s.661.193.7.146-.024-.1-.146-.193a1,1,0,0,0-.562-.173.928.928,0,0,0-.552.175C257.563,107.447,257.524,107.53,257.545,107.551Z" transform="translate(-237.886 -100.413)"/><path class="g" d="M249.523,110.423a2.57,2.57,0,0,0-.62-.112c-.1,0-.188-.031-.2-.1a.489.489,0,0,1,.065-.288c.092-.235.188-.481.288-.74a12.451,12.451,0,0,0,.651-1.937,12.964,12.964,0,0,0-.805,1.88l-.277.745a.562.562,0,0,0-.05.382.238.238,0,0,0,.159.141.58.58,0,0,0,.165.024A2.429,2.429,0,0,0,249.523,110.423Z" transform="translate(-231.253 -100.464)"/><path class="l" d="M251.2,133.868a7,7,0,0,0,3.7-.978,3.567,3.567,0,0,1-3.694,1.645Z" transform="translate(-233.204 -119.401)"/><path class="l" d="M252.747,122.15a.685.685,0,0,1,.614-.261.63.63,0,0,1,.434.235.4.4,0,0,1,.029.452.458.458,0,0,1-.5.126,1.441,1.441,0,0,1-.486-.29.418.418,0,0,1-.11-.115.126.126,0,0,1,0-.141" transform="translate(-234.317 -111.274)"/><path class="g" d="M253.092,120.41c-.06,0-.063.41-.416.7s-.784.246-.8.3.1.081.285.086a1.046,1.046,0,0,0,.667-.23.915.915,0,0,0,.324-.591C253.168,120.509,253.12,120.407,253.092,120.41Z" transform="translate(-233.702 -110.184)"/><path class="g" d="M256.9,105.206c.037.1.418.055.865.11s.808.178.868.086c.026-.044-.037-.141-.183-.243a1.511,1.511,0,0,0-1.307-.149C256.973,105.086,256.889,105.167,256.9,105.206Z" transform="translate(-237.416 -98.748)"/><path class="g" d="M243.753,102.985c.068.086.329,0,.646,0s.583.06.643-.031c.029-.042-.013-.131-.131-.212a.9.9,0,0,0-.523-.144.918.918,0,0,0-.523.173C243.761,102.852,243.725,102.941,243.753,102.985Z" transform="translate(-227.697 -97.029)"/><path class="g" d="M257.271,97.115c-.716.3-1.354-1.911-2.011-2.322s-1.307.988-1.37.214c-.044-.68.183-1.428-.17-2.013-.468-.784-1.684-.8-2.157-1.569-.261-.447-.22-1.046-.523-1.477a1.778,1.778,0,0,0-1.284-.651,4.623,4.623,0,0,1-1.441-.319,1.065,1.065,0,0,1-.622-1.2,26.2,26.2,0,0,1,6.2.288,2.333,2.333,0,0,1,1.307.523,2.581,2.581,0,0,1,.523,1.407c.361,2.455,1.174,4.664,1.532,7.119" transform="translate(-230.585 -86.032)"/><path class="i" d="M240.976,87.548c.139-1.618,1.111-3.66,2.583-4.361a4.544,4.544,0,0,1,4.547.154c1.448,1,1.83,2.675,2.016,4.424a9.653,9.653,0,0,1-.5,4.092l-.175,3.768c1.012,1.153,2.335-.152,2.528-.243a8.52,8.52,0,0,0,1.009-1.49c1.046-1.971-.57-2.262-.293-3.37a5.373,5.373,0,0,0-.207-3.36c-.209-.5-.5-.96-.672-1.469-.186-.56-.212-1.166-.444-1.707a3.119,3.119,0,0,0-1.333-1.422,6.447,6.447,0,0,0-1.859-.667c-1.493-.335-2.484-.91-3.922-.384a4.638,4.638,0,0,0-3.109,3.156,6.8,6.8,0,0,0-.173,2.876" transform="translate(-225.593 -81.298)"/><path class="g" d="M243.41,86.662a.755.755,0,0,1,.089-.154,3.4,3.4,0,0,1,.311-.408,4.758,4.758,0,0,1,1.488-1.153,4.677,4.677,0,0,1,2.74-.452,4.86,4.86,0,0,1,2.978,1.613,6.327,6.327,0,0,1,1.344,3.137,10.32,10.32,0,0,1,.1,2.792,5.871,5.871,0,0,1-.478,1.83,3.737,3.737,0,0,1-.238.455.731.731,0,0,1-.1.146,6.089,6.089,0,0,0,.293-.622,6.311,6.311,0,0,0,.431-1.809,10.644,10.644,0,0,0-.131-2.761,6.254,6.254,0,0,0-1.326-3.059,4.782,4.782,0,0,0-2.892-1.569,4.612,4.612,0,0,0-2.68.416,4.918,4.918,0,0,0-1.49,1.1C243.564,86.461,243.42,86.67,243.41,86.662Z" transform="translate(-227.451 -83.626)"/><path class="g" d="M277.062,132.8a.776.776,0,0,1-.327.261,1.754,1.754,0,0,1-1.007.209,1.773,1.773,0,0,1-.946-.4c-.2-.173-.282-.319-.261-.329a3.493,3.493,0,0,1,.329.261,1.843,1.843,0,0,0,1.848.18C276.924,132.888,277.049,132.789,277.062,132.8Z" transform="translate(-250.425 -119.148)"/><path class="g" d="M276.364,124.844a6.089,6.089,0,0,1-.609-.523,5.993,5.993,0,0,1-.625-.492,1.537,1.537,0,0,1,.711.387A1.511,1.511,0,0,1,276.364,124.844Z" transform="translate(-250.878 -112.71)"/><path class="g" d="M278.317,116.71a1.227,1.227,0,0,0-.847-1.062c0-.016.092-.031.233,0a.936.936,0,0,1,.46.311.952.952,0,0,1,.209.523C278.367,116.629,278.333,116.713,278.317,116.71Z" transform="translate(-252.606 -106.654)"/><path class="g" d="M278.776,114.344c-.034.018-.131-.118-.29-.23s-.311-.17-.306-.209.2-.042.387.1S278.81,114.331,278.776,114.344Z" transform="translate(-253.13 -105.363)"/><path class="g" d="M272.966,89.53c.013.037-.1.107-.222.2s-.225.18-.261.157.031-.157.175-.261S272.956,89.5,272.966,89.53Z" transform="translate(-248.915 -87.368)"/><path class="g" d="M271.923,89.084c.024.029-.026.115-.115.191s-.18.118-.2.089.026-.115.115-.191S271.9,89.055,271.923,89.084Z" transform="translate(-248.269 -87.042)"/><path class="k" d="M272.3,114.77c0-.207.241-.69.442-.722.544-.084,1.522-.037,1.527,1.339a1.416,1.416,0,0,1-1.888,1.448C272.376,116.78,272.3,115.478,272.3,114.77Z" transform="translate(-248.787 -105.467)"/><path class="l" d="M274.794,117.8s.034.021.089.047a.324.324,0,0,0,.246,0,.816.816,0,0,0,.371-.729,1.117,1.117,0,0,0-.094-.468.377.377,0,0,0-.248-.261.165.165,0,0,0-.193.092c-.024.052-.013.089-.021.092s-.042-.029-.026-.107a.194.194,0,0,1,.073-.118.235.235,0,0,1,.18-.05.458.458,0,0,1,.345.29,1.1,1.1,0,0,1,.115.523.835.835,0,0,1-.473.816.345.345,0,0,1-.3-.047C274.8,117.841,274.786,117.8,274.794,117.8Z" transform="translate(-250.627 -107.142)"/><path class="e" d="M247.931,121.24s-2.209,1.984-4.34,1.692a3.818,3.818,0,0,1-2.876-1.692s-.337,2.037.607,3.046c1.046,1.119,1.524,1.428,3.744,1.046s3.42-2.9,3.42-2.9Z" transform="translate(-225.417 -110.797)"/><path class="e" d="M269.548,115a7.752,7.752,0,0,1-1.158,1.686,4.052,4.052,0,0,1,.523-.881A3.922,3.922,0,0,1,269.548,115Z" transform="translate(-245.9 -106.189)"/><path class="e" d="M271.508,124.9c0,.039-.207.078-.455.136s-.45.115-.465.078.173-.149.437-.209S271.508,124.868,271.508,124.9Z" transform="translate(-247.522 -113.479)"/><path class="g" d="M247.594,124.938a1.462,1.462,0,0,1-.2.238,5.971,5.971,0,0,1-.641.562,4.949,4.949,0,0,1-2.586,1.067,3.53,3.53,0,0,1-2.63-.884,2.444,2.444,0,0,1-.523-.675,1.108,1.108,0,0,1-.12-.29,3.82,3.82,0,0,0,.709.894,3.545,3.545,0,0,0,2.557.818,5.185,5.185,0,0,0,2.541-1.007C247.269,125.246,247.575,124.92,247.594,124.938Z" transform="translate(-225.59 -113.528)"/><path class="g" d="M250.43,130.274a1.83,1.83,0,0,1-.523.369,4.2,4.2,0,0,1-3.041.343,1.9,1.9,0,0,1-.6-.243c0-.021.238.068.62.149a4.738,4.738,0,0,0,2.97-.335C250.215,130.392,250.417,130.253,250.43,130.274Z" transform="translate(-229.563 -117.468)"/></g><g transform="translate(38.831 43.196)"><path class="g" d="M126.611,77.522a2.434,2.434,0,0,1,1.707-1.739,2.9,2.9,0,0,1,2.664.285,6.189,6.189,0,0,0,1.53,1.046c.986.282,2.092-.5,3.03-.12a1.32,1.32,0,0,1-.486,2.547,1.174,1.174,0,0,1,.549,1.668,1.759,1.759,0,0,1-1.749.748,3.694,3.694,0,0,1-1.788-.878c-.523-.421-1-.9-1.556-1.281a2.876,2.876,0,0,0-1.888-.578,2.637,2.637,0,0,0-2.005,1.66,6.779,6.779,0,0,0-.4,2.683,11.109,11.109,0,0,1-.188,2.716.345.345,0,0,1-.167.261c-.144.052-.28-.1-.358-.23a13.311,13.311,0,0,1-1.786-4.884,4.143,4.143,0,0,1,.324-2.832c.507-.876,1.869-1.569,2.583-1.08" transform="translate(-114.449 -75.583)"/><path class="m" d="M124.98,105.6c-.047-.018-1.83-.489-1.731,1.326a1.363,1.363,0,0,0,1.906,1.279C125.155,108.149,124.98,105.6,124.98,105.6Z" transform="translate(-114.174 -97.7)"/><path class="n" d="M125.863,109.235a.585.585,0,0,1-.081.052.311.311,0,0,1-.235.018.784.784,0,0,1-.405-.68,1.046,1.046,0,0,1,.063-.458.366.366,0,0,1,.222-.261.165.165,0,0,1,.193.076c.026.047.016.086.026.089s.037-.034.018-.107a.2.2,0,0,0-.078-.11.235.235,0,0,0-.178-.037.45.45,0,0,0-.314.3,1.093,1.093,0,0,0-.078.523.821.821,0,0,0,.507.756.337.337,0,0,0,.288-.065C125.863,109.279,125.871,109.237,125.863,109.235Z" transform="translate(-115.478 -99.387)"/><path class="m" d="M132.947,81.516a4.892,4.892,0,0,1,5.229,4.622c.12,2.272.225,4.73.2,5.969a3.19,3.19,0,0,1-2.714,3.049s.058.784.123,1.765a3.5,3.5,0,0,1-3.36,3.734h0a3.5,3.5,0,0,1-3.629-3.368l-.395-10.72a4.892,4.892,0,0,1,4.549-5.062Z" transform="translate(-117.979 -79.956)"/><path class="n" d="M146.569,130.766a6.333,6.333,0,0,1-3.4-1.046,3.273,3.273,0,0,0,3.456,1.715Z" transform="translate(-128.89 -115.566)"/><path class="g" d="M160.246,105.4a.379.379,0,0,1-.369.382.363.363,0,0,1-.387-.345.382.382,0,0,1,.369-.382.361.361,0,0,1,.387.345Z" transform="translate(-140.943 -97.35)"/><path class="g" d="M159.048,101.685c-.047.047-.335-.167-.743-.17s-.709.2-.753.149.026-.11.157-.2a1.046,1.046,0,0,1,.6-.18,1,1,0,0,1,.591.2C159.03,101.572,159.071,101.661,159.048,101.685Z" transform="translate(-139.502 -94.561)"/><path class="g" d="M145.166,105.182a.376.376,0,0,1-.369.379.361.361,0,0,1-.387-.345.382.382,0,0,1,.369-.379.361.361,0,0,1,.387.345Z" transform="translate(-129.805 -97.188)"/><path class="g" d="M143.748,101.862c-.047.05-.332-.165-.74-.167s-.711.2-.753.149.026-.11.157-.2a1.03,1.03,0,0,1,.6-.18.988.988,0,0,1,.588.193A.376.376,0,0,1,143.748,101.862Z" transform="translate(-128.205 -94.694)"/><path class="g" d="M153.066,105.01a2.651,2.651,0,0,1,.664-.115c.1,0,.2-.029.22-.1a.523.523,0,0,0-.065-.311c-.1-.261-.2-.523-.3-.784a13.088,13.088,0,0,1-.675-2.092,13.179,13.179,0,0,1,.842,2.024l.288.8a.593.593,0,0,1,.052.408.261.261,0,0,1-.173.152.667.667,0,0,1-.178.024A2.646,2.646,0,0,1,153.066,105.01Z" transform="translate(-136.077 -94.804)"/><path class="g" d="M148.727,115.67c.068,0,.065.439.442.756s.85.261.852.335-.107.086-.306.089a1.1,1.1,0,0,1-.711-.261.967.967,0,0,1-.342-.635C148.646,115.774,148.7,115.667,148.727,115.67Z" transform="translate(-132.943 -105.189)"/><path class="g" d="M142.961,97.007c-.042.11-.45.055-.928.107s-.868.183-.931.081c-.029-.047.039-.152.2-.261a1.616,1.616,0,0,1,1.417-.146C142.9,96.866,142.979,96.955,142.961,97.007Z" transform="translate(-127.357 -91.17)"/><path class="g" d="M159.16,96.982c-.073.092-.353,0-.693,0s-.625.058-.69-.042c-.029-.047.018-.139.144-.225a.967.967,0,0,1,.565-.149.983.983,0,0,1,.549.191C159.152,96.841,159.191,96.941,159.16,96.982Z" transform="translate(-139.671 -91.08)"/><path class="g" d="M137.845,84.073c-.523.748-2.562.444-3.585-.324a5.849,5.849,0,0,0-2.217-1.161,2.277,2.277,0,0,0-1.726.34,4.385,4.385,0,0,0-1.252,1.292,7.617,7.617,0,0,1,.076,4.5.769.769,0,0,1-.2.455.624.624,0,0,1-.784-.123,2.369,2.369,0,0,1-.593-1.218,7.844,7.844,0,0,1-.165-3.106,5.37,5.37,0,0,1,1.307-2.795,5.1,5.1,0,0,1,3.485-1.569,6.275,6.275,0,0,1,3.694,1.08,3.661,3.661,0,0,1,1.255,1.286" transform="translate(-117.182 -79.112)"/><path class="i" d="M112.134,444.85l.125,5.349s-5.4,1.922-5.47,2.913l10.38.133.152-8.343Z" transform="translate(-102.021 -348.304)"/><g class="o" transform="translate(12.945 101.477)"><path class="a" d="M138.569,463.721a.424.424,0,0,1,.285.486.405.405,0,0,1-.478.29.452.452,0,0,1-.3-.523.424.424,0,0,1,.523-.243" transform="translate(-138.063 -463.711)"/></g><g class="o" transform="translate(4.765 104.11)"><path class="a" d="M117.159,474.622l-.016-.842-9.948.188s-.465.193-.416.523Z" transform="translate(-106.776 -473.78)"/></g><path class="g" d="M127.068,464.943c0,.05.261.076.5.243s.379.382.426.361-.026-.314-.329-.523S127.05,464.9,127.068,464.943Z" transform="translate(-116.997 -363.103)"/><path class="g" d="M122.88,466.712c0,.05.207.139.376.353s.214.444.261.444.086-.288-.131-.554S122.883,466.662,122.88,466.712Z" transform="translate(-113.904 -364.435)"/><path class="g" d="M119.357,469.229c.047,0,.12-.241,0-.523s-.361-.392-.384-.35.123.193.225.424S119.308,469.224,119.357,469.229Z" transform="translate(-111.017 -365.658)"/><path class="g" d="M127.475,459.919c.018.047.261-.018.539,0s.523.118.536.073-.186-.225-.523-.248S127.448,459.879,127.475,459.919Z" transform="translate(-117.296 -359.302)"/><path class="g" d="M127.46,453.986a.978.978,0,0,0,.523,0,2.382,2.382,0,0,0,.544-.159,2.73,2.73,0,0,0,.3-.154.69.69,0,0,0,.159-.12.217.217,0,0,0,.026-.261.275.275,0,0,0-.22-.12.733.733,0,0,0-.2.024,2.246,2.246,0,0,0-.324.107,1.906,1.906,0,0,0-.484.309c-.243.22-.329.408-.311.418s.141-.139.39-.322a2.091,2.091,0,0,1,.468-.261,1.72,1.72,0,0,1,.3-.089c.11-.026.2-.026.233.024s0,.026-.013.058a.487.487,0,0,1-.115.086,2.7,2.7,0,0,1-.277.154,2.758,2.758,0,0,1-.5.186A4.063,4.063,0,0,0,127.46,453.986Z" transform="translate(-117.287 -354.449)"/><path class="g" d="M125.825,451.92a.844.844,0,0,0,.141-.5,1.626,1.626,0,0,0-.063-.57,1.784,1.784,0,0,0-.128-.316.424.424,0,0,0-.329-.261.238.238,0,0,0-.217.141.68.68,0,0,0-.058.191,1.127,1.127,0,0,0,0,.35,1.19,1.19,0,0,0,.214.539c.2.261.41.335.413.319a2.035,2.035,0,0,1-.309-.387,1.2,1.2,0,0,1-.159-.492,1.156,1.156,0,0,1,0-.3c.018-.112.06-.2.1-.188a.368.368,0,0,1,.18.173,1.693,1.693,0,0,1,.125.285,1.861,1.861,0,0,1,.094.523C125.854,451.721,125.8,451.909,125.825,451.92Z" transform="translate(-115.587 -352.307)"/><path class="i" d="M184.835,445.594l-.2,5.347s5.368,2,5.428,2.991l-10.382-.016-.029-8.346Z" transform="translate(-155.832 -348.836)"/><g class="o" transform="translate(25.291 101.624)"><path class="a" d="M185.585,464.3a.424.424,0,0,0-.3.484.411.411,0,0,0,.476.3.445.445,0,0,0,.309-.523.418.418,0,0,0-.523-.261" transform="translate(-185.282 -464.273)"/></g><g class="o" transform="translate(23.847 104.238)"><path class="a" d="M179.76,475.112l.029-.842,9.935.332s.463.2.41.523Z" transform="translate(-179.76 -474.27)"/></g><path class="g" d="M196.68,465.779c0,.05-.261.073-.507.235s-.382.376-.429.356.029-.314.335-.5S196.69,465.732,196.68,465.779Z" transform="translate(-167.708 -363.727)"/><path class="g" d="M201.612,467.58c0,.05-.209.133-.382.348s-.222.442-.261.439-.084-.288.136-.552S201.609,467.53,201.612,467.58Z" transform="translate(-171.553 -365.075)"/><path class="g" d="M205.706,470.153c-.047,0-.118-.243.013-.523s.369-.387.39-.345-.125.191-.23.418S205.755,470.148,205.706,470.153Z" transform="translate(-175.029 -366.344)"/><path class="g" d="M196,460.724c-.021.044-.261-.024-.539,0s-.51.107-.523.065.188-.225.523-.243S196.029,460.684,196,460.724Z" transform="translate(-167.123 -359.895)"/><path class="g" d="M194.641,454.766a.973.973,0,0,1-.523,0,2.354,2.354,0,0,1-.541-.17,2.391,2.391,0,0,1-.3-.159.6.6,0,0,1-.157-.12.225.225,0,0,1-.021-.261.282.282,0,0,1,.222-.115.6.6,0,0,1,.193.029,1.683,1.683,0,0,1,.324.11,1.874,1.874,0,0,1,.478.316c.241.222.322.413.306.424s-.141-.144-.384-.327a2.139,2.139,0,0,0-.465-.261,1.9,1.9,0,0,0-.3-.091c-.11-.029-.2-.029-.23.018s0,.026,0,.06a.566.566,0,0,0,.115.089,2.443,2.443,0,0,0,.261.157,2.951,2.951,0,0,0,.5.193A3.233,3.233,0,0,1,194.641,454.766Z" transform="translate(-165.74 -355.017)"/><path class="g" d="M198.451,452.72a.837.837,0,0,1-.136-.5,1.7,1.7,0,0,1,.071-.567,1.816,1.816,0,0,1,.133-.316.431.431,0,0,1,.332-.261.241.241,0,0,1,.217.146.72.72,0,0,1,.055.188,1.122,1.122,0,0,1,0,.35,1.182,1.182,0,0,1-.222.539c-.2.261-.416.329-.418.311a2.173,2.173,0,0,0,.316-.382,1.226,1.226,0,0,0,.165-.489,1.066,1.066,0,0,0,0-.3c-.016-.11-.058-.2-.1-.188a.387.387,0,0,0-.183.17,1.686,1.686,0,0,0-.128.282,1.9,1.9,0,0,0-.1.523C198.425,452.521,198.493,452.712,198.451,452.72Z" transform="translate(-169.616 -352.898)"/><path class="g" d="M126.225,247.272l7.859,56.38-7.624-.149-8.432-47.237,1.854,47.461-8.348-.515L108.6,246.93Z" transform="translate(-103.358 -202.131)"/><path class="i" d="M128.589,139.493l-.1-3.153a3.818,3.818,0,0,0,3.909,2.847c3.137-.034,3.077-2.541,3.077-2.541l.112,1.271v5.132l-2.045,8.366-2.615.332L128.05,140.3Z" transform="translate(-117.723 -120.455)"/><path class="g" d="M136.708,143.572a.345.345,0,0,1-.037.068,1.832,1.832,0,0,1-.126.183,2.68,2.68,0,0,1-.583.565,3.4,3.4,0,0,1-1.09.523,3.836,3.836,0,0,1-1.472.1,4.79,4.79,0,0,1-1.414-.426,6.218,6.218,0,0,1-1.033-.622,7.092,7.092,0,0,1-.625-.523c-.071-.065-.123-.118-.16-.154s-.052-.055-.05-.058l.06.047.167.144c.144.126.358.3.635.5a6.5,6.5,0,0,0,1.03.607,4.871,4.871,0,0,0,1.4.413,3.82,3.82,0,0,0,1.448-.094,3.4,3.4,0,0,0,1.08-.492,2.959,2.959,0,0,0,.591-.544C136.645,143.659,136.7,143.57,136.708,143.572Z" transform="translate(-119.251 -125.544)"/><path class="c" d="M114.671,181.853l.047-13.533-.058-17.669-4.445-10.863-.141-3.268-2.573,1.956s-3.749,12.905-3.807,12.456.9,11.465.9,11.465l-1.48,20.069Z" transform="translate(-99.311 -120.588)"/><path class="c" d="M149.872,138.473c-.756-1.32-1.148-1.184-1.148-1.184l.039.471v.991l-.358,4.243L146,150.95l.374,17.617.894,13.93,11.122-.91L154.523,162.4l1.388-13.25-.1-7.3Z" transform="translate(-130.98 -121.153)"/><path class="g" d="M116.76,253.149a1.4,1.4,0,0,1-.162.261,5.208,5.208,0,0,1-.549.659,5.775,5.775,0,0,1-5.2,1.655,5.254,5.254,0,0,1-.829-.222,1.263,1.263,0,0,1-.288-.128c0-.026.424.146,1.132.261a6.013,6.013,0,0,0,5.122-1.621C116.5,253.512,116.74,253.133,116.76,253.149Z" transform="translate(-104.193 -206.723)"/><path class="i" d="M115.456,257.683a3.262,3.262,0,0,0-.133-.523l1.171-.682a3.828,3.828,0,0,0-2.272-.628,4.3,4.3,0,0,0-2,.771,1.328,1.328,0,0,0-.387.261.732.732,0,0,0-.1.071,1.106,1.106,0,0,0-.146.146h0a2.167,2.167,0,0,0-.41,1.03,7.661,7.661,0,0,0-.044,2.382c.042.3.157.661.458.719a.473.473,0,0,0,.46-.214,6.386,6.386,0,0,0,.1,1.022c.047.261.173.565.434.573s.416-.322.463-.591a6.4,6.4,0,0,0,.071-1.731,3.1,3.1,0,0,1,.139.965c.047.324.3.68.62.614s.413-.458.447-.784c.084-.839.17-1.681.261-2.52a6.666,6.666,0,0,1,.293.941c.128.3.539.549.784.322a.682.682,0,0,0,.1-.612C115.649,258.71,115.555,258.2,115.456,257.683Z" transform="translate(-105.17 -208.716)"/><path class="g" d="M115,281.183a1.58,1.58,0,0,1-.246.261,5.084,5.084,0,0,1-.769.6,3.8,3.8,0,0,1-1.344.539,2.855,2.855,0,0,1-1.754-.22,2.458,2.458,0,0,1-1.182-1.307,4.2,4.2,0,0,1-.29-1.417,9.032,9.032,0,0,1,.016-.973,1.875,1.875,0,0,1,.039-.353c.029,0,0,.51.042,1.307a4.264,4.264,0,0,0,.309,1.373,2.353,2.353,0,0,0,1.127,1.237,2.8,2.8,0,0,0,1.673.22,3.9,3.9,0,0,0,1.307-.5A12.437,12.437,0,0,0,115,281.183Z" transform="translate(-103.953 -225.307)"/><path class="g" d="M164.508,253.735a1.265,1.265,0,0,1-.167.126,3.361,3.361,0,0,1-.5.261,4.9,4.9,0,0,1-3.673.076,3.892,3.892,0,0,1-.523-.243c-.115-.071-.175-.11-.173-.12s.261.12.719.261a5.373,5.373,0,0,0,3.6-.073C164.241,253.868,164.495,253.714,164.508,253.735Z" transform="translate(-140.928 -207.155)"/><path class="g" d="M146.626,207.424a.92.92,0,0,1-.016-.193v-.554c0-.5-.016-1.19-.029-2.042-.026-1.736-.063-4.107-.1-6.73s-.086-5-.115-6.735c0-.85-.021-1.543-.026-2.039v-.554a.97.97,0,0,1,0-.2,1.046,1.046,0,0,1,.018.193c0,.141.016.324.026.554.018.5.042,1.19.071,2.042.05,1.72.11,4.1.154,6.732s.068,5.009.065,6.732c0,.863,0,1.569-.016,2.042,0,.23,0,.416-.013.554A1.57,1.57,0,0,1,146.626,207.424Z" transform="translate(-131.224 -158.889)"/><path class="d" d="M120.02,152.1l.523.395-.369,2.408,6.17,6.463-5.6-7.357.478-1.909Z" transform="translate(-111.792 -132.094)"/><path class="c" d="M104.035,163.434l-9.467-2.777-.314-7.19L96.845,144s-6.183,3.08-6.6,5.046a65.843,65.843,0,0,0-1.545,10.2c-.1,3.088-.11,5.151.593,6.136,1.184,1.658,6.259,2.73,11.324,2.484a20.652,20.652,0,0,0,9.316-2.489" transform="translate(-88.622 -126.112)"/><path class="g" d="M126.376,150.021l-.031-.034-.086-.1-.319-.418-1.171-1.522L120.92,142.9l-.29-.382v-.029c.165-.659.324-1.307.478-1.906l.031.039H119.9v-2.17h0l1.862-1.414.523-.382.136-.1.047-.031-.044.037-.128.1-.5.395-1.848,1.433v2.1l-.018-.029h1.239v.039c-.154.609-.314,1.25-.478,1.909v-.029l.29.379,3.833,5.051,1.156,1.535.311.418.081.112Z" transform="translate(-111.704 -120.595)"/><path class="c" d="M144.033,154.74a6.524,6.524,0,0,1,2.439,4.322c.157,2.165.523,8.105.586,9.384.1,2.011-1.464,6.717-5.538,5.383-2.442-.8-11.47-3.87-11.47-3.87l.6-3.833,10.72.638.212-8.936Z" transform="translate(-119.2 -134.044)"/><path class="m" d="M116.7,199.415a23.22,23.22,0,0,0-3.736-.159,5.165,5.165,0,0,0-1.637.991l.016,1.2,4.879,1.37Z" transform="translate(-105.374 -166.886)"/><path class="g" d="M146.43,150.8l.016-.039a.5.5,0,0,1,.044-.12c.044-.107.1-.261.18-.452.162-.4.395-.962.68-1.663s.633-1.535,1.014-2.46c.1-.23.191-.471.311-.706s.248-.471.387-.706a15.667,15.667,0,0,1,.965-1.391c.175-.225.35-.444.523-.654v.034l-.376-.962v-.031h.034l1.569-.539-.016.044-1.783-3a2.335,2.335,0,0,0-.6-.784.85.85,0,0,0-.241-.1l-.089-.021h.092a.745.745,0,0,1,.246.089,1.106,1.106,0,0,1,.306.3,5.12,5.12,0,0,1,.314.473l1.8,3,.018.034h-.034l-1.569.541.018-.042c.123.314.261.633.379.96v.018l-.013.016c-.18.209-.358.429-.523.654a16.059,16.059,0,0,0-.96,1.383c-.139.233-.275.465-.387.7s-.214.468-.311.7l-1.027,2.455c-.3.7-.523,1.26-.7,1.655l-.193.447-.052.118C146.438,150.78,146.433,150.8,146.43,150.8Z" transform="translate(-131.297 -121.127)"/><path class="g" d="M131.557,212.271l-.037.039-.115.112a3.623,3.623,0,0,1-.494.374,3.331,3.331,0,0,1-.9.376,3.59,3.59,0,0,1-1.289.081,4.1,4.1,0,0,1-.74-.154c-.261-.081-.5-.18-.771-.261-.523-.191-1.1-.39-1.694-.6-1.195-.418-2.513-.865-3.9-1.323-2.777-.912-5.31-1.681-7.148-2.23l-2.175-.643-.591-.175-.154-.047-.052-.018h.055l.154.042.6.165c.523.144,1.26.356,2.181.622,1.83.523,4.377,1.307,7.156,2.212,1.391.455,2.709.907,3.9,1.328.6.212,1.163.413,1.694.609.261.094.523.193.766.261a4.008,4.008,0,0,0,.729.157,3.6,3.6,0,0,0,1.276-.071,3.339,3.339,0,0,0,.9-.363,3.835,3.835,0,0,0,.5-.361l.12-.107C131.541,212.281,131.557,212.268,131.557,212.271Z" transform="translate(-105.492 -173.232)"/><path class="g" d="M104.636,207.687c0,.013-.173-.024-.442,0a1.987,1.987,0,0,0-.471.076,2.181,2.181,0,0,0-.523.241,2.468,2.468,0,0,0-.735.753c-.144.233-.207.392-.217.387s0-.042.037-.115a1.773,1.773,0,0,1,.141-.3,2.3,2.3,0,0,1,.737-.784,2.22,2.22,0,0,1,.546-.243,1.916,1.916,0,0,1,.484-.065,1.633,1.633,0,0,1,.327.031A.371.371,0,0,1,104.636,207.687Z" transform="translate(-98.665 -173.113)"/><path class="g" d="M100,203.361v-.034a.262.262,0,0,1,.058-.084.609.609,0,0,1,.337-.167,1.723,1.723,0,0,1,.557,0,3.182,3.182,0,0,1,.659.162,2.889,2.889,0,0,1,1.046.638,2.267,2.267,0,0,1,.243.285.784.784,0,0,1,.071.118,2.949,2.949,0,0,0-.348-.366,3.075,3.075,0,0,0-1.046-.612,3.2,3.2,0,0,0-.646-.162,1.729,1.729,0,0,0-.539-.016.6.6,0,0,0-.327.139A.9.9,0,0,0,100,203.361Z" transform="translate(-97.007 -169.726)"/><path class="g" d="M102.658,164.688a1.062,1.062,0,0,1-.044-.2c-.018-.06-.047-.133-.076-.22A1.374,1.374,0,0,0,102.4,164a3.865,3.865,0,0,0-.481-.643,5.228,5.228,0,0,0-.74-.648,4.418,4.418,0,0,0-1.616-.743,3.341,3.341,0,0,0-.539-.071,1.062,1.062,0,0,1-.2-.016,1.106,1.106,0,0,1,.2,0,2.794,2.794,0,0,1,.546.05,4.23,4.23,0,0,1,1.647.735,4.91,4.91,0,0,1,.745.661,3.64,3.64,0,0,1,.478.661,2.941,2.941,0,0,1,.133.285c.029.089.052.165.068.227A1.153,1.153,0,0,1,102.658,164.688Z" transform="translate(-96.135 -139.312)"/><path class="g" d="M144.488,202.713v-.183a4.8,4.8,0,0,0-.024-.523,7.37,7.37,0,0,0-.382-1.854,2.664,2.664,0,0,0-.261-.565,1.129,1.129,0,0,0-.5-.426,4.428,4.428,0,0,0-1.477-.191l-3.454-.144c-2.852-.126-5.389-.233-6.983-.319l.021-.016c-.1.586-.173,1.046-.225,1.373-.029.157-.05.277-.063.363a.149.149,0,0,1-.018.094v-.1c0-.086.031-.207.052-.363.05-.324.12-.784.207-1.378v-.016h.021l6.983.29,3.454.149c.261.016.523.021.784.042a2.186,2.186,0,0,1,.719.162,1.156,1.156,0,0,1,.523.447,2.688,2.688,0,0,1,.261.578,6.958,6.958,0,0,1,.361,1.869c.016.222.016.4.013.523v.133A.321.321,0,0,1,144.488,202.713Z" transform="translate(-119.99 -166.341)"/><path class="g" d="M174.334,182.61c.018,0,.034,1.046.034,2.319s-.016,2.316-.034,2.316-.034-1.046-.034-2.316S174.316,182.61,174.334,182.61Z" transform="translate(-151.881 -154.628)"/><path class="g" d="M90.237,162.41a.239.239,0,0,1-.026.086,1.267,1.267,0,0,0-.076.261c-.063.222-.144.554-.233.988-.178.865-.4,2.133-.646,3.72-.123.784-.261,1.668-.382,2.615-.065.473-.107.965-.141,1.475s-.06,1.033-.081,1.569c-.039,1.08-.063,2.222-.031,3.415,0,.3.021.6.047.9a3.44,3.44,0,0,0,.159.9,2.526,2.526,0,0,0,.426.813,1.846,1.846,0,0,0,.732.565h0a10.886,10.886,0,0,0,1.906.729c.667.2,1.352.361,2.05.5a28.252,28.252,0,0,0,4.6.562,21.065,21.065,0,0,0,2.2-.058q1.075-.075,2.092-.225a22.131,22.131,0,0,0,3.76-.881,19.246,19.246,0,0,0,3.033-1.307v.042l-4.16-1.472-1.114-.4-.29-.107-.1-.037.1.031.288.112,1.124.39,4.168,1.441.05.018-.047.024a18.964,18.964,0,0,1-3.038,1.307,21.631,21.631,0,0,1-3.757.881c-.677.1-1.378.178-2.092.227a21.178,21.178,0,0,1-2.207.06,28.365,28.365,0,0,1-4.615-.56c-.7-.144-1.388-.306-2.055-.507a11.193,11.193,0,0,1-1.919-.732h0a1.872,1.872,0,0,1-.761-.583,2.563,2.563,0,0,1-.437-.837,3.465,3.465,0,0,1-.112-.452c-.018-.154-.044-.306-.052-.458-.024-.306-.034-.607-.042-.9-.031-1.192,0-2.335.034-3.417q.031-.81.084-1.569c.037-.51.078-1,.144-1.475.131-.944.261-1.83.392-2.615.261-1.587.478-2.855.667-3.72.092-.434.175-.766.241-.988.029-.112.065-.193.084-.261Z" transform="translate(-88.551 -139.709)"/><path class="d" d="M111.33,184.42c1.584-1.752,1.514-4.868.607-7.08-.084,2.395-.366,4.521-.583,6.847" transform="translate(-105.374 -150.735)"/><path class="g" d="M111.99,179.05a.306.306,0,0,1,0,.078,1.167,1.167,0,0,1-.016.217c-.016.2-.037.473-.063.805-.055.685-.133,1.618-.217,2.651s-.154,1.964-.209,2.651c-.024.332-.044.6-.06.8a.773.773,0,0,1-.018.22c-.018.058,0,.076,0,.076a.212.212,0,0,1,0-.076v-.22c0-.191.021-.465.039-.805.039-.68.1-1.618.188-2.654s.17-1.974.238-2.651c.037-.332.063-.6.084-.8a1.368,1.368,0,0,1,.029-.22A.261.261,0,0,1,111.99,179.05Z" transform="translate(-105.425 -151.998)"/><path class="g" d="M128.494,166.94c.018,0,.034.609.034,1.36s-.016,1.36-.034,1.36-.034-.609-.034-1.36S128.476,166.94,128.494,166.94Z" transform="translate(-118.026 -143.055)"/><path class="d" d="M124.64,178.006a1.393,1.393,0,0,0,.293.722.949.949,0,0,0,.693.369,1.059,1.059,0,0,0,.936-.468,2.667,2.667,0,0,0,.131-2.034,1.166,1.166,0,0,0-.96-.784,1.062,1.062,0,0,0-1.046.808" transform="translate(-115.204 -149.605)"/><path class="g" d="M124.671,176.561a.881.881,0,0,1,.1-.277,1.169,1.169,0,0,1,.214-.277.952.952,0,0,1,.4-.235.982.982,0,0,1,.261-.044.816.816,0,0,1,.293.039,1.132,1.132,0,0,1,.523.376,1.506,1.506,0,0,1,.309.643,2.726,2.726,0,0,1,.058.763,2.1,2.1,0,0,1-.327,1.109.967.967,0,0,1-.429.322,1.119,1.119,0,0,1-.481.081h0a.732.732,0,0,1-.345-.084,1.161,1.161,0,0,1-.261-.183,1.284,1.284,0,0,1-.285-.424,1.239,1.239,0,0,1-.089-.311.649.649,0,0,1,0-.086v-.029a1.83,1.83,0,0,0,.125.413,1.375,1.375,0,0,0,.285.405,1.184,1.184,0,0,0,.261.167.643.643,0,0,0,.322.076h0a1.03,1.03,0,0,0,.855-.39,2.06,2.06,0,0,0,.314-1.075,1.956,1.956,0,0,0-.348-1.362,1.132,1.132,0,0,0-.494-.363.784.784,0,0,0-.277-.039.967.967,0,0,0-.646.261,1.219,1.219,0,0,0-.214.261,2.746,2.746,0,0,0-.128.261Z" transform="translate(-115.185 -149.544)"/><path class="d" d="M123.49,178.106a1.393,1.393,0,0,0,.293.722.944.944,0,0,0,.693.369,1.046,1.046,0,0,0,.936-.471,2.662,2.662,0,0,0,.131-2.031,1.174,1.174,0,0,0-.962-.784,1.064,1.064,0,0,0-1.046.811" transform="translate(-114.355 -149.679)"/><path class="g" d="M123.514,176.64a.881.881,0,0,1,.1-.277,1.211,1.211,0,0,1,.212-.28,1.046,1.046,0,0,1,.4-.235.965.965,0,0,1,.261-.042.768.768,0,0,1,.3.039,1.145,1.145,0,0,1,.523.376,1.506,1.506,0,0,1,.309.643,2.716,2.716,0,0,1,.058.761,2.115,2.115,0,0,1-.327,1.111,1.017,1.017,0,0,1-.429.322,1.124,1.124,0,0,1-.484.081h0a.722.722,0,0,1-.348-.086,1.111,1.111,0,0,1-.261-.18,1.307,1.307,0,0,1-.285-.424,1.268,1.268,0,0,1-.089-.311.69.69,0,0,1,0-.086.081.081,0,0,1,0-.029,1.83,1.83,0,0,0,.126.413,1.289,1.289,0,0,0,.285.4,1.046,1.046,0,0,0,.261.17.672.672,0,0,0,.322.076h0a1.028,1.028,0,0,0,.855-.387,2.066,2.066,0,0,0,.314-1.075,1.966,1.966,0,0,0-.348-1.362,1.106,1.106,0,0,0-.5-.363.714.714,0,0,0-.261-.039.892.892,0,0,0-.261.037.936.936,0,0,0-.392.222,1.08,1.08,0,0,0-.214.261A2.744,2.744,0,0,0,123.514,176.64Z" transform="translate(-114.329 -149.601)"/><path class="d" d="M123.4,178.454a.656.656,0,0,0-.69.4,1.135,1.135,0,0,0,0,.839,1.046,1.046,0,0,0,.214.376.57.57,0,0,0,.384.188.672.672,0,0,0,.523-.314,1.208,1.208,0,0,0,.183-.988c-.06-.222-.225-.45-.455-.458" transform="translate(-113.722 -151.554)"/><path class="g" d="M123.477,178.431h.052a.345.345,0,0,1,.139.047.685.685,0,0,1,.3.442,1.226,1.226,0,0,1-.081.784,1,1,0,0,1-.288.379.559.559,0,0,1-.5.12.706.706,0,0,1-.4-.324,1.535,1.535,0,0,1-.165-.444,1.007,1.007,0,0,1,.128-.784.7.7,0,0,1,.45-.285.523.523,0,0,1,.146,0c.034,0,.05.013.05.016a.663.663,0,0,0-.191,0,.7.7,0,0,0-.416.288.962.962,0,0,0-.107.737,1.43,1.43,0,0,0,.162.424.635.635,0,0,0,.358.293.5.5,0,0,0,.439-.107.988.988,0,0,0,.261-.353,1.192,1.192,0,0,0,.089-.75.682.682,0,0,0-.261-.431A.61.61,0,0,0,123.477,178.431Z" transform="translate(-113.628 -151.489)"/><path class="g" d="M126.177,185.629a.769.769,0,0,0-.068-.092.484.484,0,0,0-.22-.141,1.151,1.151,0,0,0-.261-.042c-.073,0-.118,0-.118-.021s.044-.018.118-.026a.743.743,0,0,1,.29.026.431.431,0,0,1,.238.175C126.187,185.577,126.185,185.629,126.177,185.629Z" transform="translate(-115.847 -156.617)"/><path class="g" d="M126.344,177.8a.288.288,0,0,1-.081.092.646.646,0,0,1-.261.12.654.654,0,0,1-.3-.018c-.073-.024-.112-.052-.107-.058a.991.991,0,0,0,.753-.136Z" transform="translate(-115.912 -151.075)"/><path class="g" d="M162.25,142.56a.092.092,0,0,1,.042.016.769.769,0,0,1,.115.058,2.228,2.228,0,0,1,.384.277,2.753,2.753,0,0,1,.829,1.307,8.368,8.368,0,0,1,.316,1.524c.021.2.034.358.042.471a.874.874,0,0,1,0,.173.727.727,0,0,1-.029-.17c-.018-.123-.039-.28-.063-.468a9.986,9.986,0,0,0-.335-1.511,2.845,2.845,0,0,0-.784-1.294A4.257,4.257,0,0,0,162.25,142.56Z" transform="translate(-142.981 -125.049)"/><path class="g" d="M155.994,195.674c.374-.016.672-.387,1.046-.366a.523.523,0,1,1-.086,1.033c-.392-.047-.62-.5-1-.593" transform="translate(-138.328 -164.005)"/><path class="g" d="M156.479,167.639a2.033,2.033,0,0,1-.348-.029l.021-.125a1.485,1.485,0,0,0,1.15-.225,2.168,2.168,0,0,0,.729-1.488v-.026c.042-.282.1-5.783.1-6.827a1.783,1.783,0,0,0-1.493-1.864c-.058,0-1.36-.227-2.05,1.556-.722,1.864-1.877,5.462-1.956,5.883a1.1,1.1,0,0,1-.039.188c-.12.541-.371,1.663.379,2.311a1.48,1.48,0,0,0,1.519.429l.055.118a1.605,1.605,0,0,1-1.658-.45,2.421,2.421,0,0,1-.421-2.434l.039-.186c.076-.424,1.237-4.037,1.961-5.906s2.178-1.637,2.191-1.634a1.932,1.932,0,0,1,1.6,1.99c0,.86-.058,6.536-.1,6.845v.026a2.234,2.234,0,0,1-.784,1.569A1.472,1.472,0,0,1,156.479,167.639Z" transform="translate(-135.652 -135.654)"/><path class="g" d="M164.044,163.754a2.309,2.309,0,0,0-.261-.641,2.238,2.238,0,0,0-.523-.552,2.2,2.2,0,0,0-.826-.39,2.426,2.426,0,0,0-1.626.212,2.988,2.988,0,0,0-.567.405s0-.013.029-.039.05-.06.1-.1a1.966,1.966,0,0,1,.418-.306,2.3,2.3,0,0,1,.724-.261,2.353,2.353,0,0,1,.941.018,2.18,2.18,0,0,1,.85.408,2.157,2.157,0,0,1,.51.573,1.686,1.686,0,0,1,.2.481.783.783,0,0,1,.026.136C164.047,163.738,164.047,163.754,164.044,163.754Z" transform="translate(-141.497 -139.437)"/><path class="g" d="M178.96,202.34a4.3,4.3,0,0,0-.178-.549,2.4,2.4,0,0,0-.871-1.046,1.906,1.906,0,0,0-.709-.261c-.233-.039-.444-.052-.622-.065l-.424-.029a.594.594,0,0,1-.157-.021.747.747,0,0,1,.157,0h.424a5.594,5.594,0,0,1,.633.052,1.872,1.872,0,0,1,.732.261,2.353,2.353,0,0,1,.881,1.085,2.111,2.111,0,0,1,.118.41A.786.786,0,0,1,178.96,202.34Z" transform="translate(-153.136 -167.74)"/><path class="m" d="M162.5,189.84a21.076,21.076,0,0,1,1.59-2.167c.324-.251,3.083-1.5,3.4-1.307s.123.635.123.635,1.169-.408,1.294-.248a.578.578,0,0,1,0,.659s.646-.1.646.1a.818.818,0,0,1-.371.672,16.113,16.113,0,0,0-2.395,1.872l-.63-.037Z" transform="translate(-143.166 -157.387)"/><path class="n" d="M176.43,192.292a.368.368,0,0,1,.058-.12,2.351,2.351,0,0,1,.207-.3,3.459,3.459,0,0,1,.918-.784,7.058,7.058,0,0,1,1.085-.523l.34-.123a.473.473,0,0,1,.131-.034,1,1,0,0,1-.12.06l-.332.141a8.667,8.667,0,0,0-1.069.523,3.937,3.937,0,0,0-.915.745C176.529,192.133,176.44,192.3,176.43,192.292Z" transform="translate(-153.454 -160.388)"/><path class="n" d="M170.29,191.06a.64.64,0,0,1,.06-.141c.044-.089.11-.217.2-.371a3.246,3.246,0,0,1,.348-.523,1.681,1.681,0,0,1,.261-.261c.107-.071.22-.139.337-.207a9.275,9.275,0,0,1,1.234-.617,3.7,3.7,0,0,1,.4-.133.629.629,0,0,1,.152-.026,4.144,4.144,0,0,0-.523.2,11.344,11.344,0,0,0-1.231.638c-.115.068-.23.136-.332.2a1.537,1.537,0,0,0-.261.248,4.224,4.224,0,0,0-.356.5l-.212.358A.906.906,0,0,1,170.29,191.06Z" transform="translate(-148.919 -159.184)"/></g><g transform="translate(22.827 90.552)"><path class="g" d="M46.219,306.94a1.136,1.136,0,0,1,.052-.125c.042-.086.1-.207.167-.358a9.023,9.023,0,0,0,.5-1.438,12.7,12.7,0,0,0-.044-5.551,29.863,29.863,0,0,0-1.028-3.726c-.437-1.326-.944-2.73-1.357-4.246a16.443,16.443,0,0,1-.669-4.881,19.106,19.106,0,0,1,1.137-5.166,24.535,24.535,0,0,0,1.307-5.088,7.755,7.755,0,0,0-.933-4.706c-.745-1.37-1.681-2.544-2.382-3.757a13.073,13.073,0,0,1-1.43-3.613,13.5,13.5,0,0,1-.092-5.6,10.458,10.458,0,0,1,.586-1.977.882.882,0,0,1-.037.133l-.118.379a15.01,15.01,0,0,0-.363,1.477,13.616,13.616,0,0,0,.154,5.561,13.007,13.007,0,0,0,1.435,3.566c.7,1.2,1.639,2.369,2.4,3.754a7.925,7.925,0,0,1,.962,4.8,25.107,25.107,0,0,1-1.32,5.124,18.777,18.777,0,0,0-1.122,5.117,16.278,16.278,0,0,0,.654,4.832c.405,1.511.907,2.915,1.336,4.243a29.74,29.74,0,0,1,1.014,3.752,12.524,12.524,0,0,1-.016,5.592,8.4,8.4,0,0,1-.523,1.435c-.078.149-.141.261-.186.353a.6.6,0,0,1-.081.115Z" transform="translate(-37.573 -256.71)"/><path class="i" d="M50.528,283.607s-1.422-4.549,1.14-7.214a.16.16,0,0,1,.261.078C52.065,277.225,52.235,279.513,50.528,283.607Z" transform="translate(-44.175 -271.217)"/><path class="g" d="M52.348,282.31a4.223,4.223,0,0,1-.094.839c-.094.578-.2,1.258-.327,2.008l-.316,2.005a4.6,4.6,0,0,1-.152.831,3.475,3.475,0,0,1,.026-.847c.047-.523.139-1.234.261-2.018s.261-1.493.376-2a3.971,3.971,0,0,1,.225-.816Z" transform="translate(-45.142 -275.617)"/><path class="i" d="M58,328.6s.871-4.685,4.371-5.849a.159.159,0,0,1,.2.2C62.353,323.672,61.433,325.774,58,328.6Z" transform="translate(-49.984 -305.475)"/><path class="g" d="M61.376,327.4a4.284,4.284,0,0,1-.478.7c-.353.468-.766,1.017-1.226,1.621l-1.218,1.626a4.271,4.271,0,0,1-.523.661,3.828,3.828,0,0,1,.418-.735c.285-.437.7-1.027,1.182-1.66s.933-1.195,1.268-1.592A3.767,3.767,0,0,1,61.376,327.4Z" transform="translate(-49.932 -308.918)"/><path class="i" d="M54.312,370.611s-.523-4.738,2.486-6.866a.159.159,0,0,1,.261.128C57.039,364.637,56.769,366.922,54.312,370.611Z" transform="translate(-47.234 -335.734)"/><path class="g" d="M56.224,369.34a4.11,4.11,0,0,1-.261.805l-.7,1.909c-.261.714-.5,1.36-.7,1.909a4.994,4.994,0,0,1-.306.784,3.449,3.449,0,0,1,.186-.826c.144-.5.371-1.184.648-1.932s.544-1.412.75-1.893a3.707,3.707,0,0,1,.379-.756Z" transform="translate(-47.222 -339.893)"/><path class="i" d="M64.464,416.133s-.358-4.753,2.73-6.772a.157.157,0,0,1,.246.136C67.4,410.261,67.052,412.528,64.464,416.133Z" transform="translate(-54.748 -369.43)"/><path class="g" d="M66.529,414.85a4.069,4.069,0,0,1-.282.784c-.222.544-.484,1.179-.769,1.882l-.763,1.882a4.783,4.783,0,0,1-.335.784,3.422,3.422,0,0,1,.214-.818c.165-.494.416-1.171.716-1.906s.6-1.394.821-1.864a3.684,3.684,0,0,1,.4-.745Z" transform="translate(-54.696 -373.504)"/><path class="i" d="M31.649,271.7s-4.225-2.207-4.309-5.893a.159.159,0,0,1,.248-.136C28.216,266.107,29.954,267.6,31.649,271.7Z" transform="translate(-27.34 -263.31)"/><path class="g" d="M30.7,271.11a4.185,4.185,0,0,1,.523.661l1.192,1.647,1.195,1.642a4.355,4.355,0,0,1,.481.7,3.872,3.872,0,0,1-.58-.617c-.335-.4-.784-.97-1.239-1.616s-.871-1.242-1.15-1.681A3.661,3.661,0,0,1,30.7,271.11Z" transform="translate(-29.821 -267.345)"/><path class="i" d="M48.015,309.814s-4.351-1.945-4.656-5.621a.16.16,0,0,1,.238-.152C44.25,304.436,46.078,305.824,48.015,309.814Z" transform="translate(-39.17 -291.651)"/><path class="g" d="M47,309.31a4.263,4.263,0,0,1,.567.627c.371.452.805.986,1.289,1.569l1.292,1.569a4.488,4.488,0,0,1,.523.661,3.485,3.485,0,0,1-.617-.586c-.358-.379-.834-.923-1.336-1.537s-.933-1.177-1.25-1.6A3.923,3.923,0,0,1,47,309.31Z" transform="translate(-41.86 -295.558)"/><path class="i" d="M46.061,347.451s-2.988-3.713-1.587-7.125a.157.157,0,0,1,.28-.026C45.156,340.951,46.165,343.017,46.061,347.451Z" transform="translate(-39.718 -318.39)"/><path class="g" d="M46.67,346.39a4.332,4.332,0,0,1,.217.816c.123.573.261,1.245.431,1.987s.311,1.412.437,1.984a4.884,4.884,0,0,1,.165.829,3.512,3.512,0,0,1-.288-.8c-.146-.5-.322-1.2-.489-1.979s-.3-1.485-.382-2A3.66,3.66,0,0,1,46.67,346.39Z" transform="translate(-41.616 -322.943)"/><path class="i" d="M50.03,400.335s-4.319-2.018-4.562-5.7a.154.154,0,0,1,.238-.146C46.354,394.894,48.158,396.311,50.03,400.335Z" transform="translate(-40.727 -358.447)"/><path class="g" d="M49,399.81a4,4,0,0,1,.554.638c.363.458.784,1,1.263,1.592l1.268,1.59a4.912,4.912,0,0,1,.523.669,3.589,3.589,0,0,1-.607-.588c-.353-.384-.818-.936-1.307-1.569s-.923-1.2-1.224-1.626A3.74,3.74,0,0,1,49,399.81Z" transform="translate(-43.337 -362.396)"/><path class="g" d="M72.568,345.24v.408c0,.288-.031.675-.052,1.158-.055,1.014-.133,2.432-.225,4.126h0a16.208,16.208,0,0,1-2.353,5.49c-.865,1.367-1.773,2.615-2.554,3.765a26.363,26.363,0,0,0-1.916,3.169,13.419,13.419,0,0,0-.9,2.322c-.076.285-.133.507-.165.659a1,1,0,0,1-.065.23,1.44,1.44,0,0,1,.029-.235c.021-.154.068-.382.133-.669a12.315,12.315,0,0,1,.85-2.353,25.525,25.525,0,0,1,1.893-3.205c.784-1.163,1.681-2.408,2.541-3.77a16.267,16.267,0,0,0,2.369-5.425h0c.12-1.694.22-3.109.29-4.126l.094-1.153a2.727,2.727,0,0,1,.029-.3A.4.4,0,0,1,72.568,345.24Z" transform="translate(-54.666 -322.094)"/><path class="i" d="M83.285,365.949s1.83-4.4-.471-7.287a.159.159,0,0,0-.277.055C82.328,359.452,81.951,361.716,83.285,365.949Z" transform="translate(-67.948 -331.963)"/><path class="g" d="M84.671,364.7a4,4,0,0,1,.144.834c.065.523.139,1.234.193,2.026s.084,1.514.084,2.037a3.48,3.48,0,0,1-.05.845,4.538,4.538,0,0,1-.076-.842c-.039-.583-.084-1.268-.136-2.026s-.1-1.443-.141-2.029A4.068,4.068,0,0,1,84.671,364.7Z" transform="translate(-69.671 -336.466)"/><g class="j" transform="translate(14.376 26.64)"><path d="M83.285,365.949s1.83-4.4-.471-7.287a.159.159,0,0,0-.277.055C82.328,359.452,81.951,361.716,83.285,365.949Z" transform="translate(-82.324 -358.603)"/></g><path class="i" d="M60.307,406.746s1.464-4.536-1.061-7.224a.159.159,0,0,0-.261.076C58.83,400.348,58.639,402.636,60.307,406.746Z" transform="translate(-50.639 -362.153)"/><path class="g" d="M61.26,405.45a3.553,3.553,0,0,1,.212.818c.107.51.238,1.218.358,2.005s.207,1.5.261,2.021a3.5,3.5,0,0,1,.018.847,4.479,4.479,0,0,1-.144-.831c-.086-.58-.186-1.26-.3-2.011s-.217-1.43-.306-2.008A4.182,4.182,0,0,1,61.26,405.45Z" transform="translate(-52.391 -366.562)"/><g class="j" transform="translate(8.248 37.328)"><path d="M60.307,406.746s1.464-4.536-1.061-7.224a.159.159,0,0,0-.261.076C58.83,400.348,58.639,402.636,60.307,406.746Z" transform="translate(-58.887 -399.48)"/></g><path class="i" d="M94.89,347.648s3.9-2.735,3.511-6.4a.159.159,0,0,0-.261-.1C97.573,341.653,96.04,343.363,94.89,347.648Z" transform="translate(-77.229 -319.04)"/><g class="j" transform="translate(17.661 22.065)"><path d="M94.89,347.648s3.9-2.735,3.511-6.4a.159.159,0,0,0-.261-.1C97.573,341.653,96.04,343.363,94.89,347.648Z" transform="translate(-94.89 -341.105)"/></g><path class="g" d="M97.8,346.88a3.611,3.611,0,0,1-.324.784c-.222.471-.546,1.114-.923,1.812s-.743,1.323-1.022,1.765a3.377,3.377,0,0,1-.5.685,4.577,4.577,0,0,1,.39-.75l.973-1.783.967-1.786A4.444,4.444,0,0,1,97.8,346.88Z" transform="translate(-77.332 -323.305)"/><path class="i" d="M70.34,397.6s4.706-.732,5.972-4.2a.159.159,0,0,0-.191-.209C75.386,393.4,73.258,394.264,70.34,397.6Z" transform="translate(-59.097 -357.506)"/><g class="j" transform="translate(11.243 35.683)"><path d="M70.34,397.6s4.706-.732,5.972-4.2a.159.159,0,0,0-.191-.209C75.386,393.4,73.258,394.264,70.34,397.6Z" transform="translate(-70.34 -393.189)"/></g><path class="g" d="M75.139,397.52a3.859,3.859,0,0,1-.638.557c-.408.327-.983.761-1.629,1.224s-1.25.86-1.694,1.132a3.6,3.6,0,0,1-.748.4,4.31,4.31,0,0,1,.68-.5c.476-.34,1.046-.735,1.658-1.174l1.658-1.177A4.259,4.259,0,0,1,75.139,397.52Z" transform="translate(-59.164 -360.705)"/><path class="h" d="M49.02,443.23l1.352,8.861,5.4-.01,1.817-8.85Z" transform="translate(-43.352 -394.464)"/><path class="g" d="M58.573,450.15s0,.013-.044.031a1.044,1.044,0,0,1-.141.084,1.976,1.976,0,0,1-.6.178,2.184,2.184,0,0,1-.991-.091,2.06,2.06,0,0,1-1.067-.784,1.5,1.5,0,0,1-.261-.74.8.8,0,0,1,.366-.761.871.871,0,0,1,.9.073,1.307,1.307,0,0,1,.523.813,3.459,3.459,0,0,1,.068,1,3.245,3.245,0,0,1-.22,1.025,2.261,2.261,0,0,1-.625.892,1.752,1.752,0,0,1-1.046.434,1.935,1.935,0,0,1-1.08-.314,3.261,3.261,0,0,1-.805-.729,1.757,1.757,0,0,1-.4-.965,1.124,1.124,0,0,1,.382-.939.881.881,0,0,1,.957-.06,1.025,1.025,0,0,1,.552.724,1.383,1.383,0,0,1-.682,1.4,1.9,1.9,0,0,1-1.307.188,2.972,2.972,0,0,1-.928-.363,5.374,5.374,0,0,1-.523-.35,1.469,1.469,0,0,1-.167-.141,1.045,1.045,0,0,1,.186.115,5.507,5.507,0,0,0,.523.327,3.021,3.021,0,0,0,.912.332,1.83,1.83,0,0,0,1.237-.2,1.284,1.284,0,0,0,.614-1.289.9.9,0,0,0-.492-.63.737.737,0,0,0-.811.05.983.983,0,0,0-.327.824,1.616,1.616,0,0,0,.4.892,3.1,3.1,0,0,0,.784.693,1.767,1.767,0,0,0,.986.29,1.6,1.6,0,0,0,.949-.4,2.136,2.136,0,0,0,.586-.834,3.137,3.137,0,0,0,.212-.978,3.326,3.326,0,0,0-.058-.96,1.2,1.2,0,0,0-.458-.74.761.761,0,0,0-.784-.076.688.688,0,0,0-.311.651,1.4,1.4,0,0,0,.222.69,2.018,2.018,0,0,0,1.009.753,2.185,2.185,0,0,0,.957.112,2.469,2.469,0,0,0,.808-.235Z" transform="translate(-45.132 -397.966)"/></g></g></g></svg>