<svg xmlns="http://www.w3.org/2000/svg" xmlns:xlink="http://www.w3.org/1999/xlink" width="114" height="104" viewBox="0 0 114 104"><defs><style>.a{fill:#fff;}.b{clip-path:url(#c);}.c{fill:#263238;}.d{fill:#b78876;}.e{fill:#aa6550;}.f{fill:#455a64;}.g{fill:#b24bf3;}.h{opacity:0.3;}.i{fill:#ebebeb;}.j{filter:url(#a);}</style><filter id="a" x="-22.5" y="-19.5" width="159" height="149" filterUnits="userSpaceOnUse"><feOffset dy="3" input="SourceAlpha"/><feGaussianBlur stdDeviation="7.5" result="b"/><feFlood flood-color="#51087e" flood-opacity="0.051"/><feComposite operator="in" in2="b"/><feComposite in="SourceGraphic"/></filter><clipPath id="c"><g class="j" transform="matrix(1, 0, 0, 1, 0, 0)"><rect class="a" width="114" height="104" rx="5" transform="translate(36 250)"/></g></clipPath></defs><g class="b" transform="translate(-36 -250)"><g transform="translate(23.293 259.941) rotate(-10)"><path class="c" d="M178.363,133.832c-.046-1.685,1.507-2.983,3.091-3.6s3.308-.85,4.707-1.789a22.754,22.754,0,0,0,3.115-3.192,10.368,10.368,0,0,1,17.436,4.757c.6,2.4.189,5.228-1.7,6.824-2.195,1.847-5.445,1.438-8.254.862s-5.993-1.159-8.339.506a12.064,12.064,0,0,0-3.091,4.115c-.866,1.5-1.932,3.026-3.586,3.59s-3.864-.41-3.922-2.137" transform="translate(-151.79 -122.164)"/><path class="c" d="M169.741,142.8c.185,1.41-.835,2.674-1.851,3.671s-2.164,2.052-2.346,3.478c-.209,1.65,1,3.273.645,4.9a11.921,11.921,0,0,1-1.511,2.763,5.889,5.889,0,0,0-.3,4.324c.417,1.422,1.086,4.595,2.075,5.7a22.8,22.8,0,0,0,11.071,6.6,42.945,42.945,0,0,0,12.23.672c3.346-.2,7.2-.05,9.989-4.656,1.445-2.388,2.16-5.557,2.925-8.239.665-2.319,1.237-4.78.549-7.083-.386-1.337-1.21-2.531-1.6-3.864-.495-1.677-.313-3.478-.51-5.205a11.944,11.944,0,0,0-17-9.433" transform="translate(-143.056 -130.204)"/><path class="d" d="M199.416,153.514c-.313-4.8-3.509-10.692-8.3-10.175l-14.939,3.81a2.825,2.825,0,0,0-2.516,2.863l1.681,36.046-.1.019s3.4,10.167,13.285,7.064c1.959-.618,2.856-2.759,3.242-4.966h.1V187.4a23.66,23.66,0,0,0,.058-4.95h0c.027-2.91.023-4.1.027-4.073s6.136-1.036,7.388-9.046C199.98,165.381,199.764,158.85,199.416,153.514Z" transform="translate(-142.968 -135.137)"/><path class="c" d="M182.808,180.739a1.024,1.024,0,0,1-.985,1.04.985.985,0,0,1-1.063-.924,1.028,1.028,0,0,1,.989-1.04.982.982,0,0,1,1.059.924Z" transform="translate(-128.768 -157.535)"/><path class="c" d="M182.188,176.814c-.128.135-.908-.441-2.013-.437s-1.932.56-2.036.425c-.058-.058.073-.3.425-.556a2.786,2.786,0,0,1,1.627-.506,2.7,2.7,0,0,1,1.6.51C182.134,176.513,182.254,176.752,182.188,176.814Z" transform="translate(-127.147 -155.037)"/><path class="c" d="M210.918,180.738a1.028,1.028,0,0,1-.989,1.039.981.981,0,0,1-1.059-.924,1.024,1.024,0,0,1,.985-1.039.982.982,0,0,1,1.063.924Z" transform="translate(-167.74 -157.535)"/><path class="c" d="M210.308,177.4c-.128.135-.908-.437-2.013-.433s-1.913.56-2.033.425c-.058-.062.07-.3.425-.56a2.832,2.832,0,0,1,1.627-.506,2.7,2.7,0,0,1,1.6.514C210.254,177.1,210.37,177.362,210.308,177.4Z" transform="translate(-166.133 -155.399)"/><path class="c" d="M189.191,185.684a7.532,7.532,0,0,1,1.793-.328c.282-.027.549-.085.6-.278a1.43,1.43,0,0,0-.193-.835l-.839-2.149a37.854,37.854,0,0,1-1.886-5.615,37.237,37.237,0,0,1,2.319,5.453q.425,1.128.8,2.16a1.623,1.623,0,0,1,.151,1.105.711.711,0,0,1-.464.413,1.957,1.957,0,0,1-.479.07A6.891,6.891,0,0,1,189.191,185.684Z" transform="translate(-140.985 -155.49)"/><path class="e" d="M204.541,229.64a20.357,20.357,0,0,1-10.731-2.84s2.7,5.538,10.723,4.772Z" transform="translate(-155.544 -186.366)"/><path class="e" d="M200.063,206.012a1.982,1.982,0,0,0-1.785-.734,1.808,1.808,0,0,0-1.256.676,1.159,1.159,0,0,0-.081,1.314,1.322,1.322,0,0,0,1.449.363,4.2,4.2,0,0,0,1.41-.846,1.136,1.136,0,0,0,.313-.325.386.386,0,0,0,0-.413" transform="translate(-152.322 -173.152)"/><path class="c" d="M195.3,202.3c.178,0,.182,1.19,1.213,2.036s2.319.715,2.319.885c0,.073-.286.232-.823.247a2.98,2.98,0,0,1-1.932-.669,2.6,2.6,0,0,1-.939-1.708C195.089,202.59,195.22,202.292,195.3,202.3Z" transform="translate(-150.35 -171.333)"/><path class="c" d="M210.032,172.791c-.108.3-1.213.162-2.508.321s-2.346.514-2.52.247c-.077-.127.1-.413.529-.7A4.127,4.127,0,0,1,207.4,172a4.2,4.2,0,0,1,1.963.224C209.835,172.416,210.075,172.648,210.032,172.791Z" transform="translate(-165.359 -152.722)"/><path class="c" d="M182.927,168.454c-.2.251-.958,0-1.874,0s-1.689.17-1.87-.089c-.077-.128.046-.386.386-.618a2.7,2.7,0,0,1,3.014.085C182.9,168.076,183.019,168.334,182.927,168.454Z" transform="translate(-128.299 -149.876)"/><path class="c" d="M191.208,170.79a7.11,7.11,0,0,0,8.459-7.864c-.247-1.967-1.31-3.969-.626-5.831.9-2.462,4.351-3.219,5.267-5.677.533-1.426.054-3.091.657-4.494a5.338,5.338,0,0,1,3.3-2.562,13.8,13.8,0,0,0,3.922-1.7c1.132-.877,1.836-2.539,1.105-3.772a75.74,75.74,0,0,0-17.5,4.251,6.729,6.729,0,0,0-3.455,2.237,7.108,7.108,0,0,0-.711,4.293l1.009,21.57" transform="translate(-163.588 -132.427)"/><path class="f" d="M195.18,167.08a.917.917,0,0,1-.131-.081l-.356-.27c-.309-.243-.773-.6-1.325-1.1a13.687,13.687,0,0,1-1.882-1.978,7.388,7.388,0,0,1-1.5-3.3,5.024,5.024,0,0,1,1.032-4.212,16.088,16.088,0,0,1,1.866-1.592,4.332,4.332,0,0,0,1.457-1.978c.591-1.631.328-3.52.556-5.453a10.844,10.844,0,0,1,2.272-5.518,7.454,7.454,0,0,1,2.373-1.932,14.494,14.494,0,0,1,2.8-.943,6.534,6.534,0,0,0,2.462-1.213,9.762,9.762,0,0,0,1.785-1.967c1-1.43,1.751-2.952,2.7-4.224a9.053,9.053,0,0,1,1.577-1.673,6.048,6.048,0,0,1,1.87-1.02,4,4,0,0,1,3.559.356,3.281,3.281,0,0,1,1.264,2.4,2.4,2.4,0,0,1-.483,1.65,1.546,1.546,0,0,1-.325.313.556.556,0,0,1-.131.085.875.875,0,0,1,.108-.112,1.772,1.772,0,0,0,.29-.328,2.357,2.357,0,0,0,.386-1.6,3.141,3.141,0,0,0-1.24-2.249,3.787,3.787,0,0,0-3.362-.278,5.8,5.8,0,0,0-1.781.993,9.216,9.216,0,0,0-1.515,1.638c-.927,1.248-1.658,2.771-2.678,4.251a9.938,9.938,0,0,1-1.839,2.044,6.782,6.782,0,0,1-2.539,1.256,14.2,14.2,0,0,0-2.74.927,7.144,7.144,0,0,0-2.264,1.855,10.507,10.507,0,0,0-2.21,5.333c-.236,1.866.035,3.787-.6,5.522a4.687,4.687,0,0,1-1.546,2.114,16.35,16.35,0,0,0-1.843,1.546,4.765,4.765,0,0,0-1,3.98,7.238,7.238,0,0,0,1.407,3.219,14.81,14.81,0,0,0,1.82,2c.545.51.985.885,1.279,1.159A4.669,4.669,0,0,1,195.18,167.08Z" transform="translate(-167.057 -125.966)"/><path class="c" d="M266.849,230.031c-1.646-1.592-4.456-.209-5.839,1.615s-2.361,4.181-4.459,5.1-4.823.128-6.569,1.588c-2.427,2.017-1.063,6.689-3.69,8.443-1.039.7-2.415.672-3.528,1.244-2.624,1.353-2.593,5.054-2.187,7.98.553,4.115,1.179,8.366,3.443,11.844s6.674,5.908,10.592,4.571c3.768-1.287,5.7-5.352,7.238-9.027q3.177-7.644,6.361-15.252a35.565,35.565,0,0,0,2.863-9.089,11.99,11.99,0,0,0-2.149-9.05" transform="translate(-240.191 -187.92)"/><path class="g" d="M244.906,222.029c-1.194-.143-2.11,1.322-1.793,2.485a3.75,3.75,0,0,0,2.57,2.319,3.833,3.833,0,0,0,1.982.228,1.932,1.932,0,0,0,1.5-1.21,1.136,1.136,0,0,0-.549-1.5c-.773-.491-1.248-.877-1.87-1.221-.951-.522-.893-.591-1.843-1.117" transform="translate(-219.303 -183.427)"/><path class="g" d="M198.807,248.041l-4.645-3.52L176.653,243.4l-.7,2.349,5.7,35.536-4.494,42.4h24.426Z" transform="translate(-145.679 -196.551)"/><g class="h" transform="translate(33.937 109.813)"><path d="M179.206,408.62a4.008,4.008,0,0,1,2.291-1.437c5.851-.128,11.821-.711,17.671-.842l.468,17.327a21.94,21.94,0,0,1-3.091-7.845c-.162-1.229-.386-2.7-1.488-3.223a3.326,3.326,0,0,0-2.064-.043,48.973,48.973,0,0,1-6.361,1.1,10.194,10.194,0,0,1-6.206-1.356,3.806,3.806,0,0,1-1.484-1.6,1.967,1.967,0,0,1,.263-2.075Z" transform="translate(-178.76 -406.34)"/></g><path class="g" d="M209.252,244.062l.545-5.082a1.615,1.615,0,0,0-1.461-1.778l-16.114-1.457a.773.773,0,0,0-.831.734l-.182,6.048,4.668,7.918,4.8,1.526h5.866l3.374-3.6Z" transform="translate(-159.911 -191.854)"/><path class="c" d="M191.918,247.911a5.471,5.471,0,0,0,.645-.066,11.6,11.6,0,0,1,1.754-.031,17,17,0,0,1,2.581.386c.962.2,2.009.483,3.118.754a20.293,20.293,0,0,0,3.173.564,8.2,8.2,0,0,0,2.632-.178,5.459,5.459,0,0,0,1.638-.68,3.87,3.87,0,0,0,.386-.286c.085-.07.128-.112.12-.116s-.189.128-.553.332a5.993,5.993,0,0,1-1.635.611,8.329,8.329,0,0,1-2.581.131,21.324,21.324,0,0,1-3.142-.576c-1.105-.267-2.156-.545-3.126-.738a15.564,15.564,0,0,0-2.612-.332,9.36,9.36,0,0,0-1.774.093q-.313.054-.475.093C191.972,247.887,191.914,247.9,191.918,247.911Z" transform="translate(-158.238 -199.176)"/><g class="h" transform="translate(35.315 48.587)"><path d="M206.809,248.845a3.467,3.467,0,0,1-.433,3.563,3.139,3.139,0,0,1-2.867.726,9.046,9.046,0,0,1-2.8-1.26,24.5,24.5,0,0,0-6.994-3.246.893.893,0,0,1-.452-.189.3.3,0,0,1,0-.437.421.421,0,0,1,.209-.058,20.454,20.454,0,0,1,6.627.9,11.763,11.763,0,0,0,6.627.077" transform="translate(-193.165 -247.897)"/></g><path class="c" d="M199.342,239.09a1.48,1.48,0,0,1,.553.526,3.725,3.725,0,0,1,.22,1.855c-.043,1.5-.29,2.7-.232,2.7a2.627,2.627,0,0,0,.22-.773,12.177,12.177,0,0,0,.213-1.932,8.933,8.933,0,0,0-.023-1.078,1.863,1.863,0,0,0-.278-.854,1.117,1.117,0,0,0-.452-.406C199.428,239.079,199.346,239.079,199.342,239.09Z" transform="translate(-153.464 -193.903)"/><path class="c" d="M211.268,242.824a23.363,23.363,0,0,1,.116-2.458c.186-1.349.634-2.373.572-2.4a2.117,2.117,0,0,0-.328.653,7.99,7.99,0,0,0-.444,1.712,7.835,7.835,0,0,0-.05,1.77A2.164,2.164,0,0,0,211.268,242.824Z" transform="translate(-169.648 -193.219)"/><path class="c" d="M226.1,236.86a1.587,1.587,0,0,0-.305.6,4.227,4.227,0,0,0-.213,1.611,4.162,4.162,0,0,0,.425,1.573,1.546,1.546,0,0,0,.386.553,5.333,5.333,0,0,1-.29-4.336Z" transform="translate(-189.665 -192.538)"/><path class="i" d="M126.982,261.33a18.272,18.272,0,0,1,6.956,10.325c1.136,5.224,4.251,32.823,4.251,32.823l5.445,10.6-3.555,8.455h0a13,13,0,0,1-8.54-2.438l-2.392-1.739-4.386-6.5Z" transform="translate(-67.953 -207.552)"/><path class="i" d="M149.89,248.71l9.313,4.877,2.2,7.222,1.959,20.94-3.687,24.55,6.469,20.57-11.156.081-.267-12.057-1.113-39.029L152.514,251Z" transform="translate(-100.174 -199.809)"/><path class="c" d="M172.015,284.689a2.128,2.128,0,0,0,.174-.294l.464-.854c.193-.386.386-.858.622-1.407.112-.278.209-.583.321-.9s.236-.661.332-1.024a38.572,38.572,0,0,0,1.333-11.678c0-.355-.027-.707-.05-1.059v-.062l-.058-.023-1.631-.688.023.17,1.631-1.31.035-.027v-.039a14.092,14.092,0,0,0-.742-4.656c-.41-1.364-.858-2.539-1.252-3.5s-.738-1.72-.982-2.23c-.124-.259-.22-.456-.286-.584a1.33,1.33,0,0,0-.112-.2.939.939,0,0,0,.081.209l.259.6c.224.518.549,1.279.927,2.249s.811,2.145,1.206,3.5a14.139,14.139,0,0,1,.707,4.595l.039-.066-1.635,1.3-.128.1.151.066,1.631.688-.062-.085c.023.344.039.7.05,1.051a39.883,39.883,0,0,1-1.271,11.628c-.089.367-.209.7-.313,1.024s-.2.63-.309.908c-.228.549-.386,1.032-.587,1.41l-.425.869A2.559,2.559,0,0,0,172.015,284.689Z" transform="translate(-117.789 -203.251)"/><path class="c" d="M156.447,322a2.881,2.881,0,0,0,.089-.3q.081-.328.22-.881c.1-.386.2-.85.313-1.4s.251-1.159.359-1.866.255-1.453.359-2.272.209-1.7.305-2.624c.17-1.855.282-3.9.282-6.048s-.128-4.193-.3-6.044c-.1-.924-.193-1.8-.321-2.624s-.24-1.581-.363-2.272-.255-1.314-.386-1.863-.224-1.016-.321-1.395-.166-.661-.224-.877a2.209,2.209,0,0,0-.089-.305,1.78,1.78,0,0,0,.05.313l.185.885c.085.386.189.854.286,1.4s.236,1.159.34,1.866.24,1.449.336,2.268.2,1.7.3,2.616c.162,1.851.278,3.888.286,6.032s-.108,4.177-.263,6.028c-.1.92-.174,1.8-.29,2.616s-.22,1.581-.332,2.272-.232,1.318-.328,1.866-.2,1.02-.282,1.4-.139.665-.182.885a1.476,1.476,0,0,0-.031.313Z" transform="translate(-94.91 -225.898)"/><path class="c" d="M156.35,419.63a3.979,3.979,0,0,0,.452.939,15.187,15.187,0,0,0,1.426,2.067,14.954,14.954,0,0,0,1.747,1.8,4.188,4.188,0,0,0,.831.63,7.432,7.432,0,0,0-.734-.734,22.524,22.524,0,0,1-1.689-1.828,22.219,22.219,0,0,1-1.461-2.013,7.46,7.46,0,0,0-.572-.866Z" transform="translate(-97.333 -304.681)"/><path class="i" d="M227.959,258.86a12.818,12.818,0,0,0-7.86,9.12c-3.049,13.432-8.262,31.3-8.347,37.07-.1,7.342,3.091,12.366,7.3,13.293,3.316.734,33.356-.912,33.356-.912l1.407-11.206-24.345-3.582,3.331-18.579-3.3-25.782Z" transform="translate(-211.75 -205.681)"/><path class="i" d="M232.2,247.265l6.728-2.747,7.091-4.158.042,1.217h0a7.133,7.133,0,0,0-.854,4.931l5.912,30.783-1.337,22.494-2.748,22.026H225.7l9.8-23.05L232.037,267.7Z" transform="translate(-214.445 -194.686)"/><path class="c" d="M211.57,388.639l.147.019.429.043c.386.039.939.035,1.665.054,1.445,0,3.547-.031,6.164-.116,5.228-.174,12.5-.526,20.724-1h.081v-.085c.166-1.333.344-2.74.522-4.166.305-2.415.6-4.772.881-7.025v-.1h-.093l-18.579-2.705-5.456-.773-1.465-.2-.386-.05h-.131l.128.027.386.066,1.461.232,5.445.831,18.548,2.771-.081-.112c-.286,2.257-.583,4.61-.885,7.025-.182,1.43-.355,2.836-.522,4.17l.093-.085c-8.215.479-15.5.854-20.72,1.067-2.612.1-4.711.158-6.156.178-.723,0-1.287,0-1.662-.023l-.429-.023Z" transform="translate(-200.048 -275.788)"/><path class="c" d="M269.042,320.08a.793.793,0,0,0-.054.209c-.031.158-.07.352-.116.6-.1.545-.236,1.291-.386,2.2-.328,1.886-.773,4.44-1.267,7.265s-.9,5.387-1.213,7.276c-.143.912-.259,1.658-.344,2.206-.035.243-.062.444-.085.6a.881.881,0,0,0,0,.213.739.739,0,0,0,.058-.2c.031-.158.07-.355.12-.6.1-.549.24-1.291.41-2.2.336-1.859.773-4.425,1.268-7.265s.912-5.41,1.21-7.276c.139-.912.255-1.662.34-2.21q.046-.363.081-.6A.978.978,0,0,0,269.042,320.08Z" transform="translate(-247.794 -243.6)"/><path class="c" d="M228.4,246a.187.187,0,0,1-.027.077l-.062.224c-.05.2-.135.491-.216.877a28.1,28.1,0,0,0-.51,3.312,37.045,37.045,0,0,0-.128,5.054c.066,1.932.267,4.046.556,6.3v.07h.07l2.214.41-.073-.135c-.128.34-.255.7-.355,1.078a13.7,13.7,0,0,0,.251,7.462,23.364,23.364,0,0,0,2.581,5.565c.92,1.492,1.747,2.635,2.319,3.428l.668.9c.07.1.131.17.178.232a.314.314,0,0,0,.066.077s0-.031-.05-.089l-.162-.243c-.155-.224-.386-.533-.634-.927-.553-.8-1.364-1.959-2.261-3.455a23.853,23.853,0,0,1-2.527-5.541,13.549,13.549,0,0,1-.236-7.342,10.972,10.972,0,0,1,.348-1.059l.043-.112-.12-.023-2.2-.406.081.085c-.294-2.245-.506-4.363-.58-6.279a38.839,38.839,0,0,1,.081-5.024,30.81,30.81,0,0,1,.452-3.312c.07-.386.147-.68.182-.881.019-.093.035-.166.046-.228A.253.253,0,0,0,228.4,246Z" transform="translate(-199.919 -198.146)"/><path class="g" d="M242.177,318.332v-4.9s-.062-1.21.958-.954.831,2.168.831,2.168.189,7.462-.255,7.4-.618-.638-.618-.638v-2.871Z" transform="translate(-213.699 -238.911)"/><path class="c" d="M244.27,328.3a34.516,34.516,0,0,0,5.263,0,34.506,34.506,0,0,0-5.263,0Z" transform="translate(-220.035 -248.575)"/><path class="c" d="M262.941,267.32a3.631,3.631,0,0,0,.549.2,12.4,12.4,0,0,1,1.461.63,11.356,11.356,0,0,1,3.949,3.366,8.42,8.42,0,0,1,.773,1.264,8.186,8.186,0,0,1,.464,1.3,12.791,12.791,0,0,1,.386,2.319c.054.668.066,1.217.07,1.592a5.015,5.015,0,0,0,0,.587,2.358,2.358,0,0,0,.077-.564,14.085,14.085,0,0,0,0-1.6,11.939,11.939,0,0,0-.352-2.357,8.12,8.12,0,0,0-.468-1.337,8.587,8.587,0,0,0-.792-1.3,10.912,10.912,0,0,0-4.05-3.374,10.08,10.08,0,0,0-1.5-.58A2.894,2.894,0,0,0,262.941,267.32Z" transform="translate(-248.409 -211.228)"/><path class="c" d="M123.713,372.99,88.567,386,58.94,390.534l35.227-17.173Z" transform="translate(-22.598 -276.064)"/><path class="d" d="M94.436,397.15a14.958,14.958,0,0,1,1.878-5.325,3.864,3.864,0,0,0,.479-1,1.136,1.136,0,0,0-.2-1.047c-.452-.491-1.275-.274-1.832.1a6.438,6.438,0,0,0-2.365,3.316,19.244,19.244,0,0,0-.773,4.061" transform="translate(-8.361 -286.189)"/><path class="d" d="M100.386,390.758h1.747a3.424,3.424,0,0,1,1.546-.881,1.214,1.214,0,0,1,1.159.452c-.773-1.287-1.623-2.7-1.785-3.091-.313-.754.386-1.318,1.511-1.318s6.1,7.045,6.1,7.045-3.091-5.669-3.389-6.534c-.75-2.164,1.619-2.319,2.477-1.279,1.067,1.294,5.375,7.814,5.375,7.814a3.035,3.035,0,0,1,.255,2.577c-.564,1.256-2.2.773-2.2.773a2.11,2.11,0,0,1-1.159,1.747,3.585,3.585,0,0,1-2.921-.112l-6.442,1.445-2.319-.232a7.141,7.141,0,0,1-6.353-6.059h0Z" transform="translate(-28.01 -283.143)"/><path class="e" d="M111.764,399.28a20.044,20.044,0,0,0,1.893,3.006c.556.808,1.07,1.546,1.453,2.048a5.119,5.119,0,0,0,.649.811,5.245,5.245,0,0,0-.533-.893c-.352-.537-.846-1.275-1.4-2.083s-1.067-1.546-1.438-2.056l-.448-.614A1.572,1.572,0,0,0,111.764,399.28Z" transform="translate(-35.056 -292.195)"/><path class="e" d="M124.366,406.605a6.364,6.364,0,0,0-.572-1.051c-.386-.634-.92-1.5-1.515-2.454-.3-.475-.583-.931-.815-1.352a1.565,1.565,0,0,1-.143-1.194,2.967,2.967,0,0,1,.549-1.024,1.036,1.036,0,0,0-.247.209,2,2,0,0,0-.437.773,1.673,1.673,0,0,0,.112,1.318c.232.437.514.9.808,1.376.6.958,1.159,1.808,1.569,2.423A8.444,8.444,0,0,0,124.366,406.605Z" transform="translate(-47.272 -292.348)"/><path class="e" d="M129.249,411.229a3.6,3.6,0,0,0-.344-1l-.46-1.051a8.6,8.6,0,0,1-.471-1.295,1.523,1.523,0,0,1,.2-1.256,1.187,1.187,0,0,1,.46-.328,1.27,1.27,0,0,1,.479-.135,1.93,1.93,0,0,1,.692.243.823.823,0,0,0,.263.108,1.769,1.769,0,0,0-.224-.178,3.15,3.15,0,0,0-.29-.174,1.134,1.134,0,0,0-.441-.143,1.425,1.425,0,0,0-.549.124,1.306,1.306,0,0,0-.533.363,1.658,1.658,0,0,0-.255,1.418,7.4,7.4,0,0,0,.5,1.329c.182.386.355.738.5,1.032A9.945,9.945,0,0,0,129.249,411.229Z" transform="translate(-55.536 -296.33)"/><path class="e" d="M135.334,403.76a.688.688,0,0,0-.27.081,3.155,3.155,0,0,0-.672.386,3.663,3.663,0,0,0-1.039,4.66,3.149,3.149,0,0,0,.437.645c.124.135.2.2.213.189a5.633,5.633,0,0,1-.522-.9,3.725,3.725,0,0,1,1-4.486,9.284,9.284,0,0,1,.854-.58Z" transform="translate(-62.807 -294.944)"/><path class="e" d="M95.66,394.19a18.872,18.872,0,0,0,1.457,2.319,18.551,18.551,0,0,0,1.619,2.245,18.548,18.548,0,0,0-1.453-2.319,18.808,18.808,0,0,0-1.623-2.245Z" transform="translate(-11.811 -289.072)"/><path class="d" d="M151.827,374.454l4.019-.908,3.864-3.636a2.763,2.763,0,0,1,1.723-.742l7.021-.386a2.728,2.728,0,0,1,1.932.642l5.024,4.251L153.5,384.32l-3.006.267Z" transform="translate(-109.673 -273.479)"/><path class="e" d="M158.83,377.968c0,.031.518-.062,1.352-.17a5.671,5.671,0,0,1,3.18.332,8.21,8.21,0,0,1,1.515.947c.444.332.842.641,1.194.877a6.346,6.346,0,0,0,.869.506,1.251,1.251,0,0,0,.344.128c0-.031-.46-.243-1.132-.75-.336-.247-.723-.568-1.159-.912a7.977,7.977,0,0,0-1.546-.981,4.549,4.549,0,0,0-1.793-.386,7.986,7.986,0,0,0-1.488.116,9.314,9.314,0,0,0-.982.2,1.079,1.079,0,0,0-.356.093Z" transform="translate(-104.771 -278.866)"/><path class="e" d="M171.72,388.224c0,.031.286-.1.773-.143a4,4,0,0,1,1.8.251,9.277,9.277,0,0,1,1.654.846,3.457,3.457,0,0,0,.684.386,2.817,2.817,0,0,0-.6-.5,7.133,7.133,0,0,0-1.665-.916,3.694,3.694,0,0,0-1.893-.2,1.434,1.434,0,0,0-.753.282Z" transform="translate(-119.102 -285.211)"/><path class="e" d="M200.825,384.659c.05.031.614-.812,1.36-1.809a22.016,22.016,0,0,0,1.345-1.82,9.02,9.02,0,0,0-1.5,1.7A8.863,8.863,0,0,0,200.825,384.659Z" transform="translate(-157.245 -280.997)"/><path class="g" d="M181.4,354.319l-8.888-8.289a.85.85,0,0,1,.062-1.3h0a.85.85,0,0,1,1.086.043l10.433,9.359" transform="translate(-126.76 -258.617)"/><g class="h" transform="translate(45.48 85.938)"><path d="M181.4,354.319l-8.888-8.289a.85.85,0,0,1,.062-1.3h0a.85.85,0,0,1,1.086.043l10.433,9.359" transform="translate(-172.24 -344.556)"/></g></g></g></svg>