<svg xmlns="http://www.w3.org/2000/svg" width="217.235" height="159.985" viewBox="0 0 217.235 159.985"><defs><style>.a{fill:#f5f5f5;}.b{fill:#e0e0e0;}.c{opacity:0.2;}.d{fill:#b24bf3;}.e{fill:#263238;}.f{fill:#455a64;}.g{fill:#b78876;}.h{fill:#a36957;}.i{opacity:0.3;}.j{fill:#fafafa;}.k{opacity:0.5;}.l{fill:#fff;}</style></defs><g transform="translate(-86.33)"><g transform="translate(94.041)"><rect class="a" width="48.748" height="71.78" transform="translate(0 71.255) rotate(-33.78)"/><path class="b" d="M235.972,274.523l-.459,2.846-20.143-2.9.459-2.846Z" transform="translate(-176.482 -173.532)"/><path class="b" d="M238.657,251.55l2.889.415-3.2,19.833-2.893-.419Z" transform="translate(-189.311 -160.71)"/><path class="b" d="M160.73,181.749c.029.04-4.03,2.81-9.068,6.175s-9.144,6.067-9.172,6.024,4.03-2.81,9.068-6.179S160.683,181.706,160.73,181.749Z" transform="translate(-129.92 -116.115)"/><path class="b" d="M180.669,171.389c.029.043-6.724,4.608-15.08,10.2s-15.167,10.086-15.189,10.046,6.717-4.612,15.084-10.2S180.64,171.346,180.669,171.389Z" transform="translate(-134.974 -109.497)"/><path class="b" d="M188.939,183.749c.029.043-6.724,4.612-15.08,10.2s-15.167,10.086-15.189,10.043,6.724-4.608,15.084-10.2S188.91,183.706,188.939,183.749Z" transform="translate(-140.257 -117.393)"/><path class="b" d="M197.248,196.119c.029.043-6.724,4.612-15.08,10.2S167,216.407,167,216.364s6.72-4.612,15.08-10.2S197.219,196.076,197.248,196.119Z" transform="translate(-145.579 -125.296)"/><path class="b" d="M205.456,208.489c.029.043-6.724,4.608-15.08,10.2s-15.167,10.086-15.185,10.043,6.731-4.608,15.1-10.2S205.456,208.446,205.456,208.489Z" transform="translate(-150.812 -133.199)"/><rect class="a" width="40.94" height="60.282" transform="translate(141.978 106.891) rotate(-33.78)"/><path class="b" d="M608.585,360.868l-.386,2.391-16.919-2.438.39-2.391Z" transform="translate(-416.643 -228.993)"/><path class="b" d="M610.844,341.57l2.427.35-2.69,16.655-2.43-.35Z" transform="translate(-427.42 -218.222)"/><path class="b" d="M545.352,283c.029.043-3.377,2.373-7.609,5.2s-7.685,5.088-7.714,5.056,3.38-2.369,7.609-5.2S545.323,282.936,545.352,283Z" transform="translate(-377.511 -180.8)"/><path class="b" d="M562.171,274.249c.029.043-5.637,3.886-12.639,8.577s-12.733,8.468-12.762,8.425,5.637-3.886,12.639-8.58S562.131,274.206,562.171,274.249Z" transform="translate(-381.817 -175.212)"/><path class="b" d="M569.121,284.629c.029.043-5.637,3.886-12.639,8.58s-12.733,8.465-12.762,8.421,5.619-3.868,12.639-8.562S569.1,284.59,569.121,284.629Z" transform="translate(-386.257 -181.843)"/><path class="b" d="M576.061,295c.029.043-5.641,3.886-12.639,8.58S550.689,312.045,550.66,312s5.637-3.882,12.639-8.58S576.036,294.963,576.061,295Z" transform="translate(-390.691 -188.469)"/><path class="b" d="M583.061,305.409c.029.043-5.637,3.882-12.639,8.577s-12.733,8.465-12.762,8.425,5.637-3.886,12.639-8.58S583.014,305.366,583.061,305.409Z" transform="translate(-395.163 -195.119)"/><rect class="a" width="42.107" height="62.001" transform="translate(85.041 26.488) rotate(28.14)"/><path class="b" d="M332.675,203.122l-2.355.805L324.34,187.4l2.358-.809Z" transform="translate(-246.1 -119.208)"/><path class="b" d="M328.377,199.53l.859,2.373-16.417,5.623-.859-2.373Z" transform="translate(-238.191 -127.475)"/><path class="b" d="M360.146,116.186c-.029.054-3.792-1.9-8.411-4.37s-8.335-4.514-8.306-4.568,3.8,1.9,8.414,4.37S360.175,116.128,360.146,116.186Z" transform="translate(-258.296 -68.518)"/><path class="b" d="M365.334,132.984c-.029.054-6.262-3.225-13.921-7.32s-13.842-7.461-13.813-7.515,6.258,3.221,13.918,7.32S365.363,132.93,365.334,132.984Z" transform="translate(-254.572 -75.482)"/><path class="b" d="M359.274,144.314c-.029.054-6.262-3.221-13.921-7.32s-13.842-7.461-13.813-7.515,6.258,3.225,13.918,7.32S359.3,144.26,359.274,144.314Z" transform="translate(-250.7 -82.721)"/><path class="b" d="M353.214,155.65c-.029.054-6.262-3.221-13.921-7.316s-13.842-7.45-13.813-7.515,6.258,3.221,13.918,7.316S353.243,155.6,353.214,155.65Z" transform="translate(-246.829 -89.965)"/><path class="b" d="M347.154,166.98c-.029.054-6.262-3.221-13.921-7.316s-13.845-7.461-13.813-7.515,6.258,3.221,13.918,7.316S347.183,166.926,347.154,166.98Z" transform="translate(-242.957 -97.204)"/><rect class="c" width="0.932" height="15.882" transform="translate(103.457)"/></g><g transform="translate(176.213)"><path class="d" d="M335.23,63.208h43.5S374.715,44,356.652,44C340.585,44,335.23,63.208,335.23,63.208Z" transform="translate(-335.23 -28.111)"/><rect class="d" width="0.932" height="15.882" transform="translate(21.285)"/></g><g transform="translate(86.33 158.738)"><path class="e" d="M294.82,439.664c0,.051-46.675.094-104.241.094s-104.249-.032-104.249-.094,46.668-.094,104.249-.094S294.82,439.61,294.82,439.664Z" transform="translate(-86.33 -439.57)"/></g><g transform="translate(94.039 136.212)"><path class="d" d="M115.912,377.194a4.557,4.557,0,0,1,3.171,1.625,8,8,0,0,1,1.614,3.25,14.2,14.2,0,0,1-.415,7.251c-2.47-.885-4-3.521-4.695-4.908-1.083-2.188-1.73-6.811.314-7.222" transform="translate(-112.08 -377.19)"/><path class="d" d="M139.145,406.868a3.878,3.878,0,0,1-.181-3.893,5.15,5.15,0,0,1,3.106-2.5,2.162,2.162,0,0,1,1.827.087,1.654,1.654,0,0,1,.639,1.556,3.348,3.348,0,0,1-.722,1.6c-1.2,1.629-2.661,2.983-4.695,3.149" transform="translate(-127.386 -391.968)"/><path class="e" d="M139.754,419.379a2.347,2.347,0,0,1-.112-.473c-.065-.339-.152-.776-.256-1.3a13.639,13.639,0,0,1-.267-4.373,8.306,8.306,0,0,1,1.621-4.048,5.533,5.533,0,0,1,.935-.95,3.307,3.307,0,0,1,.3-.209.413.413,0,0,1,.108-.065,9.16,9.16,0,0,0-1.246,1.3,8.613,8.613,0,0,0-1.546,4,14.682,14.682,0,0,0,.22,4.333c.087.553.159,1,.2,1.311A2.97,2.97,0,0,1,139.754,419.379Z" transform="translate(-127.721 -396.848)"/><path class="e" d="M120.49,386.83a.844.844,0,0,1,.1.184c.065.144.152.325.253.553.22.48.527,1.177.9,2.04.744,1.73,1.741,4.135,2.781,6.814s1.925,5.124,2.528,6.9c.311.888.553,1.611.722,2.113.076.238.134.43.181.578a.943.943,0,0,1,.054.206.889.889,0,0,1-.087-.2c-.054-.144-.123-.332-.213-.567l-.762-2.095c-.646-1.766-1.549-4.207-2.586-6.883s-2.019-5.088-2.734-6.829c-.361-.856-.639-1.553-.845-2.062-.094-.231-.17-.415-.228-.563A1.26,1.26,0,0,1,120.49,386.83Z" transform="translate(-115.863 -383.349)"/><path class="d" d="M116.776,417.832a9.093,9.093,0,0,0-7.049-4.38c-.722-.051-1.611.072-1.936.722a1.875,1.875,0,0,0,.607,1.972,7.761,7.761,0,0,0,8.4,1.878" transform="translate(-107.678 -400.351)"/><path class="e" d="M116.43,418.884a2.58,2.58,0,0,1,.459.018,4.362,4.362,0,0,1,.531.061c.206.04.448.061.7.134a7.017,7.017,0,0,1,.834.231,8.27,8.27,0,0,1,.928.361,10.039,10.039,0,0,1,1.957,1.159,9.862,9.862,0,0,1,1.618,1.6,8.123,8.123,0,0,1,.567.813,7.926,7.926,0,0,1,.426.755,6.282,6.282,0,0,1,.289.65,4.1,4.1,0,0,1,.184.506,2.464,2.464,0,0,1,.119.444c-.04,0-.213-.621-.7-1.546a7.951,7.951,0,0,0-.437-.722,9.149,9.149,0,0,0-.571-.791,9.623,9.623,0,0,0-3.517-2.716c-.314-.137-.614-.267-.906-.361a7.891,7.891,0,0,0-.82-.249C117.08,418.957,116.426,418.924,116.43,418.884Z" transform="translate(-113.27 -403.826)"/></g><g transform="translate(232.209 24.556)"><path class="e" d="M560.788,104.151c-1.062.242-1.578,1.466-1.679,2.55a9.757,9.757,0,0,1-.419,3.221c-.513,1.112-1.737,1.936-1.777,3.16-.025.748.419,1.444.4,2.2-.036,1.228-1.286,2.167-1.354,3.38-.047.885.542,1.73.4,2.6-.108.679-.639,1.213-.863,1.863a3.173,3.173,0,0,0,1.607,3.456,5.269,5.269,0,0,0,7.674-2.448,10.74,10.74,0,0,0,.361-5q-.65-7.858-.968-15.738" transform="translate(-531.873 -90.616)"/><path class="f" d="M561.82,124.665a1.231,1.231,0,0,0,.487-.574,2.09,2.09,0,0,0,.123-.885,4.864,4.864,0,0,0-.264-1.166,3.361,3.361,0,0,1-.188-1.481,3.4,3.4,0,0,1,.859-1.481,3.168,3.168,0,0,0,.488-.74,1.2,1.2,0,0,0,.058-.867c-.188-.589-.766-1.022-1.029-1.7a1.805,1.805,0,0,1-.058-1.054,4.185,4.185,0,0,1,.361-.943,8.093,8.093,0,0,0,.722-1.7c.253-1.145.134-2.239.307-3.138a3.474,3.474,0,0,1,.914-1.921,2.1,2.1,0,0,1,.477-.361.747.747,0,0,1,.191-.069,2.776,2.776,0,0,0-.617.462,3.532,3.532,0,0,0-.834,1.9,11.751,11.751,0,0,0-.1,1.444,8.894,8.894,0,0,1-.166,1.694,8.115,8.115,0,0,1-.722,1.741,2.384,2.384,0,0,0-.282,1.853c.238.621.813,1.051,1.033,1.715a1.4,1.4,0,0,1-.069.993,3.418,3.418,0,0,1-.542.813,3.426,3.426,0,0,0-.841,1.394,3.25,3.25,0,0,0,.166,1.419,4.92,4.92,0,0,1,.238,1.2,2.026,2.026,0,0,1-.162.917,1.105,1.105,0,0,1-.361.455A.571.571,0,0,1,561.82,124.665Z" transform="translate(-535.989 -92.648)"/><path class="g" d="M520.191,180.37l-3.25,9.389-13.593.722-2.268,5.056,14.192,1.444a5.363,5.363,0,0,0,7.085-3.153l3.788-10.574Z" transform="translate(-497.184 -139.791)"/><path class="g" d="M587.127,315.519s-9.96-31.642-10.173-32.667c-.191-.932,3.611-23.7,4.1-29.612l-13.459.5v.134l-5.72.318,5.121,64.684h6.193l-.614-21.469a209.388,209.388,0,0,0,9.3,20.7Z" transform="translate(-536.021 -186.346)"/><path class="h" d="M587.963,372.707c0-.2-.076-7.194-.076-7.194-.076.419-2.373-6.074-2.318-6.468C585.6,358.84,587.963,372.707,587.963,372.707Z" transform="translate(-551.161 -253.941)"/><path class="h" d="M584.753,350.53a1.4,1.4,0,0,0-.04.394,9.779,9.779,0,0,0,0,1.083,7.208,7.208,0,0,0,.061.74c.029.267.069.549.13.841a14.939,14.939,0,0,0,.509,1.885c.448,1.311.946,2.456,1.3,3.286.166.361.311.7.433.979a1.559,1.559,0,0,0,.181.361,1.368,1.368,0,0,0-.108-.361c-.083-.238-.209-.581-.361-1-.318-.845-.794-2-1.239-3.3a15.65,15.65,0,0,1-.516-1.856c-.065-.289-.108-.567-.148-.827s-.069-.506-.087-.722c-.043-.448-.061-.809-.072-1.062a1.63,1.63,0,0,0-.04-.441Z" transform="translate(-550.605 -248.502)"/><path class="f" d="M568.194,434.389v-.581l6.345-.278.018,2.4-.39.025c-1.744.1-8.866.4-10.028.047C562.835,435.614,568.194,434.389,568.194,434.389Z" transform="translate(-537.339 -301.529)"/><path class="e" d="M574.631,439.78a.834.834,0,0,1-.108,0l-.311.022-1.148.051c-.968.04-2.308.076-3.785.083s-2.82-.018-3.792-.047l-1.145-.047h-.422a.669.669,0,0,1,.108,0h.314l1.148.022c.968,0,2.308.029,3.785.022s2.82-.033,3.788-.058l1.148-.029h.419Z" transform="translate(-537.331 -305.522)"/><path class="e" d="M568.92,438.6a2.768,2.768,0,0,0-.217-.545,2.6,2.6,0,0,0-.394-.437.838.838,0,0,1,.459.4A.863.863,0,0,1,568.92,438.6Z" transform="translate(-540.135 -304.142)"/><path class="e" d="M574.586,436.782a1.427,1.427,0,0,1-.2-.242c-.094-.144-.152-.271-.134-.282s.1.094.2.238S574.6,436.771,574.586,436.782Z" transform="translate(-543.931 -303.272)"/><path class="e" d="M575.894,436.377c0,.018-.116-.051-.224-.148s-.188-.188-.173-.2.116.051.224.148S575.909,436.344,575.894,436.377Z" transform="translate(-544.726 -303.123)"/><path class="e" d="M576.321,435.231a.762.762,0,0,1-.332.043.722.722,0,0,1-.329-.033.752.752,0,0,1,.329-.043.722.722,0,0,1,.332.033Z" transform="translate(-544.831 -302.591)"/><path class="e" d="M576.512,434.14a.671.671,0,0,1-.361.108.682.682,0,0,1-.361-.051,2.084,2.084,0,0,1,.361-.029,1.872,1.872,0,0,1,.361-.029Z" transform="translate(-544.914 -301.918)"/><path class="e" d="M572.481,435.191a1.108,1.108,0,0,1-.408,0,2.333,2.333,0,0,1-.43-.094,1.168,1.168,0,0,1-.249-.1.228.228,0,0,1-.1-.126.159.159,0,0,1,.061-.163.751.751,0,0,1,1.054.488.273.273,0,0,1,0,.108,1.162,1.162,0,0,0-.188-.361.744.744,0,0,0-.361-.224.643.643,0,0,0-.484.036c-.061.047-.036.123.033.166a1.3,1.3,0,0,0,.231.1,3.041,3.041,0,0,0,.415.1C572.326,435.18,572.481,435.18,572.481,435.191Z" transform="translate(-542.039 -302.233)"/><path class="e" d="M574.2,434.847a.383.383,0,0,1-.051-.282.672.672,0,0,1,.112-.3.412.412,0,0,1,.336-.209.166.166,0,0,1,.126.188.429.429,0,0,1-.069.181,1.493,1.493,0,0,1-.191.249.592.592,0,0,1-.231.163,2.536,2.536,0,0,0,.191-.2,1.4,1.4,0,0,0,.17-.242c.054-.087.094-.242,0-.26s-.2.094-.264.173a.661.661,0,0,0-.116.264A1.271,1.271,0,0,0,574.2,434.847Z" transform="translate(-543.858 -301.868)"/><path class="e" d="M589.25,434.923s-.181,0-.466.018a2,2,0,0,0-1.65,1.325c-.094.271-.1.455-.116.451s0-.047,0-.126a1.62,1.62,0,0,1,.065-.343,1.975,1.975,0,0,1,.635-.943,1.946,1.946,0,0,1,1.058-.415,1.513,1.513,0,0,1,.361,0A.455.455,0,0,1,589.25,434.923Z" transform="translate(-552.084 -302.392)"/><path class="e" d="M581.535,438.367a3.542,3.542,0,0,1-.924.09,3.4,3.4,0,0,1-.921-.079c0-.022.412,0,.921,0S581.532,438.345,581.535,438.367Z" transform="translate(-547.406 -304.614)"/><path class="e" d="M587.9,438.344s-.032.087-.076.181-.065.181-.087.177-.032-.1.018-.209S587.886,438.326,587.9,438.344Z" transform="translate(-552.536 -304.602)"/><path class="e" d="M589.081,436.732a.4.4,0,0,1-.09.144c-.065.065-.13.108-.148.094s.025-.079.09-.148S589.063,436.714,589.081,436.732Z" transform="translate(-553.251 -303.572)"/><path class="e" d="M590.711,435.937c0,.022-.087.022-.181.054s-.159.083-.177.069.036-.1.152-.141S590.719,435.915,590.711,435.937Z" transform="translate(-554.216 -303.044)"/><path class="e" d="M592.326,435.616c0,.022-.025.054-.079.072s-.1.022-.108,0,.029-.054.079-.072S592.319,435.6,592.326,435.616Z" transform="translate(-555.358 -302.853)"/><path class="f" d="M611.039,428.38l-.238-.531L616.474,425l1,2.167-.361.184c-1.549.805-7.923,3.99-9.129,4.149C606.652,431.692,611.039,428.38,611.039,428.38Z" transform="translate(-565.321 -296.079)"/><path class="e" d="M617.514,430.57l-.094.058-.278.144-1.026.52c-.867.43-2.073,1.011-3.42,1.625s-2.582,1.138-3.478,1.51l-1.065.43-.289.112a.41.41,0,0,1-.1.033l.1-.047.285-.126,1.054-.451c.892-.383,2.12-.917,3.467-1.531s2.557-1.185,3.431-1.6l1.033-.495.285-.134Z" transform="translate(-565.339 -299.638)"/><path class="e" d="M611.821,439.59a2.668,2.668,0,0,0-.422-.412,2.507,2.507,0,0,0-.538-.238A1.015,1.015,0,0,1,611.821,439.59Z" transform="translate(-567.32 -304.985)"/><path class="e" d="M616.209,435.614a1.3,1.3,0,0,1-.282-.137c-.144-.094-.249-.184-.238-.2s.137.043.282.137S616.219,435.6,616.209,435.614Z" transform="translate(-570.404 -302.642)"/><path class="e" d="M617.215,434.708c0,.018-.123,0-.264-.043s-.246-.1-.242-.119a.538.538,0,0,1,.267.043C617.114,434.622,617.223,434.672,617.215,434.708Z" transform="translate(-571.057 -302.177)"/><path class="e" d="M617.189,433.08a.843.843,0,0,1-.285.177.762.762,0,0,1-.314.1.852.852,0,0,1,.282-.177A.787.787,0,0,1,617.189,433.08Z" transform="translate(-570.98 -301.242)"/><path class="e" d="M616.894,431.9a.983.983,0,0,1-.292.249.628.628,0,0,1-.361.108,1.909,1.909,0,0,1,.329-.177C616.746,431.979,616.876,431.878,616.894,431.9Z" transform="translate(-570.757 -300.484)"/><path class="e" d="M613.821,434.621a1.17,1.17,0,0,1-.361.166,2.838,2.838,0,0,1-.433.09,1.084,1.084,0,0,1-.267,0,.213.213,0,0,1-.144-.072.159.159,0,0,1,0-.173.744.744,0,0,1,.928-.181.723.723,0,0,1,.231.191c.043.058.061.094.058.1a1.083,1.083,0,0,0-.314-.242.722.722,0,0,0-.408-.061.632.632,0,0,0-.426.231c-.04.069,0,.126.1.137a1.44,1.44,0,0,0,.249,0,2.857,2.857,0,0,0,.426-.076C613.662,434.671,613.821,434.61,613.821,434.621Z" transform="translate(-568.424 -302.06)"/><path class="e" d="M615.384,433.686a.4.4,0,0,1-.159-.238.679.679,0,0,1-.022-.314.408.408,0,0,1,.224-.329c.09-.029.3.155.314.224s-.1.033-.112.09a1.26,1.26,0,0,1-.072.3.564.564,0,0,1-.144.246,2.667,2.667,0,0,0,.094-.26,1.852,1.852,0,0,0,.054-.293c0-.1,0-.256-.116-.231s-.148.166-.173.267a.626.626,0,0,0,0,.285A1.578,1.578,0,0,0,615.384,433.686Z" transform="translate(-570.089 -301.064)"/><path class="e" d="M629.9,426.36a2.564,2.564,0,0,0-.419.209,1.968,1.968,0,0,0-.961,1.885c.022.289.09.455.076.462a.458.458,0,0,1-.054-.116,1.868,1.868,0,0,1-.076-.339,1.91,1.91,0,0,1,.986-1.936,1.714,1.714,0,0,1,.321-.137A.444.444,0,0,1,629.9,426.36Z" transform="translate(-578.559 -296.948)"/><path class="e" d="M623.209,432.9a5.156,5.156,0,0,1-1.679.766c0-.022.379-.166.841-.361S623.2,432.88,623.209,432.9Z" transform="translate(-574.136 -301.125)"/><path class="e" d="M629.162,431.468c.018,0,0,.09,0,.2v.2a.3.3,0,0,1-.072-.2C629.09,431.544,629.144,431.458,629.162,431.468Z" transform="translate(-578.966 -300.211)"/><path class="e" d="M629.583,429.469c.018,0,0,.083-.022.17s-.076.152-.094.144,0-.083.022-.17S629.561,429.462,629.583,429.469Z" transform="translate(-579.202 -298.934)"/><path class="e" d="M630.683,428c0,.022-.072.054-.144.123s-.112.141-.13.134,0-.108.079-.191A.237.237,0,0,1,630.683,428Z" transform="translate(-579.805 -297.993)"/><path class="e" d="M631.971,427.172a.144.144,0,0,1-.043.1c-.043.04-.083.061-.1.047s0-.058.043-.1S631.957,427.158,631.971,427.172Z" transform="translate(-580.714 -297.464)"/><path class="d" d="M569.346,178.887l-1.055-12.892,5.417.1a21.685,21.685,0,0,0-.549-6.07,7.034,7.034,0,0,0-4.1-5.056v-.036l-.166-.043a15.466,15.466,0,0,0-4.969-1.3l-6.663.076s-5.088-.65-7.894,2.994c-1.083,1.4-4.445,10.964-4.445,10.964l8,3.85-.747-5.3a25.05,25.05,0,0,0,.643,5.056c.271.679,1.083,2.788,1.083,2.788l-.1,6.363Z" transform="translate(-525.192 -122.682)"/><path class="d" d="M600.64,177.713l-.99,4.211h9.328l-.614-7.064Z" transform="translate(-560.158 -136.27)"/><path class="e" d="M610.53,194.067a7.476,7.476,0,0,0-1.235-.123c-.766-.043-1.806-.083-2.99-.076s-2.228.058-2.994.116a7.081,7.081,0,0,0-1.231.152,7.823,7.823,0,0,0,1.242,0c.762-.025,1.806-.054,2.983-.058s2.221,0,2.986.018A7.816,7.816,0,0,0,610.53,194.067Z" transform="translate(-561.71 -148.414)"/><path class="e" d="M601.195,174.77a5.623,5.623,0,0,0-.029,1.083c0,.661.029,1.571.069,2.578s.087,1.921.13,2.578a5.381,5.381,0,0,0,.116,1.083,5.648,5.648,0,0,0,.029-1.083c0-.661-.029-1.574-.069-2.582s-.087-1.918-.13-2.578A5.311,5.311,0,0,0,601.195,174.77Z" transform="translate(-561.117 -136.213)"/><g class="i" transform="translate(31.591 42.204)"><path d="M577.77,184.87s2.073,15.373,7.9,14.965c0,0,2.625-.029,3.467-1.773v-.686Z" transform="translate(-577.77 -184.87)"/></g><g class="i" transform="translate(38.961 39.463)"><path d="M599.3,177.28l-1.116,7.537.722,1.322,1.192-2.586-.506-.014Z" transform="translate(-598.18 -177.28)"/></g><path class="e" d="M566.368,192.9a1.441,1.441,0,0,1-.159-.361c-.09-.235-.209-.578-.361-1.008a31.107,31.107,0,0,1-.892-3.413,24.2,24.2,0,0,1-.441-3.5c-.022-.451-.029-.816-.022-1.083a1.444,1.444,0,0,1,.025-.39c.029,0,.051.556.126,1.444a32.135,32.135,0,0,0,.495,3.47c.267,1.343.589,2.546.834,3.409.116.4.213.744.292,1.026a1.764,1.764,0,0,1,.1.4Z" transform="translate(-537.695 -141.567)"/><path class="e" d="M575.387,219.707a1.866,1.866,0,0,1-.321-.722,1.734,1.734,0,0,1-.141-.794,1.884,1.884,0,0,1,.321.74A1.806,1.806,0,0,1,575.387,219.707Z" transform="translate(-544.359 -163.953)"/><path class="e" d="M578.062,218.243a3.323,3.323,0,0,1-.033-2.253,7.514,7.514,0,0,1,0,1.127A7.429,7.429,0,0,1,578.062,218.243Z" transform="translate(-546.229 -162.548)"/><path class="e" d="M552.96,196.32c-.025.043-1.885-.838-4.156-1.972s-4.1-2.095-4.073-2.141,1.885.838,4.156,1.972S552.981,196.273,552.96,196.32Z" transform="translate(-525.07 -147.352)"/><path class="g" d="M571.672,126.026c.04-1.827.051-3.748.051-3.748a3.826,3.826,0,0,1-2.752-3.535c-.39-2.94.7-9.841.7-9.841h0A8.236,8.236,0,0,1,579,111.555h0l-.581,14.831a3.186,3.186,0,0,1-3.445,2.95h0A3.366,3.366,0,0,1,571.672,126.026Z" transform="translate(-540.504 -93.795)"/><path class="e" d="M570.56,124.46a.4.4,0,0,0,.361.408.379.379,0,0,0,.415-.361.394.394,0,0,0-.361-.4.361.361,0,0,0-.415.358Z" transform="translate(-541.572 -103.84)"/><path class="e" d="M570.148,122.972c.047.051.361-.162.776-.148s.722.231.773.181-.022-.116-.155-.22a1.084,1.084,0,0,0-.621-.206,1.015,1.015,0,0,0-.618.181C570.17,122.857,570.123,122.947,570.148,122.972Z" transform="translate(-541.306 -102.869)"/><path class="e" d="M582.469,125.2a.394.394,0,0,0,.361.408.361.361,0,0,0,.415-.361.39.39,0,0,0-.361-.4.361.361,0,0,0-.415.358Z" transform="translate(-549.181 -104.313)"/><path class="e" d="M582.381,123.713c.047.054.361-.159.776-.148s.722.231.776.181-.025-.116-.159-.217a1.037,1.037,0,0,0-.618-.209,1.051,1.051,0,0,0-.621.181C582.406,123.6,582.359,123.688,582.381,123.713Z" transform="translate(-549.122 -103.342)"/><path class="e" d="M576.024,126.765a2.73,2.73,0,0,0-.686-.141c-.108,0-.209-.04-.224-.112a.527.527,0,0,1,.079-.321l.339-.813a14.118,14.118,0,0,0,.776-2.138,14.307,14.307,0,0,0-.946,2.069c-.112.285-.224.56-.329.82a.632.632,0,0,0-.065.423.271.271,0,0,0,.173.166.741.741,0,0,0,.184.029A2.755,2.755,0,0,0,576.024,126.765Z" transform="translate(-544.382 -103.292)"/><path class="h" d="M576.74,145.113a7.822,7.822,0,0,0,4.138-.993,3.9,3.9,0,0,1-4.117,1.719Z" transform="translate(-545.521 -116.631)"/><path class="e" d="M583.5,119.971c-.087.134-.412.076-.773,0s-.679-.137-.722-.293.336-.361.82-.264S583.586,119.856,583.5,119.971Z" transform="translate(-548.882 -100.832)"/><path class="e" d="M571.693,118.709c-.032.155-.379.213-.776.231s-.748,0-.794-.159.289-.383.769-.4S571.726,118.561,571.693,118.709Z" transform="translate(-541.29 -100.184)"/><path class="h" d="M577.46,135.775a.21.21,0,0,0-.235.108.238.238,0,1,0,.144-.119" transform="translate(-545.812 -111.288)"/><path class="e" d="M577.32,135.767c0-.018-.069-.123-.253-.083a.325.325,0,0,0-.231.228.346.346,0,0,0,.534.383.3.3,0,0,0,.13-.3c-.036-.191-.177-.22-.184-.2s.051.09.04.2a.17.17,0,0,1-.087.134.184.184,0,0,1-.184,0,.192.192,0,0,1-.065-.177.177.177,0,0,1,.1-.134C577.219,135.764,577.309,135.793,577.32,135.767Z" transform="translate(-545.574 -111.236)"/><path class="e" d="M578.7,110.939c-.361.845-1.257,1.5-1.134,2.412.079.589.459,1.138.386,1.73-.094.722-.863,1.257-.975,2-.134.906.751,1.611,1.1,2.456.516,1.235-.141,2.622-.159,3.972a4.24,4.24,0,0,0,3.756,4.124,2.256,2.256,0,0,0,2.167-.888,8.554,8.554,0,0,0,.491-1.975c.318-.968,1.239-1.676,1.445-2.672.361-1.806-1.842-3.322-1.7-5.171a12.893,12.893,0,0,1,.755-2.243,3.294,3.294,0,0,0-.643-2.921c-.545-.646-1.333-1.083-1.806-1.777a7.371,7.371,0,0,1-.722-2.748,6.926,6.926,0,0,0-11-4.055,2.253,2.253,0,0,0,1.921,2.781c2.445.4,3.575-.061,3.85.917a2.586,2.586,0,0,0,.722,2.235C578.156,110.187,579.106,109.956,578.7,110.939Z" transform="translate(-541.611 -89.557)"/><path class="f" d="M596.588,139.2a.862.862,0,0,1-.224-.022,3.534,3.534,0,0,1-.621-.17,4.409,4.409,0,0,1-1.892-1.4,5.006,5.006,0,0,1-.8-1.444,5.723,5.723,0,0,1-.329-1.853,7.649,7.649,0,0,1,.26-2.062,8.837,8.837,0,0,1,.361-1.044,10.661,10.661,0,0,0,.394-1.036,1.928,1.928,0,0,0,0-1.062,5.884,5.884,0,0,0-.408-.989,6.494,6.494,0,0,1-.422-.979,2.112,2.112,0,0,1-.076-1.036,7.348,7.348,0,0,1,.8-1.7,3.217,3.217,0,0,0,.325-1.538,3.63,3.63,0,0,0-.805-2.131,6.348,6.348,0,0,0-.61-.6,2.47,2.47,0,0,1,.668.549,3.612,3.612,0,0,1,.881,2.167,3.338,3.338,0,0,1-.318,1.611,7.459,7.459,0,0,0-.773,1.665,3.081,3.081,0,0,0,.491,1.9,5.627,5.627,0,0,1,.426,1.022,2.127,2.127,0,0,1,0,1.156,11.327,11.327,0,0,1-.415,1.073,8.494,8.494,0,0,0-.361,1.022,7.443,7.443,0,0,0-.264,2.011,5.223,5.223,0,0,0,1.062,3.207,4.435,4.435,0,0,0,1.806,1.412C596.281,139.146,596.592,139.178,596.588,139.2Z" transform="translate(-555.615 -101.311)"/><path class="f" d="M583.737,111.145a2.553,2.553,0,0,1-.538.079,5.6,5.6,0,0,1-1.488-.04,2.835,2.835,0,0,1-1.878-1.138,6.135,6.135,0,0,1-.491-1.213,2.015,2.015,0,0,0-.823-1.015,5.819,5.819,0,0,0-2.528-.661,4.409,4.409,0,0,1-2.105-.657,2.084,2.084,0,0,1-.863-1.2,1.211,1.211,0,0,1-.025-.408c0-.094.022-.141.029-.141a2.559,2.559,0,0,0,.069.531,2.065,2.065,0,0,0,.867,1.112,4.366,4.366,0,0,0,2.048.592,5.89,5.89,0,0,1,2.615.675,2.2,2.2,0,0,1,.9,1.109,6.044,6.044,0,0,0,.466,1.184,2.726,2.726,0,0,0,1.755,1.083,6.234,6.234,0,0,0,1.445.1A3.653,3.653,0,0,1,583.737,111.145Z" transform="translate(-543.125 -91.479)"/><path class="f" d="M584,107.414a1.2,1.2,0,0,1-.423.061,2.575,2.575,0,0,1-1.806-.722,3.315,3.315,0,0,1-.56-.748,3.111,3.111,0,0,0-1.314-1.506,4.333,4.333,0,0,0-2.022-.177,6.2,6.2,0,0,1-1.726,0,2.166,2.166,0,0,1-1.083-.477,1.2,1.2,0,0,1-.209-.238q-.065-.094-.054-.1a2.41,2.41,0,0,0,.311.278,2.275,2.275,0,0,0,1.044.4,6.55,6.55,0,0,0,1.69-.029,4.333,4.333,0,0,1,2.113.181,2.076,2.076,0,0,1,.863.722,9.3,9.3,0,0,1,.524.874,3.439,3.439,0,0,0,.524.722,2.529,2.529,0,0,0,.618.459,2.679,2.679,0,0,0,1.083.3A2.788,2.788,0,0,1,584,107.414Z" transform="translate(-544.279 -90.687)"/><path class="f" d="M602.219,140.222c-.018,0,.1-.238.231-.686a6.213,6.213,0,0,0,.238-1.936,5.894,5.894,0,0,0-.769-2.755c-.264-.473-.664-.9-.993-1.416a2.528,2.528,0,0,1-.361-.87,1.946,1.946,0,0,1,.079-.975,11.58,11.58,0,0,0,.643-1.723,2.5,2.5,0,0,0-.469-1.564,7.7,7.7,0,0,1-.386-.722,2.645,2.645,0,0,1-.206-.755,6.544,6.544,0,0,1,.043-1.376,3.65,3.65,0,0,0-.173-1.921,1.747,1.747,0,0,0-.426-.563.075.075,0,0,1,.043.022.44.44,0,0,1,.116.083,1.289,1.289,0,0,1,.336.43,3.568,3.568,0,0,1,.235,1.961,6.922,6.922,0,0,0-.018,1.347,3.467,3.467,0,0,0,.585,1.4,4.8,4.8,0,0,1,.394.769,1.805,1.805,0,0,1,.108.91,10.637,10.637,0,0,1-.646,1.755,1.805,1.805,0,0,0-.076.885,2.4,2.4,0,0,0,.339.805c.307.5.722.932.986,1.426a5.959,5.959,0,0,1,.751,2.842,5.843,5.843,0,0,1-.3,1.961,3.768,3.768,0,0,1-.209.5A.663.663,0,0,1,602.219,140.222Z" transform="translate(-560.17 -103.113)"/><path class="e" d="M561.438,270.145s-2.434-23.054-2.575-31.573,3.831-16.926,3.831-16.926L578.252,221s3.077,8.642,3.131,12.278c.108,7.056-1.874,14.022-1.647,19.62l.52,17.262" transform="translate(-534.098 -165.748)"/><path class="j" d="M584.39,278.6a2.484,2.484,0,0,1-.256.2l-.141.1-.152.148a2.5,2.5,0,0,0-.361.386,8.656,8.656,0,0,0-1.217,3.084,10.365,10.365,0,0,1-.787,2.2,3.841,3.841,0,0,1-.361.545c-.065.087-.126.181-.2.264l-.238.238a3.867,3.867,0,0,1-1.17.751c-.87.383-1.856.563-2.752,1.015a4.334,4.334,0,0,0-2,2.275c-.441.979-.722,2-1.083,2.965a5.345,5.345,0,0,1-1.625,2.463,4.463,4.463,0,0,1-2.528.8c-.838.051-1.614.025-2.311.13a3.651,3.651,0,0,0-1.741.657,2.441,2.441,0,0,0-.809,1.141,1.734,1.734,0,0,0-.061.885c.043.2.1.3.087.3a.91.91,0,0,1-.123-.3,1.658,1.658,0,0,1,.029-.914,2.456,2.456,0,0,1,.813-1.2,3.7,3.7,0,0,1,1.806-.722c.722-.116,1.491-.1,2.318-.155a4.333,4.333,0,0,0,2.452-.78,5.244,5.244,0,0,0,1.556-2.391c.361-.95.625-1.979,1.083-2.976a4.514,4.514,0,0,1,2.087-2.365c.932-.462,1.918-.639,2.766-1.008a3.788,3.788,0,0,0,1.127-.722l.227-.228c.072-.079.134-.17.2-.253a3.492,3.492,0,0,0,.336-.524,10.359,10.359,0,0,0,.8-2.167,8.383,8.383,0,0,1,1.286-3.1,2.35,2.35,0,0,1,.361-.383c.058-.051.108-.1.159-.141l.148-.094A2.494,2.494,0,0,1,584.39,278.6Z" transform="translate(-537.707 -202.548)"/><path class="j" d="M581.89,249.06a1.689,1.689,0,0,1,.022.307,3.782,3.782,0,0,1-.108.885,5.687,5.687,0,0,1-1.759,2.716,10.444,10.444,0,0,1-1.806,1.333c-.7.412-1.466.805-2.257,1.253a11.66,11.66,0,0,0-2.3,1.621,8.9,8.9,0,0,0-1.748,2.452,22.425,22.425,0,0,1-1.513,2.669,6.376,6.376,0,0,1-.99,1.083,5.971,5.971,0,0,1-1.2.791,14.408,14.408,0,0,1-2.416.928,21.671,21.671,0,0,0-2.123.722,8.128,8.128,0,0,0-1.618.867,5.009,5.009,0,0,0-1.015.935,4.643,4.643,0,0,0-.61,1.011,1.9,1.9,0,0,1,.1-.293,3.612,3.612,0,0,1,.451-.766,4.865,4.865,0,0,1,1.011-.975,8.245,8.245,0,0,1,1.629-.9,21.659,21.659,0,0,1,2.127-.74,14.95,14.95,0,0,0,2.383-.932,6.159,6.159,0,0,0,1.138-.766,6.406,6.406,0,0,0,.953-1.062,23.238,23.238,0,0,0,1.5-2.651,8.966,8.966,0,0,1,1.806-2.5,11.639,11.639,0,0,1,2.347-1.639c.794-.444,1.564-.831,2.261-1.239a10.426,10.426,0,0,0,1.806-1.293,5.727,5.727,0,0,0,1.777-2.64,5.518,5.518,0,0,0,.152-1.177Z" transform="translate(-535.114 -183.675)"/><path class="j" d="M558.843,239.542a.271.271,0,0,1-.033-.072,1.875,1.875,0,0,1-.069-.213,1.726,1.726,0,0,1,.036-.867,3.577,3.577,0,0,1,2.286-2.109c.643-.22,1.369-.361,2.127-.549a4,4,0,0,0,2.943-2.192,11.6,11.6,0,0,0,.538-1.3,14.128,14.128,0,0,1,1.145-2.77,4.413,4.413,0,0,1,2.354-1.831,21.387,21.387,0,0,1,2.7-.686,8.966,8.966,0,0,0,2.351-.8,4.948,4.948,0,0,0,1.589-1.444,5.374,5.374,0,0,0,1.011-2.925,8.3,8.3,0,0,0-.076-1.156,3.761,3.761,0,0,1,.148,1.156,5.319,5.319,0,0,1-.975,3,5,5,0,0,1-1.621,1.491,9,9,0,0,1-2.387.834,21.516,21.516,0,0,0-2.68.69,4.24,4.24,0,0,0-2.261,1.759,14.155,14.155,0,0,0-1.13,2.73,11.243,11.243,0,0,1-.552,1.318,4.771,4.771,0,0,1-.809,1.119,4.7,4.7,0,0,1-2.257,1.138c-.766.2-1.488.318-2.12.527a3.5,3.5,0,0,0-2.261,2,1.829,1.829,0,0,0-.069.838A1.811,1.811,0,0,1,558.843,239.542Z" transform="translate(-533.997 -165.512)"/><path class="j" d="M584.106,327a1.37,1.37,0,0,1,.025.228,2.4,2.4,0,0,1-.069.65,3.687,3.687,0,0,1-1.365,1.95,6.02,6.02,0,0,1-1.445.852c-.553.235-1.163.423-1.806.621a14.92,14.92,0,0,0-1.954.722,5.581,5.581,0,0,0-1.737,1.3c-.527.549-.982,1.152-1.488,1.686a6.778,6.778,0,0,1-1.665,1.3,7.335,7.335,0,0,1-3.434.9,6.84,6.84,0,0,1-2.362-.394,4.515,4.515,0,0,1-.6-.256.95.95,0,0,1-.2-.112,1.537,1.537,0,0,1,.213.076,6.39,6.39,0,0,0,.607.224,7.223,7.223,0,0,0,2.34.329,7.3,7.3,0,0,0,3.351-.914,6.745,6.745,0,0,0,1.614-1.275c.495-.527.946-1.127,1.484-1.69a5.8,5.8,0,0,1,1.835-1.336,14.944,14.944,0,0,1,1.983-.722,18.891,18.891,0,0,0,1.806-.6,6.056,6.056,0,0,0,1.408-.813,3.684,3.684,0,0,0,1.376-1.863A4.586,4.586,0,0,0,584.106,327Z" transform="translate(-538.666 -233.469)"/><path class="g" d="M583.751,162.42l-3.012.072a4.871,4.871,0,0,1-.679,1.708,51.478,51.478,0,0,1-4.951-12.571c.072-.235.155-.495.26-.784a3.337,3.337,0,0,0-.04-1.322c-.087-.524-.231-1.228-.274-1.553-.134-1-.3-1.152-.643-1.04-.469.155.195,2.791-.191,2.849-.209.029-.462-.874-.534-1.614a12.147,12.147,0,0,0-.654-3.174c-.361-.224-.675.13-.581.867s.206,2.976-.184,3.008-.722-3.752-.722-3.752.061-.823-.394-.805c-.816.036-.177,4.023-.108,4.4.051.26-.361.311-.412.025s-.238-3.781-1.083-3.752c-.643,0,.495,3.283.134,4.041s-.607-2.571-1.217-2.528c-.227.018-.4.061.022,1.943a42.664,42.664,0,0,0,1.444,4.409c.968,5.218,5.215,21.913,11.87,18.858,3.727-1.712,5.236-9.288,5.236-9.288Z" transform="translate(-540.084 -116.752)"/><path class="h" d="M575.507,148.933a.177.177,0,0,0,.087,0,.191.191,0,0,0,.134-.209c0-.224-.043-.549-.094-.971a13.553,13.553,0,0,1-.166-1.538c0-.3,0-.628.018-.971a3.566,3.566,0,0,1,.054-.52c.029-.163.137-.361.264-.329h.022a.288.288,0,0,1,.267.246,1.416,1.416,0,0,1,.051.484h0a28.177,28.177,0,0,0,.386,3.015c.029.134.058.271.1.408a1.553,1.553,0,0,0,.072.206,1.124,1.124,0,0,0,.061.108.2.2,0,0,0,.152.094.267.267,0,0,0,.227-.191,1.035,1.035,0,0,0,.069-.22,3.677,3.677,0,0,0,.058-.441,13.167,13.167,0,0,0-.025-1.806,4.076,4.076,0,0,1-.036-.906.506.506,0,0,1,.177-.336.191.191,0,0,1,.155-.018.3.3,0,0,1,.087.036.116.116,0,0,1,.04.054,4.606,4.606,0,0,1,.249.906c.065.318.119.646.17.975s.1.661.137,1a7.361,7.361,0,0,0,.166,1.029,3.987,3.987,0,0,0,.163.509.958.958,0,0,0,.152.256.213.213,0,0,0,.213.079.224.224,0,0,0,.148-.163,1.8,1.8,0,0,0,.04-.563,5.164,5.164,0,0,0-.04-.534c-.025-.3-.054-.6-.065-.9a3.491,3.491,0,0,1,0-.437.725.725,0,0,1,.047-.188.176.176,0,0,1,.033-.054h.047c.238-.1.318.235.383.5s.09.571.148.856c.094.567.217,1.134.278,1.676a2,2,0,0,1-.029.78c-.087.26-.173.516-.256.773v.047a41.588,41.588,0,0,0,1.614,5.222c.571,1.542,1.145,2.889,1.647,3.972s.957,1.932,1.268,2.5l.361.646a1.213,1.213,0,0,0,.141.217,1.449,1.449,0,0,0-.112-.231l-.361-.661c-.3-.581-.722-1.444-1.213-2.528s-1.047-2.43-1.6-3.972a43.119,43.119,0,0,1-1.582-5.207v.051c.083-.253.166-.509.253-.766a2.066,2.066,0,0,0,.043-.863c-.065-.567-.184-1.116-.278-1.686-.054-.282-.09-.571-.148-.867a1.59,1.59,0,0,0-.076-.448.426.426,0,0,0-.2-.2.459.459,0,0,0-.285,0h-.058a.235.235,0,0,0-.083.047.318.318,0,0,0-.09.126.817.817,0,0,0-.061.246,3.414,3.414,0,0,0,0,.469c0,.3.043.607.069.91,0,.177.029.361.036.524a1.753,1.753,0,0,1-.025.488c0,.036-.029.029,0,.047h0l-.022-.022a.722.722,0,0,1-.108-.2,3.545,3.545,0,0,1-.155-.48,6.713,6.713,0,0,1-.162-1q-.058-.509-.141-1.008c-.051-.332-.108-.657-.173-.982a4.4,4.4,0,0,0-.274-.964.307.307,0,0,0-.112-.126.624.624,0,0,0-.134-.058.4.4,0,0,0-.307.043.675.675,0,0,0-.267.469,1.754,1.754,0,0,0,0,.495c0,.155.036.307.047.459a13.35,13.35,0,0,1,.033,1.777,3.081,3.081,0,0,1-.054.419.808.808,0,0,1-.054.188.22.22,0,0,1-.04.065c0,.033-.025,0-.022.043v-.047a.714.714,0,0,1-.043-.076c-.025-.058-.047-.123-.069-.184-.04-.13-.069-.264-.1-.394a28.7,28.7,0,0,1-.408-2.99h0a1.57,1.57,0,0,0-.061-.538.505.505,0,0,0-.141-.238.361.361,0,0,0-.267-.1h.022a.314.314,0,0,0-.314.148.8.8,0,0,0-.108.282,3.646,3.646,0,0,0-.051.542v.982a12.6,12.6,0,0,0,.2,1.546c.061.419.108.744.13.964a.17.17,0,0,1-.1.188A.546.546,0,0,0,575.507,148.933Z" transform="translate(-544.678 -116.721)"/><path class="g" d="M497.6,208.227a7.732,7.732,0,0,0-2.091.242c-1.867.491-5.085,2.441-5.218,4.85h2.34s-1.311,2.788-.928,2.528a30.066,30.066,0,0,0,2.987-2.69Z" transform="translate(-490.29 -157.587)"/><path class="e" d="M597.493,76.667c-.054,0-.264-1.928-.473-4.333S596.68,68,596.731,68s.264,1.928.473,4.333S597.543,76.667,597.493,76.667Z" transform="translate(-558.286 -68)"/><path class="e" d="M614.51,68.41c.04.029-1.538,2.322-3.528,5.121s-3.64,5.056-3.683,5.012,1.538-2.322,3.528-5.121S614.467,68.381,614.51,68.41Z" transform="translate(-565.044 -68.261)"/><path class="e" d="M624.433,97.181c0,.051-1.835.473-4.117.943s-4.146.809-4.156.758,1.831-.473,4.117-.943S624.408,97.131,624.433,97.181Z" transform="translate(-570.705 -86.64)"/></g><g transform="translate(117.492 67.967)"><path class="d" d="M273.445,226.714l-12.784,65.652L259,300.96l85.225-.412c3.828-.018,7.222-3.416,8.447-8.465L367.788,230.1c.935-3.832-1.116-7.818-4.019-7.815l-86.279.09C275.612,222.377,273.929,224.153,273.445,226.714Z" transform="translate(-227.807 -209.983)"/><g class="k" transform="translate(31.193 12.307)"><path d="M273.445,226.714l-12.784,65.652L259,300.96l85.225-.412c3.828-.018,7.222-3.416,8.447-8.465L367.788,230.1c.935-3.832-1.116-7.818-4.019-7.815l-86.279.09C275.612,222.377,273.929,224.153,273.445,226.714Z" transform="translate(-259 -222.29)"/></g><path class="d" d="M280.875,266.136,271.847,193.4a5.714,5.714,0,0,0-5.547-5.193l-19.789.061A5.417,5.417,0,0,0,242.6,190L233.21,200l-55.035.3a5.861,5.861,0,0,0-5.5,6.778l8.382,67.223a5.721,5.721,0,0,0,5.54,5.193l95.932-.191c10.682.22,11.7-2.932,11.7-2.932C281.966,279.075,280.875,266.155,280.875,266.136Z" transform="translate(-172.622 -188.21)"/><g class="k" transform="translate(38.733 40.193)"><path class="l" d="M308.033,324.058l-3.236,3.474L279.88,305.114l3.236-3.474Z" transform="translate(-279.88 -300.871)"/><path class="l" d="M305.238,299.51l3.575,3.218-22.545,24.213-3.579-3.218Z" transform="translate(-281.675 -299.51)"/></g></g><g transform="translate(227.789 20.999)"><path class="d" d="M505.082,86.346a.668.668,0,0,1-.408-.589l-.144-3.351a.672.672,0,0,1,.827-.686,2.1,2.1,0,0,0,1.632-.321,1.881,1.881,0,0,0,.841-1.235,1.925,1.925,0,0,0-.4-1.444A2.167,2.167,0,0,0,506,77.863a2.528,2.528,0,0,0-2.564,1.806.675.675,0,0,1-1.3-.361,3.886,3.886,0,0,1,4.019-2.806,3.488,3.488,0,0,1,2.344,1.383,3.3,3.3,0,0,1,.661,2.481,3.25,3.25,0,0,1-1.444,2.138,3.51,3.51,0,0,1-1.827.6L506,85.685a.675.675,0,0,1-.939.646Z" transform="translate(-493.429 -69.867)"/><path class="d" d="M511.107,106.67a.549.549,0,1,1-.187-.379A.553.553,0,0,1,511.107,106.67Z" transform="translate(-498.464 -88.819)"/><path class="e" d="M478.1,69.9a1.7,1.7,0,0,0,.032-.217c0-.159.04-.361.069-.646a7.827,7.827,0,0,1,.177-1.04c.047-.2.072-.426.144-.654s.144-.473.224-.722a12.455,12.455,0,0,1,1.806-3.441,12.1,12.1,0,0,1,3.8-3.3,11.917,11.917,0,0,1,2.676-1.105,12.116,12.116,0,0,1,3.088-.4,11.974,11.974,0,0,1,1.643.087c.278.029.553.1.831.148a6.183,6.183,0,0,1,.831.2,11.556,11.556,0,0,1,3.21,1.455,12.076,12.076,0,0,1,4.774,5.995,11.823,11.823,0,0,1,.722,4.12,11.613,11.613,0,0,1-.755,4.24l-.162.412-.022.054.022.054c.906,2.084,1.806,4.131,2.654,6.114l.152-.173L498.594,79l-.065-.025-.054.051a11.907,11.907,0,0,1-14.857,1.434,12.34,12.34,0,0,1-3.044-2.835,11.993,11.993,0,0,1-2.311-5.54c-.043-.361-.079-.664-.112-.939s0-.5-.018-.69a3.225,3.225,0,0,1,0-.423.072.072,0,1,0-.022,0v1.119c0,.274.061.589.1.946a12.917,12.917,0,0,0,.617,2.55,13.222,13.222,0,0,0,1.654,3.07,12.449,12.449,0,0,0,3.066,2.889,12.025,12.025,0,0,0,15.07-1.394l-.119.025,5.417,2.087.271.1-.119-.278c-.859-1.983-1.748-4.027-2.651-6.114v.1l.166-.423a11.809,11.809,0,0,0,.773-4.333,12.08,12.08,0,0,0-.722-4.211,12.278,12.278,0,0,0-4.879-6.107,11.664,11.664,0,0,0-3.293-1.481,5.739,5.739,0,0,0-.845-.2c-.282-.051-.56-.123-.841-.148a12.42,12.42,0,0,0-1.665-.094,12.119,12.119,0,0,0-3.135.426,12.347,12.347,0,0,0-2.712,1.134,12.123,12.123,0,0,0-3.817,3.376,12.351,12.351,0,0,0-1.78,3.5c-.076.26-.148.509-.213.722a6.356,6.356,0,0,0-.137.661,6.868,6.868,0,0,0-.152,1.047c-.022.278-.036.491-.047.65A.915.915,0,0,0,478.1,69.9Z" transform="translate(-478.05 -58.148)"/></g></g></svg>