<svg xmlns="http://www.w3.org/2000/svg" width="45.631" height="45.63" viewBox="0 0 45.631 45.63"><defs><style>.a{fill:none;}.b,.c{fill:#6c0ba9;}.b{opacity:0.3;}</style></defs><g transform="translate(-0.001)"><path class="a" d="M0,0H45.631V45.63H0Z" transform="translate(0.001)"/><path class="b" d="M31.582,28.709a27.167,27.167,0,0,1-4.943-.856l-2.263,2.262A27.523,27.523,0,0,0,31.6,31.542V28.709ZM7.892,5H5.04a29.329,29.329,0,0,0,1.426,7.225L8.748,9.943A23.8,23.8,0,0,1,7.892,5Z" transform="translate(4.543 4.506)"/><path class="c" d="M35.322,37.223a1.907,1.907,0,0,0,1.9-1.9V28.686a1.907,1.907,0,0,0-1.9-1.9A21.688,21.688,0,0,1,28.534,25.7a1.6,1.6,0,0,0-.589-.1,1.948,1.948,0,0,0-1.35.551L22.412,30.34A28.8,28.8,0,0,1,9.883,17.811l4.183-4.183a1.908,1.908,0,0,0,.475-1.939A21.6,21.6,0,0,1,13.457,4.9a1.907,1.907,0,0,0-1.9-1.9H4.9A1.907,1.907,0,0,0,3,4.9,32.319,32.319,0,0,0,35.322,37.223Zm-6.845-7.567a24.247,24.247,0,0,0,4.943.856v2.833A29.331,29.331,0,0,1,26.2,31.918ZM6.86,6.8H9.712a24.716,24.716,0,0,0,.875,4.924L8.3,14.008A28.187,28.187,0,0,1,6.86,6.8Z" transform="translate(2.705 2.704)"/></g></svg>