<svg xmlns="http://www.w3.org/2000/svg" width="369.997" height="158.513" viewBox="0 0 369.997 158.513"><defs><style>.a{fill:#c1c1c1;}.a,.b{mix-blend-mode:multiply;isolation:isolate;}.b{fill:#a3a3a3;}.c{fill:#d7a1f9;}.d{fill:#380358;}.e{fill:#fff;}.f{fill:#6c0ba9;}.g{fill:#51087e;}.h,.k,.l,.m,.r{fill:none;}.h,.m{stroke:#51087e;}.h,.k,.l,.m{stroke-miterlimit:10;}.h{stroke-width:0.996px;}.i{fill:#a025f0;}.j{fill:#b24bf3;}.k,.r{stroke:#fff;}.k,.l,.m{stroke-width:1.052px;}.l{stroke:#880ed4;}.n{fill:#c576f6;}.o{fill:#a020f0;}.p{fill:#8820d4;}.q{fill:#880ed4;}.r{stroke-linecap:round;stroke-linejoin:round;stroke-width:2.104px;}</style></defs><g transform="translate(-1845.24 -643.23)"><path class="a" d="M2383.467,745.571s17.667-37.4,25.583-36.042.381,24.8,11.126,23.528,7.75-42.058,20.542-43.782,13.358,44.1,23.99,47.095,19.573-50.667,36.382-51.348,9.848,48.236,24.206,51.348,30.454-36.952,30.454-36.952l9.572,116.968-181.855-4.257Z" transform="translate(-350.085 -41.786)"/><path class="a" d="M1839.509,734.836s8.266-32.766,33.5-30.529,18.459,28.118,34,36.609,27.145-13.86,40.733-9.237,3.624,31.2,23.181,34.009,15.641-42.709,25.647-41.737,22.7,55,22.7,55l4.336,19.624-188.01,21.071Z" transform="translate(9.647 -52.726)"/><g transform="translate(1915.271 655.459)"><ellipse class="b" cx="20.607" cy="1.151" rx="20.607" ry="1.151" transform="translate(172.363 143.981)"/><ellipse class="b" cx="20.607" cy="1.151" rx="20.607" ry="1.151" transform="translate(68.527 143.981)"/><ellipse class="b" cx="20.607" cy="1.151" rx="20.607" ry="1.151" transform="translate(123.56 140.076)"/><ellipse class="b" cx="20.607" cy="1.151" rx="20.607" ry="1.151" transform="translate(19.724 140.076)"/><path class="c" d="M2025.575,769.531h6.119a3.188,3.188,0,0,1,3.188,3.188v2.432l4.96,5.344-3.162.087-3.468-3.737h-7.636a3.188,3.188,0,0,1-3.188-3.188v-.938A3.188,3.188,0,0,1,2025.575,769.531Z" transform="translate(-2003.773 -711.45)"/><path class="d" d="M2136.8,868.49c0-8.388-2.929-15.764-7.36-20.045v-2.193h-2.853a11.816,11.816,0,0,0-6.057-1.723c-8.985,0-16.269,10.728-16.269,23.961s7.284,23.961,16.269,23.961h8.91v-3.916C2133.87,884.254,2136.8,876.877,2136.8,868.49Z" transform="translate(-2043.181 -747.548)"/><path class="d" d="M2073.908,863.435h-25.182c.079-.957.124-1.929.124-2.918,0-13.233-7.283-23.961-16.269-23.961a11.262,11.262,0,0,1-8.91,0c-8.985,0-16.27,10.728-16.27,23.961s7.284,23.961,16.27,23.961h8.91c6.442,0,12.01-5.516,14.645-13.515h26.682Z" transform="translate(-1996.56 -743.711)"/><g transform="translate(58.324 11.013)"><path class="d" d="M2280.764,863.435h-25.182c.079-.957.124-1.929.124-2.918,0-13.233-7.284-23.961-16.27-23.961a11.261,11.261,0,0,1-8.909,0c-8.985,0-16.27,10.728-16.27,23.961s7.284,23.961,16.27,23.961h8.909c6.443,0,12.01-5.516,14.645-13.515h26.682Z" transform="translate(-2154.45 -754.723)"/><path class="d" d="M2337.151,868.49c0-8.388-2.929-15.764-7.359-20.045v-2.193h-2.853a11.815,11.815,0,0,0-6.057-1.723c-8.986,0-16.27,10.728-16.27,23.961s7.284,23.961,16.27,23.961h8.91v-3.916C2334.222,884.254,2337.151,876.877,2337.151,868.49Z" transform="translate(-2197.94 -758.561)"/><path class="e" d="M0,0H87.1a31.951,31.951,0,0,1,31.951,31.951v78.967a0,0,0,0,1,0,0H0a0,0,0,0,1,0,0V0A0,0,0,0,1,0,0Z" transform="translate(42.877)"/><rect class="f" width="30.314" height="11.051" transform="translate(134.719 101.197)"/><path class="c" d="M23.242,0h18.8A23.242,23.242,0,0,1,65.282,23.242v87.676a0,0,0,0,1,0,0H0a0,0,0,0,1,0,0V23.242A23.242,23.242,0,0,1,23.242,0Z"/><ellipse class="f" cx="16.269" cy="23.961" rx="16.269" ry="23.961" transform="translate(115.581 85.968)"/><ellipse class="d" cx="5.991" cy="8.823" rx="5.991" ry="8.823" transform="translate(125.86 101.106)"/><rect class="f" width="106.557" height="19.032" transform="translate(55.369 58.119)"/><rect class="g" width="9.862" height="19.032" transform="translate(55.369 58.119)"/><line class="h" y2="90.578" transform="translate(107.49 10.744)"/><rect class="i" width="25.785" height="29.878" transform="translate(73.493 16.474)"/><g transform="translate(73.493 16.474)"><path class="j" d="M2240.644,740.421h.686l25.1-20.843v-9.035h-2.345l-23.44,19.465Z" transform="translate(-2240.644 -710.543)"/><path class="j" d="M2271,738.924v-4.169l-20.857,17.32h5.021Z" transform="translate(-2245.218 -722.197)"/></g><rect class="k" width="21.948" height="26.604" transform="translate(75.412 18.111)"/><g transform="translate(111.978 9.617)"><path class="f" d="M2357.69,726.061h-8.8v-8.8h-5.313v8.8h-8.8v5.313h8.8v8.8h5.313v-8.8h8.8Z" transform="translate(-2324.441 -706.921)"/><circle class="l" cx="16.102" cy="16.102" r="16.102" transform="translate(0 15.201) rotate(-28.165)"/></g><line class="h" x1="51.161" transform="translate(62.877 101.322)"/></g><g transform="translate(69.739 8.577)"><path class="j" d="M2139.39,689.58h-13.711v-8.638a6.856,6.856,0,0,1,6.856-6.856h0a6.856,6.856,0,0,1,6.856,6.856Z" transform="translate(-2123.23 -674.086)"/><path class="f" d="M2137.52,674.086a6.9,6.9,0,0,0-1.485.166,6.856,6.856,0,0,1,5.372,6.69v8.638h2.969v-8.638A6.856,6.856,0,0,0,2137.52,674.086Z" transform="translate(-2128.214 -674.086)"/><rect class="e" width="18.61" height="5.832" transform="translate(0 13.039)"/><path class="c" d="M2123.846,705.605h16.094v-2.558Z" transform="translate(-2122.347 -688.026)"/></g><path class="e" d="M2126.591,707.979h23.286v95.774H2080.5l2.676-38.9,24.132-13.893,12.759-38.275A6.875,6.875,0,0,1,2126.591,707.979Z" transform="translate(-2031.745 -681.823)"/><line class="m" x1="15.74" transform="translate(98.605 112.001)"/><line class="m" y2="42.986" transform="translate(81.151 69.132)"/><g transform="translate(4.758 83.026)"><path class="c" d="M1998.348,817.624h44l-2.676,38.905h-44Z" transform="translate(-1995.672 -817.624)"/><path class="g" d="M2007.75,834.892h-9.209l1.188-17.269h9.209Z" transform="translate(-1997.053 -817.624)"/><path class="g" d="M2074.825,834.892h-9.209l1.188-17.269h9.209Z" transform="translate(-2029.338 -817.624)"/><path class="j" d="M2009.052,825.072h-9.209l.512-7.449h9.209Z" transform="translate(-1997.679 -817.624)"/><path class="j" d="M2076.127,825.072h-9.209l.512-7.449h9.209Z" transform="translate(-2029.965 -817.624)"/><path class="n" d="M2041.877,834.892H2016.3l1.188-17.269h25.581Z" transform="translate(-2005.599 -817.624)"/><g transform="translate(10.885 2.725)"><path class="g" d="M2043.649,824.054h-25.581l.081-1.176h25.581Z" transform="translate(-2017.337 -822.878)"/><path class="g" d="M2043.179,830.893H2017.6l.081-1.176h25.581Z" transform="translate(-2017.11 -826.17)"/><path class="g" d="M2042.709,837.732h-25.581l.081-1.176h25.581Z" transform="translate(-2016.884 -829.462)"/><path class="g" d="M2042.238,844.571h-25.581l.081-1.176h25.581Z" transform="translate(-2016.658 -832.754)"/></g></g><path class="c" d="M2024.964,790.837h44L2044.83,804.73h-44Z" transform="translate(-1993.397 -721.705)"/><path class="e" d="M2047.359,750.955h44l12.086-36.257,7.739-6.719h-42.992a9.028,9.028,0,0,0-8.564,6.173Z" transform="translate(-2015.792 -681.823)"/><path class="o" d="M2051.169,754.908h39.637l12.208-36.622a1.591,1.591,0,0,0-1.509-2.094h-35.562a2.592,2.592,0,0,0-2.459,1.773Z" transform="translate(-2017.626 -685.776)"/><path class="p" d="M0,0H72.138a0,0,0,0,1,0,0V11.051a0,0,0,0,1,0,0H7.789A7.789,7.789,0,0,1,0,3.262V0A0,0,0,0,1,0,0Z" transform="translate(0 112.21)"/><path class="o" d="M2175.5,755.148h-32.542l11.722-36.839a2.322,2.322,0,0,1,2.214-1.619H2175.5Z" transform="translate(-2061.807 -686.016)"/><ellipse class="q" cx="16.269" cy="23.961" rx="16.269" ry="23.961" transform="translate(69.989 96.981)"/><ellipse class="d" cx="5.991" cy="8.823" rx="5.991" ry="8.823" transform="translate(80.267 112.118)"/><g transform="translate(102.092 75.699)"><path class="c" d="M2194.935,807.919h0a2.293,2.293,0,0,1-2.293,2.293h-7.015a2.293,2.293,0,0,1-2.292-2.293h0" transform="translate(-2183.334 -805.626)"/><rect class="m" width="11.601" height="2.293"/></g><line class="r" y2="6.677" transform="translate(79.044)"/><g transform="translate(65.604 0.942)"><line class="r" x2="2.284" y2="6.274" transform="translate(8.188)"/><line class="r" x2="4.292" y2="5.115" transform="translate(3.488 2.713)"/><line class="r" x2="5.782" y2="3.338" transform="translate(0 6.871)"/><line class="r" x1="2.283" y2="6.274" transform="translate(16.409)"/><line class="r" x1="4.292" y2="5.115" transform="translate(19.101 2.713)"/><line class="r" x1="5.782" y2="3.338" transform="translate(21.099 6.871)"/></g><g transform="translate(81.151 31.811)"><path class="j" d="M2175.5,718.881l-28.089,23.326-4.453,13.995h.826l31.716-26.338Z" transform="translate(-2142.958 -718.881)"/><path class="j" d="M2180.2,751.018v-4.169l-27.474,22.815h5.021Z" transform="translate(-2147.662 -732.343)"/></g><g transform="translate(33.543 30.416)"><path class="j" d="M2101.5,716.192h-12.15l-34.957,29.03-3.228,9.686h4.79l46.35-38.491A1.57,1.57,0,0,0,2101.5,716.192Z" transform="translate(-2051.169 -716.192)"/><path class="j" d="M2108.981,728.844l1.922-5.765-42.32,35.144h5.021Z" transform="translate(-2059.551 -719.507)"/></g><path class="e" d="M2157.225,769.531h-6.119a3.188,3.188,0,0,0-3.187,3.188v2.432l-4.96,5.344,3.163.087,3.468-3.737h7.636a3.188,3.188,0,0,0,3.188-3.188v-.938A3.188,3.188,0,0,0,2157.225,769.531Z" transform="translate(-2061.807 -711.45)"/><line class="m" x2="60.319" transform="translate(54.026 89.886)"/><line class="h" y1="37.151" x2="12.384" transform="translate(75.566 31.981)"/></g></g></svg>