<svg xmlns="http://www.w3.org/2000/svg" xmlns:xlink="http://www.w3.org/1999/xlink" width="246.505" height="203.914" viewBox="0 0 246.505 203.914"><defs><style>.a,.g,.j,.w,.y,.z{fill:#263238;}.a,.b,.c,.e,.g,.k,.l,.m,.n,.r,.t,.v,.w,.x,.y,.z{stroke:#263238;}.a,.b,.c,.e,.g,.h,.k,.l,.m,.n,.q,.r,.t,.v,.w,.x,.y,.z{stroke-linecap:round;stroke-linejoin:round;}.b,.d,.n{fill:#b24bf3;}.c,.f,.i,.k,.p{fill:#fff;}.c,.g,.h,.n,.t{stroke-width:1.01px;}.e,.h,.l,.m,.q,.r,.t,.v,.x{fill:none;}.e,.l,.m{stroke-width:0.5px;}.f{opacity:0.5;}.h,.q{stroke:#fff;}.l{stroke-dasharray:4.639 4.639;}.m{stroke-dasharray:5;}.o{clip-path:url(#a);}.p{opacity:0.2;}.s{clip-path:url(#b);}.u{clip-path:url(#c);}.v,.w{stroke-width:0.724px;}.x{stroke-width:0.821px;}.y{stroke-width:0.725px;}.z{stroke-width:0.883px;}</style><clipPath id="a"><rect class="a" width="98.248" height="191.734" rx="14.52"/></clipPath><clipPath id="b"><rect class="b" width="89.514" height="167.334"/></clipPath><clipPath id="c"><path class="c" d="M163.161,253.55s-2.739,43.5,13.849,60.085c0,0,17.5-12.014,17.5-59.562Z" transform="translate(-162.992 -253.55)"/></clipPath></defs><g transform="translate(-49.43 -96.94)"><g transform="translate(49.43 96.94)"><path class="d" d="M380.688,113.7s.607-3.146-2.934-8.419-5.88-8.346-5.88-8.346-3.644,6.815-.389,12.027a79.054,79.054,0,0,0,8.1,10.411Z" transform="translate(-175.336 -96.94)"/><path class="d" d="M363.811,144.034s.607-3.146-2.934-8.419-5.892-8.346-5.892-8.346-3.644,6.815-.383,12.021a78.858,78.858,0,0,0,8.1,10.417Z" transform="translate(-168.706 -108.847)"/><path class="d" d="M384.209,126.431s.948-3.037,6.566-6.038,9.111-4.574,9.111-4.574,0,7.714-5.333,10.781a79.57,79.57,0,0,1-12.063,5.351Z" transform="translate(-180.187 -104.352)"/><path class="d" d="M363.652,163.295s1.263-2.952,7.161-5.315,9.561-3.59,9.561-3.59-.832,7.672-6.439,10.162A78.67,78.67,0,0,1,361.38,168.6Z" transform="translate(-171.899 -119.494)"/><path class="d" d="M358.645,203.337s.607-3.152,5.892-6.681,8.595-5.515,8.595-5.515.79,7.678-4.167,11.286a78.483,78.483,0,0,1-11.425,6.6Z" transform="translate(-170.392 -133.922)"/><path class="d" d="M351.322,209.824s1.057-3.037-1.7-8.753-4.647-9.111-4.647-9.111-4.556,6.226-2.1,11.844a78.68,78.68,0,0,0,6.542,11.456Z" transform="translate(-164.35 -134.244)"/><path class="d" d="M343.485,242.233s.607-3.146,5.886-6.681,8.6-5.552,8.6-5.552.79,7.672-4.167,11.286a79.125,79.125,0,0,1-11.425,6.6Z" transform="translate(-164.44 -149.178)"/><path class="d" d="M343.7,268.452s-.2-3.2,4-7.969S354.62,253,354.62,253s2.709,7.222-1.172,11.972a78.712,78.712,0,0,1-9.384,9.275Z" transform="translate(-164.957 -158.208)"/><path class="e" d="M370.322,123.34a91.31,91.31,0,0,1-3.116,9.548c-3.5,8.668-9,13.624-12.33,21.417s-.377,19.255-3.76,29.441-8.583,15.185-8.783,22.4,2.223,27.279,2.223,27.279" transform="translate(-164.417 -107.304)"/><line class="e" y1="2.715" x2="5.467" transform="translate(203.572 21.448)"/><line class="e" x1="1.294" y1="3.924" transform="translate(203.317 16.084)"/><path class="e" d="M363.54,170.952s4.568-2.2,9.239-4.392" transform="translate(-172.748 -124.272)"/><path class="e" d="M365.612,156.331a64.6,64.6,0,0,0-4.962-12.191" transform="translate(-171.613 -115.47)"/><path class="e" d="M358.18,212.368a50.1,50.1,0,0,1,10.733-9.719" transform="translate(-170.643 -138.441)"/><path class="e" d="M352.5,217.012a56.49,56.49,0,0,0-2.721-9.026c-1.652-3.875-1.9-4.385-1.9-4.385" transform="translate(-166.599 -138.814)"/><path class="e" d="M342.34,252.1a53.384,53.384,0,0,1,5-6.542,47.381,47.381,0,0,1,5.831-5.175" transform="translate(-164.424 -153.254)"/><path class="e" d="M344.3,278.256a13.764,13.764,0,0,1,2.557-6.742c2.284-2.885,4.987-6.712,6.074-8.224" transform="translate(-165.194 -162.248)"/><path class="d" d="M326.379,178.561s.043-2.047,2.964-4.859,4.792-4.392,4.792-4.392,1.33,4.726-1.391,7.526a50.063,50.063,0,0,1-6.445,5.382Z" transform="translate(-158.127 -125.352)"/><path class="d" d="M332.749,199.7s.049-2.041,2.964-4.859,4.8-4.392,4.8-4.392,1.324,4.726-1.391,7.532a50.187,50.187,0,0,1-6.451,5.376Z" transform="translate(-160.628 -133.651)"/><path class="d" d="M321.106,184.628s-.17-2.035-3.262-4.647-5.06-4.082-5.06-4.082-1.033,4.8,1.859,7.429a50.374,50.374,0,0,0,6.773,4.962Z" transform="translate(-152.751 -127.939)"/><path class="d" d="M328.352,210.211s-.389-2-3.736-4.252-5.467-3.529-5.467-3.529-.516,4.859,2.63,7.192a50.454,50.454,0,0,0,7.259,4.252Z" transform="translate(-155.308 -138.355)"/><path class="d" d="M327.139,236.065s.043-2.041-2.752-4.962-4.6-4.592-4.6-4.592-1.531,4.665,1.057,7.58a50.224,50.224,0,0,0,6.214,5.649Z" transform="translate(-155.395 -147.808)"/><path class="d" d="M332.116,242.229s-.249-2.023,2.247-5.212S338.481,232,338.481,232s1.986,4.489-.3,7.647a50.233,50.233,0,0,1-5.618,6.238Z" transform="translate(-160.408 -149.964)"/><path class="d" d="M335.382,272.549s.607-1.95,4.209-3.808,5.837-2.861,5.837-2.861-.055,4.908-3.45,6.827a50.148,50.148,0,0,1-7.708,3.347Z" transform="translate(-161.256 -163.265)"/><path class="d" d="M331.3,262.324s.043-2.041-2.758-4.963-4.6-4.592-4.6-4.592-1.531,4.665,1.063,7.58A50.226,50.226,0,0,0,331.217,266Z" transform="translate(-157.025 -158.118)"/><path class="d" d="M328.809,278.983s.559-1.962-1.4-5.5-3.286-5.606-3.286-5.606-2.667,4.124-.893,7.6a50.189,50.189,0,0,0,4.574,7.046Z" transform="translate(-156.682 -164.05)"/><path class="e" d="M326,183.66a58.313,58.313,0,0,0,.644,6.36c1.008,5.861,3.748,9.718,4.768,14.991s-2.375,12.021-1.652,18.83,3.274,10.611,2.43,15.118-5.066,16.661-5.066,16.661" transform="translate(-158.01 -130.986)"/><line class="e" x1="3.031" y1="2.43" transform="translate(165.324 55.614)"/><line class="e" y1="2.266" x2="1.336" transform="translate(168.27 53.057)"/><path class="e" d="M331.325,215.828s-2.533-1.986-5.145-3.979" transform="translate(-158.08 -142.053)"/><path class="e" d="M332.67,207.262a41.306,41.306,0,0,1,4.738-6.912" transform="translate(-160.628 -137.538)"/><path class="e" d="M328.447,242.155a31.8,31.8,0,0,0-5.357-7.5" transform="translate(-156.867 -151.008)"/><path class="e" d="M332.64,246.774a36.084,36.084,0,0,1,2.9-5.242c1.555-2.187,1.774-2.472,1.774-2.472" transform="translate(-160.616 -152.735)"/><path class="e" d="M334.85,277.258a30.119,30.119,0,0,1,4.367-3.037,19.183,19.183,0,0,0,2.758-1.591" transform="translate(-161.484 -165.915)"/><path class="e" d="M332.875,269.023a34.019,34.019,0,0,0-2.217-4.75,30.147,30.147,0,0,0-2.928-4" transform="translate(-158.689 -161.062)"/><path class="e" d="M328.991,285.232a8.71,8.71,0,0,0-.674-4.537c-1.026-2.1-2.187-4.859-2.667-5.934" transform="translate(-157.872 -166.751)"/><path class="d" d="M75.327,248.932s-.96-2.776-6.183-5.309-8.5-3.893-8.5-3.893.267,7.046,5.212,9.676a71.928,71.928,0,0,0,11.182,4.513Z" transform="translate(-53.831 -152.998)"/><path class="d" d="M75.917,280.632s-.96-2.77-6.183-5.309-8.5-3.893-8.5-3.893.267,7.046,5.212,9.682a72.276,72.276,0,0,0,11.182,4.507Z" transform="translate(-54.063 -165.444)"/><path class="d" d="M87.072,252.712s-.662-2.861,2.43-7.787,5.12-7.805,5.12-7.805,3.517,6.111.729,10.97a71.808,71.808,0,0,1-7.076,9.761Z" transform="translate(-64.184 -151.974)"/><path class="d" d="M87.544,290.811s-.358-2.916,3.219-7.489,5.91-7.222,5.91-7.222,2.861,6.445-.425,10.982a72.407,72.407,0,0,1-8.06,8.965Z" transform="translate(-64.389 -167.277)"/><path class="d" d="M102.235,325.747s-.96-2.77,1.579-7.993,4.252-8.3,4.252-8.3,4.149,5.7,1.889,10.83a72.031,72.031,0,0,1-6,10.453Z" transform="translate(-70.091 -180.37)"/><path class="d" d="M96.782,338.038s-.559-2.879-5.369-6.135-7.842-5.054-7.842-5.054-.741,7.01,3.784,10.326a72.121,72.121,0,0,0,10.423,6.074Z" transform="translate(-62.816 -187.201)"/><path class="d" d="M108.115,363.463s-.96-2.776,1.579-8,4.252-8.3,4.252-8.3,4.149,5.7,1.889,10.83a72.276,72.276,0,0,1-6.007,10.46Z" transform="translate(-72.4 -195.175)"/><path class="d" d="M120.248,385.434s-1.634-2.43-.5-8.133,2.023-9.111,2.023-9.111,5.467,4.471,4.562,10a72,72,0,0,1-3.159,11.638Z" transform="translate(-76.88 -203.431)"/><path class="e" d="M85,253.51a82.941,82.941,0,0,1,1.919,8.971c1.215,8.455-.863,14.894.085,22.583s8.5,15.386,10.539,24.989.194,15.95,3.335,21.733,14.268,20.542,14.268,20.542" transform="translate(-63.395 -158.408)"/><line class="e" y1="4.653" x2="3.073" transform="translate(23.482 97.938)"/><line class="e" x1="2.831" y1="2.509" transform="translate(19.571 96.323)"/><path class="e" d="M88.48,299.808s2.594-3.839,5.284-7.708" transform="translate(-64.761 -173.559)"/><path class="e" d="M82.1,290.036a57.665,57.665,0,0,0-9.512-7.356" transform="translate(-58.522 -169.86)"/><path class="e" d="M104.83,334.544a45.708,45.708,0,0,1,4.021-12.6" transform="translate(-71.18 -185.273)"/><path class="e" d="M99.591,344a51.825,51.825,0,0,0-6.281-5.88c-3.086-2.308-3.511-2.6-3.511-2.6" transform="translate(-65.279 -190.605)"/><path class="e" d="M111.13,373.2a49.747,49.747,0,0,1,.948-7.465A43.394,43.394,0,0,1,114.313,359" transform="translate(-73.653 -199.823)"/><path class="e" d="M124.914,393.606a12.6,12.6,0,0,1-1.075-6.5c.486-3.329.863-7.593,1.033-9.287" transform="translate(-78.617 -207.212)"/><path class="d" d="M63.842,323.294s-.905-1.634.121-5.187,1.774-5.667,1.774-5.667,3.219,3.128,2.357,6.584a46,46,0,0,1-2.63,7.21Z" transform="translate(-54.943 -181.544)"/><path class="d" d="M78.584,337.074s-.9-1.634.121-5.187,1.774-5.667,1.774-5.667,3.219,3.128,2.357,6.584a45.608,45.608,0,0,1-2.624,7.21Z" transform="translate(-60.732 -186.954)"/><path class="d" d="M60.011,332.77s-1.069-1.531-4.713-2.174-5.868-.9-5.868-.9,1.391,4.252,4.859,5.017a45.631,45.631,0,0,0,7.635.814Z" transform="translate(-49.43 -188.316)"/><path class="d" d="M77.4,349.744s-1.215-1.409-4.914-1.664-5.934-.279-5.934-.279,1.822,4.094,5.376,4.477a46.26,46.26,0,0,0,7.672,0Z" transform="translate(-56.151 -195.426)"/><path class="d" d="M88.518,370.569s-.905-1.634-4.452-2.66-5.746-1.518-5.746-1.518.935,4.392,4.319,5.5a45.655,45.655,0,0,0,7.5,1.616Z" transform="translate(-60.772 -202.724)"/><path class="d" d="M97.61,371.392S96.486,369.9,97,366.248s.954-5.868.954-5.868,3.644,2.636,3.268,6.19a45.556,45.556,0,0,1-1.579,7.508Z" transform="translate(-68.053 -200.365)"/><path class="d" d="M114.068,392.432s-.4-1.822,1.579-4.938,3.3-4.944,3.3-4.944,2.211,3.912.407,6.985a45.471,45.471,0,0,1-4.556,6.177Z" transform="translate(-74.794 -209.069)"/><path class="d" d="M103.852,389.409s-.9-1.634-4.452-2.654-5.74-1.525-5.74-1.525.929,4.392,4.319,5.509a45.9,45.9,0,0,0,7.5,1.64Z" transform="translate(-66.794 -210.121)"/><path class="d" d="M110.061,403.407s-.456-1.822-3.644-3.7-5.169-2.928-5.169-2.928-.213,4.483,2.782,6.42a45.8,45.8,0,0,0,6.845,3.462Z" transform="translate(-69.772 -214.655)"/><path class="e" d="M63.36,329.81a54.053,54.053,0,0,0,3.426,4.726c3.487,4.173,7.41,5.94,10.648,9.658s3.644,10.593,7.325,15.629,7.465,6.882,8.856,10.836,3.644,15.489,3.644,15.489" transform="translate(-54.899 -188.363)"/><line class="e" x1="3.511" y1="0.535" transform="translate(7.69 144.994)"/><line class="e" y1="2.399" x2="0.018" transform="translate(9.883 141.009)"/><path class="e" d="M82.312,352.794s-2.916-.407-5.892-.784" transform="translate(-60.026 -197.079)"/><path class="e" d="M81.491,344a37.313,37.313,0,0,1,.571-7.629" transform="translate(-62.011 -190.939)"/><path class="e" d="M92.128,374.928a29.236,29.236,0,0,0-7.678-3.468" transform="translate(-63.179 -204.715)"/><path class="e" d="M99.726,375.26a32.6,32.6,0,0,1-.109-5.467c.225-2.43.267-2.764.267-2.764" transform="translate(-69.107 -202.976)"/><path class="e" d="M114.66,397.583a27.589,27.589,0,0,1,2.029-4.416,18.458,18.458,0,0,0,1.452-2.527" transform="translate(-75.039 -212.245)"/><path class="e" d="M107.945,394.116a31.158,31.158,0,0,0-3.93-2.733,27.942,27.942,0,0,0-4.155-1.822" transform="translate(-69.228 -211.821)"/><path class="e" d="M112.287,408.692a8.011,8.011,0,0,0-2.618-3.28c-1.774-1.184-3.954-2.824-4.859-3.462" transform="translate(-71.172 -216.685)"/></g><g transform="translate(186.637 181.345)"><rect class="c" width="48.246" height="97.726" rx="4.51" transform="translate(0 21.077)"/><rect class="d" width="45.653" height="82.571" rx="4.51" transform="translate(1.3 33.899)"/><rect class="f" width="45.653" height="82.571" rx="4.51" transform="translate(1.3 33.899)"/><rect class="g" width="22.954" height="21.077" transform="translate(12.652 0)"/><line class="h" y2="16.722" transform="translate(14.566 2.083)"/><line class="h" y2="16.722" transform="translate(18.113 2.083)"/><line class="h" y2="11.401" transform="translate(23.179 7.404)"/><line class="h" y2="2.788" transform="translate(23.179 2.083)"/><rect class="i" width="42.737" height="47.165" transform="translate(2.758 41.814)"/><circle class="j" cx="15.829" cy="15.829" r="15.829" transform="translate(8.012 50.785)"/><rect class="d" width="5.795" height="21.782" transform="translate(20.943 55.723)"/><rect class="d" width="5.795" height="21.782" transform="translate(34.732 63.717) rotate(90)"/></g><g transform="translate(207.131 255.449)"><rect class="k" width="73.053" height="44.906" rx="4.75"/><path class="g" d="M318.827,381.8h0a2.7,2.7,0,0,1-2.7-2.7v-7.289a2.7,2.7,0,0,1,2.7-2.7h0a2.7,2.7,0,0,1,2.7,2.7V379.1a2.7,2.7,0,0,1-2.7,2.7Z" transform="translate(-311.836 -362.301)"/><line class="h" y2="4.519" transform="translate(8.82 9.263)"/><line class="h" y2="2.478" transform="translate(8.82 14.948)"/><path class="g" d="M338.257,381.8h0a2.7,2.7,0,0,1-2.7-2.7v-7.289a2.7,2.7,0,0,1,2.7-2.7h0a2.7,2.7,0,0,1,2.7,2.7V379.1A2.7,2.7,0,0,1,338.257,381.8Z" transform="translate(-319.464 -362.301)"/><line class="h" y2="4.519" transform="translate(20.628 9.263)"/><line class="h" y2="2.478" transform="translate(20.628 14.948)"/><path class="g" d="M357.727,381.8h0a2.7,2.7,0,0,1-2.7-2.7v-7.289a2.7,2.7,0,0,1,2.7-2.7h0a2.7,2.7,0,0,1,2.7,2.7V379.1a2.7,2.7,0,0,1-2.7,2.7Z" transform="translate(-327.107 -362.301)"/><line class="h" y2="4.519" transform="translate(32.442 9.263)"/><line class="h" y2="2.478" transform="translate(32.442 14.948)"/><path class="g" d="M377.177,381.8h0a2.7,2.7,0,0,1-2.7-2.7v-7.289a2.7,2.7,0,0,1,2.7-2.7h0a2.7,2.7,0,0,1,2.7,2.7V379.1A2.7,2.7,0,0,1,377.177,381.8Z" transform="translate(-334.743 -362.301)"/><line class="h" y2="4.519" transform="translate(44.256 9.263)"/><line class="h" y2="2.478" transform="translate(44.256 14.948)"/><path class="g" d="M396.623,381.8h0a2.7,2.7,0,0,1-2.7-2.7v-7.289a2.7,2.7,0,0,1,2.7-2.7h0a2.7,2.7,0,0,1,2.7,2.7V379.1A2.7,2.7,0,0,1,396.623,381.8Z" transform="translate(-342.375 -362.301)"/><line class="h" y2="4.519" transform="translate(56.07 9.263)"/><line class="h" y2="2.478" transform="translate(56.07 14.948)"/><path class="g" d="M416.067,381.8h0a2.7,2.7,0,0,1-2.7-2.7v-7.289a2.7,2.7,0,0,1,2.7-2.7h0a2.7,2.7,0,0,1,2.7,2.7V379.1A2.7,2.7,0,0,1,416.067,381.8Z" transform="translate(-350.011 -362.301)"/><line class="h" y2="4.519" transform="translate(67.878 9.263)"/><line class="h" y2="2.478" transform="translate(67.878 14.948)"/><path class="g" d="M318.827,413.683h0a2.7,2.7,0,0,1-2.7-2.7V403.7a2.7,2.7,0,0,1,2.7-2.7h0a2.7,2.7,0,0,1,2.7,2.7v7.289a2.7,2.7,0,0,1-2.7,2.7Z" transform="translate(-311.836 -374.821)"/><line class="h" y2="4.519" transform="translate(8.82 28.657)"/><line class="h" y2="2.478" transform="translate(8.82 34.343)"/><path class="g" d="M338.257,413.683h0a2.7,2.7,0,0,1-2.7-2.7V403.7a2.7,2.7,0,0,1,2.7-2.7h0a2.691,2.691,0,0,1,2.7,2.7v7.289a2.691,2.691,0,0,1-2.7,2.7Z" transform="translate(-319.464 -374.821)"/><line class="h" y2="4.519" transform="translate(20.628 28.657)"/><line class="h" y2="2.478" transform="translate(20.628 34.343)"/><path class="g" d="M357.727,413.683h0a2.7,2.7,0,0,1-2.7-2.7V403.7a2.7,2.7,0,0,1,2.7-2.7h0a2.7,2.7,0,0,1,2.7,2.7v7.289a2.7,2.7,0,0,1-2.7,2.7Z" transform="translate(-327.107 -374.821)"/><line class="h" y2="4.519" transform="translate(32.442 28.657)"/><line class="h" y2="2.478" transform="translate(32.442 34.343)"/><path class="g" d="M377.177,413.683h0a2.691,2.691,0,0,1-2.7-2.7V403.7a2.691,2.691,0,0,1,2.7-2.7h0a2.7,2.7,0,0,1,2.7,2.7v7.289A2.7,2.7,0,0,1,377.177,413.683Z" transform="translate(-334.743 -374.821)"/><line class="h" y2="4.519" transform="translate(44.256 28.657)"/><line class="h" y2="2.478" transform="translate(44.256 34.343)"/><path class="g" d="M396.623,413.683h0a2.7,2.7,0,0,1-2.7-2.7V403.7a2.7,2.7,0,0,1,2.7-2.7h0a2.7,2.7,0,0,1,2.7,2.7v7.289A2.7,2.7,0,0,1,396.623,413.683Z" transform="translate(-342.375 -374.821)"/><line class="h" y2="4.519" transform="translate(56.07 28.657)"/><line class="h" y2="2.478" transform="translate(56.07 34.343)"/><path class="g" d="M416.067,413.683h0a2.7,2.7,0,0,1-2.7-2.7V403.7a2.7,2.7,0,0,1,2.7-2.7h0a2.691,2.691,0,0,1,2.7,2.7v7.289a2.691,2.691,0,0,1-2.7,2.7Z" transform="translate(-350.011 -374.821)"/><line class="h" y2="4.519" transform="translate(67.878 28.657)"/><line class="h" y2="2.478" transform="translate(67.878 34.343)"/><line class="e" y2="1.519" transform="translate(12.968 2.332)"/><line class="l" y2="32.405" transform="translate(12.968 6.669)"/><line class="e" y2="1.519" transform="translate(12.968 40.484)"/><line class="e" y2="1.519" transform="translate(24.782 2.332)"/><line class="l" y2="32.405" transform="translate(24.782 6.669)"/><line class="e" y2="1.519" transform="translate(24.782 40.484)"/><line class="e" y2="1.519" transform="translate(36.596 2.332)"/><line class="l" y2="32.405" transform="translate(36.596 6.669)"/><line class="e" y2="1.519" transform="translate(36.596 40.484)"/><line class="e" y2="1.519" transform="translate(48.404 2.332)"/><line class="l" y2="32.405" transform="translate(48.404 6.669)"/><line class="e" y2="1.519" transform="translate(48.404 40.484)"/><line class="e" y2="1.519" transform="translate(60.218 2.332)"/><line class="l" y2="32.405" transform="translate(60.218 6.669)"/><line class="e" y2="1.519" transform="translate(60.218 40.484)"/><line class="m" x2="68.983" transform="translate(1.883 22.456)"/></g><g transform="translate(254.248 243.289)"><path class="g" d="M407.349,361.719V351.8H391.307v9.919l-3.845,5.266a4.368,4.368,0,0,0-.832,2.563V400.2H412V369.536a4.367,4.367,0,0,0-.832-2.563Z" transform="translate(-386.63 -343.345)"/><rect class="g" width="15.981" height="1.719" transform="translate(4.744 3.906)"/><rect class="n" width="20.7" height="4.404" transform="translate(2.345)"/><rect class="g" width="20.7" height="3.499" rx="1.27" transform="translate(2.345 5.54)"/><rect class="n" width="16.4" height="20.421" transform="translate(0.006 28.08)"/></g><g transform="translate(84.447 108.323)"><rect class="j" width="98.248" height="191.734" rx="14.52" transform="translate(0 0)"/><g class="o" transform="translate(0 0)"><path class="p" d="M115.527,115.68a8.467,8.467,0,0,0-8.467,8.467v174.8a8.443,8.443,0,0,0,3.037,6.493l57.321-189.76Z" transform="translate(-107.072 -115.68)"/><path class="q" d="M189.141,420.051a3.341,3.341,0,1,0-3.341,3.341,3.341,3.341,0,0,0,3.341-3.341Z" transform="translate(-136.674 -233.862)"/></g><rect class="r" width="98.248" height="191.734" rx="14.52" transform="translate(0 0)"/><rect class="d" width="89.514" height="167.334" transform="translate(4.373 13.023)"/><g class="s" transform="translate(4.373 13.023)"><path class="c" d="M176.163,264.772,161.974,251.95l-13.776.237-13.776-.237-14.189,12.822L86.68,286.87v65.2H209.716v-65.2Z" transform="translate(-103.444 -182.201)"/><path class="t" d="M182.117,322.523,176,331.2s7.289-3.3,14.311-6.165,15.847-11.887,17.827-15.185S213,301.7,213,301.7l-8.82-6.8h9.482s-.225-10.326-3.086-18.714" transform="translate(-138.511 -191.718)"/><path class="t" d="M164.4,326.313c-1.027-.431-2.065-.863-3.1-1.282-7.04-2.861-15.847-11.887-17.827-15.185s-4.859-8.145-4.859-8.145l8.826-6.8H138s.225-10.326,3.086-18.714" transform="translate(-123.592 -191.718)"/><path class="i" d="M163.161,253.55s-2.739,43.5,13.849,60.085c0,0,17.5-12.014,17.5-59.562Z" transform="translate(-133.404 -182.83)"/><g class="u" transform="translate(29.588 70.72)"><path class="d" d="M168.678,172.06h14.11a15.252,15.252,0,0,1,15.252,15.252v31.652a20.476,20.476,0,0,1-20.47,20.482h-3.644A20.476,20.476,0,0,1,153.45,218.97V187.312A15.252,15.252,0,0,1,168.7,172.06Z" transform="translate(-159.246 -221.558)"/><path class="f" d="M168.678,172.06h14.11a15.252,15.252,0,0,1,15.252,15.252v31.652a20.476,20.476,0,0,1-20.47,20.482h-3.644A20.476,20.476,0,0,1,153.45,218.97V187.312A15.252,15.252,0,0,1,168.7,172.06Z" transform="translate(-159.246 -221.558)"/></g><path class="t" d="M163.161,253.55s-2.739,43.5,13.849,60.085c0,0,17.5-12.014,17.5-59.562Z" transform="translate(-133.404 -182.83)"/><path class="t" d="M174.7,247.45s-1.519,18.981,7.647,26.222c0,0,9.67-5.242,9.67-25.991Z" transform="translate(-137.963 -180.435)"/><path class="t" d="M169.72,296.579l10.709-5.959,12.021,8.309" transform="translate(-136.045 -197.383)"/><path class="n" d="M184.741,300.235l2.089-6.007-4.969-3.608-6.53,3.608,3.4,5.467-5.357,16.09a36.784,36.784,0,0,0,7.714,12.385s4.653-3.195,9.16-12.81Z" transform="translate(-137.478 -197.383)"/><circle class="c" cx="8.728" cy="8.728" r="8.728" transform="translate(57.242 119.824) rotate(-9.26)"/><circle class="c" cx="6.275" cy="6.275" r="6.275" transform="translate(59.064 130.445) rotate(-67.65)"/><path class="j" d="M224.136,313.586a1.336,1.336,0,0,1-1.336-1.336V260.966a1.336,1.336,0,1,1,2.673,0V312.25a1.33,1.33,0,0,1-1.336,1.336Z" transform="translate(-156.884 -185.217)"/><path class="c" d="M145.924,364.031H145.8c-1.215-.206-12.871-11.541-13.97-14.578s-.79-7.9-.777-8.079a.669.669,0,0,1,1.336.085c0,.042-.273,4.768.7,7.556.893,2.545,11.267,12.707,12.907,13.7.911-.285,4.252-3.28,5.467-6.347a.669.669,0,0,1,1.245.492C151.439,360.107,147.46,364.031,145.924,364.031ZM146.112,362.725ZM145.948,362.695Z" transform="translate(-120.844 -217.063)"/><path class="c" d="M134.093,364.007c-1.543,0-5.515-3.924-6.8-7.21a.669.669,0,0,1,1.245-.492c1.215,3.067,4.549,6.074,5.467,6.347,1.64-.99,12.014-11.152,12.907-13.7.972-2.788.7-7.514.7-7.556a.67.67,0,0,1,1.336-.085c0,.207.292,5.041-.777,8.079s-12.7,14.4-13.97,14.578ZM133.9,362.7ZM134.068,362.671Z" transform="translate(-119.369 -217.039)"/><path class="j" d="M146.446,288.263a1.342,1.342,0,0,1-1.336-1.336V264.556a1.336,1.336,0,1,1,2.673,0v22.371A1.336,1.336,0,0,1,146.446,288.263Z" transform="translate(-126.384 -186.626)"/><path class="j" d="M149.18,328.271a1.342,1.342,0,0,1-1.336-1.336v-16.1a7.665,7.665,0,0,0-15.331,0v16.084a1.336,1.336,0,1,1-2.673,0v-16.1a10.326,10.326,0,0,1,20.652,0v16.1A1.342,1.342,0,0,1,149.18,328.271Z" transform="translate(-120.389 -201.262)"/><rect class="c" width="3.395" height="4.72" rx="1.698" transform="translate(5.233 138.4) rotate(-37.84)"/><rect class="c" width="3.395" height="4.72" rx="1.698" transform="translate(31.441 142.118) rotate(-142.16)"/><rect class="c" width="6.906" height="12.033" rx="3.453" transform="translate(18.878 42.61)"/><rect class="c" width="6.906" height="12.033" rx="3.453" transform="translate(65.551 42.61)"/><path class="c" d="M168.674,157.64h14.11a15.252,15.252,0,0,1,15.252,15.252v31.652A20.476,20.476,0,0,1,177.56,225.02h-3.644a20.476,20.476,0,0,1-20.476-20.476V172.892a15.252,15.252,0,0,1,15.234-15.252Z" transform="translate(-129.654 -145.176)"/><rect class="g" width="9.33" height="2.503" rx="1.251" transform="translate(32.648 39.099)"/><rect class="g" width="9.33" height="2.503" rx="1.251" transform="translate(51.083 39.099)"/><path class="g" d="M178.088,212.358c0,1.446-.662,2.612-1.482,2.612s-1.476-1.166-1.476-2.612.662-2.618,1.476-2.618S178.088,210.912,178.088,212.358Z" transform="translate(-138.169 -165.63)"/><path class="g" d="M205.464,212.358c0,1.446-.662,2.612-1.482,2.612s-1.482-1.166-1.482-2.612.662-2.618,1.482-2.618S205.464,210.912,205.464,212.358Z" transform="translate(-148.915 -165.63)"/><path class="g" d="M183.7,157.64H167.739a14.329,14.329,0,0,0-14.329,14.329v33.669a19.382,19.382,0,0,0,19.382,19.382h5.88a19.376,19.376,0,0,0,19.382-19.382V171.969A14.329,14.329,0,0,0,183.7,157.64Zm10.933,43.253s0,4.094-4.094,8.194c0,0-4.325-5.691-6.147-6.147-1.178-.292-5.564-.206-8.54-.109-2.97-.1-7.362-.182-8.5.109-1.822.456-6.147,6.147-6.147,6.147-4.094-4.1-4.094-8.194-4.094-8.194V182.228l2.132-2.806a6.323,6.323,0,0,0,.3-7.374,6.038,6.038,0,0,1,.856-7.635l.043-.036a6.038,6.038,0,0,1,7.441-.753l3.183,2.5a7.9,7.9,0,0,0,9.718,0l3.171-2.5a6.074,6.074,0,0,1,7.483.753l.036.036a6.1,6.1,0,0,1,.8,7.72,6.3,6.3,0,0,0,.358,7.289l2.2,2.806Z" transform="translate(-129.642 -145.176)"/><path class="c" d="M194.437,227.547s2.733-.364,2.733,1.215-1.6,2.727-4.78,1.591" transform="translate(-144.945 -172.607)"/><path class="c" d="M190.359,206.36v13.205a2.733,2.733,0,0,1-2.727,2.733H185.2c-1.737.121-2.345-.3-2.551-1.039a1.822,1.822,0,0,1,.231-1.452h0c0-.68,2.9-.68,2.9-.68" transform="translate(-141.098 -164.303)"/><path class="c" d="M185.707,242.555a14.487,14.487,0,0,1-7.234-1.889,1,1,0,0,1,1.069-1.695,12.859,12.859,0,0,0,12.44-.061,1,1,0,1,1,.941,1.768A15.185,15.185,0,0,1,185.707,242.555Z" transform="translate(-139.307 -177.028)"/><line class="t" x2="4.41" transform="translate(53.713 50.676)"/><line class="t" x2="4.41" transform="translate(36.195 50.676)"/><circle class="v" cx="7.884" cy="7.884" r="7.884" transform="translate(10.842 147.697)"/><path class="j" d="M144.061,391.154h0a1.591,1.591,0,0,1-1.591-1.591v-5.042a1.591,1.591,0,0,1,1.591-1.591h0a1.591,1.591,0,0,1,1.591,1.591v5.041a1.591,1.591,0,0,1-1.591,1.591Z" transform="translate(-125.347 -233.623)"/><path class="j" d="M143.292,394.823a2.818,2.818,0,0,1-2.812-2.812v-2.369a.292.292,0,0,1,.292-.292.286.286,0,0,1,.292.292v2.369a2.235,2.235,0,0,0,4.464,0v-2.369a.286.286,0,0,1,.292-.292.292.292,0,0,1,.292.292v2.369a2.818,2.818,0,0,1-2.818,2.812Z" transform="translate(-124.566 -236.144)"/><path class="j" d="M144.925,400.992a.286.286,0,0,1-.285-.292v-3.037a.3.3,0,0,1,.607,0V400.7a.285.285,0,0,1-.322.292Z" transform="translate(-126.199 -239.288)"/><path class="j" d="M145.613,403.223h-3.881a.3.3,0,0,1-.292-.292.292.292,0,0,1,.292-.292h3.881a.292.292,0,0,1,.292.292A.3.3,0,0,1,145.613,403.223Z" transform="translate(-124.943 -241.361)"/><circle class="v" cx="7.884" cy="7.884" r="7.884" transform="translate(63.049 147.697)"/><path class="j" d="M233,389.008l-2.3,1.33v-1.093a.941.941,0,0,0-.941-.935h-5.2a.935.935,0,0,0-.941.935v4.191a.935.935,0,0,0,.941.941h5.2a.941.941,0,0,0,.941-.941v-1.063l2.3,1.33Z" transform="translate(-157.206 -235.735)"/><circle class="w" cx="7.884" cy="7.884" r="7.884" transform="translate(36.949 147.697)"/><path class="d" d="M188.527,390.519h-7.981a1.506,1.506,0,0,0-1.482,1.78l.231,1.251a.377.377,0,0,0,.364.3h2.43a.377.377,0,0,0,.377-.377v-1.355h4.191v1.355a.377.377,0,0,0,.377.377h2.43a.377.377,0,0,0,.371-.3l.231-1.251a1.506,1.506,0,0,0-1.537-1.78Z" transform="translate(-139.704 -236.602)"/><rect class="x" width="7.423" height="4.07" transform="translate(78.568 1.737)"/><rect class="y" width="5.789" height="4.07" transform="translate(78.568 1.737)"/><rect class="y" width="1.045" height="1.792" transform="translate(85.972 2.873)"/><rect class="z" width="1.361" height="2.332" transform="translate(1.537 2.995)"/><rect class="z" width="1.361" height="3.152" transform="translate(3.675 2.181)"/><rect class="z" width="1.361" height="4.118" transform="translate(5.813 1.209)"/></g><rect class="r" width="89.514" height="167.334" transform="translate(4.373 13.023)"/></g><g transform="translate(55.741 300.057)"><line class="t" x2="227.237" transform="translate(12.452)"/><line class="t" x2="6.007"/></g></g></svg>