<svg xmlns="http://www.w3.org/2000/svg" width="45.631" height="45.63" viewBox="0 0 45.631 45.63"><defs><style>.a{fill:none;}.b,.c{fill:#6c0ba9;}.b{opacity:0.3;}</style></defs><g transform="translate(-0.001)"><path class="a" d="M0,0H45.631V45.63H0Z" transform="translate(0.001)"/><path class="b" d="M5,8H24.013V23.21H5Z" transform="translate(4.507 7.21)"/><path class="c" d="M29.618,7.9a1.907,1.907,0,0,0-1.9-1.9H4.9A1.907,1.907,0,0,0,3,7.9V26.914a1.907,1.907,0,0,0,1.9,1.9H27.717a1.907,1.907,0,0,0,1.9-1.9V20.259l7.605,7.605V6.951l-7.605,7.605Zm-3.8,17.111H6.8V9.8H25.815Z" transform="translate(2.705 5.408)"/></g></svg>