<svg xmlns="http://www.w3.org/2000/svg" width="114.338" height="85.195" viewBox="0 0 114.338 85.195"><defs><style>.a{fill:#ebebeb;}.b{fill:#f0f0f0;}.c{fill:#f5f5f5;}.d{fill:#e6e6e6;}.e,.i,.o,.r{fill:#fff;}.f{fill:#e0e0e0;}.g{fill:#b24bf3;}.h{fill:#263238;}.i,.k{opacity:0.2;}.j{fill:#ffb573;}.l{fill:#3c474c;}.m,.o{opacity:0.1;}.n,.p{fill:#fafafa;}.p{opacity:0.4;}.q{fill:#ed893e;}.r{opacity:0.5;}.s{opacity:0.3;}</style></defs><g transform="translate(0 -55)"><g transform="translate(0 55)"><rect class="a" width="114.338" height="0.057" transform="translate(0 74.868)"/><rect class="a" width="5.946" height="0.057" transform="translate(96.936 77.045)"/><rect class="a" width="12.371" height="0.057" transform="translate(69.044 76.426)"/><rect class="a" width="8.097" height="0.057" transform="translate(90.691 79.17)"/><rect class="a" width="5.417" height="0.057" transform="translate(11.996 78.786)"/><rect class="a" width="5.909" height="0.057" transform="translate(19.449 78.786)"/><rect class="a" width="12.477" height="0.057" transform="translate(48.155 77.821)"/><path class="a" d="M83.668,119.67H39.513a1.306,1.306,0,0,1-1.3-1.306V56.294A1.306,1.306,0,0,1,39.513,55H83.668a1.306,1.306,0,0,1,1.306,1.306v62.058A1.306,1.306,0,0,1,83.668,119.67ZM39.513,55.046a1.249,1.249,0,0,0-1.246,1.249v62.069a1.249,1.249,0,0,0,1.246,1.249H83.668a1.251,1.251,0,0,0,1.249-1.249V56.294a1.251,1.251,0,0,0-1.249-1.249Z" transform="translate(-29.472 -55)"/><path class="a" d="M299.963,119.67H255.806a1.308,1.308,0,0,1-1.306-1.306V56.294A1.308,1.308,0,0,1,255.806,55h44.157a1.306,1.306,0,0,1,1.3,1.294v62.069A1.306,1.306,0,0,1,299.963,119.67ZM255.806,55.046a1.251,1.251,0,0,0-1.249,1.249v62.069a1.251,1.251,0,0,0,1.249,1.249h44.157a1.251,1.251,0,0,0,1.249-1.249V56.294a1.251,1.251,0,0,0-1.249-1.249Z" transform="translate(-196.302 -55)"/><rect class="b" width="2.799" height="33.636" transform="translate(31.146 73.704) rotate(180)"/><rect class="b" width="15.504" height="1.159" transform="translate(30.405 74.864) rotate(180)"/><rect class="c" width="14.182" height="33.636" transform="translate(14.164 40.069)"/><rect class="b" width="11.159" height="6.005" transform="translate(15.676 57.583)"/><rect class="b" width="11.159" height="6.005" transform="translate(15.676 65.445)"/><rect class="c" width="3.798" height="0.823" rx="0.412" transform="translate(23.153 60.999) rotate(180)"/><rect class="c" width="3.798" height="0.823" rx="0.412" transform="translate(23.153 68.859) rotate(180)"/><rect class="b" width="11.159" height="6.005" transform="translate(15.676 41.923)"/><rect class="b" width="11.159" height="6.005" transform="translate(15.676 49.723)"/><rect class="c" width="3.798" height="0.823" rx="0.412" transform="translate(23.153 45.34) rotate(180)"/><rect class="c" width="3.798" height="0.823" rx="0.412" transform="translate(23.153 53.137) rotate(180)"/><rect class="b" width="8.402" height="33.636" transform="translate(52.268 73.704) rotate(180)"/><rect class="b" width="20.986" height="1.159" transform="translate(51.406 74.864) rotate(180)"/><rect class="c" width="14.182" height="33.636" transform="translate(29.684 40.069)"/><rect class="b" width="11.159" height="6.005" transform="translate(31.196 57.583)"/><rect class="b" width="11.159" height="6.005" transform="translate(31.196 65.445)"/><rect class="c" width="3.798" height="0.823" rx="0.412" transform="translate(38.674 60.999) rotate(180)"/><rect class="c" width="3.798" height="0.823" rx="0.412" transform="translate(38.674 68.859) rotate(180)"/><rect class="b" width="11.159" height="6.005" transform="translate(31.196 41.923)"/><rect class="b" width="11.159" height="6.005" transform="translate(31.196 49.723)"/><rect class="c" width="3.798" height="0.823" rx="0.412" transform="translate(38.674 45.34) rotate(180)"/><rect class="c" width="3.798" height="0.823" rx="0.412" transform="translate(38.674 53.137) rotate(180)"/><rect class="d" width="35.324" height="66.84" transform="translate(98.134 72.374) rotate(180)"/><rect class="c" width="35.324" height="66.84" transform="translate(97.43 72.374) rotate(180)"/><rect class="e" width="64.006" height="32.801" transform="translate(96.172 6.949) rotate(90)"/><rect class="d" width="64.006" height="0.531" transform="translate(63.901 6.952) rotate(90)"/><rect class="c" width="34.281" height="1.903" transform="translate(96.908 27.709) rotate(180)"/><rect class="f" width="19.01" height="28.187" transform="translate(42.573 32.257) rotate(180)"/><rect class="c" width="19.799" height="28.187" transform="translate(42.207 32.257) rotate(180)"/><rect class="e" width="23.743" height="16.481" transform="translate(24.066 30.037) rotate(-90)"/><path class="c" d="M120.011,125.037c-.547.457-1.489,1.829-3.627-.311s-.775-3.08-.309-3.625-1.957-3.887-3.167-2.1-.277,3.933,2.5,6.7,4.919,3.707,6.7,2.5S120.558,124.573,120.011,125.037Z" transform="translate(-86.689 -103.964)"/><path class="c" d="M136.306,127.415a.229.229,0,0,1-.229-.229,4.253,4.253,0,0,0-4.249-4.249.229.229,0,1,1,0-.457,4.711,4.711,0,0,1,4.706,4.706A.229.229,0,0,1,136.306,127.415Z" transform="translate(-101.506 -107.049)"/><path class="c" d="M139.116,120.657a.229.229,0,0,1-.229-.229,5.918,5.918,0,0,0-5.909-5.911.229.229,0,1,1,0-.457,6.373,6.373,0,0,1,6.366,6.369A.229.229,0,0,1,139.116,120.657Z" transform="translate(-102.393 -100.554)"/><path class="c" d="M141.238,113.4a.229.229,0,0,1-.229-.229,8.1,8.1,0,0,0-8.091-8.088.229.229,0,1,1,0-.457,8.557,8.557,0,0,1,8.548,8.546A.229.229,0,0,1,141.238,113.4Z" transform="translate(-102.347 -93.281)"/><path class="f" d="M63.552,164.524c.51.2,1.9-.014,1.436.713a6.333,6.333,0,0,1-.949,1.07c-.517.494-.418,1.029.192,1.223a.8.8,0,0,1,.336.183c.281.311-.382.732-.709,1.043s-.457.622-.215.855.819.162,1.258.229c1.059.185-.03,1.317.082,1.9.078.4.494.508,1.059.565.457.046,1.077.078,1.1.444.023.318-.51.686-.649,1.011a.839.839,0,0,0,.1.88,1.3,1.3,0,0,0,.823.432c.524.087,1.315,0,1.354.457.016.206-.167.386-.039.576a.915.915,0,0,0,.613.279,5.7,5.7,0,0,0,1.512-.021c.615-.087,1.523-.508,1.189-.915a.777.777,0,0,0-.476-.213c-.149-.023-.579.014-.633-.064s.094-.375.1-.485a1.8,1.8,0,0,0-.181-.874,2.673,2.673,0,0,0-.794-.976c-.144-.114-.377-.2-.407-.366s.105-.35.254-.515c.229-.256.6-.5.732-.775.208-.432-.295-.569-.759-.668-.421-.089-.974-.2-.832-.6.105-.286.569-.521.709-.8.185-.373-.27-.389-.6-.521a.606.606,0,0,1-.373-.876c.252-.647,1.781-1.562,1-1.98-.2-.107-.384-.144-.5-.3s-.146-.386-.313-.542c-.263-.247-.807-.288-1.093-.517-.583-.471.686-1.306-.473-1.5a1.6,1.6,0,0,1-.672-.217c-.105-.075-.19-.444-.309-.471-.528-.114-1.482.686-1.781.928C64.288,163.408,62.941,164.286,63.552,164.524Z" transform="translate(-48.898 -137.664)"/><path class="d" d="M87.507,167.223c-.313-.457-1.683-.9-.773-1.425a8.622,8.622,0,0,1,1.573-.636c.8-.258,1.079-.853.686-1.347a.686.686,0,0,1-.172-.348c-.032-.457.844-.565,1.347-.729s.83-.414.78-.771c-.057-.391-.613-.56-.947-.851-.8-.7.935-1.338,1.239-1.987.206-.444-.085-.759-.544-1.088-.375-.27-.9-.6-.665-.986.2-.336.915-.457,1.271-.723a1.2,1.2,0,0,0,.515-.949,1.1,1.1,0,0,0-.441-.832c-.4-.341-1.164-.631-.88-1.118.126-.229.414-.316.43-.569a.764.764,0,0,0-.348-.585,4.8,4.8,0,0,0-1.347-.7c-.6-.208-1.694-.215-1.678.361a.645.645,0,0,0,.272.446c.114.1.519.265.515.37s-.341.341-.423.457a2.562,2.562,0,0,0-.444.983,2.881,2.881,0,0,0,.025,1.372c.05.188.2.384.11.569a1.072,1.072,0,0,1-.581.4,5.956,5.956,0,0,0-1.182.444c-.48.341-.13.725.21,1.05s.72.686.32,1.013c-.288.242-.86.258-1.173.478-.423.293-.032.528.162.821.256.382.137.75-.27,1.079-.67.54-2.65.739-2.25,1.546.1.206.229.332.229.553s-.137.457-.1.7c.062.382.515.686.606,1.059.192.764-1.5,1.011-.62,1.768a1.294,1.294,0,0,1,.457.547c.039.128-.14.547-.053.631.386.37,1.777.016,2.209-.091C86.087,168.009,87.882,167.76,87.507,167.223Z" transform="translate(-63.793 -129.391)"/><path class="b" d="M79.312,209.59s-.121,4.718-4.722,4.718-4.72-4.718-4.72-4.718Z" transform="translate(-53.892 -174.239)"/></g><g transform="translate(12.831 135.018)"><ellipse class="c" cx="44.338" cy="2.589" rx="44.338" ry="2.589"/></g><g transform="translate(44.633 55.318)"><path class="g" d="M195.409,61.4h-.229a4.953,4.953,0,0,1,.412-1.989,5.015,5.015,0,0,1,4.6-3.025v.229a4.8,4.8,0,0,0-4.4,2.884,4.74,4.74,0,0,0-.391,1.9Z" transform="translate(-195.18 -56.39)"/><rect class="g" width="0.229" height="3.069" transform="translate(0 6.442)"/><rect class="g" width="23.288" height="12.925" rx="6.462" transform="translate(0.8 0.8)"/><path class="g" d="M261.3,109.423c1.443,3.4,5.369,4.722,7.647,5.017a10.319,10.319,0,0,1-2.136-5.84Z" transform="translate(-246.18 -96.661)"/><path class="f" d="M218.505,74.076l-2.037-.5L215.02,75.1l.588,2.012,2.04.5,1.447-1.516Z" transform="translate(-210.483 -69.649)"/><path class="e" d="M215.377,73.316l-2.04-.5-1.448,1.516.59,2.012,2.037.5,1.448-1.516Z" transform="translate(-208.069 -69.063)"/><path class="e" d="M235.171,75.844l-7.224-1.756a3.087,3.087,0,0,0-5.031-1.829l2.417.588.588,2.012-1.448,1.518-2.424-.6a3.087,3.087,0,0,0,5.321.686h0L234.6,78.22a1.223,1.223,0,0,0,1.473-.9h0a1.221,1.221,0,0,0-.9-1.48Z" transform="translate(-215.905 -68.069)"/><circle class="g" cx="0.796" cy="0.796" r="0.796" transform="translate(18.148 8.164)"/></g><g transform="translate(40.444 69.819)"><rect class="f" width="2.172" height="5.491" transform="translate(28.342 56.265)"/><path class="h" d="M301.24,381.6h-3.032l-.21,5.287a1,1,0,0,0,1,1.04h1.466a1,1,0,0,0,1-1.04Z" transform="translate(-270.295 -321.734)"/><path class="h" d="M286.357,400.448a.389.389,0,0,1-.322-.174,3.3,3.3,0,0,0-2.767-1.491h-8.918a3.3,3.3,0,0,0-2.767,1.491.386.386,0,0,1-.645-.425,4.075,4.075,0,0,1,3.412-1.829h8.918a4.075,4.075,0,0,1,3.419,1.825.386.386,0,0,1-.322.6Z" transform="translate(-249.38 -334.399)"/><path class="h" d="M290.429,359.123h-7.318a1.717,1.717,0,0,1-1.683-1.372l-.229-1.121h11.15l-.229,1.121A1.717,1.717,0,0,1,290.429,359.123Z" transform="translate(-257.34 -302.474)"/><path class="h" d="M235.53,257.351H244.3a13.833,13.833,0,0,0,13.652-11.891l2.406-16.94h15.5l-2.406,16.94A13.833,13.833,0,0,1,259.8,257.351Z" transform="translate(-222.114 -203.659)"/><path class="h" d="M231,254.271a1.287,1.287,0,1,1,0-2.573h8.8a12.577,12.577,0,0,0,12.349-10.791l2.406-16.94a1.29,1.29,0,0,1,1.274-1.107h15.5a1.287,1.287,0,0,1,1.274,1.468l-2.406,16.94a15.171,15.171,0,0,1-14.926,13Zm25.948-28.836-2.25,15.833a15.166,15.166,0,0,1-6.554,10.437h7.128a12.577,12.577,0,0,0,12.378-10.789l2.2-15.474Z" transform="translate(-217.588 -199.294)"/><path class="i" d="M298.774,254.112a1.287,1.287,0,1,1,0-2.573h8.774a12.577,12.577,0,0,0,12.378-10.789l2.406-16.94a1.287,1.287,0,1,1,2.547.361l-2.406,16.94a15.171,15.171,0,0,1-14.926,13Z" transform="translate(-269.861 -199.134)"/><path class="h" d="M270,404.757a1.107,1.107,0,1,0-1.107,1.107A1.107,1.107,0,0,0,270,404.757Z" transform="translate(-246.997 -338.741)"/><path class="h" d="M335.844,404.757a1.107,1.107,0,1,0-1.107,1.107,1.107,1.107,0,0,0,1.107-1.107Z" transform="translate(-297.78 -338.741)"/><path class="h" d="M286.357,400.448a.389.389,0,0,1-.322-.174,3.3,3.3,0,0,0-2.767-1.491h-8.918a3.3,3.3,0,0,0-2.767,1.491.386.386,0,0,1-.645-.425,4.075,4.075,0,0,1,3.412-1.829h8.918a4.075,4.075,0,0,1,3.419,1.825.386.386,0,0,1-.322.6Z" transform="translate(-249.38 -334.399)"/><path class="h" d="M295.307,403.268a.391.391,0,0,1-.368-.268c-.279-.848-.741-1.4-1.178-1.4H289.3c-.437,0-.9.551-1.178,1.4a.386.386,0,0,1-.734-.24c.4-1.21,1.111-1.93,1.912-1.93h4.459c.8,0,1.514.72,1.912,1.93a.386.386,0,0,1-.247.487A.361.361,0,0,1,295.307,403.268Z" transform="translate(-262.103 -336.566)"/><path class="h" d="M286.414,407.607a1.107,1.107,0,1,0-1.107,1.107A1.107,1.107,0,0,0,286.414,407.607Z" transform="translate(-259.654 -340.94)"/><path class="h" d="M319.434,407.607a1.107,1.107,0,1,0-1.107,1.107A1.107,1.107,0,0,0,319.434,407.607Z" transform="translate(-285.123 -340.94)"/><path class="j" d="M196,344.92l3.894,1.69-2.232,2.6L194.41,347.8Z" transform="translate(-190.397 -293.441)"/><path class="k" d="M198.374,344.92l3.894,1.692-1.251,1.459-3.538-1.534Z" transform="translate(-192.765 -293.441)"/><path class="h" d="M184.683,359.033l-.439-.1a.807.807,0,0,1-.574-.5h0l-.281.13a.8.8,0,0,1-.521.057l-6.007-1.372a2.408,2.408,0,0,1,.492-1.143s2.673.457,3.446-.181a.2.2,0,0,1,.21-.011,8.931,8.931,0,0,0,3.622.938.245.245,0,0,1,.258.295A13.1,13.1,0,0,0,184.683,359.033Z" transform="translate(-176.86 -301.904)"/><path class="h" d="M192.3,352.3a.062.062,0,0,1-.046-.021c-.025-.027-.636-.686-.617-1.059a.272.272,0,0,1,.091-.2.21.21,0,0,1,.245-.039c.263.133.428.867.393,1.258a.069.069,0,0,1-.043.055Zm-.421-1.21a.1.1,0,0,0-.066.032.13.13,0,0,0-.046.105,1.762,1.762,0,0,0,.473.844c-.014-.377-.158-.887-.325-.972A.1.1,0,0,0,191.881,351.088Z" transform="translate(-188.259 -298.1)"/><path class="h" d="M189.618,354.9a1.323,1.323,0,0,1-.736-.153.263.263,0,0,1-.105-.188.21.21,0,0,1,.112-.229c.261-.133.951.167,1.246.425a.064.064,0,0,1-.034.112A4.42,4.42,0,0,1,189.618,354.9Zm-.565-.471a.277.277,0,0,0-.114.021c-.023.014-.048.034-.041.1a.144.144,0,0,0,.057.1,1.8,1.8,0,0,0,.963.114A1.926,1.926,0,0,0,189.053,354.429Z" transform="translate(-186.048 -300.675)"/><path class="g" d="M232.978,272.057l-1.676,3.492c-2.461,5.154-8.523,7.745-13.364,5.717-2.826-1.185-5.911-3.689-8-4.834-1.8,3.936-5.157,8.276-7.729,11.3L197,285.11c1.944-4.461,4.969-11.434,6.89-15.952a4.635,4.635,0,0,1,4.045-2.81C216.588,266.114,232.978,272.057,232.978,272.057Z" transform="translate(-192.394 -232.831)"/><path class="l" d="M323.734,133.011c-.976-.322-2.09.3-2.1,2.479s1.969,3.35,2.806.531C324.939,134.319,324.458,133.246,323.734,133.011Z" transform="translate(-288.524 -129.929)"/><path class="j" d="M243.188,394.2l4.24-.2-.853,3.32-3.544.169Z" transform="translate(-227.899 -331.298)"/><path class="k" d="M243.429,394.2l4.24-.2-.478,1.861-3.851.183Z" transform="translate(-228.138 -331.298)"/><path class="h" d="M234.243,408.634h-.457a.8.8,0,0,1-.668-.359h0l-.245.192a.814.814,0,0,1-.5.169h-6.156a2.365,2.365,0,0,1,.229-1.219s2.708-.144,3.318-.938a.2.2,0,0,1,.2-.08,9.017,9.017,0,0,0,3.741.112.242.242,0,0,1,.316.229,13.188,13.188,0,0,0,.222,1.893Z" transform="translate(-214.917 -340.86)"/><path class="h" d="M239.386,403.242a.055.055,0,0,1-.037-.011c-.032-.021-.771-.519-.837-.9a.268.268,0,0,1,.046-.21.21.21,0,0,1,.229-.094c.284.073.608.75.661,1.143a.066.066,0,0,1-.032.064A.053.053,0,0,1,239.386,403.242Zm-.652-1.091a.1.1,0,0,0-.073.048.14.14,0,0,0-.021.114c.039.229.407.537.649.718-.1-.366-.352-.83-.533-.876Z" transform="translate(-224.41 -337.487)"/><path class="h" d="M236.862,406.373a.648.648,0,0,1-.279-.05.267.267,0,0,1-.144-.16.215.215,0,0,1,.059-.242c.229-.188.965-.048,1.31.137a.071.071,0,0,1,.034.062.062.062,0,0,1-.043.055A3.3,3.3,0,0,1,236.862,406.373Zm0-.416a.485.485,0,0,0-.279.062c-.021.018-.039.043-.021.105a.142.142,0,0,0,.08.082,1.782,1.782,0,0,0,.963-.1,2.228,2.228,0,0,0-.745-.149Z" transform="translate(-222.803 -340.424)"/><path class="g" d="M267.324,285.29l-.027,3.689a11.179,11.179,0,0,1-10.162,10.707c-3.215.229-7.56.311-10.062.261a50.55,50.55,0,0,1-2.744,11.55l-5.415-.377c-.142-4.617-.35-11.164-.524-15.507a4.557,4.557,0,0,1,2.6-4.153C249.091,287.462,267.324,285.29,267.324,285.29Z" transform="translate(-224.317 -247.447)"/><path class="m" d="M258.842,309.146a.1.1,0,0,1-.037,0,.128.128,0,0,1-.085-.16,82.925,82.925,0,0,0,2.358-14.951.142.142,0,0,1,.046-.1.133.133,0,0,1,.1-.03c7.91,1.052,13.263.686,15.493-1.034a9.368,9.368,0,0,0,2.861-10.519.129.129,0,1,1,.24-.094,9.631,9.631,0,0,1-2.943,10.812c-2.3,1.786-7.528,2.159-15.55,1.1a83.59,83.59,0,0,1-2.367,14.875.126.126,0,0,1-.117.092Z" transform="translate(-239.997 -245.05)"/><path class="k" d="M241.78,312.435a38.995,38.995,0,0,1-3.22,5.337c.027.762.057,1.569.087,2.408a32.816,32.816,0,0,0,3.135-7.75Z" transform="translate(-224.451 -268.381)"/><path class="j" d="M253.873,179.107l-.2.13-.165.1-.32.185c-.213.121-.425.229-.636.334-.423.215-.858.4-1.3.576a15.564,15.564,0,0,1-2.769.809c-.483.094-.979.16-1.482.208a12.862,12.862,0,0,1-1.546.025,10.553,10.553,0,0,1-1.589-.185,10.142,10.142,0,0,1-1.582-.457l-.21-.078a2.211,2.211,0,0,1-.839-.551,5.074,5.074,0,0,1-1.116-1.829,6.276,6.276,0,0,1-.336-1.674,9.581,9.581,0,0,1,.229-2.744,14.907,14.907,0,0,1,.736-2.33c.151-.368.316-.727.489-1.079l.272-.526c.1-.176.192-.334.309-.533a1.484,1.484,0,0,1,2.76.78v.229c0,.14-.023.325-.032.489l-.039.51c-.027.338-.043.686-.059,1.011s-.023.663-.025.983,0,.638.021.94a6.331,6.331,0,0,0,.245,1.573,1.217,1.217,0,0,0,.206.412c.064.066.094.034.059-.041l-1.05-.629a6.147,6.147,0,0,0,1.564.08,7.108,7.108,0,0,0,.853-.114c.29-.05.588-.112.887-.194s.6-.178.9-.279.606-.229.915-.348.6-.263.9-.4c.146-.069.293-.142.432-.213l.206-.105.1-.048c.021-.011.069-.039.053-.025a2.961,2.961,0,0,1,3.163,5.008Z" transform="translate(-225.378 -157.567)"/><path class="j" d="M247.212,163.38l1.706.08c1.708-.556.613-2.628.613-2.628l-.126-1.207a.915.915,0,0,0-.9-.755l-1.191-.066a.944.944,0,0,0-1.043.8l-.066,1.056a1.885,1.885,0,0,0,.167.9Z" transform="translate(-230.348 -149.885)"/><path class="f" d="M275.756,179.186c-.72-.965-3.055-.739-4.4.787-.558-.023-2.744,1.955-4.418,2.378s-2.881,2.447-2.415,3.588c.862,2.106,1.448,3.115,3,3.284s3.606-.839,5.26-2.076S277.028,180.9,275.756,179.186Z" transform="translate(-244.396 -165.16)"/><path class="n" d="M263.579,193.962c-1.3-.837-2.579.567-2.579,2.333a8.384,8.384,0,0,0,1.047,4.306c.633,1.036,1.752.949,2.794.9.9-.043,1.345-.368.915-1.187s-2.015-2-2.25-4.3C263.376,194.847,264.181,194.349,263.579,193.962Z" transform="translate(-241.759 -176.812)"/><path class="n" d="M269.892,266.35c-.279.288-.48,1.4.087,3.076.391,1.159,1.93.581,1.93.581a3.107,3.107,0,0,0,2.186,2.552c3.158.741,15.07.542,17.094-1.029C284.84,271.463,269.892,266.35,269.892,266.35Z" transform="translate(-248.405 -232.839)"/><path class="h" d="M279.62,177.78a51.292,51.292,0,0,1,9.287.9,3.794,3.794,0,0,1,2.888,4.695c-2.287,8.71-1,18.276-1.178,20.021,0,0-18.278,2.632-21.079-2.8-3.762-6.147,2.641-10.162,4.83-18.8A5.568,5.568,0,0,1,279.62,177.78Z" transform="translate(-247.45 -164.522)"/><path class="o" d="M279.62,177.78a51.292,51.292,0,0,1,9.287.9,3.794,3.794,0,0,1,2.888,4.695c-2.287,8.71-1,18.276-1.178,20.021,0,0-18.278,2.632-21.079-2.8-3.762-6.147,2.641-10.162,4.83-18.8A5.568,5.568,0,0,1,279.62,177.78Z" transform="translate(-247.45 -164.522)"/><path class="p" d="M320.115,178.192l-.032-.014-.1-.034-.027.021c-1.534-.183-3.133-.3-4.658-.35-.373-.014-.741-.021-1.1-.025a2.332,2.332,0,0,0-1.038,1.21,3.133,3.133,0,0,0,.9,3.448l.085.082.121-.011c2.241-.217,6.43-2.012,6.606-3.4C320.9,178.89,320.838,178.455,320.115,178.192Z" transform="translate(-281.833 -164.53)"/><path class="j" d="M338.92,202.32l.167.32.149.293c.1.194.185.389.277.583.181.386.341.777.5,1.171.311.787.6,1.585.844,2.4.126.407.229.819.352,1.235s.2.837.286,1.265a23.006,23.006,0,0,1,.393,2.611l.023.229a2.391,2.391,0,0,1-.119,1,4.292,4.292,0,0,1-.787,1.372,4.489,4.489,0,0,1-1.018.883,5.992,5.992,0,0,1-1.864.764,10.721,10.721,0,0,1-3.016.229,18.413,18.413,0,0,1-2.666-.352c-.43-.085-.853-.19-1.274-.3s-.823-.229-1.267-.393a1.491,1.491,0,0,1,.37-2.89h.087l1.143-.1c.391-.027.777-.066,1.159-.105s.762-.082,1.132-.13.732-.105,1.082-.174a7.776,7.776,0,0,0,1.8-.517c.21-.1.359-.229.345-.254s-.055,0-.126.059a.941.941,0,0,0-.206.3l-.1,1.221c-.172-.668-.352-1.335-.572-2.01-.107-.336-.229-.686-.35-1.011s-.229-.686-.37-1.013c-.265-.672-.528-1.349-.814-2.019l-.43-1-.416-.94-.053-.123a2.959,2.959,0,0,1,5.324-2.575Z" transform="translate(-294.141 -182.266)"/><rect class="g" width="4.043" height="5.035" rx="1.38" transform="translate(27.196 28.474)"/><path class="g" d="M305.02,247.043a1.544,1.544,0,1,1,0,3.085H305a1.544,1.544,0,1,1,0-3.085h.027m0-.457H305a2.008,2.008,0,1,0,0,4.013h.027a2.008,2.008,0,1,0,0-4.013Z" transform="translate(-274.096 -217.593)"/><path class="j" d="M320.086,250.508l-.014,1.079c-.656,1.672-2.659.457-2.659.457l-1.2-.2a.915.915,0,0,1-.7-.94v-1.194a.947.947,0,0,1,.864-.995h1.075a1.865,1.865,0,0,1,.883.229l1.21.645A1.034,1.034,0,0,1,320.086,250.508Z" transform="translate(-283.807 -219.24)"/><path class="f" d="M350.357,185.6c1.185-.229,2.744,1.525,2.712,3.563.425.359,1.162,3.352,2.1,4.8s.457,3.75-.649,4.274c-2.058.967-3.174,1.315-4.436.386a8.183,8.183,0,0,1-2.923-5.141C346.868,190.48,348.256,186,350.357,185.6Z" transform="translate(-308.19 -170.54)"/><path class="n" d="M353.457,228.118c-.75,1.354.734,2.541,2.486,2.438a8.305,8.305,0,0,0,4.228-1.326c.995-.7.835-1.807.716-2.847-.1-.9-.457-1.317-1.242-.835s-1.868,2.14-4.148,2.515C354.354,228.264,353.8,227.494,353.457,228.118Z" transform="translate(-312.92 -201.21)"/><path class="j" d="M314.948,169.44a2.383,2.383,0,0,1,1.2-1.006,2.216,2.216,0,0,0,.128-1.477l5.653-1.427c-.56,1.807-1,3.233-.373,4.164a10.027,10.027,0,0,1-5.374,1.477C314.013,170.977,314.548,170.188,314.948,169.44Z" transform="translate(-283.089 -155.074)"/><path class="k" d="M321.88,172.53l4.176.011c-1.386,1.31-3.391,1.713-4.256,1.093A2.224,2.224,0,0,0,321.88,172.53Z" transform="translate(-288.656 -160.473)"/><path class="j" d="M324.894,137.229c-.8,2.541-1.406,4.247-3.176,4.962-3.515,1.418-4.949-.434-4.919-3.169.027-2.463,1.34-6.2,4.116-6.572a3.673,3.673,0,0,1,3.979,4.779Z" transform="translate(-284.798 -129.533)"/><path class="l" d="M342.239,145c-1.045-.457-.729-.775-.729-.775a5.378,5.378,0,0,0,.981-1.491c.135-.549-.686-1.722-.4-2.337s3.359-.915,4.66.656a4.3,4.3,0,0,1-.928.1,1.939,1.939,0,0,1,.3,2.168C345.527,144.582,343.352,145.5,342.239,145Z" transform="translate(-303.823 -135.301)"/><path class="h" d="M320,163.36l2.7.041a1.916,1.916,0,0,1-1.516.752C320.05,164.254,320,163.36,320,163.36Z" transform="translate(-287.267 -153.4)"/><path class="e" d="M320.24,163.36c.085.174.341.434,1.116.366a3.138,3.138,0,0,0,1.214-.329C322.092,163.392,321.134,163.376,320.24,163.36Z" transform="translate(-287.452 -153.4)"/><path class="k" d="M336.84,151.862a1.221,1.221,0,0,1,.915.183A2.438,2.438,0,0,1,336.84,151.862Z" transform="translate(-300.256 -144.514)"/><path class="k" d="M336.71,152.91a1.013,1.013,0,0,1,.766.368A2.014,2.014,0,0,1,336.71,152.91Z" transform="translate(-300.156 -145.34)"/><path class="k" d="M320.067,147.53s-.176-.286-.357-.172a.517.517,0,0,0,.357.171Z" transform="translate(-287.044 -141.037)"/><path class="k" d="M320.036,148.625s-.14-.256-.286-.055A.247.247,0,0,0,320.036,148.625Z" transform="translate(-287.075 -141.932)"/><path class="k" d="M327.41,138.6a7.508,7.508,0,0,1,2.319.389A20.854,20.854,0,0,1,327.41,138.6Z" transform="translate(-292.983 -134.302)"/><path class="k" d="M325.82,140.16a7.9,7.9,0,0,1,2.614.739A14.7,14.7,0,0,1,325.82,140.16Z" transform="translate(-291.756 -135.505)"/><path class="j" d="M344.7,158.71a2.515,2.515,0,0,1-1.694.915c-.885.085-1.178-.745-.807-1.5.332-.686,1.194-1.539,2.019-1.274A1.145,1.145,0,0,1,344.7,158.71Z" transform="translate(-304.271 -148.342)"/><path class="h" d="M331.967,150.264c-.053.21-.206.352-.343.318s-.206-.229-.153-.446.206-.352.343-.316S332.019,150.055,331.967,150.264Z" transform="translate(-296.101 -142.951)"/><path class="h" d="M322.2,147.954c-.053.21-.206.352-.343.316s-.206-.229-.153-.444.206-.352.343-.316S322.249,147.743,322.2,147.954Z" transform="translate(-288.565 -141.17)"/><path class="q" d="M321.943,151l-.437,1.768a1.491,1.491,0,0,1-1.036-.409A3.835,3.835,0,0,1,321.943,151Z" transform="translate(-287.63 -143.866)"/><path class="l" d="M334.441,146.355a.116.116,0,0,0,.062,0,.126.126,0,0,0,.069-.167,1.278,1.278,0,0,0-.876-.771.128.128,0,1,0-.046.252h0a1.027,1.027,0,0,1,.686.617A.126.126,0,0,0,334.441,146.355Z" transform="translate(-297.709 -139.558)"/><path class="l" d="M319.021,143.41a.128.128,0,0,0,.117-.03,1.013,1.013,0,0,1,.874-.281.123.123,0,0,0,.151-.094.128.128,0,0,0-.094-.153,1.255,1.255,0,0,0-1.1.341.128.128,0,0,0,0,.181A.13.13,0,0,0,319.021,143.41Z" transform="translate(-286.44 -137.566)"/><path class="j" d="M255.571,168.173c1.246-.773,1.118-2.086,1.338-3.131.039-.178-.368-.439-.608-.215a1.514,1.514,0,0,0-.567,1.034,1.813,1.813,0,0,0-1.438,1.983A1.857,1.857,0,0,0,255.571,168.173Z" transform="translate(-236.572 -154.465)"/><path class="n" d="M315.092,182.592c2.973-.29,8.12-2.973,5.792-3.828a9.511,9.511,0,0,1-5.088,1.63,1.829,1.829,0,0,1-.046-2.175C314.536,178.117,313.011,180.568,315.092,182.592Z" transform="translate(-282.689 -164.859)"/><path class="f" d="M321.64,179.2c1.079-.743,4.5-2.547,5.456-2.531a2.325,2.325,0,0,1,.053,1.143S325.886,179.194,321.64,179.2Z" transform="translate(-288.532 -163.666)"/><path class="f" d="M319.179,178.222a12.906,12.906,0,0,0-.043-2.822,1.1,1.1,0,0,0-.686.839S318.674,177.865,319.179,178.222Z" transform="translate(-286.072 -162.687)"/><path class="l" d="M328.941,124.827c-1.548.185-6.135-.247-7.635-1.976s-.407-2.9,1.2-1.9c0,0-1.066-1.45.647-1.086,1.617.343,3.531,3.151,5.962,3.032C331.182,122.792,330.471,124.651,328.941,124.827Z" transform="translate(-287.725 -119.804)"/><path class="h" d="M346,160.643a1.338,1.338,0,1,1,.487-2.058A1.525,1.525,0,0,1,346,160.643Z" transform="translate(-305.508 -149.407)"/><path class="h" d="M326.835,169.765a.471.471,0,1,1,.636-.391A.535.535,0,0,1,326.835,169.765Z" transform="translate(-292.305 -157.637)"/><path class="h" d="M348.822,137.053a.261.261,0,0,1-.206-.1.256.256,0,0,1,.048-.359,3.424,3.424,0,0,0,.88-2.744,4.693,4.693,0,0,0-2.058-3.787.257.257,0,1,1,.274-.434,5.124,5.124,0,0,1,2.3,4.2,3.869,3.869,0,0,1-1.082,3.163A.254.254,0,0,1,348.822,137.053Z" transform="translate(-308.376 -127.349)"/><path class="h" d="M329.261,169.019a8.567,8.567,0,0,1-1.123-.075.128.128,0,0,1-.112-.144.13.13,0,0,1,.144-.11,6.613,6.613,0,0,0,4.4-.78.129.129,0,0,1,.149.21A6.272,6.272,0,0,1,329.261,169.019Z" transform="translate(-293.457 -156.891)"/></g><g transform="translate(23.547 84.088)"><rect class="g" width="65.479" height="1.781" transform="translate(0.807 19.243)"/><rect class="r" width="65.479" height="1.781" transform="translate(0.807 19.243)"/><rect class="r" width="14.91" height="1.781" transform="translate(51.377 19.243)"/><rect class="e" width="0.261" height="1.781" transform="translate(51.374 21.022) rotate(180)"/><path class="g" d="M338.528,274.14,340.5,307.3h-.784l-2.371-31.98H327.023l-2.369,31.98h-.784l1.973-33.165Z" transform="translate(-273.355 -253.116)"/><path class="r" d="M338.528,274.14,340.5,307.3h-.784l-2.371-31.98H327.023l-2.369,31.98h-.784l1.973-33.165Z" transform="translate(-273.355 -253.116)"/><path class="g" d="M117.628,274.14,119.6,307.3h-.784l-2.369-31.98H106.123l-2.369,31.98h-.784l1.976-33.165Z" transform="translate(-102.97 -253.116)"/><path class="i" d="M117.628,274.14,119.6,307.3h-.784l-2.369-31.98H106.123l-2.369,31.98h-.784l1.976-33.165Z" transform="translate(-102.97 -253.116)"/><path class="g" d="M147.235,196.828H123.118L120.93,182.2h24.118Z" transform="translate(-116.823 -182.2)"/><path class="s" d="M177.25,223.431h3.318l-.794-6.741-1.024,2.84Z" transform="translate(-160.264 -208.803)"/><path class="s" d="M227.653,196.828h-.277L225.19,182.2h.277Z" transform="translate(-197.241 -182.2)"/><path class="g" d="M175.573,263.64H169.01v.62h7.13Z" transform="translate(-153.908 -245.017)"/><path class="s" d="M175.573,263.64H169.01v.62h7.13Z" transform="translate(-153.908 -245.017)"/><path class="g" d="M165.225,227.27l-.091.675h-.274a.576.576,0,0,0-.567.48l-.565,3.446a.574.574,0,0,0,.565.668h.229v.277H163V227.27Z" transform="translate(-149.273 -216.964)"/><path class="s" d="M165.225,227.27l-.091.675h-.274a.576.576,0,0,0-.567.48l-.565,3.446a.574.574,0,0,0,.565.668h.229v.277H163V227.27Z" transform="translate(-149.273 -216.964)"/><path class="g" d="M156.39,214.19l-1.96,11.928h6.053l1.96-11.928Zm3.355,4.333-.567,3.444a.574.574,0,0,1-.565.483h-1.169a.576.576,0,0,1-.567-.668l.567-3.446a.574.574,0,0,1,.567-.48h1.166a.574.574,0,0,1,.574.668Z" transform="translate(-142.662 -206.875)"/><path class="s" d="M179.943,226.118l-.293-.039L181.6,214.19h.3Z" transform="translate(-162.115 -206.875)"/><path class="s" d="M174.585,191.131h-.35l-.455-3.041h.35Z" transform="translate(-157.587 -186.743)"/><path class="s" d="M177.435,191.131h-.352l-.453-3.041h.35Z" transform="translate(-159.786 -186.743)"/><path class="s" d="M180.277,191.131h-.352l-.455-3.041h.352Z" transform="translate(-161.976 -186.743)"/><path class="s" d="M183.127,191.131h-.352l-.455-3.041h.352Z" transform="translate(-164.175 -186.743)"/><path class="s" d="M185.975,191.131h-.35l-.455-3.041h.352Z" transform="translate(-166.373 -186.743)"/><path class="s" d="M171.735,191.131h-.35l-.455-3.041h.35Z" transform="translate(-155.389 -186.743)"/><path class="s" d="M168.885,191.131h-.35l-.455-3.041h.352Z" transform="translate(-153.191 -186.743)"/><path class="s" d="M166.035,191.131h-.35l-.455-3.041h.352Z" transform="translate(-150.993 -186.743)"/><path class="s" d="M163.187,191.131h-.352l-.455-3.041h.352Z" transform="translate(-148.794 -186.743)"/></g></g></svg>