<svg xmlns="http://www.w3.org/2000/svg" width="88.581" height="86.335" viewBox="0 0 88.581 86.335"><defs><style>.a{fill:#f5f5f5;}.b{fill:#e0e0e0;}.c{fill:#b24bf3;}.d{opacity:0.3;}.e{fill:#fff;}.f{opacity:0.1;}.g{opacity:0.15;}.h{fill:#b16668;}.i{fill:#263238;}.j{fill:#455a64;}.k{fill:#37474f;}.l{fill:#9a4a4d;}.m,.r{opacity:0.2;}.n{opacity:0.6;}.o{fill:#ffa8a7;}.p{fill:#f28f8f;}.q{opacity:0.4;}</style></defs><g transform="translate(-22.91 -28.873)"><g transform="translate(23.621 68.367)"><ellipse class="a" cx="43.067" cy="23.421" rx="43.067" ry="23.421" transform="translate(0)"/></g><g transform="translate(30.293 83.066)"><ellipse class="b" cx="6.489" cy="3.748" rx="6.489" ry="3.748" transform="translate(29.906 0)"/><ellipse class="b" cx="10.258" cy="5.922" rx="10.258" ry="5.922" transform="translate(50.336 5.666)"/><ellipse class="b" cx="10.258" cy="5.922" rx="10.258" ry="5.922" transform="translate(0 6.306)"/></g><g transform="translate(22.91 76.028)"><g transform="translate(80.94 2.111)"><path class="c" d="M445.128,296.735l-1.937-.792a41.317,41.317,0,0,1-.42-5.055c0-3.165,1.972-7.036,4.474-6.389s-.706,4.189-1.226,6.925S445.128,296.735,445.128,296.735Z" transform="translate(-442.77 -284.428)"/><path class="d" d="M445.128,296.735l-1.937-.792a41.317,41.317,0,0,1-.42-5.055c0-3.165,1.972-7.036,4.474-6.389s-.706,4.189-1.226,6.925S445.128,296.735,445.128,296.735Z" transform="translate(-442.77 -284.428)"/><path class="e" d="M449.023,300.72h0a.081.081,0,0,0,.069-.091c-.923-6.94,2.2-10.8,2.229-10.828a.081.081,0,1,0-.125-.1c-.031.039-3.2,3.94-2.265,10.954a.081.081,0,0,0,.093.069Z" transform="translate(-447.604 -288.657)"/><path class="c" d="M455.095,313.108l-1.012-.459a10.755,10.755,0,0,1,.135-4.706c.65-2.495,2.813-4.033,3.9-3.778a1.617,1.617,0,0,1,1.072,2.4C458.727,307.581,455.523,310.332,455.095,313.108Z" transform="translate(-451.742 -300.338)"/><path class="f" d="M455.095,313.108l-1.012-.459a10.755,10.755,0,0,1,.135-4.706c.65-2.495,2.813-4.033,3.9-3.778a1.617,1.617,0,0,1,1.072,2.4C458.727,307.581,455.523,310.332,455.095,313.108Z" transform="translate(-451.742 -300.338)"/><path class="e" d="M456.86,316.125h0a.083.083,0,0,0,.073-.091c-.455-4.4,3.387-7.788,3.428-7.821a.085.085,0,0,0,0-.116.081.081,0,0,0-.116,0c-.04.035-3.944,3.47-3.483,7.962A.085.085,0,0,0,456.86,316.125Z" transform="translate(-454.034 -303.516)"/></g><g transform="translate(0 0)"><path class="c" d="M39.555,286.124l1.33-.76a22.9,22.9,0,0,0,.16-6.529c-.671-4.241-3.561-5.708-4.609-5.286s-1.3,1.679.6,4.131A14.152,14.152,0,0,1,39.555,286.124Z" transform="translate(-33.176 -273.479)"/><g class="g" transform="translate(2.452)"><path d="M39.555,286.124l1.33-.76a22.9,22.9,0,0,0,.16-6.529c-.671-4.241-3.561-5.708-4.609-5.286s-1.3,1.679.6,4.131A14.152,14.152,0,0,1,39.555,286.124Z" transform="translate(-35.628 -273.479)"/></g><path class="e" d="M46.032,286.947h-.013a.093.093,0,0,1-.079-.106c.547-3.973-1.049-8.326-2.845-10.08a.1.1,0,1,1,.133-.137c1.828,1.777,3.457,6.211,2.9,10.24A.1.1,0,0,1,46.032,286.947Z" transform="translate(-39.171 -275.987)"/><path class="c" d="M25.6,303.48c-.21.12-.642-.143-.808-.254a2.028,2.028,0,0,1-.667-.771,1.876,1.876,0,0,1-.166-1.128,4.367,4.367,0,0,1,.143-.6l.168-.578a1.494,1.494,0,0,0,.085-.578,1.528,1.528,0,0,0-.725-.918,1.457,1.457,0,0,1-.723-1.1,1.67,1.67,0,0,1,.422-1c.227-.291.5-.547.707-.854a1.17,1.17,0,0,0,.237-.75,1.228,1.228,0,0,0-.162-.465,6.453,6.453,0,0,1-.509-.933.938.938,0,0,1,.162-.993,1.093,1.093,0,0,1,.823-.2,1.878,1.878,0,0,1,.771.27c.761.422,1.2,1.324,2,1.65a7.9,7.9,0,0,0,.975.237,1.2,1.2,0,0,1,.806.553c.3.592-.253,1.321-.044,1.949.193.555.725.771,1.028,1.27a1.184,1.184,0,0,1,.143.727,3.52,3.52,0,0,1-.307,1.23,8.742,8.742,0,0,1-.677,1.108C29.277,301.364,25.636,303.457,25.6,303.48Z" transform="translate(-22.91 -288.706)"/><path class="e" d="M35.411,304.886h0a.1.1,0,0,1-.093-.1c.156-3.759-1.615-7.9-2.9-9.118a.094.094,0,0,1,0-.133.1.1,0,0,1,.135,0c1.305,1.224,3.115,5.446,2.955,9.261A.094.094,0,0,1,35.411,304.886Z" transform="translate(-30.561 -291.261)"/><path class="e" d="M33.2,318.454h-.029a12.826,12.826,0,0,0-2.728-.441.1.1,0,1,1,0-.193,12.985,12.985,0,0,1,2.776.449.094.094,0,0,1,.064.118A.1.1,0,0,1,33.2,318.454Z" transform="translate(-28.916 -309.272)"/></g></g><g transform="translate(76.898 40.357)"><g transform="translate(0 9.991)"><path class="h" d="M392.361,347.737l-1.8-.206-.465-3.62,2.2.652Z" transform="translate(-373.301 -304.652)"/><path class="i" d="M381.273,367.989a.542.542,0,0,0,.031.44,2.1,2.1,0,0,0,1.369.534,2.732,2.732,0,0,0,1.608-.281,1.124,1.124,0,0,0,.6-.879,2.391,2.391,0,0,1,.172-1.008c.172-.283.42-.559.476-.7a1.436,1.436,0,0,0,0-.752Z" transform="translate(-366.15 -321.951)"/><path class="j" d="M383.118,359.408a1.5,1.5,0,0,1-.075.411,3.77,3.77,0,0,1-.4.812,3.32,3.32,0,0,1-.27.386c-.193.233-.44.426-.648.65a1.33,1.33,0,0,0-.4.794c-.027.509.783.682,1.209.758a3.121,3.121,0,0,0,1.38-.069,1.266,1.266,0,0,0,.929-1.012c.025-.143.015-.287.033-.428a2,2,0,0,1,.4-.891,2.639,2.639,0,0,0,.3-.484,1.521,1.521,0,0,0-.058-.981c-.073-.272-.162-.578-.258-.557,0,.141,0,.16-.094.254s-.131.3-.266.409a1.948,1.948,0,0,0,.094-.362.2.2,0,0,0-.029-.143.386.386,0,0,0-.156-.085,3.216,3.216,0,0,0-.617-.141,3.792,3.792,0,0,0-.862,0,.257.257,0,0,0-.152.089.315.315,0,0,0-.054.174C383.114,359.063,383.122,359.273,383.118,359.408Z" transform="translate(-366.219 -316.593)"/><path class="a" d="M387.777,367.562a2.439,2.439,0,0,1,1.1-.12,1.4,1.4,0,0,1,.659.231.15.15,0,0,0,.193-.015h0a.143.143,0,0,0-.015-.216,1.432,1.432,0,0,0-.74-.276,3.827,3.827,0,0,0-1,.058S387.721,367.393,387.777,367.562Z" transform="translate(-371.42 -323.418)"/><path class="a" d="M385.55,370.374a2.949,2.949,0,0,1,1.2-.1,1.317,1.317,0,0,1,.64.245.152.152,0,0,0,.193-.015h0a.143.143,0,0,0-.015-.216,2.748,2.748,0,0,0-1.016-.3c-.578-.04-.719.075-.719.075A.48.48,0,0,0,385.55,370.374Z" transform="translate(-369.628 -325.701)"/><path class="a" d="M390.6,364.3a2.807,2.807,0,0,0-.975.06c-.1.056-.168.216-.1.256a2.742,2.742,0,0,1,.895-.089,1.909,1.909,0,0,1,.617.17c.05.023.108.052.158.081a.133.133,0,0,0,.193-.058h0a.127.127,0,0,0-.048-.164A1.841,1.841,0,0,0,390.6,364.3Z" transform="translate(-372.813 -321.1)"/><path class="h" d="M359.928,338.769l-1.708-.476V334.84l2.119.093Z" transform="translate(-347.567 -297.331)"/><path class="i" d="M339.372,360.08a.631.631,0,0,0,.025.453,2.272,2.272,0,0,0,1.689.459,3.9,3.9,0,0,0,1.928-.675,2.216,2.216,0,0,1,1.188-.3,1.722,1.722,0,0,0,1.17-.474,1.031,1.031,0,0,0-.015-.588Z" transform="translate(-332.328 -316.793)"/><path class="j" d="M343.033,349.286l-.073-.015a.268.268,0,0,0-.123,0,.26.26,0,0,0-.116.077,2.289,2.289,0,0,0-.237.376,2.8,2.8,0,0,1-1.055.823c-.3.164-.6.291-.918.432a7.638,7.638,0,0,0-1,.4.673.673,0,0,0,0,1.11,3.286,3.286,0,0,0,2.3.16c.54-.154,1.141-.731,1.851-.787a2.806,2.806,0,0,0,1.6-.505c.108-.152-.037-.634-.154-1.051-.129-.455-.251-1.157-.4-1.124a.2.2,0,0,1-.079.17,2.415,2.415,0,0,1-.193.147,1.186,1.186,0,0,0-.251.361.272.272,0,0,1-.127.139c-.077.027-.133-.019-.193-.05a.385.385,0,0,0-.27-.019,1.809,1.809,0,0,1,.048-.268.143.143,0,0,0,0-.085.127.127,0,0,0-.058-.066A1.432,1.432,0,0,0,343.033,349.286Z" transform="translate(-332.23 -308.91)"/><path class="a" d="M352.9,353.978a.416.416,0,0,1,.334-.224,1.214,1.214,0,0,1,.792.3.168.168,0,0,1-.023.278h0a.166.166,0,0,1-.193-.021A1.291,1.291,0,0,0,352.9,353.978Z" transform="translate(-343.273 -312.595)"/><path class="a" d="M349.59,355.934a.484.484,0,0,1,.4-.2,1.5,1.5,0,0,1,.869.326.164.164,0,0,1-.023.268h0a.16.16,0,0,1-.193-.021,1.292,1.292,0,0,0-1.049-.368Z" transform="translate(-340.601 -314.194)"/><path class="a" d="M346,357.683a.536.536,0,0,1,.409-.183,1.452,1.452,0,0,1,.833.328.166.166,0,0,1-.023.27h0a.16.16,0,0,1-.193-.021A1.232,1.232,0,0,0,346,357.683Z" transform="translate(-337.703 -315.623)"/><path class="j" d="M365.535,230.378c.118,3.561.125,11.272.125,11.272.037.443.075,1.23.108,2.826.048,2.313.16,8.025.16,8.025a2.925,2.925,0,0,1-2.121.1s-1.411-8.031-1.7-10.321c-.253-2-.736-6.687-.736-6.687l-.667,5.951s0,1.542-.091,2.9c-.075,1.06-1.1,6.522-1.1,6.522a3.54,3.54,0,0,1-2.042-.067s-.093-8.384-.112-9.357c-.021-1.107.264-13.07.264-13.07Z" transform="translate(-346.868 -211.467)"/><path class="k" d="M367.539,252.541l-.254-2.018a7.054,7.054,0,0,1-2.294-1.053,5.467,5.467,0,0,0,1.928,1.349l.324,1.831-.366,5.841Z" transform="translate(-353.032 -228.418)"/><path class="h" d="M313.621,182.313c-.521.682-3.2,4.357-3.2,4.357l-2.473-1.916c-.578-.453-.75-1.047-1.112-1.457a8.638,8.638,0,0,0-1.166-.852c-.407-.343-.563-.6-.7-.31s.31.8.386.927.54.418-.073.386a7.842,7.842,0,0,1-2.078-.862c-.285-.129-.293.224-.158.455s.067.875.226,1.29a1.729,1.729,0,0,0,1,.948c.526.262,1.806.426,2.223.688h0c.914.937,2.637,2.685,3.073,3.009.6.445,1.18.856,2.1-.027s3.576-4.347,3.576-4.347l.549-3.295A2.3,2.3,0,0,0,313.621,182.313Z" transform="translate(-302.96 -173.393)"/><path class="l" d="M341.67,208.309a2.2,2.2,0,0,1,.725,1.066,1.735,1.735,0,0,0-.578-1.265Z" transform="translate(-334.208 -195.032)"/><path class="k" d="M350.115,180.9a4.086,4.086,0,0,0-1.831.376,8.637,8.637,0,0,0-1.882,2.284c-.8,1.157-1.182,1.712-1.182,1.712a4.268,4.268,0,0,0,2.161,1.65l2.375-2.942Z" transform="translate(-337.073 -173.067)"/><path class="c" d="M363.151,180.544c.721.069,1.735.077,2.448.15.5.2,1.452,1.037,1.38,1.631-.266,2.219-.8,5.857-.8,5.857l.177,3.856c-.993.991-5.639,1.378-8.033-.206,0,0,.077-6.925.243-8.1.295-2.1.553-2.878,1.637-3.063A19.462,19.462,0,0,1,363.151,180.544Z" transform="translate(-347.648 -172.773)"/><path class="h" d="M395.495,182.6c.521.682,3.2,4.357,3.2,4.357l2.475-1.916c.578-.455.75-1.049,1.112-1.457a8.807,8.807,0,0,1,1.166-.852c.407-.343.563-.6.7-.312s-.31.806-.386.929-.54.418.073.386a7.867,7.867,0,0,0,2.078-.864c.287-.129.291.224.158.455s-.069.877-.226,1.292a1.729,1.729,0,0,1-1,.948c-.526.262-1.806.426-2.223.688h0c-.914.935-2.637,2.685-3.073,3.007-.6.445-1.18.856-2.1-.025s-3.015-3.624-3.015-3.624l-1.11-4.018A2.3,2.3,0,0,1,395.495,182.6Z" transform="translate(-375.909 -173.627)"/><path class="l" d="M418.125,208.59a2.2,2.2,0,0,0-.725,1.066,1.735,1.735,0,0,1,.578-1.267Z" transform="translate(-395.338 -195.258)"/><path class="k" d="M391.7,181.093a3.155,3.155,0,0,1,1.745.386,9.739,9.739,0,0,1,1.882,2.284c.8,1.157,1.182,1.712,1.182,1.712a4.28,4.28,0,0,1-2.163,1.65l-1.617-1.993C391.884,184.064,391.049,182.439,391.7,181.093Z" transform="translate(-374.404 -173.22)"/><path class="i" d="M365.583,144.217A2.236,2.236,0,1,1,363.327,142a2.236,2.236,0,0,1,2.256,2.217Z" transform="translate(-349.9 -141.666)"/><path class="i" d="M388.933,161.68a19.327,19.327,0,0,1-.492,1.986.771.771,0,0,1-.441.364l.014-1.2Z" transform="translate(-371.606 -157.552)"/><path class="i" d="M389.506,149.022a.835.835,0,0,1,.7.237c.3.3.143,1.259-.22,2.2l-.682.085Z" transform="translate(-372.655 -147.329)"/><path class="h" d="M367.877,147.279c.137.081.33-.193.5-.362a.6.6,0,0,1,1,.152,1.249,1.249,0,0,1-.663,1.511c-.746.243-.864-.237-.864-.237l-.031,2.78h0c-.918,1.2-3.5,1.122-2.435-.131v-.821a4.725,4.725,0,0,1-1.006.06,1.372,1.372,0,0,1-1.074-1.1,7.989,7.989,0,0,1-.173-3.607c.231-2.063,2.628-2.105,3.929-1.3S367.877,147.279,367.877,147.279Z" transform="translate(-351.436 -143.064)"/><path class="i" d="M366.594,144.713c.067,0,.326-.436.5-.592.233-.218-.087-2.159-.087-2.159a.945.945,0,0,0-.174-1.051c-.326-.353-.781-.783-2.246-.6-1.047.133-2.182.47-3.106.027a1.567,1.567,0,0,0,.559,1.658,3.139,3.139,0,0,0,1.213.31,12.992,12.992,0,0,0,2.425-.067c.254-.037.31.208.453.881C366.252,143.71,366.362,144.711,366.594,144.713Z" transform="translate(-350.152 -140.269)"/><path class="i" d="M390.143,146.86l.823-.451a.455.455,0,0,0-.628-.2A.494.494,0,0,0,390.143,146.86Z" transform="translate(-373.292 -145.017)"/><path class="l" d="M375.25,172.6a9.427,9.427,0,0,0,1.652-.49,1.411,1.411,0,0,0,.588-.592,1.928,1.928,0,0,1-.33.694c-.31.4-1.907.713-1.907.713Z" transform="translate(-361.314 -165.496)"/><path class="i" d="M374.74,160.021a.249.249,0,0,0,.247.253.256.256,0,1,0-.247-.253Z" transform="translate(-360.902 -156.003)"/><path class="i" d="M376.132,155.679l-.547-.249a.316.316,0,0,0,.154.409.295.295,0,0,0,.393-.16Z" transform="translate(-361.564 -152.507)"/><path class="i" d="M364.386,155.15l-.476.374a.287.287,0,0,0,.416.06A.32.32,0,0,0,364.386,155.15Z" transform="translate(-352.16 -152.281)"/><path class="i" d="M364.889,159.767a.235.235,0,1,0,.233-.247.239.239,0,0,0-.233.247Z" transform="translate(-352.951 -155.809)"/><path class="l" d="M367.74,159.77l-.139,1.475-.762-.293Z" transform="translate(-354.525 -156.011)"/><path class="l" d="M373.68,169.305a.237.237,0,1,0,.237-.235.237.237,0,0,0-.237.235Z" transform="translate(-360.047 -163.518)"/></g><g transform="translate(16.059)"><path class="c" d="M389.858,88.515a4.027,4.027,0,0,1,1.053.4,3.02,3.02,0,0,1,.837.665,2.384,2.384,0,0,1,.494.9,2.121,2.121,0,0,1,.023,1.083,2.188,2.188,0,0,1-.332.792,2.588,2.588,0,0,1-.519.546,4.226,4.226,0,0,1-.619.4l-.613.324a3.359,3.359,0,0,0-.524.339.993.993,0,0,0-.328.438.457.457,0,0,1-.156.193.276.276,0,0,1-.235.048l-.9-.193a.334.334,0,0,1-.212-.147.274.274,0,0,1-.039-.245,2.149,2.149,0,0,1,.386-.771,3.034,3.034,0,0,1,.555-.536,4.345,4.345,0,0,1,.634-.386c.22-.11.424-.216.613-.32a2.678,2.678,0,0,0,.484-.328.771.771,0,0,0,.256-.424.919.919,0,0,0-.216-.825,1.654,1.654,0,0,0-.947-.515,1.593,1.593,0,0,0-1.708.681.623.623,0,0,1-.168.168.3.3,0,0,1-.233.017l-.964-.214a.26.26,0,0,1-.168-.112.245.245,0,0,1-.037-.206,1.885,1.885,0,0,1,.443-.792,2.984,2.984,0,0,1,.827-.64,3.553,3.553,0,0,1,1.089-.362,3.165,3.165,0,0,1,1.224.025Zm-1.018,6.851a.314.314,0,0,1,.2.147.318.318,0,0,1,.044.247l-.231,1.045a.33.33,0,0,1-.386.249l-1.022-.226a.318.318,0,0,1-.2-.145.312.312,0,0,1-.044-.247l.231-1.047a.33.33,0,0,1,.386-.249Z" transform="translate(-386.265 -88.442)"/><path class="c" d="M412.846,139.66a2.7,2.7,0,0,1,.771-.015,2.084,2.084,0,0,1,.707.212,1.646,1.646,0,0,1,.544.447,1.446,1.446,0,0,1,.291.688,1.475,1.475,0,0,1,0,.592,1.775,1.775,0,0,1-.193.484,3.012,3.012,0,0,1-.293.413l-.31.366a2.512,2.512,0,0,0-.251.351.69.69,0,0,0-.1.364.318.318,0,0,1-.05.17.193.193,0,0,1-.137.091l-.63.1a.237.237,0,0,1-.173-.04.193.193,0,0,1-.087-.147,1.434,1.434,0,0,1,.044-.59,1.959,1.959,0,0,1,.218-.488,3,3,0,0,1,.307-.411c.114-.127.216-.247.312-.362a1.884,1.884,0,0,0,.226-.334.532.532,0,0,0,.056-.337.634.634,0,0,0-.351-.474,1.13,1.13,0,0,0-.736-.089,1.1,1.1,0,0,0-.921.873.452.452,0,0,1-.066.152.214.214,0,0,1-.145.069l-.671.11a.193.193,0,0,1-.137-.029.171.171,0,0,1-.077-.123,1.3,1.3,0,0,1,.083-.621,2.02,2.02,0,0,1,.366-.623,2.466,2.466,0,0,1,.605-.511A2.194,2.194,0,0,1,412.846,139.66Zm1.1,4.663a.227.227,0,0,1,.26.187l.12.729a.224.224,0,0,1-.04.17.216.216,0,0,1-.147.091l-.713.118a.222.222,0,0,1-.168-.04.216.216,0,0,1-.093-.146l-.12-.731a.229.229,0,0,1,.193-.26Z" transform="translate(-406.223 -129.757)"/><g class="m" transform="translate(4.766 9.867)"><path d="M412.846,139.66a2.7,2.7,0,0,1,.771-.015,2.084,2.084,0,0,1,.707.212,1.646,1.646,0,0,1,.544.447,1.446,1.446,0,0,1,.291.688,1.475,1.475,0,0,1,0,.592,1.775,1.775,0,0,1-.193.484,3.012,3.012,0,0,1-.293.413l-.31.366a2.512,2.512,0,0,0-.251.351.69.69,0,0,0-.1.364.318.318,0,0,1-.05.17.193.193,0,0,1-.137.091l-.63.1a.237.237,0,0,1-.173-.04.193.193,0,0,1-.087-.147,1.434,1.434,0,0,1,.044-.59,1.959,1.959,0,0,1,.218-.488,3,3,0,0,1,.307-.411c.114-.127.216-.247.312-.362a1.884,1.884,0,0,0,.226-.334.532.532,0,0,0,.056-.337.634.634,0,0,0-.351-.474,1.13,1.13,0,0,0-.736-.089,1.1,1.1,0,0,0-.921.873.452.452,0,0,1-.066.152.214.214,0,0,1-.145.069l-.671.11a.193.193,0,0,1-.137-.029.171.171,0,0,1-.077-.123,1.3,1.3,0,0,1,.083-.621,2.02,2.02,0,0,1,.366-.623,2.466,2.466,0,0,1,.605-.511A2.194,2.194,0,0,1,412.846,139.66Zm1.1,4.663a.227.227,0,0,1,.26.187l.12.729a.224.224,0,0,1-.04.17.216.216,0,0,1-.147.091l-.713.118a.222.222,0,0,1-.168-.04.216.216,0,0,1-.093-.146l-.12-.731a.229.229,0,0,1,.193-.26Z" transform="translate(-410.989 -139.624)"/></g><path class="c" d="M447.9,128.212a.272.272,0,0,1,.064.374l-.509.713a.272.272,0,0,1-.374.064l-.7-.5a.26.26,0,0,1-.108-.174.27.27,0,0,1,.044-.193l.509-.715a.268.268,0,0,1,.173-.108.264.264,0,0,1,.193.046Zm2.946-4.837a3.2,3.2,0,0,1,.667.632,2.478,2.478,0,0,1,.418.771,1.957,1.957,0,0,1,.087.831,1.735,1.735,0,0,1-.328.823,1.8,1.8,0,0,1-.5.492,2.1,2.1,0,0,1-.567.245,3.47,3.47,0,0,1-.592.1l-.567.048a3.048,3.048,0,0,0-.5.089.825.825,0,0,0-.386.227.407.407,0,0,1-.181.1.231.231,0,0,1-.193-.04l-.617-.438a.28.28,0,0,1-.112-.177.224.224,0,0,1,.048-.193,1.735,1.735,0,0,1,.53-.461,2.375,2.375,0,0,1,.59-.227,3.606,3.606,0,0,1,.6-.093c.193-.012.386-.027.563-.044a2.121,2.121,0,0,0,.468-.094.623.623,0,0,0,.328-.237.746.746,0,0,0,.1-.69,1.349,1.349,0,0,0-.547-.688,1.3,1.3,0,0,0-1.5-.033.54.54,0,0,1-.179.073.251.251,0,0,1-.183-.062l-.655-.467a.222.222,0,0,1-.093-.139.2.2,0,0,1,.04-.166,1.528,1.528,0,0,1,.578-.457,2.446,2.446,0,0,1,.827-.218,2.951,2.951,0,0,1,.935.073,2.568,2.568,0,0,1,.923.413Z" transform="translate(-434.706 -116.24)"/><g class="n" transform="translate(11.568 6.639)"><path class="e" d="M447.9,128.212a.272.272,0,0,1,.064.374l-.509.713a.272.272,0,0,1-.374.064l-.7-.5a.26.26,0,0,1-.108-.174.27.27,0,0,1,.044-.193l.509-.715a.268.268,0,0,1,.173-.108.264.264,0,0,1,.193.046Zm2.946-4.837a3.2,3.2,0,0,1,.667.632,2.478,2.478,0,0,1,.418.771,1.957,1.957,0,0,1,.087.831,1.735,1.735,0,0,1-.328.823,1.8,1.8,0,0,1-.5.492,2.1,2.1,0,0,1-.567.245,3.47,3.47,0,0,1-.592.1l-.567.048a3.048,3.048,0,0,0-.5.089.825.825,0,0,0-.386.227.407.407,0,0,1-.181.1.231.231,0,0,1-.193-.04l-.617-.438a.28.28,0,0,1-.112-.177.224.224,0,0,1,.048-.193,1.735,1.735,0,0,1,.53-.461,2.375,2.375,0,0,1,.59-.227,3.606,3.606,0,0,1,.6-.093c.193-.012.386-.027.563-.044a2.121,2.121,0,0,0,.468-.094.623.623,0,0,0,.328-.237.746.746,0,0,0,.1-.69,1.349,1.349,0,0,0-.547-.688,1.3,1.3,0,0,0-1.5-.033.54.54,0,0,1-.179.073.251.251,0,0,1-.183-.062l-.655-.467a.222.222,0,0,1-.093-.139.2.2,0,0,1,.04-.166,1.528,1.528,0,0,1,.578-.457,2.446,2.446,0,0,1,.827-.218,2.951,2.951,0,0,1,.935.073,2.568,2.568,0,0,1,.923.413Z" transform="translate(-446.274 -122.879)"/></g></g></g><g transform="translate(26.748 40.709)"><g transform="translate(3.963 10.581)"><path class="o" d="M122.616,322.431c-.019-.578.4-6.231.4-6.231l-2.753,2a43.8,43.8,0,0,1,.7,4.717h0a.511.511,0,0,0-.015.141c0,.655.742,1.008,1.319,1.446a10.92,10.92,0,0,0,1.56,1.018c.418.21,1.27.229,1.375-.04a20.043,20.043,0,0,1-2.281-1.949C122.647,323.236,122.637,323.005,122.616,322.431Z" transform="translate(-109.295 -283.227)"/><path class="i" d="M127.816,361.776a.513.513,0,0,1-.118.526,2.36,2.36,0,0,1-1.75.416,3.072,3.072,0,0,1-1.7-.655,3.637,3.637,0,0,0-1.238-.792,2.386,2.386,0,0,1-.883-.362c-.118-.114-.1-.619-.1-.619Z" transform="translate(-110.721 -318.817)"/><path class="j" d="M122.4,350.2a.139.139,0,0,0-.133.118c-.027.139-.056.544-.114.771a4.116,4.116,0,0,0-.085,1.226c.048.26.646.44,1.029.578a4.848,4.848,0,0,1,1.241.783,3.5,3.5,0,0,0,1.845.688,2.145,2.145,0,0,0,1.61-.536c.214-.386.046-.611-.954-1.076-.193-.087-.854-.482-1.081-.625a3.72,3.72,0,0,1-1.5-1.606.385.385,0,0,0-.143-.208.32.32,0,0,0-.193-.019,1.68,1.68,0,0,0-.482.147c-.133.064-.324.139-.322.31a.6.6,0,0,0,.039.173c.012.037.021.083,0,.1s-.067,0-.094-.027a2.543,2.543,0,0,1-.268-.324,1.045,1.045,0,0,0-.16-.16,1.52,1.52,0,0,1-.17-.112C122.384,350.354,122.4,350.281,122.4,350.2Z" transform="translate(-110.74 -310.672)"/><path class="k" d="M131.616,363.969c-.175-.143-.361-.283-.546-.407h0s1.176.715,1.65.386a.424.424,0,0,0,.154-.544,2.635,2.635,0,0,1,1.045-.465h0c.083.046.152.083.193.1,1,.465,1.168.688.954,1.076-.175.312-.725.557-1.6.557A3.54,3.54,0,0,1,131.616,363.969Z" transform="translate(-118.021 -320.956)"/><path class="i" d="M126.221,352.871c.623.249.357.364.183.386a6.573,6.573,0,0,1-1.86-1.091c-.64-.513-1.085-1.1-1.332-1.3-.093-.071-.193-.16-.281-.243.017-.137.031-.262.042-.328a.139.139,0,0,1,.133-.118c0,.081-.012.156.05.216a1.515,1.515,0,0,0,.17.112,1.048,1.048,0,0,1,.16.16,2.543,2.543,0,0,0,.268.324,8.1,8.1,0,0,0,2.468,1.88Z" transform="translate(-111.45 -310.656)"/><path class="a" d="M140.462,363.374a.062.062,0,0,1-.039-.015.06.06,0,0,1-.01-.085,1.479,1.479,0,0,1,1.139-.451.064.064,0,0,1,.056.069.062.062,0,0,1-.067.054,1.373,1.373,0,0,0-1.031.4A.064.064,0,0,1,140.462,363.374Z" transform="translate(-125.553 -320.86)"/><path class="a" d="M137.669,361.692a.06.06,0,0,1-.04-.013.064.064,0,0,1,0-.087,1.483,1.483,0,0,1,1.139-.449.062.062,0,1,1-.014.123,1.365,1.365,0,0,0-1.031.4A.062.062,0,0,1,137.669,361.692Z" transform="translate(-123.301 -319.504)"/><path class="a" d="M134.854,360a.06.06,0,0,1-.039-.013.062.062,0,0,1,0-.087,1.484,1.484,0,0,1,1.139-.449.062.062,0,1,1-.012.123,1.365,1.365,0,0,0-1.031.4A.066.066,0,0,1,134.854,360Z" transform="translate(-121.03 -318.139)"/><path class="a" d="M132.24,358.131a.058.058,0,0,1-.039-.1,1.479,1.479,0,0,1,1.139-.449.061.061,0,1,1-.014.121,1.378,1.378,0,0,0-1.031.4A.062.062,0,0,1,132.24,358.131Z" transform="translate(-118.919 -316.629)"/><path class="a" d="M129.694,356.211a.071.071,0,0,1-.039-.013.062.062,0,0,1,0-.087,1.507,1.507,0,0,1,1.243-.455.058.058,0,0,1,.054.067.062.062,0,0,1-.067.054,1.4,1.4,0,0,0-1.134.409A.065.065,0,0,1,129.694,356.211Z" transform="translate(-116.864 -315.07)"/><path class="o" d="M93.948,329.34l-2.778-.05c.04,1.855.335,3.911.386,5.65,0,.328,0,2.545.116,3.219.193,1.012,1.388.875,1.452.27s-.077-3.194-.073-3.47c-.012-1.114.511-3,.787-5C93.848,329.868,93.934,329.436,93.948,329.34Z" transform="translate(-85.813 -293.793)"/><path class="i" d="M93.361,377.362a2.774,2.774,0,0,1-.193,1.365.875.875,0,0,1-.964.455,1.336,1.336,0,0,1-1.118-.771A3.262,3.262,0,0,1,90.924,377Z" transform="translate(-85.6 -332.306)"/><path class="j" d="M91.417,357.5c-.164.029-.133.829-.148,1.633-.017.864-.235,1.241-.256,1.949A2.2,2.2,0,0,0,91.4,362.7c.332.459,1.367.829,1.785.089a2.986,2.986,0,0,0,.177-2.024c-.118-.794-.21-1.4-.241-2.024s-.044-1.186-.193-1.238v.289c0,.087.013.386-.079.4a1.442,1.442,0,0,1-.025-.226.274.274,0,0,0-.064-.193.316.316,0,0,0-.193-.062,4.3,4.3,0,0,0-.5-.027,1.526,1.526,0,0,0-.249.013.625.625,0,0,0-.206.052.15.15,0,0,0-.083.089.249.249,0,0,0,0,.093.68.68,0,0,1,0,.166c0,.025-.017.056-.042.052s-.029-.027-.031-.046c-.012-.1,0-.168-.012-.28v-.175C91.446,357.6,91.419,357.552,91.417,357.5Z" transform="translate(-85.682 -316.565)"/><path class="k" d="M90.965,374.8c0,.118-.025.891.193,1.006s.3-.486.3-.486a2.022,2.022,0,0,1,1.313.044c-.027.127.131.524.334.416s.193-.989.193-1a2.856,2.856,0,0,1-.193,1.955c-.418.74-1.457.366-1.785-.089a2.23,2.23,0,0,1-.386-1.616C90.946,374.95,90.96,374.875,90.965,374.8Z" transform="translate(-85.622 -330.514)"/><path class="i" d="M92.594,361.383c.025.289-.268.222-.322-.193s.073-1.4,0-2.1c.015-.8-.015-1.6.148-1.633a.146.146,0,0,0,0,.029l.019.407a1.322,1.322,0,0,0,0,.173c.054.59.087,1.735.089,2.279A9.715,9.715,0,0,0,92.594,361.383Z" transform="translate(-86.691 -316.533)"/><path class="i" d="M100,361.415a9.21,9.21,0,0,0,.056-1.028c0-.54.035-1.671.089-2.265a1.484,1.484,0,0,0,.025-.333V357.5c.108.04.147.359.17.76,0,.233,0,.522-.021.873-.073.7.054,1.7,0,2.1S99.977,361.7,100,361.415Z" transform="translate(-92.936 -316.565)"/><path class="a" d="M94.765,376.937h-.021a1.97,1.97,0,0,0-1.286,0,.062.062,0,0,1-.044-.116,2.043,2.043,0,0,1,1.375,0,.06.06,0,0,1-.023.116Z" transform="translate(-87.591 -332.066)"/><path class="a" d="M94.544,373.621a.044.044,0,0,1-.021,0,2.425,2.425,0,0,0-1.438,0,.062.062,0,0,1-.079-.039.06.06,0,0,1,.039-.077,2.506,2.506,0,0,1,1.521,0,.062.062,0,0,1-.021.12Z" transform="translate(-87.292 -329.389)"/><path class="a" d="M93.044,370.356a.064.064,0,0,1-.056-.037.062.062,0,0,1,.031-.081,2.107,2.107,0,0,1,1.517-.01.06.06,0,0,1,.035.079.062.062,0,0,1-.079.035,2.058,2.058,0,0,0-1.421,0,.067.067,0,0,1-.027.013Z" transform="translate(-87.276 -326.729)"/><path class="a" d="M92.973,367.317a.061.061,0,0,1-.027-.116,1.907,1.907,0,0,1,1.542-.017.061.061,0,1,1-.052.11,1.831,1.831,0,0,0-1.442.017A.068.068,0,0,1,92.973,367.317Z" transform="translate(-87.218 -324.257)"/><path class="a" d="M92.9,364.049a.062.062,0,0,1-.027-.118,1.99,1.99,0,0,1,1.56,0,.058.058,0,0,1,.031.081.062.062,0,0,1-.081.031,1.909,1.909,0,0,0-1.454,0A.054.054,0,0,1,92.9,364.049Z" transform="translate(-87.157 -321.623)"/><path class="j" d="M91.645,236c-.979,2.712-.808,4.415-.64,7.258.154,2.606.4,4.9.4,4.9a12.133,12.133,0,0,0-.771,3.408,33.476,33.476,0,0,0,.193,4.309,3.622,3.622,0,0,0,2.365,0s1.108-4.895,1.411-7.287c.262-2.088.721-4.756.721-4.756l.964,4.746A7.013,7.013,0,0,0,96,250.545c0,1.116.519,4.22.519,4.22a2.669,2.669,0,0,0,2.346-.343s.36-4.467.488-6.169a68.427,68.427,0,0,0-.623-11.682Z" transform="translate(-85.374 -218.488)"/><path class="k" d="M115.05,257.445l.4-3.57a5.789,5.789,0,0,0,2.608-1,2.944,2.944,0,0,1-2.121,1.336l-.578,3.324.655,4.661Z" transform="translate(-105.089 -232.105)"/><path class="o" d="M124.081,192.29c-.873-.9-2.45-2.93-2.45-2.93l-.891-3.084a5.757,5.757,0,0,0,.6,0,2.091,2.091,0,0,1,1.847.8c.476.522,2.292,3,2.923,3.836l1.675-2.134a7.548,7.548,0,0,0,.546-1.783,8.318,8.318,0,0,1,.815-1.157c.27-.443.333-.74.555-.511s-.035.846-.067.987-.372.559.193.341a7.4,7.4,0,0,0,1.66-1.459c.224-.21.343.116.293.374s.193.841.1,1.267a1.735,1.735,0,0,1-.6,1.1,15.91,15.91,0,0,0-1.791,1.45c-.389.538-1.22,2.209-1.735,3.216-.646,1.28-1.2,1.7-1.928,1.27A9.061,9.061,0,0,1,124.081,192.29Z" transform="translate(-109.682 -177.425)"/><path class="k" d="M121.1,190.834a3.2,3.2,0,0,1,1.454.193,4.1,4.1,0,0,1,1.388,1.425c.511.684,1.423,1.882,1.423,1.882a3.631,3.631,0,0,1-1.874,1.972l-2.656-2.736Z" transform="translate(-109.755 -182.016)"/><path class="p" d="M145.927,214.321a2.036,2.036,0,0,0-.607,1.124,1.412,1.412,0,0,1,.465-1.315Z" transform="translate(-129.502 -200.834)"/><path class="c" d="M99.8,196.369a2.332,2.332,0,0,0,.362-3.1c-.866-1.71-1.766-2.383-2.142-2.377l-2.358.023c-1.126.154-2,.077-2.269.141-.694.164-.709.734-.736,1.473-.029.81-.443.673-.233,2.011a13.81,13.81,0,0,1,.652,1.533,3.658,3.658,0,0,1,.295,1.947c-.073.289-.27.578-.565,1.371a14.926,14.926,0,0,0-.742,2.749,3.309,3.309,0,0,0,1.471-.993,4.223,4.223,0,0,0,3.644,1.288c2.67-.15,2.905-1.542,2.905-1.542l-.409-2.506C99.733,197.371,99.76,197,99.8,196.369Z" transform="translate(-86.531 -182.074)"/><path class="f" d="M109.939,214.028a2.42,2.42,0,0,1-2.1.4,1.928,1.928,0,0,1-1.309-1.349,1.693,1.693,0,0,0,1.326,1.695A1.851,1.851,0,0,0,109.939,214.028Z" transform="translate(-98.214 -199.986)"/><path class="k" d="M82.569,185.1c-.349-.254-2.229,2.261-1.349,2.892s1.816-1.157,1.627-2S82.569,185.1,82.569,185.1Z" transform="translate(-77.593 -177.389)"/><path class="o" d="M66.649,151.624c.47-.652.79-1.143,1.22-1.7.243-.318.4-.544.632-.869.162-.224.256-.413.438-.484a1.542,1.542,0,0,0,.53-.386,3.14,3.14,0,0,0,.249-.33,4.819,4.819,0,0,1,.964-.995c.386-.3.808-.53,1.2-.815.233-.17.484-.449.193-.7a.692.692,0,0,0-.312-.143,4.2,4.2,0,0,0-1.991.3,5.956,5.956,0,0,0-.868.31,1.491,1.491,0,0,0-.386.229,1.991,1.991,0,0,0-.386.578,7.275,7.275,0,0,1-1.371,1.469c-.519.505-.981.964-1.573,1.525-.532.5-1.054.964-1.542,1.511a.771.771,0,0,0-.193.916,4.319,4.319,0,0,0,1.18,1.349c.15.139.3.276.455.413.59.532,1.18,1.029,1.793,1.542.655.54.925.8,1.509,1.326a4.335,4.335,0,0,1,.908,1.182c1.012.168,2.007-1.38,1.139-3.19a1.893,1.893,0,0,0-.627-.729C68.745,153.168,66.649,151.624,66.649,151.624Z" transform="translate(-63.38 -145.158)"/><path class="p" d="M75.222,178.7a2.664,2.664,0,0,1-1.222.869s.646.154,1.513-.654Z" transform="translate(-71.953 -172.234)"/><path class="j" d="M85.536,186.429c-.237-.164-.814-.513-1.964-1.249a2.025,2.025,0,0,1-.1,1.307,2.253,2.253,0,0,1-1.24,1.594s.644.509,1.238,1.083a6.366,6.366,0,0,1,1.425,1.648s.848-.218,1.041-1.656A3.991,3.991,0,0,0,85.536,186.429Z" transform="translate(-78.596 -177.465)"/><path class="i" d="M101.621,151.793a2.313,2.313,0,0,0-.156-2.257,3.877,3.877,0,0,0-3.324-1.527h-.422a3.656,3.656,0,0,0-3.539,3.383h0a5.014,5.014,0,0,0,.688,3.256,3.736,3.736,0,0,0,2.458,1.18c1.6.243,3.389.058,4.114-1.029,0,0-.964.193-.842-.806.017-.158-.133-.332-.4-.511a5.353,5.353,0,0,1,.65-.9C101.122,152.313,101.436,152.161,101.621,151.793Z" transform="translate(-88.242 -147.459)"/><path class="o" d="M104.917,161.513c-.01,1.86-.605,2.329-.9,2.468a3.2,3.2,0,0,1-1.454-.017l.019,1.116s.665.673.627,1.186-1.018.578-1.76.1a5.506,5.506,0,0,1-1.1-.964.4.4,0,0,1-.1-.256l-.046-2.624s-.3.333-.86-.033a1.014,1.014,0,0,1-.287-1.467.748.748,0,0,1,1.141.118c.17.316.154.54.386.5s.241-.287.256-.467,0-.237.023-.472a1.89,1.89,0,0,0,1.182-1.442,2.631,2.631,0,0,0,1.2.27,1.361,1.361,0,0,0,1.236-.609,1.35,1.35,0,0,1,.172.33,4.288,4.288,0,0,1,.193.731A9.412,9.412,0,0,1,104.917,161.513Z" transform="translate(-92.015 -156.267)"/><path class="p" d="M109.556,181.383c-.6-.069-1.835-.4-2.036-.883a1.261,1.261,0,0,0,.441.613,6.5,6.5,0,0,0,1.6.642Z" transform="translate(-99.011 -173.687)"/><path class="h" d="M119.16,178.879a.245.245,0,1,1-.249-.239A.245.245,0,0,1,119.16,178.879Z" transform="translate(-108.011 -172.185)"/><path class="i" d="M117.355,169.345a.26.26,0,0,1-.237.283.266.266,0,1,1,.237-.283Z" transform="translate(-106.521 -164.483)"/><path class="i" d="M126.641,168.857a.239.239,0,0,1-.218.256.222.222,0,0,1-.249-.226.235.235,0,0,1,.216-.258A.241.241,0,0,1,126.641,168.857Z" transform="translate(-114.068 -164.104)"/><path class="p" d="M122.37,168.56l.185,1.554.8-.332Z" transform="translate(-110.998 -164.049)"/><path class="i" d="M114.76,165.06l.463-.44a.335.335,0,0,1-.013.463.31.31,0,0,1-.449-.023Z" transform="translate(-104.855 -160.868)"/><path class="i" d="M126.523,163.88l.513.386a.308.308,0,0,1-.443.071A.339.339,0,0,1,126.523,163.88Z" transform="translate(-114.303 -160.271)"/></g><g transform="translate(0 0)"><path class="c" d="M77.467,90.34a3.919,3.919,0,0,1,1.122-.05,3,3,0,0,1,1.031.281,2.373,2.373,0,0,1,.806.628,2.121,2.121,0,0,1,.447.985,2.153,2.153,0,0,1,0,.86,2.537,2.537,0,0,1-.262.706,4.11,4.11,0,0,1-.411.609c-.154.193-.3.37-.438.542a3.47,3.47,0,0,0-.347.517,1,1,0,0,0-.129.532.486.486,0,0,1-.064.247.28.28,0,0,1-.193.137l-.908.172a.328.328,0,0,1-.251-.052.266.266,0,0,1-.133-.21,2.12,2.12,0,0,1,.042-.856,3,3,0,0,1,.3-.711,4.242,4.242,0,0,1,.43-.6c.16-.193.3-.366.438-.536a2.794,2.794,0,0,0,.316-.492.771.771,0,0,0,.067-.49.914.914,0,0,0-.522-.675,1.654,1.654,0,0,0-1.072-.1,1.6,1.6,0,0,0-1.3,1.3.7.7,0,0,1-.089.22.316.316,0,0,1-.21.108l-.964.183a.276.276,0,0,1-.193-.037.26.26,0,0,1-.114-.177,1.889,1.889,0,0,1,.1-.9,2.98,2.98,0,0,1,.494-.92,3.634,3.634,0,0,1,.86-.771A3.2,3.2,0,0,1,77.467,90.34Zm1.76,6.7a.335.335,0,0,1,.386.262l.193,1.053a.31.31,0,0,1-.052.245.322.322,0,0,1-.208.139l-1.028.193a.314.314,0,0,1-.247-.052.322.322,0,0,1-.139-.208l-.193-1.053a.318.318,0,0,1,.054-.245.308.308,0,0,1,.208-.139Z" transform="translate(-68.675 -90.27)"/><path class="c" d="M125.185,111.951a2.682,2.682,0,0,1,.617.47,2.022,2.022,0,0,1,.422.605,1.656,1.656,0,0,1,.148.688,1.45,1.45,0,0,1-.193.721,1.542,1.542,0,0,1-.376.459,1.8,1.8,0,0,1-.453.256,2.892,2.892,0,0,1-.488.143l-.47.093a2.234,2.234,0,0,0-.413.121.679.679,0,0,0-.3.224.328.328,0,0,1-.145.1.193.193,0,0,1-.164-.014l-.557-.312a.233.233,0,0,1-.112-.139.193.193,0,0,1,.023-.17,1.457,1.457,0,0,1,.4-.434,2.063,2.063,0,0,1,.474-.247,3.085,3.085,0,0,1,.5-.131c.168-.029.324-.058.47-.089a2.041,2.041,0,0,0,.386-.121.548.548,0,0,0,.254-.229.636.636,0,0,0,.019-.59,1.137,1.137,0,0,0-.522-.528,1.1,1.1,0,0,0-1.265.112.455.455,0,0,1-.145.079.218.218,0,0,1-.158-.035l-.594-.332a.193.193,0,0,1-.089-.108.177.177,0,0,1,.017-.145,1.317,1.317,0,0,1,.449-.436,2.047,2.047,0,0,1,.675-.258,2.458,2.458,0,0,1,.792-.025A2.207,2.207,0,0,1,125.185,111.951Zm-2.032,4.328a.226.226,0,0,1,.108.137.22.22,0,0,1-.019.172l-.36.646a.227.227,0,0,1-.308.089l-.63-.353a.206.206,0,0,1-.106-.137.214.214,0,0,1,.017-.172l.36-.646a.224.224,0,0,1,.137-.106.212.212,0,0,1,.172.019Z" transform="translate(-106.595 -107.538)"/><g class="m" transform="translate(15.23 4.124)"><path d="M125.185,111.951a2.682,2.682,0,0,1,.617.47,2.022,2.022,0,0,1,.422.605,1.656,1.656,0,0,1,.148.688,1.45,1.45,0,0,1-.193.721,1.542,1.542,0,0,1-.376.459,1.8,1.8,0,0,1-.453.256,2.892,2.892,0,0,1-.488.143l-.47.093a2.234,2.234,0,0,0-.413.121.679.679,0,0,0-.3.224.328.328,0,0,1-.145.1.193.193,0,0,1-.164-.014l-.557-.312a.233.233,0,0,1-.112-.139.193.193,0,0,1,.023-.17,1.457,1.457,0,0,1,.4-.434,2.063,2.063,0,0,1,.474-.247,3.085,3.085,0,0,1,.5-.131c.168-.029.324-.058.47-.089a2.041,2.041,0,0,0,.386-.121.548.548,0,0,0,.254-.229.636.636,0,0,0,.019-.59,1.137,1.137,0,0,0-.522-.528,1.1,1.1,0,0,0-1.265.112.455.455,0,0,1-.145.079.218.218,0,0,1-.158-.035l-.594-.332a.193.193,0,0,1-.089-.108.177.177,0,0,1,.017-.145,1.317,1.317,0,0,1,.449-.436,2.047,2.047,0,0,1,.675-.258,2.458,2.458,0,0,1,.792-.025A2.207,2.207,0,0,1,125.185,111.951Zm-2.032,4.328a.226.226,0,0,1,.108.137.22.22,0,0,1-.019.172l-.36.646a.227.227,0,0,1-.308.089l-.63-.353a.206.206,0,0,1-.106-.137.214.214,0,0,1,.017-.172l.36-.646a.224.224,0,0,1,.137-.106.212.212,0,0,1,.172.019Z" transform="translate(-121.826 -111.662)"/></g><path class="c" d="M47.831,130.311a.262.262,0,0,1,.193-.071.27.27,0,0,1,.193.085l.594.644a.272.272,0,0,1-.015.386l-.628.578a.272.272,0,0,1-.386-.015l-.594-.644a.27.27,0,0,1,.015-.386Zm-4.125-3.884a3.225,3.225,0,0,1,.756-.526,2.481,2.481,0,0,1,.837-.251,1.987,1.987,0,0,1,.831.085,1.735,1.735,0,0,1,.738.492,1.778,1.778,0,0,1,.386.592,2.089,2.089,0,0,1,.123.6,3.47,3.47,0,0,1-.019.6c-.025.193-.048.386-.069.565a2.857,2.857,0,0,0-.017.509.81.81,0,0,0,.143.426.385.385,0,0,1,.062.193.222.222,0,0,1-.077.179l-.555.515a.276.276,0,0,1-.193.071.22.22,0,0,1-.183-.087,1.768,1.768,0,0,1-.343-.613,2.425,2.425,0,0,1-.1-.623,3.534,3.534,0,0,1,.035-.609c.029-.193.052-.386.071-.559a2.23,2.23,0,0,0,0-.48.626.626,0,0,0-.164-.368.75.75,0,0,0-.655-.241,1.363,1.363,0,0,0-.787.386,1.315,1.315,0,0,0-.341,1.467.557.557,0,0,1,.035.193.249.249,0,0,1-.1.164l-.592.547a.22.22,0,0,1-.154.062.206.206,0,0,1-.154-.073,1.523,1.523,0,0,1-.334-.661,2.417,2.417,0,0,1-.044-.854,2.922,2.922,0,0,1,.266-.9,2.587,2.587,0,0,1,.6-.8Z" transform="translate(-42.821 -118.82)"/><g class="n" transform="translate(0 6.818)"><path class="e" d="M47.831,130.311a.262.262,0,0,1,.193-.071.27.27,0,0,1,.193.085l.594.644a.272.272,0,0,1-.015.386l-.628.578a.272.272,0,0,1-.386-.015l-.594-.644a.27.27,0,0,1,.015-.386Zm-4.125-3.884a3.225,3.225,0,0,1,.756-.526,2.481,2.481,0,0,1,.837-.251,1.987,1.987,0,0,1,.831.085,1.735,1.735,0,0,1,.738.492,1.778,1.778,0,0,1,.386.592,2.089,2.089,0,0,1,.123.6,3.47,3.47,0,0,1-.019.6c-.025.193-.048.386-.069.565a2.857,2.857,0,0,0-.017.509.81.81,0,0,0,.143.426.385.385,0,0,1,.062.193.222.222,0,0,1-.077.179l-.555.515a.276.276,0,0,1-.193.071.22.22,0,0,1-.183-.087,1.768,1.768,0,0,1-.343-.613,2.425,2.425,0,0,1-.1-.623,3.534,3.534,0,0,1,.035-.609c.029-.193.052-.386.071-.559a2.23,2.23,0,0,0,0-.48.626.626,0,0,0-.164-.368.75.75,0,0,0-.655-.241,1.363,1.363,0,0,0-.787.386,1.315,1.315,0,0,0-.341,1.467.557.557,0,0,1,.035.193.249.249,0,0,1-.1.164l-.592.547a.22.22,0,0,1-.154.062.206.206,0,0,1-.154-.073,1.523,1.523,0,0,1-.334-.661,2.417,2.417,0,0,1-.044-.854,2.922,2.922,0,0,1,.266-.9,2.587,2.587,0,0,1,.6-.8Z" transform="translate(-42.821 -125.638)"/></g></g></g><g transform="translate(55.576 28.873)"><g transform="translate(0 0)"><path class="c" d="M231.732,209.211c-.549-.314-2.863-1.652-3.649-2.107-.156-.089-.254-.147-.262-.152a1.847,1.847,0,0,0-1.286-.193,3.352,3.352,0,0,0-1.064.414c-.054.031-.108.067-.16.1a6.723,6.723,0,0,0-2.288,2.658,8.241,8.241,0,0,0-1.012,3.856,3.169,3.169,0,0,0,1.022,2.689,2.061,2.061,0,0,0,.216.141c.638.362,3.838,2.217,3.91,2.257h.017a1.8,1.8,0,0,1-.226-.146,3.156,3.156,0,0,1-1.022-2.687,8.241,8.241,0,0,1,1.012-3.856,6.6,6.6,0,0,1,2.446-2.763,2.253,2.253,0,0,1,2.363-.206Z" transform="translate(-216.294 -172.433)"/><path class="q" d="M236.584,209.2a2.272,2.272,0,0,0-2.363.2,6.362,6.362,0,0,0-2.3,2.506L228,209.637a6.484,6.484,0,0,1,2.144-2.4c.052-.033.106-.071.16-.1a3.3,3.3,0,0,1,1.064-.413,1.835,1.835,0,0,1,1.286.193l.262.152c.787.453,3.1,1.791,3.649,2.105Z" transform="translate(-221.129 -172.406)"/><path class="d" d="M227.175,231.215h-.017c-.071-.04-3.277-1.9-3.91-2.257a2.059,2.059,0,0,1-.216-.141,3.164,3.164,0,0,1-1.022-2.687,8.23,8.23,0,0,1,1.012-3.856c.046-.091.094-.179.145-.264l3.915,2.261c-.048.085-.1.173-.143.262a8.241,8.241,0,0,0-1.012,3.856,3.164,3.164,0,0,0,1.022,2.687A1.8,1.8,0,0,0,227.175,231.215Z" transform="translate(-216.294 -184.777)"/><path class="c" d="M206.088,32.588a8.114,8.114,0,0,1,4.854-1.4,4.048,4.048,0,0,1,1.542.513l-.039-.023c-.459-.258-3.223-1.853-3.856-2.225a4.031,4.031,0,0,0-1.573-.524,8.141,8.141,0,0,0-4.856,1.4,18.794,18.794,0,0,0-7.133,7.518,20.71,20.71,0,0,0-2.67,10.127l3.915,2.261a20.54,20.54,0,0,1,2.67-10.129A18.874,18.874,0,0,1,206.088,32.588Z" transform="translate(-192.358 -28.891)"/><path class="r" d="M222.723,31.66a4.127,4.127,0,0,0-1.511-.492,8.119,8.119,0,0,0-4.854,1.4,18.777,18.777,0,0,0-7.133,7.518c-.075.137-.148.276-.22.413l-3.925-2.265c.071-.137.145-.276.22-.413a18.931,18.931,0,0,1,7.133-7.518,8.131,8.131,0,0,1,4.856-1.4,4.033,4.033,0,0,1,1.573.526C219.5,29.808,222.264,31.4,222.723,31.66Z" transform="translate(-202.628 -28.873)"/><path class="d" d="M198.733,79.7a20.391,20.391,0,0,0-2.45,9.714l-3.915-2.261a20.414,20.414,0,0,1,2.45-9.714Z" transform="translate(-192.366 -68.077)"/><path class="c" d="M235.187,80.437q-1.066-.567-2.847.443a7.1,7.1,0,0,1-.432,2.067,44.623,44.623,0,0,1-2.591,4.947,32.96,32.96,0,0,0-3.216,7.4,26.245,26.245,0,0,0-.991,7.133l.019,1.2,2.672,1.542,1.245.719-.021-1.2v-.015a26.335,26.335,0,0,1,.991-7.11,32.874,32.874,0,0,1,3.217-7.4,44.564,44.564,0,0,0,2.589-4.949,7.04,7.04,0,0,0,.447-2.475A2.362,2.362,0,0,0,235.187,80.437Z" transform="translate(-218.796 -70.332)"/><path class="d" d="M235.439,101.164q-.663,1.38-2.205,4.075a32.8,32.8,0,0,0-3.217,7.4,26.322,26.322,0,0,0-.991,7.115v.031l.021,1.2-1.245-.717-2.672-1.542-.019-1.2a26.256,26.256,0,0,1,.991-7.133,32.958,32.958,0,0,1,3.216-7.4q1.542-2.7,2.209-4.073Z" transform="translate(-218.796 -85.416)"/><path class="q" d="M263.134,82.739a7.04,7.04,0,0,1-.445,2.468q-.124.338-.386.873L258.39,83.82q.256-.536.386-.873a7.1,7.1,0,0,0,.432-2.067q1.781-1.01,2.847-.443A2.384,2.384,0,0,1,263.134,82.739Z" transform="translate(-245.661 -70.332)"/><path class="c" d="M217.977,56.6l-5.3,3.061a20.54,20.54,0,0,1,2.67-10.129,18.914,18.914,0,0,1,7.133-7.518,8.114,8.114,0,0,1,4.854-1.4,4.293,4.293,0,0,1,3.206,2.2,9.091,9.091,0,0,1,1.2,4.862,15.715,15.715,0,0,1-.386,3.35,25.223,25.223,0,0,1-1.213,3.856,47.483,47.483,0,0,1-2.327,4.526,43.9,43.9,0,0,0-2.205,4.282,15.318,15.318,0,0,0-.731,2.77,29.057,29.057,0,0,0-.386,4.268l-5.481,3.165-.021-1.2a26.257,26.257,0,0,1,.991-7.133,32.877,32.877,0,0,1,3.217-7.4,44.56,44.56,0,0,0,2.589-4.949,7.04,7.04,0,0,0,.44-2.475,2.351,2.351,0,0,0-1.081-2.3q-1.081-.567-2.9.474a8.2,8.2,0,0,0-3.056,3.227,9.253,9.253,0,0,0-1.216,4.471Z" transform="translate(-208.76 -38.326)"/><path class="c" d="M245.73,218.924a2.188,2.188,0,0,1,2.518-.106,3.062,3.062,0,0,1,1.043,2.662,8.27,8.27,0,0,1-1.031,3.873,6.706,6.706,0,0,1-2.489,2.8,2.1,2.1,0,0,1-2.479.069,3.166,3.166,0,0,1-1.022-2.689,8.241,8.241,0,0,1,1.012-3.856A6.594,6.594,0,0,1,245.73,218.924Z" transform="translate(-232.648 -181.919)"/></g></g></g></svg>