<svg xmlns="http://www.w3.org/2000/svg" width="74.564" height="72.516" viewBox="0 0 74.564 72.516">
  <g id="Group_3904" data-name="Group 3904" transform="translate(21970.555 11496.604)">
    <path id="Path_9057" data-name="Path 9057" d="M135.306,65.589a44.541,44.541,0,0,0,20.649-13.678c4.133-5,6.352-11.352,6.352-15.417l0-3-.029-21.4a.952.952,0,0,0-.577-.874L135.681.077a.952.952,0,0,0-.75,0L108.914,11.223a.952.952,0,0,0-.577.874l-.029,21.4,0,3c0,3.426,2.219,10.416,6.352,15.417A44.544,44.544,0,0,0,135.306,65.589Z" transform="translate(-22078.859 -11496.604)" fill="#a020f0"/>
    <path id="Path_9058" data-name="Path 9058" d="M155.955,200.539a44.446,44.446,0,0,1-20.341,13.574.96.96,0,0,1-.617,0,44.444,44.444,0,0,1-20.341-13.574,27.8,27.8,0,0,1-6.348-17.332l0,3a27.8,27.8,0,0,0,6.352,17.761,44.542,44.542,0,0,0,20.649,13.678,44.542,44.542,0,0,0,20.649-13.678,27.8,27.8,0,0,0,6.352-17.761l0-3a27.8,27.8,0,0,1-6.348,17.332Z" transform="translate(-22078.859 -11646.316)" fill="#880ed4"/>
    <path id="Path_9059" data-name="Path 9059" d="M162.645,89.943a34.453,34.453,0,0,0,15.972-10.58c3.2-3.868,4.913-9.458,4.913-11.635l0-3.224-.021-16.4a.952.952,0,0,0-.577-.874L163.02,38.7a.952.952,0,0,0-.75,0l-19.908,8.529a.953.953,0,0,0-.577.874l-.021,16.4,0,3.224c0,1.869,1.717,7.766,4.913,11.635A34.453,34.453,0,0,0,162.645,89.943Z" transform="translate(-22106.199 -11528.165)" fill="#6c0ba9"/>
    <path id="Path_9060" data-name="Path 9060" d="M178.616,193.727A34.356,34.356,0,0,1,162.955,204.2a.963.963,0,0,1-.622,0,34.356,34.356,0,0,1-15.661-10.475,21.5,21.5,0,0,1-4.909-13.534l0,3.224a21.506,21.506,0,0,0,4.913,13.738,34.454,34.454,0,0,0,15.972,10.58,34.452,34.452,0,0,0,15.972-10.58,21.5,21.5,0,0,0,4.913-13.738l0-3.224A21.5,21.5,0,0,1,178.616,193.727Z" transform="translate(-22106.199 -11643.854)" fill="#51087e"/>
    <path id="Path_9061" data-name="Path 9061" d="M201.919,119.629l2.1,4.256a2.3,2.3,0,0,0,1.731,1.258l4.7.682a2.3,2.3,0,0,1,1.274,3.921l-3.4,3.313a2.3,2.3,0,0,0-.661,2.035l.8,4.677a4.209,4.209,0,0,1,.008.753l-3.344.025-5.27-2.771-5.27,2.771-3.344-.025a4.209,4.209,0,0,1,.008-.753l.8-4.677a2.3,2.3,0,0,0-.661-2.035l-3.4-3.313a2.3,2.3,0,0,1,1.274-3.921l4.7-.682a2.3,2.3,0,0,0,1.731-1.258l2.1-4.256A2.3,2.3,0,0,1,201.919,119.629Z" transform="translate(-22143.412 -11593.314)" fill="#d7a1f9"/>
    <g id="Group_3896" data-name="Group 3896" transform="translate(-21952.168 -11457.195)">
      <path id="Path_9062" data-name="Path 9062" d="M217.945,215.665a.952.952,0,0,0-.886,0l-8.17,4.3a2.3,2.3,0,0,0,3.343,1.671l4.2-2.208a2.3,2.3,0,0,1,2.14,0l4.2,2.208a2.3,2.3,0,0,0,3.343-1.671Z" transform="translate(-208.889 -215.555)" fill="#c576f6"/>
    </g>
    <g id="clock" transform="translate(-21945.92 -11474.089)">
      <g id="Group_3905" data-name="Group 3905" transform="translate(6.307 0.089)">
        <path id="Path_9063" data-name="Path 9063" d="M94.585,4.034A3.945,3.945,0,0,1,98.53.089h-30.7a3.137,3.137,0,0,0-3.137,3.137V38.948h29.9V4.034Z" transform="translate(-64.689 -0.089)" fill="#ffe07d"/>
      </g>
      <path id="Path_9064" data-name="Path 9064" d="M232.253.089a3.945,3.945,0,0,0-3.945,3.945V19.677a2.062,2.062,0,0,1-1.49,1.989,15.565,15.565,0,0,0-10.383,20.3H230.69V4.034A3.945,3.945,0,0,1,234.635.089h-2.382Z" transform="translate(-194.487)" fill="#ffd064"/>
      <g id="Group_3910" data-name="Group 3910" transform="translate(10.919 5.385)">
        <g id="Group_3906" data-name="Group 3906">
          <path id="Path_9065" data-name="Path 9065" d="M132.508,55.919H112.744a.753.753,0,1,1,0-1.507h19.763a.753.753,0,1,1,0,1.507Z" transform="translate(-111.991 -54.412)" fill="#2b4d66"/>
        </g>
        <g id="Group_3907" data-name="Group 3907" transform="translate(0 7.513)">
          <path id="Path_9066" data-name="Path 9066" d="M132.508,132.977H112.744a.753.753,0,0,1,0-1.507h19.763a.753.753,0,1,1,0,1.507Z" transform="translate(-111.991 -131.47)" fill="#2b4d66"/>
        </g>
        <g id="Group_3908" data-name="Group 3908" transform="translate(0 15.026)">
          <path id="Path_9067" data-name="Path 9067" d="M132.508,210.037H112.744a.753.753,0,1,1,0-1.507h19.763a.753.753,0,0,1,0,1.507Z" transform="translate(-111.991 -208.53)" fill="#2b4d66"/>
        </g>
        <g id="Group_3909" data-name="Group 3909" transform="translate(0 22.54)">
          <path id="Path_9068" data-name="Path 9068" d="M132.508,287.1H112.744a.753.753,0,0,1,0-1.507h19.763a.753.753,0,1,1,0,1.507Z" transform="translate(-111.991 -285.589)" fill="#2b4d66"/>
        </g>
      </g>
      <path id="Path_9069" data-name="Path 9069" d="M32.6,364.413H5.577A5.577,5.577,0,0,1,0,358.835v-.988a.473.473,0,0,1,.473-.473H32.6Z" transform="translate(0 -322.451)" fill="#eab14d"/>
      <path id="Path_9070" data-name="Path 9070" d="M215.5,359.082a15.519,15.519,0,0,0,.938,5.33h10.651v-7.038H215.592A15.71,15.71,0,0,0,215.5,359.082Z" transform="translate(-194.487 -322.45)" fill="#e49542"/>
      <g id="Group_3921" data-name="Group 3921">
        <circle id="Ellipse_136" data-name="Ellipse 136" cx="13.368" cy="13.368" r="13.368" transform="translate(23.191 23.264)" fill="#880ed4"/>
        <path id="Path_9071" data-name="Path 9071" d="M365.233,237.782q-.532,0-1.053.041a13.369,13.369,0,0,1,0,26.654q.521.041,1.053.041a13.368,13.368,0,1,0,0-26.736Z" transform="translate(-328.672 -214.518)" fill="#6c0ba9"/>
        <circle id="Ellipse_137" data-name="Ellipse 137" cx="9.971" cy="9.971" r="9.971" transform="translate(26.59 26.661)" fill="#f4fbff"/>
        <path id="Path_9072" data-name="Path 9072" d="M362.375,272.623a10.066,10.066,0,0,0-1.362.093,9.972,9.972,0,0,1,0,19.756,9.971,9.971,0,1,0,1.362-19.849Z" transform="translate(-325.814 -245.962)" fill="#daf1f4"/>
        <g id="Group_3919" data-name="Group 3919" transform="translate(28.559 28.631)">
          <g id="Group_3911" data-name="Group 3911" transform="translate(7.248)">
            <path id="Path_9073" data-name="Path 9073" d="M368.005,294.68a.753.753,0,0,1-.753-.753v-.345a.753.753,0,1,1,1.507,0v.345A.753.753,0,0,1,368.005,294.68Z" transform="translate(-367.252 -292.828)" fill="#365e7d"/>
          </g>
          <g id="Group_3912" data-name="Group 3912" transform="translate(12.128 2.123)">
            <path id="Path_9074" data-name="Path 9074" d="M418.064,316.353a.753.753,0,0,1-.533-1.286l.244-.244a.753.753,0,1,1,1.065,1.066l-.244.244A.75.75,0,0,1,418.064,316.353Z" transform="translate(-417.311 -314.602)" fill="#365e7d"/>
          </g>
          <g id="Group_3913" data-name="Group 3913" transform="translate(14.15 7.248)">
            <path id="Path_9075" data-name="Path 9075" d="M439.145,368.669H438.8a.753.753,0,1,1,0-1.507h.345a.753.753,0,0,1,0,1.507Z" transform="translate(-438.046 -367.162)" fill="#365e7d"/>
          </g>
          <g id="Group_3914" data-name="Group 3914" transform="translate(0 7.248)">
            <path id="Path_9076" data-name="Path 9076" d="M294.016,368.669h-.345a.753.753,0,0,1,0-1.507h.345a.753.753,0,1,1,0,1.507Z" transform="translate(-292.917 -367.162)" fill="#365e7d"/>
          </g>
          <g id="Group_3915" data-name="Group 3915" transform="translate(12.128 12.128)">
            <path id="Path_9077" data-name="Path 9077" d="M418.31,418.973a.751.751,0,0,1-.533-.221l-.244-.244a.753.753,0,1,1,1.065-1.066l.244.244a.753.753,0,0,1-.533,1.286Z" transform="translate(-417.312 -417.222)" fill="#365e7d"/>
          </g>
          <g id="Group_3916" data-name="Group 3916" transform="translate(7.248 14.15)">
            <path id="Path_9078" data-name="Path 9078" d="M368.005,439.809a.753.753,0,0,1-.753-.753v-.345a.753.753,0,1,1,1.507,0v.345A.753.753,0,0,1,368.005,439.809Z" transform="translate(-367.252 -437.957)" fill="#365e7d"/>
          </g>
          <g id="Group_3917" data-name="Group 3917" transform="translate(2.123 12.129)">
            <path id="Path_9079" data-name="Path 9079" d="M315.443,418.975a.753.753,0,0,1-.533-1.286l.244-.244a.753.753,0,1,1,1.066,1.066l-.244.244A.751.751,0,0,1,315.443,418.975Z" transform="translate(-314.69 -417.224)" fill="#365e7d"/>
          </g>
          <g id="Group_3918" data-name="Group 3918" transform="translate(2.123 2.123)">
            <path id="Path_9080" data-name="Path 9080" d="M315.687,316.353a.752.752,0,0,1-.533-.221l-.244-.244a.753.753,0,1,1,1.066-1.066l.244.244a.753.753,0,0,1-.533,1.286Z" transform="translate(-314.69 -314.602)" fill="#365e7d"/>
          </g>
        </g>
        <g id="Group_3920" data-name="Group 3920" transform="translate(35.807 31.902)">
          <path id="Path_9081" data-name="Path 9081" d="M370.059,331.86h-2.054a.753.753,0,0,1-.753-.753v-3.977a.753.753,0,1,1,1.507,0v3.223h1.3a.753.753,0,0,1,0,1.507Z" transform="translate(-367.252 -326.376)" fill="#2b4d66"/>
        </g>
      </g>
      <path id="Path_9082" data-name="Path 9082" d="M378.5,9.988h-7.187V4.034a3.945,3.945,0,1,1,7.889,0V9.285A.7.7,0,0,1,378.5,9.988Z" transform="translate(-335.113 0)" fill="#eab14d"/>
      <path id="Path_9083" data-name="Path 9083" d="M376.547.3a3.944,3.944,0,0,0-5.23,3.729V9.988h2.57V4.034A3.945,3.945,0,0,1,376.547.3Z" transform="translate(-335.114 0)" fill="#e49542"/>
    </g>
  </g>
</svg>
