<svg xmlns="http://www.w3.org/2000/svg" width="123.437" height="143.249" viewBox="0 0 123.437 143.249"><defs><style>.a{fill:#ebebeb;}.b{fill:#e0e0e0;}.c{fill:#f5f5f5;}.d{fill:#b78876;}.e{fill:#aa6550;}.f{fill:#263238;}.g{fill:#b24bf3;}.h{fill:#455a64;}.i{fill:#fafafa;}.j{fill:#ffbe9d;}.k{fill:#eb996e;}.l{fill:#fff;}</style></defs><g transform="translate(-38.814 -64.479) rotate(11)"><g transform="translate(71.942 54.798)"><path class="a" d="M73.391,247.825s-3.3,1.139.063,8.193a91.244,91.244,0,0,0,5.732,10.572s.587,1.63-.78,1.846-4.352-.343-5,1.3c-.676,1.71.536,3.372,3.039,4.869s7.873,4.98,8.355,5.3.952,1.075.032,1.37-7.663.818-7.226,4.009,8.1,6.211,8.948,6.563,1.025.707.952,1.167-2.366.419-4.282.634-4.1.825-3.689,2.645,4.888,5.741,15.987,7.134l5.186.317,2.918-4.32c5.735-9.6,5.392-15.543,4.219-16.992s-3-.089-4.358,1.269-2.734,3.2-3.147,2.979-.577-.593-.339-1.462,2.569-8.767.317-11.08-6.813,2.7-7.613,3.229-1.107-.317-1.059-.869.606-6.95.952-9.833-.206-4.872-1.97-5.392c-1.7-.5-3.093,2.192-4.1,3.137s-1.935-.52-1.935-.52a90.657,90.657,0,0,0-4.806-11.022c-3.492-6.994-6.455-5.015-6.455-5.015" transform="translate(-71.942 -191.854)"/><path class="b" d="M110.492,319.087c-2.538-5.148-6.912-14.372-10.7-22.27s-7.229-15.045-9.747-20.205l-2.988-6.106-.812-1.662c-.089-.187-.159-.317-.206-.435a1.33,1.33,0,0,0-.067-.149s.029.048.079.143l.222.425.841,1.649c.726,1.431,1.764,3.511,3.032,6.084,2.538,5.148,6,12.288,9.792,20.186s8.142,17.129,10.661,22.289" transform="translate(-81.52 -205.964)"/><path class="b" d="M89.61,320.4a1.984,1.984,0,0,1,.358.111c.228.082.555.206.952.365.8.317,1.9.79,3.1,1.329l3.07,1.389.929.416a1.6,1.6,0,0,1,.339.168A1.708,1.708,0,0,1,98,324.07c-.228-.082-.552-.206-.952-.371-.8-.317-1.9-.809-3.089-1.348l-3.077-1.37-.933-.409A1.341,1.341,0,0,1,89.61,320.4Z" transform="translate(-84.006 -241.566)"/><path class="b" d="M118.337,309.242c-.041-.016.828-2.319,1.938-5.145s2.046-5.1,2.078-5.1-.828,2.319-1.938,5.145S118.378,309.258,118.337,309.242Z" transform="translate(-103.62 -226.954)"/><path class="b" d="M135,353.249a1.85,1.85,0,0,1,.219-.317l.634-.825c.539-.7,1.269-1.665,2.052-2.76s1.446-2.109,1.925-2.855l.568-.875a1.552,1.552,0,0,1,.225-.317,1.9,1.9,0,0,1-.171.343c-.121.216-.3.526-.527.9-.454.755-1.11,1.783-1.9,2.88s-1.532,2.056-2.09,2.734c-.282.339-.514.609-.679.793A1.76,1.76,0,0,1,135,353.249Z" transform="translate(-114.998 -258.568)"/><path class="b" d="M106.81,366.211a1.767,1.767,0,0,1,.355,0l.952.1c.809.1,1.925.235,3.172.4s2.344.317,3.147.444l.952.152a1.511,1.511,0,0,1,.346.076,1.3,1.3,0,0,1-.352-.016l-.952-.1c-.806-.092-1.922-.232-3.153-.4s-2.344-.317-3.15-.444l-.952-.152A1.5,1.5,0,0,1,106.81,366.211Z" transform="translate(-95.75 -272.84)"/><path class="b" d="M117.11,402.583a2.227,2.227,0,0,1,.454.022l1.228.127c1.037.114,2.468.282,4.047.479s3.01.381,4.041.523l1.224.178a2.173,2.173,0,0,1,.444.086,2.426,2.426,0,0,1-.454-.025l-1.228-.127c-1.037-.111-2.468-.279-4.047-.476s-3.007-.381-4.041-.523l-1.221-.178A2.663,2.663,0,0,1,117.11,402.583Z" transform="translate(-102.783 -297.679)"/><path class="b" d="M152.34,384.625a2.6,2.6,0,0,1,.266-.406c.2-.276.46-.634.771-1.075.634-.907,1.542-2.167,2.49-3.581s1.773-2.718,2.363-3.667l.7-1.123a3.372,3.372,0,0,1,.273-.4,2.48,2.48,0,0,1-.219.435c-.149.276-.371.669-.657,1.151-.565.952-1.377,2.277-2.325,3.7s-1.856,2.668-2.538,3.562c-.336.444-.615.8-.812,1.044A2.772,2.772,0,0,1,152.34,384.625Z" transform="translate(-126.838 -278.417)"/><path class="c" d="M314.012,258.385c-8.047-3.974-11.13-13.157-12.133-21.677-.168-1.424-.549-2.893-.067-4.235a2.917,2.917,0,0,1,3.283-2.03c1.129.336,1.773,1.488,2.512,2.411a8.408,8.408,0,0,0,3.806,2.664,3.235,3.235,0,0,0,2.947-.178c1.117-.86,1.006-2.569.78-3.974l-1.25-7.873a13.3,13.3,0,0,1-.209-4.244,4.434,4.434,0,0,1,2.293-3.369,2.685,2.685,0,0,1,3.549,1.269,15.762,15.762,0,0,1,.317,1.745,1.533,1.533,0,0,0,1.079,1.269c.581.086,1.091-.406,1.446-.882a18.881,18.881,0,0,0,2.588-5.583,26.864,26.864,0,0,1,2.338-5.709,7.674,7.674,0,0,1,4.717-3.676,4.614,4.614,0,0,1,5.148,2.4c.812,1.9-.038,4.1-1.056,5.893a31.719,31.719,0,0,1-5.592,7.232,2.594,2.594,0,0,0-.913,1.342c-.165.986.866,1.783,1.84,1.951a16.449,16.449,0,0,0,3.343-.13,3.188,3.188,0,0,1,2.95,1.237c.8,1.351-.178,3.042-1.212,4.212a27.232,27.232,0,0,1-7.276,5.83,8.911,8.911,0,0,0-2.74,1.9,2.634,2.634,0,0,0-.381,3.109,2.689,2.689,0,0,0,3.051.672,19.015,19.015,0,0,0,2.909-1.649c1.824-1.025,4.342-1.269,5.836.209a4.513,4.513,0,0,1,1.072,3.867,10.417,10.417,0,0,1-1.605,3.806,27.2,27.2,0,0,1-10.318,9.881c-4.25,2.239-8.345,3.261-13.053,2.309" transform="translate(-228.739 -162.232)"/><path class="b" d="M345.13,254.653a127.733,127.733,0,0,1,2.94-14.334q.492-1.884.952-3.718c.317-1.221.634-2.43,1.018-3.594a63.307,63.307,0,0,1,2.582-6.566c.923-2.049,1.871-3.959,2.772-5.738s1.779-3.419,2.642-4.882a50.462,50.462,0,0,1,4.587-6.588c.6-.733,1.082-1.288,1.415-1.659.162-.174.285-.317.381-.419a1.058,1.058,0,0,1,.136-.136,1.043,1.043,0,0,1-.117.155l-.362.435c-.317.384-.787.952-1.373,1.687a53.964,53.964,0,0,0-4.495,6.62c-.847,1.465-1.713,3.109-2.607,4.888s-1.833,3.692-2.747,5.738a65.083,65.083,0,0,0-2.557,6.544c-.381,1.158-.691,2.36-1.012,3.581s-.634,2.465-.952,3.718a130.963,130.963,0,0,0-2.956,14.309" transform="translate(-258.476 -164.149)"/><path class="b" d="M351.4,256.181a2.7,2.7,0,0,1-.228-.58c-.133-.377-.317-.929-.514-1.615-.412-1.373-.917-3.286-1.465-5.392s-1.078-4.012-1.51-5.373c-.216-.682-.393-1.231-.523-1.611A2.861,2.861,0,0,1,347,241a2.765,2.765,0,0,1,.266.561c.159.368.365.91.6,1.586.479,1.351,1.04,3.251,1.586,5.367s1.018,3.968,1.389,5.411c.171.65.317,1.2.431,1.637A3.009,3.009,0,0,1,351.4,256.181Z" transform="translate(-259.753 -187.351)"/><path class="b" d="M378.462,269.52a4.231,4.231,0,0,1-.711.194c-.457.114-1.12.273-1.935.495-1.63.431-3.86,1.1-6.29,1.957s-4.593,1.722-6.141,2.4c-.774.317-1.4.615-1.827.809a4.043,4.043,0,0,1-.679.282,3.906,3.906,0,0,1,.634-.374c.419-.222,1.028-.536,1.8-.888,1.532-.72,3.692-1.618,6.128-2.477a65.025,65.025,0,0,1,6.344-1.9c.822-.2,1.494-.317,1.96-.409A3.673,3.673,0,0,1,378.462,269.52Z" transform="translate(-269.23 -206.825)"/><path class="b" d="M318.488,309.228a1.168,1.168,0,0,1-.155-.2c-.111-.165-.247-.365-.409-.609-.355-.526-.844-1.307-1.437-2.277-1.189-1.941-2.747-4.672-4.425-7.711s-3.21-5.779-4.355-7.743l-1.364-2.319-.368-.634a.13.13,0,1,1,.044-.029l.409.606c.352.53.844,1.31,1.437,2.281,1.19,1.938,2.747,4.672,4.425,7.711s3.207,5.779,4.355,7.743l1.364,2.319c.146.254.267.463.368.634A.863.863,0,0,1,318.488,309.228Z" transform="translate(-231.662 -219.102)"/><path class="b" d="M368.54,320.07a1.2,1.2,0,0,1-.225.133c-.178.092-.4.206-.663.339L365.2,321.77c-2.065,1.037-4.9,2.5-8.038,4.124s-6,3.058-8.079,4.05c-1.044.5-1.9.891-2.487,1.151l-.682.3a1.093,1.093,0,0,1-.247.089.861.861,0,0,1,.225-.136l.663-.339L349,329.776c2.068-1.034,4.907-2.5,8.041-4.124s5.989-3.067,8.079-4.051c1.044-.5,1.9-.891,2.484-1.152l.685-.295A.922.922,0,0,1,368.54,320.07Z" transform="translate(-258.845 -241.341)"/><path class="c" d="M109.547,71.907a4.787,4.787,0,0,1,3.626,1,8.428,8.428,0,0,1,2.347,3.026A15.085,15.085,0,0,1,116.6,83.52c-2.741-.4-4.866-2.807-5.868-4.095-1.586-2.04-3.2-6.683-1.18-7.533" transform="translate(-96.978 -71.864)"/><path class="c" d="M144.706,98.9a4.1,4.1,0,0,1-1-3.987,5.443,5.443,0,0,1,2.693-3.229,2.277,2.277,0,0,1,1.9-.289,1.745,1.745,0,0,1,.986,1.475,3.562,3.562,0,0,1-.4,1.8c-.9,1.932-2.132,3.638-4.184,4.228" transform="translate(-120.834 -85.125)"/><path class="b" d="M147.968,111.846a8.023,8.023,0,0,1-.634-1.516,7.563,7.563,0,0,1-.387-1.76,16.751,16.751,0,0,1-.136-2.192,8.19,8.19,0,0,1,.993-3.86,5.789,5.789,0,0,1,.707-.983c.2-.209.317-.317.333-.3a11.541,11.541,0,0,0-.869,1.377,8.779,8.779,0,0,0-.885,3.771,19.271,19.271,0,0,0,.114,2.16,8.531,8.531,0,0,0,.317,1.726A11.59,11.59,0,0,1,147.968,111.846Z" transform="translate(-123.062 -91.918)"/><path class="b" d="M116.46,82.75a4.8,4.8,0,0,1,.517.653c.317.431.774,1.059,1.329,1.84,1.107,1.564,2.617,3.743,4.222,6.188s2.994,4.7,3.965,6.344c.488.825.872,1.5,1.129,1.97a5.054,5.054,0,0,1,.377.745,4.541,4.541,0,0,1-.469-.691l-1.205-1.922c-1.012-1.624-2.43-3.86-4.032-6.306l-4.149-6.2-1.269-1.9A4.44,4.44,0,0,1,116.46,82.75Z" transform="translate(-102.339 -79.297)"/><path class="c" d="M118.48,118.435a9.579,9.579,0,0,0-8.542-1.9c-.749.2-1.586.634-1.675,1.4s.609,1.392,1.294,1.754a8.184,8.184,0,0,0,9.018-1.059" transform="translate(-96.737 -102.152)"/><path class="b" d="M119.28,120.818a1.336,1.336,0,0,1,.425-.1c.279-.051.682-.1,1.186-.146a10.784,10.784,0,0,1,3.924.339,6.759,6.759,0,0,1,1.963.971,6.4,6.4,0,0,1,1.269,1.247,6.161,6.161,0,0,1,.65,1.005,1.39,1.39,0,0,1,.178.4c-.051.029-.339-.527-.98-1.285a6.632,6.632,0,0,0-3.172-2.074,12.155,12.155,0,0,0-3.832-.409A13.462,13.462,0,0,1,119.28,120.818Z" transform="translate(-104.265 -105.086)"/></g><g transform="translate(101.249 70.875)"><path class="d" d="M357.127,162.677c-.085-.033-3.384-.9-3.185,2.438s3.507,2.447,3.509,2.35S357.127,162.677,357.127,162.677Z" transform="translate(-337.251 -150.76)"/><path class="e" d="M359.082,169.878c-.017-.012-.057.043-.151.095a.577.577,0,0,1-.435.033,1.435,1.435,0,0,1-.743-1.248,1.947,1.947,0,0,1,.1-.83.672.672,0,0,1,.411-.473.3.3,0,0,1,.352.139c.05.09.033.158.05.163s.069-.061.033-.2a.359.359,0,0,0-.144-.2.43.43,0,0,0-.326-.066.816.816,0,0,0-.575.553,1.943,1.943,0,0,0-.147.946,1.514,1.514,0,0,0,.934,1.39.624.624,0,0,0,.527-.121C359.079,169.958,359.094,169.882,359.082,169.878Z" transform="translate(-339.977 -154.374)"/><path class="f" d="M402.66,112.69A10.723,10.723,0,0,1,408.2,113.8a6.892,6.892,0,0,1,2.868,3.142,7.235,7.235,0,0,1,.79,3.521,7.716,7.716,0,0,1-.527,3.02" transform="translate(-374.456 -112.688)"/><path class="d" d="M372.793,113.727a8.985,8.985,0,0,1,9.612,8.5c.218,4.178.409,8.7.364,10.972-.1,4.885-4.992,5.606-4.992,5.606s.109,1.447.236,3.244a6.436,6.436,0,0,1-6.176,6.857h0a6.432,6.432,0,0,1-6.673-6.19l-.726-19.687a8.985,8.985,0,0,1,8.361-9.3Z" transform="translate(-345.267 -113.462)"/><path class="e" d="M400.636,213.612a11.613,11.613,0,0,1-6.266-1.932s1.478,3.547,6.354,3.154Z" transform="translate(-368.126 -188.271)"/><path class="f" d="M428.046,159.179a.7.7,0,0,1-.676.709.665.665,0,0,1-.709-.634.709.709,0,0,1,.676-.709.667.667,0,0,1,.709.634Z" transform="translate(-392.781 -147.7)"/><path class="f" d="M426.488,154.651c-.088.09-.612-.305-1.364-.31s-1.3.369-1.383.277c-.04-.043.05-.206.291-.378a1.891,1.891,0,0,1,1.109-.331,1.816,1.816,0,0,1,1.083.359C426.452,154.445,426.53,154.611,426.488,154.651Z" transform="translate(-390.545 -144.16)"/><path class="f" d="M396.908,159.18a.7.7,0,0,1-.679.709.667.667,0,0,1-.709-.634.709.709,0,0,1,.679-.709.669.669,0,0,1,.709.634Z" transform="translate(-369.004 -147.7)"/><path class="f" d="M395.273,154.994c-.088.09-.615-.305-1.364-.31s-1.3.366-1.386.274c-.038-.04.05-.206.293-.378a1.913,1.913,0,0,1,1.109-.331,1.849,1.849,0,0,1,1.083.359C395.23,154.788,395.315,154.951,395.273,154.994Z" transform="translate(-366.709 -144.42)"/><path class="f" d="M414.535,160.8a5.236,5.236,0,0,1,1.22-.21c.192-.019.374-.054.407-.184a.961.961,0,0,0-.123-.57c-.175-.473-.362-.946-.556-1.464a24.867,24.867,0,0,1-1.241-3.828,24.77,24.77,0,0,1,1.546,3.719c.187.513.364,1,.532,1.473a1.109,1.109,0,0,1,.095.752.494.494,0,0,1-.319.279,1.453,1.453,0,0,1-.324.043A4.229,4.229,0,0,1,414.535,160.8Z" transform="translate(-383.293 -144.641)"/><path class="f" d="M405.743,183.15c.123,0,.116.809.809,1.393s1.563.5,1.568.615c0,.052-.2.158-.563.165a2.034,2.034,0,0,1-1.308-.473,1.78,1.78,0,0,1-.626-1.168C405.595,183.351,405.687,183.145,405.743,183.15Z" transform="translate(-376.714 -166.487)"/><path class="f" d="M394.022,143.158c-.076.2-.823.1-1.7.2s-1.6.333-1.712.149c-.05-.087.076-.279.364-.473a2.986,2.986,0,0,1,2.6-.265C393.895,142.891,394.056,143.051,394.022,143.158Z" transform="translate(-365.244 -135.516)"/><path class="f" d="M426.691,143.2c-.132.17-.648-.012-1.27-.024s-1.149.1-1.27-.076c-.052-.087.031-.258.263-.416a1.837,1.837,0,0,1,2.048.08C426.679,142.945,426.75,143.12,426.691,143.2Z" transform="translate(-390.854 -135.384)"/><path class="f" d="M364.08,123.776s.213,1.13.27,1.639c.021.187,0,2.256.5,2.365a1.82,1.82,0,0,0,1.674-1.161,11.375,11.375,0,0,0,1.031-3.845,13.514,13.514,0,0,1,.09-3.821,5.5,5.5,0,0,1,1.859-3.263,3.478,3.478,0,0,1,3.6-.489A19.434,19.434,0,0,1,375,116.618a2.935,2.935,0,0,0,2.015.523,1.891,1.891,0,0,0,1.558-1.277,2.064,2.064,0,0,0-.773-2.055,4.722,4.722,0,0,0-2.128-.873,11.442,11.442,0,0,0-6.342.445,8.253,8.253,0,0,0-4.634,4.242c-.988,2.277-.875,3.675-.612,6.148" transform="translate(-344.859 -112.681)"/><path class="f" d="M390.274,150.474a5.738,5.738,0,0,0-.128-.8,3.31,3.31,0,0,0-1.208-1.8,3.249,3.249,0,0,0-1.379-.605,3.294,3.294,0,0,0-1.717.144,3.036,3.036,0,0,0-.823.447,3,3,0,0,0-.69.693,3.254,3.254,0,0,0,0,3.852,3.1,3.1,0,0,0,.69.693,3.025,3.025,0,0,0,.823.445,3.3,3.3,0,0,0,1.717.147,3.239,3.239,0,0,0,1.379-.608,3.31,3.31,0,0,0,1.211-1.8,5.893,5.893,0,0,0,.125-.806.143.143,0,0,1,0,.054v.158a1.351,1.351,0,0,1-.021.258,2.186,2.186,0,0,1-.061.345,3.311,3.311,0,0,1-1.2,1.859,3.351,3.351,0,0,1-3.185.5,3.121,3.121,0,0,1-.856-.456,3.169,3.169,0,0,1-.709-.709,3.365,3.365,0,0,1,0-4,3.352,3.352,0,0,1,3.343-1.322,3.339,3.339,0,0,1,2.622,2.495,2.2,2.2,0,0,1,.062.348,1.332,1.332,0,0,1,.021.255v.158A.227.227,0,0,1,390.274,150.474Z" transform="translate(-359.887 -138.964)"/><path class="f" d="M426.6,150.466a6.233,6.233,0,0,0-.128-.8,3.31,3.31,0,0,0-1.211-1.8,3.237,3.237,0,0,0-1.378-.605,3.261,3.261,0,0,0-3.228,1.284,3.244,3.244,0,0,0,0,3.852,3.085,3.085,0,0,0,.688.693,3,3,0,0,0,.825.445,3.287,3.287,0,0,0,1.714.147,3.238,3.238,0,0,0,1.378-.608,3.31,3.31,0,0,0,1.211-1.8,6.231,6.231,0,0,0,.128-.806.521.521,0,0,1,0,.054v.158a1.564,1.564,0,0,1-.019.258,2.2,2.2,0,0,1-.064.345,3.287,3.287,0,0,1-1.2,1.859,3.374,3.374,0,0,1-4.762-4.682,3.147,3.147,0,0,1,.709-.709,3.2,3.2,0,0,1,.856-.459,3.407,3.407,0,0,1,1.773-.14,3.33,3.33,0,0,1,1.419.638,3.289,3.289,0,0,1,1.2,1.856,2.234,2.234,0,0,1,.064.348,1.532,1.532,0,0,1,.019.255v.158A.451.451,0,0,1,426.6,150.466Z" transform="translate(-387.612 -138.956)"/><path class="f" d="M413.764,158.794a1.688,1.688,0,0,1-.307-.1,1.981,1.981,0,0,0-.759-.1,2.066,2.066,0,0,0-.733.194c-.177.087-.277.163-.288.147s.071-.111.236-.222a1.707,1.707,0,0,1,1.56-.1C413.679,158.695,413.774,158.784,413.764,158.794Z" transform="translate(-381.34 -147.638)"/><path class="f" d="M424.656,120.789c.05-.253-.035-.395.109-.5s.473.194.582.317c.038.04.151-.116.2-.144a.864.864,0,0,0,.085-.324c-.021-.177-.3-.236-.428-.345a1.316,1.316,0,0,0-.461-.262.444.444,0,0,0-.44.026.432.432,0,0,0-.1.331.9.9,0,0,0,.066.345.473.473,0,0,0,.237.251" transform="translate(-390.901 -117.876)"/><path class="a" d="M363.9,144.756s2.4.877,3.641,1.407l-.071-1.225-3.483-1.379S363.9,144.47,363.9,144.756Z" transform="translate(-344.861 -136.259)"/><path class="a" d="M364.85,140.57a13.793,13.793,0,0,1,1.7.65,13.364,13.364,0,0,1,1.655.764,13.788,13.788,0,0,1-1.7-.65A13.358,13.358,0,0,1,364.85,140.57Z" transform="translate(-345.586 -133.976)"/><path class="g" d="M364.655,230.976l-.184-5.8a7,7,0,0,0,7.184,5.235c5.762-.066,5.658-4.672,5.658-4.672l.206,2.336v9.437l-3.76,15.4-4.8.6-5.306-21.044Z" transform="translate(-344.67 -198.579)"/><path class="f" d="M380.028,239.819a.594.594,0,0,1-.069.123,3.48,3.48,0,0,1-.237.336,4.963,4.963,0,0,1-1.073,1.04,6.178,6.178,0,0,1-2.005.946,7.064,7.064,0,0,1-2.707.187,8.771,8.771,0,0,1-2.6-.783,11.317,11.317,0,0,1-1.892-1.144,13.368,13.368,0,0,1-1.149-.946c-.13-.118-.225-.218-.291-.284a.071.071,0,1,1,.016-.017l.307.265a14.569,14.569,0,0,0,1.168.917,11.791,11.791,0,0,0,1.892,1.111,8.821,8.821,0,0,0,2.565.761,7.069,7.069,0,0,0,2.66-.173,6.346,6.346,0,0,0,1.986-.9,5.322,5.322,0,0,0,1.085-1C379.912,239.975,380.019,239.812,380.028,239.819Z" transform="translate(-347.923 -209.276)"/><path class="a" d="M337.194,278.915l-.087-27.358-7.77-19.959-.26-6.008-4.729,3.58s-6.888,23.709-7,22.891,0,26.854,0,26.854Z" transform="translate(-309.274 -198.892)"/><path class="f" d="M400.472,361.867c-.033,0-.062-6.164-.062-13.769s.028-13.769.062-13.769.061,6.164.061,13.769S400.5,361.867,400.472,361.867Z" transform="translate(-372.738 -281.92)"/><path class="b" d="M347.4,257.21l.96.728-.674,4.426,11.34,11.879-10.3-13.528.877-3.507Z" transform="translate(-332.263 -223.036)"/><path class="a" d="M311.916,276.43l-17.405-5.1-.577-13.22,4.774-17.417s-11.378,5.677-12.154,9.3-2.641,12.395-2.837,18.744c-.177,5.675-.2,9.458,1.092,11.281,3.712,5.188,28.171,6.115,37.942,0" transform="translate(-283.571 -210.422)"/><path class="f" d="M359.033,250.318a.544.544,0,0,1-.057-.064c-.035-.045-.092-.114-.156-.194l-.591-.757c-.516-.667-1.251-1.622-2.156-2.8L349,237.242l-.532-.709-.019-.024v-.028c.3-1.211.6-2.386.88-3.507l.057.076h-2.26v-3.987l.019-.014,3.421-2.6.946-.709.236-.182a.45.45,0,0,1,.087-.057l-.078.069-.236.191-.924.724-3.4,2.634.019-.038v3.906l-.057-.054h2.3l-.019.076-.875,3.507-.012-.052.534.7,7.046,9.286,2.128,2.821c.237.331.438.589.572.771.061.085.109.154.147.2Z" transform="translate(-332.049 -198.823)"/><path class="a" d="M407.991,229.282c-1.388-2.426-2.109-2.175-2.109-2.175l.073.865v1.818l-.66,7.8-4.216,16.951.088,25.523h15.939l1.984-31.155-.18-13.424Z" transform="translate(-373.25 -200.044)"/><path class="a" d="M393.518,262.58s4.126,3.046,4.493,7.947c.291,3.979.946,14.878,1.076,17.249.189,3.693-2.689,12.345-10.179,9.9-4.493-1.471-21.087-7.11-21.087-7.11l1.1-7.049,19.7,1.182.393-16.429Z" transform="translate(-347.854 -227.136)"/><path class="d" d="M339.645,353.311s-5.576-.6-6.857-.291a10.047,10.047,0,0,0-3.008,1.818l.026,2.2,8.969,2.509Z" transform="translate(-318.809 -296.123)"/><path class="f" d="M401.09,252.042a.4.4,0,0,1,.026-.076c.019-.054.047-.128.083-.218.078-.2.191-.473.333-.832l1.249-3.055,1.863-4.526c.177-.423.352-.865.572-1.3s.459-.865.709-1.3a28.966,28.966,0,0,1,1.769-2.554c.322-.414.646-.818.981-1.206v.064l-.7-1.766-.024-.059.059-.021,2.9-.981-.031.08c-1.348-2.251-2.485-4.152-3.294-5.5a4.287,4.287,0,0,0-1.1-1.419,1.492,1.492,0,0,0-.44-.177,1.508,1.508,0,0,1-.163-.04,1.354,1.354,0,0,1,.165.021,1.4,1.4,0,0,1,.456.168,2.016,2.016,0,0,1,.558.541,9.565,9.565,0,0,1,.579.87l3.334,5.481.035.059-.066.021-2.9,1,.035-.078.7,1.766.014.033-.026.028c-.331.383-.655.787-.974,1.2a29.145,29.145,0,0,0-1.764,2.535c-.253.43-.5.854-.709,1.286s-.392.863-.57,1.289c-.709,1.7-1.352,3.228-1.892,4.516s-.979,2.315-1.284,3.038c-.151.352-.272.629-.355.825-.04.09-.071.158-.1.213A.3.3,0,0,1,401.09,252.042Z" transform="translate(-373.257 -200.091)"/><path class="f" d="M366.972,378.573a.456.456,0,0,1-.069.073l-.213.206a6.117,6.117,0,0,1-.906.686,6.047,6.047,0,0,1-1.655.7,6.663,6.663,0,0,1-2.365.151,7.478,7.478,0,0,1-1.36-.288c-.473-.147-.927-.329-1.419-.5-.972-.355-2.017-.709-3.114-1.107-2.2-.771-4.623-1.594-7.176-2.433-5.107-1.677-9.766-3.091-13.142-4.1l-4-1.182-1.088-.324-.281-.085a.553.553,0,0,1-.095-.035l.1.021.284.076,1.095.3c.946.265,2.32.655,4.02,1.147,3.381.986,8.039,2.388,13.154,4.067,2.556.837,4.98,1.655,7.176,2.44,1.1.39,2.14.761,3.112,1.118.487.175.946.359,1.419.506a7.332,7.332,0,0,0,1.341.291,6.658,6.658,0,0,0,2.346-.13,6.219,6.219,0,0,0,1.655-.669,6.7,6.7,0,0,0,.913-.664l.22-.2A.525.525,0,0,1,366.972,378.573Z" transform="translate(-319.046 -309.408)"/><path class="f" d="M315.663,370.128c0,.026-.314-.043-.813-.021a3.575,3.575,0,0,0-.861.142,3.918,3.918,0,0,0-.969.442,4.531,4.531,0,0,0-1.35,1.386c-.262.426-.378.709-.4.709a.833.833,0,0,1,.066-.21,3.643,3.643,0,0,1,.26-.544,4.221,4.221,0,0,1,1.357-1.445,3.812,3.812,0,0,1,1-.447,3.475,3.475,0,0,1,.889-.121,2.909,2.909,0,0,1,.6.054A.81.81,0,0,1,315.663,370.128Z" transform="translate(-304.676 -309.17)"/><path class="f" d="M306.66,361.35a.154.154,0,0,1,.021-.064.626.626,0,0,1,.109-.154,1.118,1.118,0,0,1,.619-.307,3.144,3.144,0,0,1,1.022,0,5.791,5.791,0,0,1,1.213.3,5.324,5.324,0,0,1,1.922,1.182,4.018,4.018,0,0,1,.447.522,1.035,1.035,0,0,1,.13.215c-.021.017-.215-.286-.636-.674a5.643,5.643,0,0,0-1.906-1.123,6.4,6.4,0,0,0-1.182-.3,3.322,3.322,0,0,0-.993-.028,1.139,1.139,0,0,0-.6.255A2.31,2.31,0,0,0,306.66,361.35Z" transform="translate(-301.156 -302.118)"/><path class="f" d="M311.363,282.25a1.866,1.866,0,0,1-.08-.357c-.035-.113-.085-.248-.14-.4a2.844,2.844,0,0,0-.258-.506A7.241,7.241,0,0,0,310,279.8a9.64,9.64,0,0,0-1.36-1.2,8.193,8.193,0,0,0-2.972-1.364,6.217,6.217,0,0,0-.991-.128,2.217,2.217,0,0,1-.366-.028,2.057,2.057,0,0,1,.369-.019,5.031,5.031,0,0,1,1,.09,7.8,7.8,0,0,1,3.027,1.35,8.956,8.956,0,0,1,1.371,1.218,6.8,6.8,0,0,1,.88,1.215,4,4,0,0,1,.236.523,2.989,2.989,0,0,1,.123.419,2.49,2.49,0,0,1,.042.371Z" transform="translate(-299.361 -238.195)"/><path class="f" d="M394.476,359.316a.427.427,0,0,1,0-.085v-.248c0-.217-.017-.537-.047-.946a13.267,13.267,0,0,0-.709-3.407,4.827,4.827,0,0,0-.473-1.04,2.041,2.041,0,0,0-.922-.783,8.194,8.194,0,0,0-2.714-.35l-6.347-.267c-5.245-.236-9.91-.426-12.842-.582l.04-.033c-.177,1.078-.319,1.932-.416,2.525-.05.286-.087.508-.116.667-.012.071-.024.128-.031.173l-.014.057a.269.269,0,0,1,0-.059l.024-.173c.021-.158.054-.383.095-.672.09-.594.218-1.45.381-2.53v-.033h.035l12.842.534,6.346.286c.487.024.962.036,1.419.073a4.113,4.113,0,0,1,1.324.3,2.144,2.144,0,0,1,.969.811,4.816,4.816,0,0,1,.473,1.064,12.77,12.77,0,0,1,.671,3.429c.026.411.026.733.024.946v.248C394.478,359.286,394.476,359.316,394.476,359.316Z" transform="translate(-349.43 -295.053)"/><path class="f" d="M457.8,319.24c.033,0,.061,1.908.061,4.256s-.028,4.256-.061,4.256-.062-1.908-.062-4.256S457.768,319.24,457.8,319.24Z" transform="translate(-416.512 -270.398)"/><path class="f" d="M286.5,278.17s-.014.054-.047.156a4.522,4.522,0,0,0-.142.473c-.116.409-.262,1.019-.426,1.816-.329,1.594-.733,3.925-1.182,6.843-.225,1.461-.473,3.074-.709,4.8-.121.868-.2,1.771-.258,2.707s-.111,1.892-.149,2.894c-.071,1.989-.114,4.088-.057,6.275.019.546.038,1.1.083,1.655.014.279.062.553.095.83a6.993,6.993,0,0,0,.2.818,4.662,4.662,0,0,0,.785,1.5,3.359,3.359,0,0,0,1.343,1.036h0a20.564,20.564,0,0,0,3.507,1.338c1.222.366,2.485.662,3.767.925a51.805,51.805,0,0,0,8.465,1.031,39.327,39.327,0,0,0,4.041-.1c1.317-.092,2.6-.236,3.842-.414a40.416,40.416,0,0,0,6.895-1.6,35.136,35.136,0,0,0,5.576-2.393v.078l-7.628-2.712-2.059-.735-.532-.194c-.121-.045-.18-.071-.18-.071l.182.059.537.182,2.067.709,7.661,2.672.092.031-.085.047a35.206,35.206,0,0,1-5.587,2.414,40.368,40.368,0,0,1-6.912,1.62c-1.244.187-2.53.326-3.85.419a39.505,39.505,0,0,1-4.053.109,51.728,51.728,0,0,1-8.486-1.031c-1.286-.265-2.551-.56-3.783-.927a20.924,20.924,0,0,1-3.528-1.35h0a3.48,3.48,0,0,1-1.4-1.074,4.781,4.781,0,0,1-.8-1.537,6.9,6.9,0,0,1-.206-.832c-.035-.284-.08-.563-.095-.842-.045-.558-.064-1.114-.08-1.655-.057-2.194,0-4.294.066-6.285q.057-1.49.154-2.9c.064-.946.142-1.844.265-2.712.236-1.738.487-3.344.709-4.8.473-2.918.884-5.247,1.227-6.838.17-.8.322-1.407.445-1.816.052-.206.118-.357.151-.459A.451.451,0,0,1,286.5,278.17Z" transform="translate(-283.381 -239.039)"/><path class="b" d="M329.74,321.537c2.911-3.223,2.783-8.952,1.111-13.017-.154,4.4-.674,8.309-1.071,12.589" transform="translate(-318.778 -262.213)"/><path class="f" d="M330.933,312a.657.657,0,0,1,0,.142c0,.106-.014.236-.026.4-.028.366-.066.868-.116,1.478-.1,1.263-.236,2.977-.4,4.873l-.383,4.876c-.045.61-.083,1.111-.111,1.478l-.035.4a.945.945,0,0,1-.019.139.477.477,0,0,1,0-.139c0-.106,0-.236.012-.4.012-.35.038-.856.071-1.48.073-1.249.191-2.975.348-4.878s.312-3.625.437-4.871c.064-.61.116-1.109.154-1.475.021-.163.038-.3.05-.4A.519.519,0,0,1,330.933,312Z" transform="translate(-318.853 -264.87)"/><path class="f" d="M364.612,287.38a50.923,50.923,0,0,1,0,5c-.033,0-.062-1.121-.062-2.5S364.578,287.38,364.612,287.38Z" transform="translate(-345.357 -246.072)"/><path class="b" d="M356.79,309.47a2.558,2.558,0,0,0,.537,1.324,1.725,1.725,0,0,0,1.277.679,1.948,1.948,0,0,0,1.719-.863,4.87,4.87,0,0,0,.236-3.736,2.155,2.155,0,0,0-1.766-1.435,1.956,1.956,0,0,0-1.915,1.49" transform="translate(-339.432 -259.86)"/><path class="f" d="M356.875,306.777a1.613,1.613,0,0,1,.191-.511,2.1,2.1,0,0,1,.39-.513,1.826,1.826,0,0,1,.738-.43,1.846,1.846,0,0,1,.494-.08,1.488,1.488,0,0,1,.542.071,2.128,2.128,0,0,1,.965.693,2.789,2.789,0,0,1,.57,1.182,5.19,5.19,0,0,1,.1,1.4,3.872,3.872,0,0,1-.6,2.041,1.845,1.845,0,0,1-.785.591,2.11,2.11,0,0,1-.889.149h0a1.328,1.328,0,0,1-.636-.156,2.135,2.135,0,0,1-.473-.336,2.394,2.394,0,0,1-.52-.776,2.2,2.2,0,0,1-.165-.575,1.221,1.221,0,0,1-.014-.156.158.158,0,0,1,0-.054,3.334,3.334,0,0,0,.236.761,2.4,2.4,0,0,0,.525.74,2.088,2.088,0,0,0,.473.312,1.252,1.252,0,0,0,.591.139h0a1.891,1.891,0,0,0,1.572-.709,3.811,3.811,0,0,0,.572-1.977,3.576,3.576,0,0,0-.638-2.506,2.049,2.049,0,0,0-.917-.66,1.461,1.461,0,0,0-.508-.073,1.8,1.8,0,0,0-.473.069,1.769,1.769,0,0,0-.709.4,2.142,2.142,0,0,0-.395.485A4.718,4.718,0,0,0,356.875,306.777Z" transform="translate(-339.425 -259.709)"/><path class="b" d="M354.45,309.671a2.566,2.566,0,0,0,.537,1.324,1.721,1.721,0,0,0,1.277.679,1.951,1.951,0,0,0,1.719-.863,4.871,4.871,0,0,0,.236-3.736,2.151,2.151,0,0,0-1.766-1.435,1.955,1.955,0,0,0-1.915,1.487" transform="translate(-337.646 -260.014)"/><path class="f" d="M354.528,306.975a1.615,1.615,0,0,1,.191-.508,2.1,2.1,0,0,1,.39-.513,1.826,1.826,0,0,1,1.232-.511,1.494,1.494,0,0,1,.542.071,2.128,2.128,0,0,1,.965.693,2.757,2.757,0,0,1,.568,1.182,5.092,5.092,0,0,1,.106,1.4,3.878,3.878,0,0,1-.6,2.041,1.844,1.844,0,0,1-.785.591,2.108,2.108,0,0,1-.889.149h0a1.326,1.326,0,0,1-.636-.158,2.058,2.058,0,0,1-.473-.333,2.34,2.34,0,0,1-.52-.778,2.19,2.19,0,0,1-.165-.572,1.383,1.383,0,0,0-.017-.156.193.193,0,0,1,0-.054,3.337,3.337,0,0,0,.236.759,2.341,2.341,0,0,0,.525.742,2.089,2.089,0,0,0,.473.312,1.283,1.283,0,0,0,.591.14h0a1.891,1.891,0,0,0,1.57-.709,3.8,3.8,0,0,0,.575-1.977,3.575,3.575,0,0,0-.638-2.506,2.024,2.024,0,0,0-.91-.667,1.452,1.452,0,0,0-.506-.073,1.783,1.783,0,0,0-1.182.473,2.144,2.144,0,0,0-.395.485,4.255,4.255,0,0,0-.244.478Z" transform="translate(-337.632 -259.862)"/><path class="b" d="M354.124,310.779a1.213,1.213,0,0,0-1.27.731,2.1,2.1,0,0,0,0,1.544,1.919,1.919,0,0,0,.395.7,1.041,1.041,0,0,0,.709.343,1.234,1.234,0,0,0,.977-.577,2.208,2.208,0,0,0,.333-1.814c-.109-.411-.411-.83-.835-.842" transform="translate(-336.315 -263.93)"/><path class="f" d="M354.248,310.812h.095a.643.643,0,0,1,.258.087,1.261,1.261,0,0,1,.539.813,2.215,2.215,0,0,1-.147,1.447,1.835,1.835,0,0,1-.53.7,1.026,1.026,0,0,1-.913.22,1.276,1.276,0,0,1-.728-.6,2.665,2.665,0,0,1-.3-.818,1.818,1.818,0,0,1,.236-1.419,1.272,1.272,0,0,1,.823-.525.927.927,0,0,1,.272,0c.059.012.09.021.09.026a1.869,1.869,0,0,0-.352.021,1.256,1.256,0,0,0-.761.527,1.743,1.743,0,0,0-.2,1.355,2.547,2.547,0,0,0,.3.778,1.157,1.157,0,0,0,.657.539.906.906,0,0,0,.806-.194,1.8,1.8,0,0,0,.5-.648,2.166,2.166,0,0,0,.163-1.381,1.239,1.239,0,0,0-.473-.792A.978.978,0,0,0,354.248,310.812Z" transform="translate(-336.131 -263.884)"/><path class="f" d="M359.731,325.308c-.019,0-.045-.076-.125-.17a.878.878,0,0,0-.4-.258,2.033,2.033,0,0,0-.5-.078c-.13,0-.215-.021-.215-.038s.08-.035.215-.05a1.388,1.388,0,0,1,.534.047.773.773,0,0,1,.437.326C359.75,325.211,359.746,325.306,359.731,325.308Z" transform="translate(-340.73 -274.573)"/><path class="f" d="M360.054,309.45a.531.531,0,0,1-.147.17,1.137,1.137,0,0,1-.5.218,1.182,1.182,0,0,1-.544-.028c-.133-.045-.2-.1-.2-.111a2.778,2.778,0,0,0,.709.019A2.951,2.951,0,0,0,360.054,309.45Z" transform="translate(-340.866 -262.923)"/><path class="f" d="M433.24,237.82a.178.178,0,0,1,.078.028,2.051,2.051,0,0,1,.211.109,4.155,4.155,0,0,1,.709.506,5.071,5.071,0,0,1,1.523,2.407,15.389,15.389,0,0,1,.579,2.8c.043.364.064.66.078.863a1.424,1.424,0,0,1,0,.319,1.8,1.8,0,0,1-.052-.314c-.031-.225-.071-.513-.116-.856a18.113,18.113,0,0,0-.612-2.781,5.24,5.24,0,0,0-1.461-2.379A7.927,7.927,0,0,0,433.24,237.82Z" transform="translate(-397.805 -208.23)"/><path class="f" d="M420.5,345.717c.686-.026,1.234-.709,1.92-.672a.949.949,0,0,1-.161,1.892c-.721-.083-1.142-.927-1.847-1.088" transform="translate(-388.009 -290.101)"/><path class="f" d="M420.691,286.7a4.052,4.052,0,0,1-.641-.052l.038-.236A2.7,2.7,0,0,0,422.2,286a3.9,3.9,0,0,0,1.341-2.733v-.05c.078-.515.184-10.629.184-12.549a3.276,3.276,0,0,0-2.745-3.426c-.113-.017-2.5-.419-3.769,2.856-1.329,3.431-3.455,10.042-3.594,10.818-.019.095-.045.213-.073.348-.222.993-.681,3.057.7,4.244a2.728,2.728,0,0,0,2.8.792l.1.215a2.943,2.943,0,0,1-3.045-.828c-1.485-1.282-1-3.438-.773-4.476.031-.132.054-.236.071-.338.142-.78,2.275-7.42,3.608-10.86s4-3.01,4.02-3a3.565,3.565,0,0,1,2.941,3.658c0,1.582-.1,12.036-.187,12.584v.047a4.157,4.157,0,0,1-1.435,2.892A2.721,2.721,0,0,1,420.691,286.7Z" transform="translate(-382.391 -230.505)"/><path class="f" d="M436.19,280.637a4.356,4.356,0,0,0-.492-1.182,4.071,4.071,0,0,0-.934-1.012,4.022,4.022,0,0,0-1.52-.709,4.444,4.444,0,0,0-2.991.39,5.35,5.35,0,0,0-1.043.745.34.34,0,0,1,.054-.071,1.647,1.647,0,0,1,.177-.189,3.544,3.544,0,0,1,.769-.56,4.393,4.393,0,0,1,3.062-.435,4.064,4.064,0,0,1,1.561.747,3.924,3.924,0,0,1,.946,1.057,3.074,3.074,0,0,1,.364.88,1.929,1.929,0,0,1,.05.255A.315.315,0,0,1,436.19,280.637Z" transform="translate(-394.728 -238.534)"/><path class="f" d="M466.638,358.977a8.325,8.325,0,0,0-.326-1.007,4.389,4.389,0,0,0-1.6-1.925,3.484,3.484,0,0,0-1.3-.473,11.189,11.189,0,0,0-1.147-.118l-.778-.054a1.362,1.362,0,0,1-.284-.038,1.174,1.174,0,0,1,.286,0l.78.014a9.785,9.785,0,0,1,1.159.095,3.478,3.478,0,0,1,1.35.473,4.277,4.277,0,0,1,1.617,2,3.778,3.778,0,0,1,.218.754A1.079,1.079,0,0,1,466.638,358.977Z" transform="translate(-419.154 -297.972)"/><path class="d" d="M433.75,333.309a39.042,39.042,0,0,1,2.92-3.982c.594-.461,5.675-2.755,6.264-2.386s.236,1.168.236,1.168,2.147-.752,2.376-.456a1.062,1.062,0,0,1,0,1.211s1.182-.182,1.182.184a1.506,1.506,0,0,1-.686,1.234c-.549.411-4.117,2.785-4.4,3.443l-1.156-.071Z" transform="translate(-398.195 -276.248)"/><path class="e" d="M462.05,338.628a1.011,1.011,0,0,1,.106-.222,4.306,4.306,0,0,1,.383-.549,6.387,6.387,0,0,1,1.686-1.419,12.738,12.738,0,0,1,2-.946c.262-.1.473-.177.627-.236a1.034,1.034,0,0,1,.236-.066.9.9,0,0,1-.22.111l-.612.262a16.211,16.211,0,0,0-1.963.962,7.051,7.051,0,0,0-1.684,1.369C462.237,338.333,462.071,338.64,462.05,338.628Z" transform="translate(-419.803 -282.577)"/><path class="e" d="M449.58,336.029a1.2,1.2,0,0,1,.114-.258c.08-.163.2-.4.357-.681a6.514,6.514,0,0,1,.641-.946,2.952,2.952,0,0,1,.487-.485c.2-.132.4-.255.617-.383a16.816,16.816,0,0,1,2.27-1.13,6.135,6.135,0,0,1,.728-.236,1.346,1.346,0,0,1,.279-.05c0,.021-.385.111-.974.376a21.4,21.4,0,0,0-2.242,1.156c-.213.125-.419.251-.61.376a2.952,2.952,0,0,0-.473.456,6.9,6.9,0,0,0-.653.922l-.393.657A1.258,1.258,0,0,1,449.58,336.029Z" transform="translate(-410.282 -280.034)"/></g><g transform="translate(73.076 64.007)"><rect class="h" width="12.612" height="12.612" rx="4.98" transform="translate(89.678 12.094) rotate(-73.53)"/><path class="i" d="M376.291,120.986a.6.6,0,0,1,.022-.108l.076-.295.3-1.1,1.091-3.911.041.076-7.023-2,.092-.051h0v.07l-.025.092-.054.181-.111.362c-.07.241-.139.479-.206.714l-.428,1.4c-.263.9-.514,1.77-.745,2.579l-.048-.082,5.043,1.481,1.437.431.387.117.136.048-.127-.029-.378-.1-1.434-.393-5.1-1.427-.067-.019.019-.067c.232-.809.476-1.675.736-2.582.13-.454.26-.92.4-1.393.067-.235.136-.473.2-.714l.1-.362.054-.184.025-.089v-.07h0l.1-.051,7.016,2.024.06.019-.016.06c-.482,1.63-.882,2.982-1.164,3.943-.14.457-.247.822-.317,1.082-.038.114-.067.206-.089.279a.592.592,0,0,1,0,.07Z" transform="translate(-276.025 -109.509)"/><path class="i" d="M380.4,112.479a4.192,4.192,0,0,1,.634.136c.393.1.951.251,1.614.435h.035v.038c.1.377.206.787.317,1.218l.035.127-.127-.038-.666-.19c-1.107-.317-2.109-.612-2.839-.834l-.092-.029.07-.063c.59-.542.987-.856,1.015-.809,0,0-.1.076-.26.228l-.682.66-.022-.092c.739.2,1.745.476,2.855.793l.666.193-.1.089-.317-1.218.047.048c-.66-.193-1.212-.365-1.586-.485A3.555,3.555,0,0,1,380.4,112.479Z" transform="translate(-282.949 -108.796)"/><path class="i" d="M380.353,122.364a2.316,2.316,0,0,0,.165-.374,1.65,1.65,0,0,0,0-1.078,1.608,1.608,0,1,0-1.491,2.106,1.675,1.675,0,0,0,1.015-.371c.2-.165.285-.292.3-.282a.339.339,0,0,1-.054.1,1.314,1.314,0,0,1-.206.232,1.662,1.662,0,0,1-1.05.435,1.738,1.738,0,0,1-1.494-.733,1.739,1.739,0,1,1,3.08-1.513,1.672,1.672,0,0,1-.057,1.132,1.321,1.321,0,0,1-.152.273C380.381,122.342,380.356,122.367,380.353,122.364Z" transform="translate(-281.521 -113.701)"/><rect class="g" width="17.671" height="17.671" rx="6.37" transform="translate(0 22.478) rotate(-12.08)"/><path class="i" d="M92.533,179.668a1.841,1.841,0,0,1,.317.133l.888.425h.035l-.019.038c-.292.542-.682,1.269-1.151,2.125l-.019-.082,4.327,2.775-.127.029c.368-.634.758-1.3,1.158-1.989l.038-.06.067.016a6.787,6.787,0,0,1,1.586.612,3.045,3.045,0,0,1,1.3,1.224,1.586,1.586,0,0,1,.14.45l.035.238-.019.241a1.609,1.609,0,0,1-.108.466,2.032,2.032,0,0,1-.184.438,2.886,2.886,0,0,1-1.38,1.31,3.1,3.1,0,0,1-1.9.2,3.49,3.49,0,0,1-.891-.317c-.279-.146-.52-.317-.777-.476l-2.9-1.849-2.617-1.681-.606-.387a3.587,3.587,0,0,1-.568-.419,1.713,1.713,0,0,1-.561-1.2,2.512,2.512,0,0,1,.952-2,2.7,2.7,0,0,1,1.586-.6,2.643,2.643,0,0,1,1.059.162,2.137,2.137,0,0,1,.254.114.352.352,0,0,1,.082.048,3.131,3.131,0,0,0-1.392-.241,2.626,2.626,0,0,0-1.51.609,2.4,2.4,0,0,0-.872,1.9,1.561,1.561,0,0,0,.533,1.107,3.509,3.509,0,0,0,.552.4l.606.381,2.626,1.662,2.9,1.84c.254.159.5.333.761.466a3.234,3.234,0,0,0,.837.289,2.9,2.9,0,0,0,1.767-.184,2.652,2.652,0,0,0,1.269-1.215,2.075,2.075,0,0,0,.171-.409,1.49,1.49,0,0,0,.1-.419l.019-.213-.032-.206a1.36,1.36,0,0,0-.124-.4,2.855,2.855,0,0,0-1.215-1.139,6.6,6.6,0,0,0-1.535-.6l.1-.048-1.17,1.982-.051.082-.076-.051-4.269-2.817-.051-.032.029-.051,1.2-2.1v.054l-.856-.444A2.158,2.158,0,0,1,92.533,179.668Z" transform="translate(-84.45 -154.444)"/><path class="i" d="M114.109,181.455a6.291,6.291,0,0,1-.355-1.405,6.207,6.207,0,0,1-.193-1.44,6.5,6.5,0,0,1,.355,1.408,6.386,6.386,0,0,1,.193,1.437Z" transform="translate(-101.493 -153.96)"/><path class="i" d="M112.732,182.12a6.822,6.822,0,0,1-1.434.39,7.143,7.143,0,0,1-1.478.228,6.805,6.805,0,0,1,1.434-.387A6.716,6.716,0,0,1,112.732,182.12Z" transform="translate(-98.94 -156.357)"/></g><g transform="translate(136.487 60.138)"><rect class="c" width="20.069" height="29.426" transform="translate(0.07 0.082)"/><path class="f" d="M295.566,118.209v-2.173c0-1.412,0-3.464-.022-6.058,0-5.183-.022-12.529-.038-21.195l.076.076H275.516l.083-.082c0,11.07,0,21.287-.019,29.426l-.063-.067,14.591.035,4.041.016h.029l-4.028.016-14.635.035h-.067v-.067c0-8.139,0-18.356-.016-29.426V88.7h20.224v.1c0,8.685-.029,16.047-.038,21.252,0,2.585,0,4.634-.019,6.027v2A.267.267,0,0,1,295.566,118.209Z" transform="translate(-275.43 -88.7)"/><path class="f" d="M278.188,161.734a2.766,2.766,0,0,1,.022-5.021,1.163,1.163,0,0,0,.485-.317c.178-.235.108-.565.114-.86a1.548,1.548,0,0,1,1.491-1.446l4.52,1.776v4.758Z" transform="translate(-276.225 -133.349)"/><path class="g" d="M276.41,173.859a18.036,18.036,0,0,1,7.483-3.264,35.847,35.847,0,0,1,8.726,0,12.723,12.723,0,0,1,3.6,1.247l.022,2.084-4.441-.016Z" transform="translate(-276.099 -144.43)"/><path class="f" d="M295.7,101.887c-.431-1.2-2.474-2.22-3.6-2.82a3.481,3.481,0,0,0-4.124.222c-1.748-1.37-4.032-2.664-6.16-2.033a4.627,4.627,0,0,0-3.334,5.075c.273,1.269,1.2,2.4,1.193,3.714a6.771,6.771,0,0,1-.8,2.538,3.321,3.321,0,0,0-.244,2.588c.339.758,1.132,1.212,1.586,1.9a9.962,9.962,0,0,1,.7,1.9,5.515,5.515,0,0,0,6.185,3.08,8.329,8.329,0,0,0,5.541-4.682,17.394,17.394,0,0,0,1.446-7.315" transform="translate(-277.463 -94.43)"/><path class="j" d="M300.8,130.5l-.086-17.646-7.422-2.262a4.054,4.054,0,0,0-4.587,3.629,44.28,44.28,0,0,0-.225,8.247c.517,4.07,3.6,4.682,3.6,4.682s-.025,1.51-.057,3.277a4.372,4.372,0,0,0,.844,2.668h7.083A4.365,4.365,0,0,0,300.8,130.5Z" transform="translate(-284.257 -103.62)"/><path class="k" d="M300.049,160.08a10.575,10.575,0,0,0,5.472-1.31,5.2,5.2,0,0,1-5.491,2.385Z" transform="translate(-292.227 -136.544)"/><path class="f" d="M308,122.638c.051.155.612.1,1.269.2s1.177.295,1.269.162c.041-.063-.048-.209-.257-.365a2.157,2.157,0,0,0-.933-.358,2.109,2.109,0,0,0-1,.086C308.108,122.451,308,122.568,308,122.638Z" transform="translate(-297.669 -111.609)"/><path class="f" d="M291.723,123.262c.1.13.485,0,.952,0s.85.114.952,0c.041-.063-.016-.193-.184-.317a1.358,1.358,0,0,0-1.526,0C291.742,123.069,291.682,123.2,291.723,123.262Z" transform="translate(-286.547 -111.922)"/><path class="k" d="M307.55,137.519a.149.149,0,0,0,.152.143.152.152,0,0,0,.146-.152.149.149,0,1,0-.3,0Z" transform="translate(-297.362 -121.925)"/><path class="k" d="M294.277,135.686a.149.149,0,1,0,.3,0,.152.152,0,0,0-.152-.146A.149.149,0,0,0,294.277,135.686Z" transform="translate(-288.297 -120.683)"/><path class="k" d="M291.74,136.985a.151.151,0,1,0,.152-.155.152.152,0,0,0-.152.155Z" transform="translate(-286.566 -121.563)"/><path class="k" d="M290.89,135.062a.149.149,0,1,0,.143-.152A.149.149,0,0,0,290.89,135.062Z" transform="translate(-285.986 -120.252)"/><path class="k" d="M309.76,139.516a.146.146,0,0,0,.152.143.149.149,0,1,0-.152-.143Z" transform="translate(-298.87 -123.291)"/><path class="k" d="M311.44,137.585a.149.149,0,1,0,.143-.155A.152.152,0,0,0,311.44,137.585Z" transform="translate(-300.018 -121.973)"/><path class="f" d="M303.74,105.957a7.007,7.007,0,0,1,7.483-.381c2.3,1.354,3.553,3.308,3.673,6.531v4.108c-.121,1.871.279,2.956-.634,3.273-1.269.431-2.22,3.844-3.305,3.606-1.335-1.037-1.358-1.643-1.405-3.765-.051-2.281-.736-4.993.159-6.461a8.538,8.538,0,0,1-5.754-6.909" transform="translate(-294.76 -99.607)"/><path class="h" d="M290.68,97.2c0,.022.349.022.891.146a3.462,3.462,0,0,1,.438.127,4.7,4.7,0,0,1,.488.184,5.468,5.468,0,0,1,1.906,1.415,4.829,4.829,0,0,1,.317.412,4.007,4.007,0,0,1,.244.384c.279.482.381.818.4.809a1.274,1.274,0,0,0-.07-.232,1.9,1.9,0,0,0-.1-.27,3.339,3.339,0,0,0-.168-.339,3.959,3.959,0,0,0-.238-.4c-.089-.14-.2-.276-.317-.425a5.217,5.217,0,0,0-2.433-1.618,4.44,4.44,0,0,0-.447-.114,3.4,3.4,0,0,0-.377-.06,2.031,2.031,0,0,0-.285-.022A1.2,1.2,0,0,0,290.68,97.2Z" transform="translate(-285.843 -94.497)"/><path class="h" d="M281.29,119.779l-.029-.032-.086-.1a4.677,4.677,0,0,1-.317-.377,2.15,2.15,0,0,1-.384-.682,1.245,1.245,0,0,1-.051-.479,1.321,1.321,0,0,1,.165-.511,8.835,8.835,0,0,1,.764-1.012,5.694,5.694,0,0,0,1.107-2.855,11.381,11.381,0,0,0,0-1.738,6.108,6.108,0,0,1,.1-1.713A3.489,3.489,0,0,1,284.418,108a3.292,3.292,0,0,1,1.209-.317,3.632,3.632,0,0,1,1.783.317,3.944,3.944,0,0,1,.435.244l.108.07c.025,0,.038.025.038.022a2.537,2.537,0,0,0-.565-.368,3.565,3.565,0,0,0-1.8-.362,3.277,3.277,0,0,0-1.24.317,3.584,3.584,0,0,0-1.9,2.331,5.971,5.971,0,0,0-.1,1.738,12.6,12.6,0,0,1,.016,1.726,5.709,5.709,0,0,1-1.078,2.82,8.6,8.6,0,0,0-.761,1.025,1.383,1.383,0,0,0-.168.539,1.269,1.269,0,0,0,.063.5,2.118,2.118,0,0,0,.4.688c.14.168.26.289.339.368l.1.092Z" transform="translate(-278.81 -101.604)"/><path class="f" d="M291.753,131.152c.06.07.46-.213,1.015-.2s.952.3,1.021.232-.032-.152-.206-.286a1.405,1.405,0,0,0-.815-.27,1.351,1.351,0,0,0-.812.244C291.781,131,291.721,131.121,291.753,131.152Z" transform="translate(-286.57 -117.329)"/><path class="f" d="M309.683,131.442c.063.067.46-.216,1.018-.2s.952.3,1.021.235-.032-.155-.209-.289a1.418,1.418,0,0,0-.815-.266,1.335,1.335,0,0,0-.812.244C309.711,131.29,309.651,131.41,309.683,131.442Z" transform="translate(-298.812 -117.527)"/><path class="f" d="M300.049,133.183a3.682,3.682,0,0,0-.9-.181c-.143-.016-.276-.048-.3-.146a.72.72,0,0,1,.1-.419c.14-.343.285-.7.441-1.075a18.089,18.089,0,0,0,1-2.814,18.443,18.443,0,0,0-1.224,2.728c-.146.377-.289.736-.425,1.082a.808.808,0,0,0-.082.555.352.352,0,0,0,.228.213,1.076,1.076,0,0,0,.241.038A3.623,3.623,0,0,0,300.049,133.183Z" transform="translate(-291.282 -115.909)"/><path class="g" d="M303.62,146.626a1,1,0,0,1,.907-.355.917.917,0,0,1,.634.352.581.581,0,0,1,.032.663.669.669,0,0,1-.733.171,2.068,2.068,0,0,1-.7-.438.6.6,0,0,1-.155-.168.187.187,0,0,1,0-.209" transform="translate(-294.644 -128.004)"/><path class="f" d="M304.318,144.48c-.089,0-.1.6-.634,1.015s-1.167.339-1.174.425c0,.038.14.121.412.133a1.516,1.516,0,0,0,.98-.317,1.313,1.313,0,0,0,.488-.853C304.426,144.645,304.359,144.477,304.318,144.48Z" transform="translate(-293.92 -126.787)"/><path class="h" d="M316.5,113.837a2.22,2.22,0,0,1-.463.1,8.582,8.582,0,0,1-1.294.089,9.443,9.443,0,0,1-7.435-3.66,8.629,8.629,0,0,1-.717-1.078,2.6,2.6,0,0,1-.206-.425,2.878,2.878,0,0,1,.263.393,10.44,10.44,0,0,0,.752,1.037,9.782,9.782,0,0,0,7.346,3.616,10.548,10.548,0,0,0,1.269-.035,3.047,3.047,0,0,1,.485-.035Z" transform="translate(-296.563 -102.465)"/><path class="h" d="M314.969,122.458a7.426,7.426,0,0,0,.454-.634,5.121,5.121,0,0,0,.755-1.938,4.546,4.546,0,0,0-.574-2.978,4.928,4.928,0,0,0-1.183-1.373,5.828,5.828,0,0,0-1.729-.907c-.634-.232-1.269-.406-1.887-.634a7.881,7.881,0,0,1-1.665-.844,8.248,8.248,0,0,1-2.22-2.22,7.71,7.71,0,0,1-.952-1.9,5.062,5.062,0,0,1-.159-.555,1.424,1.424,0,0,1-.038-.2c.019,0,.079.266.257.733a8.289,8.289,0,0,0,3.194,4.013,7.841,7.841,0,0,0,1.64.818c.6.222,1.24.4,1.887.634a6,6,0,0,1,1.773.952,4.987,4.987,0,0,1,1.212,1.427,4.6,4.6,0,0,1,.558,3.07,4.92,4.92,0,0,1-.818,1.954,3.95,3.95,0,0,1-.362.45A.92.92,0,0,1,314.969,122.458Z" transform="translate(-296.146 -102.062)"/><path class="h" d="M290.855,156.816a.885.885,0,0,1-.212.067,2.861,2.861,0,0,1-.612.044,3.965,3.965,0,0,1-1.9-.634,3.6,3.6,0,0,1-1.329-1.5,3.03,3.03,0,0,1-.2-.574.577.577,0,0,1-.029-.225c.029,0,.1.317.336.749a3.785,3.785,0,0,0,1.313,1.415,4.273,4.273,0,0,0,1.83.634C290.538,156.848,290.852,156.788,290.855,156.816Z" transform="translate(-283.033 -133.28)"/></g><g transform="translate(96.8 46.87)"><path class="f" d="M205.486,46.911,160.2,46.87a9.865,9.865,0,0,0-9.871,9.874l-.022,113.53a9.868,9.868,0,0,0,9.858,9.858l45.286.025a9.862,9.862,0,0,0,9.868-9.858l.022-113.53a9.862,9.862,0,0,0-9.858-9.858Zm6.836,121.736a6.905,6.905,0,0,1-6.918,6.9l-45.194-.025a6.909,6.909,0,0,1-6.905-6.912l.022-110.812a6.905,6.905,0,0,1,6.912-6.908h10.785a2.182,2.182,0,0,1,2.132,2.22v1.586a2.182,2.182,0,0,0,2.132,2.22h17.129a2.179,2.179,0,0,0,2.135-2.22V53.106a2.179,2.179,0,0,1,2.132-2.22h8.78a6.909,6.909,0,0,1,6.883,6.937Z" transform="translate(-150.31 -46.87)"/><rect class="f" width="23.498" height="10.461" transform="translate(22.197 103.789)"/><path class="g" d="M218.825,374.08H198.613a8.457,8.457,0,0,1-16.9,0H159.83v18.128a6.909,6.909,0,0,0,6.9,6.905l45.194.025a6.905,6.905,0,0,0,6.912-6.909Z" transform="translate(-156.81 -270.291)"/><path class="l" d="M245.075,425.58v1.786h-.13v-1.653h-.435V425.6Z" transform="translate(-214.63 -305.455)"/><path class="l" d="M247.72,426.447c0-.558.289-.907.7-.907s.7.349.7.907-.289.9-.7.9S247.72,427.005,247.72,426.447Zm1.269,0c0-.5-.232-.787-.571-.787s-.568.289-.568.787.232.783.568.783S248.989,426.955,248.989,426.447Z" transform="translate(-216.822 -305.428)"/><path class="l" d="M253,427.048a.108.108,0,1,1,.047.109.108.108,0,0,1-.047-.109Zm0,1.136a.108.108,0,1,1,.047.109A.108.108,0,0,1,253,428.184Z" transform="translate(-220.424 -306.371)"/><path class="l" d="M254.62,426.447c0-.558.289-.907.7-.907s.7.349.7.907-.289.9-.7.9S254.62,427.005,254.62,426.447Zm1.269,0c0-.5-.232-.787-.568-.787s-.571.289-.571.787.235.783.571.783S255.889,426.955,255.889,426.447Z" transform="translate(-221.533 -305.428)"/><path class="l" d="M261.322,426.871h-.377v.495h-.136v-.495H259.79v-.1l.971-1.2h.146l-.952,1.177h.853v-.438h.124v.438h.378Z" transform="translate(-225.064 -305.455)"/><rect class="i" width="6.864" height="6.864" rx="3.432" transform="translate(9.04 112.255)"/><path class="l" d="M313.227,406.325h-3.806a1.494,1.494,0,0,1-1.491-1.491v-3.806a1.491,1.491,0,0,1,1.491-1.488h3.806a1.491,1.491,0,0,1,1.491,1.488v3.806a1.494,1.494,0,0,1-1.491,1.491Zm-3.806-6.629a1.332,1.332,0,0,0-1.332,1.329v3.806a1.335,1.335,0,0,0,1.332,1.332h3.806a1.332,1.332,0,0,0,1.332-1.332v-3.806a1.332,1.332,0,0,0-1.332-1.329Z" transform="translate(-257.934 -287.675)"/><path class="g" d="M187.5,408.07H185a.317.317,0,0,0-.317.317v1.656a.317.317,0,0,0,.317.317h.212v.73l.844-.73H187.5a.317.317,0,0,0,.317-.317V408.4a.317.317,0,0,0-.317-.327Zm-2.046,1.459a.247.247,0,1,1,.244-.244.244.244,0,0,1-.244.244Zm.761,0a.247.247,0,1,1,.247-.244A.247.247,0,0,1,186.215,409.529Zm.815,0a.247.247,0,1,1,.247-.244A.247.247,0,0,1,187.03,409.529Z" transform="translate(-173.778 -293.499)"/><path class="l" d="M315.671,408.338a.079.079,0,0,1-.076-.073,1.9,1.9,0,0,1,1-2.087.079.079,0,0,1,.1.041.076.076,0,0,1-.041.1,1.735,1.735,0,0,0-.907,1.925.076.076,0,0,1-.07.086Z" transform="translate(-263.153 -292.204)"/><path class="l" d="M314.626,411.383a.089.089,0,0,1-.06-.029l-.5-.587a.079.079,0,0,1,0-.114.083.083,0,0,1,.111,0l.435.514.384-.511a.076.076,0,0,1,.111,0,.079.079,0,0,1,.016.111l-.444.587a.082.082,0,0,1-.06.032Z" transform="translate(-262.108 -295.249)"/><path class="l" d="M318.191,409.636a.08.08,0,0,1-.032-.152,1.739,1.739,0,0,0,.907-1.925.079.079,0,0,1,.07-.089.086.086,0,0,1,.089.07,1.915,1.915,0,0,1-1.006,2.09Z" transform="translate(-264.886 -293.089)"/><path class="l" d="M319.829,408.215a.072.072,0,0,1-.048-.016.079.079,0,0,1-.016-.111l.444-.587a.076.076,0,0,1,.06-.032h0a.089.089,0,0,1,.06.029l.5.587a.079.079,0,0,1,0,.111.083.083,0,0,1-.114,0l-.435-.514-.384.507A.073.073,0,0,1,319.829,408.215Z" transform="translate(-266.005 -293.09)"/><circle class="a" cx="4.669" cy="4.669" r="4.669" transform="translate(7.752 11.59)"/><path class="f" d="M185.889,96.625a.086.086,0,0,1-.057-.025l-1.218-1.269a.082.082,0,0,1,0-.111l1.218-1.269a.082.082,0,0,1,.114,0,.079.079,0,0,1,0,.114l-1.164,1.224,1.164,1.228a.079.079,0,0,1,0,.114A.092.092,0,0,1,185.889,96.625Z" transform="translate(-173.718 -79.001)"/><path class="f" d="M188,98.039h-3.334a.079.079,0,0,1-.079-.079.082.082,0,0,1,.079-.079H188a.079.079,0,0,1,0,.159Z" transform="translate(-173.717 -81.7)"/><circle class="g" cx="4.2" cy="4.2" r="4.2" transform="translate(49.472 101.376) rotate(-80.74)"/><path class="l" d="M319.828,351.666a.758.758,0,0,1-.758-.755v-1.653a.758.758,0,1,1,1.516,0v1.653A.758.758,0,0,1,319.828,351.666Zm0-3a.6.6,0,0,0-.6.6v1.653a.6.6,0,1,0,1.2,0v-1.653a.6.6,0,0,0-.6-.6Z" transform="translate(-265.54 -252.824)"/><path class="l" d="M318.288,356.073a1.361,1.361,0,0,1-1.063-.422,2.024,2.024,0,0,1-.4-1.405.08.08,0,0,1,.159.016,1.9,1.9,0,0,0,.362,1.285,1.215,1.215,0,0,0,.952.368,1.269,1.269,0,0,0,.952-.368,1.964,1.964,0,0,0,.435-1.291.079.079,0,0,1,.159,0,2.1,2.1,0,0,1-.479,1.405A1.424,1.424,0,0,1,318.288,356.073Z" transform="translate(-264 -256.699)"/><path class="l" d="M321.289,360.98a.079.079,0,0,1-.079-.079v-1.161a.079.079,0,1,1,.159,0V360.9A.079.079,0,0,1,321.289,360.98Z" transform="translate(-267.001 -260.445)"/><circle class="g" cx="7.384" cy="7.384" r="7.384" transform="translate(25.969 96.043)"/><path class="l" d="M249.091,365.908a1.269,1.269,0,0,0-1.9.387.764.764,0,0,0,.178.951c.679.666,2.1,2,2.722,2.582a1.535,1.535,0,0,0,1.269.409,1.316,1.316,0,0,0,.894-.555c.7-.952-.974-1.707-.974-1.707l-.733.768-1.706-1.646.749-.825Z" transform="translate(-216.394 -264.523)"/><path class="l" d="M1.646-6.3H.36v3.275H1.646A1.551,1.551,0,0,0,3.284-4.691,1.546,1.546,0,0,0,1.646-6.3Zm-.674.585h.674A.974.974,0,0,1,2.671-4.7.972.972,0,0,1,1.646-3.62H.973Zm2.676.384v2.306h.571V-4.242a.532.532,0,0,1,.575-.585.57.57,0,0,1,.412.15l.257-.5a.875.875,0,0,0-.594-.22.68.68,0,0,0-.65.327l-.042-.267ZM5.665-3.32a.337.337,0,0,0,.674,0A.337.337,0,0,0,5.665-3.32ZM10.544-6.3h-1.6v.575h.987v1.3A.79.79,0,0,1,9.1-3.54a.74.74,0,0,1-.828-.847H7.667A1.329,1.329,0,0,0,9.1-2.96a1.369,1.369,0,0,0,1.441-1.464Zm1.576.922a1.154,1.154,0,0,0-1.193,1.2,1.148,1.148,0,0,0,1.2,1.2,1.151,1.151,0,0,0,1.2-1.2A1.166,1.166,0,0,0,12.12-5.378Zm0,.519a.651.651,0,0,1,.627.683.625.625,0,0,1-.627.678.625.625,0,0,1-.627-.678A.634.634,0,0,1,12.125-4.859ZM13.72-6.3v3.275h.571V-4.2a.591.591,0,0,1,.571-.632c.3,0,.524.178.524.6v1.212h.571V-4.242c0-.678-.29-1.123-.945-1.123a.852.852,0,0,0-.72.346V-6.3Zm4.987,3.275V-4.237a1,1,0,0,0-.978-1.132,1.04,1.04,0,0,0-.758.346l-.037-.313h-.51v2.311h.566V-4.2a.607.607,0,0,1,.589-.646.55.55,0,0,1,.557.617v1.207Z" transform="translate(23.946 121.072)"/></g></g></svg>