<svg xmlns="http://www.w3.org/2000/svg" width="124.371" height="92.671" viewBox="0 0 124.371 92.671"><defs><style>.a{fill:#e0e0e0;}.b{fill:#e6e6e6;}.c{fill:#f0f0f0;}.d,.i,.j,.o,.p{fill:#fafafa;}.e{fill:#f5f5f5;}.f{fill:#e4897b;}.g{fill:#263238;}.h,.r,.s{fill:#b24bf3;}.i{opacity:0.6;}.j,.q{opacity:0.3;}.k{fill:#ce6f64;}.l{fill:#182137;}.m{opacity:0.5;}.n{fill:#de5753;}.o{opacity:0.1;}.p{opacity:0.8;}.r,.s{mix-blend-mode:multiply;isolation:isolate;}.s{opacity:0.7;}</style></defs><g transform="translate(0 -55)"><g transform="translate(0 55)"><rect class="a" width="124.371" height="0.062" transform="translate(0 81.438)"/><rect class="a" width="2.639" height="0.062" transform="translate(102.855 84.928)"/><rect class="a" width="10.733" height="0.062" transform="translate(90.296 84.958)"/><rect class="a" width="18.113" height="0.062" transform="translate(58.915 84.366)"/><rect class="a" width="5.748" height="0.062" transform="translate(42.746 85.445)"/><rect class="a" width="7.915" height="0.062" transform="translate(21.424 84.396)"/><rect class="a" width="7.398" height="0.062" transform="translate(30.72 84.396)"/><rect class="a" width="7.554" height="0.062" transform="translate(16.24 83.309)"/><path class="a" d="M87.657,125.344H39.628a1.42,1.42,0,0,1-1.418-1.42V56.408A1.42,1.42,0,0,1,39.628,55h48.03a1.42,1.42,0,0,1,1.42,1.42v67.5A1.42,1.42,0,0,1,87.657,125.344ZM39.628,55.05a1.358,1.358,0,0,0-1.356,1.358v67.516a1.358,1.358,0,0,0,1.356,1.358h48.03a1.361,1.361,0,0,0,1.358-1.358V56.408a1.361,1.361,0,0,0-1.358-1.358Z" transform="translate(-28.706 -55)"/><path class="a" d="M303.952,125.344H255.92a1.423,1.423,0,0,1-1.42-1.42V56.408A1.423,1.423,0,0,1,255.92,55h48.032a1.42,1.42,0,0,1,1.415,1.408v67.516A1.42,1.42,0,0,1,303.952,125.344ZM255.92,55.05a1.361,1.361,0,0,0-1.358,1.358v67.516a1.361,1.361,0,0,0,1.358,1.358h48.032a1.361,1.361,0,0,0,1.358-1.358V56.408a1.361,1.361,0,0,0-1.358-1.358Z" transform="translate(-191.195 -55)"/><path class="b" d="M117.523,284.61h0c.137,0,.274,0,.413.012a5.89,5.89,0,0,1,5.273,7.405,29.5,29.5,0,0,0-.923,7.671v7.532a1,1,0,0,1-.995.995H97.39V284.61Z" transform="translate(-73.165 -227.496)"/><path class="c" d="M73.72,290.513a5.888,5.888,0,1,1,11.574,1.532,29.5,29.5,0,0,0-.923,7.671v7.532a1,1,0,0,1-.995.995H75.834a1,1,0,0,1-.995-.995v-7.975a26.911,26.911,0,0,0-.91-7.186A5.883,5.883,0,0,1,73.72,290.513Z" transform="translate(-55.383 -227.512)"/><rect class="b" width="30.23" height="14.335" transform="translate(62.569 80.724) rotate(180)"/><path class="a" d="M0,0H37.493V15.954a4.457,4.457,0,0,1-4.457,4.457H4.45A4.457,4.457,0,0,1,0,15.954Z" transform="translate(80.304 69.63) rotate(180)"/><path class="c" d="M0,0H37.49V16.168a4.241,4.241,0,0,1-4.241,4.241H4.241A4.241,4.241,0,0,1,0,16.168V0Z" transform="translate(74.692 69.63) rotate(180)"/><path class="a" d="M.386,0H28.934a1.293,1.293,0,0,1,1.293,1.293V4.545a1.293,1.293,0,0,1-1.293,1.293H.386A.386.386,0,0,1,0,5.452V.386A.386.386,0,0,1,.386,0Z" transform="translate(61.549 70.916) rotate(180)"/><path class="b" d="M270.541,284.61h0c.137,0,.276,0,.415.012a5.89,5.89,0,0,1,5.273,7.405,29.4,29.4,0,0,0-.925,7.671v7.532a1,1,0,0,1-.995.995h-23.9V284.61Z" transform="translate(-188.122 -227.496)"/><path class="c" d="M226.73,290.594a5.89,5.89,0,0,1,11.766-.383,5.95,5.95,0,0,1-.189,1.915,29.5,29.5,0,0,0-.923,7.671v7.532a1,1,0,0,1-.995.995h-7.544a1,1,0,0,1-.995-.995v-7.975a26.814,26.814,0,0,0-.913-7.186A5.883,5.883,0,0,1,226.73,290.594Z" transform="translate(-170.332 -227.593)"/><path class="a" d="M96.916,380.246h57.352a.716.716,0,0,0,.719-.716H96.2A.716.716,0,0,0,96.916,380.246Z" transform="translate(-72.271 -298.806)"/><rect class="b" width="5.159" height="26.966" transform="translate(107.787 80.423) rotate(180)"/><rect class="b" width="22.486" height="1.012" transform="translate(106.797 81.438) rotate(180)"/><rect class="c" width="19.307" height="26.966" transform="translate(83.321 53.457)"/><rect class="b" width="17.845" height="17.158" transform="translate(84.052 54.345)"/><rect class="b" width="17.845" height="6.184" transform="translate(84.052 72.232)"/><rect class="a" width="3.763" height="17.158" transform="translate(84.052 54.345)"/><rect class="a" width="3.763" height="6.184" transform="translate(84.052 72.232)"/><rect class="a" width="44.734" height="32.451" transform="translate(87.356 40.851) rotate(180)"/><rect class="c" width="47.119" height="32.451" transform="translate(86.537 40.851) rotate(180)"/><rect class="d" width="30.451" height="45.119" transform="translate(85.54 9.4) rotate(90)"/><circle class="a" cx="8.014" cy="8.014" r="8.014" transform="translate(47.838 30.226) rotate(-80.87)"/><path class="c" d="M175.834,168.482a4.5,4.5,0,0,1,3.273-1.585,1.2,1.2,0,0,1,.871.328,12.007,12.007,0,0,1,6.127-1.769,3.893,3.893,0,0,1,2.209.659c2.122-1.726,4.826-2.953,6.788-2.953,1.114,0,1.806.4,2.052,1.057a14.113,14.113,0,0,1,6.219-1.871c2.875,0,3.808,1.808,2.632,4.35.473.48,2.736,1.149,2.647,1.95H175.71A.848.848,0,0,1,175.834,168.482Z" transform="translate(-132.004 -135.648)"/><path class="c" d="M213.807,126.147a.816.816,0,0,1,.691.333,8.835,8.835,0,0,1,5.089-1.8,2.632,2.632,0,0,1,1.764.669h0c1.821-1.741,4.094-2.985,5.691-2.985a1.461,1.461,0,0,1,1.614,1.072,10.423,10.423,0,0,1,5.171-1.9c1.821,0,2.627,1.112,2.375,2.818a5.273,5.273,0,0,1,2.443-.789A1.205,1.205,0,0,1,240,125.01a1.634,1.634,0,0,1,.249.012,1.6,1.6,0,0,1,1.341,2.584H211.16A3.635,3.635,0,0,1,213.807,126.147Z" transform="translate(-158.636 -104.989)"/><circle class="a" cx="8.014" cy="8.014" r="8.014" transform="translate(13.508 26.946) rotate(-81.3)"/><circle class="c" cx="8.014" cy="8.014" r="8.014" transform="translate(12.999 26.88) rotate(-80.87)"/><path class="a" d="M74.961,115.178a7.017,7.017,0,1,1-1.52-4.35l.02.022A6.965,6.965,0,0,1,74.961,115.178Z" transform="translate(-45.771 -94.945)"/><path class="d" d="M75.995,116.312a6.655,6.655,0,1,1-1.512-4.351l.02.022A6.965,6.965,0,0,1,75.995,116.312Z" transform="translate(-46.805 -96.079)"/><path class="a" d="M82.908,124.555a.5.5,0,0,1-.445-.286l-1.786-3.811a.5.5,0,1,1,.9-.423l1.582,3.383,2.286-.925a.5.5,0,0,1,.373.923l-2.724,1.1A.5.5,0,0,1,82.908,124.555Z" transform="translate(-60.574 -103.644)"/><path class="c" d="M367.27,294.709c1.856.249,3-3.781-1.094-7.2C366.41,291.467,364.032,294.261,367.27,294.709Z" transform="translate(-274.624 -229.675)"/><path class="c" d="M354.562,302.45c2.694-1.888.851-8.482-7.482-8C350.684,299.291,349.868,305.741,354.562,302.45Z" transform="translate(-260.747 -234.867)"/><path class="c" d="M371.657,310.243c-1.788-1.928.759-6.778,7.2-5.007C375.219,308.429,374.779,313.6,371.657,310.243Z" transform="translate(-278.791 -242.704)"/><path class="a" d="M360.938,331.349h5.535l.418-3.679h-6.37Z" transform="translate(-270.843 -259.846)"/><rect class="a" width="7.194" height="0.811" transform="translate(96.46 68.481) rotate(180)"/></g><g transform="translate(13.957 142.04)"><ellipse class="e" cx="48.229" cy="2.816" rx="48.229" ry="2.816" transform="translate(0 0)"/></g><g transform="translate(15.5 67.251)"><rect class="f" width="1.905" height="4.239" transform="translate(79.141 71.232) rotate(-21.161)"/><path class="f" d="M411.812,395.456h-1.873l-.689-4.336h1.873Z" transform="translate(-322.953 -319.764)"/><path class="g" d="M400.793,407.68H402.9a.152.152,0,0,1,.152.127l.274,1.667a.291.291,0,0,1-.294.331c-.734-.012-1.09-.055-2.015-.055-.57,0-2.288.06-3.074.06s-.843-.779-.517-.848a7.8,7.8,0,0,0,3.06-1.167A.5.5,0,0,1,400.793,407.68Z" transform="translate(-313.929 -332.204)"/><path class="g" d="M374.452,403.226l1.99-.58a.152.152,0,0,1,.184.077l.746,1.492a.284.284,0,0,1-.187.4c-.721.2-1.209.321-2.112.585-.627.182-1.261.478-1.88.674a8.912,8.912,0,0,1-1.95.142c-.769,0-.94-.811-.612-.848a3.252,3.252,0,0,0,1.408-.281,6.423,6.423,0,0,0,2.007-1.388A.952.952,0,0,1,374.452,403.226Z" transform="translate(-293.821 -328.417)"/><path class="f" d="M332.343,161.622c-.154.391-.3.731-.468,1.09s-.333.7-.51,1.047a21.164,21.164,0,0,1-1.187,2.04,12,12,0,0,1-1.562,1.943,5.972,5.972,0,0,1-1.109.883,3.448,3.448,0,0,1-1.682.517,2.6,2.6,0,0,1-.5-.035,3.482,3.482,0,0,1-.425-.1,4.77,4.77,0,0,1-.691-.271,9.075,9.075,0,0,1-1.1-.654,17.975,17.975,0,0,1-1.841-1.468,31.5,31.5,0,0,1-3.149-3.3l.965-.97c1.142.9,2.313,1.8,3.482,2.622a20.871,20.871,0,0,0,1.766,1.124,6.373,6.373,0,0,0,.853.405,1.1,1.1,0,0,0,.52.117,1.2,1.2,0,0,0,.393-.2,3.92,3.92,0,0,0,.592-.54,10.815,10.815,0,0,0,1.144-1.577c.358-.582.694-1.2,1.012-1.823.159-.313.313-.632.463-.95s.3-.654.428-.948Z" transform="translate(-254.491 -146.569)"/><path class="f" d="M316.534,165.655l-.266-1.475-1.9,1.164s.6.93,1.231.945Z" transform="translate(-251.673 -149.273)"/><path class="f" d="M313.962,160.61l-1.482,1.007.468,1.045,1.9-1.164Z" transform="translate(-250.254 -146.591)"/><path class="h" d="M362.768,152.953c.458,1.7-2.035,5.119-2.035,5.119l-3.273-1.836s.609-1.405,1.358-2.836C360.025,151.09,362.243,151.013,362.768,152.953Z" transform="translate(-284.045 -139.805)"/><path class="i" d="M362.768,152.953c.458,1.7-2.035,5.119-2.035,5.119l-3.273-1.836s.609-1.405,1.358-2.836C360.025,151.09,362.243,151.013,362.768,152.953Z" transform="translate(-284.045 -139.805)"/><path class="h" d="M362.71,163.5l1.286.721.224-3.945C363.474,160.855,362.944,162.586,362.71,163.5Z" transform="translate(-287.989 -146.343)"/><path class="j" d="M362.71,163.5l1.286.721.224-3.945C363.474,160.855,362.944,162.586,362.71,163.5Z" transform="translate(-287.989 -146.343)"/><rect class="k" width="1.91" height="2.191" transform="translate(79.4 71.569) rotate(-21.11)"/><path class="k" d="M411.126,391.12H409.25l.356,2.236h1.873Z" transform="translate(-322.953 -319.764)"/><path class="h" d="M376.042,150.107c-1.908,7.246-1.381,14.748-1.54,16.285H364.486c-1.492-10.532,1.06-16.188,1.06-16.188s.8-.214,1.821-.381l.286-.042c.261-.037.53-.072.8-.1a36.827,36.827,0,0,1,4.258,0c.221,0,.445.027.664.045l.261.025C374.93,149.88,376.042,150.107,376.042,150.107Z" transform="translate(-288.971 -138.337)"/><path class="i" d="M376.042,150.107c-1.908,7.246-1.381,14.748-1.54,16.285H364.486c-1.492-10.532,1.06-16.188,1.06-16.188s.8-.214,1.821-.381l.286-.042c.261-.037.53-.072.8-.1a36.827,36.827,0,0,1,4.258,0c.221,0,.445.027.664.045l.261.025C374.93,149.88,376.042,150.107,376.042,150.107Z" transform="translate(-288.971 -138.337)"/><path class="h" d="M364.62,183.057q.052.674.132,1.383l7.462-2.418a5.346,5.346,0,0,0,2.865-2.077c.027-.664.065-1.363.122-2.092.025-.356.057-.719.09-1.087s.077-.774.122-1.167Z" transform="translate(-289.424 -157.853)"/><path class="j" d="M364.62,183.057q.052.674.132,1.383l7.462-2.418a5.346,5.346,0,0,0,2.865-2.077c.027-.664.065-1.363.122-2.092.025-.356.057-.719.09-1.087s.077-.774.122-1.167Z" transform="translate(-289.424 -157.853)"/><path class="d" d="M383.139,150.05l-.1.214c-.032.072-.826,1.754-3.744,1.754-.388,0-1.57,0-1.94-.826a1.286,1.286,0,0,1,.057-1.089l-.286.042a1.47,1.47,0,0,0,0,1.149c.435.973,1.741.973,2.167.973,3.074,0,3.935-1.823,3.98-1.9l.132-.291Z" transform="translate(-298.732 -138.658)"/><path class="f" d="M384.97,130.59c-.348,1.371-.764,3.88.142,4.8,0,0-.632,1.39-3.179,1.39-2.326,0-1.079-1.39-1.079-1.39,1.55-.366,1.577-1.492,1.373-2.562Z" transform="translate(-301.369 -124.038)"/><path class="k" d="M389,134.25l-1.624,1.321a4.149,4.149,0,0,1,.087.746c.475.473,1.428-.724,1.527-1.336A2.058,2.058,0,0,0,389,134.25Z" transform="translate(-306.523 -126.788)"/><path class="k" d="M375.562,124.925a1.632,1.632,0,0,0,.729,1.089c.517.328.995-.087,1.017-.664.03-.517-.2-1.313-.808-1.408a.831.831,0,0,0-.938.983Z" transform="translate(-297.633 -119.038)"/><path class="g" d="M378.029,113.216c-.958.361-1.54,4.027-.41,4.651S379.842,112.534,378.029,113.216Z" transform="translate(-298.724 -110.945)"/><path class="g" d="M374.047,112.584c.706.746,4.308-.149,4.445-1.433S372.711,111.181,374.047,112.584Z" transform="translate(-296.358 -109.042)"/><path class="f" d="M382.25,114.011c-.067,1.868-.012,2.96-.923,3.98a2.39,2.39,0,0,1-4.159-.908c-.438-1.637-.249-4.415,1.537-5.306a2.4,2.4,0,0,1,3.545,2.234Z" transform="translate(-298.702 -109.683)"/><path class="g" d="M375.679,104.7c1.321-.326,1.609.047,1.669.95s1.264.652.858,2.015c-.189.644-.674.59-.378,1.348.338.873-1.669,1.93-2.142,1.928-.779,0-.607-1.622.027-3.1.475-1.1-.709-.8-2.067-.386-3.06.928-5.087-1.741-3.189-3.02C371.463,103.761,374.226,105.169,375.679,104.7Z" transform="translate(-293.257 -104.251)"/><path class="f" d="M396.231,125.961a1.91,1.91,0,0,1-1.077.871c-.6.184-.881-.343-.7-.913.164-.515.677-1.229,1.269-1.162A.762.762,0,0,1,396.231,125.961Z" transform="translate(-311.797 -119.653)"/><path class="g" d="M360.416,217s-1.682,15.046-1.813,20.758c-.137,5.942,5.7,24.476,5.7,24.476l2.985-1.256s-3.482-16.932-2.985-22.765C364.819,231.862,367,217,367,217Z" transform="translate(-284.902 -188.955)"/><path class="l" d="M380.614,231.829c-1.338,2.781-.435,8.278.291,11.537.276-2.3.6-4.8.913-7.107C381.788,232.7,381.512,229.964,380.614,231.829Z" transform="translate(-300.923 -199.642)"/><path class="h" d="M382.024,389.92c.012,0,.353.953.353.953l-3.443,1.445-.545-1.007Z" transform="translate(-299.769 -318.862)"/><path class="i" d="M382.024,389.92c.012,0,.353.953.353.953l-3.443,1.445-.545-1.007Z" transform="translate(-299.769 -318.862)"/><path class="g" d="M380.18,217s1.286,14.31,2.139,19.673c.933,5.873,4.6,25.431,4.6,25.431h3.433s-2.057-19.086-2.445-24.9c-.42-6.311-1.261-20.205-1.261-20.205Z" transform="translate(-301.114 -188.955)"/><path class="h" d="M409.425,393.772c.012,0,.114,1.1.114,1.1h-3.771l-.269-1.244Z" transform="translate(-320.136 -321.649)"/><path class="i" d="M409.425,393.772c.012,0,.114,1.1.114,1.1h-3.771l-.269-1.244Z" transform="translate(-320.136 -321.649)"/><path class="h" d="M405.738,266.2a.03.03,0,0,1-.03-.03c-.02-.172-1.873-17.412-2.221-22.636-.378-5.669-1.139-18.235-1.147-18.362a.032.032,0,0,1,.03-.035h0a.032.032,0,0,1,.032.03c0,.127.769,12.686,1.147,18.362.348,5.224,2.2,22.451,2.221,22.636a.03.03,0,0,1-.027.035Z" transform="translate(-317.761 -195.07)"/><path class="m" d="M405.738,266.2a.03.03,0,0,1-.03-.03c-.02-.172-1.873-17.412-2.221-22.636-.378-5.669-1.139-18.235-1.147-18.362a.032.032,0,0,1,.03-.035h0a.032.032,0,0,1,.032.03c0,.127.769,12.686,1.147,18.362.348,5.224,2.2,22.451,2.221,22.636a.03.03,0,0,1-.027.035Z" transform="translate(-317.761 -195.07)"/><path class="g" d="M385.926,123.928c0,.152-.072.281-.172.289s-.182-.107-.184-.249.072-.281.172-.289S385.926,123.776,385.926,123.928Z" transform="translate(-305.163 -118.846)"/><path class="g" d="M379.066,124.5c0,.152-.072.281-.172.289s-.182-.107-.184-.249.072-.281.172-.289S379.061,124.346,379.066,124.5Z" transform="translate(-300.009 -119.274)"/><path class="n" d="M380.247,125.37a5.852,5.852,0,0,1-.687,1.356.851.851,0,0,0,.721.075Z" transform="translate(-300.648 -120.117)"/><path class="g" d="M383.045,131.624a.045.045,0,0,1-.045-.042.047.047,0,0,1,.045-.047,1.278,1.278,0,0,0,.96-.55.043.043,0,1,1,.075.042A1.356,1.356,0,0,1,383.045,131.624Z" transform="translate(-303.232 -124.318)"/><path class="g" d="M386.894,119.355a.09.09,0,0,1-.072-.032.7.7,0,0,0-.577-.271.085.085,0,0,1-.095-.077.1.1,0,0,1,.085-.1.878.878,0,0,1,.731.336.085.085,0,0,1-.017.122A.092.092,0,0,1,386.894,119.355Z" transform="translate(-305.599 -115.238)"/><path class="g" d="M376.986,120.282a.092.092,0,0,1-.035-.017.087.087,0,0,1,0-.124.915.915,0,0,1,.746-.371.082.082,0,0,1,.077.095.1.1,0,0,1-.1.082h0a.746.746,0,0,0-.582.3A.1.1,0,0,1,376.986,120.282Z" transform="translate(-298.668 -115.91)"/><path class="f" d="M380.974,159.329l-2.589-.689s-2.537,6.246-3.433,6.654a55.556,55.556,0,0,0-5.619,3.4,2.543,2.543,0,0,0,.149,1.358c2.239-.405,6.525-2.055,7.42-2.9C378.942,165.247,380.974,159.329,380.974,159.329Z" transform="translate(-292.94 -145.111)"/><path class="h" d="M401.774,153.192c.684,2.2-1.99,5.224-1.99,5.224l-3.694-1.507a37.736,37.736,0,0,1,1.51-3.751C398.737,150.712,401.082,150.965,401.774,153.192Z" transform="translate(-313.066 -139.688)"/><path class="i" d="M401.774,153.192c.684,2.2-1.99,5.224-1.99,5.224l-3.694-1.507a37.736,37.736,0,0,1,1.51-3.751C398.737,150.712,401.082,150.965,401.774,153.192Z" transform="translate(-313.066 -139.688)"/><path class="h" d="M407.678,407.569a.535.535,0,0,1-.356-.095.249.249,0,0,1-.077-.234.152.152,0,0,1,.082-.127c.211-.1.8.266.861.308a.045.045,0,0,1,.02.045.047.047,0,0,1-.037.035A2.2,2.2,0,0,1,407.678,407.569Zm-.249-.386a.132.132,0,0,0-.057,0,.062.062,0,0,0-.032.052.177.177,0,0,0,.05.162.9.9,0,0,0,.664.032,1.681,1.681,0,0,0-.639-.249Z" transform="translate(-321.443 -331.766)"/><path class="h" d="M409.337,406.183h-.02c-.189-.107-.54-.517-.5-.726a.157.157,0,0,1,.149-.114.219.219,0,0,1,.184.057c.209.177.221.716.221.746a.047.047,0,0,1-.047.047Zm-.333-.759h-.02c-.057,0-.065.035-.067.045-.032.124.189.433.373.58a1.022,1.022,0,0,0-.187-.587.149.149,0,0,0-.1-.037Z" transform="translate(-322.627 -330.446)"/><path class="h" d="M380.6,406.565a.707.707,0,0,1-.468,0,.231.231,0,0,1-.132-.187.154.154,0,0,1,.05-.132c.2-.177,1.012.015,1.1.037a.045.045,0,0,1,.032.037.047.047,0,0,1-.027.045A3.347,3.347,0,0,1,380.6,406.565Zm-.4-.3a.182.182,0,0,0-.08.035.06.06,0,0,0-.017.055.144.144,0,0,0,.077.124,1.231,1.231,0,0,0,.833-.149A2.365,2.365,0,0,0,380.194,406.269Z" transform="translate(-300.975 -331.072)"/><path class="h" d="M382.309,404.743h-.017c-.249-.045-.746-.331-.761-.545,0-.05.022-.119.139-.162a.328.328,0,0,1,.249.015c.271.134.413.612.418.632a.05.05,0,0,1,0,.045A.035.035,0,0,1,382.309,404.743Zm-.587-.627h-.027c-.077.027-.075.06-.075.07,0,.127.361.363.612.443a.958.958,0,0,0-.348-.5.219.219,0,0,0-.162-.015Z" transform="translate(-302.128 -329.454)"/><path class="h" d="M157.848,205.03h0a3.174,3.174,0,0,1,2.915-2.122h25.193a2.383,2.383,0,0,1,2.413,2.736l-5.6,47.592a3.164,3.164,0,0,1-3.057,2.736H116.532a2.38,2.38,0,0,1-2.413-2.736l4.771-40.513a3.164,3.164,0,0,1,3.057-2.736h29.1A7.4,7.4,0,0,0,157.848,205.03Z" transform="translate(-101.213 -178.367)"/><path class="o" d="M157.848,205.03h0a3.174,3.174,0,0,1,2.915-2.122h25.193a2.383,2.383,0,0,1,2.413,2.736l-5.6,47.592a3.164,3.164,0,0,1-3.057,2.736H116.532a2.38,2.38,0,0,1-2.413-2.736l4.771-40.513a3.164,3.164,0,0,1,3.057-2.736h29.1A7.4,7.4,0,0,0,157.848,205.03Z" transform="translate(-101.213 -178.367)"/><rect class="h" width="41.48" height="39.261" transform="translate(0.09 29.319) rotate(-34.89)"/><rect class="p" width="41.48" height="39.261" transform="translate(0.09 29.319) rotate(-34.89)"/><rect class="d" width="41.48" height="39.261" transform="translate(0 29.82) rotate(-34.89)"/><rect class="h" width="35.496" height="27.043" transform="translate(4.216 30.638) rotate(-34.89)"/><rect class="p" width="35.496" height="27.043" transform="translate(4.216 30.638) rotate(-34.89)"/><path class="h" d="M124.148,216.126a4.975,4.975,0,1,1-6.915-1.244A4.975,4.975,0,0,1,124.148,216.126Z" transform="translate(-101.964 -186.698)"/><path class="o" d="M124.148,216.126a4.975,4.975,0,1,1-6.915-1.244A4.975,4.975,0,0,1,124.148,216.126Z" transform="translate(-101.964 -186.698)"/><path class="h" d="M152.667,197.634a7.214,7.214,0,0,0-5.761-2.072h0c-.032-.045-.057-.095-.09-.142a7.214,7.214,0,0,0-12.915,5.935,4.478,4.478,0,0,0-.624.358,4.318,4.318,0,0,0-1.741,4.522,4.88,4.88,0,0,0-2.313,1.888,5.253,5.253,0,0,0-.057,5.763,5.164,5.164,0,0,0,7.253,1.373h0l8.37-5.838,7.669-5.348a3.928,3.928,0,0,0,1.057-5.415l-.022-.035A7.122,7.122,0,0,0,152.667,197.634Z" transform="translate(-111.912 -170.397)"/><path class="q" d="M152.667,197.634a7.214,7.214,0,0,0-5.761-2.072h0c-.032-.045-.057-.095-.09-.142a7.214,7.214,0,0,0-12.915,5.935,4.478,4.478,0,0,0-.624.358,4.318,4.318,0,0,0-1.741,4.522,4.88,4.88,0,0,0-2.313,1.888,5.253,5.253,0,0,0-.057,5.763,5.164,5.164,0,0,0,7.253,1.373h0l8.37-5.838,7.669-5.348a3.928,3.928,0,0,0,1.057-5.415l-.022-.035A7.122,7.122,0,0,0,152.667,197.634Z" transform="translate(-111.912 -170.397)"/><rect class="r" width="41.48" height="39.261" transform="translate(0.326 33.743) rotate(-32.81)"/><rect class="p" width="41.48" height="39.261" transform="translate(0.326 33.743) rotate(-32.81)"/><rect class="d" width="41.48" height="39.261" transform="translate(0.221 34.243) rotate(-32.81)"/><rect class="h" width="35.496" height="27.043" transform="translate(4.405 35.215) rotate(-32.81)"/><rect class="p" width="35.496" height="27.043" transform="translate(4.405 35.215) rotate(-32.81)"/><circle class="h" cx="4.965" cy="4.965" r="4.965" transform="matrix(0.209, -0.978, 0.978, 0.209, 12.333, 41.169)"/><circle class="o" cx="4.965" cy="4.965" r="4.965" transform="matrix(0.209, -0.978, 0.978, 0.209, 12.333, 41.169)"/><path class="h" d="M152.372,220.1a7.213,7.213,0,0,0-5.686-2.281h0c-.03-.05-.052-.1-.085-.147a7.214,7.214,0,0,0-13.119,5.472,4.228,4.228,0,0,0-.639.333,4.321,4.321,0,0,0-1.9,4.452,4.855,4.855,0,0,0-2.38,1.8,5.248,5.248,0,0,0-.266,5.756,5.164,5.164,0,0,0,7.2,1.647h0l8.594-5.542,7.86-5.067a3.93,3.93,0,0,0,1.244-5.373l-.025-.035a6.965,6.965,0,0,0-.8-1.017Z" transform="translate(-111.333 -186.954)"/><path class="q" d="M152.372,220.1a7.213,7.213,0,0,0-5.686-2.281h0c-.03-.05-.052-.1-.085-.147a7.214,7.214,0,0,0-13.119,5.472,4.228,4.228,0,0,0-.639.333,4.321,4.321,0,0,0-1.9,4.452,4.855,4.855,0,0,0-2.38,1.8,5.248,5.248,0,0,0-.266,5.756,5.164,5.164,0,0,0,7.2,1.647h0l8.594-5.542,7.86-5.067a3.93,3.93,0,0,0,1.244-5.373l-.025-.035a6.965,6.965,0,0,0-.8-1.017Z" transform="translate(-111.333 -186.954)"/><rect class="r" width="41.48" height="39.261" transform="translate(25.128 19.905) rotate(-6.26)"/><rect class="p" width="41.48" height="39.261" transform="translate(25.128 19.905) rotate(-6.26)"/><rect class="d" width="41.48" height="39.261" transform="translate(24.808 20.303) rotate(-6.26)"/><rect class="h" width="35.496" height="27.043" transform="translate(28.118 23.041) rotate(-6.26)"/><path class="h" d="M273.61,262.752l.107.983-18.327,2.012,4.375-5.189,4.48-5.318Z" transform="translate(-207.364 -217.683)"/><path class="q" d="M273.61,262.752l.107.983-18.327,2.012,4.375-5.189,4.48-5.318Z" transform="translate(-207.364 -217.683)"/><path class="h" d="M213.856,258.663l-27.347,3-.239-2.162L197,247.33l10.835,7.286Z" transform="translate(-155.437 -211.74)"/><path class="q" d="M213.856,258.663l-27.347,3-.239-2.162L197,247.33l10.835,7.286Z" transform="translate(-155.437 -211.74)"/><path class="s" d="M134.049,245.851h0a2.351,2.351,0,0,1,2.468-1.831h25.2a2.922,2.922,0,0,1,2.985,2.361L168.08,284.5a2.264,2.264,0,0,1-2.487,2.361H102.412a2.918,2.918,0,0,1-2.985-2.361l-2.714-32.011a2.261,2.261,0,0,1,2.487-2.358h29.1C131.263,250.129,133.654,248.356,134.049,245.851Z" transform="translate(-88.148 -209.254)"/><path class="f" d="M360.444,198.47l-1.99.682-1.264.891,2.269.881s2.119-.224,2.629-1.373Z" transform="translate(-283.842 -175.034)"/></g></g></svg>