<svg xmlns="http://www.w3.org/2000/svg" width="175.494" height="153.25" viewBox="0 0 175.494 153.25"><defs><style>.a{fill:#ebebeb;}.b{fill:#e0e0e0;}.c{fill:#f5f5f5;}.d,.o,.p{fill:#fafafa;}.e{fill:#fff;}.f{fill:#263238;}.g{fill:#455a64;}.h{fill:#b24bf3;}.i{opacity:0.3;}.j{fill:#ffbe9d;}.k{fill:#eb996e;}.l{fill:#b78876;}.m{fill:#aa6550;}.n,.p{opacity:0.6;}.o{opacity:0.4;}</style></defs><g transform="translate(-20.963 -31.73)"><g transform="translate(28.551 31.73)"><path class="a" d="M414.885,260.629s-2.718-.2-2.468,5.9a70.853,70.853,0,0,0,.872,9.345s-.079,1.352-1.129,1.085-3.013-1.579-3.988-.6-.649,2.584.686,4.427,4.118,5.989,4.369,6.363.343,1.06-.395,1-5.752-1.764-6.418.659,3.906,6.957,4.4,7.451.515.82.319,1.126-1.829-.426-3.274-.848-3.2-.666-3.459.765,1.747,5.622,9.287,10.025l3.628,1.822,3.432-2.19c7.063-5.148,8.648-9.5,8.237-10.9s-2.124-.985-3.518-.419-2.945,1.455-3.174,1.174-.233-.6.206-1.153,4.534-5.491,3.631-7.852-5.718-.158-6.449,0-.7-.556-.5-.947,2.567-4.8,3.713-6.768,1.349-3.559.244-4.462-2.9.625-3.909,1-1.232-.968-1.232-.968a70.55,70.55,0,0,0-.065-9.386c-.36-6.092-3.109-5.6-3.109-5.6" transform="translate(-280.226 -182.072)"/><path class="b" d="M435.6,276.54v.127c0,.086.017.213.031.374.024.343.055.82.1,1.438.086,1.253.192,3.061.316,5.3.247,4.462.539,10.656.837,17.5s.573,13.014.8,17.5c.113,2.234.206,4.043.271,5.3.031.618.055,1.105.069,1.438a2.308,2.308,0,0,0,.017.378,1.207,1.207,0,0,1,0,.127V325.9c0-.082-.017-.216-.031-.374-.021-.343-.055-.82-.1-1.441-.082-1.249-.192-3.058-.316-5.3-.247-4.462-.539-10.66-.837-17.5s-.573-13.014-.8-17.5c-.113-2.231-.206-4.039-.268-5.3-.031-.621-.055-1.105-.072-1.441v-.374Z" transform="translate(-300.735 -192.523)"/><path class="b" d="M423.23,312.16a1.056,1.056,0,0,1,.227.185c.141.127.343.319.577.556.477.474,1.122,1.146,1.819,1.9l1.774,1.939.539.587a1.231,1.231,0,0,1,.189.223,1.165,1.165,0,0,1-.226-.185c-.141-.127-.343-.316-.573-.556-.474-.48-1.109-1.16-1.805-1.915l-1.788-1.929-.542-.58A1.309,1.309,0,0,1,423.23,312.16Z" transform="translate(-292.61 -215.918)"/><path class="b" d="M439.209,315.861c-.027-.024,1.3-1.414,2.962-3.089s3.034-3.03,3.061-3-1.3,1.414-2.962,3.089S439.237,315.888,439.209,315.861Z" transform="translate(-303.105 -214.348)"/><path class="b" d="M439.17,350.564a1.272,1.272,0,0,1,.25-.161l.71-.4c.6-.343,1.424-.8,2.317-1.352s1.685-1.067,2.255-1.448l.686-.453a1.09,1.09,0,0,1,.257-.151,1.312,1.312,0,0,1-.227.2c-.151.12-.371.285-.652.487-.556.4-1.342.94-2.238,1.489s-1.716,1.006-2.344,1.318c-.305.158-.556.281-.731.36A1.052,1.052,0,0,1,439.17,350.564Z" transform="translate(-303.08 -238.539)"/><path class="b" d="M421.659,347.43a1.177,1.177,0,0,1,.251.12c.154.082.381.206.656.364.552.316,1.311.755,2.145,1.253s1.582.951,2.121,1.284c.271.168.487.305.635.4s.23.154.223.165a1.178,1.178,0,0,1-.251-.12c-.158-.082-.381-.206-.655-.364-.553-.316-1.311-.755-2.145-1.253s-1.582-.951-2.121-1.284c-.271-.168-.487-.305-.635-.4S421.652,347.44,421.659,347.43Z" transform="translate(-291.578 -239.084)"/><path class="b" d="M418.18,374.47a1.336,1.336,0,0,1,.319.154l.844.463c.71.4,1.685.957,2.746,1.582s2.042,1.2,2.746,1.616l.824.5a1.763,1.763,0,0,1,.292.2,1.792,1.792,0,0,1-.319-.154l-.844-.467c-.71-.4-1.685-.957-2.746-1.582s-2.059-1.194-2.746-1.616l-.824-.5A1.92,1.92,0,0,1,418.18,374.47Z" transform="translate(-289.294 -256.844)"/><path class="b" d="M440.38,377.124a2.388,2.388,0,0,1,.316-.209l.882-.539c.745-.453,1.771-1.081,2.883-1.809s2.107-1.407,2.821-1.9l.848-.59a2.064,2.064,0,0,1,.323-.2,2.391,2.391,0,0,1-.288.247c-.192.151-.474.367-.824.625-.686.518-1.685,1.215-2.8,1.942s-2.152,1.345-2.907,1.778c-.381.213-.686.384-.906.5A2.121,2.121,0,0,1,440.38,377.124Z" transform="translate(-303.875 -255.136)"/><path class="b" d="M437.065,405.42H427.03l3.274,24.792h3.487Z" transform="translate(-295.106 -277.172)"/><path class="c" d="M428.55,412.36s0,.034.051.089a.687.687,0,0,0,.244.172,1.215,1.215,0,0,0,1.061-.13,7.835,7.835,0,0,1,1.3-.855,2.859,2.859,0,0,1,1.843.034,7.924,7.924,0,0,1,1.716.834,12.3,12.3,0,0,0,1.4.752,3.794,3.794,0,0,0,1.03.3,1.66,1.66,0,0,0,.288.021.345.345,0,0,0,.1,0,5.325,5.325,0,0,1-1.373-.415,13.364,13.364,0,0,1-1.373-.776,7.738,7.738,0,0,0-1.747-.858,2.948,2.948,0,0,0-1.949-.021,2.557,2.557,0,0,0-.721.446,5.839,5.839,0,0,1-.573.446,1.187,1.187,0,0,1-.978.168A.914.914,0,0,1,428.55,412.36Z" transform="translate(-296.105 -281.064)"/><path class="c" d="M429.61,424.129s.079-.1.237-.268a2.263,2.263,0,0,1,.8-.508,3.561,3.561,0,0,1,1.393-.209,14.676,14.676,0,0,1,1.747.237,6,6,0,0,0,1.788.075,5,5,0,0,0,1.407-.4,4.517,4.517,0,0,0,.848-.5,1.386,1.386,0,0,0,.268-.24,9.5,9.5,0,0,1-1.16.638,5.233,5.233,0,0,1-1.373.343,6.217,6.217,0,0,1-1.743-.086,13.2,13.2,0,0,0-1.767-.227,3.525,3.525,0,0,0-1.445.254,2.117,2.117,0,0,0-.807.573,1.5,1.5,0,0,0-.151.22A.3.3,0,0,0,429.61,424.129Z" transform="translate(-296.801 -288.265)"/><path class="c" d="M438.754,433.41a.829.829,0,0,0-.278-.144,3.086,3.086,0,0,0-.831-.178,5.494,5.494,0,0,0-1.26.072c-.467.076-.968.206-1.5.316a6.178,6.178,0,0,1-1.493.172,3.281,3.281,0,0,1-1.187-.257,2.783,2.783,0,0,1-.9-.669.74.74,0,0,0,.168.261,2.148,2.148,0,0,0,.686.511,3.212,3.212,0,0,0,1.229.305,6.068,6.068,0,0,0,1.534-.161c.532-.113,1.03-.247,1.49-.343a5.8,5.8,0,0,1,1.225-.1A4.736,4.736,0,0,1,438.754,433.41Z" transform="translate(-297.918 -295.103)"/><path class="c" d="M432.2,443.633a1.641,1.641,0,0,1,.975-.1,4.806,4.806,0,0,1,1.03.381,3.9,3.9,0,0,0,1.321.364,3.967,3.967,0,0,0,2.4-.556,3.368,3.368,0,0,0,.6-.46c.12-.13.182-.2.175-.213a8.216,8.216,0,0,1-.831.573,4.119,4.119,0,0,1-2.33.494,21.559,21.559,0,0,1-2.337-.686,1.473,1.473,0,0,0-.755.065C432.264,443.551,432.192,443.627,432.2,443.633Z" transform="translate(-298.501 -301.888)"/><path class="c" d="M433.83,455.963a1.881,1.881,0,0,0,.834-.165c.5-.168,1.129-.556,1.86-.844a2.944,2.944,0,0,1,1.064-.223,1.932,1.932,0,0,1,.858.2,1.907,1.907,0,0,1,.621.535.467.467,0,0,0-.1-.213,1.352,1.352,0,0,0-.47-.426,1.96,1.96,0,0,0-.909-.244,2.983,2.983,0,0,0-1.126.22c-.755.3-1.373.686-1.843.892S433.823,455.939,433.83,455.963Z" transform="translate(-299.572 -309.461)"/><path class="c" d="M435.26,465.057a2.3,2.3,0,0,0,.635.206,11.453,11.453,0,0,0,1.589.268,11.218,11.218,0,0,0,1.61.045,2.1,2.1,0,0,0,.662-.079c0-.048-1.03,0-2.258-.13S435.27,465.009,435.26,465.057Z" transform="translate(-300.512 -316.338)"/><rect class="d" width="31.165" height="40.119" transform="translate(107.993)"/><path class="a" d="M384.664,48.919a.457.457,0,0,1-.058.082l-.178.223a3.864,3.864,0,0,0-.275.371,5.775,5.775,0,0,0-.343.532,9,9,0,0,0-.738,1.565,13.1,13.1,0,0,0-.573,2.22,24.5,24.5,0,0,0-.288,2.77c-.058,1-.062,2.059-.117,3.205a23.628,23.628,0,0,1-.381,3.535,13.8,13.8,0,0,1-.5,1.819,9.577,9.577,0,0,1-.851,1.75,8.165,8.165,0,0,1-2.746,2.636A14.757,14.757,0,0,1,374.34,71c-1.084.343-2.135.563-3.116.786s-1.888.439-2.7.686a17.6,17.6,0,0,0-2.162.779,10.955,10.955,0,0,0-1.524.824c-.2.13-.374.247-.518.36s-.271.2-.367.288l-.22.182a.384.384,0,0,1-.079.058.4.4,0,0,1,.069-.072l.209-.2a4.126,4.126,0,0,1,.343-.3,6.318,6.318,0,0,1,.515-.378,10.174,10.174,0,0,1,1.52-.855,16.241,16.241,0,0,1,2.166-.81c.82-.251,1.733-.474,2.711-.686s2.025-.467,3.089-.8a14.813,14.813,0,0,0,3.236-1.373A8.051,8.051,0,0,0,380.2,66.91a9.208,9.208,0,0,0,.834-1.716,13.78,13.78,0,0,0,.494-1.791,24.6,24.6,0,0,0,.391-3.507c.055-1.126.065-2.2.13-3.205a23.738,23.738,0,0,1,.312-2.783,12.461,12.461,0,0,1,.628-2.248,8.581,8.581,0,0,1,.769-1.568,5.106,5.106,0,0,1,.36-.525,3.52,3.52,0,0,1,.292-.364l.192-.213C384.636,48.947,384.66,48.916,384.664,48.919Z" transform="translate(-253.478 -43.02)"/><path class="a" d="M400.532,62.719a.909.909,0,0,1-.038.089l-.127.261a5.566,5.566,0,0,1-.628.909,6.967,6.967,0,0,1-1.294,1.184,9.823,9.823,0,0,1-2.039,1.109,17.2,17.2,0,0,1-2.691.81c-.985.23-2.059.419-3.144.686a14.942,14.942,0,0,0-3.35,1.126,7.317,7.317,0,0,0-2.869,2.382,7.516,7.516,0,0,0-1.157,3.552,16.708,16.708,0,0,0,.1,3.531c.124,1.122.281,2.19.36,3.2a14.177,14.177,0,0,1-.021,2.814,8.581,8.581,0,0,1-.587,2.244,6.083,6.083,0,0,1-.885,1.51,4.989,4.989,0,0,1-.772.772l-.237.168q-.076.058-.082.051l.072-.065.223-.182a5.314,5.314,0,0,0,.752-.8,6.259,6.259,0,0,0,.848-1.507,8.639,8.639,0,0,0,.553-2.224,14.205,14.205,0,0,0,0-2.783c-.086-1-.247-2.059-.378-3.2a16.977,16.977,0,0,1-.106-3.566,7.694,7.694,0,0,1,1.194-3.628,7.458,7.458,0,0,1,2.938-2.44,15.038,15.038,0,0,1,3.38-1.139c1.105-.251,2.169-.439,3.147-.659a17.505,17.505,0,0,0,2.68-.782,10.027,10.027,0,0,0,2.025-1.074,6.955,6.955,0,0,0,1.3-1.146,6.261,6.261,0,0,0,.652-.885l.141-.247C400.509,62.747,400.529,62.716,400.532,62.719Z" transform="translate(-264.92 -52.084)"/><path class="a" d="M393.907,99.7a6.527,6.527,0,0,1-.889-.6c-.535-.388-1.266-.937-2.059-1.548s-1.52-1.177-2.039-1.592a6.108,6.108,0,0,1-.81-.686,6.143,6.143,0,0,1,.882.594c.535.388,1.266.937,2.059,1.548s1.52,1.177,2.039,1.592a6.105,6.105,0,0,1,.817.693Z" transform="translate(-269.544 -73.463)"/><path class="a" d="M398.88,91.383a1.167,1.167,0,0,1-.3-.182c-.182-.124-.443-.312-.762-.546-.638-.467-1.513-1.122-2.471-1.857s-1.822-1.407-2.444-1.9c-.309-.247-.556-.45-.724-.594a1.189,1.189,0,0,1-.254-.237,1.243,1.243,0,0,1,.3.182c.182.127.443.312.762.546.638.47,1.514,1.126,2.471,1.86s1.822,1.4,2.44,1.9c.309.247.559.45.728.59A1.309,1.309,0,0,1,398.88,91.383Z" transform="translate(-272.053 -67.421)"/><path class="a" d="M404.314,85.266a5.742,5.742,0,0,1-.858-.573c-.515-.374-1.218-.9-1.987-1.489s-1.472-1.129-1.96-1.517A6.387,6.387,0,0,1,398.73,81a5.419,5.419,0,0,1,.858.573c.515.374,1.218.9,1.987,1.489s1.462,1.129,1.96,1.527A6.194,6.194,0,0,1,404.314,85.266Z" transform="translate(-276.519 -64.091)"/><path class="a" d="M411.332,79.885a19.584,19.584,0,0,1-2.962-2.265,19.453,19.453,0,0,1,2.962,2.265Z" transform="translate(-282.85 -61.871)"/><path class="a" d="M421.565,67.172a11.769,11.769,0,0,1-1.716-1.191,12.6,12.6,0,0,1-1.6-1.332,11.764,11.764,0,0,1,1.716,1.191A12.6,12.6,0,0,1,421.565,67.172Z" transform="translate(-289.34 -53.352)"/><path class="a" d="M426.38,58.75a5.948,5.948,0,0,1-.855-.577c-.515-.371-1.218-.9-1.99-1.486s-1.462-1.133-1.956-1.531a5.868,5.868,0,0,1-.779-.686,6.34,6.34,0,0,1,.855.577c.515.374,1.218.9,1.99,1.486s1.462,1.133,1.956,1.531A5.351,5.351,0,0,1,426.38,58.75Z" transform="translate(-291.014 -46.666)"/><path class="a" d="M390.122,106.266a12.572,12.572,0,0,1-1.716-1.191,12.286,12.286,0,0,1-1.6-1.335,12.334,12.334,0,0,1,1.716,1.191A11.668,11.668,0,0,1,390.122,106.266Z" transform="translate(-268.69 -79.027)"/><path class="a" d="M379.845,119.951a21.028,21.028,0,0,1-3.075-2.351,11.037,11.037,0,0,1,1.592,1.105A10.919,10.919,0,0,1,379.845,119.951Z" transform="translate(-262.095 -88.13)"/><path class="a" d="M374.437,126.6a5.874,5.874,0,0,1-.872-.587c-.525-.381-1.246-.916-2.032-1.517s-1.489-1.153-2-1.562a6.526,6.526,0,0,1-.8-.686,5.784,5.784,0,0,1,.875.587c.525.381,1.242.916,2.028,1.517s1.493,1.153,2,1.562A6.9,6.9,0,0,1,374.437,126.6Z" transform="translate(-256.821 -91.184)"/><path class="b" d="M364.962,37.441a.621.621,0,1,1-.621-.621A.621.621,0,0,1,364.962,37.441Z" transform="translate(-253.524 -35.073)"/><path class="b" d="M439.3,37.441a.621.621,0,1,1-.621-.621.621.621,0,0,1,.621.621Z" transform="translate(-302.351 -35.073)"/><rect class="b" width="24.353" height="35.297" transform="translate(1.225 2.186)"/><rect class="c" width="24.353" height="35.297" transform="translate(0.003 2.186)"/><rect class="e" width="18.303" height="27.651" transform="translate(3.03 6.009)"/><path class="b" d="M69.654,76.786V69.047c0-4.877,0-11.778-.027-19.905l.058.062h-18.3l.065-.069V76.786l-.051-.051,13.319.027h.045l-13.409.089H51.3V49.08H69.729v.058c0,8.147-.024,15.066-.031,19.953v7.571A.155.155,0,0,1,69.654,76.786Z" transform="translate(-48.325 -43.126)"/><path class="b" d="M107.455,38.1a3.979,3.979,0,0,1-.436.631c-.281.378-.686.892-1.143,1.448s-.885,1.05-1.2,1.4a4.709,4.709,0,0,1-.535.549,4.4,4.4,0,0,1,.463-.611l1.174-1.421,1.17-1.424A4.763,4.763,0,0,1,107.455,38.1Z" transform="translate(-83.03 -35.914)"/><path class="e" d="M105.06,129.56a22.476,22.476,0,0,0,3.192,3.991" transform="translate(-83.634 -95.985)"/><path class="b" d="M108.252,133.518a3.832,3.832,0,0,1-.559-.508,17.874,17.874,0,0,1-1.2-1.373,17.379,17.379,0,0,1-1.06-1.476,3.432,3.432,0,0,1-.371-.652,5.358,5.358,0,0,1,.446.6c.271.378.645.892,1.088,1.441s.858,1.03,1.167,1.373A5.076,5.076,0,0,1,108.252,133.518Z" transform="translate(-83.634 -95.953)"/><path class="e" d="M42.63,133.343l3.192-3.933" transform="translate(-42.63 -95.887)"/><path class="b" d="M45.822,129.41a25.276,25.276,0,0,1-1.544,2.008,24.11,24.11,0,0,1-1.647,1.925,24.567,24.567,0,0,1,1.544-2.008A23.294,23.294,0,0,1,45.822,129.41Z" transform="translate(-42.63 -95.887)"/><path class="b" d="M42.64,38.1a21.326,21.326,0,0,1,1.548,1.853,20.988,20.988,0,0,1,1.445,1.932,22.44,22.44,0,0,1-1.548-1.85A22.1,22.1,0,0,1,42.64,38.1Z" transform="translate(-42.637 -35.914)"/><circle class="b" cx="1.963" cy="1.963" r="1.963" transform="translate(12.286 18.327)"/><path class="b" d="M87.321,67.905a1.465,1.465,0,1,1-1.465-1.465,1.465,1.465,0,0,1,1.465,1.465Z" transform="translate(-70.058 -54.528)"/><path class="b" d="M72.241,75.26a1.06,1.06,0,1,1-1.06-1.06A1.06,1.06,0,0,1,72.241,75.26Z" transform="translate(-60.686 -59.625)"/><path class="b" d="M91.2,107.546a.659.659,0,1,1,0-.933A.659.659,0,0,1,91.2,107.546Z" transform="translate(-73.792 -80.787)"/><path class="b" d="M63.251,92.45a1.06,1.06,0,1,1-1.06-1.06A1.06,1.06,0,0,1,63.251,92.45Z" transform="translate(-54.781 -70.915)"/><path class="b" d="M84.143,90.849a19.543,19.543,0,0,1,1.465,2.818A18.9,18.9,0,0,1,86.834,96.6a19.081,19.081,0,0,1-1.465-2.821A21.649,21.649,0,0,1,84.143,90.849Z" transform="translate(-69.894 -70.559)"/><path class="b" d="M71.414,91.386a20.6,20.6,0,0,1-3.2.607A20.04,20.04,0,0,1,65,92.34a20.492,20.492,0,0,1,3.2-.607A19.955,19.955,0,0,1,71.414,91.386Z" transform="translate(-57.323 -70.901)"/><path class="b" d="M77.006,81.005A7.816,7.816,0,0,1,75.132,79.2,7.927,7.927,0,0,1,73.722,77c.058-.048.71.923,1.616,2.018S77.058,80.947,77.006,81.005Z" transform="translate(-63.049 -61.46)"/><path class="b" d="M85.506,70.651h0V70.7l-.034.189c-.048.223-.1.453-.148.686-.134.583-.343,1.373-.556,2.269a26.471,26.471,0,0,1-.9,3.178,17.681,17.681,0,0,1,.642-3.243c.227-.885.45-1.678.631-2.251.089-.285.168-.515.233-.686a1.715,1.715,0,0,1,.079-.178l.031-.045H85.5C85.5,70.62,85.506,70.651,85.506,70.651Z" transform="translate(-69.709 -57.273)"/></g><g transform="translate(21.207 184.636)"><path class="f" d="M178.255,477.359c0,.051-35.153.089-78.509.089s-78.516-.038-78.516-.089,35.146-.089,78.516-.089S178.255,477.311,178.255,477.359Z" transform="translate(-21.23 -477.27)"/></g><g transform="translate(125.26 45.736)"><path class="g" d="M346.179,445.18l.206,7.108s-7.152,2.595-7.245,3.909l13.793.1.134-11.082Z" transform="translate(-334.088 -317.293)"/><path class="f" d="M355.37,467.339c0,.065.275.182.5.467s.292.59.36.587.113-.384-.178-.734S355.373,467.273,355.37,467.339Z" transform="translate(-344.748 -331.829)"/><path class="f" d="M351.95,470.2c.062,0,.158-.323,0-.686s-.487-.518-.515-.463.165.257.3.563S351.884,470.192,351.95,470.2Z" transform="translate(-342.162 -332.964)"/><path class="g" d="M417.021,445.19l1.445,7.1s7.152,2.595,7.241,3.909l-13.79.1-1.678-11.075Z" transform="translate(-380.787 -317.3)"/><path class="f" d="M437.361,467.329c.017.065-.275.182-.5.467s-.292.59-.343.587-.113-.384.175-.734S437.361,467.263,437.361,467.329Z" transform="translate(-398.017 -331.823)"/><path class="f" d="M441.325,470.189c-.062,0-.158-.323,0-.686s.484-.518.511-.463-.165.257-.3.563S441.394,470.182,441.325,470.189Z" transform="translate(-401.148 -332.957)"/><path class="h" d="M364.915,246.963l10.426,74.806-10.117-.2-11.363-63.662,2.639,63.961-11.078-.68L341.53,246.51Z" transform="translate(-335.658 -186.805)"/><g class="i" transform="translate(6.123 64.496)"><path d="M342.3,261.555l-.041-1.085,23.842.741.247,2.076Z" transform="translate(-342.26 -260.47)"/></g><path class="f" d="M358.771,337.724c-.051,0-.786-14.884-1.644-33.249s-1.51-33.255-1.462-33.255.783,14.881,1.641,33.249S358.819,337.724,358.771,337.724Z" transform="translate(-344.94 -203.035)"/><path class="f" d="M405.3,338.282a.659.659,0,0,0-.034-.168c-.034-.113-.045-.281-.079-.494-.065-.443-.161-1.085-.285-1.908-.247-1.661-.6-4.057-1.03-7.011-.885-5.924-2.142-14.1-3.631-23.111s-2.931-17.16-4-23.052c-.539-2.938-.971-5.32-1.273-6.974-.148-.82-.264-1.455-.343-1.9-.038-.213-.065-.378-.086-.494s-.024-.172-.024-.172.017.058.041.168l.1.491c.089.439.216,1.074.378,1.891.323,1.641.779,4.022,1.328,6.963,1.1,5.886,2.56,14.03,4.05,23.049s2.728,17.191,3.579,23.118c.426,2.965.762,5.364.982,7.025.11.824.2,1.465.254,1.912.024.213.045.378.062.5A.553.553,0,0,1,405.3,338.282Z" transform="translate(-370.462 -204.204)"/><path class="h" d="M329.815,156.717s-5.223-1.246-5.395-1.465l4.293-11.061a8.069,8.069,0,0,1,5.011-4.884,14.143,14.143,0,0,1,5.072-.782l7.252-.384a14.325,14.325,0,0,1,5.718,1.582,11.514,11.514,0,0,1,5.371,5.92l3.254,8.123-8.2,1.716-.312,8.727,3.751,16.724-26.175-.855,1.17-22.915h0Z" transform="translate(-324.42 -115.627)"/><g class="i" transform="translate(0.885 38.179)"><path class="e" d="M327,183.788c0,.024,1.345.467,3.027.988s3.044.92,3.051.9-1.345-.467-3.023-.985S327,183.764,327,183.788Z" transform="translate(-327 -183.787)"/></g><path class="f" d="M396.06,154.082a1.1,1.1,0,0,0,.141-.192c.082-.124.209-.3.374-.518a8.84,8.84,0,0,1,.614-.717,9.147,9.147,0,0,1,.851-.786,9.024,9.024,0,0,1,1.778-1.115c.244-.117.446-.2.587-.257a1.1,1.1,0,0,0,.216-.1,1.181,1.181,0,0,0-.23.062c-.144.045-.343.124-.6.23a8.172,8.172,0,0,0-2.663,1.9,8,8,0,0,0-.607.758,5.363,5.363,0,0,0-.343.539A1.031,1.031,0,0,0,396.06,154.082Z" transform="translate(-371.474 -123.68)"/><path class="f" d="M399.176,168.82c-.027,0,.227,2.667.563,5.951s.631,5.944.659,5.941-.227-2.667-.566-5.951S399.2,168.817,399.176,168.82Z" transform="translate(-373.519 -135.778)"/><path class="f" d="M347.209,147.683a3.823,3.823,0,0,0,.117-.539,10.364,10.364,0,0,1,.36-1.28,9.866,9.866,0,0,1,.535-1.215c.158-.3.264-.484.254-.491s-.038.038-.093.117-.13.2-.22.343a7.642,7.642,0,0,0-.563,1.215,7.121,7.121,0,0,0-.343,1.3c-.027.172-.045.309-.051.4A.686.686,0,0,0,347.209,147.683Z" transform="translate(-339.384 -119.58)"/><path class="f" d="M345.891,168.7a1.57,1.57,0,0,0,.045-.261c.024-.172.048-.415.079-.721.058-.607.12-1.448.154-2.378s.031-1.774,0-2.385c0-.305-.017-.553-.027-.721a1.267,1.267,0,0,0-.027-.264,1.319,1.319,0,0,0,0,.264v.721c0,.611,0,1.452-.041,2.382s-.086,1.771-.127,2.378l-.051.721a1.41,1.41,0,0,0,0,.264Z" transform="translate(-338.519 -131.279)"/><path class="e" d="M377.85,176.8a37.319,37.319,0,0,0,5.711-.106v.741H377.85Z" transform="translate(-359.513 -140.947)"/><g class="i" transform="translate(12.269 23.223)"><path class="e" d="M360.558,140.509a.613.613,0,0,0-.024.113c0,.082-.027.192-.048.343-.038.288-.086.71-.127,1.249-.086,1.071-.161,2.595-.189,4.4v.069l.062-.031c1.139-.553,2.4-1.157,3.744-1.822l6.49-3.247,1.963-1,.532-.275.137-.072.045-.027-.051.021-.141.065-.539.257-1.973.958-6.5,3.223c-1.328.666-2.6,1.27-3.737,1.829l.058.038c.021-1.8.082-3.322.154-4.393.031-.535.076-.961.1-1.249a3.37,3.37,0,0,1,.034-.343A.964.964,0,0,0,360.558,140.509Z" transform="translate(-360.17 -140.21)"/></g><g class="i" transform="translate(26.282 36.745)"><path class="e" d="M401,181.8a.391.391,0,0,0,.093,0l.268-.065.975-.247c.824-.209,1.963-.5,3.226-.8s2.4-.57,3.233-.758l.982-.227.268-.065c.058,0,.093-.024.089-.027h-.093l-.271.048-.988.2c-.834.172-1.98.426-3.243.731s-2.4.6-3.219.834l-.968.275-.261.082A.209.209,0,0,1,401,181.8Z" transform="translate(-401 -179.61)"/></g><path class="f" d="M359.76,137.15a2.4,2.4,0,0,0-.964.93,8.769,8.769,0,0,0-1.146,3.03,12.3,12.3,0,0,0-.209,1.774v.783c0,.247.017.47.038.686s.041.391.062.556.048.3.069.419a1.241,1.241,0,0,0,.086.343,1.524,1.524,0,0,0,0-.36l-.062-.422c0-.165-.021-.343-.034-.553s0-.432,0-.686,0-.5.021-.769a13.618,13.618,0,0,1,.22-1.75,9.57,9.57,0,0,1,1.074-2.993,4.074,4.074,0,0,1,.6-.755A3.261,3.261,0,0,0,359.76,137.15Z" transform="translate(-346.108 -114.977)"/><path class="f" d="M387.84,137.3a4.366,4.366,0,0,0,.378.542,7.345,7.345,0,0,1,.841,1.568,10.74,10.74,0,0,1,.625,2.564c.13.992.185,2.1.257,3.253s.062,2.262.065,3.267v2.677c0,.762.021,1.373.045,1.805a2.7,2.7,0,0,0,.065.659,3.091,3.091,0,0,0,.041-.662c0-.432.027-1.047.048-1.8s.045-1.668.058-2.673.017-2.118-.045-3.284-.134-2.268-.281-3.274a10.149,10.149,0,0,0-.686-2.6,6.581,6.581,0,0,0-.933-1.558A2.359,2.359,0,0,0,387.84,137.3Z" transform="translate(-366.075 -115.076)"/><path class="f" d="M352.692,168.133a3.233,3.233,0,0,0,.038-.59c0-.381.017-.93.024-1.606v-1.112c0-.4,0-.827.024-1.266a2.1,2.1,0,0,1,.456-1.246,1.716,1.716,0,0,1,1.256-.594,1.967,1.967,0,0,1,1.318.508,2.272,2.272,0,0,1,.662,1.16c.11.422.158.851.223,1.242s.12.762.175,1.1c.106.686.2,1.211.264,1.586a3.088,3.088,0,0,0,.124.577,4.045,4.045,0,0,0-.051-.587c-.045-.378-.117-.923-.206-1.6-.048-.343-.1-.686-.151-1.1a11.316,11.316,0,0,0-.209-1.266,2.419,2.419,0,0,0-.71-1.249,2.141,2.141,0,0,0-1.438-.563,1.891,1.891,0,0,0-1.393.662,2.265,2.265,0,0,0-.491,1.352c-.027.46,0,.882,0,1.28v1.112c0,.686.021,1.225.034,1.606A4.053,4.053,0,0,0,352.692,168.133Z" transform="translate(-342.925 -130.99)"/><path class="f" d="M357.007,157a3.027,3.027,0,0,0,.686,1.781,2.519,2.519,0,0,0-1.153.021,3.917,3.917,0,0,0,.305-1.8" transform="translate(-345.517 -128.015)"/><path class="f" d="M352.851,165.1a5.88,5.88,0,0,1,.285-.707,2.159,2.159,0,0,1,.518-.6,1.908,1.908,0,0,1,.879-.419,1.887,1.887,0,0,1,.968.1,2.12,2.12,0,0,1,.686.419,5.652,5.652,0,0,1,.491.583,1.284,1.284,0,0,0-.4-.686,2.058,2.058,0,0,0-.717-.48,1.939,1.939,0,0,0-1.06-.12,1.97,1.97,0,0,0-.957.47,2.121,2.121,0,0,0-.525.686A1.335,1.335,0,0,0,352.851,165.1Z" transform="translate(-343.091 -132.055)"/><path class="j" d="M332.828,202.581a3,3,0,0,1-2.512-1.716,7.207,7.207,0,0,1-.686-3.089,24.988,24.988,0,0,1,1.03-8.336l4.657.813L334.05,202.8Z" transform="translate(-327.824 -149.321)"/><path class="f" d="M357.781,197.213l-15.166-.553L338.94,178.89l15.972.889Z" transform="translate(-333.957 -142.392)"/><path class="g" d="M359.757,177.862l-.23-.453-1.211-.093s-.305-.8-2.035-.875c-1.551-.072-1.613.707-1.613.707h-.837v.381Z" transform="translate(-343.737 -140.78)"/><path class="j" d="M339.1,214.834l-1.15-.343a1.41,1.41,0,0,0-.666-.031h0a1.417,1.417,0,0,0-.714.378,9.267,9.267,0,0,0-1.081,1.181,1.119,1.119,0,0,0,0,.906c.127.175-.281,1.057-.23,1.352a1.825,1.825,0,0,0,.23.714c.1.124,0,.542.257.861a4.2,4.2,0,0,0,.487.515,27.047,27.047,0,0,0,3.466,0,4.535,4.535,0,0,0,.848-.714s.281-.515-.154-.563l1.795-.686a.422.422,0,0,0,.261-.539.3.3,0,0,0-.158-.175s.807-.254,1-.343c.371-.165.511-1.03-.257-.92-.408.058-.961.175-.961.175a.566.566,0,0,0-.117-.762c-.251-.175-1.373.038-1.373.038l-1.479-1.054Z" transform="translate(-331.538 -165.738)"/><path class="k" d="M345.29,228.391a2.564,2.564,0,0,0,.93-.137,2.378,2.378,0,0,0,.861-.388c0-.024-.388.161-.885.3S345.287,228.367,345.29,228.391Z" transform="translate(-338.128 -174.558)"/><path class="k" d="M347.29,224.711a11.353,11.353,0,0,0,1.465-.326,11.975,11.975,0,0,0,1.445-.415,12.1,12.1,0,0,0-1.465.326A13.039,13.039,0,0,0,347.29,224.711Z" transform="translate(-339.441 -172.001)"/><path class="k" d="M346.2,221.474a14.343,14.343,0,0,0,1.579-.323,13.668,13.668,0,0,0,1.558-.412,14.344,14.344,0,0,0-1.579.323,14.581,14.581,0,0,0-1.558.412Z" transform="translate(-338.725 -169.879)"/><path class="k" d="M342.8,218.69a1.922,1.922,0,0,0,.4.127l.446.117.264.065a.982.982,0,0,0,.3.027,1.375,1.375,0,0,0,.3-.048l.264-.058.446-.11a2.058,2.058,0,0,0,.408-.12,1.82,1.82,0,0,0-.422.058l-.453.086a4.392,4.392,0,0,1-.546.1,2.009,2.009,0,0,1-.542-.082l-.45-.1A1.879,1.879,0,0,0,342.8,218.69Z" transform="translate(-336.492 -168.533)"/><path class="k" d="M341.984,220.45a.261.261,0,0,0-.089.117.528.528,0,0,0,0,.343.518.518,0,0,0,.209.281c.079.051.137.058.141.048a.82.82,0,0,1-.261-.343A1,1,0,0,1,341.984,220.45Z" transform="translate(-335.879 -169.689)"/><path class="k" d="M342.24,224c-.024,0-.093.113-.082.288s.093.292.113.278,0-.13-.021-.285S342.264,224,342.24,224Z" transform="translate(-336.07 -172.021)"/><path class="k" d="M342.242,227.87c-.024,0-.072.076-.052.189s.1.172.12.154,0-.086-.027-.175S342.266,227.877,342.242,227.87Z" transform="translate(-336.088 -174.562)"/><path class="k" d="M341.34,218.175a1.211,1.211,0,0,0,.305,0l.323-.041a1.208,1.208,0,0,1,.388-.021.944.944,0,0,1,.343.154c.1.069.185.141.268.189a.477.477,0,0,0,.292.1A1.237,1.237,0,0,1,343,218.4a1.6,1.6,0,0,0-.635-.381,1.176,1.176,0,0,0-.22,0,1.07,1.07,0,0,0-.192.031l-.323.062A.941.941,0,0,0,341.34,218.175Z" transform="translate(-335.533 -168.09)"/><path class="k" d="M335.494,219.028a1.5,1.5,0,0,0-.082-.227,1.792,1.792,0,0,1-.127-.628,1.9,1.9,0,0,1,.069-.439c.038-.158.11-.312.148-.5a1.52,1.52,0,0,0-.038-.583,1.029,1.029,0,0,1,.1-.573,2.684,2.684,0,0,1,.343-.508c.124-.158.244-.309.364-.443a2.059,2.059,0,0,1,.745-.583,1.215,1.215,0,0,1,.628-.1c.151.021.23.062.233.051s-.017,0-.055-.031a.72.72,0,0,0-.172-.055,1.17,1.17,0,0,0-.659.069,2.121,2.121,0,0,0-.786.587c-.124.137-.247.288-.371.443a2.742,2.742,0,0,0-.343.528,1.07,1.07,0,0,0-.11.621,1.67,1.67,0,0,1,.045.556c-.034.172-.106.343-.141.5a1.814,1.814,0,0,0-.058.456,1.634,1.634,0,0,0,.161.642A.717.717,0,0,0,335.494,219.028Z" transform="translate(-331.52 -165.711)"/><path class="j" d="M364.064,191.078l12.451,1.977-.553-6.5,6.926-1.338.841,9.609.148,2.207a4.311,4.311,0,0,1-1.809,3.8h0a4.3,4.3,0,0,1-3.823.58l-2.673-.872L362.53,195.9" transform="translate(-349.451 -146.55)"/><path class="j" d="M341.947,197.588a.343.343,0,0,1,.343-.419,17.918,17.918,0,0,1,3.267.2c.827.233,3.912,1.558,3.912,1.558l-1.308,4.829-4.736.051s-1.716-.8-1.75-1.139a5.923,5.923,0,0,1,.045-.645l-.522-.281c-.779-.494-.281-1.438-.281-1.438a1.153,1.153,0,0,1-.563-.844.848.848,0,0,1,.419-.8s-.216-.762.182-.968a1.623,1.623,0,0,1,1.074.058A.275.275,0,0,1,341.947,197.588Z" transform="translate(-334.884 -154.398)"/><path class="k" d="M344.21,198.615a.618.618,0,0,0,.148.048c.1.027.233.058.408.089.343.062.834.113,1.373.172a11.721,11.721,0,0,1,1.352.206c.343.079.532.185.539.172s-.045-.034-.13-.082a2.035,2.035,0,0,0-.391-.151,8.179,8.179,0,0,0-1.373-.237c-.535-.058-1.03-.1-1.373-.144S344.217,198.6,344.21,198.615Z" transform="translate(-337.418 -155.346)"/><path class="k" d="M341.62,201.43a1.108,1.108,0,0,0,.343.172,5.359,5.359,0,0,0,.861.251c.343.072.659.117.885.148a1.494,1.494,0,0,0,.371.027,11.958,11.958,0,0,0-1.236-.264c-.343-.072-.645-.154-.861-.223A2.193,2.193,0,0,0,341.62,201.43Z" transform="translate(-335.717 -157.197)"/><path class="k" d="M342,206.315a3.676,3.676,0,0,0,1.03.343,3.611,3.611,0,0,0,1.064.127c0-.027-.474-.086-1.03-.216S342,206.291,342,206.315Z" transform="translate(-335.967 -160.403)"/><path class="k" d="M342.86,210.484a2.334,2.334,0,0,0,.776.288,2.419,2.419,0,0,0,.824.1,8.03,8.03,0,0,0-.8-.192C343.217,210.577,342.867,210.46,342.86,210.484Z" transform="translate(-336.532 -163.141)"/><path class="k" d="M350.05,207.028a.278.278,0,0,0,.144.051.542.542,0,0,0,.57-.4.271.271,0,0,0,0-.154.955.955,0,0,1-.264.384A.992.992,0,0,1,350.05,207.028Z" transform="translate(-341.254 -160.54)"/><path class="k" d="M350.34,211.493c0,.024.185.034.343-.11s.175-.343.148-.343-.072.144-.209.264S350.336,211.466,350.34,211.493Z" transform="translate(-341.444 -163.508)"/><path class="k" d="M351.94,203.02c0,.024.12.069.24-.024s.117-.23.093-.227-.058.086-.147.151S351.961,203,351.94,203.02Z" transform="translate(-342.495 -158.076)"/><path class="k" d="M349.449,198.872l-.038-.021-.113-.051-.439-.2c-.381-.165-.944-.408-1.651-.686-.343-.144-.741-.3-1.17-.46a4.255,4.255,0,0,0-.686-.213,7.377,7.377,0,0,0-.752-.093c-.518-.041-1.067-.058-1.64-.065h-.652a.453.453,0,0,0-.237.048.378.378,0,0,0-.2.429.124.124,0,0,0,.055.062l.055.034.106.048a1.552,1.552,0,0,0,.223.079.041.041,0,0,0,.055-.031.045.045,0,0,0-.031-.055,4.759,4.759,0,0,0-.59-.134,2.228,2.228,0,0,0-.625-.021.57.57,0,0,0-.305.134.542.542,0,0,0-.151.3,1.548,1.548,0,0,0,.041.652l.024-.055a.9.9,0,0,0-.264.233.92.92,0,0,0-.134.844,1.225,1.225,0,0,0,.542.645l-.021-.062a1.5,1.5,0,0,0-.148.827.944.944,0,0,0,.446.686h0l.522.278-.024-.045c0,.127-.024.251-.034.374v.185a.838.838,0,0,0,0,.093.229.229,0,0,0,.038.1,1.112,1.112,0,0,0,.268.257c.1.072.2.134.3.2a11.779,11.779,0,0,0,1.177.614h.017l3.432-.051.951-.021h.336a.4.4,0,0,0-.086,0h-1.2l-3.432.021h0c-.378-.182-.772-.381-1.163-.618-.1-.062-.2-.124-.288-.192a1.086,1.086,0,0,1-.247-.237.175.175,0,0,1-.024-.062.745.745,0,0,1,0-.089v-.178a3.4,3.4,0,0,1,.034-.371.038.038,0,0,0-.021-.041l-.522-.281h0a.844.844,0,0,1-.4-.611,1.4,1.4,0,0,1,.141-.769.048.048,0,0,0-.017-.062,1.157,1.157,0,0,1-.5-.6.837.837,0,0,1,.124-.758.765.765,0,0,1,.23-.206.045.045,0,0,0,.024-.051,1.479,1.479,0,0,1-.038-.611.436.436,0,0,1,.141-.278.491.491,0,0,1,.254-.11,2.06,2.06,0,0,1,.6.024,4.055,4.055,0,0,1,.58.127l.021-.089a1.261,1.261,0,0,1-.209-.072l-.1-.045c-.031,0-.062-.048-.076-.045a.367.367,0,0,1,.031-.189.343.343,0,0,1,.137-.137.408.408,0,0,1,.2-.038h.652c.573,0,1.119.021,1.634.058.257.021.508.045.745.086a4.462,4.462,0,0,1,.669.2c.429.158.82.312,1.174.45l1.661.686.446.178.113.045Z" transform="translate(-334.836 -154.344)"/><path class="k" d="M403.1,208a4.807,4.807,0,0,1,.92.793,4.717,4.717,0,0,1,.611,1.05.885.885,0,0,0-.093-.343,2.777,2.777,0,0,0-1.108-1.335A1.03,1.03,0,0,0,403.1,208Z" transform="translate(-376.097 -161.512)"/><path class="j" d="M354.876,84.737a6.291,6.291,0,0,1,6.274-5.8h.326c3.514.2,5.309,3.291,5.014,6.8l-.607,14.071a.635.635,0,0,1-.364.546l-7.893,3.7.244-7.375a4.061,4.061,0,0,1-3.432-3.9C354.412,91.137,354.629,87.777,354.876,84.737Z" transform="translate(-344.134 -76.744)"/><path class="k" d="M364.34,128.064a8.168,8.168,0,0,0,4.42-1.3,4.149,4.149,0,0,1-4.4,2.135Z" transform="translate(-350.64 -108.153)"/><path class="f" d="M358.1,102.693a.484.484,0,0,0,.467.484.463.463,0,0,0,.5-.436.484.484,0,0,0-.467-.484.463.463,0,0,0-.5.436Z" transform="translate(-346.541 -92.058)"/><path class="f" d="M357.827,99.668c.062.062.426-.209.944-.209s.9.261.958.2-.034-.141-.2-.261a1.314,1.314,0,0,0-.765-.233,1.235,1.235,0,0,0-.752.244C357.851,99.527,357.8,99.64,357.827,99.668Z" transform="translate(-346.357 -90.025)"/><path class="f" d="M372.29,103.053a.48.48,0,0,0,.463.487.463.463,0,0,0,.5-.436.484.484,0,0,0-.467-.487.46.46,0,0,0-.494.436Z" transform="translate(-355.861 -92.295)"/><path class="f" d="M372.687,99.918c.062.062.426-.209.944-.206s.9.257.958.192-.034-.141-.2-.261a1.3,1.3,0,0,0-.765-.233,1.256,1.256,0,0,0-.748.244C372.711,99.777,372.659,99.89,372.687,99.918Z" transform="translate(-356.117 -90.189)"/><path class="f" d="M364.721,103.84a3.689,3.689,0,0,0-.844-.151c-.13,0-.257-.038-.278-.127a.686.686,0,0,1,.086-.395l.391-1.009a17.463,17.463,0,0,0,.872-2.639,17.518,17.518,0,0,0-1.085,2.564q-.2.515-.371,1.03a.745.745,0,0,0-.069.518.322.322,0,0,0,.22.192.788.788,0,0,0,.223.031A3.315,3.315,0,0,0,364.721,103.84Z" transform="translate(-350.025 -90.261)"/><path class="f" d="M368.531,113.15c-.086,0-.086.559-.566.958s-1.081.343-1.084.419.134.11.388.117a1.4,1.4,0,0,0,.906-.319,1.215,1.215,0,0,0,.436-.8C368.637,113.284,368.568,113.146,368.531,113.15Z" transform="translate(-352.308 -99.214)"/><path class="f" d="M372.294,94.222c.051.141.57.072,1.177.144s1.1.237,1.184.11c.034-.058-.051-.192-.251-.343a1.967,1.967,0,0,0-.875-.3,1.929,1.929,0,0,0-.923.11C372.383,94.034,372.27,94.143,372.294,94.222Z" transform="translate(-355.862 -86.515)"/><path class="f" d="M358.364,95.247c.093.12.45,0,.879,0s.793.076.879-.045c.034-.062-.024-.178-.182-.292a1.242,1.242,0,0,0-.714-.192,1.218,1.218,0,0,0-.686.24C358.374,95.068,358.323,95.192,358.364,95.247Z" transform="translate(-346.706 -87.107)"/><path class="j" d="M387.763,105.8c.058-.024,2.32-.686,2.251,1.616a1.737,1.737,0,0,1-2.375,1.7C387.636,109.04,387.763,105.8,387.763,105.8Z" transform="translate(-365.943 -94.314)"/><path class="k" d="M389.206,109.7a.822.822,0,0,0,.106.062.391.391,0,0,0,.3,0,1,1,0,0,0,.487-.879,1.308,1.308,0,0,0-.093-.577.47.47,0,0,0-.3-.319.206.206,0,0,0-.24.1c-.034.065-.021.11-.031.113s-.048-.038-.027-.134a.237.237,0,0,1,.1-.141.3.3,0,0,1,.223-.055.573.573,0,0,1,.408.371,1.373,1.373,0,0,1,.12.649,1.03,1.03,0,0,1-.614.978.426.426,0,0,1-.367-.072C389.21,109.754,389.2,109.7,389.206,109.7Z" transform="translate(-366.971 -95.746)"/><path class="f" d="M365.207,80.272l-9.627.213a4.417,4.417,0,0,1,1.414-1.637,7.55,7.55,0,0,1,4.359-1.568c1.568-.027,4.764,1.884,5.9,2.969a2.453,2.453,0,0,1,.9,1.613c.144,1.249-.553,2.667-.831,3.892-.144.631-.419,2.543-.419,2.543h0c-.532,0-.728-.422-.649-.947l.1-2.059a3.106,3.106,0,0,1-.951-3.628C365.546,81.49,365.842,80.636,365.207,80.272Z" transform="translate(-344.886 -75.653)"/><path class="k" d="M377.652,107.078a.062.062,0,1,0-.045-.072A.062.062,0,0,0,377.652,107.078Z" transform="translate(-359.353 -95.145)"/><path class="k" d="M374.765,106.391a.074.074,0,1,0-.041-.082A.065.065,0,0,0,374.765,106.391Z" transform="translate(-357.458 -94.681)"/><path class="k" d="M372.812,106.255c.031,0,.062-.034.069-.086s0-.1-.045-.1-.062.034-.069.086S372.781,106.251,372.812,106.255Z" transform="translate(-356.174 -94.563)"/><path class="k" d="M376.208,108.982c.031,0,.058-.017.058-.034s-.027-.038-.058-.038-.058,0-.058.038S376.177,108.982,376.208,108.982Z" transform="translate(-358.397 -96.429)"/><path class="k" d="M373.57,108.267a.062.062,0,0,0,.062-.058.058.058,0,0,0-.051-.069.062.062,0,0,0-.062.058.058.058,0,0,0,.051.069Z" transform="translate(-356.667 -95.923)"/><path class="k" d="M359.8,106.656a.062.062,0,0,0,.069-.055.058.058,0,0,0-.041-.072.066.066,0,0,0-.027.127Z" transform="translate(-347.627 -94.865)"/><path class="k" d="M357.819,106.444a.067.067,0,0,0,.062-.065c0-.038-.017-.075-.048-.079a.068.068,0,0,0-.065.069A.065.065,0,0,0,357.819,106.444Z" transform="translate(-346.323 -94.714)"/><path class="k" d="M361.534,106.747a.051.051,0,0,0,.065-.038.056.056,0,0,0-.11-.021.051.051,0,0,0,.045.058Z" transform="translate(-348.767 -94.942)"/><path class="k" d="M360.1,108.677a.065.065,0,1,0-.027-.082.058.058,0,0,0,.027.082Z" transform="translate(-347.834 -96.196)"/><path class="k" d="M358.356,108.4a.049.049,0,1,0-.027-.093.051.051,0,0,0-.041.062A.055.055,0,0,0,358.356,108.4Z" transform="translate(-346.664 -96.029)"/><path class="f" d="M363.791,77.281a2.845,2.845,0,0,0-2.842-3.552,8.45,8.45,0,0,1-1.345.1c-.831-.089-1.472-.758-2.244-1.081a2.941,2.941,0,0,0-3.463,1.03c-.292.439-.484.978-.934,1.253a4.918,4.918,0,0,1-1.311.343,2.142,2.142,0,0,0-1.438,2.135,2.522,2.522,0,0,0,1.534,2.121,3.089,3.089,0,0,0,2.66-.189c.728-.4,1.373-1.091,2.21-1.067s1.61.851,2.444.68a2.372,2.372,0,0,0,1.109-.741,1.925,1.925,0,0,1,1.146-.662c.453-.024.686.594.525,1.03l1.939-1.373" transform="translate(-341.36 -72.542)"/><path class="g" d="M356.13,80.432v.034l.058.093a1.516,1.516,0,0,0,.275.312,1.716,1.716,0,0,0,.573.343,1.658,1.658,0,0,0,.872.051,1.74,1.74,0,0,0,.923-.525,11.246,11.246,0,0,0,.686-1.03,1.253,1.253,0,0,1,1.105-.563,1.452,1.452,0,0,1,.656.175,1.222,1.222,0,0,1,.48.5,6.954,6.954,0,0,0,.343.649.8.8,0,0,0,.618.374,1.2,1.2,0,0,0,.669-.192,2.486,2.486,0,0,0,.511-.422,2.121,2.121,0,0,1,.954-.686,1.208,1.208,0,0,1,.968.227,1.658,1.658,0,0,1,.532.656,2.848,2.848,0,0,1,.2.621c.034.175.051.312.062.408a.7.7,0,0,0,.021.141v-.144a4.014,4.014,0,0,0-.048-.412,2.613,2.613,0,0,0-.189-.635,1.668,1.668,0,0,0-.539-.686,1.28,1.28,0,0,0-1.03-.247,2.162,2.162,0,0,0-1,.686,2.49,2.49,0,0,1-.5.408,1.109,1.109,0,0,1-.621.178.711.711,0,0,1-.546-.343c-.13-.192-.213-.422-.343-.642a1.29,1.29,0,0,0-.518-.532,1.548,1.548,0,0,0-.686-.189,1.441,1.441,0,0,0-.686.154,1.421,1.421,0,0,0-.494.45,11.8,11.8,0,0,1-.652,1.012,1.661,1.661,0,0,1-.879.511,1.572,1.572,0,0,1-.844-.038,1.716,1.716,0,0,1-.563-.309A2.216,2.216,0,0,1,356.13,80.432Z" transform="translate(-345.247 -76.809)"/><path class="g" d="M350.963,83.2a.442.442,0,0,0-.041.185,1.561,1.561,0,0,0,.048.515,1.8,1.8,0,0,0,.36.686,2.121,2.121,0,0,0,.762.553,3.113,3.113,0,0,0,1.678.192,4.355,4.355,0,0,0,.5-.1.625.625,0,0,0,.178-.058s-.261.048-.686.1a3.284,3.284,0,0,1-1.634-.209,2.141,2.141,0,0,1-.734-.525,1.849,1.849,0,0,1-.36-.642,2,2,0,0,1-.076-.69Z" transform="translate(-341.824 -79.542)"/><path class="b" d="M393.074,185.721a1.9,1.9,0,0,1-.4,1,1.321,1.321,0,0,1-.961.511,1.469,1.469,0,0,1-1.3-.652,3.693,3.693,0,0,1-.185-2.821,1.635,1.635,0,0,1,1.335-1.081A1.472,1.472,0,0,1,393,183.819" transform="translate(-367.512 -144.881)"/><path class="f" d="M392.918,183.783a1.179,1.179,0,0,0-.144-.384,1.682,1.682,0,0,0-.3-.388,1.414,1.414,0,0,0-.556-.326,1.315,1.315,0,0,0-.374-.058,1.132,1.132,0,0,0-.408.051,1.627,1.627,0,0,0-.728.525,2.1,2.1,0,0,0-.429.892,3.845,3.845,0,0,0-.079,1.057,2.883,2.883,0,0,0,.456,1.541,1.373,1.373,0,0,0,.59.446,1.605,1.605,0,0,0,.686.113h0a1.006,1.006,0,0,0,.48-.12,1.593,1.593,0,0,0,.36-.251,1.832,1.832,0,0,0,.395-.587,1.628,1.628,0,0,0,.124-.436,1.127,1.127,0,0,0,0-.117V185.7a2.473,2.473,0,0,1-.172.573,1.843,1.843,0,0,1-.4.559,1.527,1.527,0,0,1-.343.237.971.971,0,0,1-.446.106h0a1.424,1.424,0,0,1-1.187-.539,2.862,2.862,0,0,1-.432-1.489,2.708,2.708,0,0,1,.48-1.891,1.531,1.531,0,0,1,.686-.5,1,1,0,0,1,.384-.055,1.336,1.336,0,0,1,.343.051,1.373,1.373,0,0,1,.539.3,1.756,1.756,0,0,1,.3.367,3.384,3.384,0,0,1,.168.367Z" transform="translate(-367.426 -144.845)"/><path class="b" d="M394.293,185.824a1.915,1.915,0,0,1-.405,1,1.311,1.311,0,0,1-.964.511,1.472,1.472,0,0,1-1.3-.652,3.707,3.707,0,0,1-.182-2.821,1.63,1.63,0,0,1,1.335-1.081,1.476,1.476,0,0,1,1.445,1.122" transform="translate(-368.313 -144.947)"/><path class="f" d="M394.138,183.834a1.211,1.211,0,0,0-.144-.384,1.6,1.6,0,0,0-.3-.384,1.373,1.373,0,0,0-.556-.326,1.445,1.445,0,0,0-.374-.062,1.14,1.14,0,0,0-.408.055,1.558,1.558,0,0,0-.728.522,2.059,2.059,0,0,0-.429.892,3.843,3.843,0,0,0-.079,1.057,2.91,2.91,0,0,0,.453,1.541,1.373,1.373,0,0,0,.594.446,1.593,1.593,0,0,0,.669.113h0a1,1,0,0,0,.48-.12,1.56,1.56,0,0,0,.36-.251,1.8,1.8,0,0,0,.395-.587,1.716,1.716,0,0,0,.124-.432.986.986,0,0,0,0-.12v-.038a2.45,2.45,0,0,1-.175.573,1.809,1.809,0,0,1-.395.559,1.637,1.637,0,0,1-.343.233.981.981,0,0,1-.446.106h0a1.424,1.424,0,0,1-1.184-.539,2.862,2.862,0,0,1-.432-1.489,2.694,2.694,0,0,1,.48-1.891,1.555,1.555,0,0,1,.686-.5,1.064,1.064,0,0,1,.384-.055,1.311,1.311,0,0,1,.343.051,1.28,1.28,0,0,1,.539.3,1.567,1.567,0,0,1,.3.364,3.122,3.122,0,0,1,.182.367Z" transform="translate(-368.227 -144.879)"/><path class="b" d="M396.167,185.456a.92.92,0,0,1,.961.553,1.586,1.586,0,0,1,0,1.163,1.4,1.4,0,0,1-.3.525.765.765,0,0,1-.532.257.927.927,0,0,1-.738-.436,1.661,1.661,0,0,1-.25-1.373c.082-.312.309-.628.628-.635" transform="translate(-370.945 -146.7)"/><path class="f" d="M395.858,185.484h-.069a.477.477,0,0,0-.2.065.964.964,0,0,0-.408.614,1.678,1.678,0,0,0,.113,1.091,1.373,1.373,0,0,0,.4.525.762.762,0,0,0,.686.165.947.947,0,0,0,.549-.45,2.06,2.06,0,0,0,.23-.614,1.373,1.373,0,0,0-.178-1.078.965.965,0,0,0-.621-.4.688.688,0,0,0-.206,0l-.069.021a1.119,1.119,0,0,1,.268.017.93.93,0,0,1,.573.4,1.3,1.3,0,0,1,.148,1.03,1.864,1.864,0,0,1-.223.587.865.865,0,0,1-.494.4.686.686,0,0,1-.611-.148,1.373,1.373,0,0,1-.378-.487,1.655,1.655,0,0,1-.124-1.03.937.937,0,0,1,.364-.6A.717.717,0,0,1,395.858,185.484Z" transform="translate(-370.87 -146.666)"/><path class="f" d="M395.277,193.131a1.017,1.017,0,0,1,.1-.13.659.659,0,0,1,.3-.2,1.991,1.991,0,0,1,.378-.058c.1,0,.161,0,.161-.027s-.062-.027-.161-.038a1.109,1.109,0,0,0-.4.038.6.6,0,0,0-.343.244C395.263,193.065,395.267,193.131,395.277,193.131Z" transform="translate(-370.955 -151.447)"/><path class="f" d="M394.88,184.76a.374.374,0,0,0,.11.13.9.9,0,0,0,.378.165.858.858,0,0,0,.408-.024c.1-.031.154-.072.151-.082a2.4,2.4,0,0,1-.542,0A2.2,2.2,0,0,1,394.88,184.76Z" transform="translate(-370.699 -146.248)"/><path class="f" d="M365.078,261.167c0,.051-5.882-.1-13.137-.343s-13.131-.463-13.131-.511,5.882.1,13.137.343S365.078,261.119,365.078,261.167Z" transform="translate(-333.871 -195.865)"/></g><g transform="translate(76.509 48.742)"><path class="f" d="M252.271,439.422l2.993,6.843s-4.084,3.12-3.775,4.393l13.072-3.9-3.089-10.526Z" transform="translate(-227.756 -314.42)"/><path class="f" d="M264,464.082c0,.065.316.093.611.3s.446.47.508.45,0-.395-.378-.642S263.97,464.01,264,464.082Z" transform="translate(-235.982 -332.669)"/><path class="f" d="M261.53,467.834c.062,0,.058-.343-.213-.649s-.607-.343-.618-.292.23.2.446.446S261.465,467.847,261.53,467.834Z" transform="translate(-233.817 -334.547)"/><path class="g" d="M258.767,445.535l.264,7.029s-7.053,2.629-7.132,3.93l13.645-.021.038-10.982Z" transform="translate(-228.038 -320.502)"/><path class="f" d="M267.87,467.576c0,.065.275.175.5.456s.292.58.36.577.106-.378-.182-.724S267.873,467.511,267.87,467.576Z" transform="translate(-238.527 -334.99)"/><path class="f" d="M264.493,470.417c.062,0,.154-.319-.017-.686s-.484-.508-.511-.453.165.25.3.552S264.428,470.411,264.493,470.417Z" transform="translate(-235.96 -336.118)"/><path class="a" d="M223.6,150.48a8.231,8.231,0,0,0-3.137,4.674c-.515,2.365-1.922,14.85-1.922,14.85l-2.464,4.8,1.61,3.827h0a5.889,5.889,0,0,0,3.854-1.112l1.081-.786,1.987-2.945Z" transform="translate(-204.511 -126.737)"/><path class="h" d="M251.442,158l2.025-.343s-4.273-11.8-6.812-12.949l-1.846-.848v-.034l-3.044-1.242L238.2,141.28h0l-.271-.1.113.11-7.138.456-.556.422-3.662,1.915h0a7.32,7.32,0,0,0-3.109,2.468c-1.479,1.925-3.638,11.761-3.638,11.761l4.788,1.97,1.191,7.948L222.878,183.4l26.083-.5-5.639-15.759.875-7.869Z" transform="translate(-207.046 -120.629)"/><g class="i" transform="translate(18.426 49.105)"><path d="M236.06,225.746a22.215,22.215,0,0,0,8.5,2.087,5.187,5.187,0,0,0,3.03-.566,6.9,6.9,0,0,1,1.1-.724,3.685,3.685,0,0,1,1.774-.051,11.981,11.981,0,0,0,4.135-.271,1.1,1.1,0,0,0,.559-.261.4.4,0,0,0,.017-.553.611.611,0,0,0-.36-.1l-18.615-.93Z" transform="translate(-236.06 -224.38)"/></g><path class="f" d="M231.13,173.6c.051,0,.422,2.44.831,5.467s.7,5.491.655,5.491-.422-2.44-.831-5.467S231.082,173.607,231.13,173.6Z" transform="translate(-214.393 -141.923)"/><path class="f" d="M251.653,152.519a1.448,1.448,0,0,1-.264-.254c-.165-.172-.391-.422-.686-.734l-.982-1.105c-.364-.419-.776-.875-1.16-1.393a5.926,5.926,0,0,1-.879-1.6,3.679,3.679,0,0,1-.185-1.486,2.547,2.547,0,0,1,.271-.968,1.03,1.03,0,0,1,.209-.305,3.374,3.374,0,0,0-.343,1.284,3.813,3.813,0,0,0,.216,1.421,6.132,6.132,0,0,0,.868,1.551c.378.511.782.968,1.143,1.39l.951,1.133c.268.323.48.587.628.772A1.792,1.792,0,0,1,251.653,152.519Z" transform="translate(-225.138 -122.921)"/><path class="f" d="M265.866,143.18a1.792,1.792,0,0,1-.041.415,5.837,5.837,0,0,1-.319,1.1,9.953,9.953,0,0,1-2.145,3.089c-1.006,1.064-1.936,2.008-2.612,2.687l-.807.8a1.961,1.961,0,0,1-.312.278,1.823,1.823,0,0,1,.261-.326l.769-.837,2.57-2.725a10.664,10.664,0,0,0,2.159-3.006A12.493,12.493,0,0,0,265.866,143.18Z" transform="translate(-233.115 -121.943)"/><path class="a" d="M270.519,191.511l.827,4.616-11.006,1.62.635,5.066s13.594.745,15.1.412c1.9-.419,3.35-2.694,3.3-6.016a40.827,40.827,0,0,0-1.4-7Z" transform="translate(-233.581 -152.832)"/><path class="f" d="M287.037,150.046c0,.021-.24.027-.649.154a3.675,3.675,0,0,0-1.5.961,4.44,4.44,0,0,0-1.15,2.361,6.594,6.594,0,0,0-.076,1.575,10.7,10.7,0,0,0,.271,1.682c.5,2.289.964,4.359,1.3,5.889.161.755.285,1.373.343,1.795.038.213.065.378.079.491a.565.565,0,0,1,0,.175s-.058-.233-.158-.652-.24-1.05-.412-1.781c-.343-1.5-.851-3.573-1.352-5.879a10.714,10.714,0,0,1-.271-1.716,6.6,6.6,0,0,1,.089-1.616,4.485,4.485,0,0,1,1.222-2.42,3.577,3.577,0,0,1,1.61-.933,2.849,2.849,0,0,1,.494-.082A.923.923,0,0,1,287.037,150.046Z" transform="translate(-248.757 -126.451)"/><path class="f" d="M254.444,262.707c0,.052-5.851.189-13.069.305s-13.076.178-13.076.127,5.834-.185,13.072-.305S254.444,262.659,254.444,262.707Z" transform="translate(-212.537 -200.437)"/><path class="h" d="M221.728,252.979l-5.81,30.678a18.289,18.289,0,0,0,1.064,10.385L229.309,323.9l9.719-6.2-9.953-29.515,6.3-26.172-2.059-10.965Z" transform="translate(-204.194 -192.792)"/><path class="h" d="M246.925,260.216l4.444,35.277.769,28.605,11.058.172s-.4-28.976-.4-30.723V264.98a36.766,36.766,0,0,0,2.22-3.5c.635-1.27,0-7.615,0-7.615s-2.358-4.829-11.267-3.35S246.925,260.216,246.925,260.216Z" transform="translate(-224.631 -192.253)"/><path class="f" d="M251.119,334.608a1.734,1.734,0,0,1,0-.175,4.557,4.557,0,0,0-.024-.522c-.021-.467-.048-1.139-.082-2-.062-1.747-.151-4.259-.264-7.358s-.227-6.809-.364-10.917c-.075-2.059-.148-4.211-.254-6.442s-.24-4.547-.518-6.9c-.137-1.177-.312-2.334-.5-3.473s-.395-2.262-.587-3.363c-.367-2.207-.666-4.345-.927-6.387-.518-4.077-.889-7.763-1.229-10.852s-.638-5.591-.865-7.314c-.117-.854-.206-1.524-.268-1.984-.027-.22-.051-.391-.065-.515a.569.569,0,0,1,0-.178.7.7,0,0,0,.034.175c.034.117.048.292.086.515.072.45.178,1.115.3,1.977.251,1.716.57,4.218.92,7.31s.741,6.771,1.266,10.845c.264,2.039.57,4.173.94,6.38.192,1.1.388,2.224.59,3.36s.364,2.3.5,3.483c.281,2.358.408,4.674.518,6.908s.175,4.393.244,6.445c.124,4.118.233,7.808.326,10.917s.158,5.618.206,7.362c.021.865.038,1.538.048,2v.518A.435.435,0,0,1,251.119,334.608Z" transform="translate(-223.612 -202.763)"/><path class="f" d="M265.985,340.164c-.048,0-.868-14.654-1.826-32.73s-1.7-32.741-1.644-32.744.865,14.651,1.822,32.734S266.033,340.164,265.985,340.164Z" transform="translate(-235.008 -208.319)"/><path class="f" d="M268.14,267.142a1.127,1.127,0,0,1-.227.3,4.693,4.693,0,0,1-.765.659,5.083,5.083,0,0,1-6.246-.309,4.46,4.46,0,0,1-.686-.734,1.25,1.25,0,0,1-.2-.312,10.375,10.375,0,0,0,.971.951,5.168,5.168,0,0,0,6.1.3A9.509,9.509,0,0,0,268.14,267.142Z" transform="translate(-233.371 -203.098)"/><path class="f" d="M235.32,332.191l-.079-.161-.216-.48-.81-1.857c-.686-1.62-1.716-3.954-2.948-6.836s-2.694-6.339-4.317-10.162-3.4-8.038-5.148-12.506c-.1-.281-.209-.563-.316-.841a5.032,5.032,0,0,1-.185-.892,11.384,11.384,0,0,1-.055-1.774c.045-1.174.178-2.32.323-3.432.316-2.245.724-4.389,1.143-6.425.844-4.074,1.747-7.708,2.522-10.756s1.459-5.491,1.936-7.19l.559-1.946c.065-.216.117-.381.151-.5a1.305,1.305,0,0,1,.058-.172.576.576,0,0,1-.041.175c-.041.113-.076.292-.134.508-.124.456-.3,1.112-.529,1.956-.453,1.7-1.112,4.153-1.877,7.207s-1.651,6.685-2.485,10.756c-.415,2.035-.817,4.18-1.129,6.418-.144,1.119-.275,2.262-.319,3.432a11.433,11.433,0,0,0,.072,1.719,4.46,4.46,0,0,0,.175.851c.106.278.209.559.316.837,1.747,4.462,3.531,8.672,5.148,12.506s3.065,7.279,4.283,10.176l2.9,6.864c.343.807.6,1.435.779,1.867l.2.487A.99.99,0,0,0,235.32,332.191Z" transform="translate(-207.896 -202.782)"/><path class="f" d="M249.743,352.514a9.249,9.249,0,0,1-1.414-1.678,13.437,13.437,0,0,1-1.249-1.815,14.178,14.178,0,0,1,1.373,1.716c.367.484.686.93.92,1.253A4.14,4.14,0,0,1,249.743,352.514Z" transform="translate(-224.872 -257.14)"/><g class="i" transform="translate(21.827 65.564)"><path d="M245.97,272.34l1.6,27.407,1.445,2.4.525-2.169Z" transform="translate(-245.97 -272.34)"/></g><g class="i" transform="translate(16.834 62.3)"><path d="M231.64,263.266l-.22,1.15h23.735l-.12-1.586Z" transform="translate(-231.42 -262.83)"/></g><path class="f" d="M182.37,207.44l15.9,5.889,13.409,2.049-15.941-7.77Z" transform="translate(-182.37 -164.149)"/><path class="j" d="M200.122,219.378a6.754,6.754,0,0,0-.844-2.4,1.84,1.84,0,0,1-.22-.453.525.525,0,0,1,.093-.477c.2-.22.577-.124.827.045a2.927,2.927,0,0,1,1.071,1.5,8.755,8.755,0,0,1,.343,1.84" transform="translate(-193.317 -169.717)"/><path class="j" d="M207.172,216.133h-.779a1.538,1.538,0,0,0-.686-.4.546.546,0,0,0-.522.206c.343-.583.734-1.225.806-1.4.144-.343-.172-.6-.686-.6s-2.763,3.188-2.763,3.188,1.4-2.564,1.534-2.958c.343-.978-.731-1.05-1.119-.577-.484.583-2.433,3.535-2.433,3.535a1.373,1.373,0,0,0-.117,1.167c.257.57,1,.343,1,.343a.954.954,0,0,0,.522.793,1.63,1.63,0,0,0,1.321-.051l2.91.656,1.054-.106a3.229,3.229,0,0,0,2.873-2.746h0Z" transform="translate(-194.165 -168.006)"/><path class="k" d="M211.1,220.84a9.494,9.494,0,0,1-.855,1.373c-.254.364-.484.686-.659.927a2.5,2.5,0,0,1-.292.367,2.453,2.453,0,0,1,.24-.4c.158-.244.384-.577.635-.94s.48-.686.649-.93l.2-.278C211.068,220.871,211.088,220.84,211.1,220.84Z" transform="translate(-200.051 -172.95)"/><path class="k" d="M214.05,224.162a2.671,2.671,0,0,1,.257-.474c.172-.288.415-.686.686-1.112.134-.216.261-.422.367-.611a.717.717,0,0,0,.065-.542,1.335,1.335,0,0,0-.251-.463.385.385,0,0,1,.113.1.9.9,0,0,1,.2.343.759.759,0,0,1-.051.6c-.106.2-.233.4-.367.621-.268.436-.522.82-.707,1.1A4.331,4.331,0,0,1,214.05,224.162Z" transform="translate(-203.178 -173.029)"/><path class="k" d="M217.791,226.628a1.788,1.788,0,0,1,.154-.453l.209-.474a3.839,3.839,0,0,0,.213-.59.686.686,0,0,0-.093-.566.487.487,0,0,0-.206-.148.563.563,0,0,0-.216-.062.913.913,0,0,0-.316.11c-.072.038-.117.055-.117.048s.031-.034.1-.079a1.3,1.3,0,0,1,.13-.079.522.522,0,0,1,.2-.065.659.659,0,0,1,.247.055.666.666,0,0,1,.244.165.758.758,0,0,1,.113.642,3.223,3.223,0,0,1-.227.6c-.082.178-.161.343-.223.47C217.873,226.463,217.8,226.631,217.791,226.628Z" transform="translate(-205.391 -175.203)"/><path class="k" d="M220.066,223.12a.323.323,0,0,1,.124.038,1.462,1.462,0,0,1,.3.178,1.651,1.651,0,0,1,.47,2.107,1.276,1.276,0,0,1-.2.292c-.055.062-.093.089-.1.086a2.509,2.509,0,0,0,.237-.4,1.678,1.678,0,0,0-.453-2.032C220.231,223.2,220.042,223.134,220.066,223.12Z" transform="translate(-207.128 -174.448)"/><path class="k" d="M202.473,218.24a16.584,16.584,0,0,1-1.393,2.059A17.3,17.3,0,0,1,202.473,218.24Z" transform="translate(-194.659 -171.242)"/><path class="j" d="M239.98,207.837l-1.815-.412-1.754-1.644a1.249,1.249,0,0,0-.779-.343l-3.178-.182a1.246,1.246,0,0,0-.872.292l-2.272,1.918,9.915,4.839,1.373.12Z" transform="translate(-213.2 -162.714)"/><path class="k" d="M237.1,209.927s-.237-.027-.614-.076a2.663,2.663,0,0,0-1.438.148,3.83,3.83,0,0,0-.686.429c-.2.151-.381.292-.539.4a3.256,3.256,0,0,1-.395.23.526.526,0,0,1-.154.055,3.9,3.9,0,0,0,.511-.343c.151-.113.343-.257.529-.412a3.526,3.526,0,0,1,.686-.446,2.107,2.107,0,0,1,.813-.182,3.553,3.553,0,0,1,.686.051,4.481,4.481,0,0,1,.443.093A.527.527,0,0,1,237.1,209.927Z" transform="translate(-215.801 -165.651)"/><path class="k" d="M242.077,215.177a1.844,1.844,0,0,0-.343-.062,1.794,1.794,0,0,0-.817.113,4.148,4.148,0,0,0-.748.384,1.549,1.549,0,0,1-.309.172,1.226,1.226,0,0,1,.271-.227,3.135,3.135,0,0,1,.755-.415,1.623,1.623,0,0,1,.855-.093A.717.717,0,0,1,242.077,215.177Z" transform="translate(-220.13 -169.134)"/><path class="k" d="M255.892,213.18c-.021,0-.278-.367-.614-.817a10.155,10.155,0,0,1-.607-.824A6.142,6.142,0,0,1,255.892,213.18Z" transform="translate(-229.857 -166.842)"/><path class="h" d="M241.325,197.374l4.029-3.751a.384.384,0,0,0-.027-.587h0a.384.384,0,0,0-.491.017l-4.726,4.235" transform="translate(-220.294 -154.636)"/><g class="i" transform="translate(19.816 38.32)"><path d="M241.325,197.374l4.029-3.751a.384.384,0,0,0-.027-.587h0a.384.384,0,0,0-.491.017l-4.726,4.235" transform="translate(-240.11 -192.956)"/></g><path class="f" d="M241.2,89.485a4.8,4.8,0,0,1,1.06-4.269,6.263,6.263,0,0,1,2.924-1.74,6.768,6.768,0,0,1,4.537.1,4.448,4.448,0,0,1,2.746,3.463,9.658,9.658,0,0,0,.168,2.09,1.555,1.555,0,0,1,.175.879.724.724,0,0,1-.628.477,1.63,1.63,0,0,1-.81-.165,8.758,8.758,0,0,1-2.3-1.654" transform="translate(-220.928 -82.504)"/><path class="j" d="M241.093,94.968c.141-2.176,1.589-4.839,3.755-4.606l6.761,1.716a1.277,1.277,0,0,1,1.136,1.294l-.758,16.312h0l-4.427,5.254s-2.828-3.291-3.006-4.29h0a2.746,2.746,0,0,1-.048-.343,10.678,10.678,0,0,1-.027-2.238h0v-1.846c0,.01-2.776-.467-3.343-4.091A37.381,37.381,0,0,1,241.093,94.968Z" transform="translate(-220.841 -87.242)"/><path class="f" d="M244.5,110.666a.47.47,0,0,0,.45.47.45.45,0,0,0,.48-.419.467.467,0,0,0-.45-.47.446.446,0,0,0-.48.419Z" transform="translate(-223.177 -100.311)"/><path class="f" d="M243.224,107.357c.055.062.408-.2.909-.2s.865.254.92.192-.031-.137-.192-.254a1.26,1.26,0,0,0-.734-.23,1.239,1.239,0,0,0-.724.233C243.248,107.22,243.193,107.33,243.224,107.357Z" transform="translate(-222.334 -98.094)"/><path class="f" d="M258.83,110.666a.467.467,0,0,0,.446.47.446.446,0,0,0,.48-.419.463.463,0,0,0-.446-.47.443.443,0,0,0-.48.419Z" transform="translate(-232.589 -100.311)"/><path class="f" d="M257.547,107.667c.058.058.412-.2.909-.2s.868.254.923.192-.031-.137-.192-.254a1.308,1.308,0,0,0-.738-.227,1.218,1.218,0,0,0-.724.23C257.571,107.53,257.519,107.64,257.547,107.667Z" transform="translate(-231.742 -98.297)"/><path class="f" d="M249.825,111.416a3.373,3.373,0,0,0-.813-.148c-.127,0-.247-.041-.268-.127a.642.642,0,0,1,.086-.378c.12-.309.247-.631.378-.971a16.342,16.342,0,0,0,.855-2.543A17.016,17.016,0,0,0,249,109.717l-.364.978a.738.738,0,0,0-.065.5.312.312,0,0,0,.209.185.762.762,0,0,0,.216.031A3.188,3.188,0,0,0,249.825,111.416Z" transform="translate(-225.843 -98.343)"/><path class="k" d="M251.2,134.174a9.194,9.194,0,0,0,4.856-1.284s-1.225,2.505-4.849,2.159Z" transform="translate(-227.578 -115.184)"/><path class="k" d="M252.759,122.233a.9.9,0,0,1,.807-.343.827.827,0,0,1,.57.309.518.518,0,0,1,.038.594.6.6,0,0,1-.655.165,1.891,1.891,0,0,1-.638-.381.549.549,0,0,1-.144-.151.165.165,0,0,1,0-.185" transform="translate(-228.568 -107.956)"/><path class="f" d="M253.472,120.41c-.079,0-.082.539-.546.923s-1.03.323-1.05.4.13.106.374.113a1.373,1.373,0,0,0,.875-.3,1.2,1.2,0,0,0,.426-.776C253.572,120.54,253.51,120.406,253.472,120.41Z" transform="translate(-228.021 -106.987)"/><path class="f" d="M256.905,105.294c.048.137.549.072,1.136.144s1.06.233,1.139.113c.034-.058-.048-.185-.24-.319a1.984,1.984,0,0,0-1.716-.2C256.995,105.136,256.885,105.242,256.905,105.294Z" transform="translate(-231.324 -96.817)"/><path class="f" d="M243.756,103.106c.089.113.432,0,.848,0s.765.079.844-.041c.038-.055-.017-.172-.172-.278a1.184,1.184,0,0,0-.686-.189,1.2,1.2,0,0,0-.686.227C243.767,102.931,243.718,103.048,243.756,103.106Z" transform="translate(-222.681 -95.288)"/><path class="f" d="M260.278,100.056c-.94.388-1.778-2.509-2.639-3.048s-1.716,1.3-1.8.281c-.058-.892.24-1.874-.223-2.643-.614-1.03-2.21-1.054-2.831-2.059-.343-.587-.288-1.373-.686-1.939a2.334,2.334,0,0,0-1.685-.855,6.069,6.069,0,0,1-1.891-.419,1.4,1.4,0,0,1-.817-1.579,34.386,34.386,0,0,1,8.141.378,3.062,3.062,0,0,1,1.716.686,3.387,3.387,0,0,1,.686,1.846c.474,3.223,1.541,6.123,2.011,9.345" transform="translate(-225.249 -85.508)"/><path class="h" d="M241,89.5c.182-2.124,1.459-4.8,3.391-5.724a5.965,5.965,0,0,1,5.968.2c1.9,1.308,2.4,3.511,2.646,5.807s-.12,3.123-.656,5.371l-.23,4.945c1.328,1.513,3.065-.2,3.319-.319a11.183,11.183,0,0,0,1.325-1.956c1.373-2.588-.748-2.969-.384-4.424a7.052,7.052,0,0,0-.271-4.41c-.275-.652-.662-1.26-.882-1.929-.244-.734-.278-1.531-.583-2.241a4.094,4.094,0,0,0-1.75-1.867,8.462,8.462,0,0,0-2.44-.875c-1.96-.439-3.26-1.194-5.148-.5a6.087,6.087,0,0,0-4.081,4.142A8.923,8.923,0,0,0,241,89.494" transform="translate(-220.809 -81.298)"/><path class="f" d="M243.41,87.354a.993.993,0,0,1,.117-.2,4.463,4.463,0,0,1,.408-.535,6.246,6.246,0,0,1,1.953-1.513,6.14,6.14,0,0,1,3.6-.594,6.38,6.38,0,0,1,3.909,2.117,8.3,8.3,0,0,1,1.764,4.118,13.546,13.546,0,0,1,.134,3.665,7.706,7.706,0,0,1-.628,2.4,4.906,4.906,0,0,1-.312.6.961.961,0,0,1-.134.192,8,8,0,0,0,.384-.817,8.283,8.283,0,0,0,.566-2.375A13.971,13.971,0,0,0,255,90.786a8.209,8.209,0,0,0-1.74-4.015,6.277,6.277,0,0,0-3.8-2.059,6.054,6.054,0,0,0-3.518.546,6.455,6.455,0,0,0-1.956,1.445C243.612,87.089,243.424,87.364,243.41,87.354Z" transform="translate(-222.461 -83.369)"/><path class="f" d="M277.858,132.885a1.019,1.019,0,0,1-.429.343,2.3,2.3,0,0,1-1.321.275,2.327,2.327,0,0,1-1.242-.522c-.264-.227-.371-.419-.343-.432a4.586,4.586,0,0,1,.432.343,2.419,2.419,0,0,0,2.426.237C277.676,132.995,277.841,132.864,277.858,132.885Z" transform="translate(-242.893 -114.959)"/><path class="f" d="M276.75,125.162a8,8,0,0,1-.8-.686,7.871,7.871,0,0,1-.82-.645,2.018,2.018,0,0,1,.933.508A1.984,1.984,0,0,1,276.75,125.162Z" transform="translate(-243.295 -109.233)"/><path class="f" d="M278.582,117.048a1.611,1.611,0,0,0-1.112-1.393c0-.021.12-.041.305,0a1.228,1.228,0,0,1,.6.408,1.249,1.249,0,0,1,.275.686C278.647,116.941,278.6,117.051,278.582,117.048Z" transform="translate(-244.832 -103.848)"/><path class="f" d="M278.962,114.488c-.045.024-.172-.154-.381-.3s-.408-.223-.4-.275.261-.055.508.13S279.007,114.471,278.962,114.488Z" transform="translate(-245.298 -102.699)"/><path class="f" d="M273.12,89.535c.017.048-.127.141-.292.264s-.3.237-.343.206.041-.206.23-.343S273.107,89.49,273.12,89.535Z" transform="translate(-241.55 -86.696)"/><path class="f" d="M272.024,89.087c.031.038-.034.151-.151.251s-.237.154-.268.117.034-.151.151-.251S271.99,89.049,272.024,89.087Z" transform="translate(-240.975 -86.406)"/><path class="j" d="M272.3,115c0-.271.316-.906.58-.947.714-.11,2-.048,2,1.757a1.859,1.859,0,0,1-2.478,1.9C272.4,117.642,272.3,115.933,272.3,115Z" transform="translate(-241.436 -102.792)"/><path class="k" d="M274.794,118.268s.045.027.117.062a.426.426,0,0,0,.323,0,1.071,1.071,0,0,0,.487-.957,1.466,1.466,0,0,0-.124-.614.494.494,0,0,0-.326-.343.216.216,0,0,0-.254.12c-.031.069-.017.117-.027.12s-.055-.038-.034-.141a.254.254,0,0,1,.1-.154.309.309,0,0,1,.237-.065.6.6,0,0,1,.453.381,1.444,1.444,0,0,1,.151.686,1.1,1.1,0,0,1-.621,1.071.453.453,0,0,1-.395-.062C274.8,118.326,274.784,118.271,274.794,118.268Z" transform="translate(-243.073 -104.282)"/><path class="c" d="M250.2,121.24s-2.9,2.6-5.7,2.22a5.012,5.012,0,0,1-3.775-2.22s-.443,2.673.8,4c1.373,1.469,2,1.874,4.915,1.373s4.489-3.8,4.489-3.8Z" transform="translate(-220.653 -107.532)"/><path class="c" d="M269.91,115a10.179,10.179,0,0,1-1.52,2.214,5.318,5.318,0,0,1,.686-1.157A5.147,5.147,0,0,1,269.91,115Z" transform="translate(-238.868 -103.434)"/><path class="c" d="M271.8,124.915c0,.051-.271.1-.6.178s-.59.151-.611.1.227-.2.573-.275S271.8,124.867,271.8,124.915Z" transform="translate(-240.311 -109.917)"/><path class="f" d="M249.689,124.938a1.92,1.92,0,0,1-.268.312,7.84,7.84,0,0,1-.841.738,6.5,6.5,0,0,1-3.394,1.4,4.633,4.633,0,0,1-3.453-1.16,3.209,3.209,0,0,1-.686-.885,1.455,1.455,0,0,1-.158-.381,5.013,5.013,0,0,0,.93,1.174,4.654,4.654,0,0,0,3.356,1.074,6.806,6.806,0,0,0,3.336-1.321C249.264,125.343,249.665,124.914,249.689,124.938Z" transform="translate(-220.806 -109.961)"/><path class="f" d="M251.73,130.275a2.4,2.4,0,0,1-.686.484,5.515,5.515,0,0,1-3.991.45,2.5,2.5,0,0,1-.782-.319c0-.027.312.089.813.2a6.219,6.219,0,0,0,3.9-.439C251.449,130.429,251.713,130.247,251.73,130.275Z" transform="translate(-224.34 -113.465)"/></g><g transform="translate(44.311 46.78)"><path class="f" d="M127.548,78.129a3.2,3.2,0,0,1,2.241-2.282,3.8,3.8,0,0,1,3.5.374,8.124,8.124,0,0,0,2.008,1.373c1.294.371,2.746-.659,3.978-.158a1.733,1.733,0,0,1-.638,3.343,1.541,1.541,0,0,1,.721,2.19,2.308,2.308,0,0,1-2.3.982A4.849,4.849,0,0,1,134.71,82.8c-.686-.553-1.311-1.184-2.042-1.682a3.775,3.775,0,0,0-2.478-.758,3.461,3.461,0,0,0-2.632,2.179,8.9,8.9,0,0,0-.529,3.521,14.583,14.583,0,0,1-.247,3.566.453.453,0,0,1-.22.343c-.189.069-.367-.127-.47-.3a17.472,17.472,0,0,1-2.344-6.411,5.438,5.438,0,0,1,.426-3.717c.666-1.15,2.454-2.059,3.391-1.417" transform="translate(-111.582 -75.583)"/><path class="l" d="M125.522,105.619c-.062-.024-2.4-.642-2.272,1.74a1.79,1.79,0,0,0,2.5,1.678C125.752,108.969,125.522,105.619,125.522,105.619Z" transform="translate(-111.338 -95.252)"/><path class="m" d="M126.129,109.679a.767.767,0,0,1-.106.069.408.408,0,0,1-.309.024,1.03,1.03,0,0,1-.532-.892,1.373,1.373,0,0,1,.082-.6.48.48,0,0,1,.292-.343.216.216,0,0,1,.254.1c.034.062.021.113.034.117s.048-.045.024-.141a.264.264,0,0,0-.1-.144.309.309,0,0,0-.233-.048.59.59,0,0,0-.412.395,1.435,1.435,0,0,0-.1.686,1.077,1.077,0,0,0,.666.992.443.443,0,0,0,.378-.086C126.129,109.737,126.14,109.683,126.129,109.679Z" transform="translate(-112.498 -96.752)"/><path class="l" d="M134.369,81.52a6.421,6.421,0,0,1,6.864,6.068c.158,2.982.3,6.208.261,7.835a4.187,4.187,0,0,1-3.562,4s.075,1.03.161,2.317a4.6,4.6,0,0,1-4.41,4.9h0a4.592,4.592,0,0,1-4.764-4.42L128.4,88.15a6.421,6.421,0,0,1,5.972-6.644Z" transform="translate(-114.722 -79.472)"/><path class="m" d="M147.632,131.093a8.312,8.312,0,0,1-4.461-1.373,4.3,4.3,0,0,0,4.537,2.251Z" transform="translate(-124.425 -111.141)"/><path class="f" d="M160.482,105.511a.5.5,0,0,1-.484.5.477.477,0,0,1-.508-.453.5.5,0,0,1,.484-.5.474.474,0,0,1,.508.453Z" transform="translate(-135.144 -94.941)"/><path class="f" d="M159.52,101.812c-.062.062-.439-.22-.975-.223s-.93.264-.988.2.034-.144.206-.268a1.373,1.373,0,0,1,.793-.237,1.308,1.308,0,0,1,.776.257C159.5,101.664,159.551,101.781,159.52,101.812Z" transform="translate(-133.863 -92.461)"/><path class="f" d="M145.4,105.291a.494.494,0,0,1-.484.5.474.474,0,0,1-.508-.453.5.5,0,0,1,.484-.5.474.474,0,0,1,.508.453Z" transform="translate(-125.239 -94.797)"/><path class="f" d="M144.219,101.988c-.062.065-.436-.216-.971-.22s-.933.264-.988.2.034-.144.206-.268a1.352,1.352,0,0,1,.793-.237,1.3,1.3,0,0,1,.772.254A.493.493,0,0,1,144.219,101.988Z" transform="translate(-123.816 -92.579)"/><path class="f" d="M153.117,106.074a3.479,3.479,0,0,1,.872-.151c.137,0,.268-.038.288-.13a.686.686,0,0,0-.086-.408c-.127-.343-.257-.686-.4-1.03a17.18,17.18,0,0,1-.885-2.746,17.3,17.3,0,0,1,1.105,2.656l.378,1.054a.779.779,0,0,1,.069.535.343.343,0,0,1-.226.2.875.875,0,0,1-.233.031A3.473,3.473,0,0,1,153.117,106.074Z" transform="translate(-130.817 -92.676)"/><path class="f" d="M148.749,115.67c.089,0,.086.577.58.992s1.115.343,1.119.439-.141.113-.4.117a1.448,1.448,0,0,1-.933-.343,1.27,1.27,0,0,1-.45-.834C148.642,115.807,148.711,115.666,148.749,115.67Z" transform="translate(-128.03 -101.912)"/><path class="f" d="M143.544,97.107c-.055.144-.59.072-1.218.141s-1.139.24-1.222.106c-.038-.062.051-.2.257-.343a2.121,2.121,0,0,1,1.86-.192C143.465,96.922,143.568,97.039,143.544,97.107Z" transform="translate(-123.062 -89.445)"/><path class="f" d="M159.595,97.113c-.1.12-.463,0-.909,0s-.82.076-.906-.055c-.038-.062.024-.182.189-.3a1.27,1.27,0,0,1,.741-.2,1.29,1.29,0,0,1,.721.251C159.585,96.927,159.636,97.058,159.595,97.113Z" transform="translate(-134.014 -89.365)"/><path class="f" d="M141.136,85.234c-.686.982-3.363.583-4.705-.426a7.677,7.677,0,0,0-2.91-1.524,2.989,2.989,0,0,0-2.265.446,5.756,5.756,0,0,0-1.644,1.7c.82,1.826.467,3.94.1,5.906a1.009,1.009,0,0,1-.257.6.819.819,0,0,1-1.03-.161,3.109,3.109,0,0,1-.779-1.6,10.3,10.3,0,0,1-.216-4.077,7.049,7.049,0,0,1,1.716-3.669,6.7,6.7,0,0,1,4.575-2.059,8.237,8.237,0,0,1,4.849,1.417,4.8,4.8,0,0,1,1.647,1.689" transform="translate(-114.013 -78.721)"/><path class="h" d="M113.8,444.85l.165,7.022s-7.083,2.522-7.18,3.823l13.625.175.2-10.951Z" transform="translate(-100.53 -318.12)"/><g class="n" transform="translate(16.992 133.203)"><path class="e" d="M138.728,463.724a.556.556,0,0,1,.374.638.532.532,0,0,1-.628.381.594.594,0,0,1-.4-.686.556.556,0,0,1,.686-.319" transform="translate(-138.063 -463.711)"/></g><g class="n" transform="translate(6.255 136.659)"><path class="e" d="M120.405,474.885l-.021-1.105-13.059.247s-.611.254-.546.686Z" transform="translate(-106.776 -473.78)"/></g><path class="f" d="M127.068,464.96c0,.065.343.1.656.319s.5.5.559.474-.034-.412-.432-.686S127.044,464.9,127.068,464.96Z" transform="translate(-113.848 -331.281)"/><path class="f" d="M122.88,466.719c0,.065.271.182.494.463s.281.583.343.583.113-.378-.172-.728S122.883,466.653,122.88,466.719Z" transform="translate(-111.098 -332.466)"/><path class="f" d="M119.478,469.5c.062,0,.158-.316,0-.686s-.474-.515-.5-.46.161.254.3.556S119.413,469.5,119.478,469.5Z" transform="translate(-108.53 -333.553)"/><path class="f" d="M127.475,459.974c.024.062.343-.024.707,0s.686.154.7.1-.244-.3-.686-.326S127.441,459.922,127.475,459.974Z" transform="translate(-114.115 -327.9)"/><path class="f" d="M127.46,454.241a1.283,1.283,0,0,0,.686,0,3.123,3.123,0,0,0,.714-.209,3.579,3.579,0,0,0,.395-.2.9.9,0,0,0,.209-.158.285.285,0,0,0,.034-.343.36.36,0,0,0-.288-.158.964.964,0,0,0-.257.031,2.954,2.954,0,0,0-.426.141,2.5,2.5,0,0,0-.635.4c-.319.288-.432.535-.408.549s.185-.182.511-.422a2.745,2.745,0,0,1,.614-.343,2.259,2.259,0,0,1,.391-.117c.144-.034.268-.034.305.031s0,.034-.017.075a.639.639,0,0,1-.151.113,3.553,3.553,0,0,1-.364.2,3.618,3.618,0,0,1-.662.244A5.334,5.334,0,0,0,127.46,454.241Z" transform="translate(-114.107 -323.584)"/><path class="f" d="M126.034,452.435a1.108,1.108,0,0,0,.185-.659,2.135,2.135,0,0,0-.082-.748,2.343,2.343,0,0,0-.168-.415.556.556,0,0,0-.432-.343.312.312,0,0,0-.285.185.893.893,0,0,0-.075.251,1.479,1.479,0,0,0,0,.46,1.561,1.561,0,0,0,.281.707c.261.343.539.439.542.419a2.67,2.67,0,0,1-.4-.508,1.572,1.572,0,0,1-.209-.645,1.517,1.517,0,0,1,0-.391c.024-.148.079-.261.134-.247a.483.483,0,0,1,.237.227,2.221,2.221,0,0,1,.165.374,2.444,2.444,0,0,1,.124.686C126.071,452.175,126,452.422,126.034,452.435Z" transform="translate(-112.594 -321.68)"/><path class="h" d="M186.455,445.6l-.264,7.018s7.046,2.625,7.125,3.926l-13.628-.021-.038-10.955Z" transform="translate(-148.385 -318.593)"/><g class="n" transform="translate(33.198 133.396)"><path class="e" d="M185.68,464.306a.556.556,0,0,0-.388.635.539.539,0,0,0,.625.388.583.583,0,0,0,.4-.686.549.549,0,0,0-.686-.343" transform="translate(-185.282 -464.273)"/></g><g class="n" transform="translate(31.302 136.827)"><path class="e" d="M179.76,475.375l.038-1.105,13.041.436s.607.264.539.686Z" transform="translate(-179.76 -474.27)"/></g><path class="f" d="M196.976,465.793c0,.065-.343.1-.666.309s-.5.494-.563.467.038-.412.439-.662S196.99,465.732,196.976,465.793Z" transform="translate(-158.947 -331.836)"/><path class="f" d="M201.823,467.586c0,.065-.275.175-.5.457s-.292.58-.343.577-.11-.377.178-.724S201.82,467.521,201.823,467.586Z" transform="translate(-162.366 -333.035)"/><path class="f" d="M205.725,470.427c-.062,0-.154-.319.017-.686s.484-.508.511-.453-.165.251-.3.549S205.79,470.421,205.725,470.427Z" transform="translate(-165.458 -334.164)"/><path class="f" d="M196.332,460.78c-.027.058-.343-.031-.707,0s-.669.141-.686.086.247-.3.686-.319S196.37,460.728,196.332,460.78Z" transform="translate(-158.426 -328.428)"/><path class="f" d="M195.134,455.024a1.277,1.277,0,0,1-.686,0,3.089,3.089,0,0,1-.71-.223,3.134,3.134,0,0,1-.395-.209.786.786,0,0,1-.206-.158.3.3,0,0,1-.027-.343.371.371,0,0,1,.292-.151.793.793,0,0,1,.254.038,2.211,2.211,0,0,1,.426.144,2.46,2.46,0,0,1,.628.415c.316.292.422.542.4.556s-.185-.189-.5-.429a2.806,2.806,0,0,0-.611-.343,2.49,2.49,0,0,0-.391-.12c-.144-.038-.268-.038-.3.024s0,.034,0,.079a.742.742,0,0,0,.151.117,3.2,3.2,0,0,0,.343.206,3.879,3.879,0,0,0,.659.254A4.243,4.243,0,0,1,195.134,455.024Z" transform="translate(-157.197 -324.09)"/><path class="f" d="M198.494,453.236a1.1,1.1,0,0,1-.178-.662,2.232,2.232,0,0,1,.093-.745,2.385,2.385,0,0,1,.175-.415.566.566,0,0,1,.436-.343.316.316,0,0,1,.285.192.944.944,0,0,1,.072.247,1.472,1.472,0,0,1,0,.46,1.552,1.552,0,0,1-.292.707c-.268.343-.546.432-.549.408a2.854,2.854,0,0,0,.415-.5,1.61,1.61,0,0,0,.216-.642,1.4,1.4,0,0,0,0-.395c-.021-.144-.075-.261-.127-.247a.508.508,0,0,0-.24.223,2.21,2.21,0,0,0-.168.371,2.489,2.489,0,0,0-.134.686C198.46,452.975,198.549,453.225,198.494,453.236Z" transform="translate(-160.643 -322.205)"/><path class="f" d="M131.735,247.38l10.316,74.006-10.008-.2-11.068-62,2.433,62.3-10.958-.676L108.6,246.93Z" transform="translate(-101.719 -188.125)"/><path class="h" d="M128.757,140.479l-.134-4.139a5.011,5.011,0,0,0,5.131,3.737c4.118-.045,4.039-3.336,4.039-3.336l.148,1.668v6.737l-2.684,10.982-3.432.436-3.775-15.028Z" transform="translate(-114.494 -115.489)"/><path class="f" d="M138.768,143.68a.453.453,0,0,1-.048.089,2.408,2.408,0,0,1-.165.24,3.517,3.517,0,0,1-.765.741,4.461,4.461,0,0,1-1.431.686,5.035,5.035,0,0,1-1.932.134,6.287,6.287,0,0,1-1.857-.559,8.163,8.163,0,0,1-1.356-.817,9.313,9.313,0,0,1-.82-.686c-.093-.086-.161-.154-.209-.2s-.069-.072-.065-.076l.079.062.22.189c.189.165.47.395.834.656a8.53,8.53,0,0,0,1.352.8,6.393,6.393,0,0,0,1.833.542,5.014,5.014,0,0,0,1.9-.124,4.461,4.461,0,0,0,1.417-.645,3.884,3.884,0,0,0,.776-.714C138.685,143.793,138.761,143.676,138.768,143.68Z" transform="translate(-115.853 -120.014)"/><path class="a" d="M118.282,196.026l.062-17.764-.076-23.193-5.834-14.26-.185-4.29-3.377,2.567s-4.921,16.94-5,16.35,1.187,15.049,1.187,15.049l-1.942,26.344Z" transform="translate(-98.12 -115.607)"/><path class="a" d="M151.083,138.845c-.992-1.733-1.507-1.555-1.507-1.555l.051.618v1.3l-.47,5.57L146,155.222l.491,23.124,1.174,18.285,14.6-1.194-5.076-25.184,1.822-17.393-.13-9.585Z" transform="translate(-126.284 -116.109)"/><path class="f" d="M118.958,253.149a1.836,1.836,0,0,1-.213.343,6.837,6.837,0,0,1-.721.865,7.581,7.581,0,0,1-6.83,2.172,6.9,6.9,0,0,1-1.088-.292,1.661,1.661,0,0,1-.378-.168c0-.034.556.192,1.486.343a7.893,7.893,0,0,0,6.723-2.128C118.615,253.626,118.931,253.128,118.958,253.149Z" transform="translate(-102.461 -192.209)"/><path class="h" d="M116.832,258.257a4.281,4.281,0,0,0-.175-.686l1.538-.9a5.024,5.024,0,0,0-2.982-.824,5.64,5.64,0,0,0-2.629,1.012,1.744,1.744,0,0,0-.508.343.96.96,0,0,0-.137.093,1.453,1.453,0,0,0-.192.192h0a2.845,2.845,0,0,0-.539,1.352,10.056,10.056,0,0,0-.058,3.126c.055.4.206.868.6.944a.621.621,0,0,0,.6-.281,8.384,8.384,0,0,0,.13,1.342c.062.343.227.741.57.752s.546-.422.607-.776a8.4,8.4,0,0,0,.093-2.272,4.068,4.068,0,0,1,.182,1.266c.062.426.391.892.813.807s.542-.6.587-1.03c.11-1.1.223-2.207.343-3.308a8.747,8.747,0,0,1,.384,1.235c.168.4.707.721,1.03.422a.9.9,0,0,0,.13-.8C117.086,259.605,116.962,258.933,116.832,258.257Z" transform="translate(-103.331 -193.981)"/><path class="f" d="M116.744,282.082a2.075,2.075,0,0,1-.323.343,6.673,6.673,0,0,1-1.009.782,4.99,4.99,0,0,1-1.764.707,3.748,3.748,0,0,1-2.3-.288,3.226,3.226,0,0,1-1.551-1.716,5.512,5.512,0,0,1-.381-1.86,11.856,11.856,0,0,1,.021-1.277,2.462,2.462,0,0,1,.051-.463c.038,0,0,.669.055,1.716a5.6,5.6,0,0,0,.4,1.8,3.089,3.089,0,0,0,1.479,1.623,3.679,3.679,0,0,0,2.2.288,5.12,5.12,0,0,0,1.716-.656A16.322,16.322,0,0,0,116.744,282.082Z" transform="translate(-102.248 -208.735)"/><path class="f" d="M166.083,253.735a1.662,1.662,0,0,1-.22.165,4.411,4.411,0,0,1-.659.343,6.438,6.438,0,0,1-4.822.1,5.113,5.113,0,0,1-.686-.319c-.151-.093-.23-.144-.227-.158s.343.158.944.343a7.053,7.053,0,0,0,4.729-.1C165.733,253.91,166.066,253.708,166.083,253.735Z" transform="translate(-135.131 -192.593)"/><path class="f" d="M146.718,213.378a1.208,1.208,0,0,1-.021-.254V212.4c0-.652-.021-1.562-.038-2.68-.034-2.279-.082-5.392-.137-8.834s-.113-6.562-.151-8.841c0-1.115-.027-2.025-.034-2.677v-.728a1.273,1.273,0,0,1,0-.257,1.375,1.375,0,0,1,.024.254c0,.185.021.426.034.728.024.652.055,1.562.093,2.68.065,2.258.144,5.385.2,8.837s.089,6.576.086,8.837c0,1.133,0,2.059-.021,2.68,0,.3,0,.546-.017.728A2.063,2.063,0,0,1,146.718,213.378Z" transform="translate(-126.501 -149.669)"/><path class="b" d="M120.02,152.1l.686.518-.484,3.161,8.1,8.484-7.355-9.657.628-2.505Z" transform="translate(-109.22 -125.84)"/><path class="a" d="M108.845,169.51l-12.427-3.645-.412-9.438L99.408,144s-8.117,4.043-8.669,6.624a86.428,86.428,0,0,0-2.028,13.385c-.127,4.053-.144,6.761.779,8.055,1.555,2.176,8.216,3.583,14.864,3.26,4.678-.23,9.345-1.462,12.228-3.267" transform="translate(-88.614 -120.52)"/><path class="f" d="M128.4,154.239l-.041-.045-.113-.137-.419-.549-1.538-2-5.052-6.613-.381-.5v-.038c.216-.865.426-1.716.628-2.5l.041.051H119.9v-2.849h0l2.444-1.857.686-.5.178-.13.062-.041-.058.048-.168.137-.659.518-2.426,1.881v2.763l-.024-.038h1.627v.051c-.2.8-.412,1.64-.628,2.505v-.038l.381.5,5.031,6.63,1.517,2.015.408.549.106.148Z" transform="translate(-109.141 -115.613)"/><path class="a" d="M148.4,154.74a8.564,8.564,0,0,1,3.2,5.673c.206,2.842.686,10.639.769,12.317.134,2.639-1.922,8.817-7.269,7.066-3.205-1.05-15.056-5.079-15.056-5.079l.786-5.031,14.071.837.278-11.73Z" transform="translate(-115.808 -127.574)"/><path class="l" d="M118.383,199.48a30.481,30.481,0,0,0-4.9-.209,6.78,6.78,0,0,0-2.148,1.3l.021,1.572,6.4,1.8Z" transform="translate(-103.512 -156.781)"/><path class="f" d="M146.43,155.038l.021-.051a.656.656,0,0,1,.058-.158c.058-.141.137-.343.237-.594.213-.522.518-1.263.892-2.183s.831-2.015,1.332-3.229c.127-.3.251-.618.408-.927s.326-.618.508-.927a20.561,20.561,0,0,1,1.266-1.826c.23-.3.46-.583.686-.858v.045l-.494-1.263v-.041h.045l2.059-.707-.021.058-2.341-3.94a3.064,3.064,0,0,0-.782-1.03,1.116,1.116,0,0,0-.316-.13l-.117-.027h.12a.978.978,0,0,1,.323.117,1.452,1.452,0,0,1,.4.388,6.719,6.719,0,0,1,.412.621l2.361,3.936.024.045h-.045l-2.059.71.024-.055c.161.412.343.831.5,1.26v.024l-.017.021c-.237.275-.47.563-.686.858a21.081,21.081,0,0,0-1.26,1.815c-.182.305-.36.611-.508.92s-.281.614-.408.92l-1.349,3.223c-.388.913-.686,1.654-.916,2.172l-.254.587-.069.154C146.44,155.01,146.433,155.041,146.43,155.038Z" transform="translate(-126.566 -116.086)"/><path class="f" d="M137.83,213.669l-.048.051-.151.148a4.756,4.756,0,0,1-.649.491,4.372,4.372,0,0,1-1.184.494,4.712,4.712,0,0,1-1.692.106,5.386,5.386,0,0,1-.971-.2c-.343-.106-.662-.237-1.012-.343-.686-.251-1.438-.511-2.224-.789-1.568-.549-3.3-1.136-5.124-1.737-3.645-1.2-6.97-2.207-9.383-2.927l-2.855-.844-.776-.23-.2-.062-.069-.024h.072l.2.055.782.216c.686.189,1.654.467,2.862.817,2.4.686,5.745,1.716,9.393,2.9,1.826.6,3.555,1.191,5.124,1.743.783.278,1.527.542,2.224.8.343.124.686.254,1.006.343a5.26,5.26,0,0,0,.958.206,4.719,4.719,0,0,0,1.675-.093,4.384,4.384,0,0,0,1.177-.477,5.033,5.033,0,0,0,.652-.474l.158-.141C137.81,213.682,137.83,213.665,137.83,213.669Z" transform="translate(-103.617 -162.424)"/><path class="f" d="M105.384,207.7c0,.017-.227-.031-.58,0a2.609,2.609,0,0,0-.618.1,2.864,2.864,0,0,0-.686.316,3.24,3.24,0,0,0-.964.988c-.189.305-.271.515-.285.508s0-.055.048-.151a2.327,2.327,0,0,1,.185-.388,3.013,3.013,0,0,1,.968-1.03,2.915,2.915,0,0,1,.717-.319,2.515,2.515,0,0,1,.635-.086,2.144,2.144,0,0,1,.429.041A.487.487,0,0,1,105.384,207.7Z" transform="translate(-97.545 -162.319)"/><path class="f" d="M100,203.457v-.045a.343.343,0,0,1,.075-.11.8.8,0,0,1,.443-.22,2.261,2.261,0,0,1,.731,0,4.175,4.175,0,0,1,.865.213,3.793,3.793,0,0,1,1.373.837,2.977,2.977,0,0,1,.319.374,1.033,1.033,0,0,1,.093.154,3.871,3.871,0,0,0-.456-.48,4.036,4.036,0,0,0-1.373-.8,4.2,4.2,0,0,0-.848-.213,2.27,2.27,0,0,0-.707-.021.782.782,0,0,0-.429.182A1.183,1.183,0,0,0,100,203.457Z" transform="translate(-96.071 -159.306)"/><path class="f" d="M103.858,165.568a1.4,1.4,0,0,1-.058-.257c-.024-.079-.062-.175-.1-.288a1.8,1.8,0,0,0-.185-.36,5.073,5.073,0,0,0-.631-.844,6.863,6.863,0,0,0-.971-.851,5.8,5.8,0,0,0-2.121-.975,4.388,4.388,0,0,0-.707-.093,1.393,1.393,0,0,1-.264-.021,1.453,1.453,0,0,1,.264,0,3.669,3.669,0,0,1,.717.065,5.553,5.553,0,0,1,2.162.964,6.444,6.444,0,0,1,.978.868,4.778,4.778,0,0,1,.628.868,3.859,3.859,0,0,1,.175.374c.038.117.069.216.089.3A1.513,1.513,0,0,1,103.858,165.568Z" transform="translate(-95.296 -132.259)"/><path class="f" d="M148.667,204.04v-.24a6.3,6.3,0,0,0-.031-.686,9.673,9.673,0,0,0-.5-2.433,3.5,3.5,0,0,0-.343-.741,1.482,1.482,0,0,0-.659-.559,5.811,5.811,0,0,0-1.939-.251l-4.534-.189c-3.744-.165-7.073-.305-9.167-.419l.027-.021c-.127.769-.227,1.373-.3,1.8-.038.206-.065.364-.082.477a.2.2,0,0,1-.024.124v-.127c0-.113.041-.271.069-.477.065-.426.158-1.03.271-1.809v-.021h.027l9.167.381,4.534.2c.343.021.686.027,1.03.055a2.869,2.869,0,0,1,.944.213,1.517,1.517,0,0,1,.686.587,3.528,3.528,0,0,1,.343.758,9.132,9.132,0,0,1,.474,2.454c.021.292.021.522.017.686v.175A.421.421,0,0,1,148.667,204.04Z" transform="translate(-116.51 -156.296)"/><path class="f" d="M174.345,182.61c.024,0,.045,1.373.045,3.044s-.021,3.041-.045,3.041-.045-1.373-.045-3.041S174.321,182.61,174.345,182.61Z" transform="translate(-144.871 -145.879)"/><path class="f" d="M90.764,162.41a.314.314,0,0,1-.034.113,1.663,1.663,0,0,0-.1.343c-.082.292-.189.728-.305,1.3-.233,1.136-.522,2.8-.848,4.884-.161,1.03-.343,2.19-.5,3.432-.086.621-.141,1.266-.185,1.936s-.079,1.356-.106,2.059c-.051,1.417-.082,2.917-.041,4.482,0,.388.027.783.062,1.181a4.515,4.515,0,0,0,.209,1.177,3.316,3.316,0,0,0,.559,1.067,2.423,2.423,0,0,0,.961.741h0a14.288,14.288,0,0,0,2.5.957c.875.261,1.774.474,2.691.659a37.088,37.088,0,0,0,6.044.738,27.66,27.66,0,0,0,2.886-.076q1.411-.1,2.746-.3a29.05,29.05,0,0,0,4.935-1.157,25.261,25.261,0,0,0,3.981-1.716v.055l-5.46-1.932-1.462-.525-.381-.141-.127-.048.13.041.378.148,1.476.511,5.47,1.891.065.024-.062.031A24.89,24.89,0,0,1,112.258,186a28.394,28.394,0,0,1-4.932,1.157c-.889.134-1.809.233-2.746.3a27.794,27.794,0,0,1-2.9.079,37.233,37.233,0,0,1-6.057-.734c-.92-.189-1.822-.4-2.7-.666a14.692,14.692,0,0,1-2.519-.961h0a2.457,2.457,0,0,1-1-.765,3.364,3.364,0,0,1-.573-1.1,4.551,4.551,0,0,1-.148-.594c-.024-.2-.058-.4-.069-.6-.031-.4-.045-.8-.055-1.187-.041-1.565,0-3.065.045-4.486q.041-1.064.11-2.059c.048-.669.1-1.314.189-1.936.172-1.239.343-2.4.515-3.432.343-2.083.628-3.748.875-4.884.12-.57.23-1.006.316-1.3.038-.148.086-.254.11-.343Z" transform="translate(-88.551 -132.612)"/><path class="b" d="M111.33,186.634c2.08-2.3,1.987-6.39.8-9.294-.11,3.144-.48,5.934-.765,8.988" transform="translate(-103.512 -142.418)"/><path class="f" d="M112.175,179.05a.4.4,0,0,1,0,.1,1.532,1.532,0,0,1-.021.285c-.021.261-.048.621-.082,1.057-.072.9-.175,2.124-.285,3.48s-.2,2.577-.275,3.48c-.031.436-.058.793-.079,1.054a1.014,1.014,0,0,1-.024.288c-.024.076,0,.1,0,.1a.278.278,0,0,1,0-.1v-.288c0-.251.027-.611.051-1.057.051-.892.137-2.124.247-3.483s.223-2.591.312-3.48c.048-.436.082-.793.11-1.05a1.8,1.8,0,0,1,.038-.288A.344.344,0,0,1,112.175,179.05Z" transform="translate(-103.557 -143.541)"/><path class="f" d="M128.5,166.94c.024,0,.045.8.045,1.785s-.021,1.785-.045,1.785-.045-.8-.045-1.785S128.481,166.94,128.5,166.94Z" transform="translate(-114.763 -135.587)"/><path class="b" d="M124.64,178.693a1.829,1.829,0,0,0,.384.947,1.246,1.246,0,0,0,.909.484,1.39,1.39,0,0,0,1.229-.614,3.5,3.5,0,0,0,.172-2.67,1.531,1.531,0,0,0-1.26-1.03,1.393,1.393,0,0,0-1.373,1.06" transform="translate(-112.254 -141.413)"/><path class="f" d="M124.688,176.822a1.157,1.157,0,0,1,.137-.364,1.535,1.535,0,0,1,.281-.364,1.249,1.249,0,0,1,.525-.309,1.29,1.29,0,0,1,.343-.058,1.071,1.071,0,0,1,.384.051,1.486,1.486,0,0,1,.686.494,1.977,1.977,0,0,1,.4.844,3.579,3.579,0,0,1,.076,1,2.763,2.763,0,0,1-.429,1.455,1.27,1.27,0,0,1-.563.422,1.469,1.469,0,0,1-.631.106h0a.961.961,0,0,1-.453-.11,1.524,1.524,0,0,1-.343-.24,1.685,1.685,0,0,1-.374-.556,1.626,1.626,0,0,1-.117-.408.855.855,0,0,1,0-.113v-.038a2.4,2.4,0,0,0,.165.542,1.806,1.806,0,0,0,.374.532,1.555,1.555,0,0,0,.343.22.844.844,0,0,0,.422.1h0a1.352,1.352,0,0,0,1.122-.511,2.7,2.7,0,0,0,.412-1.411,2.567,2.567,0,0,0-.456-1.788,1.486,1.486,0,0,0-.649-.477,1.029,1.029,0,0,0-.364-.051,1.27,1.27,0,0,0-.848.343,1.6,1.6,0,0,0-.281.343,3.6,3.6,0,0,0-.168.343Z" transform="translate(-112.238 -141.358)"/><path class="b" d="M123.49,178.793a1.829,1.829,0,0,0,.384.947,1.239,1.239,0,0,0,.909.484,1.373,1.373,0,0,0,1.229-.618,3.494,3.494,0,0,0,.172-2.667,1.541,1.541,0,0,0-1.263-1.03,1.4,1.4,0,0,0-1.373,1.064" transform="translate(-111.499 -141.478)"/><path class="f" d="M123.532,176.9a1.156,1.156,0,0,1,.137-.364,1.589,1.589,0,0,1,.278-.367,1.373,1.373,0,0,1,.529-.309,1.266,1.266,0,0,1,.343-.055,1.009,1.009,0,0,1,.388.051,1.5,1.5,0,0,1,.686.494,1.977,1.977,0,0,1,.4.844,3.565,3.565,0,0,1,.075,1,2.776,2.776,0,0,1-.429,1.459,1.335,1.335,0,0,1-.563.422,1.476,1.476,0,0,1-.635.106h0a.947.947,0,0,1-.456-.113,1.459,1.459,0,0,1-.343-.237,1.716,1.716,0,0,1-.374-.556,1.663,1.663,0,0,1-.117-.408.908.908,0,0,1,0-.113.107.107,0,0,1,0-.038,2.4,2.4,0,0,0,.165.542,1.692,1.692,0,0,0,.374.528,1.373,1.373,0,0,0,.343.223.882.882,0,0,0,.422.1h0a1.349,1.349,0,0,0,1.122-.508,2.711,2.711,0,0,0,.412-1.411,2.581,2.581,0,0,0-.456-1.788,1.452,1.452,0,0,0-.652-.477.937.937,0,0,0-.343-.051,1.171,1.171,0,0,0-.343.048,1.229,1.229,0,0,0-.515.292,1.417,1.417,0,0,0-.281.343A3.6,3.6,0,0,0,123.532,176.9Z" transform="translate(-111.476 -141.409)"/><path class="b" d="M123.644,178.456a.861.861,0,0,0-.906.522,1.489,1.489,0,0,0,0,1.1,1.372,1.372,0,0,0,.281.494.748.748,0,0,0,.5.247.882.882,0,0,0,.686-.412,1.586,1.586,0,0,0,.24-1.3c-.079-.292-.3-.59-.6-.6" transform="translate(-110.936 -143.146)"/><path class="f" d="M123.781,178.453h.069a.453.453,0,0,1,.182.062.9.9,0,0,1,.388.58,1.61,1.61,0,0,1-.106,1.03,1.308,1.308,0,0,1-.378.5.734.734,0,0,1-.652.158.926.926,0,0,1-.522-.426,2.014,2.014,0,0,1-.216-.583,1.321,1.321,0,0,1,.168-1.03.923.923,0,0,1,.59-.374.688.688,0,0,1,.192,0c.045,0,.065.017.065.021a.87.87,0,0,0-.251,0,.913.913,0,0,0-.546.378,1.263,1.263,0,0,0-.141.968,1.877,1.877,0,0,0,.213.556.834.834,0,0,0,.47.384.652.652,0,0,0,.577-.141,1.3,1.3,0,0,0,.343-.463,1.565,1.565,0,0,0,.117-.985.9.9,0,0,0-.343-.566A.8.8,0,0,0,123.781,178.453Z" transform="translate(-110.853 -143.088)"/><path class="f" d="M126.385,185.731a1.01,1.01,0,0,0-.089-.12.634.634,0,0,0-.288-.185,1.51,1.51,0,0,0-.343-.055c-.1,0-.154,0-.154-.027s.058-.024.154-.034a.975.975,0,0,1,.381.034.566.566,0,0,1,.312.23C126.4,185.663,126.4,185.731,126.385,185.731Z" transform="translate(-112.826 -147.648)"/><path class="f" d="M126.577,177.8a.378.378,0,0,1-.106.12.848.848,0,0,1-.343.158.858.858,0,0,1-.388-.024c-.1-.031-.148-.069-.141-.076a1.3,1.3,0,0,0,.988-.178Z" transform="translate(-112.884 -142.72)"/><path class="f" d="M162.25,142.56a.121.121,0,0,1,.055.021,1.01,1.01,0,0,1,.151.075,2.925,2.925,0,0,1,.5.364,3.614,3.614,0,0,1,1.088,1.716,10.986,10.986,0,0,1,.415,2c.027.261.045.47.055.618a1.147,1.147,0,0,1,0,.227.954.954,0,0,1-.038-.223c-.024-.161-.051-.367-.082-.614a13.1,13.1,0,0,0-.439-1.984,3.734,3.734,0,0,0-1.03-1.7A5.588,5.588,0,0,0,162.25,142.56Z" transform="translate(-136.957 -119.574)"/><path class="f" d="M156.008,195.788c.491-.021.882-.508,1.373-.48a.686.686,0,1,1-.113,1.356c-.515-.062-.813-.662-1.318-.779" transform="translate(-132.819 -154.218)"/><path class="f" d="M157.777,170.991a2.671,2.671,0,0,1-.456-.038l.027-.165a1.949,1.949,0,0,0,1.51-.3,2.845,2.845,0,0,0,.958-1.953v-.034c.055-.371.13-7.591.13-8.961a2.341,2.341,0,0,0-1.96-2.447c-.076,0-1.785-.3-2.691,2.042-.947,2.447-2.464,7.169-2.567,7.722a1.448,1.448,0,0,1-.051.247c-.158.71-.487,2.183.5,3.034a1.943,1.943,0,0,0,1.994.563l.072.154a2.107,2.107,0,0,1-2.176-.59c-1.06-.916-.717-2.457-.553-3.2l.051-.244c.1-.556,1.623-5.3,2.574-7.753s2.859-2.148,2.876-2.145a2.536,2.536,0,0,1,2.1,2.612c0,1.129-.076,8.58-.134,8.985v.034a2.933,2.933,0,0,1-1.03,2.059A1.932,1.932,0,0,1,157.777,170.991Z" transform="translate(-130.439 -129.006)"/><path class="f" d="M165.233,164.289a3.031,3.031,0,0,0-.343-.841,2.938,2.938,0,0,0-.686-.724,2.886,2.886,0,0,0-1.084-.511,3.185,3.185,0,0,0-2.135.278,3.924,3.924,0,0,0-.745.532s0-.017.038-.051.065-.079.127-.134a2.581,2.581,0,0,1,.549-.4,3.024,3.024,0,0,1,.951-.343,3.088,3.088,0,0,1,1.236.024,2.862,2.862,0,0,1,1.115.535,2.831,2.831,0,0,1,.669.752,2.213,2.213,0,0,1,.261.632,1.028,1.028,0,0,1,.034.178C165.237,164.268,165.237,164.289,165.233,164.289Z" transform="translate(-135.637 -132.37)"/><path class="f" d="M179.885,202.957a5.646,5.646,0,0,0-.233-.721,3.15,3.15,0,0,0-1.143-1.373,2.5,2.5,0,0,0-.93-.343c-.305-.051-.583-.069-.817-.086l-.556-.038a.779.779,0,0,1-.206-.027.982.982,0,0,1,.206,0h.556a7.346,7.346,0,0,1,.831.069,2.457,2.457,0,0,1,.961.343,3.089,3.089,0,0,1,1.157,1.424,2.77,2.77,0,0,1,.154.539A1.031,1.031,0,0,1,179.885,202.957Z" transform="translate(-145.988 -157.54)"/><path class="l" d="M162.5,190.933a27.669,27.669,0,0,1,2.087-2.845c.426-.329,4.046-1.963,4.462-1.716s.161.834.161.834,1.534-.535,1.7-.326a.758.758,0,0,1,0,.865s.848-.13.848.13a1.074,1.074,0,0,1-.487.882,21.151,21.151,0,0,0-3.144,2.457l-.827-.048Z" transform="translate(-137.121 -148.333)"/><path class="m" d="M176.43,192.881a.484.484,0,0,1,.076-.158,3.084,3.084,0,0,1,.271-.391,4.54,4.54,0,0,1,1.2-1.03,9.264,9.264,0,0,1,1.424-.686l.446-.161a.62.62,0,0,1,.172-.045,1.318,1.318,0,0,1-.158.079l-.436.185a11.376,11.376,0,0,0-1.4.686,5.168,5.168,0,0,0-1.2.978C176.56,192.672,176.444,192.891,176.43,192.881Z" transform="translate(-146.27 -151.002)"/><path class="m" d="M170.29,191.773a.841.841,0,0,1,.079-.185c.058-.117.144-.285.257-.487a4.261,4.261,0,0,1,.456-.686,2.2,2.2,0,0,1,.343-.343c.141-.093.288-.182.443-.271a12.174,12.174,0,0,1,1.62-.81,4.85,4.85,0,0,1,.522-.175.827.827,0,0,1,.2-.034,5.448,5.448,0,0,0-.686.268,14.894,14.894,0,0,0-1.616.837c-.151.089-.3.178-.436.268a2.018,2.018,0,0,0-.343.326,5.55,5.55,0,0,0-.467.656l-.278.47A1.191,1.191,0,0,1,170.29,191.773Z" transform="translate(-142.238 -149.932)"/></g><g transform="translate(23.304 108.942)"><path class="f" d="M47.79,322.644a1.491,1.491,0,0,1,.069-.165c.055-.113.127-.271.22-.47a11.844,11.844,0,0,0,.652-1.888,16.676,16.676,0,0,0-.058-7.286,39.2,39.2,0,0,0-1.349-4.891c-.573-1.74-1.239-3.583-1.781-5.573a21.583,21.583,0,0,1-.879-6.407,25.079,25.079,0,0,1,1.493-6.782,32.206,32.206,0,0,0,1.716-6.678,10.179,10.179,0,0,0-1.225-6.178c-.978-1.8-2.207-3.339-3.127-4.932a17.16,17.16,0,0,1-1.877-4.743,17.716,17.716,0,0,1-.12-7.348,13.729,13.729,0,0,1,.769-2.595,1.158,1.158,0,0,1-.048.175l-.154.5a19.7,19.7,0,0,0-.477,1.939,17.874,17.874,0,0,0,.2,7.3A17.073,17.073,0,0,0,43.7,271.3c.916,1.575,2.152,3.109,3.147,4.928a10.4,10.4,0,0,1,1.263,6.294,32.956,32.956,0,0,1-1.733,6.727,24.647,24.647,0,0,0-1.472,6.716,21.367,21.367,0,0,0,.858,6.342c.532,1.984,1.191,3.827,1.754,5.57a39.039,39.039,0,0,1,1.332,4.925,16.439,16.439,0,0,1-.021,7.341,11.031,11.031,0,0,1-.686,1.884c-.1.2-.185.343-.244.463a.782.782,0,0,1-.106.151Z" transform="translate(-36.44 -256.71)"/><path class="h" d="M50.651,285.875s-1.867-5.972,1.5-9.469a.209.209,0,0,1,.343.1C52.669,277.5,52.892,280.5,50.651,285.875Z" transform="translate(-42.311 -269.611)"/><path class="f" d="M52.63,282.31a5.543,5.543,0,0,1-.124,1.1c-.124.758-.268,1.651-.429,2.636l-.415,2.632a6.043,6.043,0,0,1-.2,1.091,4.561,4.561,0,0,1,.034-1.112c.062-.686.182-1.62.343-2.649s.343-1.96.494-2.629a5.213,5.213,0,0,1,.3-1.071Z" transform="translate(-43.172 -273.524)"/><path class="h" d="M58,330.426s1.143-6.15,5.738-7.677a.209.209,0,0,1,.268.257C63.714,323.964,62.506,326.723,58,330.426Z" transform="translate(-47.478 -300.078)"/><path class="f" d="M62.453,327.4a5.623,5.623,0,0,1-.628.916c-.463.614-1.006,1.335-1.61,2.128l-1.6,2.135a5.606,5.606,0,0,1-.686.868,5.025,5.025,0,0,1,.549-.964c.374-.573.92-1.349,1.551-2.179s1.225-1.568,1.664-2.09A4.947,4.947,0,0,1,62.453,327.4Z" transform="translate(-47.432 -303.14)"/><path class="h" d="M54.323,372.769s-.686-6.219,3.264-9.012a.209.209,0,0,1,.343.168C57.9,364.927,57.549,367.927,54.323,372.769Z" transform="translate(-45.032 -326.987)"/><path class="f" d="M56.837,369.34a5.4,5.4,0,0,1-.343,1.057l-.92,2.505c-.343.937-.652,1.785-.913,2.505a6.554,6.554,0,0,1-.4,1.03,4.527,4.527,0,0,1,.244-1.085c.189-.659.487-1.555.851-2.536s.714-1.853.985-2.485a4.866,4.866,0,0,1,.5-.992Z" transform="translate(-45.021 -330.686)"/><path class="h" d="M64.468,418.259s-.47-6.239,3.583-8.889a.206.206,0,0,1,.323.178C68.326,410.551,67.866,413.526,64.468,418.259Z" transform="translate(-51.715 -356.954)"/><path class="f" d="M67.2,414.85a5.34,5.34,0,0,1-.371,1.03c-.292.714-.635,1.548-1.009,2.471l-1,2.471a6.279,6.279,0,0,1-.439,1.03,4.492,4.492,0,0,1,.281-1.074c.216-.649.546-1.538.94-2.5s.782-1.829,1.078-2.447a4.837,4.837,0,0,1,.522-.978Z" transform="translate(-51.668 -360.577)"/><path class="h" d="M33,273.6s-5.546-2.9-5.656-7.736a.209.209,0,0,1,.326-.178C28.49,266.252,30.772,268.215,33,273.6Z" transform="translate(-27.34 -262.579)"/><path class="f" d="M30.7,271.11a5.491,5.491,0,0,1,.686.868l1.565,2.162L34.52,276.3a5.715,5.715,0,0,1,.631.913,5.084,5.084,0,0,1-.762-.81c-.439-.525-1.03-1.273-1.627-2.121s-1.143-1.63-1.51-2.207A4.806,4.806,0,0,1,30.7,271.11Z" transform="translate(-29.547 -266.168)"/><path class="h" d="M49.471,311.625s-5.711-2.553-6.112-7.379a.209.209,0,0,1,.312-.2C44.529,304.566,46.928,306.388,49.471,311.625Z" transform="translate(-37.861 -287.784)"/><path class="f" d="M47,309.31a5.6,5.6,0,0,1,.745.824c.487.594,1.057,1.294,1.692,2.059l1.7,2.059a5.893,5.893,0,0,1,.686.868,4.573,4.573,0,0,1-.81-.769c-.47-.5-1.095-1.212-1.754-2.018s-1.225-1.544-1.64-2.1A5.149,5.149,0,0,1,47,309.31Z" transform="translate(-40.253 -291.258)"/><path class="h" d="M46.674,349.71s-3.923-4.873-2.083-9.352a.206.206,0,0,1,.367-.034C45.486,341.178,46.811,343.889,46.674,349.71Z" transform="translate(-38.348 -311.564)"/><path class="f" d="M46.67,346.39a5.686,5.686,0,0,1,.285,1.071c.161.752.343,1.634.566,2.608s.408,1.853.573,2.6a6.41,6.41,0,0,1,.216,1.088,4.61,4.61,0,0,1-.378-1.047c-.192-.659-.422-1.575-.642-2.6s-.391-1.949-.5-2.625A4.8,4.8,0,0,1,46.67,346.39Z" transform="translate(-40.036 -315.612)"/><path class="h" d="M51.456,402.17s-5.67-2.649-5.989-7.482a.2.2,0,0,1,.312-.192C46.631,395.028,49,396.888,51.456,402.17Z" transform="translate(-39.245 -347.187)"/><path class="f" d="M49,399.81a5.254,5.254,0,0,1,.728.837c.477.6,1.03,1.308,1.658,2.09l1.664,2.087a6.446,6.446,0,0,1,.686.879,4.712,4.712,0,0,1-.8-.772c-.463-.5-1.074-1.229-1.716-2.059s-1.211-1.575-1.606-2.135A4.908,4.908,0,0,1,49,399.81Z" transform="translate(-41.566 -350.699)"/><path class="f" d="M75.14,345.24v.535c0,.378-.041.885-.069,1.52-.072,1.332-.175,3.192-.3,5.416h0a21.276,21.276,0,0,1-3.089,7.207c-1.136,1.795-2.327,3.432-3.353,4.942a34.607,34.607,0,0,0-2.516,4.159,17.614,17.614,0,0,0-1.177,3.048c-.1.374-.175.666-.216.865a1.318,1.318,0,0,1-.086.3,1.893,1.893,0,0,1,.038-.309c.027-.2.089-.5.175-.879a16.166,16.166,0,0,1,1.115-3.089,33.507,33.507,0,0,1,2.485-4.208c1.03-1.527,2.207-3.161,3.336-4.949A21.352,21.352,0,0,0,74.6,352.68h0c.158-2.224.288-4.081.381-5.416l.124-1.513a3.58,3.58,0,0,1,.038-.4A.522.522,0,0,1,75.14,345.24Z" transform="translate(-51.642 -314.857)"/><path class="h" d="M83.585,368.245s2.4-5.779-.618-9.565a.209.209,0,0,0-.364.072C82.329,359.717,81.835,362.689,83.585,368.245Z" transform="translate(-63.454 -323.634)"/><path class="f" d="M84.675,364.7a5.251,5.251,0,0,1,.189,1.095c.086.686.182,1.62.254,2.66s.11,1.987.11,2.673a4.568,4.568,0,0,1-.065,1.109,5.957,5.957,0,0,1-.1-1.105c-.051-.765-.11-1.665-.178-2.66s-.13-1.894-.185-2.663A5.339,5.339,0,0,1,84.675,364.7Z" transform="translate(-64.986 -327.638)"/><g class="i" transform="translate(18.87 34.969)"><path d="M83.585,368.245s2.4-5.779-.618-9.565a.209.209,0,0,0-.364.072C82.329,359.717,81.835,362.689,83.585,368.245Z" transform="translate(-82.324 -358.603)"/></g><path class="h" d="M60.751,409.018s1.922-5.954-1.393-9.482a.209.209,0,0,0-.343.1C58.812,400.62,58.562,403.623,60.751,409.018Z" transform="translate(-48.06 -350.482)"/><path class="f" d="M61.26,405.45a4.663,4.663,0,0,1,.278,1.074c.141.669.312,1.6.47,2.632s.271,1.97.343,2.653a4.6,4.6,0,0,1,.024,1.112,5.879,5.879,0,0,1-.189-1.091c-.113-.762-.244-1.654-.391-2.639s-.285-1.877-.4-2.636A5.49,5.49,0,0,1,61.26,405.45Z" transform="translate(-49.619 -354.403)"/><g class="i" transform="translate(10.827 48.998)"><path d="M60.751,409.018s1.922-5.954-1.393-9.482a.209.209,0,0,0-.343.1C58.812,400.62,58.562,403.623,60.751,409.018Z" transform="translate(-58.887 -399.48)"/></g><path class="h" d="M94.89,349.693s5.124-3.59,4.609-8.4a.209.209,0,0,0-.343-.134C98.411,341.824,96.4,344.068,94.89,349.693Z" transform="translate(-71.707 -312.141)"/><g class="i" transform="translate(23.183 28.964)"><path d="M94.89,349.693s5.124-3.59,4.609-8.4a.209.209,0,0,0-.343-.134C98.411,341.824,96.4,344.068,94.89,349.693Z" transform="translate(-94.89 -341.105)"/></g><path class="f" d="M98.661,346.88a4.74,4.74,0,0,1-.426,1.03c-.292.618-.717,1.462-1.211,2.378s-.975,1.737-1.342,2.317a4.432,4.432,0,0,1-.652.9,6.008,6.008,0,0,1,.511-.985l1.277-2.341,1.27-2.344A5.833,5.833,0,0,1,98.661,346.88Z" transform="translate(-71.799 -315.934)"/><path class="h" d="M70.34,398.983s6.177-.961,7.839-5.512a.209.209,0,0,0-.251-.275C76.964,393.468,74.17,394.6,70.34,398.983Z" transform="translate(-55.583 -346.35)"/><g class="i" transform="translate(14.757 46.839)"><path d="M70.34,398.983s6.177-.961,7.839-5.512a.209.209,0,0,0-.251-.275C76.964,393.468,74.17,394.6,70.34,398.983Z" transform="translate(-70.34 -393.189)"/></g><path class="f" d="M76.611,397.52a5.066,5.066,0,0,1-.837.731c-.535.429-1.29,1-2.138,1.606s-1.64,1.129-2.224,1.486a4.724,4.724,0,0,1-.982.522,5.658,5.658,0,0,1,.892-.659c.625-.446,1.373-.964,2.176-1.541l2.176-1.544A5.586,5.586,0,0,1,76.611,397.52Z" transform="translate(-55.642 -349.195)"/><path class="g" d="M49.02,443.23l1.774,11.631,7.084-.014,2.385-11.617Z" transform="translate(-41.58 -379.217)"/><path class="f" d="M60.806,450.83s0,.017-.058.041a1.371,1.371,0,0,1-.185.11,2.594,2.594,0,0,1-.793.233,2.867,2.867,0,0,1-1.3-.12,2.7,2.7,0,0,1-1.4-1.03,1.967,1.967,0,0,1-.343-.971,1.054,1.054,0,0,1,.48-1,1.143,1.143,0,0,1,1.187.1,1.716,1.716,0,0,1,.686,1.067,4.541,4.541,0,0,1,.089,1.314,4.258,4.258,0,0,1-.288,1.345,2.968,2.968,0,0,1-.82,1.17,2.3,2.3,0,0,1-1.373.57,2.541,2.541,0,0,1-1.417-.412,4.282,4.282,0,0,1-1.057-.957,2.307,2.307,0,0,1-.529-1.266,1.476,1.476,0,0,1,.5-1.232,1.157,1.157,0,0,1,1.256-.079,1.345,1.345,0,0,1,.724.951,1.816,1.816,0,0,1-.9,1.84,2.5,2.5,0,0,1-1.716.247,3.9,3.9,0,0,1-1.218-.477,7.057,7.057,0,0,1-.686-.46,1.926,1.926,0,0,1-.22-.185,1.37,1.37,0,0,1,.244.151,7.236,7.236,0,0,0,.686.429,3.965,3.965,0,0,0,1.2.436,2.4,2.4,0,0,0,1.623-.257,1.685,1.685,0,0,0,.807-1.692,1.177,1.177,0,0,0-.645-.827.968.968,0,0,0-1.064.065,1.29,1.29,0,0,0-.429,1.081,2.121,2.121,0,0,0,.522,1.17,4.068,4.068,0,0,0,1.03.909,2.32,2.32,0,0,0,1.294.381,2.1,2.1,0,0,0,1.246-.522,2.8,2.8,0,0,0,.769-1.095,4.118,4.118,0,0,0,.278-1.283,4.366,4.366,0,0,0-.076-1.26,1.572,1.572,0,0,0-.6-.971,1,1,0,0,0-1.03-.1.9.9,0,0,0-.408.855,1.84,1.84,0,0,0,.292.906,2.649,2.649,0,0,0,1.325.988,2.869,2.869,0,0,0,1.256.148,3.241,3.241,0,0,0,1.06-.309Z" transform="translate(-43.162 -382.332)"/></g><g transform="translate(20.963 113.483)"><path class="h" d="M157.716,85.78c-1.615,2.026-10.514,4.408-17.588,3.751-2.437,15.991,6.079,34.4,6.079,34.4s18.482-2.2,18.939-9.812S157.716,85.78,157.716,85.78Z" transform="translate(-139.689 -69.979)"/><path class="o" d="M157.716,85.78c-1.615,2.026-10.514,4.408-17.588,3.751-2.437,15.991,6.079,34.4,6.079,34.4s18.482-2.2,18.939-9.812S157.716,85.78,157.716,85.78Z" transform="translate(-139.689 -69.979)"/><path class="h" d="M312.269,72.45c1.652,2.327,10.04,4.637,16.529,3.432,3.477,18.929-2.966,41.419-2.966,41.419s-17.223-1.533-18.254-10.578S312.269,72.45,312.269,72.45Z" transform="translate(-154.335 -68.815)"/><path class="o" d="M312.269,72.45c1.652,2.327,10.04,4.637,16.529,3.432,3.477,18.929-2.966,41.419-2.966,41.419s-17.223-1.533-18.254-10.578S312.269,72.45,312.269,72.45Z" transform="translate(-154.335 -68.815)"/><path class="h" d="M154.049,84.67l4.107,30.192a1.333,1.333,0,0,0,1.7,1.1c9.182-2.629,60.238-15.735,138.667-7.393a1.333,1.333,0,0,0,1.46-1.068c1.479-7.648,4.025-29.435,4.673-35.011a1.351,1.351,0,0,0-1.168-1.488c-10.533-1.333-82.426-9.3-148.515,12.2a1.36,1.36,0,0,0-.922,1.46Z" transform="translate(-140.942 -68.468)"/><path class="p" d="M154.049,84.67l4.107,30.192a1.333,1.333,0,0,0,1.7,1.1c9.182-2.629,60.238-15.735,138.667-7.393a1.333,1.333,0,0,0,1.46-1.068c1.479-7.648,4.025-29.435,4.673-35.011a1.351,1.351,0,0,0-1.168-1.488c-10.533-1.333-82.426-9.3-148.515,12.2a1.36,1.36,0,0,0-.922,1.46Z" transform="translate(-140.942 -68.468)"/><path class="d" d="M168.48,91.59l4.326-.913,3.058,7.95.776-8.725,4.317-.913,3.788,7.794.055-8.57,4.308-.913-.566,15.425-4.463.913-4.281-8.78-.913,9.821-4.463.913Z" transform="translate(-142.203 -70.112)"/><path class="d" d="M193.4,86.945l12.312-1.825.4,3.176-7.7,1.132.3,2.373,7.146-1.05.383,3.039L199.1,94.84l.329,2.948,7.931-1.159.429,3.377-12.541,1.825Z" transform="translate(-144.378 -69.921)"/><path class="d" d="M210.32,84.682l4.618-.5.986,11.29,7.2-.776.329,3.651-11.865,1.278Z" transform="translate(-145.855 -69.839)"/><path class="d" d="M236.047,91.2l4.116.913a7.676,7.676,0,0,1-1.141,2.957,5.768,5.768,0,0,1-2.117,1.917,8.36,8.36,0,0,1-3.277.821,9.6,9.6,0,0,1-4.025-.429,6.179,6.179,0,0,1-2.738-2.318,8.406,8.406,0,0,1-1.36-4.509,7.986,7.986,0,0,1,1.679-5.869,7.639,7.639,0,0,1,5.476-2.4,7.484,7.484,0,0,1,4.5.821,6.608,6.608,0,0,1,2.592,3.359l-4.043,1.2a3.276,3.276,0,0,0-.5-.977,2.629,2.629,0,0,0-1.04-.748,2.939,2.939,0,0,0-3.651,1.241,5.476,5.476,0,0,0-.484,3.012,5.589,5.589,0,0,0,.913,3.368,2.546,2.546,0,0,0,2.172.776,2.656,2.656,0,0,0,1.971-.913A4.8,4.8,0,0,0,236.047,91.2Z" transform="translate(-147.176 -69.668)"/><path class="d" d="M243.418,89.376a7.959,7.959,0,0,1,1.971-5.8,7.822,7.822,0,0,1,5.668-2.245,7.722,7.722,0,0,1,5.8,1.825,7.512,7.512,0,0,1,2.09,5.586,9.383,9.383,0,0,1-.821,4.363,6.526,6.526,0,0,1-2.528,2.738,8.488,8.488,0,0,1-4.153,1.077,9.374,9.374,0,0,1-4.208-.675,6.143,6.143,0,0,1-2.738-2.483A8.47,8.47,0,0,1,243.418,89.376Zm4.627-.128a5.011,5.011,0,0,0,.913,3.249,2.738,2.738,0,0,0,2.3.913,2.9,2.9,0,0,0,2.3-1.05,5.677,5.677,0,0,0,.776-3.532,4.564,4.564,0,0,0-.913-3.076,2.82,2.82,0,0,0-2.327-.913,2.857,2.857,0,0,0-2.236,1.068,5.166,5.166,0,0,0-.812,3.331Z" transform="translate(-148.743 -69.587)"/><path class="d" d="M263.471,81.29h6.088l2.1,9.191,2.583-9.127,6.088.055-.411,15.06h-3.8l.31-11.491L273.2,96.441h-3.432l-2.6-11.518-.31,11.491h-3.8Z" transform="translate(-150.459 -69.587)"/><path class="d" d="M285.549,81.58l12.385.557-.192,3.213L289.985,85l-.155,2.437,7.192.319-.192,3.021-7.192-.319-.183,2.975,7.977.347-.219,3.414L284.6,96.63Z" transform="translate(-152.34 -69.612)"/></g></g></svg>