<svg xmlns="http://www.w3.org/2000/svg" width="32.34" height="32.34" viewBox="0 0 32.34 32.34"><defs><style>.a{fill:none;}.b,.c{fill:#6c0ba9;}.b{opacity:0.3;}</style></defs><path class="a" d="M0,0H32.34V32.34H0Z"/><path class="b" d="M16.286,21.241l4.891,4.878,4.878-4.891L21.178,16.35ZM8.551,3.71,3.66,8.6l4.891,4.878,4.878-4.891Z" transform="translate(1.272 1.289)"/><path class="c" d="M23.211,15.5l5.363-5.363a1.342,1.342,0,0,0,0-1.9L22.726,2.392a1.342,1.342,0,0,0-1.9,0L15.463,7.755,10.1,2.392A1.38,1.38,0,0,0,9.143,2a1.349,1.349,0,0,0-.943.391L2.352,8.24a1.342,1.342,0,0,0,0,1.9L7.715,15.5,2.352,20.866a1.342,1.342,0,0,0,0,1.9L8.2,28.614a1.342,1.342,0,0,0,1.9,0l5.363-5.363,5.363,5.363a1.323,1.323,0,0,0,.957.391,1.38,1.38,0,0,0,.957-.391l5.848-5.848a1.342,1.342,0,0,0,0-1.9L23.211,15.5Zm-7.721-4.07a1.348,1.348,0,1,1-1.348,1.348A1.351,1.351,0,0,1,15.49,11.433ZM9.143,14.075,4.252,9.2,9.143,4.305l4.878,4.878Zm3.652,2.749a1.348,1.348,0,1,1,1.348-1.348A1.351,1.351,0,0,1,12.795,16.824Zm2.7,2.7a1.348,1.348,0,1,1,1.348-1.348A1.351,1.351,0,0,1,15.49,19.519Zm2.7-5.39a1.348,1.348,0,1,1-1.348,1.348A1.351,1.351,0,0,1,18.185,14.129Zm3.584,12.586-4.891-4.878,4.891-4.891,4.878,4.878Z" transform="translate(0.68 0.694)"/></svg>