<svg xmlns="http://www.w3.org/2000/svg" width="32.34" height="32.34" viewBox="0 0 32.34 32.34"><defs><style>.a{fill:none;}.b,.c{fill:#6c0ba9;}.b{opacity:0.3;}</style></defs><path class="a" d="M0,0H32.34V32.34H0Z"/><path class="b" d="M13.662,8.7l-.8-.8L10.967,6H4V22.17H25.56V8.7Zm3.813,2.7h2.7v2.7h2.7v2.7h-2.7v2.7h-2.7v-2.7h-2.7v-2.7h2.7Z" transform="translate(1.39 2.085)"/><path class="c" d="M26.255,6.7H15.475L12.78,4H4.7A2.674,2.674,0,0,0,2.013,6.7L2,22.865a2.686,2.686,0,0,0,2.7,2.7h21.56a2.686,2.686,0,0,0,2.7-2.7V9.39A2.686,2.686,0,0,0,26.255,6.7Zm0,16.17H4.7V6.7h6.967l1.9,1.9.8.8h11.9Zm-10.78-5.39h2.7v2.7h2.7v-2.7h2.7v-2.7h-2.7v-2.7h-2.7v2.7h-2.7Z" transform="translate(0.695 1.39)"/></svg>