<svg xmlns="http://www.w3.org/2000/svg" width="32.34" height="32.34" viewBox="0 0 32.34 32.34"><defs><style>.a{fill:none;}.b,.c{fill:#6c0ba9;}.b{opacity:0.3;}</style></defs><path class="a" d="M0,0H32.34V32.34H0Z"/><path class="b" d="M20.844,5a5.235,5.235,0,0,0-4.8,3.18h-2.52A5.268,5.268,0,0,0,8.716,5,4.605,4.605,0,0,0,4,9.716c0,3.894,4.231,7.735,10.645,13.543l.135.135.135-.135C21.329,17.451,25.56,13.611,25.56,9.716A4.605,4.605,0,0,0,20.844,5Z" transform="translate(1.39 1.738)"/><path class="c" d="M21.539,3a8.069,8.069,0,0,0-6.064,2.816A8.069,8.069,0,0,0,9.411,3,7.339,7.339,0,0,0,2,10.411c0,5.094,4.582,9.244,11.521,15.55l1.954,1.765,1.954-1.779C24.369,19.655,28.95,15.5,28.95,10.411A7.339,7.339,0,0,0,21.539,3ZM15.61,23.954l-.135.135-.135-.135C8.926,18.146,4.7,14.306,4.7,10.411A4.605,4.605,0,0,1,9.411,5.7a5.268,5.268,0,0,1,4.811,3.18h2.52a5.235,5.235,0,0,1,4.8-3.18,4.605,4.605,0,0,1,4.716,4.716C26.255,14.306,22.024,18.146,15.61,23.954Z" transform="translate(0.695 1.043)"/></svg>