<?xml version="1.0" encoding="utf-8"?>
<!-- Generator: Adobe Illustrator 24.0.3, SVG Export Plug-In . SVG Version: 6.00 Build 0)  -->
<svg version="1.1" id="image-24px" xmlns="http://www.w3.org/2000/svg" xmlns:xlink="http://www.w3.org/1999/xlink" x="0px" y="0px"
	 viewBox="0 0 50.4 50.4" style="enable-background:new 0 0 50.4 50.4;" xml:space="preserve">
<style type="text/css">
	.st0{fill:none;}
	.st1{fill:#828282;}
</style>
<path id="Path_8816" class="st0" d="M0,0h50.4v50.4H0V0z"/>
<path id="Path_8817" class="st1" d="M44.1,39.9V10.5c0-2.3-1.9-4.2-4.2-4.2H10.5c-2.3,0-4.2,1.9-4.2,4.2v29.4c0,2.3,1.9,4.2,4.2,4.2
	h29.4C42.2,44.1,44.1,42.2,44.1,39.9z M18.7,29.3l4.4,5.3l6.5-8.4c0.4-0.5,1-0.5,1.5-0.2c0.1,0.1,0.1,0.1,0.2,0.2l7.4,9.8
	c0.3,0.5,0.3,1.1-0.2,1.5c-0.2,0.1-0.4,0.2-0.6,0.2H12.6c-0.6,0-1-0.5-1-1c0-0.2,0.1-0.5,0.2-0.7l5.2-6.7c0.3-0.5,1-0.6,1.4-0.2
	C18.6,29.2,18.6,29.3,18.7,29.3z"/>
</svg>
