<svg xmlns="http://www.w3.org/2000/svg" xmlns:xlink="http://www.w3.org/1999/xlink" width="165.366" height="49.69" viewBox="0 0 165.366 49.69"><defs><style>.a{fill:#51087e;}.b{fill:#ccc;}.c{stroke:rgba(0,0,0,0);stroke-miterlimit:10;fill:url(#a);}</style><linearGradient id="a" x1="0.183" y1="0.156" x2="0.799" y2="0.863" gradientUnits="objectBoundingBox"><stop offset="0" stop-color="#fff"/><stop offset="1" stop-color="#51087e"/></linearGradient></defs><g transform="translate(491.413 -198.732)"><g transform="translate(-453.064 198.732)"><path class="a" d="M-372.3,215.32a9.777,9.777,0,0,1-7.048,2.756c-6.889,0-9.8-4.743-9.83-9.566-.027-4.849,3.126-9.778,9.83-9.778a9.57,9.57,0,0,1,6.81,2.835l-2.331,2.252a6.374,6.374,0,0,0-4.478-1.749,6.081,6.081,0,0,0-6.386,6.439c.027,3.074,1.8,6.28,6.386,6.28a6.827,6.827,0,0,0,4.664-1.882Z" transform="translate(389.732 -198.732)"/><path class="a" d="M-328.626,220.353a6.522,6.522,0,0,1-6.81,6.81,6.5,6.5,0,0,1-6.783-6.81,6.538,6.538,0,0,1,6.757-6.81A6.6,6.6,0,0,1-328.626,220.353Zm-10.361,0a3.538,3.538,0,0,0,3.551,3.842,3.538,3.538,0,0,0,3.55-3.842,3.689,3.689,0,0,0-3.55-3.869A3.59,3.59,0,0,0-338.986,220.353Z" transform="translate(360.502 -207.952)"/><path class="a" d="M-290.828,226.959v-6.837c0-1.987-1.086-3.5-3.154-3.5a3.436,3.436,0,0,0-3.339,3.656v6.678h-3.206v-13.09h2.888l.212,1.775a5.891,5.891,0,0,1,4.292-1.96c3.074,0,5.538,2.305,5.538,6.412v6.863Z" transform="translate(334.548 -208.04)"/><path class="a" d="M-246.342,199.785v18.522h-3.021l-.212-1.8a4.754,4.754,0,0,1-4.213,2.093,6.411,6.411,0,0,1-6.731-6.836c0-4.5,2.835-6.837,6.651-6.837,1.378,0,3.524.742,4.293,2.093v-7.234Zm-10.943,11.977a3.671,3.671,0,0,0,3.71,3.842,3.7,3.7,0,0,0,3.789-3.842,3.728,3.728,0,0,0-3.789-3.816A3.6,3.6,0,0,0-257.285,211.762Z" transform="translate(309.643 -199.387)"/><path class="a" d="M-212.853,214.245v6.836c0,1.987,1.086,3.5,3.153,3.5a3.437,3.437,0,0,0,3.339-3.656v-6.677h3.206v13.09h-2.888l-.212-1.775a5.821,5.821,0,0,1-4.425,1.961c-3.126,0-5.406-2.358-5.406-6.412v-6.863Z" transform="translate(281.984 -208.389)"/><path class="a" d="M-171.209,201.375a1.908,1.908,0,0,1-3.815,0A1.908,1.908,0,0,1-171.209,201.375Zm-3.524,3.63v13.116h3.233V205Z" transform="translate(256.424 -199.202)"/><path class="a" d="M-155.246,204.488V208.2h3.6v2.783h-3.63v5.644a1.622,1.622,0,0,0,1.7,1.855,3.693,3.693,0,0,0,1.564-.4l.9,2.756a7.231,7.231,0,0,1-2.676.556c-2.835.106-4.69-1.51-4.69-4.769V210.98h-2.438V208.2h2.438v-3.365Z" transform="translate(247.641 -202.315)"/><path class="a" d="M-384.767,257.581h-5.882V254.4h15.262v3.179h-5.882V272.95h-3.5Z" transform="translate(390.649 -233.386)"/><path class="a" d="M-352.917,275.96c.212,1.617,1.617,2.782,3.9,2.782a5.391,5.391,0,0,0,3.5-1.219l2.067,2.04a8.023,8.023,0,0,1-5.617,2.12c-4.5,0-7.181-2.782-7.181-6.969a6.537,6.537,0,0,1,6.942-6.836c4.372,0,7.1,2.7,6.6,8.081Zm7.1-2.676c-.212-1.7-1.537-2.544-3.392-2.544a3.518,3.518,0,0,0-3.656,2.544Z" transform="translate(369.24 -241.776)"/><path class="a" d="M-310.585,254.472v18.521h-3.206V254.472Z" transform="translate(342.805 -233.43)"/><path class="a" d="M-295.993,275.96c.212,1.617,1.616,2.782,3.9,2.782a5.392,5.392,0,0,0,3.5-1.219l2.067,2.04a8.023,8.023,0,0,1-5.618,2.12c-4.5,0-7.181-2.782-7.181-6.969a6.537,6.537,0,0,1,6.942-6.836c4.372,0,7.1,2.7,6.6,8.081Zm7.1-2.676c-.212-1.7-1.537-2.544-3.392-2.544a3.519,3.519,0,0,0-3.656,2.544Z" transform="translate(333.805 -241.776)"/><path class="a" d="M-254.336,254.4v7.26a4.824,4.824,0,0,1,4.081-1.961c3.709,0,5.352,2.518,5.352,6.359v6.889h-3.233v-6.863c0-2.384-1.245-3.391-2.968-3.391a3.349,3.349,0,0,0-3.233,3.578v6.677h-3.233V254.4Z" transform="translate(307.807 -233.386)"/><path class="a" d="M-214.993,275.96c.212,1.617,1.616,2.782,3.9,2.782a5.392,5.392,0,0,0,3.5-1.219l2.067,2.04a8.023,8.023,0,0,1-5.618,2.12c-4.5,0-7.181-2.782-7.181-6.969a6.537,6.537,0,0,1,6.942-6.836c4.372,0,7.1,2.7,6.6,8.081Zm7.1-2.676c-.212-1.7-1.537-2.544-3.392-2.544a3.519,3.519,0,0,0-3.656,2.544Z" transform="translate(283.383 -241.776)"/><path class="a" d="M-166.686,268.407h3.1V281.47h-3.047l-.159-1.908c-.742,1.537-2.782,2.279-4.239,2.305-3.869.026-6.73-2.358-6.73-6.942,0-4.5,2.994-6.863,6.809-6.836a4.8,4.8,0,0,1,4.16,2.12Zm-7.843,6.518a3.742,3.742,0,0,0,3.869,3.975c5.087,0,5.087-7.923,0-7.923A3.72,3.72,0,0,0-174.529,274.925Z" transform="translate(258.128 -241.906)"/><path class="a" d="M-129.775,254.472v18.521h-3.206V254.472Z" transform="translate(230.252 -233.43)"/><path class="a" d="M-114.255,259.175v3.71h3.6v2.782h-3.63v5.644a1.622,1.622,0,0,0,1.7,1.855,3.693,3.693,0,0,0,1.563-.4l.9,2.756a7.217,7.217,0,0,1-2.676.556c-2.835.106-4.69-1.51-4.69-4.769v-5.644h-2.438v-2.782h2.438v-3.365Z" transform="translate(222.125 -236.357)"/><path class="a" d="M-85.74,254.4v7.26a4.823,4.823,0,0,1,4.08-1.961c3.71,0,5.352,2.518,5.352,6.359v6.889H-79.54v-6.863c0-2.384-1.245-3.391-2.968-3.391a3.349,3.349,0,0,0-3.233,3.578v6.677h-3.233V254.4Z" transform="translate(202.857 -233.386)"/></g><g transform="translate(-450.829 244.948)"><path class="b" d="M-380.923,324.665h-.533l-.414-1.046-.352-1.052-.347,1.061-.4,1.037h-.533l-1.223-3.33h.7l.785,2.4.809-2.4h.409l.833,2.4.761-2.4h.7Z" transform="translate(384.729 -321.268)"/><path class="b" d="M-365.465,324.665h-2.493v-3.33h2.493v.609h-1.87v.766h1.8v.585h-1.8v.752h1.87Z" transform="translate(374.289 -321.268)"/><path class="b" d="M-349.7,324.136a1.755,1.755,0,0,1-1.266.495,1.637,1.637,0,0,1-1.765-1.718,1.676,1.676,0,0,1,1.765-1.756,1.719,1.719,0,0,1,1.223.509l-.419.4a1.144,1.144,0,0,0-.8-.314,1.092,1.092,0,0,0-1.147,1.156,1.068,1.068,0,0,0,1.147,1.128,1.228,1.228,0,0,0,.838-.338Z" transform="translate(364.813 -321.158)"/><path class="b" d="M-338.226,322.909a1.636,1.636,0,0,1-1.708,1.723,1.623,1.623,0,0,1-1.713-1.718,1.663,1.663,0,0,1,1.713-1.756A1.656,1.656,0,0,1-338.226,322.909Zm-2.8.014a1.057,1.057,0,0,0,1.094,1.133,1.054,1.054,0,0,0,1.089-1.137,1.077,1.077,0,0,0-1.089-1.189A1.083,1.083,0,0,0-341.029,322.923Z" transform="translate(357.911 -321.158)"/><path class="b" d="M-326.578,321.322h.628v3.335h-.39v0l-1.751-2.251v2.246h-.628v-3.33h.509l1.632,2.065Z" transform="translate(349.863 -321.26)"/><path class="b" d="M-315.073,321.322h.628v3.335h-.39v0l-1.751-2.251v2.246h-.628v-3.33h.509l1.632,2.065Z" transform="translate(342.701 -321.26)"/><path class="b" d="M-303.368,324.665h-2.493v-3.33h2.493v.609h-1.87v.766h1.8v.585h-1.8v.752h1.87Z" transform="translate(335.634 -321.268)"/><path class="b" d="M-292.674,324.136a1.754,1.754,0,0,1-1.265.495,1.637,1.637,0,0,1-1.765-1.718,1.676,1.676,0,0,1,1.765-1.756,1.719,1.719,0,0,1,1.223.509l-.419.4a1.144,1.144,0,0,0-.8-.314,1.092,1.092,0,0,0-1.147,1.156,1.068,1.068,0,0,0,1.147,1.128,1.227,1.227,0,0,0,.837-.338Z" transform="translate(329.312 -321.158)"/><path class="b" d="M-283.813,321.906h-1.056v-.571h2.741v.571h-1.056v2.76h-.628Z" transform="translate(322.567 -321.268)"/><path class="b" d="M-267.927,322.71l.885-1.375h.756v.028l-1.327,1.927v1.375h-.628V323.29l-1.28-1.927v-.028h.747Z" transform="translate(313.013 -321.268)"/><path class="b" d="M-254.671,322.909a1.635,1.635,0,0,1-1.708,1.723,1.623,1.623,0,0,1-1.713-1.718,1.664,1.664,0,0,1,1.713-1.756A1.656,1.656,0,0,1-254.671,322.909Zm-2.8.014a1.057,1.057,0,0,0,1.094,1.133,1.054,1.054,0,0,0,1.09-1.137,1.078,1.078,0,0,0-1.09-1.189A1.083,1.083,0,0,0-257.474,322.923Z" transform="translate(305.898 -321.158)"/><path class="b" d="M-242.368,321.348v1.908a1.353,1.353,0,0,1-1.442,1.49,1.39,1.39,0,0,1-1.48-1.49v-1.908h.623v1.908a.817.817,0,0,0,.861.919c.519,0,.814-.347.814-.919v-1.908Z" transform="translate(297.929 -321.276)"/><path class="b" d="M-227.8,321.906h-1.056v-.571h2.74v.571h-1.056v2.76h-.628Z" transform="translate(287.7 -321.268)"/><path class="b" d="M-215.042,322.909a1.636,1.636,0,0,1-1.708,1.723,1.623,1.623,0,0,1-1.713-1.718,1.663,1.663,0,0,1,1.713-1.756A1.656,1.656,0,0,1-215.042,322.909Zm-2.8.014a1.057,1.057,0,0,0,1.094,1.133,1.054,1.054,0,0,0,1.09-1.137,1.077,1.077,0,0,0-1.09-1.189A1.083,1.083,0,0,0-217.845,322.923Z" transform="translate(281.229 -321.158)"/><path class="b" d="M-198.8,324.037h-1.741l-.285.628h-.681l1.494-3.33h.685l1.494,3.33h-.685Zm-.871-2-.618,1.418h1.237Z" transform="translate(270.672 -321.268)"/><path class="b" d="M-181.294,324.678v-1.347h-1.637v1.347h-.628v-3.33h.628v1.4h1.637v-1.4h.623v3.33Z" transform="translate(259.502 -321.276)"/><path class="b" d="M-169.36,324.665h-2.493v-3.33h2.493v.609h-1.87v.766h1.8v.585h-1.8v.752h1.87Z" transform="translate(252.215 -321.268)"/><path class="b" d="M-159.646,324.037h-1.741l-.285.628h-.681l1.494-3.33h.685l1.494,3.33h-.685Zm-.871-2-.619,1.418h1.237Z" transform="translate(246.301 -321.268)"/><path class="b" d="M-148.594,321.335v2.75h1.713v.581h-2.341v-3.33Z" transform="translate(238.127 -321.268)"/><path class="b" d="M-140.1,321.906h-1.056v-.571h2.741v.571h-1.056v2.76h-.628Z" transform="translate(233.107 -321.268)"/><path class="b" d="M-128.094,324.678v-1.347h-1.637v1.347h-.628v-3.33h.628v1.4h1.637v-1.4h.624v3.33Z" transform="translate(226.385 -321.276)"/><path class="b" d="M-118.615,324.665v-3.33h.623v3.33Z" transform="translate(219.074 -321.268)"/><path class="b" d="M-110.414,324.665h-2.493v-3.33h2.493v.609h-1.87v.766h1.8v.585h-1.8v.752h1.87Z" transform="translate(215.521 -321.268)"/><path class="b" d="M-99.536,324.657h-.747l-.971-1.113h-.6v1.113h-.628v-3.335c.528,0,1.056.005,1.584.005a1.1,1.1,0,0,1,1.2,1.1.987.987,0,0,1-.842,1.046l1.009,1.137Zm-2.322-2.745v1.066h.956a.519.519,0,0,0,.571-.533.522.522,0,0,0-.571-.533Z" transform="translate(209.034 -321.26)"/><path class="b" d="M-85.78,321.335v2.75h1.713v.581h-2.341v-3.33Z" transform="translate(199.026 -321.268)"/><path class="b" d="M-76.5,324.665v-3.33h.623v3.33Z" transform="translate(192.86 -321.268)"/><path class="b" d="M-70.771,324.673v-3.326h2.393v.6h-1.765v.909h1.67v.581h-1.67v1.232Z" transform="translate(189.292 -321.276)"/><path class="b" d="M-58.3,324.665h-2.493v-3.33H-58.3v.609h-1.87v.766h1.8v.585h-1.8v.752h1.87Z" transform="translate(183.079 -321.268)"/></g><g transform="translate(-490.914 199.683)"><path class="c" d="M16.341,33.666c-.136,0-.273-.012-.409-.02l.426.02Zm.622-.008c-.327,0-.573-.013-.847-.037q.392.03.787.036a12.879,12.879,0,0,1-1.322-.088l-.012,0,.01-.009c.379-.017.754.051,1.132.071.224.013.449.012.673.024a.72.72,0,0,1-.109.006h-.313Zm-.034,0h0Zm-1.615-.049c-.052,0-.1-.007-.155-.015h0c.257.016.514.037.771.053C15.718,33.635,15.5,33.622,15.313,33.608Zm2.533.016.007,0c.33-.031.662-.039.991-.078l.078-.009-.157.019-.242.027c-.4.04-.584.044-.649.044Zm-1.338-.169c.006-.009.011-.01.037-.016a5.419,5.419,0,0,1,.983.081,3.51,3.51,0,0,1,.466.053.889.889,0,0,1-.3.03A3.722,3.722,0,0,1,16.509,33.455Zm-3.2-.239v-.01l.014,0a8.5,8.5,0,0,1,1.189.217c.664.132.664.132.677.137a.173.173,0,0,1-.054.005A8.391,8.391,0,0,1,13.3,33.216Zm5.162.323a.029.029,0,0,1,.016-.007c.257-.034.516-.023.772-.05.042,0,.123-.014.214-.028l-.153.024a5.219,5.219,0,0,1-.735.066A.748.748,0,0,1,18.465,33.54Zm-.768-.254c0-.026.045-.036.072-.042a2.257,2.257,0,0,1,.766.11c.225.063.236.081.242.089-.019.025-.092.036-.192.036C18.274,33.478,17.7,33.374,17.7,33.286Zm-2.845.069c-.441-.1-.7-.207-.682-.256,0-.013.03-.018.05-.021a4.877,4.877,0,0,1,1.132.217c.459.126.482.153.492.167a.194.194,0,0,1-.1.015A5.44,5.44,0,0,1,14.852,33.355Zm4.616.1.035-.006-.036.006Zm-.272-.036c0-.008.01-.01.036-.015a1.63,1.63,0,0,1,.309-.009c.064,0,.128,0,.192,0a1.127,1.127,0,0,0,.16-.017l-.113.021a2.482,2.482,0,0,1-.418.042C19.261,33.443,19.2,33.432,19.2,33.418Zm-5.3,0c-.345-.061-.665-.126-1.006-.207l1.007.207Zm6.068-.137a.166.166,0,0,1,.088-.044c.127-.021.2.021.2.052,0,.01-.009.017-.024.021l-.09.018a.432.432,0,0,1-.079.008C19.982,33.341,19.95,33.313,19.968,33.286Zm-4.3-.369c0-.04.064-.053.1-.061a2.3,2.3,0,0,1,.983.227c.085.038.355.166.263.214a.347.347,0,0,1-.147.022C16.5,33.319,15.653,33.1,15.672,32.916Zm3.789.387c-.314-.023-.535-.176-.4-.277a.25.25,0,0,1,.1-.04.574.574,0,0,1,.5.154c.067.08.066.166-.133.166Zm1.159-.114a1.091,1.091,0,0,1,.279-.13c.066-.013.066,0,.054.019a.466.466,0,0,1-.179.1,1.712,1.712,0,0,1-.205.061l-.1.023A.59.59,0,0,0,20.621,33.189Zm1.093-.324.023,0v.006a2.117,2.117,0,0,1-.468.19l-.158.046-.231.061-.042.01C21.14,33.1,21.415,32.949,21.714,32.865Zm-10.875-.341.013-.006a10.436,10.436,0,0,1,1.175.376,6.869,6.869,0,0,1,.7.246h-.012A8.56,8.56,0,0,1,10.839,32.524Zm9.5.5c-.031-.1.055-.275.3-.338.217-.037.28.081.2.211a.491.491,0,0,1-.361.222A.13.13,0,0,1,20.334,33.019Zm-2.088.058c-.427-.006-.967-.309-.757-.487a.29.29,0,0,1,.132-.055.979.979,0,0,1,.77.255c.142.144.142.287-.13.287Zm-5.062-.023q-.312-.1-.621-.211l.184.067c-.163-.053-.29-.1-.424-.157q-.33-.128-.654-.273c-.018-.036,0-.045.047-.053a4.645,4.645,0,0,1,1.2.358c.181.076.591.254.493.287a.156.156,0,0,1-.045,0A1.309,1.309,0,0,1,13.185,33.054Zm9.207-.37.009,0a2.184,2.184,0,0,1-.247.1c-.133.044-.31.1-.443.144C21.94,32.852,22.162,32.757,22.392,32.684Zm-9.06-.414c.02-.036.063-.044.11-.054a2.359,2.359,0,0,1,1.131.35c.214.125.41.286.258.33a.45.45,0,0,1-.125.015C14.24,32.912,13.224,32.465,13.332,32.271Zm8.05.621a1.48,1.48,0,0,1,.707-.541c.153-.029.117.05.094.087a.742.742,0,0,1-.2.189,1.816,1.816,0,0,1-.575.28C21.389,32.906,21.381,32.9,21.382,32.891Zm-1.943-.242c-.175-.169-.125-.428.2-.511.339-.055.5.142.51.3a.351.351,0,0,1-.385.342A.47.47,0,0,1,19.439,32.649Zm3.975-.633c.029-.006.036-.007.049,0,.019.041-.187.193-.478.352a4.184,4.184,0,0,1-.745.331A7.378,7.378,0,0,1,23.414,32.015Zm-7.951-.081a.311.311,0,0,1,.157-.067,1.316,1.316,0,0,1,.982.361c.188.19.211.394-.119.4h-.01C15.965,32.627,15.206,32.171,15.463,31.934Zm8.951-.208.014,0,0,.007a4.011,4.011,0,0,1-.714.415c-.378.188-.746.338-.836.369C22.888,32.509,24.284,31.774,24.414,31.726Zm-3.234.609c-.055-.182.148-.541.528-.645.3-.054.354.139.221.354a.887.887,0,0,1-.594.4A.148.148,0,0,1,21.18,32.335ZM9.374,31.559c0-.019.026-.023.048-.026a4.586,4.586,0,0,1,1.2.494c.1.057.608.343.5.382a.154.154,0,0,1-.051.007C10.712,32.416,9.345,31.738,9.374,31.559Zm.858.783-.062-.026c-.438-.208-1.026-.479-1.455-.707-.139-.077-.163-.093-.182-.106v0c.377.145.721.36,1.083.537.238.117.48.223.716.344A.4.4,0,0,1,10.232,32.342Zm7.86-.187c-.408-.215-.44-.619-.057-.733l.055-.013a.7.7,0,0,1,.774.389c.092.272-.11.456-.4.456A.814.814,0,0,1,18.092,32.155Zm-7.322-.792a.189.189,0,0,1,.1-.039,2.419,2.419,0,0,1,1.208.476c.269.192.46.409.242.438a.514.514,0,0,1-.065,0C11.723,32.241,10.562,31.571,10.771,31.362Zm14.277.136a7.03,7.03,0,0,1-.62.343l-.5.245c-.1.046-.238.109-.341.153C24.084,32.014,24.554,31.734,25.048,31.5Zm-2.258.548a1.648,1.648,0,0,1,.906-.832c.26-.052.131.159.1.2a1.322,1.322,0,0,1-.193.217,1.817,1.817,0,0,1-.761.457C22.811,32.089,22.791,32.076,22.79,32.046Zm-8.563-.091c-.629-.011-1.447-.628-1.185-.892a.323.323,0,0,1,.172-.076,1.554,1.554,0,0,1,1.132.47c.234.247.257.5-.105.5Zm6.036-.316c-.168-.253-.012-.652.433-.77.392-.067.572.167.521.432a.672.672,0,0,1-.618.519A.389.389,0,0,1,20.263,31.639Zm3.822.114a4.531,4.531,0,0,1,1.256-.981c.032-.007.106-.023.05.069a1.831,1.831,0,0,1-.455.424,3.24,3.24,0,0,1-.838.49A.023.023,0,0,1,24.085,31.752ZM16.3,31.488c-.583-.192-.845-.711-.466-.927A.656.656,0,0,1,16,30.5a.989.989,0,0,1,.988.482c.146.3-.021.56-.381.56A1,1,0,0,1,16.3,31.488Zm10.193-1.081a.049.049,0,0,1,.023,0,2.971,2.971,0,0,1-.682.561,6.458,6.458,0,0,1-.859.517A16.277,16.277,0,0,1,26.491,30.407ZM7.027,30.322c0-.02.014-.023.03-.025a4.759,4.759,0,0,1,1.109.641c.2.142.531.391.533.465a.04.04,0,0,1-.027.008A4.824,4.824,0,0,1,7.027,30.322Zm15.518.881c-.072-.247.242-.781.735-.923.373-.071.414.2.24.484a1.185,1.185,0,0,1-.791.57A.174.174,0,0,1,22.545,31.2Zm-13.156-.01q-.6-.412-1.167-.888c-.034-.12.029-.142.1-.155a2.44,2.44,0,0,1,1.21.609c.278.238.476.505.252.527H9.757A1.224,1.224,0,0,1,9.389,31.193Zm16.479-.184c-.12.08-.241.158-.363.234Zm-14.089.022c-.664-.036-1.538-.79-1.265-1.091a.3.3,0,0,1,.177-.082,1.674,1.674,0,0,1,1.211.585c.251.29.284.589-.083.589Zm6.969-.179a.538.538,0,0,1,.3-.948.618.618,0,0,1,.786.509.6.6,0,0,1-.631.613A.674.674,0,0,1,18.748,30.851Zm8.361-.715a.961.961,0,0,1-.1.083l-.721.521-.418.269C26.288,30.727,26.692,30.422,27.11,30.136Zm-2.51.647a1.879,1.879,0,0,1,1.023-1.1c.319-.067.112.282.088.322a1.715,1.715,0,0,1-.177.233,1.874,1.874,0,0,1-.858.608A.066.066,0,0,1,24.6,30.783Zm-10.474-.222c-.692-.206-1.071-.865-.645-1.118a.6.6,0,0,1,.184-.065,1.2,1.2,0,0,1,1.134.58c.2.371,0,.649-.38.649A1.029,1.029,0,0,1,14.126,30.561Zm7.417-.306a.785.785,0,0,1,.616-1.028c.459-.082.635.214.541.549a.956.956,0,0,1-.81.679A.383.383,0,0,1,21.543,30.255Zm4.575.155a4.216,4.216,0,0,1,1.266-1.234c.094-.022.1.034.013.168a2.944,2.944,0,0,1-.4.457,2.884,2.884,0,0,1-.856.628C26.127,30.429,26.119,30.423,26.118,30.41ZM6.045,28.825a.107.107,0,0,1,.08-.037,2.436,2.436,0,0,1,1.137.734c.28.29.459.59.261.6H7.507C7.064,30.125,5.881,29.08,6.045,28.825ZM28.5,28.774l.013,0a3.223,3.223,0,0,1-.641.692,5.592,5.592,0,0,1-.8.637A15.228,15.228,0,0,1,28.5,28.774ZM4.95,28.76l.01-.007a9.557,9.557,0,0,1,.95.789,5.026,5.026,0,0,1,.556.544l-.008.006A8.65,8.65,0,0,1,4.95,28.76Zm11.979,1.16c-.551-.325-.535-.982.027-1.152.022-.007.053-.013.075-.018a.849.849,0,0,1,.991.592.6.6,0,0,1-.633.712A.9.9,0,0,1,16.928,29.92Zm-7.793-.053c-.694-.072-1.6-1.029-1.248-1.313a.308.308,0,0,1,.139-.053,1.739,1.739,0,0,1,1.214.7c.293.38.268.665-.044.665A.6.6,0,0,1,9.135,29.867Zm15.133-.207a1.266,1.266,0,0,1,.878-1.15c.454-.091.42.3.251.6a1.381,1.381,0,0,1-.917.72A.2.2,0,0,1,24.268,29.661Zm-12.653-.219c-.746-.207-1.244-1.024-.794-1.306a.568.568,0,0,1,.188-.066,1.349,1.349,0,0,1,1.213.682c.227.417.051.729-.345.729A.985.985,0,0,1,11.616,29.441Zm8.441-.266a.749.749,0,0,1,.516-1.161.606.606,0,0,1,.794.618.841.841,0,0,1-.821.768A.621.621,0,0,1,20.057,29.176Zm6.506,0a2.074,2.074,0,0,1,1.047-1.325c.3-.064.174.282.02.53-.028.045-.068.1-.1.145-.282.388-.7.738-.881.738C26.6,29.259,26.568,29.232,26.563,29.171ZM14.6,28.8c-.686-.347-.767-1.142-.136-1.329.023-.007.056-.014.08-.02a1.048,1.048,0,0,1,1.139.678.593.593,0,0,1-.62.788A1.03,1.03,0,0,1,14.6,28.8Zm13.536-.041A4.31,4.31,0,0,1,29.326,27.3c.147-.037.012.209-.054.316a3.7,3.7,0,0,1-.308.426,2.655,2.655,0,0,1-.805.741C28.144,28.783,28.136,28.776,28.135,28.759Zm-4.8-.264a1.012,1.012,0,0,1,.745-1.282c.559-.106.661.32.556.657a1.19,1.19,0,0,1-.958.816A.38.38,0,0,1,23.332,28.495Zm-18.093.12c-.326,0-1.487-1.344-1.322-1.527a.076.076,0,0,1,.042-.015c.241.037.726.555.975.872.262.333.45.67.306.67Zm1.348-.181a1.17,1.17,0,0,1-.4-.179q-.441-.53-.844-1.106c-.007-.169.042-.238.188-.265.428-.006.925.5,1.137.827.274.416.264.73-.006.73A.435.435,0,0,1,6.586,28.434ZM30.244,26.9l.007,0a5.5,5.5,0,0,1-.6.807,8.31,8.31,0,0,1-.675.732C28.982,28.344,30.232,26.905,30.244,26.9Zm-26.2.943-.013-.015.38.429C4.365,28.2,4.243,28.069,4.045,27.839Zm13.976.184a.75.75,0,0,1,.37-1.331.783.783,0,1,1,.176,1.533A.837.837,0,0,1,18.021,28.023Zm-9.04.042c-.776-.265-1.271-1.256-.746-1.5a.717.717,0,0,1,.13-.037,1.409,1.409,0,0,1,1.213.789c.232.462.075.8-.307.8A.907.907,0,0,1,8.981,28.065Zm17.35-.266a1.476,1.476,0,0,1,.9-1.388c.447-.093.406.365.234.719-.221.455-.659.839-.928.839A.207.207,0,0,1,26.331,27.8ZM3.943,27.723l-.072-.089.161.19Zm-.493-.608.421.519C3.714,27.448,3.567,27.267,3.45,27.115Zm8.652.365c-.737-.338-.942-1.222-.342-1.477a1.08,1.08,0,0,1,.158-.046,1.174,1.174,0,0,1,1.212.768.6.6,0,0,1-.582.86A1.075,1.075,0,0,1,12.1,27.48Zm9.595-.245a.918.918,0,0,1,.618-1.4.629.629,0,0,1,.815.712,1.032,1.032,0,0,1-.961.9A.608.608,0,0,1,21.7,27.235Zm6.916.038a2.319,2.319,0,0,1,.983-1.552c.277-.064.176.359-.077.787s-.648.841-.823.841A.083.083,0,0,1,28.614,27.273ZM15.7,26.7a.807.807,0,0,1,.232-1.5.976.976,0,0,1,1.145.763.783.783,0,0,1-.809.918A1,1,0,0,1,15.7,26.7Zm14.337.153a4.6,4.6,0,0,1,1.039-1.678c.134-.037-.069.374-.2.6-.041.072-.1.177-.153.255-.252.4-.588.826-.683.826ZM4.515,26.83c-.571-.16-1.361-1.474-1.018-1.694a.232.232,0,0,1,.077-.023c.35.016.8.56,1,.942.243.454.245.787.023.787A.307.307,0,0,1,4.515,26.83Zm-2.3-1.749h.012a4.735,4.735,0,0,1,.753,1c.067.109.4.656.355.725h0A4.825,4.825,0,0,1,2.212,25.08Zm23.05,1.312a1.189,1.189,0,0,1,.81-1.46c.568-.112.669.373.56.754a1.233,1.233,0,0,1-1,.928A.4.4,0,0,1,25.262,26.393Zm-18.827.094c-.763-.264-1.293-1.425-.768-1.678a.591.591,0,0,1,.121-.034c.5-.026.965.51,1.134.9h0c.213.491.076.854-.27.854A.668.668,0,0,1,6.435,26.487Zm24.289-.2c.253-.377.558-.9.793-1.288-.182.326-.5.851-.792,1.288Zm-11.092-.449a.9.9,0,0,1,.521-1.506.8.8,0,0,1,1.016.771.979.979,0,0,1-.972.963A.8.8,0,0,1,19.632,25.835Zm-10.253.1c-.779-.414-.951-1.438-.274-1.636.024-.007.056-.012.08-.018a1.23,1.23,0,0,1,1.209.862h0c.171.534-.113.918-.553.918A.993.993,0,0,1,9.38,25.933ZM28.317,25.7a1.606,1.606,0,0,1,.83-1.6c.42-.091.39.424.236.819-.2.5-.606.931-.868.931A.207.207,0,0,1,28.317,25.7Zm-15.3-.514a.87.87,0,0,1,.187-1.608,1.089,1.089,0,0,1,1.215.841.784.784,0,0,1-.791.975A1.046,1.046,0,0,1,13.018,25.183Zm17.43-.023a2.541,2.541,0,0,1,.83-1.744c.233-.057.15.414-.06.883-.23.513-.551.915-.7.915A.072.072,0,0,1,30.448,25.16Zm-6.819-.225a1.067,1.067,0,0,1,.693-1.562.667.667,0,0,1,.838.792,1.15,1.15,0,0,1-1.041,1A.6.6,0,0,1,23.629,24.935ZM2.587,24.878c-.427-.212-1.094-1.772-.8-1.876a.147.147,0,0,1,.029,0c.252.042.6.646.772,1.063.2.489.222.837.072.837A.162.162,0,0,1,2.587,24.878ZM32.4,22.912l.011,0a4.069,4.069,0,0,1-.336.95,3.9,3.9,0,0,1-.5.891A7.766,7.766,0,0,1,32.4,22.912ZM1.8,24.487l.113.234C1.887,24.68,1.847,24.6,1.8,24.487Zm2.34.14a1.376,1.376,0,0,1-.433-.375q-.208-.465-.393-.948c-.026-.478.212-.524.29-.538.443,0,.843.59.986,1.012.179.526.06.9-.236.9A.5.5,0,0,1,4.136,24.627ZM17.2,24.371a.933.933,0,0,1,.377-1.66.957.957,0,0,1,1.158.833.945.945,0,0,1-.952,1.028A.957.957,0,0,1,17.2,24.371ZM1.2,23.212l-.149-.377c.058.143.285.655.495,1.118.092.2.18.392.247.535C1.6,24.077,1.365,23.6,1.2,23.212Zm5.734.987c-.77-.412-.97-1.612-.3-1.808.022-.007.053-.012.075-.017a1.228,1.228,0,0,1,1.133.962c.151.561-.113.969-.524.969A.818.818,0,0,1,6.937,24.2Zm20.411-.127a1.323,1.323,0,0,1,.722-1.654c.533-.11.638.428.543.845-.135.592-.572,1.013-.921,1.013A.391.391,0,0,1,27.348,24.072Zm-16.861-.559c-.695-.468-.746-1.569.11-1.771a1.137,1.137,0,0,1,1.21.926.8.8,0,0,1-.755,1.031A1.013,1.013,0,0,1,10.487,23.513Zm10.952-.125a1.024,1.024,0,0,1,.589-1.649.831.831,0,0,1,1.041.838,1.076,1.076,0,0,1-1.032,1.072A.8.8,0,0,1,21.439,23.388Zm8.759-.015a1.77,1.77,0,0,1,.667-1.773c.368-.083.361.479.239.905-.162.567-.5.991-.736.991A.188.188,0,0,1,30.2,23.373Zm-15.563-.7a.984.984,0,0,1,.338-1.757,1.056,1.056,0,0,1,1.223.9.931.931,0,0,1-.923,1.084A1.031,1.031,0,0,1,14.634,22.677ZM32,22.856a3.174,3.174,0,0,1,.6-1.9c.169-.046.109.467-.045.967-.164.537-.4.965-.514.965C32.029,22.893,32.013,22.881,32,22.856ZM2.362,22.6c-.515-.436-.841-1.856-.328-1.949.3.015.533.439.647.691q.085.322.179.638c.055.493-.069.73-.255.73A.392.392,0,0,1,2.362,22.6Zm-1.211.075a4.108,4.108,0,0,1-.593-2.048.057.057,0,0,1,.015,0,3.34,3.34,0,0,1,.493,1.182c.141.513.184.877.109.877A.042.042,0,0,1,1.151,22.68Zm24.513-.22a1.163,1.163,0,0,1,.62-1.748c.646-.126.88.429.84.865a1.148,1.148,0,0,1-1.005,1.084A.608.608,0,0,1,25.664,22.461Zm7.552-1.9c-.071.308-.405,1.48-.549,1.891C32.854,21.888,33.063,21.128,33.216,20.558ZM4.535,22.218c-.648-.452-.848-1.789-.123-1.941.523-.024.883.608.972,1.064.114.591-.125,1.008-.483,1.008A.648.648,0,0,1,4.535,22.218Zm14.581-.46a1.04,1.04,0,0,1,.446-1.8.969.969,0,0,1,1.174.894,1.047,1.047,0,0,1-1.03,1.115A.921.921,0,0,1,19.115,21.758ZM7.907,21.679c-.716-.477-.789-1.728.077-1.927a1.128,1.128,0,0,1,1.121,1.016.828.828,0,0,1-.724,1.066A.856.856,0,0,1,7.907,21.679Zm21.307-.1a1.416,1.416,0,0,1,.541-1.814c.478-.1.606.476.544.918-.087.618-.462,1.068-.784,1.068A.365.365,0,0,1,29.214,21.584Zm-17.278-.669a1.059,1.059,0,0,1,.258-1.9,1.1,1.1,0,0,1,1.21.978.941.941,0,0,1-.9,1.116A.974.974,0,0,1,11.936,20.915Zm19.818.034a1.968,1.968,0,0,1,.4-1.951c.3-.072.33.527.257.975-.1.587-.347,1.037-.543,1.037A.145.145,0,0,1,31.753,20.949Zm-8.177-.2a1.117,1.117,0,0,1,.509-1.827.876.876,0,0,1,1.068.9,1.109,1.109,0,0,1-1.036,1.144A.79.79,0,0,1,23.577,20.749ZM33.4,18.43l.014,0c.088.046.026.662-.034,1.04a2.676,2.676,0,0,1-.282,1A4.9,4.9,0,0,1,33.4,18.43ZM.994,20.358c-.346-.317-.614-2.015-.2-2.079.246.044.43.71.482,1.169.064.559-.02.959-.177.959A.156.156,0,0,1,.994,20.358Zm-.7-.153C.192,19.59.064,18.77,0,18.15c0-.031,0-.031,0-.04.028.1.149.967.186,1.231.07.5.109.8.115.889Zm16.066-.228a1.074,1.074,0,0,1,.4-1.872A1.063,1.063,0,0,1,18,19.058a1.021,1.021,0,0,1-1,1.157A1,1,0,0,1,16.358,19.976Zm-13.708.08a1.3,1.3,0,0,1-.363-.586q-.052-.329-.093-.656c.018-.32.111-.715.444-.779.46,0,.694.677.733,1.105.055.6-.163,1.021-.458,1.021A.426.426,0,0,1,2.65,20.056Zm25.07-.277a1.244,1.244,0,0,1,.411-1.893c.579-.117.829.475.821.934-.011.652-.42,1.133-.831,1.133A.568.568,0,0,1,27.72,19.779ZM5.575,19.586c-.6-.508-.586-1.778.2-1.949.616-.048.907.617.945,1.047.056.637-.282,1.084-.691,1.084A.7.7,0,0,1,5.575,19.586Zm15.406-.606a1.109,1.109,0,0,1,.422-1.892,1.014,1.014,0,0,1,1.2.939,1.058,1.058,0,0,1-1.013,1.185A.938.938,0,0,1,20.981,18.98ZM9.347,18.915A1.1,1.1,0,0,1,9.671,17a1.036,1.036,0,0,1,1.1,1,.955.955,0,0,1-.863,1.133A.878.878,0,0,1,9.347,18.915Zm21.55.075c-.4-.392-.327-1.747.231-1.986.4-.089.562.521.548.983-.019.626-.291,1.1-.571,1.1A.3.3,0,0,1,30.9,18.989Zm1.989-.624c-.235-.275-.222-1.841.092-2.051.207-.054.284.574.273,1.037-.015.594-.152,1.054-.294,1.054A.1.1,0,0,1,32.886,18.366ZM13.64,18.044a1.08,1.08,0,0,1,.418-1.869,1.054,1.054,0,0,1,1.2.958A1.019,1.019,0,0,1,14.28,18.3.957.957,0,0,1,13.64,18.044Zm11.8-.125a1.163,1.163,0,0,1,.382-1.9.944.944,0,0,1,1.073.946,1.023,1.023,0,0,1-.91,1.182A.793.793,0,0,1,25.444,17.918ZM1.38,17.749c-.312-.557-.206-1.79.261-1.873.113.006.279.064.408.5,0,.344.006.69.023,1.037-.094.389-.251.563-.405.563C1.563,17.972,1.461,17.894,1.38,17.749Zm-1.189.2a3.769,3.769,0,0,1,0-2.086.076.076,0,0,1,.017,0c.13.069.169.761.163,1.182-.007.536-.075.916-.159.916A.036.036,0,0,1,.191,17.946ZM33.6,15.89c.01.482.036,1.112.017,1.586l-.025.477C33.607,17.615,33.61,16.216,33.6,15.89ZM3.626,17.406c-.465-.518-.328-1.761.352-1.9.5-.024.71.6.7,1.057C4.675,17.171,4.348,17.6,4,17.6A.508.508,0,0,1,3.626,17.406Zm14.636-.312a1.077,1.077,0,0,1,.392-1.879,1.062,1.062,0,0,1,1.246.929,1.033,1.033,0,0,1-1,1.19A.983.983,0,0,1,18.262,17.093Zm11.03-.057c-.517-.44-.532-1.748.117-2,.5-.1.788.513.83.984.059.654-.251,1.148-.618,1.148A.509.509,0,0,1,29.292,17.036Zm-22.3-.177A1.153,1.153,0,0,1,7.424,15c.619-.062.91.548.919,1a.98.98,0,0,1-.853,1.086A.708.708,0,0,1,6.988,16.859ZM31.972,16.3c-.4-.349-.552-1.831-.1-2.064.314-.073.525.557.575,1.029.065.624-.092,1.1-.32,1.1A.236.236,0,0,1,31.972,16.3Zm-20.905-.151a1.09,1.09,0,0,1,.411-1.874.971.971,0,0,1,1.086.948,1.014,1.014,0,0,1-.954,1.123A.86.86,0,0,1,11.067,16.154Zm11.873-.042a1.088,1.088,0,0,1,.24-1.94,1.05,1.05,0,0,1,1.228.91h0a1,1,0,0,1-.938,1.2A.926.926,0,0,1,22.94,16.111ZM33.6,15.857c0,.009,0,.02,0,.033Zm-.2-.077a4.641,4.641,0,0,1-.269-2.123c.1-.031.238.536.306,1.082.072.581.062,1.047-.02,1.047A.03.03,0,0,1,33.4,15.78ZM.737,15.587c-.256-.3-.071-1.931.349-2,.224.04.231.675.165,1.115-.082.542-.269.93-.426.93A.116.116,0,0,1,.737,15.587Zm-.7-.467L.06,14.9l.16-1.071a1.915,1.915,0,0,1,.089-.382h0c.025.107-.13,1.16-.131,1.17a7.486,7.486,0,0,1-.161.87C.013,15.47,0,15.45.035,15.12Zm15.421.1a1.016,1.016,0,1,1,1.617-.908,1,1,0,0,1-.979,1.151A.976.976,0,0,1,15.456,15.22Zm-13.082.021c-.355-.468-.1-1.776.49-1.891.4,0,.494.616.434,1.055-.079.582-.382.987-.659.987A.332.332,0,0,1,2.374,15.241Zm24.834-.134c-.656-.433-.763-1.7.006-1.97.585-.118.969.471,1.055.928h0c.126.666-.213,1.173-.66,1.173A.726.726,0,0,1,27.208,15.107Zm-22-.336a1.237,1.237,0,0,1,.573-1.8c.536-.043.727.554.691.991-.051.614-.45,1.038-.83,1.038A.542.542,0,0,1,5.209,14.771Zm14.9-.481a1.019,1.019,0,0,1,.218-1.862,1.081,1.081,0,0,1,1.258.872.954.954,0,0,1-.925,1.159A1.009,1.009,0,0,1,20.112,14.29Zm-11.23-.107a1.115,1.115,0,0,1,.517-1.8.849.849,0,0,1,.91.934,1.028,1.028,0,0,1-.928,1.075A.719.719,0,0,1,8.882,14.183Zm21.6.1c-.555-.324-.862-1.774-.289-2.024.407-.09.733.508.835.961.142.632-.034,1.124-.346,1.124A.4.4,0,0,1,30.485,14.28Zm2.041-.657c-.338-.187-.83-1.82-.5-2.053.215-.056.476.553.592,1,.153.595.132,1.068-.033,1.068A.124.124,0,0,1,32.526,13.623ZM12.983,13.35a1.037,1.037,0,0,1,.473-1.736.941.941,0,0,1,1.085.881,1,1,0,0,1-.967,1.092A.86.86,0,0,1,12.983,13.35Zm11.539-.112c-.682-.441-.765-1.577.05-1.838a1.1,1.1,0,0,1,1.213.86.845.845,0,0,1-.754,1.139A.934.934,0,0,1,24.522,13.237ZM1.759,13.021c-.106-.548.284-1.615.7-1.69.12.006.179.072.225.256q-.185.688-.319,1.4c-.151.221-.283.313-.387.313S1.791,13.189,1.759,13.021Zm-1.188.242c-.1-.2.325-1.91.583-1.938.108.06-.033.705-.149,1.1-.149.51-.319.867-.4.867C.59,13.289.579,13.28.571,13.263ZM32.63,11.117l.009.019c.188.6.441,1.406.585,2.021l0,.018C33.164,13.024,32.632,11.128,32.63,11.117ZM3.893,12.757a1.383,1.383,0,0,1,.7-1.767c.459-.022.5.589.413.978-.123.575-.495.973-.8.973A.358.358,0,0,1,3.893,12.757ZM17.457,12.5a.977.977,0,0,1,.24-1.775,1.043,1.043,0,0,1,1.21.835.928.928,0,0,1-.919,1.1A.969.969,0,0,1,17.457,12.5ZM7,12.249a1.188,1.188,0,0,1,.655-1.715c.545-.055.721.5.672.916a1.073,1.073,0,0,1-.91,1A.523.523,0,0,1,7,12.249Zm21.332.1c-.654-.351-.993-1.633-.338-1.885.489-.1.9.451,1.045.878.2.611-.017,1.091-.407,1.091A.638.638,0,0,1,28.334,12.348Zm-17.651-.807a1.053,1.053,0,0,1,.57-1.646.8.8,0,0,1,.9.857,1,1,0,0,1-.932,1.032A.713.713,0,0,1,10.683,11.541ZM21.827,11.5a.948.948,0,0,1,.038-1.743,1.138,1.138,0,0,1,1.276.8.821.821,0,0,1-.79,1.1A1.02,1.02,0,0,1,21.827,11.5Zm9.156.1c-.506-.238-1.089-1.671-.641-1.908.309-.073.678.486.84.907.22.568.17,1.032-.078,1.032A.287.287,0,0,1,30.982,11.606ZM1.7,11.067c-.151-.273.438-1.755.831-1.818.187.036.007.638-.151,1.008-.213.5-.474.853-.612.853A.075.075,0,0,1,1.7,11.067Zm30.657-.014c-.194-.085-.981-1.7-.826-1.912.115-.037.421.531.6.946.229.53.338.97.243.97A.046.046,0,0,1,32.357,11.053ZM1.853,9.13h.006a9.556,9.556,0,0,1-.425,1.055,5.9,5.9,0,0,1-.4.8A8.033,8.033,0,0,1,1.853,9.13ZM14.828,10.8a.916.916,0,1,1,1.4-.874.9.9,0,0,1-.889,1.037A.88.88,0,0,1,14.828,10.8ZM3.219,10.749a1.682,1.682,0,0,1,.861-1.711c.342,0,.253.583.116.95-.2.532-.546.9-.783.9A.209.209,0,0,1,3.219,10.749Zm22.733-.164c-.765-.325-1.074-1.487-.463-1.751.02-.009.048-.017.068-.024.544-.111,1.019.4,1.182.8.24.584-.007,1.05-.459,1.05A.842.842,0,0,1,25.951,10.585ZM5.739,10.329A1.352,1.352,0,0,1,6.55,8.719c.468-.036.492.526.4.889-.144.551-.559.936-.881.936A.356.356,0,0,1,5.739,10.329ZM19.006,9.89a.882.882,0,0,1,.072-1.636,1.091,1.091,0,0,1,1.218.754.782.782,0,0,1-.771,1.031A1.017,1.017,0,0,1,19.006,9.89ZM8.957,9.812a1.1,1.1,0,0,1,.647-1.6c.529-.063.7.446.66.826a1.038,1.038,0,0,1-.9.959A.526.526,0,0,1,8.957,9.812ZM29.042,9.78c-.65-.208-1.253-1.505-.817-1.757.012-.007.031-.014.045-.02.382-.085.832.424,1.031.813.275.538.2.988-.12.988A.456.456,0,0,1,29.042,9.78ZM12.608,9.133a.929.929,0,0,1,.418-1.566.782.782,0,0,1,.894.765.907.907,0,0,1-.867.96A.7.7,0,0,1,12.608,9.133ZM30.94,9.14c-.312-.056-1.328-1.531-1.02-1.762.2-.054.61.458.833.839.292.5.386.925.21.925ZM23.192,9c-.783-.278-1.11-1.283-.522-1.605a.892.892,0,0,1,.141-.055,1.231,1.231,0,0,1,1.252.724c.25.542-.044,1-.542,1A.985.985,0,0,1,23.192,9ZM3.246,8.8A2.31,2.31,0,0,1,4.29,7.257c.06,0,.109.018.11.164q-.377.657-.7,1.354c-.151.15-.263.211-.337.211S3.244,8.91,3.246,8.8Zm-1.081.164A4.029,4.029,0,0,1,3.227,7.256c.1.063-.438.948-.443.957h0c-.284.468-.521.772-.6.772C2.176,8.984,2.169,8.977,2.166,8.961Zm28.27-1.993c.01.006.01.006.051.062.256.389.611.9.845,1.3h0l.178.314a.554.554,0,0,1,.031.06C31.478,8.666,30.441,6.982,30.435,6.968ZM5.06,8.513a1.671,1.671,0,0,1,.97-1.54c.351-.016.244.514.1.852-.235.529-.616.846-.858.846A.206.206,0,0,1,5.06,8.513Zm11.4-.177a.827.827,0,0,1,.142-1.52.97.97,0,0,1,1.089.708.756.756,0,0,1-.754.954A.894.894,0,0,1,16.457,8.336Zm-14.023-.3c.069-.112.163-.262.273-.43l-.481.778C2.314,8.237,2.394,8.106,2.434,8.041Zm5.236.043a1.252,1.252,0,0,1,.81-1.477c.449-.044.471.462.379.791a1.13,1.13,0,0,1-.882.871A.333.333,0,0,1,7.67,8.084Zm18.969.078c-.7-.16-1.357-1.276-.934-1.592a.44.44,0,0,1,.1-.048c.438-.094.944.366,1.164.722.31.5.207.935-.182.935A.651.651,0,0,1,26.639,8.162ZM10.786,7.541a.963.963,0,0,1,.56-1.444c.489-.064.674.387.649.727a.93.93,0,0,1-.831.88A.511.511,0,0,1,10.786,7.541ZM2.715,7.6l.022-.033-.031.047Zm17.722-.06c-.74-.249-1.039-1.191-.47-1.482A.943.943,0,0,1,20.105,6a1.2,1.2,0,0,1,1.23.656.616.616,0,0,1-.577.933A1.012,1.012,0,0,1,20.437,7.538ZM2.9,7.327l-.159.237C2.787,7.487,2.841,7.408,2.9,7.327Zm26.1.13c-.506-.035-1.5-1.355-1.191-1.588a.244.244,0,0,1,.031-.017c.281-.068.767.389,1.023.735.343.464.413.87.156.87ZM3.779,7.03A3.254,3.254,0,0,1,5.022,5.49c.166.036-.443.837-.449.845-.335.439-.643.733-.754.733A.039.039,0,0,1,3.779,7.03Zm10.408-.158a.758.758,0,1,1,1.147-.73.728.728,0,0,1-1.147.73Zm-10.981.09A8.079,8.079,0,0,1,4.494,5.408a5.548,5.548,0,0,1-.681.877,5.548,5.548,0,0,1-.6.687ZM28.854,5.368c.1-.032.506.37.827.761.353.429.568.8.471.805h0A4.424,4.424,0,0,1,28.854,5.368ZM5.081,6.793C4.985,6.45,5.8,5.4,6.235,5.316c.267,0-.056.576-.2.8-.317.478-.67.759-.846.759A.1.1,0,0,1,5.081,6.793ZM24.044,6.7c-.746-.132-1.411-1.148-.948-1.45a.489.489,0,0,1,.1-.047,1.4,1.4,0,0,1,1.223.637c.327.467.2.874-.237.874A.823.823,0,0,1,24.044,6.7ZM7.114,6.458c-.137-.385.486-1.277.967-1.383.335-.025.23.44.084.74-.235.485-.617.779-.856.779A.193.193,0,0,1,7.114,6.458Zm10.7-.274c-.661-.232-.891-1.091-.363-1.352a.907.907,0,0,1,.126-.045,1.06,1.06,0,0,1,1.094.6.573.573,0,0,1-.549.848A.932.932,0,0,1,17.809,6.184ZM9.637,6c-.233-.378.209-1.183.716-1.3.386-.044.451.369.374.676a.968.968,0,0,1-.8.786A.326.326,0,0,1,9.637,6Zm17.078-.033c-.563-.009-1.591-1.109-1.309-1.4a.229.229,0,0,1,.066-.04c.334-.075.872.325,1.147.633.38.425.428.808.1.808ZM12.5,5.466a.791.791,0,0,1,.388-1.251.589.589,0,0,1,.651.611.741.741,0,0,1-.688.778A.513.513,0,0,1,12.5,5.466Zm8.81-.051c-.766-.112-1.3-.977-.93-1.277a.453.453,0,0,1,.151-.073,1.383,1.383,0,0,1,1.209.558c.314.419.152.8-.3.8A.911.911,0,0,1,21.315,5.415Zm5.514-1.4A.085.085,0,0,1,26.845,4c.166-.044.654.3,1.009.644.4.384.6.724.436.742h-.014C27.944,5.391,26.686,4.2,26.829,4.017Zm-22,1.254A5.416,5.416,0,0,1,6.3,3.883c0,.018.012.063-.713.759a3.321,3.321,0,0,1-.751.632A.016.016,0,0,1,4.83,5.271Zm.859-.08A3.287,3.287,0,0,1,7.043,3.879c.035,0,.047.012.033.064q-.172.168-.338.341c-.069.081-.144.162-.219.242l-.106.109.1-.107q-.292.318-.568.654a.451.451,0,0,1-.2.091C5.682,5.272,5.684,5.222,5.689,5.192Zm.873-.722,0,0ZM4.7,5.116h0l0,0Zm.617-.591q.109-.1.22-.2c-.293.269-.589.551-.837.788C4.892,4.929,5.057,4.767,5.319,4.525Zm1.775.406c-.02-.325.769-1.172,1.173-1.258.241-.008-.084.485-.23.675-.331.433-.678.681-.844.681A.092.092,0,0,1,7.094,4.931ZM27.261,3.663c.01,0,.033.007.261.2l.5.434.564.528a1.5,1.5,0,0,1,.18.19C28.692,4.99,27.269,3.674,27.261,3.663ZM15.582,4.874c-.537-.266-.6-1.029-.1-1.2.017-.006.039-.012.056-.017a.861.861,0,0,1,.9.546.536.536,0,0,1-.518.753A.761.761,0,0,1,15.582,4.874ZM9.028,4.611c-.118-.32.456-1.086.89-1.187.287-.026.191.365.063.617a1.142,1.142,0,0,1-.78.685A.17.17,0,0,1,9.028,4.611Zm13.8-1.161a.28.28,0,0,1,.072-.037,1.741,1.741,0,0,1,1.2.538c.4.381.421.732.055.737h-.007C23.55,4.688,22.513,3.723,22.831,3.45ZM6.123,3.807c.023-.019.046-.039.071-.056h0c-.214.2-.436.384-.654.576C5.742,4.141,5.942,3.961,6.123,3.807Zm5.163.369c-.218-.312.127-.988.558-1.1.323-.041.405.3.36.554a.774.774,0,0,1-.665.668A.3.3,0,0,1,11.286,4.176Zm7.512.069c-.7-.1-1.156-.862-.81-1.126a.45.45,0,0,1,.139-.064,1.293,1.293,0,0,1,1.108.484c.283.369.112.716-.314.716A.88.88,0,0,1,18.8,4.245Zm5.676-1.331a.1.1,0,0,1,.036-.031,2.109,2.109,0,0,1,1.136.532c.42.33.606.642.4.67l-.031,0C25.6,4.086,24.357,3.156,24.473,2.914ZM13.8,3.719a.593.593,0,0,1,.12-1.055.6.6,0,0,1,.645.486.508.508,0,0,1-.5.645A.514.514,0,0,1,13.8,3.719Zm-7.009.007C6.73,3.57,8.129,2.584,8.38,2.539l.007,0c0,.016,0,.054-.748.626-.631.485-.789.56-.841.56ZM8.067,2.493a2.076,2.076,0,0,1-.3.215c-.111.076-.342.234-.619.43-.716.507-.716.507-.762.529A8.8,8.8,0,0,1,8.067,2.493ZM25.3,2.5a3.259,3.259,0,0,1,1,.543c.347.242.7.536.67.6h-.01A6.242,6.242,0,0,1,25.3,2.5ZM7.725,3.547A3.441,3.441,0,0,1,9.137,2.424a.062.062,0,0,1,.026.007c.013.08-.42.466-.554.582a2.361,2.361,0,0,1-.846.574C7.735,3.588,7.722,3.574,7.725,3.547ZM20.3,2.523a.217.217,0,0,1,.1-.057,1.779,1.779,0,0,1,1.186.446c.363.306.4.6.089.646a.622.622,0,0,1-.087.006C20.984,3.565,20.1,2.774,20.3,2.523Zm-11.208.8c0-.28.775-.965,1.1-1.039.222-.013-.233.518-.252.541a1.555,1.555,0,0,1-.773.577A.069.069,0,0,1,9.094,3.324Zm7.419-.1c-.577-.091-.92-.745-.618-.967a.355.355,0,0,1,.116-.051,1.045,1.045,0,0,1,.9.417c.248.343.049.609-.29.609A.706.706,0,0,1,16.513,3.219Zm-5.749-.2c-.1-.271.407-.874.734-.954.242-.026.112.349.047.482a.931.931,0,0,1-.643.562A.135.135,0,0,1,10.764,3.022ZM22.015,2a.109.109,0,0,1,.042-.028,2.315,2.315,0,0,1,1.19.425c.435.278.61.551.376.583a.335.335,0,0,1-.046,0C23.117,2.98,21.874,2.213,22.015,2Zm-9.372.672c-.236-.214-.036-.788.305-.878.244-.034.353.223.352.416a.516.516,0,0,1-.464.535A.283.283,0,0,1,12.643,2.669Zm5.252-.9a.213.213,0,0,1,.09-.048,1.706,1.706,0,0,1,1.09.36c.33.252.357.51.056.552a.7.7,0,0,1-.1.006C18.456,2.635,17.689,1.987,17.9,1.765Zm5.144-.17s.007-.006.009-.009A3.119,3.119,0,0,1,24.17,2c.435.234.732.471.648.517a.072.072,0,0,1-.033.006A4.681,4.681,0,0,1,23.039,1.6ZM10.216,1.433a1.358,1.358,0,0,1-.241.13c-.192.1-.406.207-.72.376a7,7,0,0,1-.862.45A8.954,8.954,0,0,1,10.216,1.433ZM8.9,2.382a5.66,5.66,0,0,1,1.64-.952.075.075,0,0,1-.023.028q-.138.07-.274.144l-.447.26-.305.177q-.234.146-.462.3a.339.339,0,0,1-.119.042Zm.614-.357.021-.013Zm.026-.016q.344-.213.7-.405Q9.883,1.8,9.539,2.009Zm5.215.3c-.424-.083-.627-.619-.383-.794a.273.273,0,0,1,.087-.038.734.734,0,0,1,.646.346c.173.28.005.5-.253.5A.5.5,0,0,1,14.754,2.3Zm-4.591-.927c-.346.179-.707.327-1.055.5-.268.136-.524.3-.8.419A12.909,12.909,0,0,1,10.164,1.377ZM23.33,1.338a7.344,7.344,0,0,1,.976.43,7.532,7.532,0,0,1,.841.465C25.08,2.226,23.34,1.346,23.33,1.338ZM9.76,2.216a3.864,3.864,0,0,1,1.369-.893h.01c0,.018,0,.039-.576.448-.545.389-.722.461-.778.461C9.766,2.232,9.761,2.223,9.76,2.216Zm9.75-.908a.1.1,0,0,1,.042-.024,2.46,2.46,0,0,1,1.172.322c.391.2.568.423.387.479a.327.327,0,0,1-.1.012C20.555,2.1,19.361,1.5,19.51,1.308Zm-8.651.714c-.014-.189.728-.746.966-.8.029,0,.083-.006-.131.238-.021.024-.079.088-.15.161a1.358,1.358,0,0,1-.635.444C10.878,2.061,10.861,2.048,10.859,2.022Zm5.006-.858a.165.165,0,0,1,.07-.036,1.534,1.534,0,0,1,.91.275c.312.217.279.415.042.446a.583.583,0,0,1-.075,0C16.342,1.855,15.7,1.339,15.865,1.164Zm-3.752.6c-.072-.2.317-.633.521-.686.169-.019.029.333.028.337a.614.614,0,0,1-.446.416A.1.1,0,0,1,12.113,1.76ZM20.595.941s.009-.006.013-.009a3.387,3.387,0,0,1,1.18.3c.488.2.719.381.622.421a.123.123,0,0,1-.045.007A4.654,4.654,0,0,1,20.595.941Zm-10.228.33h0c-.224.095-.52.228-.742.327C9.988,1.426,10.264,1.312,10.367,1.27Zm3.153.251A.365.365,0,0,1,13.485.9L13.5.9c.148-.02.3.146.344.269a.258.258,0,0,1-.223.376A.274.274,0,0,1,13.52,1.522Zm3.667-.7c0-.017.023-.025.04-.031a2.7,2.7,0,0,1,1.077.222c.384.157.5.308.4.363a.3.3,0,0,1-.133.025C18.146,1.4,17.163.956,17.187.824ZM21.118.686V.68a4.916,4.916,0,0,1,1.11.292,3.339,3.339,0,0,1,.812.362.045.045,0,0,1-.028.006A15.223,15.223,0,0,1,21.118.686ZM12.484.627c-.335.125-.677.227-1.01.356-.2.076-.394.157-.5.2a3.6,3.6,0,0,1-.383.147A11.479,11.479,0,0,1,12.484.627ZM12.428.62C11.4.946,11.4.946,11.313.975c-.3.106-.591.235-.895.331A13.923,13.923,0,0,1,12.428.62Zm.279-.037c-.277.122-.568.211-.846.33-.78.335-.78.335-.8.338A7.461,7.461,0,0,1,12.707.583ZM12.448.6c-.817.232-.817.232-1.127.335-.284.095-.563.206-.846.3A13.768,13.768,0,0,1,12.448.6Zm1.9.128A.081.081,0,0,1,14.383.7a1.222,1.222,0,0,1,.646.2c.226.146.225.285.081.319a.374.374,0,0,1-.086.01C14.686,1.228,14.262.83,14.343.725Zm-2.72.439a4.853,4.853,0,0,1,1.241-.6.258.258,0,0,1-.056.026c-.128.058-.276.126-.539.267-.592.319-.592.319-.643.32Zm.679-.121c0-.117.614-.474.754-.514,0,.007,0,.007-.034.029-.1.073-.158.122-.264.212-.288.242-.394.29-.433.29C12.3,1.062,12.3,1.05,12.3,1.044ZM21.225.59c.3.082.828.238,1.412.454C22.219.891,21.651.723,21.225.59Zm-9.9.32-.307.107C11.115.982,11.221.945,11.327.91ZM18.151.525l.015-.015A4.1,4.1,0,0,1,19.33.693c.455.128.679.259.626.306a.118.118,0,0,1-.068.013A5.673,5.673,0,0,1,18.151.525ZM13.033.882c-.07-.111.168-.371.235-.393.033,0,.026.152.023.177-.021.16-.128.244-.2.244A.064.064,0,0,1,13.033.882Zm-1.7.027A10.541,10.541,0,0,1,12.537.561c-.893.246-.893.246-1.048.3L11.327.91ZM15.919.818a2.184,2.184,0,0,1-.73-.306c0-.006.014-.009.02-.011a2.936,2.936,0,0,1,.9.127c.341.1.459.209.373.251A.277.277,0,0,1,16.372.9,1.831,1.831,0,0,1,15.919.818ZM12.172.646l-.339.1C11.976.7,12.039.681,12.172.646Zm1.311-.2s0,0,.006,0a.965.965,0,0,1,.349.106c.15.082.168.171.081.19a.175.175,0,0,1-.038,0A.6.6,0,0,1,13.484.446Zm6.6.18C20.033.614,18.745.342,18.725.293A5.627,5.627,0,0,1,19.9.452a2.537,2.537,0,0,1,.8.257.1.1,0,0,1-.054.01A3.522,3.522,0,0,1,20.088.626ZM12.179.644c.3-.09.512-.131.514-.131-.266.067-.415.1-.52.133ZM15.856.328l.007-.009a5.16,5.16,0,0,1,1.073.072c.284.045.6.122.614.184C17.539.59,17.5.6,17.436.6A8.951,8.951,0,0,1,15.856.328Zm5.309.246.053.014.007,0ZM14.5.547,13.706.395v0a3.82,3.82,0,0,1,.659.031c.255.036.388.091.365.122,0,0-.017.016-.083.016A1.071,1.071,0,0,1,14.5.547ZM13.342.4l-.086.017c-.174.033-.344.079-.518.106.007,0,.2-.05.6-.123l-.075.012c-.147.025-.294.054-.441.081,0,0,.165-.04.516-.093l-.058.007c-.11.015-.219.034-.329.05A3.406,3.406,0,0,1,13.342.4l-.036,0c-.052,0-.1.007-.155.011a.16.16,0,0,1-.03,0A.958.958,0,0,1,13.342.4l.015-.009a.465.465,0,0,1,.132-.054.128.128,0,0,1-.028.012c-.041.017-.08.033-.118.051l.039-.014A2.606,2.606,0,0,1,13.656.3l-.029.009c-.126.035-.187.053-.284.085L13.4.381c.214-.06.377-.095.4-.1-.153.042-.308.075-.46.117L13.375.39c.263-.064.417-.095.418-.095-.149.041-.3.067-.451.1L13.379.39c.283-.063.45-.092.462-.095-.165.039-.333.067-.5.1L13.381.39c.282-.057.458-.085.469-.087-.169.036-.339.061-.508.095l.036-.007c.275-.05.43-.071.438-.071-.158.03-.317.05-.474.078l.032,0c.232-.036.366-.049.373-.049-.134.023-.27.034-.4.054l.024,0c.166-.019.256-.023.275-.023a.5.5,0,0,1-.085.008c-.072,0-.143.01-.214.017h.014a.634.634,0,0,1,.153.007s-.011,0-.039,0L13.342.4l0,0c.029.018.03.035.02.037s-.026-.01-.023-.04l-.008,0c-.107.064-.107.064-.113.064A.428.428,0,0,1,13.342.4L13.324.4c-.079.028-.153.064-.233.087A2.037,2.037,0,0,1,13.342.4l-.027.008c-.113.033-.224.072-.338.1,0,0,.114-.041.365-.11l-.1.026.023-.006q-.233.06-.461.127l-.024.006S12.921.5,13.342.4l-.087.02c-.182.042-.361.1-.544.134C12.712.552,12.891.5,13.342.4Zm0,0ZM13.342.4ZM13.342.4ZM13.342.4Zm0,0ZM13.342.4ZM13.342.4ZM13.342.4Zm0,0ZM13.342.4ZM13.342.4ZM13.342.4Zm0,0ZM13.342.4ZM13.342.4ZM13.342.4Zm0,0ZM13.342.4ZM13.342.4ZM13.342.4Zm0,0Zm0,0Zm0,0Zm0,0ZM13.342.4ZM13.342.4ZM13.342.4ZM13.342.4ZM13.342.4ZM13.342.4ZM13.342.4ZM13.342.4ZM13.342.4ZM13.342.4ZM13.342.4ZM13.342.4ZM13.342.4ZM13.342.4ZM13.342.4ZM13.342.4Zm0,0Zm0,0Zm0,0Zm0,0Zm0,0Zm0,0Zm0,0Zm0,0Zm0,0Zm0,0Zm0,0Zm0,0Zm0,0Zm0,0Zm0,0Zm0,0Zm0,0Zm0,0Zm0,0Zm0,0Zm0,0Zm0,0Zm0,0Zm0,0Zm0,0Zm0,0Zm0,0Zm0,0ZM12.7.542h0Zm.606-.136-.054.012c-.185.039-.367.09-.553.125C12.709.54,12.888.491,13.305.406ZM18.879.153a8.472,8.472,0,0,1,1.093.153,8.39,8.39,0,0,1,.919.217h0C20.81.523,18.893.159,18.879.153ZM12.7.5,12.8.48c.087-.021.114-.025.114-.025h0c-.093.021-.188.041-.281.066Zm.037.018h0Zm.5-.1-.057.015ZM13.122.4,13.159.4s.007,0,.01,0l-.008,0-.1.02ZM13.342.4l-.037.007Zm-.01,0C13.3.381,13.3.381,13.3.377s.035-.012.042.006a.067.067,0,0,1,0,.016Zm1.91-.012L13.892.344h0A7.892,7.892,0,0,1,14.8.306a2.076,2.076,0,0,1,.6.062c-.01.008-.019.016-.116.016ZM16.3.172A7.441,7.441,0,0,1,17.465.2a3.29,3.29,0,0,1,.784.134l0,.012a.207.207,0,0,1-.037,0C17.931.353,16.33.2,16.3.172Zm-2.9.171-.008,0Zm.078-.016h.006l-.069.016h-.015ZM14.028.3c.066-.01.544-.072,1.08-.093a4.736,4.736,0,0,1,.775.012c-.014.011-.014.011-.064.014-.336.015-.672.007-1.008.018-.26.009-.52.04-.78.05ZM13.842.295h0ZM13.736.279l.117-.021c-.06.01-.12.024-.18.036h0A.631.631,0,0,1,13.736.279ZM15.275.136a7.366,7.366,0,0,1,.9-.027.369.369,0,0,1-.057.009c-.4.031-.8.035-1.206.068-.269.022-.535.072-.8.085C14.183.257,14.69.18,15.275.136ZM14.14.209l.2-.031c-.149.022-.3.051-.444.077C13.907.252,14,.231,14.14.209ZM15.293.093c.5-.048.873-.058.951-.056a.907.907,0,0,1-.171.014c-.215.013-.576.035-.986.077-.32.033-.638.089-.959.122C14.133.25,14.635.156,15.293.093Zm-.141-.01c.527-.058.938-.07.942-.071-.827.067-.827.067-2.008.231C14.089.243,14.538.15,15.152.083Zm-.393.038.057-.007L14.966.1c-.145.018-.335.047-.88.132C14.088.229,14.328.175,14.759.121ZM16.512.067A9.544,9.544,0,0,1,17.68.075a6,6,0,0,1,.906.1.254.254,0,0,1-.043,0C18.24.178,16.519.071,16.512.067Zm-1.3,0L14.966.1C15.043.088,15.108.082,15.208.072Zm2.234-.05c-.142,0-.284,0-.425,0-.18,0-.36,0-.54-.008.037,0,.482-.023,1.083,0,.524.023.932.068.972.074C18.168.071,17.806.035,17.442.023Z" transform="translate(0 0)"/></g></g></svg>