<svg xmlns="http://www.w3.org/2000/svg" xmlns:xlink="http://www.w3.org/1999/xlink" width="165.971" height="62.303" viewBox="0 0 165.971 62.303"><defs><style>.a{fill:#51087e;}.b{fill:url(#a);}.c{fill:url(#b);}.d,.f,.i{mix-blend-mode:screen;}.d,.e,.f,.i{isolation:isolate;}.d{fill:url(#c);}.e{opacity:0.15;mix-blend-mode:multiply;fill:url(#d);}.f{fill:url(#e);}.g{fill:url(#f);}.h{fill:url(#g);}.i{fill:url(#h);}.j{stroke:rgba(0,0,0,0);stroke-miterlimit:10;fill:url(#i);}</style><linearGradient id="a" y1="0.5" x2="1" y2="0.5" gradientUnits="objectBoundingBox"><stop offset="0" stop-color="#51087e"/><stop offset="1" stop-color="#880ed4"/></linearGradient><linearGradient id="b" x1="0.466" y1="0.431" x2="1.463" y2="-0.083" xlink:href="#a"/><linearGradient id="c" x1="0.023" y1="0.562" x2="2.165" y2="0.074" xlink:href="#a"/><linearGradient id="d" x1="0.488" y1="0.441" x2="1.495" y2="-0.016" xlink:href="#a"/><linearGradient id="e" x1="0.315" y1="0.64" x2="1.515" y2="0.133" xlink:href="#a"/><linearGradient id="f" x1="-60.439" y1="-70.97" x2="-59.182" y2="-70.97" xlink:href="#a"/><linearGradient id="g" x1="-76.126" y1="-70.982" x2="-74.537" y2="-70.982" xlink:href="#a"/><linearGradient id="h" x1="0.161" y1="0.5" x2="1.161" y2="0.5" xlink:href="#a"/><linearGradient id="i" x1="0.183" y1="0.156" x2="0.799" y2="0.863" gradientUnits="objectBoundingBox"><stop offset="0" stop-color="#fff"/><stop offset="1" stop-color="#51087e"/></linearGradient></defs><g transform="translate(-62.501 -428)"><g transform="translate(102.524 439.298)"><path class="a" d="M299.179,346.821a5.735,5.735,0,0,0-2.171-3.646,7.206,7.206,0,0,0-4.147-1.086,6.093,6.093,0,0,0-5.275,2.672,8.588,8.588,0,0,0-1.252,2.825,13.77,13.77,0,0,0-.4,3.382,15.531,15.531,0,0,0,.348,3.284,8.715,8.715,0,0,0,1.155,2.881,6.126,6.126,0,0,0,2.171,2.046,6.817,6.817,0,0,0,3.424.779,6.313,6.313,0,0,0,2.338-.418,5.826,5.826,0,0,0,1.851-1.155,6.721,6.721,0,0,0,1.336-1.74,8.763,8.763,0,0,0,.821-2.2h1.976a12.5,12.5,0,0,1-.974,2.742,7.81,7.81,0,0,1-1.684,2.269A7.694,7.694,0,0,1,296.159,361a9.745,9.745,0,0,1-3.493.571,8.514,8.514,0,0,1-3.953-.849,7.5,7.5,0,0,1-2.686-2.3,9.636,9.636,0,0,1-1.517-3.354,16.748,16.748,0,0,1-.473-4.05,14.673,14.673,0,0,1,.71-4.871,8.7,8.7,0,0,1,1.962-3.271,7.42,7.42,0,0,1,2.951-1.837,11.567,11.567,0,0,1,3.7-.57,9.744,9.744,0,0,1,2.853.4,7.02,7.02,0,0,1,2.338,1.211,6.58,6.58,0,0,1,1.67,1.99,8.378,8.378,0,0,1,.9,2.742Z" transform="translate(-283.146 -340.475)"/><path class="a" d="M387.951,383.942a7.514,7.514,0,0,1-2.6-.5,5.831,5.831,0,0,1-2.116-1.42,6.81,6.81,0,0,1-1.433-2.366,9.468,9.468,0,0,1-.529-3.312,10.177,10.177,0,0,1,.417-2.964,7,7,0,0,1,1.253-2.408,5.951,5.951,0,0,1,2.087-1.628,6.712,6.712,0,0,1,2.923-.6,6.782,6.782,0,0,1,2.95.6,6.025,6.025,0,0,1,2.088,1.614,6.67,6.67,0,0,1,1.238,2.408,10.657,10.657,0,0,1,.4,2.978,9.646,9.646,0,0,1-.473,3.117,7.016,7.016,0,0,1-1.35,2.394,5.942,5.942,0,0,1-2.115,1.545A6.758,6.758,0,0,1,387.951,383.942Zm4.9-7.6a9.867,9.867,0,0,0-.278-2.394,5.676,5.676,0,0,0-.863-1.934,4.151,4.151,0,0,0-1.5-1.294,4.886,4.886,0,0,0-2.255-.473,4.57,4.57,0,0,0-2.241.515,4.387,4.387,0,0,0-1.517,1.364,6,6,0,0,0-.863,1.948,9.206,9.206,0,0,0-.278,2.268,8.981,8.981,0,0,0,.32,2.463,5.762,5.762,0,0,0,.932,1.935,4.181,4.181,0,0,0,1.531,1.253,4.791,4.791,0,0,0,2.116.445,4.568,4.568,0,0,0,2.241-.515,4.329,4.329,0,0,0,1.517-1.378,6.169,6.169,0,0,0,.863-1.948A9.058,9.058,0,0,0,392.85,376.343Z" transform="translate(-360.563 -362.982)"/><path class="a" d="M463.516,383.552h-1.67V369.134h1.67v2a10.606,10.606,0,0,1,2.073-1.726,4.77,4.77,0,0,1,2.575-.668,6.578,6.578,0,0,1,2.477.459,4.228,4.228,0,0,1,1.92,1.6,3.6,3.6,0,0,1,.626,1.6,14.565,14.565,0,0,1,.1,1.712v9.435h-1.67v-9.408a4.3,4.3,0,0,0-.863-2.922,3.665,3.665,0,0,0-2.867-.974,4.075,4.075,0,0,0-1.419.237,4.466,4.466,0,0,0-1.155.626,4.194,4.194,0,0,0-.877.891,4.132,4.132,0,0,0-.557,1.058,5.308,5.308,0,0,0-.306,1.336q-.056.641-.056,1.392Z" transform="translate(-424.716 -362.982)"/><path class="a" d="M547.171,343.07h1.67v20.04h-1.67v-2.533h-.056a4.529,4.529,0,0,1-.932,1.267,5.661,5.661,0,0,1-1.252.9,6.7,6.7,0,0,1-1.406.557,5.465,5.465,0,0,1-1.42.2,6.871,6.871,0,0,1-2.978-.585,5.543,5.543,0,0,1-2.018-1.6,6.516,6.516,0,0,1-1.155-2.408,11.774,11.774,0,0,1-.362-2.978,10.679,10.679,0,0,1,.39-2.895,7.176,7.176,0,0,1,1.183-2.435,5.863,5.863,0,0,1,2-1.67,6.131,6.131,0,0,1,2.853-.626,6.648,6.648,0,0,1,2.937.682A5.173,5.173,0,0,1,547.171,351Zm0,12.776a7.95,7.95,0,0,0-.334-2.324,6.015,6.015,0,0,0-.96-1.921,4.728,4.728,0,0,0-1.531-1.308,4.249,4.249,0,0,0-2.046-.487,4.651,4.651,0,0,0-2.255.515,4.445,4.445,0,0,0-1.559,1.406,6.076,6.076,0,0,0-.891,2.074,9.4,9.4,0,0,0-.223,2.547,7.09,7.09,0,0,0,.376,2.407,5.128,5.128,0,0,0,1.044,1.768,4.452,4.452,0,0,0,1.559,1.1A4.96,4.96,0,0,0,542.3,362a4.49,4.49,0,0,0,2.088-.473,4.394,4.394,0,0,0,1.531-1.294,5.943,5.943,0,0,0,.932-1.948A8.889,8.889,0,0,0,547.171,355.846Z" transform="translate(-483.431 -342.541)"/><path class="a" d="M630.989,370.656h1.67v14.418h-1.67v-2q-.334.39-.751.807a5.679,5.679,0,0,1-.96.765,5.479,5.479,0,0,1-1.266.585,5.384,5.384,0,0,1-1.67.237,6.354,6.354,0,0,1-2.422-.4,3.954,3.954,0,0,1-1.573-1.127,4.458,4.458,0,0,1-.863-1.684,7.882,7.882,0,0,1-.264-2.1v-9.492h1.67v9.464a4.212,4.212,0,0,0,.863,2.853,3.594,3.594,0,0,0,2.839.988,4.14,4.14,0,0,0,1.851-.4,3.867,3.867,0,0,0,1.378-1.127,5.384,5.384,0,0,0,.863-1.726,7.5,7.5,0,0,0,.306-2.2Z" transform="translate(-551.607 -364.505)"/><path class="a" d="M772.494,369.473q-.307.055-.807.195a4.167,4.167,0,0,1-1.113.139,2.652,2.652,0,0,1-1.907-.626,3.048,3.048,0,0,1-.654-2.24V356.391h-2.032V355h2.032v-4.008h1.67V355h2.7v1.392h-2.7v9.881q0,.529.028.918a1.53,1.53,0,0,0,.167.64.8.8,0,0,0,.431.362,2.392,2.392,0,0,0,.821.111,4.293,4.293,0,0,0,.682-.056q.348-.056.682-.139Z" transform="translate(-666.864 -348.848)"/><path class="a" d="M279.667,449.472h14.585v1.614h-6.346v18.426h-1.893V451.086h-6.346Z" transform="translate(-279.667 -427.257)"/><path class="a" d="M361.34,483.134a7.809,7.809,0,0,0,.306,2.213,5.339,5.339,0,0,0,.9,1.809,4.379,4.379,0,0,0,1.517,1.225,4.67,4.67,0,0,0,2.115.459,4.6,4.6,0,0,0,2.811-.863,4.158,4.158,0,0,0,1.559-2.449h1.865a9,9,0,0,1-.807,1.906,5.874,5.874,0,0,1-1.252,1.531,5.41,5.41,0,0,1-1.781,1.016,7.234,7.234,0,0,1-2.394.362,6.99,6.99,0,0,1-2.978-.585,5.612,5.612,0,0,1-2.06-1.6,6.742,6.742,0,0,1-1.2-2.394,10.833,10.833,0,0,1-.39-2.964,9.449,9.449,0,0,1,.459-2.978,7.578,7.578,0,0,1,1.308-2.435,6.079,6.079,0,0,1,2.074-1.642,6.26,6.26,0,0,1,2.784-.6,5.748,5.748,0,0,1,4.676,2.046,8.99,8.99,0,0,1,1.67,5.943Zm9.408-1.392a6.62,6.62,0,0,0-.292-1.99,4.658,4.658,0,0,0-.863-1.614,4.112,4.112,0,0,0-1.433-1.086,4.62,4.62,0,0,0-1.976-.4,4.39,4.39,0,0,0-1.962.417,4.509,4.509,0,0,0-1.447,1.113,5.586,5.586,0,0,0-.96,1.614,7.475,7.475,0,0,0-.473,1.948Z" transform="translate(-343.276 -447.698)"/><path class="a" d="M440.407,469.513V449.472h1.67v20.041Z" transform="translate(-407.646 -427.257)"/><path class="a" d="M467.587,483.134a7.809,7.809,0,0,0,.306,2.213,5.336,5.336,0,0,0,.9,1.809,4.382,4.382,0,0,0,1.517,1.225,4.671,4.671,0,0,0,2.115.459,4.6,4.6,0,0,0,2.811-.863,4.159,4.159,0,0,0,1.559-2.449h1.865a9,9,0,0,1-.807,1.906,5.876,5.876,0,0,1-1.253,1.531,5.408,5.408,0,0,1-1.781,1.016,7.232,7.232,0,0,1-2.394.362,6.99,6.99,0,0,1-2.978-.585,5.616,5.616,0,0,1-2.06-1.6,6.744,6.744,0,0,1-1.2-2.394,10.84,10.84,0,0,1-.39-2.964,9.44,9.44,0,0,1,.459-2.978,7.578,7.578,0,0,1,1.308-2.435,6.079,6.079,0,0,1,2.073-1.642,6.26,6.26,0,0,1,2.784-.6,5.748,5.748,0,0,1,4.676,2.046,8.991,8.991,0,0,1,1.67,5.943ZM477,481.743a6.613,6.613,0,0,0-.292-1.99,4.66,4.66,0,0,0-.863-1.614,4.114,4.114,0,0,0-1.434-1.086,4.619,4.619,0,0,0-1.976-.4,4.391,4.391,0,0,0-1.962.417,4.512,4.512,0,0,0-1.447,1.113,5.586,5.586,0,0,0-.96,1.614,7.475,7.475,0,0,0-.473,1.948Z" transform="translate(-427.869 -447.698)"/><path class="a" d="M545.425,469.513V449.472h1.67V457.1a10.616,10.616,0,0,1,2.074-1.726,4.77,4.77,0,0,1,2.575-.668,6.578,6.578,0,0,1,2.478.459,4.229,4.229,0,0,1,1.92,1.6,3.6,3.6,0,0,1,.626,1.6,14.537,14.537,0,0,1,.1,1.712v9.436h-1.67V460.1a4.3,4.3,0,0,0-.863-2.922,3.663,3.663,0,0,0-2.867-.974,4.073,4.073,0,0,0-1.42.237,4.46,4.46,0,0,0-1.155.626,4.185,4.185,0,0,0-.877.891,4.12,4.12,0,0,0-.557,1.058,5.313,5.313,0,0,0-.306,1.336q-.056.641-.056,1.392v7.766Z" transform="translate(-491.26 -427.257)"/><path class="a" d="M619.451,483.134a7.816,7.816,0,0,0,.306,2.213,5.342,5.342,0,0,0,.9,1.809,4.379,4.379,0,0,0,1.517,1.225,4.672,4.672,0,0,0,2.115.459,4.6,4.6,0,0,0,2.811-.863,4.158,4.158,0,0,0,1.559-2.449h1.865a9,9,0,0,1-.807,1.906,5.873,5.873,0,0,1-1.252,1.531,5.411,5.411,0,0,1-1.781,1.016,7.234,7.234,0,0,1-2.394.362,6.989,6.989,0,0,1-2.978-.585,5.613,5.613,0,0,1-2.06-1.6,6.738,6.738,0,0,1-1.2-2.394,10.833,10.833,0,0,1-.39-2.964,9.444,9.444,0,0,1,.459-2.978,7.583,7.583,0,0,1,1.308-2.435,6.077,6.077,0,0,1,2.074-1.642,6.259,6.259,0,0,1,2.783-.6,5.749,5.749,0,0,1,4.676,2.046,8.992,8.992,0,0,1,1.67,5.943Zm9.408-1.392a6.624,6.624,0,0,0-.292-1.99,4.66,4.66,0,0,0-.863-1.614,4.113,4.113,0,0,0-1.433-1.086,4.62,4.62,0,0,0-1.976-.4,4.389,4.389,0,0,0-1.962.417,4.512,4.512,0,0,0-1.448,1.113,5.592,5.592,0,0,0-.96,1.614,7.46,7.46,0,0,0-.473,1.948Z" transform="translate(-548.78 -447.698)"/><path class="a" d="M701.086,481.548q.473-.056,1.127-.167a4.234,4.234,0,0,0,1.071-.306.887.887,0,0,0,.515-.654,4.125,4.125,0,0,0,.1-.849,2.848,2.848,0,0,0-.821-2.1,3.833,3.833,0,0,0-2.769-.821,7.7,7.7,0,0,0-1.587.153,3.46,3.46,0,0,0-1.266.529,2.916,2.916,0,0,0-.891,1,4.241,4.241,0,0,0-.459,1.573h-1.7a5.167,5.167,0,0,1,.585-2.185,4.438,4.438,0,0,1,1.294-1.475,5.392,5.392,0,0,1,1.837-.835,8.993,8.993,0,0,1,2.213-.264,8.541,8.541,0,0,1,2.046.237,4.753,4.753,0,0,1,1.67.752,3.5,3.5,0,0,1,1.113,1.378,4.982,4.982,0,0,1,.4,2.115v7.849q0,.974.348,1.239t1.406-.125V489.9l-.571.167a2.6,2.6,0,0,1-.738.112,3.324,3.324,0,0,1-.752-.084,1.289,1.289,0,0,1-.668-.264,1.631,1.631,0,0,1-.4-.5,2.062,2.062,0,0,1-.209-.64,4.607,4.607,0,0,1-.056-.738,7.247,7.247,0,0,1-2.421,1.781,7.123,7.123,0,0,1-2.95.613,6.6,6.6,0,0,1-1.823-.251,4.409,4.409,0,0,1-1.545-.779,3.865,3.865,0,0,1-1.058-1.294,3.973,3.973,0,0,1-.39-1.823q0-3.674,5.038-4.342Zm2.811.835a8.178,8.178,0,0,1-2.143.585q-1.085.14-2.171.223a6.12,6.12,0,0,0-2.992.863,2.473,2.473,0,0,0-1.072,2.2,2.383,2.383,0,0,0,.264,1.155,2.436,2.436,0,0,0,.7.807,2.93,2.93,0,0,0,1,.473,4.426,4.426,0,0,0,1.155.153,7.575,7.575,0,0,0,1.948-.25,5.27,5.27,0,0,0,1.684-.765,3.913,3.913,0,0,0,1.183-1.308,3.781,3.781,0,0,0,.445-1.879Z" transform="translate(-609.345 -447.698)"/><path class="a" d="M774.449,469.513V449.472h1.67v20.041Z" transform="translate(-673.606 -427.257)"/><path class="a" d="M802.948,475.875q-.307.055-.807.195a4.167,4.167,0,0,1-1.113.139,2.652,2.652,0,0,1-1.907-.626,3.048,3.048,0,0,1-.654-2.241V462.793h-2.032V461.4h2.032v-4.008h1.67V461.4h2.7v1.392h-2.7v9.881q0,.529.028.918a1.529,1.529,0,0,0,.167.64.8.8,0,0,0,.431.362,2.394,2.394,0,0,0,.821.111,4.293,4.293,0,0,0,.682-.056q.348-.055.682-.139Z" transform="translate(-691.111 -433.564)"/><path class="a" d="M841.5,469.513V449.472h1.67V457.1a10.594,10.594,0,0,1,2.074-1.726,4.768,4.768,0,0,1,2.575-.668,6.574,6.574,0,0,1,2.477.459,4.229,4.229,0,0,1,1.921,1.6,3.6,3.6,0,0,1,.626,1.6,14.59,14.59,0,0,1,.1,1.712v9.436h-1.67V460.1a4.3,4.3,0,0,0-.863-2.922,3.664,3.664,0,0,0-2.867-.974,4.072,4.072,0,0,0-1.419.237,4.469,4.469,0,0,0-1.155.626,4.192,4.192,0,0,0-.877.891,4.129,4.129,0,0,0-.557,1.058,5.306,5.306,0,0,0-.306,1.336q-.056.641-.056,1.392v7.766Z" transform="translate(-726.993 -427.257)"/></g><g transform="translate(178.457 428)"><g transform="translate(0)"><path class="b" d="M671.466,300.319c-.223.5-.49,1.027-.793,1.591h0c-2.795,5.208-8.585,13.183-9.459,20.533a45.119,45.119,0,0,1,3.343-19.406c-1.786-.264-4.068-1.685-7.739-2.145-3.088-.385-4.251.073-4.542.228l-.046.026c3.794-2.613,7.632-1.734,10.886-1.587h0a10.393,10.393,0,0,0,2.614-.148,4.922,4.922,0,0,0,2.93-1.784,6.011,6.011,0,0,0,.677-1.046l0-.007a10.039,10.039,0,0,0,.977-3.775,13.139,13.139,0,0,0-.193-3.5,8.148,8.148,0,0,0-2.1-4.26l0,0h0c2.985,1.649,4.593,5.035,4.726,8.742A14.751,14.751,0,0,1,671.466,300.319Z" transform="translate(-652.229 -285.042)"/><path class="c" d="M668.177,359.887s-6.812,10.966-6.732,21.083a45.126,45.126,0,0,1,3.343-19.406c-1.785-.264-4.068-1.686-7.739-2.145-2.88-.359-4.086.016-4.471.193-.026.013-.046.022-.057.029a11.206,11.206,0,0,1,7.13-.9C664.154,359.485,666.979,360.116,668.177,359.887Z" transform="translate(-652.462 -343.568)"/><path class="d" d="M706.561,300.319a69.833,69.833,0,0,1-3.431,6.136.051.051,0,0,0-.006.01h0c-2.826,4.75-6.168,10.535-6.815,15.977.418-12.162,8.65-21.089,10.08-27.508a9.378,9.378,0,0,0-3.254-9.885l-.011-.007,0,0h0c2.985,1.649,4.593,5.035,4.726,8.742A14.751,14.751,0,0,1,706.561,300.319Z" transform="translate(-687.324 -285.042)"/><path class="e" d="M661.67,382.667a45.119,45.119,0,0,1,3.343-19.406c-1.785-.264-4.067-1.685-7.739-2.144-2.88-.359-4.086.016-4.471.193a10.106,10.106,0,0,1,5.5-.5c3.786.479,7.133,2.065,8.037,1.807C666.344,362.617,661.093,373.354,661.67,382.667Z" transform="translate(-652.686 -345.265)"/><path class="f" d="M715.286,293.785c-.133-3.707-1.74-7.093-4.726-8.742h0l0,0a8.15,8.15,0,0,1,2.1,4.26,13.149,13.149,0,0,1,.189,3.541l-.006.066q-.018.21-.042.421l-.008.06c-.017.142-.037.285-.06.426,0,.018-.006.037-.009.055-.023.143-.049.285-.078.427,0,.017-.007.035-.011.052q-.044.214-.1.425l-.012.047c-.036.142-.075.283-.118.422l-.013.039q-.065.212-.141.419l-.011.029c-.052.14-.107.279-.166.415l-.007.016c-.061.14-.126.278-.2.412l0,.007a6.011,6.011,0,0,1-.677,1.046,4.922,4.922,0,0,1-2.93,1.784,10.391,10.391,0,0,1-2.614.148,8.6,8.6,0,0,0,5.438-1.054c2.969-2,2.954-7.327,2.954-7.327s1.507,3.986-.837,10.73h0c.3-.564.57-1.1.793-1.591A14.751,14.751,0,0,0,715.286,293.785Z" transform="translate(-694.76 -285.042)"/></g><g transform="translate(12.817 7.442)"><path class="g" d="M717.864,321.881a.035.035,0,0,0,.009.006,2.38,2.38,0,0,1,.888,1.8,3.1,3.1,0,0,1-.757,2.132h0a1.5,1.5,0,0,1-1.015.542c-1,.049-1.808-1.275-1.868-2.5a2.051,2.051,0,0,1,1.714-2.3A1.587,1.587,0,0,1,717.864,321.881Z" transform="translate(-715.117 -321.554)"/><path class="h" d="M717.864,321.881c-.744-.525-1.623.141-1.9,1.088a2.667,2.667,0,0,0,.6,2.648,1.267,1.267,0,0,0,1.439.2,1.5,1.5,0,0,1-1.015.542c-1,.049-1.808-1.275-1.868-2.5a2.051,2.051,0,0,1,1.714-2.3A1.587,1.587,0,0,1,717.864,321.881Z" transform="translate(-715.117 -321.554)"/><path class="i" d="M723.743,325.212a3.01,3.01,0,0,0-1.935-3.6h0a1.5,1.5,0,0,1,.352-.059,1.579,1.579,0,0,1,1.031.326l.009.006a2.378,2.378,0,0,1,.888,1.8A3.1,3.1,0,0,1,723.743,325.212Z" transform="translate(-720.444 -321.555)"/></g></g><g transform="translate(152.91 485.554)"><path class="a" d="M531.352,569.25v.1a.552.552,0,0,0-.386.425l-.923,2.961h-.078l-.85-2.516-.777,2.516h-.078l-1.036-3.073q-.1-.3-.337-.313v-.1q.2.015.523.015.352,0,.528-.015v.1a.377.377,0,0,0-.186.049.141.141,0,0,0-.054.122.844.844,0,0,0,.054.239l.713,2.179.6-1.891-.132-.386q-.1-.3-.289-.313v-.1q.176.015.474.015.42,0,.625-.015v.1a.833.833,0,0,0-.259.042.131.131,0,0,0-.073.134.79.79,0,0,0,.049.234l.7,2.174.6-1.891a1.337,1.337,0,0,0,.078-.4.254.254,0,0,0-.1-.227.61.61,0,0,0-.318-.071v-.1q.279.015.562.015Q531.205,569.264,531.352,569.25Z" transform="translate(-526.886 -568.879)"/><path class="a" d="M550.236,575.539a.974.974,0,0,1-.33.462.909.909,0,0,1-.584.193,1.112,1.112,0,0,1-.6-.159,1.025,1.025,0,0,1-.388-.445,1.539,1.539,0,0,1-.134-.662,1.827,1.827,0,0,1,.137-.738,1.091,1.091,0,0,1,.386-.481,1.013,1.013,0,0,1,.582-.169.858.858,0,0,1,.677.266,1.186,1.186,0,0,1,.237.809h-1.53a3,3,0,0,0-.015.313,1.387,1.387,0,0,0,.105.562.894.894,0,0,0,.278.369.6.6,0,0,0,.364.13.769.769,0,0,0,.415-.113.839.839,0,0,0,.3-.376Zm-1.349-1.681a1.316,1.316,0,0,0-.205.664h1.065a1.4,1.4,0,0,0-.11-.635.381.381,0,0,0-.354-.254A.484.484,0,0,0,548.887,573.859Z" transform="translate(-543.854 -572.295)"/><path class="a" d="M568,573.7a.443.443,0,0,1,.23.376.272.272,0,0,1-.073.2.252.252,0,0,1-.186.073.285.285,0,0,1-.191-.066.221.221,0,0,1-.078-.178.264.264,0,0,1,.058-.173.286.286,0,0,1,.147-.1.367.367,0,0,0-.174-.147.618.618,0,0,0-.266-.058.558.558,0,0,0-.337.115.827.827,0,0,0-.259.381,2,2,0,0,0-.1.7,1.552,1.552,0,0,0,.2.882.6.6,0,0,0,.508.276.718.718,0,0,0,.4-.122.892.892,0,0,0,.31-.381l.093.034a1.016,1.016,0,0,1-.311.479.857.857,0,0,1-.589.2,1.006,1.006,0,0,1-.55-.157,1.058,1.058,0,0,1-.388-.452,1.567,1.567,0,0,1-.142-.687,1.639,1.639,0,0,1,.144-.7,1.152,1.152,0,0,1,.4-.481,1.038,1.038,0,0,1,.591-.173A1.013,1.013,0,0,1,568,573.7Z" transform="translate(-558.265 -572.295)"/><path class="a" d="M579.886,573.871a1.784,1.784,0,0,1,0,2,1.15,1.15,0,0,1-1.607,0,1.784,1.784,0,0,1,0-2,1.144,1.144,0,0,1,1.607,0Zm-1.268.068a2.611,2.611,0,0,0,0,1.859.51.51,0,0,0,.928,0,2.611,2.611,0,0,0,0-1.859.509.509,0,0,0-.928,0Z" transform="translate(-567.561 -572.295)"/><path class="a" d="M592.838,573.727a.556.556,0,0,1,.132.244,1.6,1.6,0,0,1,.039.4v1.3a.365.365,0,0,0,.083.276.426.426,0,0,0,.288.076v.1q-.45-.019-.586-.019t-.547.019v-.1a.335.335,0,0,0,.251-.076.406.406,0,0,0,.071-.276v-1.412a.9.9,0,0,0-.078-.418.328.328,0,0,0-.318-.144.578.578,0,0,0-.357.117.757.757,0,0,0-.242.32,1.154,1.154,0,0,0-.085.452v1.085a.408.408,0,0,0,.071.276.335.335,0,0,0,.251.076v.1c-.274-.013-.456-.019-.547-.019s-.287.006-.586.019v-.1a.427.427,0,0,0,.288-.076.365.365,0,0,0,.083-.276v-1.529a.518.518,0,0,0-.083-.327.352.352,0,0,0-.288-.1v-.1c.1.01.205.014.3.014a1.6,1.6,0,0,0,.508-.068v.576a.905.905,0,0,1,.34-.452.889.889,0,0,1,.491-.139A.681.681,0,0,1,592.838,573.727Z" transform="translate(-577.676 -572.295)"/><path class="a" d="M607.149,573.727a.555.555,0,0,1,.132.244,1.594,1.594,0,0,1,.039.4v1.3a.365.365,0,0,0,.083.276.427.427,0,0,0,.288.076v.1q-.45-.019-.586-.019t-.547.019v-.1a.336.336,0,0,0,.252-.076.409.409,0,0,0,.071-.276v-1.412a.893.893,0,0,0-.078-.418.328.328,0,0,0-.318-.144.577.577,0,0,0-.357.117.754.754,0,0,0-.242.32,1.15,1.15,0,0,0-.085.452v1.085a.408.408,0,0,0,.071.276.336.336,0,0,0,.252.076v.1q-.411-.019-.547-.019t-.586.019v-.1a.427.427,0,0,0,.288-.076.365.365,0,0,0,.083-.276v-1.529a.518.518,0,0,0-.083-.327.352.352,0,0,0-.288-.1v-.1c.1.01.205.014.3.014a1.6,1.6,0,0,0,.508-.068v.576a.9.9,0,0,1,.34-.452.889.889,0,0,1,.491-.139A.68.68,0,0,1,607.149,573.727Z" transform="translate(-589.071 -572.295)"/><path class="a" d="M621.745,575.539a.973.973,0,0,1-.33.462.909.909,0,0,1-.584.193,1.112,1.112,0,0,1-.6-.159,1.025,1.025,0,0,1-.388-.445,1.541,1.541,0,0,1-.135-.662,1.833,1.833,0,0,1,.137-.738,1.093,1.093,0,0,1,.386-.481,1.013,1.013,0,0,1,.581-.169.859.859,0,0,1,.677.266,1.187,1.187,0,0,1,.237.809H620.2a3,3,0,0,0-.014.313,1.385,1.385,0,0,0,.1.562.9.9,0,0,0,.279.369.6.6,0,0,0,.364.13.768.768,0,0,0,.415-.113.84.84,0,0,0,.3-.376Zm-1.349-1.681a1.313,1.313,0,0,0-.2.664h1.065a1.4,1.4,0,0,0-.11-.635.381.381,0,0,0-.354-.254A.484.484,0,0,0,620.4,573.859Z" transform="translate(-600.79 -572.295)"/><path class="a" d="M633.543,573.7a.443.443,0,0,1,.23.376.271.271,0,0,1-.073.2.251.251,0,0,1-.185.073.286.286,0,0,1-.191-.066.222.222,0,0,1-.078-.178.263.263,0,0,1,.058-.173.286.286,0,0,1,.147-.1.368.368,0,0,0-.174-.147.619.619,0,0,0-.266-.058.558.558,0,0,0-.337.115.828.828,0,0,0-.259.381,2,2,0,0,0-.1.7,1.552,1.552,0,0,0,.2.882.6.6,0,0,0,.508.276.718.718,0,0,0,.4-.122.892.892,0,0,0,.31-.381l.093.034a1.015,1.015,0,0,1-.31.479.858.858,0,0,1-.589.2,1.007,1.007,0,0,1-.55-.157,1.059,1.059,0,0,1-.388-.452,1.569,1.569,0,0,1-.142-.687,1.639,1.639,0,0,1,.144-.7,1.153,1.153,0,0,1,.4-.481,1.039,1.039,0,0,1,.591-.173A1.014,1.014,0,0,1,633.543,573.7Z" transform="translate(-610.448 -572.295)"/><path class="a" d="M643.391,570.713h.723v.1h-.723V572.7a.5.5,0,0,0,.081.318.283.283,0,0,0,.232.1.334.334,0,0,0,.259-.122,1,1,0,0,0,.181-.4l.1.025q-.122.674-.635.674a.815.815,0,0,1-.274-.039.519.519,0,0,1-.19-.122.572.572,0,0,1-.149-.264,1.692,1.692,0,0,1-.042-.42v-1.637h-.469v-.1h.469v-.748a1.512,1.512,0,0,0,.44-.068Z" transform="translate(-618.922 -569.394)"/><path class="a" d="M658.149,573.877v.1a.276.276,0,0,0-.174.088.777.777,0,0,0-.144.254l-.8,2.1-.166.425a.871.871,0,0,1-.21.342.424.424,0,0,1-.176.1.745.745,0,0,1-.205.029.359.359,0,0,1-.24-.078.267.267,0,0,1-.093-.215.259.259,0,0,1,.068-.188.253.253,0,0,1,.191-.071.263.263,0,0,1,.178.061.211.211,0,0,1,.071.169.238.238,0,0,1-.132.22.071.071,0,0,0,.029,0q.269,0,.415-.381l.171-.445-.885-2.135a.552.552,0,0,0-.166-.22.3.3,0,0,0-.166-.054v-.1a3.476,3.476,0,0,0,.479.029q.244,0,.635-.029v.1a.824.824,0,0,0-.257.029.133.133,0,0,0-.08.142.623.623,0,0,0,.059.24l.586,1.456.542-1.412a.718.718,0,0,0,.054-.225.182.182,0,0,0-.088-.166.654.654,0,0,0-.279-.068v-.1q.259.015.411.015Q657.993,573.892,658.149,573.877Z" transform="translate(-629.459 -572.563)"/><path class="a" d="M670.719,573.871a1.784,1.784,0,0,1,0,2,1.15,1.15,0,0,1-1.608,0,1.784,1.784,0,0,1,0-2,1.144,1.144,0,0,1,1.608,0Zm-1.268.068a2.611,2.611,0,0,0,0,1.859.51.51,0,0,0,.928,0,2.613,2.613,0,0,0,0-1.859.509.509,0,0,0-.928,0Z" transform="translate(-639.881 -572.295)"/><path class="a" d="M683.482,575.655a.519.519,0,0,0,.083.327.352.352,0,0,0,.289.1v.1c-.1-.01-.2-.015-.3-.015a1.591,1.591,0,0,0-.508.068v-.577a.9.9,0,0,1-.332.445.836.836,0,0,1-.469.142.666.666,0,0,1-.508-.186.561.561,0,0,1-.125-.249,1.724,1.724,0,0,1-.037-.391V574.2a.52.52,0,0,0-.083-.327.352.352,0,0,0-.288-.1v-.1q.151.015.3.014a1.6,1.6,0,0,0,.508-.068v1.92a1.66,1.66,0,0,0,.022.3.328.328,0,0,0,.1.188.357.357,0,0,0,.247.073.538.538,0,0,0,.337-.117.779.779,0,0,0,.237-.32,1.141,1.141,0,0,0,.085-.447V574.2a.518.518,0,0,0-.083-.327.352.352,0,0,0-.288-.1v-.1q.151.015.3.014a1.6,1.6,0,0,0,.508-.068Z" transform="translate(-649.749 -572.352)"/><path class="a" d="M701.407,570.713h.723v.1h-.723V572.7a.5.5,0,0,0,.08.318.284.284,0,0,0,.232.1.334.334,0,0,0,.259-.122,1,1,0,0,0,.181-.4l.1.025q-.122.674-.635.674a.814.814,0,0,1-.274-.039.519.519,0,0,1-.191-.122.572.572,0,0,1-.149-.264,1.7,1.7,0,0,1-.042-.42v-1.637H700.5v-.1h.469v-.748a1.515,1.515,0,0,0,.44-.068Z" transform="translate(-665.114 -569.394)"/><path class="a" d="M711.928,573.871a1.784,1.784,0,0,1,0,2,1.15,1.15,0,0,1-1.607,0,1.783,1.783,0,0,1,0-2,1.144,1.144,0,0,1,1.607,0Zm-1.268.068a2.611,2.611,0,0,0,0,1.859.51.51,0,0,0,.928,0,2.611,2.611,0,0,0,0-1.859.509.509,0,0,0-.928,0Z" transform="translate(-672.691 -572.295)"/><path class="a" d="M729.078,576.006a.589.589,0,0,1-.149-.428.541.541,0,0,1,.12-.362.9.9,0,0,1,.283-.225,3.566,3.566,0,0,1,.432-.176,2.28,2.28,0,0,0,.406-.171.237.237,0,0,0,.132-.21v-.3a.5.5,0,0,0-.12-.388.49.49,0,0,0-.335-.1.588.588,0,0,0-.484.176.307.307,0,0,1,.164.1.292.292,0,0,1,.066.2.247.247,0,0,1-.078.193.289.289,0,0,1-.2.071.246.246,0,0,1-.205-.086.321.321,0,0,1-.069-.208.328.328,0,0,1,.056-.2.691.691,0,0,1,.169-.156,1.007,1.007,0,0,1,.3-.137,1.387,1.387,0,0,1,.4-.054.821.821,0,0,1,.577.181.551.551,0,0,1,.164.271,1.7,1.7,0,0,1,.042.418v1.358a.34.34,0,0,0,.034.176.128.128,0,0,0,.117.054.231.231,0,0,0,.11-.027.631.631,0,0,0,.11-.076l.054.083a1.212,1.212,0,0,1-.217.139.547.547,0,0,1-.227.042.4.4,0,0,1-.327-.117.5.5,0,0,1-.093-.318.851.851,0,0,1-.337.34.951.951,0,0,1-.43.1A.61.61,0,0,1,729.078,576.006Zm1.224-.413v-.958a.342.342,0,0,1-.122.112c-.052.029-.132.068-.239.117a2.232,2.232,0,0,0-.3.149.658.658,0,0,0-.2.193.544.544,0,0,0-.083.313.463.463,0,0,0,.107.332.374.374,0,0,0,.284.113A.655.655,0,0,0,730.3,575.593Z" transform="translate(-687.75 -572.295)"/><path class="a" d="M746.185,569.28a.9.9,0,0,1,.339-.447.89.89,0,0,1,.491-.139.68.68,0,0,1,.518.186.556.556,0,0,1,.132.244,1.6,1.6,0,0,1,.039.4v1.3a.366.366,0,0,0,.083.276.427.427,0,0,0,.288.076v.1q-.449-.019-.586-.02t-.547.02v-.1a.336.336,0,0,0,.252-.076.408.408,0,0,0,.071-.276v-1.412a.892.892,0,0,0-.078-.417.328.328,0,0,0-.318-.144.584.584,0,0,0-.354.112.751.751,0,0,0-.242.315,1.143,1.143,0,0,0-.088.457v1.09a.408.408,0,0,0,.071.276.337.337,0,0,0,.252.076v.1q-.41-.019-.547-.02t-.586.02v-.1a.429.429,0,0,0,.288-.076.367.367,0,0,0,.083-.276v-2.785a.519.519,0,0,0-.083-.327.352.352,0,0,0-.288-.1v-.1c.1.01.205.015.3.015a1.6,1.6,0,0,0,.508-.068Z" transform="translate(-700.843 -567.447)"/><path class="a" d="M762.131,575.539a.971.971,0,0,1-.33.462.908.908,0,0,1-.584.193,1.111,1.111,0,0,1-.6-.159,1.024,1.024,0,0,1-.388-.445,1.534,1.534,0,0,1-.135-.662,1.829,1.829,0,0,1,.137-.738,1.091,1.091,0,0,1,.386-.481,1.012,1.012,0,0,1,.581-.169.859.859,0,0,1,.677.266,1.188,1.188,0,0,1,.237.809h-1.529a2.959,2.959,0,0,0-.015.313,1.387,1.387,0,0,0,.105.562.9.9,0,0,0,.279.369.6.6,0,0,0,.364.13.769.769,0,0,0,.415-.113.841.841,0,0,0,.3-.376Zm-1.348-1.681a1.309,1.309,0,0,0-.205.664h1.065a1.4,1.4,0,0,0-.11-.635.38.38,0,0,0-.354-.254A.483.483,0,0,0,760.782,573.859Z" transform="translate(-712.563 -572.295)"/><path class="a" d="M772.2,576.006a.589.589,0,0,1-.149-.428.54.54,0,0,1,.12-.362.906.906,0,0,1,.283-.225,3.566,3.566,0,0,1,.432-.176,2.278,2.278,0,0,0,.406-.171.236.236,0,0,0,.132-.21v-.3a.5.5,0,0,0-.12-.388.49.49,0,0,0-.335-.1.588.588,0,0,0-.484.176.308.308,0,0,1,.164.1.294.294,0,0,1,.066.2.247.247,0,0,1-.078.193.288.288,0,0,1-.2.071.247.247,0,0,1-.205-.086.321.321,0,0,1-.068-.208.326.326,0,0,1,.056-.2.693.693,0,0,1,.169-.156,1.006,1.006,0,0,1,.3-.137,1.389,1.389,0,0,1,.4-.054.821.821,0,0,1,.577.181.552.552,0,0,1,.164.271,1.7,1.7,0,0,1,.042.418v1.358a.34.34,0,0,0,.034.176.128.128,0,0,0,.117.054.231.231,0,0,0,.11-.027.631.631,0,0,0,.11-.076l.054.083a1.2,1.2,0,0,1-.218.139.546.546,0,0,1-.227.042.4.4,0,0,1-.328-.117.5.5,0,0,1-.093-.318.85.85,0,0,1-.337.34.952.952,0,0,1-.43.1A.61.61,0,0,1,772.2,576.006Zm1.224-.413v-.958a.339.339,0,0,1-.122.112c-.052.029-.132.068-.239.117a2.215,2.215,0,0,0-.3.149.653.653,0,0,0-.2.193.544.544,0,0,0-.083.313.463.463,0,0,0,.107.332.374.374,0,0,0,.283.113A.655.655,0,0,0,773.429,575.593Z" transform="translate(-722.087 -572.295)"/><path class="a" d="M784.4,570.8a.365.365,0,0,0,.083.276.428.428,0,0,0,.288.076v.1q-.45-.019-.591-.02t-.591.02v-.1a.428.428,0,0,0,.288-.076.367.367,0,0,0,.083-.276v-2.79a.522.522,0,0,0-.083-.328.352.352,0,0,0-.288-.1v-.1c.1.01.2.015.3.015a1.6,1.6,0,0,0,.508-.068Z" transform="translate(-731.267 -567.428)"/><path class="a" d="M790.92,570.713h.723v.1h-.723V572.7a.5.5,0,0,0,.081.318.283.283,0,0,0,.232.1.334.334,0,0,0,.259-.122,1,1,0,0,0,.181-.4l.1.025q-.122.674-.635.674a.815.815,0,0,1-.274-.039.522.522,0,0,1-.191-.122.576.576,0,0,1-.149-.264,1.7,1.7,0,0,1-.042-.42v-1.637h-.469v-.1h.469v-.748a1.513,1.513,0,0,0,.44-.068Z" transform="translate(-736.383 -569.394)"/><path class="a" d="M799.692,569.28a.9.9,0,0,1,.34-.447.891.891,0,0,1,.491-.139.681.681,0,0,1,.518.186.558.558,0,0,1,.132.244,1.6,1.6,0,0,1,.039.4v1.3a.366.366,0,0,0,.083.276.427.427,0,0,0,.288.076v.1q-.45-.019-.586-.02t-.547.02v-.1a.337.337,0,0,0,.252-.076.41.41,0,0,0,.071-.276v-1.412a.894.894,0,0,0-.078-.417.328.328,0,0,0-.318-.144.585.585,0,0,0-.354.112.748.748,0,0,0-.242.315,1.136,1.136,0,0,0-.088.457v1.09a.408.408,0,0,0,.071.276.336.336,0,0,0,.252.076v.1q-.41-.019-.547-.02t-.586.02v-.1a.427.427,0,0,0,.288-.076.366.366,0,0,0,.083-.276v-2.785a.518.518,0,0,0-.083-.327.351.351,0,0,0-.288-.1v-.1c.1.01.205.015.3.015a1.594,1.594,0,0,0,.508-.068Z" transform="translate(-743.445 -567.447)"/><path class="a" d="M814,571.167a.365.365,0,0,0,.083.276.428.428,0,0,0,.288.076v.1q-.45-.019-.591-.02t-.591.02v-.1a.428.428,0,0,0,.288-.076.365.365,0,0,0,.083-.276v-1.53a.519.519,0,0,0-.083-.327.352.352,0,0,0-.288-.1v-.1q.156.014.3.015a1.6,1.6,0,0,0,.508-.068Zm-.034-3.191a.307.307,0,1,1-.22-.093A.3.3,0,0,1,813.97,567.977Z" transform="translate(-754.84 -567.791)"/><path class="a" d="M822.661,575.539a.974.974,0,0,1-.33.462.91.91,0,0,1-.584.193,1.111,1.111,0,0,1-.6-.159,1.025,1.025,0,0,1-.388-.445,1.538,1.538,0,0,1-.135-.662,1.833,1.833,0,0,1,.137-.738,1.093,1.093,0,0,1,.386-.481,1.012,1.012,0,0,1,.581-.169.858.858,0,0,1,.677.266,1.187,1.187,0,0,1,.237.809h-1.529a3,3,0,0,0-.014.313,1.385,1.385,0,0,0,.1.562.9.9,0,0,0,.279.369.6.6,0,0,0,.364.13.768.768,0,0,0,.415-.113.84.84,0,0,0,.3-.376Zm-1.349-1.681a1.311,1.311,0,0,0-.205.664h1.065a1.4,1.4,0,0,0-.11-.635.381.381,0,0,0-.354-.254A.483.483,0,0,0,821.313,573.859Z" transform="translate(-760.757 -572.295)"/><path class="a" d="M834.187,573.654a.354.354,0,0,1,.124.274.328.328,0,0,1-.076.217.251.251,0,0,1-.2.09.262.262,0,0,1-.183-.068.238.238,0,0,1-.076-.186.3.3,0,0,1,.166-.264.117.117,0,0,0-.1-.049.492.492,0,0,0-.347.149,1.037,1.037,0,0,0-.245.364,1.07,1.07,0,0,0-.088.405v1.036a.351.351,0,0,0,.129.313.7.7,0,0,0,.388.088v.1l-.117,0q-.5-.015-.635-.014t-.576.019v-.1a.427.427,0,0,0,.288-.076.367.367,0,0,0,.083-.276v-1.529a.52.52,0,0,0-.083-.327.352.352,0,0,0-.288-.1v-.1c.1.01.2.014.3.014a1.6,1.6,0,0,0,.508-.068v.61a1.157,1.157,0,0,1,.281-.435.6.6,0,0,1,.428-.191A.46.46,0,0,1,834.187,573.654Z" transform="translate(-770.09 -572.295)"/><path class="a" d="M848.405,570.8a.365.365,0,0,0,.083.276.427.427,0,0,0,.288.076v.1q-.449-.019-.591-.02t-.591.02v-.1a.428.428,0,0,0,.288-.076.367.367,0,0,0,.083-.276v-2.79a.522.522,0,0,0-.083-.328.352.352,0,0,0-.288-.1v-.1q.151.015.3.015a1.6,1.6,0,0,0,.508-.068Z" transform="translate(-782.23 -567.428)"/><path class="a" d="M855.429,571.167a.365.365,0,0,0,.083.276.427.427,0,0,0,.288.076v.1q-.449-.019-.591-.02t-.591.02v-.1a.428.428,0,0,0,.288-.076.367.367,0,0,0,.083-.276v-1.53a.521.521,0,0,0-.083-.327.352.352,0,0,0-.288-.1v-.1q.156.014.3.015a1.6,1.6,0,0,0,.508-.068Zm-.034-3.191a.307.307,0,1,1-.22-.093A.3.3,0,0,1,855.395,567.977Z" transform="translate(-787.822 -567.791)"/><path class="a" d="M863.217,567.608a.374.374,0,0,1,.152.3.251.251,0,0,1-.259.259.271.271,0,0,1-.19-.071.247.247,0,0,1-.078-.193.242.242,0,0,1,.056-.166.266.266,0,0,1,.149-.083.132.132,0,0,0-.078-.078.388.388,0,0,0-.161-.03.371.371,0,0,0-.191.049.33.33,0,0,0-.127.132.749.749,0,0,0-.071.288q-.017.191-.017.64v.127h.522v.1H862.4v1.911a.35.35,0,0,0,.129.313.7.7,0,0,0,.389.088v.1l-.117-.005q-.5-.014-.635-.015t-.577.02v-.1a.428.428,0,0,0,.288-.076.366.366,0,0,0,.083-.276v-1.959h-.391v-.1h.391a3.176,3.176,0,0,1,.053-.664.927.927,0,0,1,.2-.4.691.691,0,0,1,.249-.178.826.826,0,0,1,.332-.066A.674.674,0,0,1,863.217,567.608Z" transform="translate(-793.357 -567.466)"/><path class="a" d="M871.638,575.539a.972.972,0,0,1-.33.462.908.908,0,0,1-.584.193,1.111,1.111,0,0,1-.6-.159,1.023,1.023,0,0,1-.388-.445,1.538,1.538,0,0,1-.135-.662,1.833,1.833,0,0,1,.137-.738,1.094,1.094,0,0,1,.386-.481,1.011,1.011,0,0,1,.581-.169.858.858,0,0,1,.677.266,1.187,1.187,0,0,1,.237.809h-1.529a3,3,0,0,0-.015.313,1.385,1.385,0,0,0,.1.562.9.9,0,0,0,.279.369.6.6,0,0,0,.364.13.769.769,0,0,0,.415-.113.842.842,0,0,0,.3-.376Zm-1.349-1.681a1.314,1.314,0,0,0-.2.664h1.065a1.4,1.4,0,0,0-.11-.635.38.38,0,0,0-.354-.254A.484.484,0,0,0,870.289,573.859Z" transform="translate(-799.751 -572.295)"/><path class="a" d="M882.647,583.582a.306.306,0,1,1-.22-.093A.3.3,0,0,1,882.647,583.582Z" transform="translate(-809.714 -580.216)"/><path class="a" d="M888.688,583.582a.306.306,0,1,1-.22-.093A.3.3,0,0,1,888.688,583.582Z" transform="translate(-814.524 -580.216)"/><path class="a" d="M894.729,583.582a.306.306,0,1,1-.22-.093A.3.3,0,0,1,894.729,583.582Z" transform="translate(-819.334 -580.216)"/></g><g transform="translate(63 439.568)"><path class="j" d="M17,35.02c-.142,0-.283-.012-.425-.021l.443.021Zm.647-.008c-.34,0-.6-.014-.881-.038q.408.032.819.037a13.4,13.4,0,0,1-1.375-.092l-.013,0,.011-.01c.395-.018.785.053,1.178.074.233.013.467.012.7.025a.752.752,0,0,1-.114.006h-.325Zm-.035,0h0Zm-1.68-.051c-.054,0-.108-.008-.162-.016h0c.267.017.534.038.8.055C16.35,34.987,16.121,34.974,15.929,34.96Zm2.635.017.007,0c.343-.033.688-.04,1.031-.081l.081-.01-.163.02-.252.028c-.413.041-.607.046-.675.046ZM17.172,34.8c.006-.01.011-.011.039-.017a5.635,5.635,0,0,1,1.023.084,3.653,3.653,0,0,1,.485.055.925.925,0,0,1-.313.031A3.872,3.872,0,0,1,17.172,34.8Zm-3.334-.248v-.011l.015,0a8.837,8.837,0,0,1,1.237.225c.691.137.691.137.7.142a.18.18,0,0,1-.056.006A8.728,8.728,0,0,1,13.839,34.552Zm5.369.337a.031.031,0,0,1,.017-.008c.267-.035.536-.024.8-.052.044,0,.128-.014.223-.029l-.16.025a5.431,5.431,0,0,1-.765.069A.776.776,0,0,1,19.208,34.889Zm-.8-.264c0-.027.047-.038.075-.044a2.347,2.347,0,0,1,.8.114c.234.066.246.084.252.093-.02.026-.1.037-.2.037C19.009,34.825,18.412,34.716,18.409,34.624ZM15.45,34.7c-.458-.1-.725-.215-.709-.266,0-.013.031-.019.052-.022a5.074,5.074,0,0,1,1.178.225c.478.131.5.16.512.174a.2.2,0,0,1-.106.016A5.658,5.658,0,0,1,15.45,34.7Zm4.8.1.036-.006-.037.006Zm-.283-.038c.005-.008.01-.01.038-.016a1.694,1.694,0,0,1,.322-.009c.066,0,.133,0,.2,0a1.173,1.173,0,0,0,.167-.017l-.117.022a2.581,2.581,0,0,1-.435.044C20.035,34.788,19.975,34.776,19.968,34.762Zm-5.509.005c-.359-.063-.691-.132-1.046-.215l1.048.215Zm6.312-.143a.172.172,0,0,1,.091-.046c.132-.022.207.022.2.054,0,.01-.01.017-.025.022l-.094.019a.452.452,0,0,1-.082.008C20.786,34.682,20.752,34.653,20.771,34.624ZM16.3,34.24c0-.042.066-.056.1-.063a2.388,2.388,0,0,1,1.023.236c.088.04.369.173.274.223a.361.361,0,0,1-.153.023C17.161,34.659,16.282,34.429,16.3,34.24Zm3.941.4c-.327-.024-.556-.183-.416-.289a.26.26,0,0,1,.1-.042.6.6,0,0,1,.518.16c.07.083.069.173-.139.173Zm1.206-.118a1.134,1.134,0,0,1,.29-.135c.068-.013.068,0,.056.02a.485.485,0,0,1-.186.1,1.78,1.78,0,0,1-.213.063l-.106.024A.613.613,0,0,0,21.45,34.524Zm1.137-.337.024,0v.006a2.2,2.2,0,0,1-.487.2l-.164.048-.241.063-.044.011C21.991,34.429,22.277,34.274,22.587,34.187Zm-11.312-.355.013-.006a10.851,10.851,0,0,1,1.222.391,7.156,7.156,0,0,1,.725.256h-.012A8.9,8.9,0,0,1,11.275,33.832Zm9.878.515c-.032-.105.057-.286.308-.351.225-.039.291.084.208.22a.511.511,0,0,1-.375.231A.135.135,0,0,1,21.152,34.347Zm-2.172.06c-.444-.006-1.006-.321-.788-.507a.3.3,0,0,1,.137-.057,1.018,1.018,0,0,1,.8.266c.148.149.148.3-.136.3Zm-5.265-.024q-.325-.1-.646-.22l.192.069c-.169-.055-.3-.1-.441-.163q-.343-.133-.68-.284c-.019-.038,0-.047.049-.056a4.832,4.832,0,0,1,1.253.372c.188.079.615.264.513.3a.162.162,0,0,1-.047.005A1.362,1.362,0,0,1,13.715,34.384ZM23.292,34l.01,0a2.272,2.272,0,0,1-.257.107c-.139.046-.322.106-.461.15C22.822,34.174,23.053,34.074,23.292,34Zm-9.424-.43c.02-.037.066-.046.114-.056a2.454,2.454,0,0,1,1.177.364c.222.13.427.3.269.344a.469.469,0,0,1-.13.015C14.812,34.235,13.756,33.77,13.868,33.568Zm8.373.646a1.54,1.54,0,0,1,.736-.563c.159-.031.121.052.1.09a.772.772,0,0,1-.213.2,1.889,1.889,0,0,1-.6.291C22.249,34.229,22.241,34.224,22.241,34.214Zm-2.021-.252c-.182-.176-.13-.445.211-.531.352-.057.522.148.531.311a.365.365,0,0,1-.4.356A.488.488,0,0,1,20.221,33.962Zm4.135-.659c.031-.006.037-.007.051,0,.02.043-.194.2-.5.366a4.352,4.352,0,0,1-.775.345A7.672,7.672,0,0,1,24.356,33.3Zm-8.271-.084a.324.324,0,0,1,.163-.07,1.369,1.369,0,0,1,1.022.375c.2.2.219.41-.124.414h-.01C16.607,33.939,15.817,33.465,16.084,33.218ZM25.4,33l.015,0,0,.007a4.174,4.174,0,0,1-.743.432c-.393.2-.776.352-.87.384C23.809,33.817,25.26,33.052,25.4,33Zm-3.364.633c-.057-.19.154-.563.55-.671.309-.056.368.145.23.368a.923.923,0,0,1-.618.419A.154.154,0,0,1,22.032,33.635ZM9.751,32.828c0-.02.027-.024.05-.027a4.771,4.771,0,0,1,1.245.514c.107.059.632.357.518.4a.161.161,0,0,1-.053.007C11.143,33.72,9.72,33.015,9.751,32.828Zm.893.814-.064-.027c-.456-.216-1.068-.5-1.513-.736-.144-.08-.17-.1-.189-.11v0c.393.151.75.374,1.127.559.247.121.5.232.744.358A.414.414,0,0,1,10.643,33.642Zm8.177-.195c-.425-.223-.458-.644-.059-.762l.057-.014a.723.723,0,0,1,.805.4c.1.282-.114.475-.411.475A.847.847,0,0,1,18.82,33.448ZM11.2,32.623a.2.2,0,0,1,.1-.04,2.516,2.516,0,0,1,1.257.5c.28.2.479.426.252.455a.532.532,0,0,1-.068,0C12.195,33.538,10.986,32.841,11.2,32.623Zm14.851.141a7.31,7.31,0,0,1-.645.357l-.522.255c-.107.048-.248.113-.355.159C25.052,33.3,25.542,33.01,26.055,32.764Zm-2.348.57a1.714,1.714,0,0,1,.942-.865c.271-.054.136.165.107.21a1.376,1.376,0,0,1-.2.225,1.89,1.89,0,0,1-.791.475C23.728,33.38,23.707,33.366,23.707,33.335Zm-8.908-.1c-.654-.011-1.506-.653-1.232-.928a.336.336,0,0,1,.179-.079,1.617,1.617,0,0,1,1.178.489c.244.257.268.518-.109.518Zm6.279-.328c-.174-.263-.012-.679.451-.8.407-.07.6.174.542.449a.7.7,0,0,1-.643.54A.405.405,0,0,1,21.078,32.911Zm3.975.118a4.712,4.712,0,0,1,1.306-1.02c.033-.007.11-.024.052.072a1.9,1.9,0,0,1-.473.441,3.371,3.371,0,0,1-.872.51A.024.024,0,0,1,25.053,33.029Zm-8.1-.275c-.607-.2-.879-.74-.485-.964a.682.682,0,0,1,.178-.063,1.029,1.029,0,0,1,1.027.5c.152.309-.022.583-.4.583A1.042,1.042,0,0,1,16.953,32.754Zm10.6-1.124a.05.05,0,0,1,.024,0,3.091,3.091,0,0,1-.709.584,6.718,6.718,0,0,1-.893.538A16.927,16.927,0,0,1,27.556,31.63ZM7.31,31.541c0-.021.015-.024.031-.026a4.951,4.951,0,0,1,1.153.667c.206.148.552.407.554.484a.042.042,0,0,1-.028.008A5.018,5.018,0,0,1,7.31,31.541Zm16.142.917c-.075-.257.252-.813.765-.96.388-.074.431.2.25.5a1.233,1.233,0,0,1-.823.593A.181.181,0,0,1,23.451,32.458Zm-13.685-.01q-.625-.429-1.214-.924c-.035-.125.03-.148.106-.161A2.538,2.538,0,0,1,9.917,32c.289.248.495.525.262.548H10.15A1.274,1.274,0,0,1,9.766,32.448Zm17.142-.192c-.124.083-.25.165-.378.243Zm-14.656.023c-.69-.037-1.6-.822-1.316-1.135a.313.313,0,0,1,.184-.085,1.742,1.742,0,0,1,1.26.608c.261.3.3.612-.086.612Zm7.25-.186a.56.56,0,0,1,.311-.986.643.643,0,0,1,.817.529.621.621,0,0,1-.656.638A.7.7,0,0,1,19.5,32.092Zm8.7-.744a1,1,0,0,1-.107.087l-.75.541-.435.279C27.345,31.963,27.765,31.645,28.2,31.348Zm-2.611.673a1.955,1.955,0,0,1,1.064-1.141c.332-.07.117.293.091.335a1.784,1.784,0,0,1-.185.243,1.949,1.949,0,0,1-.893.633A.069.069,0,0,1,25.588,32.021ZM14.694,31.79c-.72-.215-1.114-.9-.67-1.163a.627.627,0,0,1,.191-.068,1.25,1.25,0,0,1,1.179.6c.208.386,0,.675-.4.675A1.07,1.07,0,0,1,14.694,31.79Zm7.716-.318a.817.817,0,0,1,.641-1.07c.477-.086.661.223.563.571a1,1,0,0,1-.842.706A.4.4,0,0,1,22.409,31.472Zm4.759.161a4.386,4.386,0,0,1,1.317-1.284c.1-.023.1.036.013.175a3.062,3.062,0,0,1-.416.475,3,3,0,0,1-.891.653C27.177,31.652,27.169,31.646,27.169,31.633ZM6.288,29.984a.111.111,0,0,1,.083-.039,2.534,2.534,0,0,1,1.183.763c.291.3.478.614.272.628H7.809C7.348,31.336,6.117,30.25,6.288,29.984Zm23.354-.053.013,0a3.351,3.351,0,0,1-.667.72,5.817,5.817,0,0,1-.835.662A15.84,15.84,0,0,1,29.642,29.931ZM5.149,29.917l.01-.008a9.943,9.943,0,0,1,.988.82,5.229,5.229,0,0,1,.578.566l-.008.006A9,9,0,0,1,5.149,29.917Zm12.46,1.207c-.573-.338-.557-1.022.028-1.2.023-.007.055-.013.078-.019a.883.883,0,0,1,1.031.616.625.625,0,0,1-.659.74A.94.94,0,0,1,17.609,31.123ZM9.5,31.069C8.781,30.993,7.836,30,8.2,29.7a.32.32,0,0,1,.145-.055,1.809,1.809,0,0,1,1.263.732c.3.395.279.692-.046.692A.621.621,0,0,1,9.5,31.069Zm15.742-.215a1.317,1.317,0,0,1,.914-1.2c.472-.095.437.31.261.627a1.436,1.436,0,0,1-.953.749A.21.21,0,0,1,25.244,30.853Zm-13.161-.228c-.776-.215-1.294-1.066-.826-1.358a.591.591,0,0,1,.2-.069,1.4,1.4,0,0,1,1.262.709c.236.434.053.758-.359.758A1.024,1.024,0,0,1,12.083,30.625Zm8.781-.276a.779.779,0,0,1,.536-1.207.631.631,0,0,1,.826.643.875.875,0,0,1-.854.8A.646.646,0,0,1,20.864,30.349Zm6.767,0a2.158,2.158,0,0,1,1.089-1.378c.307-.067.181.293.02.551-.029.047-.07.107-.1.151-.294.4-.729.768-.917.768C27.67,30.436,27.637,30.408,27.631,30.345Zm-12.445-.387c-.713-.361-.8-1.188-.141-1.382.024-.008.058-.015.083-.02a1.09,1.09,0,0,1,1.185.7.617.617,0,0,1-.645.82A1.071,1.071,0,0,1,15.186,29.958Zm14.08-.042A4.483,4.483,0,0,1,30.506,28.4c.153-.038.012.217-.056.329a3.849,3.849,0,0,1-.321.443,2.762,2.762,0,0,1-.837.771C29.276,29.941,29.267,29.933,29.266,29.915Zm-5-.275a1.052,1.052,0,0,1,.774-1.333c.581-.11.688.333.578.683a1.238,1.238,0,0,1-1,.849A.4.4,0,0,1,24.27,29.641Zm-18.821.125c-.339,0-1.546-1.4-1.375-1.588a.079.079,0,0,1,.043-.015c.251.039.755.577,1.014.907.272.346.469.7.318.7Zm1.4-.188a1.217,1.217,0,0,1-.415-.186q-.459-.552-.878-1.151c-.008-.176.043-.248.2-.276.445-.006.962.525,1.183.861.285.432.274.759-.007.759A.455.455,0,0,1,6.851,29.578Zm24.609-1.6.008,0a5.716,5.716,0,0,1-.627.839,8.646,8.646,0,0,1-.7.761C30.148,29.484,31.447,27.987,31.46,27.977Zm-27.252.981-.013-.016.4.446C4.541,29.337,4.413,29.2,4.208,28.958Zm14.538.192a.78.78,0,0,1,.385-1.384.815.815,0,1,1,.183,1.594A.871.871,0,0,1,18.746,29.15Zm-9.4.043c-.807-.275-1.322-1.307-.776-1.556A.747.747,0,0,1,8.7,27.6a1.466,1.466,0,0,1,1.262.821c.242.481.078.829-.319.829A.943.943,0,0,1,9.342,29.193Zm18.048-.276a1.536,1.536,0,0,1,.94-1.444c.465-.1.423.379.243.748-.23.473-.686.872-.966.873A.215.215,0,0,1,27.39,28.917ZM4.1,28.838l-.075-.093.168.2Zm-.513-.633.437.54C3.864,28.552,3.711,28.363,3.589,28.206Zm9,.38c-.767-.352-.979-1.271-.356-1.537A1.123,1.123,0,0,1,12.4,27a1.221,1.221,0,0,1,1.261.8.626.626,0,0,1-.606.895A1.118,1.118,0,0,1,12.589,28.585Zm9.98-.255a.955.955,0,0,1,.643-1.454.655.655,0,0,1,.847.741,1.073,1.073,0,0,1-1,.933A.633.633,0,0,1,22.57,28.331Zm7.195.04a2.413,2.413,0,0,1,1.023-1.615c.288-.066.183.374-.08.819s-.674.875-.856.875A.086.086,0,0,1,29.764,28.37Zm-13.433-.592a.84.84,0,0,1,.241-1.559,1.015,1.015,0,0,1,1.191.794.814.814,0,0,1-.841.955A1.045,1.045,0,0,1,16.331,27.778Zm14.913.16a4.782,4.782,0,0,1,1.08-1.746c.139-.038-.072.389-.2.622-.043.075-.109.185-.16.266-.262.414-.612.859-.71.859ZM4.7,27.909c-.594-.166-1.416-1.533-1.059-1.762a.241.241,0,0,1,.08-.024c.365.017.828.583,1.041.98.252.473.255.819.023.819A.319.319,0,0,1,4.7,27.909Zm-2.4-1.82h.012A4.925,4.925,0,0,1,3.1,27.134c.07.114.416.683.37.754h0A5.019,5.019,0,0,1,2.3,26.089Zm23.977,1.365a1.237,1.237,0,0,1,.842-1.519c.591-.117.7.388.582.785a1.282,1.282,0,0,1-1.038.965A.417.417,0,0,1,26.278,27.454Zm-19.584.1c-.794-.275-1.345-1.482-.8-1.746a.614.614,0,0,1,.126-.036c.521-.027,1,.531,1.179.935h0c.222.511.079.888-.281.888A.7.7,0,0,1,6.694,27.552Zm25.266-.211c.263-.392.58-.936.825-1.34-.189.339-.517.886-.824,1.34Zm-11.538-.467a.938.938,0,0,1,.541-1.566.836.836,0,0,1,1.057.8,1.019,1.019,0,0,1-1.011,1A.829.829,0,0,1,20.422,26.874Zm-10.665.1c-.81-.43-.989-1.5-.285-1.7.025-.007.059-.013.084-.019a1.28,1.28,0,0,1,1.258.9h0c.178.556-.117.955-.575.955A1.033,1.033,0,0,1,9.757,26.976Zm19.7-.245a1.671,1.671,0,0,1,.863-1.661c.437-.094.406.441.245.852-.2.52-.63.968-.9.968A.215.215,0,0,1,29.456,26.731ZM13.541,26.2a.9.9,0,0,1,.195-1.673A1.133,1.133,0,0,1,15,25.4a.816.816,0,0,1-.823,1.014A1.088,1.088,0,0,1,13.541,26.2Zm18.131-.024a2.643,2.643,0,0,1,.864-1.814c.243-.059.156.431-.063.919-.239.533-.573.952-.729.952A.075.075,0,0,1,31.672,26.172Zm-7.093-.234a1.11,1.11,0,0,1,.721-1.624.694.694,0,0,1,.872.824,1.2,1.2,0,0,1-1.083,1.045A.626.626,0,0,1,24.579,25.938ZM2.691,25.878c-.444-.22-1.138-1.843-.835-1.951a.153.153,0,0,1,.031,0c.262.043.627.672.8,1.106.206.508.231.87.075.87A.169.169,0,0,1,2.691,25.878ZM33.7,23.834l.011,0a4.233,4.233,0,0,1-.349.988,4.054,4.054,0,0,1-.519.926A8.079,8.079,0,0,1,33.7,23.834ZM1.868,25.472l.117.243C1.963,25.673,1.922,25.587,1.868,25.472Zm2.435.146a1.431,1.431,0,0,1-.451-.39q-.216-.484-.409-.986c-.027-.5.221-.545.3-.56.46,0,.877.614,1.026,1.053.186.547.062.94-.245.94A.525.525,0,0,1,4.3,25.618Zm13.587-.266a.97.97,0,0,1,.393-1.727,1,1,0,0,1,1.2.866A.983.983,0,0,1,18.5,25.56,1,1,0,0,1,17.889,25.351ZM1.251,24.145,1.1,23.753c.061.149.3.681.515,1.163.1.211.187.408.257.557C1.661,25.045,1.419,24.546,1.251,24.145Zm5.965,1.027c-.8-.429-1.009-1.677-.312-1.881.023-.007.056-.012.079-.017a1.277,1.277,0,0,1,1.179,1c.157.584-.117,1.008-.545,1.008A.851.851,0,0,1,7.216,25.172Zm21.231-.132a1.376,1.376,0,0,1,.751-1.72c.554-.114.664.445.565.879-.14.616-.595,1.054-.958,1.054A.407.407,0,0,1,28.448,25.04Zm-17.539-.582c-.723-.487-.776-1.632.114-1.843a1.182,1.182,0,0,1,1.258.963.83.83,0,0,1-.785,1.072A1.054,1.054,0,0,1,10.909,24.458Zm11.392-.13a1.065,1.065,0,0,1,.613-1.715A.864.864,0,0,1,24,23.486,1.119,1.119,0,0,1,22.923,24.6.837.837,0,0,1,22.3,24.329Zm9.111-.015a1.842,1.842,0,0,1,.694-1.845c.382-.086.375.5.249.942-.168.59-.525,1.03-.766,1.03A.2.2,0,0,1,31.412,24.313Zm-16.189-.724a1.024,1.024,0,0,1,.352-1.828,1.1,1.1,0,0,1,1.273.939.969.969,0,0,1-.96,1.128A1.073,1.073,0,0,1,15.222,23.589Zm18.066.186a3.3,3.3,0,0,1,.628-1.973c.176-.048.114.485-.047,1.006-.171.559-.416,1-.534,1C33.317,23.813,33.3,23.8,33.289,23.776ZM2.457,23.514c-.536-.453-.875-1.931-.342-2.028.31.016.555.457.673.719q.088.335.186.663c.057.513-.072.759-.266.759A.408.408,0,0,1,2.457,23.514Zm-1.26.079a4.273,4.273,0,0,1-.617-2.13.059.059,0,0,1,.015,0,3.474,3.474,0,0,1,.513,1.229c.146.534.191.912.113.912A.044.044,0,0,1,1.2,23.592Zm25.5-.229a1.21,1.21,0,0,1,.645-1.818c.672-.132.915.446.874.9a1.194,1.194,0,0,1-1.046,1.128A.632.632,0,0,1,26.7,23.364Zm7.856-1.979c-.074.321-.421,1.539-.571,1.967C34.175,22.768,34.393,21.978,34.552,21.384ZM4.717,23.112c-.674-.47-.882-1.861-.128-2.019.544-.025.919.632,1.011,1.107.119.615-.13,1.048-.5,1.048A.674.674,0,0,1,4.717,23.112Zm15.167-.479a1.082,1.082,0,0,1,.464-1.868,1.008,1.008,0,0,1,1.221.93,1.089,1.089,0,0,1-1.071,1.16A.958.958,0,0,1,19.884,22.633ZM8.225,22.551c-.744-.5-.821-1.8.08-2A1.173,1.173,0,0,1,9.471,21.6a.862.862,0,0,1-.753,1.109A.891.891,0,0,1,8.225,22.551Zm22.164-.1a1.473,1.473,0,0,1,.563-1.887c.5-.106.631.495.566.955-.09.643-.481,1.111-.816,1.111A.379.379,0,0,1,30.389,22.452Zm-17.973-.7a1.1,1.1,0,0,1,.269-1.981,1.142,1.142,0,0,1,1.258,1.017.979.979,0,0,1-.937,1.161A1.013,1.013,0,0,1,12.416,21.756Zm20.615.035a2.047,2.047,0,0,1,.416-2.029c.31-.075.343.548.268,1.015-.1.61-.361,1.079-.565,1.079A.151.151,0,0,1,33.03,21.791Zm-8.505-.208a1.162,1.162,0,0,1,.53-1.9.911.911,0,0,1,1.111.932,1.154,1.154,0,0,1-1.078,1.19A.821.821,0,0,1,24.525,21.583Zm10.222-2.412.014-.005c.092.048.027.689-.035,1.082a2.784,2.784,0,0,1-.294,1.036A5.1,5.1,0,0,1,34.747,19.171Zm-33.713,2c-.36-.33-.639-2.1-.212-2.163.255.045.448.738.5,1.216.067.581-.021,1-.184,1A.162.162,0,0,1,1.034,21.176Zm-.73-.16C.2,20.378.066,19.525,0,18.88c0-.032,0-.032,0-.042.029.1.155,1.006.193,1.28.073.523.113.834.119.925Zm16.712-.237a1.117,1.117,0,0,1,.419-1.947,1.105,1.105,0,0,1,1.286.991,1.063,1.063,0,0,1-1.039,1.2A1.038,1.038,0,0,1,17.016,20.78Zm-14.26.083a1.353,1.353,0,0,1-.377-.61q-.055-.342-.1-.683c.019-.333.116-.744.462-.81.478,0,.721.7.762,1.15.057.622-.169,1.063-.477,1.063A.443.443,0,0,1,2.756,20.863Zm26.078-.288a1.294,1.294,0,0,1,.427-1.969c.6-.122.862.494.854.972-.011.679-.437,1.179-.864,1.179A.591.591,0,0,1,28.835,20.575ZM5.8,20.374c-.627-.528-.61-1.849.2-2.027.641-.05.943.642.983,1.089.058.663-.293,1.127-.719,1.127A.729.729,0,0,1,5.8,20.374Zm16.026-.63a1.153,1.153,0,0,1,.439-1.968,1.055,1.055,0,0,1,1.251.977,1.1,1.1,0,0,1-1.053,1.233A.976.976,0,0,1,21.825,19.744Zm-12.1-.068a1.144,1.144,0,0,1,.337-1.992A1.078,1.078,0,0,1,11.2,18.721a.993.993,0,0,1-.9,1.179A.914.914,0,0,1,9.722,19.675Zm22.417.078c-.418-.407-.34-1.817.241-2.066.416-.093.584.542.57,1.022-.019.651-.3,1.143-.593,1.143A.311.311,0,0,1,32.139,19.753Zm2.069-.649c-.245-.286-.231-1.915.1-2.133.216-.056.3.6.283,1.079-.015.618-.158,1.1-.305,1.1A.1.1,0,0,1,34.209,19.1Zm-20.021-.335a1.123,1.123,0,0,1,.435-1.944,1.1,1.1,0,0,1,1.252,1,1.06,1.06,0,0,1-1.02,1.211A1,1,0,0,1,14.188,18.769Zm12.279-.13a1.209,1.209,0,0,1,.4-1.977.982.982,0,0,1,1.116.984,1.064,1.064,0,0,1-.947,1.23A.825.825,0,0,1,26.467,18.639ZM1.435,18.463c-.325-.58-.215-1.862.272-1.948.117.006.29.066.424.517,0,.358.006.718.024,1.078-.1.4-.261.586-.422.586C1.626,18.7,1.52,18.614,1.435,18.463Zm-1.237.2a3.92,3.92,0,0,1,0-2.17.079.079,0,0,1,.017,0c.135.072.176.792.169,1.229-.008.558-.078.953-.165.953A.038.038,0,0,1,.2,18.668Zm34.757-2.139c.01.5.038,1.157.017,1.65l-.026.5C34.959,18.323,34.961,16.868,34.956,16.529ZM3.772,18.106c-.483-.539-.342-1.832.366-1.978.516-.025.739.628.733,1.1-.008.635-.348,1.077-.706,1.077A.529.529,0,0,1,3.772,18.106ZM19,17.781a1.12,1.12,0,0,1,.407-1.955,1.105,1.105,0,0,1,1.3.966,1.075,1.075,0,0,1-1.041,1.238A1.022,1.022,0,0,1,19,17.781Zm11.474-.059c-.538-.458-.554-1.818.121-2.077.522-.109.819.533.864,1.023.061.681-.261,1.194-.643,1.194A.529.529,0,0,1,30.47,17.721Zm-23.2-.185A1.2,1.2,0,0,1,7.723,15.6c.644-.064.947.57.956,1.039a1.019,1.019,0,0,1-.887,1.13A.736.736,0,0,1,7.269,17.537Zm25.989-.577c-.419-.363-.574-1.9-.107-2.147.327-.076.547.58.6,1.07.067.649-.1,1.146-.333,1.146A.246.246,0,0,1,33.258,16.96ZM11.512,16.8a1.134,1.134,0,0,1,.428-1.949,1.011,1.011,0,0,1,1.13.986,1.055,1.055,0,0,1-.992,1.168A.9.9,0,0,1,11.512,16.8Zm12.35-.044a1.131,1.131,0,0,1,.25-2.018,1.093,1.093,0,0,1,1.277.947h0a1.044,1.044,0,0,1-.975,1.251A.964.964,0,0,1,23.863,16.759Zm11.093-.264c0,.01,0,.021,0,.034Zm-.212-.08a4.827,4.827,0,0,1-.28-2.209c.1-.033.247.558.318,1.125.075.6.064,1.089-.021,1.089A.031.031,0,0,1,34.743,16.414Zm-33.976-.2C.5,15.9.693,14.205,1.129,14.136c.233.041.241.7.172,1.16-.085.564-.28.968-.443.968A.12.12,0,0,1,.767,16.214Zm-.73-.486L.062,15.5l.167-1.114a1.991,1.991,0,0,1,.093-.4h0C.351,14.1.19,15.191.188,15.2a7.788,7.788,0,0,1-.167.9C.013,16.093,0,16.072.036,15.728Zm16.041.1a1.057,1.057,0,1,1,1.682-.944,1.044,1.044,0,0,1-1.018,1.2A1.015,1.015,0,0,1,16.077,15.832Zm-13.608.022c-.37-.487-.109-1.848.51-1.967.414,0,.514.64.451,1.1-.082.606-.4,1.026-.685,1.026A.346.346,0,0,1,2.469,15.854ZM28.3,15.715c-.683-.45-.794-1.772.006-2.05.608-.123,1.008.49,1.1.965h0c.131.693-.222,1.221-.687,1.221A.755.755,0,0,1,28.3,15.715Zm-22.884-.35a1.287,1.287,0,0,1,.6-1.868c.558-.045.757.577.719,1.031-.053.639-.468,1.08-.863,1.08A.564.564,0,0,1,5.418,15.365Zm15.5-.5a1.06,1.06,0,0,1,.227-1.937,1.124,1.124,0,0,1,1.309.907.992.992,0,0,1-.962,1.206A1.049,1.049,0,0,1,20.921,14.865ZM9.239,14.753a1.16,1.16,0,0,1,.538-1.875.883.883,0,0,1,.947.971,1.069,1.069,0,0,1-.965,1.118A.748.748,0,0,1,9.239,14.753Zm22.472.1c-.577-.337-.9-1.845-.3-2.105.423-.094.762.528.869,1,.148.658-.035,1.169-.359,1.169A.416.416,0,0,1,31.711,14.854Zm2.123-.683c-.352-.194-.864-1.893-.52-2.135.223-.058.495.575.616,1.043.159.619.137,1.11-.034,1.111A.129.129,0,0,1,33.834,14.171Zm-20.328-.284A1.079,1.079,0,0,1,14,12.08.978.978,0,0,1,15.127,13a1.038,1.038,0,0,1-1.006,1.136A.9.9,0,0,1,13.506,13.887Zm12-.117c-.709-.459-.8-1.64.052-1.912a1.142,1.142,0,0,1,1.262.895.879.879,0,0,1-.784,1.185A.972.972,0,0,1,25.509,13.77ZM1.829,13.544c-.11-.57.3-1.68.733-1.758.125.006.186.075.234.266q-.193.715-.331,1.453c-.157.23-.295.325-.4.325S1.863,13.72,1.829,13.544ZM.594,13.8c-.1-.213.338-1.987.607-2.016.112.062-.034.734-.155,1.142-.155.531-.332.9-.419.9C.614,13.823.6,13.815.594,13.8Zm33.348-2.232.01.02c.2.626.459,1.463.608,2.1l0,.019C34.5,13.548,33.944,11.576,33.942,11.564ZM4.05,13.27a1.439,1.439,0,0,1,.724-1.838c.477-.023.517.612.43,1.018-.128.6-.514,1.012-.835,1.012A.372.372,0,0,1,4.05,13.27ZM18.16,13a1.017,1.017,0,0,1,.25-1.846,1.085,1.085,0,0,1,1.258.869.965.965,0,0,1-.956,1.145A1.008,1.008,0,0,1,18.16,13ZM7.284,12.741a1.236,1.236,0,0,1,.681-1.784c.567-.057.75.524.7.953a1.116,1.116,0,0,1-.946,1.045A.544.544,0,0,1,7.284,12.741Zm22.19.1c-.68-.365-1.033-1.7-.352-1.961.508-.108.941.469,1.087.913.208.636-.018,1.135-.423,1.135A.664.664,0,0,1,29.474,12.845ZM11.113,12a1.1,1.1,0,0,1,.593-1.712.835.835,0,0,1,.935.892,1.042,1.042,0,0,1-.97,1.073A.741.741,0,0,1,11.113,12ZM22.7,11.966a.987.987,0,0,1,.04-1.813,1.184,1.184,0,0,1,1.327.831.854.854,0,0,1-.821,1.14A1.061,1.061,0,0,1,22.7,11.966Zm9.524.107c-.526-.248-1.133-1.739-.667-1.984.321-.076.7.506.874.943.229.591.177,1.074-.081,1.074A.3.3,0,0,1,32.228,12.073Zm-30.46-.561c-.157-.283.455-1.825.865-1.891.195.037.007.663-.157,1.049-.222.522-.493.888-.637.888A.078.078,0,0,1,1.768,11.512Zm31.89-.014c-.2-.089-1.021-1.769-.859-1.989.12-.039.438.552.625.985.238.551.351,1.009.253,1.009A.048.048,0,0,1,33.658,11.5Zm-31.73-2h.006a9.94,9.94,0,0,1-.442,1.1,6.134,6.134,0,0,1-.412.829A8.356,8.356,0,0,1,1.928,9.5Zm13.5,1.734a.953.953,0,1,1,1.452-.909.941.941,0,0,1-.925,1.079A.916.916,0,0,1,15.424,11.23ZM3.348,11.181a1.75,1.75,0,0,1,.9-1.78c.356,0,.263.606.121.988-.206.553-.568.937-.814.937A.217.217,0,0,1,3.348,11.181ZM27,11.011c-.8-.338-1.117-1.547-.482-1.822.02-.009.05-.017.071-.025.566-.116,1.06.416,1.23.83.249.607-.008,1.092-.477,1.092A.876.876,0,0,1,27,11.011ZM5.969,10.745a1.406,1.406,0,0,1,.844-1.675c.487-.038.511.547.413.925-.15.574-.581.973-.917.973A.371.371,0,0,1,5.969,10.745Zm13.8-.457a.917.917,0,0,1,.075-1.7,1.135,1.135,0,0,1,1.267.784.813.813,0,0,1-.8,1.073A1.058,1.058,0,0,1,19.77,10.287ZM9.318,10.206a1.142,1.142,0,0,1,.673-1.661c.55-.065.733.464.687.859a1.08,1.08,0,0,1-.937,1A.547.547,0,0,1,9.318,10.206Zm20.892-.033c-.676-.216-1.3-1.566-.85-1.827.013-.008.033-.015.047-.021.4-.089.866.441,1.072.845.286.559.21,1.028-.125,1.028A.475.475,0,0,1,30.21,10.174ZM13.115,9.5a.966.966,0,0,1,.435-1.629.813.813,0,0,1,.93.8.943.943,0,0,1-.9,1A.727.727,0,0,1,13.115,9.5Zm19.069.008C31.86,9.45,30.8,7.915,31.124,7.675c.212-.056.634.476.866.873.3.519.4.962.219.962Zm-8.06-.141c-.814-.289-1.154-1.334-.543-1.67a.925.925,0,0,1,.146-.057,1.28,1.28,0,0,1,1.3.753c.26.564-.045,1.036-.563,1.036A1.025,1.025,0,0,1,24.125,9.367ZM3.377,9.15a2.4,2.4,0,0,1,1.085-1.6c.062,0,.113.019.114.171q-.392.684-.725,1.409c-.157.156-.273.219-.351.219S3.374,9.268,3.377,9.15Zm-1.124.171a4.191,4.191,0,0,1,1.1-1.774c.1.065-.456.986-.461,1h0c-.3.487-.542.8-.619.8C2.264,9.346,2.256,9.338,2.253,9.321ZM31.659,7.248c.01.006.011.006.053.064.266.4.635.935.879,1.354h0l.185.326a.577.577,0,0,1,.032.063C32.744,9.014,31.665,7.263,31.659,7.248ZM5.263,8.856a1.738,1.738,0,0,1,1.009-1.6c.365-.017.254.535.1.886-.244.55-.64.88-.893.88A.214.214,0,0,1,5.263,8.856Zm11.856-.185a.86.86,0,0,1,.147-1.581,1.009,1.009,0,0,1,1.133.736.786.786,0,0,1-.784.992A.93.93,0,0,1,17.119,8.671ZM2.532,8.364c.072-.116.17-.273.283-.447l-.5.81C2.407,8.569,2.491,8.432,2.532,8.364Zm5.446.045A1.3,1.3,0,0,1,8.82,6.873c.467-.046.49.48.394.822A1.176,1.176,0,0,1,8.3,8.6.347.347,0,0,1,7.978,8.409ZM27.71,8.49c-.73-.167-1.411-1.327-.972-1.656a.458.458,0,0,1,.1-.05c.456-.1.982.381,1.211.752.322.523.215.972-.19.972A.678.678,0,0,1,27.71,8.49ZM11.22,7.844a1,1,0,0,1,.583-1.5c.509-.066.7.4.675.756a.967.967,0,0,1-.865.915A.531.531,0,0,1,11.22,7.844Zm-8.4.058.023-.034-.032.049Zm18.435-.062c-.77-.259-1.08-1.239-.489-1.542a.981.981,0,0,1,.144-.053,1.245,1.245,0,0,1,1.28.683.641.641,0,0,1-.6.97A1.053,1.053,0,0,1,21.259,7.841ZM3.012,7.622l-.165.247C2.9,7.788,2.955,7.706,3.012,7.622Zm27.153.135c-.527-.036-1.557-1.41-1.239-1.652a.253.253,0,0,1,.032-.017c.292-.07.8.4,1.064.764.356.483.43.905.162.905ZM3.931,7.313a3.384,3.384,0,0,1,1.294-1.6c.172.038-.46.87-.467.879-.349.456-.669.762-.784.763A.041.041,0,0,1,3.931,7.313Zm10.826-.164a.789.789,0,1,1,1.193-.76.757.757,0,0,1-1.193.76ZM3.335,7.242a8.4,8.4,0,0,1,1.34-1.617,5.771,5.771,0,0,1-.709.912,5.773,5.773,0,0,1-.624.714ZM30.014,5.584c.1-.033.527.384.861.791.367.446.591.831.49.838h0A4.6,4.6,0,0,1,30.014,5.584ZM5.285,7.066c-.1-.357.752-1.447,1.2-1.536.278,0-.058.6-.211.829-.33.5-.7.789-.88.789A.1.1,0,0,1,5.285,7.066Zm19.726-.095c-.776-.137-1.467-1.195-.986-1.509a.508.508,0,0,1,.109-.049,1.459,1.459,0,0,1,1.273.662c.34.486.2.909-.247.909A.857.857,0,0,1,25.011,6.972ZM7.4,6.718c-.143-.4.506-1.328,1.006-1.439.348-.026.239.458.087.769-.245.5-.642.81-.89.81A.2.2,0,0,1,7.4,6.718Zm11.125-.285c-.688-.241-.927-1.135-.377-1.406a.942.942,0,0,1,.132-.047,1.1,1.1,0,0,1,1.138.628.6.6,0,0,1-.571.882A.97.97,0,0,1,18.525,6.433Zm-8.5-.19c-.242-.393.218-1.23.745-1.357.4-.046.469.384.389.7a1.007,1.007,0,0,1-.831.817A.339.339,0,0,1,10.025,6.243ZM27.79,6.209C27.2,6.2,26.135,5.056,26.428,4.752A.238.238,0,0,1,26.5,4.71c.347-.078.907.338,1.193.658.395.443.446.841.108.841ZM13.007,5.686a.823.823,0,0,1,.4-1.3.613.613,0,0,1,.677.635.77.77,0,0,1-.716.809A.534.534,0,0,1,13.007,5.686Zm9.164-.053c-.8-.116-1.349-1.016-.967-1.328a.471.471,0,0,1,.157-.076,1.439,1.439,0,0,1,1.257.58c.327.436.159.834-.31.834A.947.947,0,0,1,22.172,5.633Zm5.736-1.454a.089.089,0,0,1,.017-.013c.173-.045.68.312,1.05.67.413.4.621.753.454.772h-.015C29.068,5.608,27.76,4.374,27.907,4.179ZM5.024,5.483A5.634,5.634,0,0,1,6.557,4.039c0,.019.012.066-.741.79a3.454,3.454,0,0,1-.782.657A.016.016,0,0,1,5.024,5.483ZM5.918,5.4A3.419,3.419,0,0,1,7.326,4.035c.036,0,.049.013.034.066q-.178.174-.351.355c-.072.084-.149.169-.228.251l-.11.113.1-.111q-.3.331-.591.68a.469.469,0,0,1-.213.095C5.911,5.484,5.912,5.433,5.918,5.4Zm.908-.751,0,0ZM4.89,5.322h0l0,0Zm.642-.615q.113-.1.229-.206c-.3.28-.613.573-.87.82C5.089,5.127,5.26,4.959,5.533,4.707Zm1.847.422c-.021-.338.8-1.219,1.22-1.308.251-.008-.087.5-.239.7-.344.451-.7.708-.877.708A.1.1,0,0,1,7.379,5.129ZM28.357,3.81c.011,0,.034.007.272.2l.525.451.587.549a1.56,1.56,0,0,1,.187.2C29.846,5.191,28.365,3.822,28.357,3.81ZM16.209,5.07C15.65,4.793,15.583,4,16.1,3.821c.017-.006.041-.012.059-.017a.9.9,0,0,1,.937.568.558.558,0,0,1-.539.784A.792.792,0,0,1,16.209,5.07ZM9.391,4.8c-.123-.333.474-1.13.926-1.235.3-.027.2.379.065.642a1.188,1.188,0,0,1-.811.713A.177.177,0,0,1,9.391,4.8ZM23.75,3.589a.292.292,0,0,1,.075-.039,1.811,1.811,0,0,1,1.253.56c.411.4.438.761.057.766h-.007C24.5,4.876,23.419,3.873,23.75,3.589ZM6.369,3.96c.024-.02.048-.04.073-.059h0c-.223.205-.454.4-.681.6C5.973,4.307,6.181,4.12,6.369,3.96Zm5.37.384c-.227-.324.132-1.027.58-1.14.336-.043.421.311.374.576A.8.8,0,0,1,12,4.475.307.307,0,0,1,11.739,4.344Zm7.814.072c-.726-.1-1.2-.9-.842-1.172a.47.47,0,0,1,.145-.066,1.345,1.345,0,0,1,1.152.5c.295.383.116.744-.326.744A.914.914,0,0,1,19.553,4.416Zm5.9-1.385A.1.1,0,0,1,25.5,3a2.194,2.194,0,0,1,1.182.554c.437.343.63.668.416.7l-.033,0C26.625,4.251,25.336,3.283,25.458,3.031Zm-11.105.838a.617.617,0,0,1,.125-1.1.626.626,0,0,1,.671.505.529.529,0,0,1-.515.671A.535.535,0,0,1,14.352,3.869Zm-7.291.008C7,3.714,8.456,2.688,8.717,2.641l.008,0c0,.017,0,.056-.778.651-.656.5-.821.582-.875.582Zm1.33-1.283a2.162,2.162,0,0,1-.309.223c-.116.079-.356.244-.644.448-.744.527-.744.527-.793.55A9.16,9.16,0,0,1,8.391,2.594ZM26.319,2.6a3.39,3.39,0,0,1,1.039.564c.361.252.727.558.7.628h-.01A6.493,6.493,0,0,1,26.319,2.6ZM8.035,3.69A3.58,3.58,0,0,1,9.5,2.521a.064.064,0,0,1,.027.007c.013.083-.437.485-.576.606a2.456,2.456,0,0,1-.88.6C8.046,3.732,8.033,3.718,8.035,3.69ZM21.119,2.625a.226.226,0,0,1,.1-.059,1.851,1.851,0,0,1,1.234.464c.378.319.421.626.093.672a.646.646,0,0,1-.09.006C21.828,3.708,20.905,2.885,21.119,2.625ZM9.46,3.457c0-.292.806-1,1.146-1.081.231-.013-.242.539-.262.563a1.618,1.618,0,0,1-.8.6A.071.071,0,0,1,9.46,3.457Zm7.717-.109c-.6-.094-.957-.775-.643-1.006a.369.369,0,0,1,.121-.053,1.087,1.087,0,0,1,.939.434c.258.357.051.634-.3.634A.737.737,0,0,1,17.177,3.348Zm-5.98-.2c-.105-.282.423-.909.763-.992.252-.027.116.363.049.5a.968.968,0,0,1-.668.584A.141.141,0,0,1,11.2,3.143ZM22.9,2.078a.114.114,0,0,1,.043-.029,2.408,2.408,0,0,1,1.238.442c.452.289.635.573.391.607a.346.346,0,0,1-.048,0C24.046,3.1,22.754,2.3,22.9,2.078Zm-9.749.7c-.245-.222-.038-.819.317-.913.254-.035.367.232.366.432a.537.537,0,0,1-.482.557A.3.3,0,0,1,13.152,2.777Zm5.463-.941a.221.221,0,0,1,.093-.05,1.774,1.774,0,0,1,1.133.374c.344.262.371.531.058.574a.733.733,0,0,1-.1.007C19.2,2.741,18.4,2.067,18.615,1.836Zm5.351-.177s.007-.006.01-.01a3.245,3.245,0,0,1,1.167.435c.453.244.762.49.674.538a.074.074,0,0,1-.035.007A4.869,4.869,0,0,1,23.965,1.659ZM10.627,1.49a1.415,1.415,0,0,1-.251.135c-.2.1-.422.215-.749.391a7.292,7.292,0,0,1-.9.468A9.313,9.313,0,0,1,10.627,1.49Zm-1.37.988a5.888,5.888,0,0,1,1.706-.99.078.078,0,0,1-.024.029q-.143.073-.285.15l-.465.271-.318.185q-.243.152-.48.314a.352.352,0,0,1-.124.044ZM9.9,2.106l.022-.013Zm.027-.017q.358-.222.728-.422Q10.28,1.868,9.922,2.089Zm5.425.308c-.441-.086-.652-.644-.4-.826a.283.283,0,0,1,.09-.04.763.763,0,0,1,.672.36c.18.291.006.516-.263.516A.524.524,0,0,1,15.348,2.4Zm-4.775-.965c-.36.186-.736.34-1.1.523-.279.142-.545.307-.831.436A13.429,13.429,0,0,1,10.572,1.433Zm13.7-.041a7.642,7.642,0,0,1,1.015.447,7.833,7.833,0,0,1,.875.483C26.089,2.316,24.278,1.4,24.269,1.392Zm-14.116.914a4.019,4.019,0,0,1,1.424-.929h.01c0,.019,0,.041-.6.466-.567.4-.751.479-.81.479C10.159,2.322,10.154,2.313,10.153,2.306Zm10.142-.945a.109.109,0,0,1,.043-.025,2.559,2.559,0,0,1,1.219.335c.407.212.591.44.4.5a.339.339,0,0,1-.1.013C21.382,2.181,20.139,1.557,20.295,1.361Zm-9,.743c-.015-.2.757-.776,1-.836.031,0,.086-.006-.137.247-.022.025-.082.091-.156.167a1.413,1.413,0,0,1-.66.462C11.315,2.144,11.3,2.13,11.3,2.1ZM16.5,1.211a.172.172,0,0,1,.073-.037,1.6,1.6,0,0,1,.947.286c.324.226.291.432.043.464a.606.606,0,0,1-.078,0C17,1.929,16.334,1.393,16.5,1.211Zm-3.9.619c-.075-.208.33-.658.542-.714.176-.02.03.347.029.351a.638.638,0,0,1-.464.432A.1.1,0,0,1,12.6,1.83ZM21.423.979s.01-.006.013-.009a3.523,3.523,0,0,1,1.228.31c.508.206.748.4.647.438a.128.128,0,0,1-.047.007A4.842,4.842,0,0,1,21.423.979Zm-10.639.343h0c-.233.1-.541.238-.772.34C10.39,1.484,10.677,1.365,10.784,1.322Zm3.28.261A.38.38,0,0,1,14.028.94l.02-.006c.154-.021.309.152.358.28a.268.268,0,0,1-.232.392A.285.285,0,0,1,14.064,1.583ZM17.878.857c0-.017.024-.026.042-.033a2.807,2.807,0,0,1,1.12.231c.4.163.524.321.414.377a.308.308,0,0,1-.139.026C18.875,1.459,17.853.995,17.878.857ZM21.967.713V.707a5.114,5.114,0,0,1,1.154.3,3.473,3.473,0,0,1,.845.377.047.047,0,0,1-.029.006A15.838,15.838,0,0,1,21.967.713ZM12.986.652c-.348.13-.7.236-1.05.37-.2.079-.41.163-.52.208a3.741,3.741,0,0,1-.4.153A11.942,11.942,0,0,1,12.986.652ZM12.928.645c-1.074.34-1.074.34-1.161.37-.312.11-.615.245-.931.344A14.48,14.48,0,0,1,12.928.645Zm.29-.038c-.289.126-.591.22-.88.344-.812.349-.812.349-.827.352A7.762,7.762,0,0,1,13.218.606Zm-.27.015c-.85.241-.85.241-1.172.348-.3.1-.586.214-.88.314A14.324,14.324,0,0,1,12.948.621ZM14.92.755a.084.084,0,0,1,.042-.023,1.271,1.271,0,0,1,.672.2c.236.152.234.3.084.331a.39.39,0,0,1-.09.01C15.277,1.277,14.836.863,14.92.755Zm-2.83.457A5.049,5.049,0,0,1,13.381.585a.267.267,0,0,1-.058.027c-.133.06-.287.131-.561.278-.616.331-.616.331-.669.333Zm.706-.126c0-.122.639-.493.784-.534,0,.008,0,.008-.036.031-.1.076-.165.127-.275.22-.3.252-.41.3-.45.3C12.8,1.1,12.8,1.092,12.8,1.086ZM22.079.613c.309.085.861.247,1.468.472C23.112.927,22.522.752,22.079.613Zm-10.3.333-.319.112C11.562,1.022,11.673.983,11.782.946Zm7.1-.4L18.9.531a4.261,4.261,0,0,1,1.211.19c.474.133.706.269.651.319a.122.122,0,0,1-.071.013A5.9,5.9,0,0,1,18.881.546ZM13.557.917C13.484.8,13.732.532,13.8.509c.034,0,.027.158.024.185-.022.166-.133.254-.209.254A.067.067,0,0,1,13.557.917ZM11.785.946A10.961,10.961,0,0,1,13.041.584c-.929.255-.929.255-1.09.307l-.169.056ZM16.559.851A2.272,2.272,0,0,1,15.8.532c0-.006.015-.009.021-.012a3.055,3.055,0,0,1,.939.132c.355.1.478.217.388.261a.288.288,0,0,1-.117.018A1.9,1.9,0,0,1,16.559.851Zm-3.9-.179-.352.1C12.458.729,12.523.708,12.662.672ZM14.026.464s0,0,.006,0a1,1,0,0,1,.363.11c.156.085.174.177.084.2a.182.182,0,0,1-.04,0A.623.623,0,0,1,14.026.464ZM20.9.651C20.839.639,19.5.356,19.478.3A5.853,5.853,0,0,1,20.7.47a2.638,2.638,0,0,1,.832.268.107.107,0,0,1-.056.011A3.664,3.664,0,0,1,20.9.651ZM12.668.67c.313-.093.533-.136.534-.136-.277.07-.432.109-.541.138ZM16.494.341,16.5.332a5.368,5.368,0,0,1,1.116.075c.3.047.622.127.639.191-.011.015-.053.022-.118.022A9.311,9.311,0,0,1,16.494.341ZM22.016.6l.055.015.008,0ZM15.078.569,14.257.41v0a3.974,3.974,0,0,1,.685.032c.265.038.4.095.379.126,0,0-.018.017-.087.017A1.114,1.114,0,0,1,15.078.569Zm-1.2-.155-.089.017c-.181.034-.358.082-.539.11.008,0,.208-.052.629-.128L13.8.427c-.153.026-.306.056-.458.084,0,0,.172-.042.537-.1l-.061.008c-.114.015-.228.036-.342.052a3.543,3.543,0,0,1,.4-.059l-.037,0c-.054,0-.107.007-.161.011a.167.167,0,0,1-.031,0,1,1,0,0,1,.229-.016L13.894.4a.484.484,0,0,1,.137-.056A.133.133,0,0,1,14,.361c-.042.017-.083.034-.123.053L13.919.4A2.711,2.711,0,0,1,14.2.317l-.031.009c-.132.036-.195.056-.3.088L13.94.4c.223-.063.393-.1.417-.1-.159.044-.32.079-.479.121l.034-.009c.273-.067.434-.1.435-.1-.155.043-.314.07-.469.107l.039-.009c.294-.065.468-.1.481-.1-.172.041-.347.07-.52.108l.04-.008c.294-.059.476-.089.488-.09-.176.037-.353.064-.528.1l.038-.007c.286-.052.448-.073.456-.074-.164.031-.329.052-.494.081l.033-.005c.241-.038.381-.051.388-.051-.14.024-.281.036-.421.056l.025,0c.172-.02.266-.024.286-.024A.516.516,0,0,1,14.1.4c-.075.005-.149.011-.223.018h.015a.659.659,0,0,1,.159.008s-.011,0-.04,0L13.878.414l0,0c.03.019.031.036.02.039s-.027-.011-.024-.042l-.008,0c-.112.067-.112.067-.117.066a.445.445,0,0,1,.126-.071L13.86.421c-.082.029-.16.066-.243.09a2.115,2.115,0,0,1,.261-.1L13.85.423c-.117.034-.233.075-.352.106,0,0,.118-.043.38-.114l-.107.027L13.8.435q-.242.062-.479.132l-.025.006s.149-.052.587-.16l-.091.021c-.189.044-.375.1-.566.14C13.223.575,13.41.518,13.878.414Zm0,0ZM13.878.414ZM13.878.414ZM13.878.414Zm0,0ZM13.878.414ZM13.878.414ZM13.878.414Zm0,0ZM13.878.414ZM13.878.414ZM13.878.414Zm0,0ZM13.878.414ZM13.878.414ZM13.878.414Zm0,0ZM13.878.414ZM13.878.414ZM13.878.414Zm0,0Zm0,0Zm0,0Zm0,0ZM13.878.414ZM13.878.414ZM13.878.414ZM13.878.414ZM13.878.414ZM13.878.414ZM13.878.414ZM13.878.414ZM13.878.414ZM13.878.414ZM13.878.414ZM13.878.414ZM13.878.414ZM13.878.414ZM13.878.414ZM13.878.414Zm0,0Zm0,0Zm0,0Zm0,0Zm0,0Zm0,0Zm0,0Zm0,0Zm0,0Zm0,0Zm0,0Zm0,0Zm0,0Zm0,0Zm0,0Zm0,0Zm0,0Zm0,0Zm0,0Zm0,0Zm0,0Zm0,0Zm0,0Zm0,0Zm0,0Zm0,0Zm0,0Zm0,0ZM13.21.564h0ZM13.84.422l-.056.012c-.192.041-.382.093-.575.13C13.22.561,13.406.511,13.84.422Zm5.8-.263a8.812,8.812,0,0,1,1.137.16,8.731,8.731,0,0,1,.956.225h0C21.647.544,19.653.166,19.638.159ZM13.211.523l.1-.024c.09-.022.119-.026.119-.026h0c-.1.022-.2.043-.292.068Zm.039.018h0Zm.522-.1-.059.016ZM13.65.42l.038-.008s.008,0,.011,0l-.008,0-.1.021Zm.229-.006L13.84.422Zm-.011,0C13.833.4,13.832.4,13.83.392s.036-.012.044.006a.07.07,0,0,1,0,.017ZM15.854.4l-1.4-.041h0A8.209,8.209,0,0,1,15.4.318a2.159,2.159,0,0,1,.623.064C16.009.391,16,.4,15.9.4Zm1.1-.219a7.74,7.74,0,0,1,1.21.033,3.422,3.422,0,0,1,.815.14l0,.013a.217.217,0,0,1-.038,0C18.653.367,16.987.212,16.957.179ZM13.945.357l-.008,0ZM14.027.34h.006l-.072.017-.016,0Zm.566-.026c.068-.011.566-.075,1.124-.1a4.927,4.927,0,0,1,.806.012c-.015.011-.015.011-.067.014-.349.015-.7.007-1.048.019-.271.01-.541.042-.812.052ZM14.4.306h0ZM14.288.29,14.41.268c-.063.011-.125.025-.188.037h0A.66.66,0,0,1,14.288.29Zm1.6-.148a7.666,7.666,0,0,1,.937-.028.384.384,0,0,1-.059.01c-.418.033-.836.036-1.254.07-.28.023-.556.075-.837.088C14.754.267,15.281.187,15.889.142Zm-1.18.075L14.92.185c-.155.023-.308.053-.462.08C14.466.262,14.565.241,14.709.217Zm1.2-.12c.522-.05.908-.06.99-.058a.943.943,0,0,1-.178.015c-.224.014-.6.036-1.026.08-.333.034-.664.093-1,.127C14.7.26,15.224.163,15.908.1Zm-.146-.01c.548-.06.976-.073.98-.073-.861.07-.861.07-2.089.24C14.656.253,15.123.156,15.761.087Zm-.409.04.059-.008L15.568.1c-.151.019-.348.049-.916.137C14.654.238,14.9.182,15.353.126ZM17.176.07a9.935,9.935,0,0,1,1.215.008,6.238,6.238,0,0,1,.942.105.266.266,0,0,1-.045,0C18.973.185,17.183.074,17.176.07ZM15.819.075,15.568.1C15.648.092,15.716.085,15.819.075ZM18.144.024c-.147-.005-.295,0-.442,0-.187,0-.375,0-.561-.008.039-.005.5-.024,1.127,0,.545.024.969.07,1.011.077C18.9.074,18.522.036,18.144.024Z" transform="translate(0 0)"/></g></g></svg>