<svg xmlns="http://www.w3.org/2000/svg" width="306.743" height="228.56" viewBox="0 0 306.743 228.56"><defs><style>.a{fill:#e0e0e0;}.b{fill:#e6e6e6;}.c{fill:#f0f0f0;}.d,.i,.j,.o,.p{fill:#fafafa;}.e{fill:#f5f5f5;}.f{fill:#e4897b;}.g{fill:#263238;}.h,.r,.s{fill:#b24bf3;}.i{opacity:0.6;}.j,.q{opacity:0.3;}.k{fill:#ce6f64;}.l{fill:#182137;}.m{opacity:0.5;}.n{fill:#de5753;}.o{opacity:0.1;}.p{opacity:0.8;}.r,.s{mix-blend-mode:multiply;isolation:isolate;}.s{opacity:0.7;}</style></defs><g transform="translate(0 -55)"><g transform="translate(0 55)"><rect class="a" width="306.743" height="0.153" transform="translate(0 200.855)"/><rect class="a" width="6.509" height="0.153" transform="translate(253.676 209.462)"/><rect class="a" width="26.472" height="0.153" transform="translate(222.701 209.536)"/><rect class="a" width="44.674" height="0.153" transform="translate(145.304 208.076)"/><rect class="a" width="14.178" height="0.153" transform="translate(105.427 210.738)"/><rect class="a" width="19.521" height="0.153" transform="translate(52.839 208.149)"/><rect class="a" width="18.245" height="0.153" transform="translate(75.765 208.149)"/><rect class="a" width="18.632" height="0.153" transform="translate(40.054 205.468)"/><path class="a" d="M160.165,228.494H41.707a3.5,3.5,0,0,1-3.5-3.5V58.472A3.5,3.5,0,0,1,41.707,55H160.165a3.5,3.5,0,0,1,3.5,3.5V224.991A3.5,3.5,0,0,1,160.165,228.494ZM41.707,55.123a3.35,3.35,0,0,0-3.343,3.35V224.991a3.35,3.35,0,0,0,3.343,3.35H160.165a3.356,3.356,0,0,0,3.35-3.35V58.472a3.356,3.356,0,0,0-3.35-3.35Z" transform="translate(-14.769 -55)"/><path class="a" d="M376.467,228.494H258a3.509,3.509,0,0,1-3.5-3.5V58.472A3.509,3.509,0,0,1,258,55H376.467a3.5,3.5,0,0,1,3.491,3.472V224.991A3.5,3.5,0,0,1,376.467,228.494ZM258,55.123a3.356,3.356,0,0,0-3.35,3.35V224.991a3.356,3.356,0,0,0,3.35,3.35H376.467a3.356,3.356,0,0,0,3.35-3.35V58.472a3.356,3.356,0,0,0-3.35-3.35Z" transform="translate(-98.368 -55)"/><path class="b" d="M147.045,284.61h0c.337,0,.675,0,1.018.031A14.527,14.527,0,0,1,161.07,302.9a72.759,72.759,0,0,0-2.276,18.92V340.4a2.454,2.454,0,0,1-2.454,2.454H97.39V284.61Z" transform="translate(-37.643 -143.748)"/><path class="c" d="M73.72,299.139a14.521,14.521,0,1,1,28.545,3.779,72.759,72.759,0,0,0-2.276,18.92v18.576a2.454,2.454,0,0,1-2.454,2.454h-18.6a2.454,2.454,0,0,1-2.454-2.454V320.746a66.373,66.373,0,0,0-2.245-17.724A14.509,14.509,0,0,1,73.72,299.139Z" transform="translate(-28.494 -143.756)"/><rect class="b" width="74.557" height="35.355" transform="translate(154.316 199.094) rotate(180)"/><path class="a" d="M0,0H92.471V39.349A10.994,10.994,0,0,1,81.477,50.343h-70.5A10.994,10.994,0,0,1,0,39.349Z" transform="translate(198.058 171.733) rotate(180)"/><path class="c" d="M0,0H92.464V39.877A10.46,10.46,0,0,1,82,50.336H10.46A10.46,10.46,0,0,1,0,39.877V0Z" transform="translate(184.217 171.733) rotate(180)"/><path class="a" d="M.951,0h70.41a3.19,3.19,0,0,1,3.19,3.19v8.018a3.19,3.19,0,0,1-3.19,3.19H.951A.951.951,0,0,1,0,13.448V.951A.951.951,0,0,1,.951,0Z" transform="translate(151.801 174.905) rotate(180)"/><path class="b" d="M300.059,284.61h0c.337,0,.681,0,1.025.031A14.527,14.527,0,0,1,314.09,302.9a72.5,72.5,0,0,0-2.282,18.92V340.4a2.454,2.454,0,0,1-2.454,2.454H250.41V284.61Z" transform="translate(-96.787 -143.748)"/><path class="c" d="M226.73,299.181a14.527,14.527,0,0,1,29.018-.945,14.675,14.675,0,0,1-.466,4.724,72.759,72.759,0,0,0-2.276,18.92v18.576a2.454,2.454,0,0,1-2.454,2.454H231.945a2.454,2.454,0,0,1-2.454-2.454V320.788a66.133,66.133,0,0,0-2.251-17.724A14.509,14.509,0,0,1,226.73,299.181Z" transform="translate(-87.634 -143.797)"/><path class="a" d="M97.967,381.3H239.418a1.767,1.767,0,0,0,1.773-1.767H96.2A1.767,1.767,0,0,0,97.967,381.3Z" transform="translate(-37.183 -180.436)"/><rect class="b" width="12.724" height="66.508" transform="translate(265.841 198.352) rotate(180)"/><rect class="b" width="55.459" height="2.497" transform="translate(263.4 200.855) rotate(180)"/><rect class="c" width="47.619" height="66.508" transform="translate(205.499 131.844)"/><rect class="b" width="44.011" height="42.318" transform="translate(207.303 134.034)"/><rect class="b" width="44.011" height="15.251" transform="translate(207.303 178.15)"/><rect class="a" width="9.282" height="42.318" transform="translate(207.303 134.034)"/><rect class="a" width="9.282" height="15.251" transform="translate(207.303 178.15)"/><rect class="a" width="110.329" height="80.035" transform="translate(215.45 100.753) rotate(180)"/><rect class="c" width="116.212" height="80.035" transform="translate(213.431 100.753) rotate(180)"/><rect class="d" width="75.103" height="111.28" transform="translate(210.971 23.184) rotate(90)"/><circle class="a" cx="19.766" cy="19.766" r="19.766" transform="translate(117.986 74.547) rotate(-80.87)"/><path class="c" d="M176.017,177.472a11.1,11.1,0,0,1,8.073-3.908,2.969,2.969,0,0,1,2.147.81c4.871-2.822,10.478-4.552,15.11-4.362a9.6,9.6,0,0,1,5.448,1.626c5.233-4.258,11.9-7.282,16.742-7.282,2.748,0,4.454.982,5.061,2.607,5.368-2.859,10.883-4.613,15.337-4.613,7.092,0,9.392,4.46,6.491,10.73,1.166,1.184,6.748,2.834,6.527,4.81H175.71A2.091,2.091,0,0,1,176.017,177.472Z" transform="translate(-67.915 -96.492)"/><path class="c" d="M217.688,132.9a2.012,2.012,0,0,1,1.705.822c4.135-2.865,8.8-4.626,12.552-4.429a6.491,6.491,0,0,1,4.35,1.65h0c4.491-4.294,10.1-7.362,14.037-7.362,2.245,0,3.583.994,3.982,2.644,4.534-2.9,9.122-4.687,12.754-4.687,4.491,0,6.478,2.742,5.859,6.951a13,13,0,0,1,6.024-1.945c2.4,0,3.528,1.38,3.331,3.552a4.03,4.03,0,0,1,.613.031c3.681.362,5.067,3.166,3.307,6.374H211.16C212.8,134.374,215.632,132.8,217.688,132.9Z" transform="translate(-81.616 -80.719)"/><circle class="a" cx="19.766" cy="19.766" r="19.766" transform="translate(33.317 66.457) rotate(-81.3)"/><circle class="c" cx="19.766" cy="19.766" r="19.766" transform="translate(32.059 66.296) rotate(-80.87)"/><path class="a" d="M95.541,125.452a17.306,17.306,0,1,1-3.748-10.73l.049.055A17.178,17.178,0,0,1,95.541,125.452Z" transform="translate(-23.549 -75.551)"/><path class="d" d="M96.073,126.036a17.288,17.288,0,0,1-30.061,11.626,17.282,17.282,0,0,1,26.331-22.355l.049.055A17.178,17.178,0,0,1,96.073,126.036Z" transform="translate(-24.081 -76.135)"/><path class="a" d="M86.249,131.6a1.227,1.227,0,0,1-1.1-.706l-4.4-9.4a1.227,1.227,0,1,1,2.221-1.043l3.9,8.343,5.638-2.282a1.228,1.228,0,1,1,.92,2.276L86.71,131.51A1.227,1.227,0,0,1,86.249,131.6Z" transform="translate(-31.165 -80.027)"/><path class="c" d="M369.79,305.264c4.577.613,7.411-9.325-2.7-17.754C367.667,297.271,361.8,304.16,369.79,305.264Z" transform="translate(-141.291 -144.869)"/><path class="c" d="M365.534,314.224c6.644-4.656,2.1-20.92-18.454-19.742C355.969,306.432,353.957,322.34,365.534,314.224Z" transform="translate(-134.152 -147.54)"/><path class="c" d="M372.474,318.146c-4.411-4.755,1.871-16.717,17.748-12.349C381.259,313.673,380.173,326.415,372.474,318.146Z" transform="translate(-143.436 -151.572)"/><path class="a" d="M361.551,336.743H375.2l1.031-9.073H360.52Z" transform="translate(-139.346 -160.391)"/><rect class="a" width="17.742" height="2" transform="translate(237.903 168.899) rotate(180)"/></g><g transform="translate(34.423 269.671)"><ellipse class="e" cx="118.949" cy="6.945" rx="118.949" ry="6.945" transform="translate(0 0)"/></g><g transform="translate(38.23 85.215)"><rect class="f" width="4.699" height="10.456" transform="translate(195.189 175.683) rotate(-21.161)"/><path class="f" d="M415.569,401.813h-4.62l-1.7-10.693h4.62Z" transform="translate(-196.411 -215.13)"/><path class="g" d="M406.006,407.68h5.2a.374.374,0,0,1,.374.313l.675,4.11a.718.718,0,0,1-.724.816c-1.81-.031-2.687-.135-4.969-.135-1.4,0-5.644.147-7.583.147s-2.08-1.92-1.276-2.092c3.6-.779,6.35-1.84,7.546-2.877A1.227,1.227,0,0,1,406.006,407.68Z" transform="translate(-191.768 -221.531)"/><path class="g" d="M380.287,404.087l4.908-1.429a.374.374,0,0,1,.454.19l1.84,3.681a.7.7,0,0,1-.46.975c-1.779.485-2.982.791-5.208,1.442-1.546.448-3.11,1.178-4.638,1.663a21.978,21.978,0,0,1-4.81.35c-1.9,0-2.319-2-1.509-2.092,2.055-.233,2.337-.123,3.472-.693a15.84,15.84,0,0,0,4.951-3.423A2.349,2.349,0,0,1,380.287,404.087Z" transform="translate(-181.423 -219.583)"/><path class="f" d="M353.2,163.151c-.38.963-.742,1.8-1.153,2.687s-.822,1.73-1.258,2.583a52.2,52.2,0,0,1-2.926,5.031,29.583,29.583,0,0,1-3.853,4.791,14.724,14.724,0,0,1-2.736,2.178,8.5,8.5,0,0,1-4.147,1.276,6.407,6.407,0,0,1-1.227-.086,8.588,8.588,0,0,1-1.049-.239,11.774,11.774,0,0,1-1.706-.669,22.378,22.378,0,0,1-2.718-1.613,44.333,44.333,0,0,1-4.54-3.62,77.668,77.668,0,0,1-7.767-8.129l2.38-2.393c2.816,2.221,5.705,4.442,8.589,6.466a51.487,51.487,0,0,0,4.356,2.773,15.707,15.707,0,0,0,2.1,1,2.724,2.724,0,0,0,1.282.288,2.951,2.951,0,0,0,.969-.5,9.674,9.674,0,0,0,1.46-1.331,26.675,26.675,0,0,0,2.822-3.889c.883-1.436,1.712-2.951,2.5-4.5.393-.773.773-1.558,1.141-2.344s.742-1.613,1.055-2.337Z" transform="translate(-161.188 -126.023)"/><path class="f" d="M319.707,167.818l-.656-3.638-4.681,2.871s1.479,2.294,3.037,2.331Z" transform="translate(-159.738 -127.415)"/><path class="f" d="M316.136,160.61l-3.656,2.485,1.153,2.577,4.681-2.871Z" transform="translate(-159.008 -126.035)"/><path class="h" d="M370.552,154.971c1.129,4.2-5.018,12.626-5.018,12.626l-8.073-4.528s1.5-3.466,3.35-6.994C363.785,150.376,369.257,150.186,370.552,154.971Z" transform="translate(-176.393 -122.543)"/><path class="i" d="M370.552,154.971c1.129,4.2-5.018,12.626-5.018,12.626l-8.073-4.528s1.5-3.466,3.35-6.994C363.785,150.376,369.257,150.186,370.552,154.971Z" transform="translate(-176.393 -122.543)"/><path class="h" d="M362.71,168.231l3.172,1.779.552-9.73C364.593,161.7,363.287,165.967,362.71,168.231Z" transform="translate(-178.423 -125.907)"/><path class="j" d="M362.71,168.231l3.172,1.779.552-9.73C364.593,161.7,363.287,165.967,362.71,168.231Z" transform="translate(-178.423 -125.907)"/><rect class="k" width="4.712" height="5.405" transform="translate(195.829 176.514) rotate(-21.11)"/><path class="k" d="M413.876,391.12H409.25l.877,5.515h4.62Z" transform="translate(-196.411 -215.13)"/><path class="h" d="M393.675,150.817c-4.705,17.871-3.4,36.374-3.8,40.165H365.172c-3.681-25.975,2.613-39.926,2.613-39.926s1.963-.528,4.491-.939l.706-.1c.644-.092,1.307-.178,1.982-.239a90.836,90.836,0,0,1,10.5,0c.546,0,1.1.067,1.638.11l.644.061C390.933,150.259,393.675,150.817,393.675,150.817Z" transform="translate(-178.928 -121.788)"/><path class="i" d="M393.675,150.817c-4.705,17.871-3.4,36.374-3.8,40.165H365.172c-3.681-25.975,2.613-39.926,2.613-39.926s1.963-.528,4.491-.939l.706-.1c.644-.092,1.307-.178,1.982-.239a90.836,90.836,0,0,1,10.5,0c.546,0,1.1.067,1.638.11l.644.061C390.933,150.259,393.675,150.817,393.675,150.817Z" transform="translate(-178.928 -121.788)"/><path class="h" d="M364.62,193.992q.129,1.663.325,3.411l18.4-5.963a13.184,13.184,0,0,0,7.067-5.123c.067-1.638.16-3.362.3-5.159.061-.877.141-1.773.221-2.681s.19-1.908.3-2.877Z" transform="translate(-179.161 -131.829)"/><path class="j" d="M364.62,193.992q.129,1.663.325,3.411l18.4-5.963a13.184,13.184,0,0,0,7.067-5.123c.067-1.638.16-3.362.3-5.159.061-.877.141-1.773.221-2.681s.19-1.908.3-2.877Z" transform="translate(-179.161 -131.829)"/><path class="d" d="M392.126,150.05l-.245.528c-.08.178-2.037,4.325-9.233,4.325-.957,0-3.871,0-4.785-2.037a3.172,3.172,0,0,1,.141-2.687l-.706.1a3.626,3.626,0,0,0,0,2.834c1.074,2.4,4.294,2.4,5.343,2.4,7.583,0,9.705-4.5,9.816-4.687l.325-.718Z" transform="translate(-183.95 -121.953)"/><path class="f" d="M391.495,130.59c-.859,3.38-1.883,9.57.35,11.828,0,0-1.558,3.429-7.84,3.429-5.736,0-2.663-3.429-2.663-3.429,3.822-.9,3.889-3.681,3.386-6.319Z" transform="translate(-185.306 -114.432)"/><path class="k" d="M391.386,134.25l-4.006,3.258a10.226,10.226,0,0,1,.215,1.84c1.172,1.166,3.521-1.785,3.767-3.294A5.074,5.074,0,0,0,391.386,134.25Z" transform="translate(-187.958 -115.846)"/><path class="k" d="M375.586,126.379a4.024,4.024,0,0,0,1.8,2.687c1.276.81,2.454-.215,2.509-1.638.074-1.276-.5-3.239-1.994-3.472a2.049,2.049,0,0,0-2.313,2.423Z" transform="translate(-183.384 -111.859)"/><path class="g" d="M379.539,113.3c-2.362.89-3.8,9.932-1.012,11.472S384.012,111.615,379.539,113.3Z" transform="translate(-183.945 -107.695)"/><path class="g" d="M374.335,115.452c1.742,1.84,10.626-.368,10.963-3.534S371.04,111.991,374.335,115.452Z" transform="translate(-182.728 -106.716)"/><path class="f" d="M389.994,117.72c-.166,4.607-.031,7.3-2.276,9.816a5.9,5.9,0,0,1-10.257-2.239c-1.08-4.037-.613-10.889,3.791-13.086a5.908,5.908,0,0,1,8.742,5.509Z" transform="translate(-183.934 -107.046)"/><path class="g" d="M384.414,105.361c3.258-.8,3.969.117,4.116,2.344s3.117,1.607,2.117,4.969c-.466,1.589-1.663,1.454-.932,3.325.834,2.153-4.116,4.761-5.282,4.755-1.92,0-1.5-4,.067-7.638,1.172-2.724-1.748-1.969-5.1-.951-7.546,2.288-12.546-4.294-7.865-7.448C374.015,103.042,380.831,106.514,384.414,105.361Z" transform="translate(-181.133 -104.251)"/><path class="f" d="M398.915,127.732a4.712,4.712,0,0,1-2.656,2.147c-1.479.454-2.172-.847-1.724-2.251.4-1.27,1.669-3.031,3.129-2.865A1.879,1.879,0,0,1,398.915,127.732Z" transform="translate(-190.671 -112.175)"/><path class="g" d="M363.079,217s-4.147,37.11-4.472,51.2c-.337,14.656,14.055,60.367,14.055,60.367l7.362-3.1s-8.589-41.76-7.362-56.146c1.276-15.662,6.656-52.318,6.656-52.318Z" transform="translate(-176.834 -147.83)"/><path class="l" d="M381.622,232.713c-3.3,6.859-1.074,20.417.718,28.453.681-5.669,1.485-11.828,2.251-17.527C384.517,234.873,383.836,228.112,381.622,232.713Z" transform="translate(-185.077 -153.329)"/><path class="h" d="M387.353,389.92c.031,0,.871,2.35.871,2.35l-8.491,3.564-1.344-2.485Z" transform="translate(-184.483 -214.667)"/><path class="i" d="M387.353,389.92c.031,0,.871,2.35.871,2.35l-8.491,3.564-1.344-2.485Z" transform="translate(-184.483 -214.667)"/><path class="g" d="M380.18,217s3.172,35.294,5.276,48.521c2.3,14.484,11.343,62.723,11.343,62.723h8.466s-5.073-47.073-6.031-61.41C398.2,251.269,396.124,217,396.124,217Z" transform="translate(-185.175 -147.83)"/><path class="h" d="M415.181,393.98c.031,0,.282,2.718.282,2.718h-9.3l-.663-3.067Z" transform="translate(-194.961 -216.101)"/><path class="i" d="M415.181,393.98c.031,0,.282,2.718.282,2.718h-9.3l-.663-3.067Z" transform="translate(-194.961 -216.101)"/><path class="h" d="M410.72,326.414a.074.074,0,0,1-.074-.074c-.049-.423-4.62-42.944-5.478-55.827-.932-13.981-2.81-44.975-2.828-45.287a.08.08,0,0,1,.074-.086h0a.08.08,0,0,1,.08.074c0,.313,1.9,31.288,2.828,45.287.859,12.883,5.429,55.373,5.478,55.827a.074.074,0,0,1-.067.086Z" transform="translate(-193.74 -150.977)"/><path class="m" d="M410.72,326.414a.074.074,0,0,1-.074-.074c-.049-.423-4.62-42.944-5.478-55.827-.932-13.981-2.81-44.975-2.828-45.287a.08.08,0,0,1,.074-.086h0a.08.08,0,0,1,.08.074c0,.313,1.9,31.288,2.828,45.287.859,12.883,5.429,55.373,5.478,55.827a.074.074,0,0,1-.067.086Z" transform="translate(-193.74 -150.977)"/><path class="g" d="M386.447,124.293c0,.374-.178.693-.423.712s-.448-.264-.454-.613.178-.693.423-.712S386.447,123.919,386.447,124.293Z" transform="translate(-187.258 -111.76)"/><path class="g" d="M379.587,124.863c0,.374-.178.693-.423.712s-.448-.264-.454-.613.178-.693.423-.712S379.575,124.489,379.587,124.863Z" transform="translate(-184.607 -111.981)"/><path class="n" d="M381.253,125.37a14.438,14.438,0,0,1-1.693,3.343,2.1,2.1,0,0,0,1.779.184Z" transform="translate(-184.935 -112.414)"/><path class="g" d="M383.11,132.593a.11.11,0,0,1-.11-.1.117.117,0,0,1,.11-.117,3.153,3.153,0,0,0,2.368-1.356.106.106,0,1,1,.184.1A3.343,3.343,0,0,1,383.11,132.593Z" transform="translate(-186.265 -114.576)"/><path class="g" d="M387.984,120.056a.221.221,0,0,1-.178-.08,1.736,1.736,0,0,0-1.423-.669.209.209,0,0,1-.233-.19.233.233,0,0,1,.209-.239,2.166,2.166,0,0,1,1.8.828.209.209,0,0,1-.043.3.227.227,0,0,1-.135.049Z" transform="translate(-187.482 -109.904)"/><path class="g" d="M377.075,121.034a.227.227,0,0,1-.086-.043.215.215,0,0,1,0-.307,2.258,2.258,0,0,1,1.84-.914.2.2,0,0,1,.19.233.239.239,0,0,1-.245.2h0a1.84,1.84,0,0,0-1.436.742A.239.239,0,0,1,377.075,121.034Z" transform="translate(-183.917 -110.249)"/><path class="f" d="M398.091,160.339l-6.386-1.7s-6.258,15.4-8.466,16.411a137.02,137.02,0,0,0-13.859,8.386,6.271,6.271,0,0,0,.368,3.35c5.521-1,16.092-5.067,18.3-7.141C393.079,174.934,398.091,160.339,398.091,160.339Z" transform="translate(-180.97 -125.273)"/><path class="h" d="M410.108,155.788c1.687,5.435-4.908,12.883-4.908,12.883l-9.11-3.718a93.08,93.08,0,0,1,3.724-9.251C402.617,149.672,408.4,150.3,410.108,155.788Z" transform="translate(-191.324 -122.483)"/><path class="i" d="M410.108,155.788c1.687,5.435-4.908,12.883-4.908,12.883l-9.11-3.718a93.08,93.08,0,0,1,3.724-9.251C402.617,149.672,408.4,150.3,410.108,155.788Z" transform="translate(-191.324 -122.483)"/><path class="h" d="M408.32,408.264a1.319,1.319,0,0,1-.877-.233.613.613,0,0,1-.19-.577.374.374,0,0,1,.2-.313c.521-.258,1.963.656,2.123.761a.11.11,0,0,1,.049.11.117.117,0,0,1-.092.086A5.43,5.43,0,0,1,408.32,408.264Zm-.613-.951a.326.326,0,0,0-.141,0,.153.153,0,0,0-.08.129.435.435,0,0,0,.123.4,2.227,2.227,0,0,0,1.638.08,4.146,4.146,0,0,0-1.577-.613Z" transform="translate(-195.634 -221.305)"/><path class="h" d="M410.1,407.42h-.049c-.466-.264-1.331-1.276-1.227-1.791a.387.387,0,0,1,.368-.282.54.54,0,0,1,.454.141c.515.436.546,1.767.546,1.84a.117.117,0,0,1-.117.117Zm-.822-1.871h-.049c-.141,0-.16.086-.166.11-.08.307.466,1.067.92,1.429a2.521,2.521,0,0,0-.46-1.448.368.368,0,0,0-.245-.092Z" transform="translate(-196.243 -220.626)"/><path class="h" d="M381.477,407.14a1.742,1.742,0,0,1-1.153,0,.571.571,0,0,1-.325-.46.38.38,0,0,1,.123-.325c.5-.436,2.5.037,2.724.092a.11.11,0,0,1,.08.092.117.117,0,0,1-.068.11A8.262,8.262,0,0,1,381.477,407.14Zm-.994-.73a.448.448,0,0,0-.2.086.147.147,0,0,0-.043.135.356.356,0,0,0,.19.307,3.036,3.036,0,0,0,2.055-.368,5.834,5.834,0,0,0-2.006-.16Z" transform="translate(-185.104 -220.948)"/><path class="h" d="M383.45,405.8h-.043c-.613-.11-1.84-.816-1.877-1.344,0-.123.055-.294.344-.4a.81.81,0,0,1,.613.037c.669.331,1.018,1.509,1.031,1.558a.123.123,0,0,1,0,.11.086.086,0,0,1-.067.037ZM382,404.259h-.067c-.19.068-.184.147-.184.172,0,.313.89.9,1.509,1.092a2.362,2.362,0,0,0-.859-1.227.54.54,0,0,0-.4-.037Z" transform="translate(-185.697 -220.116)"/><path class="h" d="M222.009,208.142h0a7.828,7.828,0,0,1,7.19-5.233h62.134a5.877,5.877,0,0,1,5.951,6.748l-13.81,117.378a7.8,7.8,0,0,1-7.54,6.748H120.109a5.871,5.871,0,0,1-5.951-6.748l11.767-99.918a7.8,7.8,0,0,1,7.54-6.748h71.778A18.256,18.256,0,0,0,222.009,208.142Z" transform="translate(-82.328 -142.383)"/><path class="o" d="M222.009,208.142h0a7.828,7.828,0,0,1,7.19-5.233h62.134a5.877,5.877,0,0,1,5.951,6.748l-13.81,117.378a7.8,7.8,0,0,1-7.54,6.748H120.109a5.871,5.871,0,0,1-5.951-6.748l11.767-99.918a7.8,7.8,0,0,1,7.54-6.748h71.778A18.256,18.256,0,0,0,222.009,208.142Z" transform="translate(-82.328 -142.383)"/><rect class="h" width="102.305" height="96.832" transform="translate(0.221 72.311) rotate(-34.89)"/><rect class="p" width="102.305" height="96.832" transform="translate(0.221 72.311) rotate(-34.89)"/><rect class="d" width="102.305" height="96.832" transform="translate(0 73.545) rotate(-34.89)"/><rect class="h" width="87.544" height="66.698" transform="translate(10.398 75.563) rotate(-34.89)"/><rect class="p" width="87.544" height="66.698" transform="translate(10.398 75.563) rotate(-34.89)"/><path class="h" d="M137.428,219.25a12.27,12.27,0,1,1-17.055-3.067,12.27,12.27,0,0,1,17.055,3.067Z" transform="translate(-82.714 -146.669)"/><path class="o" d="M137.428,219.25a12.27,12.27,0,1,1-17.055-3.067,12.27,12.27,0,0,1,17.055,3.067Z" transform="translate(-82.714 -146.669)"/><path class="h" d="M188.348,205.458a17.791,17.791,0,0,0-14.208-5.11h0c-.08-.11-.141-.233-.221-.35a17.791,17.791,0,0,0-31.852,14.638,11.046,11.046,0,0,0-1.54.883,10.65,10.65,0,0,0-4.294,11.153,12.037,12.037,0,0,0-5.705,4.656,12.957,12.957,0,0,0-.141,14.214,12.736,12.736,0,0,0,17.889,3.386h0l20.644-14.4,18.914-13.19a9.687,9.687,0,0,0,2.607-13.356l-.055-.086A17.563,17.563,0,0,0,188.348,205.458Z" transform="translate(-87.832 -138.283)"/><path class="q" d="M188.348,205.458a17.791,17.791,0,0,0-14.208-5.11h0c-.08-.11-.141-.233-.221-.35a17.791,17.791,0,0,0-31.852,14.638,11.046,11.046,0,0,0-1.54.883,10.65,10.65,0,0,0-4.294,11.153,12.037,12.037,0,0,0-5.705,4.656,12.957,12.957,0,0,0-.141,14.214,12.736,12.736,0,0,0,17.889,3.386h0l20.644-14.4,18.914-13.19a9.687,9.687,0,0,0,2.607-13.356l-.055-.086A17.563,17.563,0,0,0,188.348,205.458Z" transform="translate(-87.832 -138.283)"/><rect class="r" width="102.305" height="96.832" transform="translate(0.803 83.221) rotate(-32.81)"/><rect class="p" width="102.305" height="96.832" transform="translate(0.803 83.221) rotate(-32.81)"/><rect class="d" width="102.305" height="96.832" transform="translate(0.544 84.456) rotate(-32.81)"/><rect class="h" width="87.544" height="66.698" transform="translate(10.864 86.851) rotate(-32.81)"/><rect class="p" width="87.544" height="66.698" transform="translate(10.864 86.851) rotate(-32.81)"/><circle class="h" cx="12.245" cy="12.245" r="12.245" transform="matrix(0.209, -0.978, 0.978, 0.209, 30.416, 101.537)"/><circle class="o" cx="12.245" cy="12.245" r="12.245" transform="matrix(0.209, -0.978, 0.978, 0.209, 30.416, 101.537)"/><path class="h" d="M188.75,228.559a17.791,17.791,0,0,0-14.024-5.626h0c-.074-.123-.129-.245-.209-.362a17.791,17.791,0,0,0-32.355,13.5,10.429,10.429,0,0,0-1.577.822,10.656,10.656,0,0,0-4.687,10.981,11.975,11.975,0,0,0-5.871,4.442,12.945,12.945,0,0,0-.656,14.2,12.736,12.736,0,0,0,17.754,4.061h0l21.2-13.668,19.386-12.5a9.693,9.693,0,0,0,3.067-13.251l-.061-.086a17.175,17.175,0,0,0-1.963-2.509Z" transform="translate(-87.535 -146.801)"/><path class="q" d="M188.75,228.559a17.791,17.791,0,0,0-14.024-5.626h0c-.074-.123-.129-.245-.209-.362a17.791,17.791,0,0,0-32.355,13.5,10.429,10.429,0,0,0-1.577.822,10.656,10.656,0,0,0-4.687,10.981,11.975,11.975,0,0,0-5.871,4.442,12.945,12.945,0,0,0-.656,14.2,12.736,12.736,0,0,0,17.754,4.061h0l21.2-13.668,19.386-12.5a9.693,9.693,0,0,0,3.067-13.251l-.061-.086a17.175,17.175,0,0,0-1.963-2.509Z" transform="translate(-87.535 -146.801)"/><rect class="r" width="102.305" height="96.832" transform="translate(61.975 49.093) rotate(-6.26)"/><rect class="p" width="102.305" height="96.832" transform="translate(61.975 49.093) rotate(-6.26)"/><rect class="d" width="102.305" height="96.832" transform="translate(61.185 50.074) rotate(-6.26)"/><rect class="h" width="87.544" height="66.698" transform="translate(69.348 56.828) rotate(-6.26)"/><rect class="p" width="87.544" height="66.698" transform="translate(69.348 56.828) rotate(-6.26)"/><path class="h" d="M300.328,273.767l.264,2.423-45.2,4.963,10.791-12.8L277.23,255.24Z" transform="translate(-136.942 -162.611)"/><path class="q" d="M300.328,273.767l.264,2.423-45.2,4.963,10.791-12.8L277.23,255.24Z" transform="translate(-136.942 -162.611)"/><path class="h" d="M254.306,275.28l-67.447,7.4-.589-5.331,26.472-30.018L239.465,265.3Z" transform="translate(-110.226 -159.553)"/><path class="q" d="M254.306,275.28l-67.447,7.4-.589-5.331,26.472-30.018L239.465,265.3Z" transform="translate(-110.226 -159.553)"/><path class="s" d="M188.815,248.535h0c.417-2.638,2.939-4.515,6.086-4.515h62.152c3.724,0,7.024,2.607,7.362,5.822l8.331,94.01c.35,3.215-2.393,5.822-6.135,5.822H110.786c-3.73,0-7.031-2.607-7.362-5.822L96.731,264.9c-.35-3.215,2.386-5.816,6.135-5.816h71.778C181.944,259.087,187.84,254.713,188.815,248.535Z" transform="translate(-75.606 -158.274)"/><path class="f" d="M365.214,198.47l-4.908,1.681-3.117,2.2,5.595,2.172s5.227-.552,6.485-3.386Z" transform="translate(-176.289 -140.668)"/><path class="h" d="M20518.143,1597.786v-6h-6v-6h6v-6h6v6h6v6h-6v6Z" transform="matrix(0.995, -0.105, 0.105, 0.995, -20446.656, 634.747)"/></g></g></svg>