<svg xmlns="http://www.w3.org/2000/svg" width="172.043" height="167.907" viewBox="0 0 172.043 167.907"><defs><style>.a{opacity:0.152;}.b{fill:#ebebeb;}.c{fill:#e0e0e0;}.d{fill:#f5f5f5;}.e{fill:#fafafa;}.f{fill:#fff;}.g{fill:#263238;}.h{fill:#455a64;}.i{fill:#b24bf3;}.j{opacity:0.3;}.k{fill:#ffbe9d;}.l{fill:#eb996e;}.m{fill:#b78876;}.n{fill:#aa6550;}.o{opacity:0.6;}</style></defs><g transform="translate(-21.23 -31.73)"><g class="a" transform="translate(29.277 31.73)"><path class="b" d="M415.89,260.629s-2.978-.214-2.7,6.464a77.629,77.629,0,0,0,.955,10.239s-.086,1.482-1.237,1.188-3.3-1.73-4.369-.654-.711,2.831.752,4.851,4.512,6.562,4.787,6.971.376,1.162-.432,1.09-6.3-1.933-7.032.722,4.279,7.622,4.817,8.163.564.9.35,1.233-2-.466-3.587-.929-3.5-.729-3.79.839,1.914,6.159,10.175,10.983l3.974,2,3.76-2.4c7.738-5.64,9.476-10.412,9.024-11.942s-2.328-1.079-3.854-.459-3.226,1.594-3.478,1.286-.256-.662.226-1.263,4.967-6.016,3.978-8.6-6.264-.173-7.065,0-.771-.609-.545-1.038,2.813-5.264,4.069-7.415,1.478-3.9.267-4.888-3.174.684-4.283,1.09-1.35-1.06-1.35-1.06a77.3,77.3,0,0,0-.071-10.284c-.395-6.674-3.407-6.133-3.407-6.133" transform="translate(-268.352 -174.558)"/><path class="c" d="M435.6,276.54v.139c0,.094.019.233.034.41.026.376.06.9.105,1.576.094,1.372.211,3.354.346,5.806.271,4.888.59,11.675.917,19.177s.628,14.259.872,19.177c.124,2.448.226,4.43.3,5.81.034.677.06,1.211.075,1.576a2.532,2.532,0,0,0,.019.414,1.322,1.322,0,0,1,0,.139v-.139c0-.09-.019-.237-.034-.41-.023-.376-.06-.9-.105-1.579-.09-1.369-.211-3.35-.346-5.8-.271-4.888-.59-11.679-.917-19.177s-.628-14.259-.872-19.177c-.124-2.444-.226-4.426-.293-5.806-.034-.681-.06-1.211-.079-1.579v-.41Z" transform="translate(-287.836 -184.487)"/><path class="c" d="M423.23,312.16a1.159,1.159,0,0,1,.248.2c.154.139.376.35.632.609.523.519,1.23,1.256,1.993,2.083l1.944,2.124.59.643a1.348,1.348,0,0,1,.207.244,1.276,1.276,0,0,1-.248-.2c-.154-.139-.376-.346-.628-.609-.519-.526-1.215-1.271-1.978-2.1l-1.959-2.113-.594-.635A1.433,1.433,0,0,1,423.23,312.16Z" transform="translate(-280.117 -206.713)"/><path class="c" d="M439.209,316.444c-.03-.026,1.421-1.549,3.245-3.384s3.324-3.32,3.354-3.29-1.421,1.549-3.245,3.384S439.239,316.474,439.209,316.444Z" transform="translate(-290.088 -205.221)"/><path class="c" d="M439.17,350.943a1.394,1.394,0,0,1,.274-.177l.778-.436c.654-.376,1.56-.88,2.538-1.482s1.846-1.169,2.47-1.587l.752-.5a1.194,1.194,0,0,1,.282-.165,1.436,1.436,0,0,1-.248.214c-.165.132-.406.312-.714.534-.609.444-1.47,1.03-2.452,1.632s-1.88,1.1-2.568,1.444c-.335.173-.609.308-.8.395A1.151,1.151,0,0,1,439.17,350.943Z" transform="translate(-290.064 -228.203)"/><path class="c" d="M421.659,347.43a1.292,1.292,0,0,1,.274.132c.169.09.417.226.718.4.605.346,1.436.827,2.35,1.372s1.733,1.042,2.324,1.406c.3.184.534.335.7.444s.252.169.244.181a1.29,1.29,0,0,1-.274-.132c-.173-.09-.417-.226-.718-.4-.605-.346-1.436-.827-2.35-1.372s-1.733-1.042-2.324-1.406c-.3-.184-.534-.335-.7-.444S421.652,347.441,421.659,347.43Z" transform="translate(-279.137 -228.721)"/><path class="c" d="M418.18,374.47a1.465,1.465,0,0,1,.35.169l.925.508c.778.436,1.846,1.049,3.008,1.733s2.237,1.312,3.008,1.771l.9.553a1.93,1.93,0,0,1,.32.222,1.963,1.963,0,0,1-.35-.169l-.925-.511c-.778-.436-1.846-1.049-3.008-1.733s-2.256-1.309-3.008-1.771l-.9-.553A2.1,2.1,0,0,1,418.18,374.47Z" transform="translate(-276.966 -245.593)"/><path class="c" d="M440.38,377.627a2.614,2.614,0,0,1,.346-.229l.966-.59c.816-.5,1.94-1.185,3.159-1.982s2.309-1.542,3.091-2.087l.929-.647a2.261,2.261,0,0,1,.353-.222,2.622,2.622,0,0,1-.316.271c-.211.165-.519.4-.9.684-.752.568-1.846,1.331-3.072,2.128s-2.358,1.474-3.185,1.948c-.417.233-.752.421-.993.545A2.321,2.321,0,0,1,440.38,377.627Z" transform="translate(-290.819 -243.971)"/><path class="c" d="M438.025,405.42H427.03l3.587,27.164h3.82Z" transform="translate(-282.489 -264.906)"/><path class="d" d="M428.55,412.457s0,.038.056.1a.753.753,0,0,0,.267.188,1.331,1.331,0,0,0,1.162-.143,8.584,8.584,0,0,1,1.425-.936,3.132,3.132,0,0,1,2.019.038,8.683,8.683,0,0,1,1.88.914,13.472,13.472,0,0,0,1.53.823,4.157,4.157,0,0,0,1.128.323,1.818,1.818,0,0,0,.316.023.376.376,0,0,0,.113,0,5.833,5.833,0,0,1-1.5-.455,14.643,14.643,0,0,1-1.5-.85,8.479,8.479,0,0,0-1.914-.94,3.23,3.23,0,0,0-2.136-.023,2.8,2.8,0,0,0-.79.489,6.392,6.392,0,0,1-.628.489,1.3,1.3,0,0,1-1.072.184A1,1,0,0,1,428.55,412.457Z" transform="translate(-283.437 -268.604)"/><path class="d" d="M429.61,424.3s.086-.113.259-.293a2.479,2.479,0,0,1,.88-.557,3.9,3.9,0,0,1,1.527-.229,16.076,16.076,0,0,1,1.914.26,6.576,6.576,0,0,0,1.959.083,5.475,5.475,0,0,0,1.542-.44,4.95,4.95,0,0,0,.929-.553,1.52,1.52,0,0,0,.293-.263,10.4,10.4,0,0,1-1.271.7,5.735,5.735,0,0,1-1.5.376,6.811,6.811,0,0,1-1.91-.094,14.455,14.455,0,0,0-1.937-.248,3.862,3.862,0,0,0-1.583.278,2.32,2.32,0,0,0-.884.628,1.647,1.647,0,0,0-.165.241A.323.323,0,0,0,429.61,424.3Z" transform="translate(-284.098 -275.445)"/><path class="d" d="M439.466,433.476a.909.909,0,0,0-.3-.158,3.382,3.382,0,0,0-.91-.2,6.017,6.017,0,0,0-1.38.079c-.511.083-1.06.226-1.639.346a6.769,6.769,0,0,1-1.636.188,3.6,3.6,0,0,1-1.3-.282,3.049,3.049,0,0,1-.985-.733.811.811,0,0,0,.184.286,2.353,2.353,0,0,0,.752.56,3.52,3.52,0,0,0,1.346.335,6.648,6.648,0,0,0,1.681-.177c.583-.124,1.128-.271,1.632-.376a6.352,6.352,0,0,1,1.342-.113A5.189,5.189,0,0,1,439.466,433.476Z" transform="translate(-285.159 -281.94)"/><path class="d" d="M432.2,443.689a1.8,1.8,0,0,1,1.068-.109A5.265,5.265,0,0,1,434.4,444a4.276,4.276,0,0,0,1.448.4,4.346,4.346,0,0,0,2.632-.609,3.69,3.69,0,0,0,.654-.5c.132-.143.2-.222.192-.233a9,9,0,0,1-.91.628,4.512,4.512,0,0,1-2.553.541c-1.038-.06-1.839-.681-2.561-.752a1.613,1.613,0,0,0-.827.071C432.271,443.6,432.192,443.682,432.2,443.689Z" transform="translate(-285.714 -288.386)"/><path class="d" d="M433.83,456.1a2.061,2.061,0,0,0,.914-.18c.553-.184,1.237-.609,2.038-.925a3.226,3.226,0,0,1,1.166-.244,2.117,2.117,0,0,1,.94.214,2.09,2.09,0,0,1,.681.587.512.512,0,0,0-.105-.233,1.481,1.481,0,0,0-.515-.466,2.147,2.147,0,0,0-1-.267,3.268,3.268,0,0,0-1.233.241c-.827.331-1.5.752-2.019.978S433.822,456.069,433.83,456.1Z" transform="translate(-286.731 -295.581)"/><path class="d" d="M435.26,465.058a2.523,2.523,0,0,0,.7.226,12.543,12.543,0,0,0,1.741.293,12.284,12.284,0,0,0,1.764.049,2.3,2.3,0,0,0,.726-.086c0-.053-1.128,0-2.474-.143S435.271,465.005,435.26,465.058Z" transform="translate(-287.624 -302.114)"/><rect class="e" width="34.146" height="43.957" transform="translate(118.322)"/><path class="b" d="M386.674,48.92a.5.5,0,0,1-.064.09l-.2.244a4.235,4.235,0,0,0-.3.406,6.327,6.327,0,0,0-.376.583,9.862,9.862,0,0,0-.808,1.715,14.355,14.355,0,0,0-.628,2.433,26.843,26.843,0,0,0-.316,3.034c-.064,1.1-.068,2.256-.128,3.512a25.89,25.89,0,0,1-.417,3.873,15.11,15.11,0,0,1-.545,1.993,10.492,10.492,0,0,1-.932,1.918,8.946,8.946,0,0,1-3.008,2.888,16.168,16.168,0,0,1-3.591,1.5c-1.188.376-2.339.617-3.414.861s-2.068.481-2.963.752a19.289,19.289,0,0,0-2.369.854,12,12,0,0,0-1.67.9c-.218.143-.41.271-.568.395s-.3.222-.4.316l-.241.2a.42.42,0,0,1-.086.064.44.44,0,0,1,.075-.079l.229-.214a4.522,4.522,0,0,1,.376-.331,6.922,6.922,0,0,1,.564-.414,11.148,11.148,0,0,1,1.666-.936,17.793,17.793,0,0,1,2.373-.887c.9-.274,1.9-.519,2.971-.752s2.218-.511,3.384-.876a16.231,16.231,0,0,0,3.546-1.5,8.821,8.821,0,0,0,2.948-2.831,10.089,10.089,0,0,0,.914-1.88,15.1,15.1,0,0,0,.541-1.963,26.951,26.951,0,0,0,.429-3.843c.06-1.233.071-2.41.143-3.512a26,26,0,0,1,.342-3.05,13.652,13.652,0,0,1,.688-2.463,9.4,9.4,0,0,1,.842-1.718,5.591,5.591,0,0,1,.395-.575,3.854,3.854,0,0,1,.32-.4l.211-.233C386.643,48.95,386.67,48.916,386.674,48.92Z" transform="translate(-242.941 -42.456)"/><path class="b" d="M402.394,62.72a1,1,0,0,1-.041.1l-.139.286a6.1,6.1,0,0,1-.688,1,7.634,7.634,0,0,1-1.418,1.3,10.763,10.763,0,0,1-2.234,1.215,18.849,18.849,0,0,1-2.948.887c-1.079.252-2.256.459-3.444.752a16.372,16.372,0,0,0-3.67,1.233,8.017,8.017,0,0,0-3.143,2.61,8.235,8.235,0,0,0-1.267,3.892,18.3,18.3,0,0,0,.105,3.869c.135,1.23.308,2.4.395,3.5a15.533,15.533,0,0,1-.023,3.083,9.4,9.4,0,0,1-.643,2.459,6.665,6.665,0,0,1-.97,1.654,5.465,5.465,0,0,1-.846.846l-.259.184q-.083.064-.09.056l.079-.071.244-.2a5.822,5.822,0,0,0,.823-.872,6.858,6.858,0,0,0,.929-1.651,9.464,9.464,0,0,0,.605-2.437,15.564,15.564,0,0,0,0-3.049c-.094-1.1-.271-2.256-.414-3.5a18.6,18.6,0,0,1-.117-3.907,8.43,8.43,0,0,1,1.309-3.975,8.171,8.171,0,0,1,3.219-2.673,16.477,16.477,0,0,1,3.7-1.248c1.211-.274,2.376-.481,3.448-.722a19.179,19.179,0,0,0,2.937-.857,10.986,10.986,0,0,0,2.218-1.177,7.621,7.621,0,0,0,1.421-1.256,6.862,6.862,0,0,0,.714-.97l.154-.271C402.368,62.75,402.39,62.716,402.394,62.72Z" transform="translate(-253.81 -51.067)"/><path class="b" d="M394.461,100.121a7.149,7.149,0,0,1-.974-.658c-.587-.425-1.388-1.027-2.256-1.7s-1.666-1.29-2.234-1.745a6.691,6.691,0,0,1-.887-.752,6.729,6.729,0,0,1,.966.651c.587.425,1.387,1.027,2.256,1.7s1.666,1.29,2.234,1.745a6.69,6.69,0,0,1,.895.76Z" transform="translate(-258.203 -71.378)"/><path class="b" d="M399.544,91.891a1.279,1.279,0,0,1-.323-.2c-.2-.135-.485-.342-.835-.6-.7-.511-1.658-1.23-2.707-2.034s-2-1.542-2.677-2.079c-.338-.271-.609-.493-.793-.651a1.3,1.3,0,0,1-.278-.259,1.361,1.361,0,0,1,.323.2c.2.139.485.342.835.6.7.515,1.658,1.233,2.707,2.038s2,1.538,2.673,2.079c.338.271.613.493.8.647A1.434,1.434,0,0,1,399.544,91.891Z" transform="translate(-260.587 -65.637)"/><path class="b" d="M404.848,85.674a6.293,6.293,0,0,1-.94-.628c-.564-.41-1.335-.985-2.177-1.632s-1.613-1.237-2.147-1.662A7,7,0,0,1,398.73,81a5.936,5.936,0,0,1,.94.628c.564.41,1.335.985,2.177,1.632s1.6,1.237,2.147,1.673A6.786,6.786,0,0,1,404.848,85.674Z" transform="translate(-264.83 -62.474)"/><path class="b" d="M411.615,80.1a21.46,21.46,0,0,1-3.245-2.482,21.312,21.312,0,0,1,3.245,2.482Z" transform="translate(-270.845 -60.365)"/><path class="b" d="M421.882,67.414a12.893,12.893,0,0,1-1.88-1.3,13.8,13.8,0,0,1-1.752-1.459,12.889,12.889,0,0,1,1.88,1.3A13.8,13.8,0,0,1,421.882,67.414Z" transform="translate(-277.01 -52.271)"/><path class="b" d="M426.914,59.159a6.518,6.518,0,0,1-.936-.632c-.564-.406-1.335-.985-2.181-1.628s-1.6-1.241-2.143-1.677a6.432,6.432,0,0,1-.854-.752,6.947,6.947,0,0,1,.936.632c.564.41,1.335.985,2.181,1.628s1.6,1.241,2.143,1.677A5.863,5.863,0,0,1,426.914,59.159Z" transform="translate(-278.601 -45.919)"/><path class="b" d="M390.439,106.507a13.775,13.775,0,0,1-1.88-1.3,13.46,13.46,0,0,1-1.749-1.463,13.513,13.513,0,0,1,1.88,1.3A12.783,12.783,0,0,1,390.439,106.507Z" transform="translate(-257.392 -76.663)"/><path class="b" d="M380.139,120.176a23.037,23.037,0,0,1-3.369-2.576,12.092,12.092,0,0,1,1.745,1.211A11.963,11.963,0,0,1,380.139,120.176Z" transform="translate(-251.127 -85.311)"/><path class="b" d="M374.982,127.018a6.437,6.437,0,0,1-.955-.643c-.575-.417-1.365-1-2.226-1.662s-1.632-1.263-2.188-1.711a7.15,7.15,0,0,1-.872-.752,6.339,6.339,0,0,1,.959.643c.575.417,1.361,1,2.222,1.662s1.636,1.263,2.188,1.711A7.561,7.561,0,0,1,374.982,127.018Z" transform="translate(-246.117 -88.213)"/><path class="c" d="M365.081,37.5a.681.681,0,1,1-.681-.681A.681.681,0,0,1,365.081,37.5Z" transform="translate(-242.984 -34.906)"/><path class="c" d="M439.421,37.5a.681.681,0,1,1-.681-.681.681.681,0,0,1,.681.681Z" transform="translate(-289.371 -34.906)"/><rect class="c" width="26.682" height="38.673" transform="translate(1.342 2.395)"/><rect class="d" width="26.682" height="38.673" transform="translate(0.004 2.395)"/><rect class="f" width="20.053" height="30.296" transform="translate(3.32 6.584)"/><path class="c" d="M71.409,79.436V70.957c0-5.343,0-12.9-.03-21.809l.064.068H51.394l.071-.075v30.3l-.056-.056L66,79.41h.049l-14.691.1H51.3V49.08H71.492v.064c0,8.927-.026,16.507-.034,21.862V79.3A.17.17,0,0,1,71.409,79.436Z" transform="translate(-48.04 -42.556)"/><path class="c" d="M107.772,38.1a4.36,4.36,0,0,1-.478.692c-.308.414-.752.978-1.252,1.587s-.97,1.151-1.316,1.534a5.159,5.159,0,0,1-.587.6,4.817,4.817,0,0,1,.508-.669l1.286-1.557,1.282-1.56A5.219,5.219,0,0,1,107.772,38.1Z" transform="translate(-81.011 -35.705)"/><path class="f" d="M105.06,129.56a24.626,24.626,0,0,0,3.5,4.373" transform="translate(-81.585 -92.774)"/><path class="c" d="M108.557,133.9a4.2,4.2,0,0,1-.613-.557,19.581,19.581,0,0,1-1.316-1.5,19.037,19.037,0,0,1-1.162-1.617,3.76,3.76,0,0,1-.406-.714,5.87,5.87,0,0,1,.489.658c.3.414.707.978,1.192,1.579s.94,1.128,1.278,1.5A5.56,5.56,0,0,1,108.557,133.9Z" transform="translate(-81.585 -92.743)"/><path class="f" d="M42.63,133.719l3.5-4.309" transform="translate(-42.63 -92.681)"/><path class="c" d="M46.127,129.41a27.7,27.7,0,0,1-1.692,2.2,26.416,26.416,0,0,1-1.8,2.109,26.917,26.917,0,0,1,1.692-2.2A25.521,25.521,0,0,1,46.127,129.41Z" transform="translate(-42.63 -92.681)"/><path class="c" d="M42.64,38.1a23.366,23.366,0,0,1,1.7,2.03,23,23,0,0,1,1.583,2.117,24.586,24.586,0,0,1-1.7-2.027A24.211,24.211,0,0,1,42.64,38.1Z" transform="translate(-42.636 -35.705)"/><circle class="c" cx="2.151" cy="2.151" r="2.151" transform="translate(13.461 20.079)"/><path class="c" d="M87.6,68.046A1.606,1.606,0,1,1,86,66.44,1.606,1.606,0,0,1,87.6,68.046Z" transform="translate(-68.687 -53.388)"/><path class="c" d="M72.444,75.362A1.162,1.162,0,1,1,71.282,74.2,1.162,1.162,0,0,1,72.444,75.362Z" transform="translate(-59.783 -58.231)"/><path class="c" d="M91.306,107.653a.722.722,0,1,1,0-1.023A.722.722,0,0,1,91.306,107.653Z" transform="translate(-72.235 -78.335)"/><path class="c" d="M63.454,92.552a1.162,1.162,0,1,1-1.162-1.162A1.162,1.162,0,0,1,63.454,92.552Z" transform="translate(-54.174 -68.957)"/><path class="c" d="M84.144,90.849a21.412,21.412,0,0,1,1.606,3.087,20.706,20.706,0,0,1,1.342,3.215,20.907,20.907,0,0,1-1.606-3.091A23.72,23.72,0,0,1,84.144,90.849Z" transform="translate(-68.531 -68.619)"/><path class="c" d="M72.028,91.388a22.567,22.567,0,0,1-3.5.666,21.955,21.955,0,0,1-3.523.38,22.453,22.453,0,0,1,3.5-.666A21.863,21.863,0,0,1,72.028,91.388Z" transform="translate(-56.588 -68.943)"/><path class="c" d="M77.321,81.389a8.563,8.563,0,0,1-2.053-1.982A8.685,8.685,0,0,1,73.722,77c.064-.053.778,1.011,1.771,2.211S77.377,81.325,77.321,81.389Z" transform="translate(-62.028 -59.975)"/><path class="c" d="M85.664,70.654h0v.056l-.038.207c-.053.244-.105.5-.162.752-.147.639-.376,1.5-.609,2.485a29,29,0,0,1-.985,3.482,19.372,19.372,0,0,1,.7-3.553c.248-.97.493-1.839.692-2.467.1-.312.184-.564.256-.752a1.879,1.879,0,0,1,.086-.2l.034-.049h.019C85.652,70.62,85.664,70.654,85.664,70.654Z" transform="translate(-68.355 -55.997)"/></g><g transform="translate(21.23 199.261)"><path class="g" d="M193.273,477.368c0,.056-38.516.1-86.018.1s-86.025-.041-86.025-.1,38.508-.1,86.025-.1S193.273,477.315,193.273,477.368Z" transform="translate(-21.23 -477.27)"/></g><g transform="translate(135.235 47.076)"><path class="h" d="M346.852,445.18l.226,7.787s-7.836,2.843-7.938,4.283l15.112.105.147-12.142Z" transform="translate(-333.605 -305.061)"/><path class="g" d="M355.37,467.341c0,.071.3.2.549.511s.32.647.395.643.124-.421-.2-.8S355.374,467.27,355.37,467.341Z" transform="translate(-343.732 -318.871)"/><path class="g" d="M352,470.31c.068,0,.173-.353,0-.752s-.534-.568-.564-.508.18.282.327.617S351.928,470.3,352,470.31Z" transform="translate(-341.275 -319.949)"/><path class="h" d="M417.67,445.19l1.583,7.78s7.836,2.843,7.934,4.283l-15.108.105-1.839-12.134Z" transform="translate(-377.97 -305.068)"/><path class="g" d="M437.446,467.331c.019.071-.3.2-.549.511s-.32.647-.376.643-.124-.421.192-.8S437.446,467.26,437.446,467.331Z" transform="translate(-394.339 -318.865)"/><path class="g" d="M441.334,470.3c-.068,0-.173-.353,0-.752s.53-.568.56-.508-.18.282-.327.617S441.409,470.292,441.334,470.3Z" transform="translate(-397.313 -319.942)"/><path class="i" d="M367.152,247.006l11.423,81.961-11.085-.218L355.04,259l2.892,70.079-12.138-.745L341.53,246.51Z" transform="translate(-335.096 -181.095)"/><g class="j" transform="translate(6.708 70.664)"><path d="M342.305,261.658l-.045-1.188,26.122.812.271,2.275Z" transform="translate(-342.26 -260.47)"/></g><path class="g" d="M359.068,344.085c-.056,0-.861-16.308-1.8-36.429s-1.654-36.436-1.6-36.436.857,16.3,1.8,36.429S359.121,344.085,359.068,344.085Z" transform="translate(-343.915 -196.513)"/><path class="g" d="M406.335,344.526a.723.723,0,0,0-.038-.184c-.038-.124-.049-.308-.086-.541-.071-.485-.177-1.188-.312-2.091-.271-1.82-.658-4.445-1.128-7.682-.97-6.49-2.346-15.447-3.978-25.321s-3.211-18.8-4.381-25.257c-.59-3.219-1.064-5.828-1.4-7.641-.162-.9-.29-1.594-.376-2.079-.041-.233-.071-.414-.094-.541s-.026-.188-.026-.188.019.064.045.184l.113.538c.1.481.237,1.177.414,2.072.353,1.8.854,4.407,1.455,7.629,1.207,6.449,2.805,15.372,4.437,25.253s2.989,18.835,3.922,25.329c.466,3.249.835,5.877,1.075,7.7.12.9.214,1.606.278,2.094.026.233.049.414.068.545A.606.606,0,0,1,406.335,344.526Z" transform="translate(-368.161 -197.624)"/><path class="i" d="M330.331,158.494s-5.723-1.365-5.911-1.606l4.7-12.119a8.84,8.84,0,0,1,5.49-5.351,15.5,15.5,0,0,1,5.558-.857l7.945-.421a15.7,15.7,0,0,1,6.264,1.733,12.616,12.616,0,0,1,5.885,6.486l3.565,8.9-8.987,1.88L354.5,166.7l4.11,18.323-28.679-.936,1.282-25.107h0Z" transform="translate(-324.42 -113.474)"/><g class="j" transform="translate(0.97 41.83)"><path class="f" d="M327,183.788c0,.026,1.474.511,3.316,1.083s3.335,1.008,3.343.981-1.474-.511-3.313-1.079S327,183.762,327,183.788Z" transform="translate(-327 -183.787)"/></g><path class="g" d="M396.06,154.435a1.206,1.206,0,0,0,.154-.211c.09-.135.229-.331.41-.568a9.678,9.678,0,0,1,.673-.786,10.021,10.021,0,0,1,.933-.861,9.887,9.887,0,0,1,1.948-1.222c.267-.128.489-.222.643-.282a1.207,1.207,0,0,0,.237-.105,1.293,1.293,0,0,0-.252.068c-.158.049-.376.135-.658.252a8.953,8.953,0,0,0-2.918,2.083,8.766,8.766,0,0,0-.666.831,5.868,5.868,0,0,0-.376.59A1.127,1.127,0,0,0,396.06,154.435Z" transform="translate(-369.122 -121.124)"/><path class="g" d="M399.176,168.82c-.03,0,.248,2.922.617,6.52s.692,6.513.722,6.509-.248-2.922-.62-6.52S399.2,168.816,399.176,168.82Z" transform="translate(-371.065 -132.618)"/><path class="g" d="M347.209,148.02a4.19,4.19,0,0,0,.128-.59,11.36,11.36,0,0,1,.395-1.4,10.81,10.81,0,0,1,.587-1.331c.173-.331.29-.53.278-.538s-.041.041-.1.128-.143.214-.241.376a8.377,8.377,0,0,0-.617,1.331,7.8,7.8,0,0,0-.376,1.421c-.03.188-.049.338-.056.444a.754.754,0,0,0,0,.162Z" transform="translate(-338.636 -117.229)"/><path class="g" d="M345.892,169.344a1.724,1.724,0,0,0,.049-.286c.026-.188.053-.455.086-.79.064-.666.132-1.587.169-2.606s.034-1.944,0-2.613c0-.335-.019-.605-.03-.79a1.386,1.386,0,0,0-.03-.29,1.444,1.444,0,0,0,0,.29v.79c0,.669,0,1.591-.045,2.61s-.094,1.94-.139,2.606l-.056.79a1.545,1.545,0,0,0,0,.29Z" transform="translate(-337.815 -128.343)"/><path class="f" d="M377.85,176.807a40.886,40.886,0,0,0,6.257-.117v.812H377.85Z" transform="translate(-357.759 -137.528)"/><g class="j" transform="translate(13.443 25.444)"><path class="f" d="M360.595,140.537a.673.673,0,0,0-.026.124c0,.09-.03.211-.053.376-.041.316-.094.778-.139,1.369-.094,1.173-.177,2.843-.207,4.817v.075l.068-.034c1.248-.605,2.632-1.267,4.1-2l7.11-3.557,2.151-1.09.583-.3.15-.079.049-.03-.056.023-.154.071-.59.282-2.162,1.049-7.126,3.531c-1.455.729-2.85,1.391-4.095,2l.064.041c.023-1.97.09-3.64.169-4.813.034-.587.083-1.053.113-1.369a3.689,3.689,0,0,1,.038-.376A1.066,1.066,0,0,0,360.595,140.537Z" transform="translate(-360.17 -140.21)"/></g><g class="j" transform="translate(28.795 40.259)"><path class="f" d="M401,182.013a.428.428,0,0,0,.1,0l.293-.071,1.068-.271c.9-.229,2.151-.549,3.535-.88s2.632-.624,3.542-.831l1.075-.248.293-.071c.064,0,.1-.026.1-.03h-.1l-.3.053-1.083.214c-.914.188-2.17.466-3.553.8s-2.632.662-3.527.914l-1.06.3-.286.09A.229.229,0,0,1,401,182.013Z" transform="translate(-401 -179.61)"/></g><path class="g" d="M359.982,137.15a2.632,2.632,0,0,0-1.057,1.019,9.607,9.607,0,0,0-1.256,3.32,13.477,13.477,0,0,0-.229,1.944v.857c0,.271.019.515.041.752s.045.429.068.609.053.331.075.459a1.361,1.361,0,0,0,.094.376,1.668,1.668,0,0,0,0-.395l-.068-.463c0-.18-.023-.376-.038-.605s0-.474,0-.752,0-.545.023-.842a14.921,14.921,0,0,1,.241-1.918,10.485,10.485,0,0,1,1.177-3.279,4.465,4.465,0,0,1,.654-.827A3.569,3.569,0,0,0,359.982,137.15Z" transform="translate(-345.024 -112.856)"/><path class="g" d="M387.84,137.3a4.783,4.783,0,0,0,.414.594,8.048,8.048,0,0,1,.921,1.718,11.768,11.768,0,0,1,.684,2.809c.143,1.087.2,2.3.282,3.565s.068,2.478.071,3.58V152.5c0,.835.023,1.5.049,1.978a2.954,2.954,0,0,0,.071.722,3.388,3.388,0,0,0,.045-.726c0-.474.03-1.147.053-1.974s.049-1.827.064-2.929.019-2.32-.049-3.6-.147-2.485-.308-3.587a11.119,11.119,0,0,0-.752-2.854,7.21,7.21,0,0,0-1.023-1.707A2.584,2.584,0,0,0,387.84,137.3Z" transform="translate(-363.993 -112.95)"/><path class="g" d="M352.7,168.765a3.543,3.543,0,0,0,.041-.647c0-.417.019-1.019.026-1.76V165.14c0-.436,0-.906.026-1.388a2.3,2.3,0,0,1,.5-1.365,1.88,1.88,0,0,1,1.376-.651,2.155,2.155,0,0,1,1.444.557,2.489,2.489,0,0,1,.726,1.271c.12.462.173.933.244,1.361s.132.835.192,1.2c.117.752.218,1.327.29,1.737a3.385,3.385,0,0,0,.135.632,4.434,4.434,0,0,0-.056-.643c-.049-.414-.128-1.011-.226-1.748-.053-.376-.105-.752-.165-1.2a12.4,12.4,0,0,0-.229-1.388,2.651,2.651,0,0,0-.778-1.369,2.346,2.346,0,0,0-1.576-.617,2.072,2.072,0,0,0-1.527.726,2.482,2.482,0,0,0-.538,1.482c-.03.5,0,.966,0,1.4v1.218c0,.752.023,1.342.038,1.76A4.446,4.446,0,0,0,352.7,168.765Z" transform="translate(-342 -128.069)"/><path class="g" d="M357.051,157a3.316,3.316,0,0,0,.752,1.952,2.76,2.76,0,0,0-1.263.023,4.292,4.292,0,0,0,.335-1.974" transform="translate(-344.462 -125.242)"/><path class="g" d="M352.852,165.283a6.44,6.44,0,0,1,.312-.775,2.365,2.365,0,0,1,.568-.662,2.091,2.091,0,0,1,.963-.459,2.068,2.068,0,0,1,1.06.105,2.323,2.323,0,0,1,.752.459,6.2,6.2,0,0,1,.538.639,1.407,1.407,0,0,0-.44-.752,2.256,2.256,0,0,0-.786-.526,2.124,2.124,0,0,0-1.162-.132,2.158,2.158,0,0,0-1.049.515,2.324,2.324,0,0,0-.575.752A1.463,1.463,0,0,0,352.852,165.283Z" transform="translate(-342.158 -129.081)"/><path class="k" d="M333.136,203.838a3.292,3.292,0,0,1-2.752-1.88,7.9,7.9,0,0,1-.752-3.384,27.378,27.378,0,0,1,1.128-9.133l5.1.891-1.388,13.743Z" transform="translate(-327.654 -145.484)"/><path class="g" d="M359.583,198.966l-16.616-.605-4.027-19.47,17.5.974Z" transform="translate(-333.48 -138.901)"/><path class="h" d="M360.324,178l-.252-.5-1.327-.1s-.335-.872-2.23-.959c-1.7-.079-1.767.775-1.767.775h-.918v.417Z" transform="translate(-342.771 -137.37)"/><path class="k" d="M339.469,214.873l-1.26-.376a1.545,1.545,0,0,0-.729-.034h0a1.552,1.552,0,0,0-.782.414,10.151,10.151,0,0,0-1.184,1.293,1.225,1.225,0,0,0,0,.993c.139.192-.308,1.158-.252,1.482a2,2,0,0,0,.252.782c.113.135,0,.594.282.944a4.6,4.6,0,0,0,.534.564,29.634,29.634,0,0,0,3.8,0,4.968,4.968,0,0,0,.929-.782s.308-.564-.169-.617l1.967-.752a.462.462,0,0,0,.286-.59.331.331,0,0,0-.173-.192s.884-.278,1.091-.376c.406-.18.56-1.128-.282-1.008-.447.064-1.053.192-1.053.192a.62.62,0,0,0-.128-.835c-.274-.192-1.5.041-1.5.041l-1.621-1.154Z" transform="translate(-331.182 -161.08)"/><path class="l" d="M345.29,228.441a2.808,2.808,0,0,0,1.019-.15,2.606,2.606,0,0,0,.944-.425c0-.026-.425.177-.97.327S345.286,228.415,345.29,228.441Z" transform="translate(-337.442 -169.46)"/><path class="l" d="M347.29,224.782a12.44,12.44,0,0,0,1.606-.357,13.122,13.122,0,0,0,1.583-.455,13.257,13.257,0,0,0-1.606.357A14.281,14.281,0,0,0,347.29,224.782Z" transform="translate(-338.69 -167.03)"/><path class="l" d="M346.2,221.545a15.715,15.715,0,0,0,1.73-.353,14.972,14.972,0,0,0,1.707-.451,15.716,15.716,0,0,0-1.73.353,15.977,15.977,0,0,0-1.707.451Z" transform="translate(-338.01 -165.015)"/><path class="l" d="M342.8,218.69a2.106,2.106,0,0,0,.444.139l.489.128.29.071a1.075,1.075,0,0,0,.331.03,1.506,1.506,0,0,0,.327-.053l.29-.064.489-.12a2.256,2.256,0,0,0,.448-.132,1.994,1.994,0,0,0-.463.064l-.5.094a4.81,4.81,0,0,1-.6.109,2.2,2.2,0,0,1-.594-.09l-.493-.105A2.058,2.058,0,0,0,342.8,218.69Z" transform="translate(-335.889 -163.736)"/><path class="l" d="M342,220.45a.286.286,0,0,0-.1.128.578.578,0,0,0,0,.376.568.568,0,0,0,.229.308c.086.056.15.064.154.053a.9.9,0,0,1-.286-.376A1.094,1.094,0,0,1,342,220.45Z" transform="translate(-335.306 -164.834)"/><path class="l" d="M342.248,224c-.026,0-.1.124-.09.316s.1.32.124.3,0-.143-.023-.312S342.275,224,342.248,224Z" transform="translate(-335.488 -167.049)"/><path class="l" d="M342.247,227.87c-.026,0-.079.083-.056.207s.109.188.132.169,0-.094-.03-.192S342.274,227.878,342.247,227.87Z" transform="translate(-335.505 -169.464)"/><path class="l" d="M341.34,218.19a1.326,1.326,0,0,0,.335,0l.353-.045a1.324,1.324,0,0,1,.425-.023,1.034,1.034,0,0,1,.376.169c.109.075.2.154.293.207a.523.523,0,0,0,.32.109,1.354,1.354,0,0,1-.278-.169,1.749,1.749,0,0,0-.7-.417,1.289,1.289,0,0,0-.241,0,1.174,1.174,0,0,0-.211.034l-.353.068A1.031,1.031,0,0,0,341.34,218.19Z" transform="translate(-334.978 -163.315)"/><path class="l" d="M335.52,219.472a1.646,1.646,0,0,0-.09-.248,1.963,1.963,0,0,1-.139-.688,2.086,2.086,0,0,1,.075-.481c.041-.173.12-.342.162-.549a1.666,1.666,0,0,0-.041-.639,1.128,1.128,0,0,1,.113-.628,2.942,2.942,0,0,1,.376-.557c.135-.173.267-.338.4-.485a2.256,2.256,0,0,1,.816-.639,1.332,1.332,0,0,1,.688-.105c.165.023.252.068.256.056s-.019,0-.06-.034a.789.789,0,0,0-.188-.06,1.282,1.282,0,0,0-.722.075,2.324,2.324,0,0,0-.861.643c-.135.15-.271.316-.406.485a3,3,0,0,0-.376.579,1.173,1.173,0,0,0-.12.681,1.83,1.83,0,0,1,.049.609c-.038.188-.117.376-.154.549a1.988,1.988,0,0,0-.064.5,1.791,1.791,0,0,0,.177.7A.786.786,0,0,0,335.52,219.472Z" transform="translate(-331.165 -161.054)"/><path class="k" d="M364.211,191.639l13.642,2.166-.605-7.118,7.588-1.466.921,10.529.162,2.418a4.723,4.723,0,0,1-1.982,4.159h0a4.708,4.708,0,0,1-4.189.635l-2.929-.955-14.289-5.084" transform="translate(-348.2 -142.851)"/><path class="k" d="M342.1,197.629a.376.376,0,0,1,.376-.459,19.633,19.633,0,0,1,3.58.218c.906.256,4.287,1.707,4.287,1.707l-1.433,5.291-5.189.056s-1.88-.872-1.918-1.248a6.487,6.487,0,0,1,.049-.707l-.572-.308c-.854-.541-.308-1.576-.308-1.576a1.264,1.264,0,0,1-.617-.925.929.929,0,0,1,.459-.876s-.237-.835.2-1.06a1.779,1.779,0,0,1,1.177.064A.3.3,0,0,1,342.1,197.629Z" transform="translate(-334.361 -150.307)"/><path class="l" d="M344.21,198.615a.678.678,0,0,0,.162.053c.105.03.256.064.447.1.376.068.914.124,1.5.188a12.842,12.842,0,0,1,1.482.226c.376.086.583.2.59.188s-.049-.038-.143-.09a2.228,2.228,0,0,0-.429-.165,8.961,8.961,0,0,0-1.5-.259c-.587-.064-1.128-.109-1.5-.158S344.217,198.6,344.21,198.615Z" transform="translate(-336.769 -151.208)"/><path class="l" d="M341.62,201.43a1.214,1.214,0,0,0,.376.188,5.872,5.872,0,0,0,.944.275c.376.079.722.128.97.162a1.637,1.637,0,0,0,.406.03,13.1,13.1,0,0,0-1.354-.29c-.376-.079-.707-.169-.944-.244A2.4,2.4,0,0,0,341.62,201.43Z" transform="translate(-335.152 -152.966)"/><path class="l" d="M342,206.315a4.028,4.028,0,0,0,1.128.376,3.956,3.956,0,0,0,1.166.139c0-.03-.519-.094-1.128-.237S342,206.289,342,206.315Z" transform="translate(-335.39 -156.012)"/><path class="l" d="M342.86,210.484a2.556,2.556,0,0,0,.85.316,2.651,2.651,0,0,0,.9.109,8.794,8.794,0,0,0-.876-.211C343.251,210.586,342.867,210.458,342.86,210.484Z" transform="translate(-335.926 -158.613)"/><path class="l" d="M350.05,207.076a.305.305,0,0,0,.158.056.594.594,0,0,0,.624-.444.3.3,0,0,0,0-.169,1.046,1.046,0,0,1-.289.421A1.087,1.087,0,0,1,350.05,207.076Z" transform="translate(-340.413 -156.142)"/><path class="l" d="M350.34,211.536c0,.026.2.038.376-.12s.192-.376.162-.376-.079.158-.229.29S350.336,211.506,350.34,211.536Z" transform="translate(-340.593 -158.962)"/><path class="l" d="M351.94,203.044c0,.026.132.075.263-.026s.128-.252.1-.248-.064.094-.162.165S351.963,203.018,351.94,203.044Z" transform="translate(-341.592 -153.802)"/><path class="l" d="M350.326,199.043l-.041-.023-.124-.056-.481-.214c-.417-.18-1.034-.447-1.809-.752-.376-.158-.812-.331-1.282-.5a4.666,4.666,0,0,0-.752-.233,8.08,8.08,0,0,0-.823-.1c-.568-.045-1.169-.064-1.8-.071H342.5a.5.5,0,0,0-.259.053.414.414,0,0,0-.222.47.135.135,0,0,0,.06.068l.06.038.117.053a1.7,1.7,0,0,0,.244.086.045.045,0,0,0,.06-.034.049.049,0,0,0-.034-.06,5.217,5.217,0,0,0-.647-.147,2.441,2.441,0,0,0-.684-.023.624.624,0,0,0-.335.147.594.594,0,0,0-.165.327,1.7,1.7,0,0,0,.045.714l.026-.06a.985.985,0,0,0-.29.256,1.008,1.008,0,0,0-.147.925,1.342,1.342,0,0,0,.594.707l-.023-.068a1.647,1.647,0,0,0-.162.906,1.034,1.034,0,0,0,.489.752h0l.572.3-.026-.049c0,.139-.026.275-.038.41v.2a.923.923,0,0,0,0,.1.251.251,0,0,0,.041.113,1.219,1.219,0,0,0,.293.282c.109.079.214.147.323.214a12.912,12.912,0,0,0,1.29.673h.019l3.76-.056,1.042-.023h.368a.434.434,0,0,0-.094,0h-1.32l-3.76.023h0c-.414-.2-.846-.417-1.275-.677-.109-.068-.214-.135-.316-.211a1.19,1.19,0,0,1-.271-.259.192.192,0,0,1-.026-.068.823.823,0,0,1,0-.1v-.2a3.719,3.719,0,0,1,.038-.406.041.041,0,0,0-.023-.045l-.572-.308h0a.925.925,0,0,1-.444-.669,1.534,1.534,0,0,1,.154-.842.053.053,0,0,0-.019-.068,1.267,1.267,0,0,1-.549-.654.918.918,0,0,1,.135-.831.838.838,0,0,1,.252-.226.049.049,0,0,0,.026-.056,1.62,1.62,0,0,1-.041-.669.477.477,0,0,1,.154-.3.538.538,0,0,1,.278-.12,2.257,2.257,0,0,1,.654.026,4.441,4.441,0,0,1,.635.139l.023-.1a1.381,1.381,0,0,1-.229-.079l-.109-.049c-.034,0-.068-.053-.083-.049a.4.4,0,0,1,.034-.207.375.375,0,0,1,.15-.15.447.447,0,0,1,.214-.041h.714c.628,0,1.226.023,1.79.064.282.023.557.049.816.094a4.892,4.892,0,0,1,.733.222c.47.173.9.342,1.286.493l1.82.752.489.2.124.049Z" transform="translate(-334.316 -150.256)"/><path class="l" d="M403.1,208a5.267,5.267,0,0,1,1.008.869,5.169,5.169,0,0,1,.669,1.151.97.97,0,0,0-.1-.376,3.042,3.042,0,0,0-1.215-1.463A1.128,1.128,0,0,0,403.1,208Z" transform="translate(-373.515 -157.065)"/><path class="k" d="M354.918,85.291a6.892,6.892,0,0,1,6.874-6.351h.357c3.85.218,5.817,3.606,5.494,7.445l-.666,15.417a.7.7,0,0,1-.4.6l-8.648,4.053.267-8.081a4.45,4.45,0,0,1-3.76-4.268C354.41,92.3,354.647,88.622,354.918,85.291Z" transform="translate(-343.149 -76.534)"/><path class="l" d="M364.34,128.189a8.949,8.949,0,0,0,4.843-1.429s-1.128,2.666-4.824,2.339Z" transform="translate(-349.329 -106.373)"/><path class="g" d="M358.1,102.735a.53.53,0,0,0,.511.53.508.508,0,0,0,.545-.478.53.53,0,0,0-.511-.53.508.508,0,0,0-.545.478Z" transform="translate(-345.436 -91.083)"/><path class="g" d="M357.827,99.716c.068.068.466-.229,1.034-.229s.985.286,1.049.214-.038-.154-.218-.286a1.44,1.44,0,0,0-.839-.256,1.353,1.353,0,0,0-.823.267C357.854,99.562,357.8,99.686,357.827,99.716Z" transform="translate(-345.261 -89.151)"/><path class="g" d="M372.29,103.1a.526.526,0,0,0,.508.534.508.508,0,0,0,.545-.478.53.53,0,0,0-.511-.534.5.5,0,0,0-.542.478Z" transform="translate(-354.29 -91.308)"/><path class="g" d="M372.687,99.966c.068.068.466-.229,1.034-.226s.985.282,1.049.211-.038-.154-.222-.286a1.425,1.425,0,0,0-.839-.256,1.376,1.376,0,0,0-.82.267C372.714,99.812,372.657,99.936,372.687,99.966Z" transform="translate(-354.533 -89.307)"/><path class="g" d="M364.847,104.254a4.041,4.041,0,0,0-.925-.165c-.143,0-.282-.041-.3-.139a.752.752,0,0,1,.094-.432l.429-1.105a19.131,19.131,0,0,0,.955-2.892,19.19,19.19,0,0,0-1.188,2.809q-.214.564-.406,1.128a.816.816,0,0,0-.075.568.353.353,0,0,0,.241.211.864.864,0,0,0,.244.034A3.632,3.632,0,0,0,364.847,104.254Z" transform="translate(-348.746 -89.375)"/><path class="g" d="M368.689,113.15c-.094,0-.094.613-.62,1.049s-1.184.376-1.188.459.147.12.425.128a1.538,1.538,0,0,0,.993-.35,1.331,1.331,0,0,0,.478-.88C368.805,113.3,368.73,113.146,368.689,113.15Z" transform="translate(-350.914 -97.881)"/><path class="g" d="M372.294,94.261c.056.154.624.079,1.29.158s1.207.259,1.3.12c.038-.064-.056-.211-.274-.376a2.155,2.155,0,0,0-.959-.331,2.113,2.113,0,0,0-1.011.12C372.392,94.054,372.268,94.175,372.294,94.261Z" transform="translate(-354.29 -85.817)"/><path class="g" d="M358.365,95.3c.1.132.493,0,.963,0s.869.083.963-.049c.038-.068-.026-.2-.2-.32a1.361,1.361,0,0,0-.782-.211,1.335,1.335,0,0,0-.752.263C358.377,95.1,358.32,95.237,358.365,95.3Z" transform="translate(-345.592 -86.379)"/><path class="k" d="M387.775,105.807c.064-.026,2.542-.752,2.467,1.771a1.9,1.9,0,0,1-2.6,1.858C387.636,109.36,387.775,105.807,387.775,105.807Z" transform="translate(-363.868 -93.226)"/><path class="l" d="M389.207,109.874a.9.9,0,0,0,.117.068.429.429,0,0,0,.327,0,1.091,1.091,0,0,0,.534-.963,1.433,1.433,0,0,0-.1-.632.515.515,0,0,0-.323-.35.226.226,0,0,0-.263.113c-.038.071-.023.12-.034.124s-.053-.041-.03-.147a.259.259,0,0,1,.105-.154.331.331,0,0,1,.244-.06.628.628,0,0,1,.447.406,1.5,1.5,0,0,1,.132.711,1.128,1.128,0,0,1-.673,1.072.466.466,0,0,1-.4-.079C389.21,109.934,389.2,109.878,389.207,109.874Z" transform="translate(-364.844 -94.586)"/><path class="g" d="M366.127,80.558l-10.547.233A4.839,4.839,0,0,1,357.129,79a8.272,8.272,0,0,1,4.775-1.718c1.718-.03,5.219,2.064,6.468,3.253a2.687,2.687,0,0,1,.989,1.767c.158,1.369-.605,2.922-.91,4.264-.158.692-.459,2.786-.459,2.786h0c-.583,0-.8-.463-.711-1.038l.109-2.256a3.4,3.4,0,0,1-1.042-3.975C366.5,81.893,366.823,80.957,366.127,80.558Z" transform="translate(-343.863 -75.498)"/><path class="l" d="M377.657,107.089a.068.068,0,1,0-.049-.079A.068.068,0,0,0,377.657,107.089Z" transform="translate(-357.607 -94.016)"/><path class="l" d="M374.769,106.4a.081.081,0,1,0-.045-.09A.071.071,0,0,0,374.769,106.4Z" transform="translate(-355.806 -93.575)"/><path class="l" d="M372.816,106.273c.034,0,.068-.038.075-.094s0-.105-.049-.109-.068.038-.075.094S372.783,106.269,372.816,106.273Z" transform="translate(-354.587 -93.463)"/><path class="l" d="M376.214,108.989c.034,0,.064-.019.064-.038s-.03-.041-.064-.041-.064,0-.064.041S376.18,108.989,376.214,108.989Z" transform="translate(-356.699 -95.235)"/><path class="l" d="M373.575,108.279a.068.068,0,0,0,.068-.064.064.064,0,0,0-.056-.075.068.068,0,0,0-.068.064.064.064,0,0,0,.056.075Z" transform="translate(-355.056 -94.755)"/><path class="l" d="M359.8,106.668a.068.068,0,0,0,.075-.06.064.064,0,0,0-.045-.079.072.072,0,0,0-.03.139Z" transform="translate(-346.467 -93.749)"/><path class="l" d="M357.825,106.457a.073.073,0,0,0,.068-.071c0-.041-.019-.083-.053-.086a.074.074,0,0,0-.071.075A.071.071,0,0,0,357.825,106.457Z" transform="translate(-345.228 -93.606)"/><path class="l" d="M361.538,106.757a.056.056,0,0,0,.071-.041.061.061,0,0,0-.12-.023.056.056,0,0,0,.049.064Z" transform="translate(-347.55 -93.822)"/><path class="l" d="M360.106,108.689a.071.071,0,1,0-.03-.09.064.064,0,0,0,.03.09Z" transform="translate(-346.664 -95.014)"/><path class="l" d="M358.363,108.406a.054.054,0,1,0-.03-.1.056.056,0,0,0-.045.068A.06.06,0,0,0,358.363,108.406Z" transform="translate(-345.552 -94.855)"/><path class="g" d="M365.09,77.734a3.117,3.117,0,0,0-3.113-3.892,9.258,9.258,0,0,1-1.474.105c-.91-.1-1.613-.831-2.459-1.184a3.222,3.222,0,0,0-3.794,1.128c-.32.481-.53,1.072-1.023,1.372a5.389,5.389,0,0,1-1.436.376,2.346,2.346,0,0,0-1.576,2.339A2.764,2.764,0,0,0,351.9,80.3a3.384,3.384,0,0,0,2.914-.207c.8-.444,1.5-1.2,2.422-1.169s1.763.933,2.677.745a2.6,2.6,0,0,0,1.215-.812,2.109,2.109,0,0,1,1.256-.726c.5-.026.752.65.575,1.128l2.125-1.5" transform="translate(-340.513 -72.542)"/><path class="h" d="M356.13,80.566V80.6l.064.1a1.661,1.661,0,0,0,.3.342,1.88,1.88,0,0,0,.628.376,1.817,1.817,0,0,0,.955.056,1.907,1.907,0,0,0,1.011-.575,12.318,12.318,0,0,0,.752-1.128,1.373,1.373,0,0,1,1.211-.617,1.591,1.591,0,0,1,.718.192,1.339,1.339,0,0,1,.526.545,7.618,7.618,0,0,0,.376.711.872.872,0,0,0,.677.41,1.32,1.32,0,0,0,.733-.211,2.722,2.722,0,0,0,.56-.463,2.324,2.324,0,0,1,1.045-.752,1.324,1.324,0,0,1,1.06.248,1.817,1.817,0,0,1,.583.718,3.121,3.121,0,0,1,.218.681c.038.192.056.342.068.447a.774.774,0,0,0,.023.154v-.158a4.393,4.393,0,0,0-.053-.451,2.863,2.863,0,0,0-.207-.7,1.828,1.828,0,0,0-.59-.752,1.4,1.4,0,0,0-1.128-.271,2.369,2.369,0,0,0-1.09.752,2.728,2.728,0,0,1-.545.447,1.215,1.215,0,0,1-.681.2.779.779,0,0,1-.6-.376c-.143-.211-.233-.463-.376-.7a1.414,1.414,0,0,0-.568-.583,1.7,1.7,0,0,0-.752-.207,1.579,1.579,0,0,0-.752.169,1.557,1.557,0,0,0-.542.493,12.941,12.941,0,0,1-.714,1.109,1.82,1.82,0,0,1-.963.56,1.722,1.722,0,0,1-.925-.041,1.88,1.88,0,0,1-.617-.338A2.427,2.427,0,0,1,356.13,80.566Z" transform="translate(-344.206 -76.596)"/><path class="h" d="M350.967,83.2a.485.485,0,0,0-.045.2,1.711,1.711,0,0,0,.053.564,1.97,1.97,0,0,0,.395.752,2.324,2.324,0,0,0,.835.605,3.411,3.411,0,0,0,1.839.211,4.771,4.771,0,0,0,.553-.113.684.684,0,0,0,.2-.064s-.286.053-.752.105a3.6,3.6,0,0,1-1.79-.229,2.346,2.346,0,0,1-.8-.575,2.025,2.025,0,0,1-.395-.7,2.191,2.191,0,0,1-.083-.756Z" transform="translate(-340.954 -79.192)"/><path class="c" d="M393.365,186.011a2.079,2.079,0,0,1-.444,1.1,1.448,1.448,0,0,1-1.053.56,1.609,1.609,0,0,1-1.421-.714,4.046,4.046,0,0,1-.2-3.091,1.791,1.791,0,0,1,1.463-1.184,1.613,1.613,0,0,1,1.583,1.248" transform="translate(-365.359 -141.266)"/><path class="g" d="M393.207,183.894a1.292,1.292,0,0,0-.158-.421,1.843,1.843,0,0,0-.323-.425,1.549,1.549,0,0,0-.609-.357,1.44,1.44,0,0,0-.41-.064,1.24,1.24,0,0,0-.447.056,1.782,1.782,0,0,0-.8.575,2.3,2.3,0,0,0-.47.978,4.213,4.213,0,0,0-.086,1.158,3.159,3.159,0,0,0,.5,1.688,1.5,1.5,0,0,0,.647.489,1.759,1.759,0,0,0,.752.124h0a1.1,1.1,0,0,0,.526-.132,1.745,1.745,0,0,0,.395-.275,2.007,2.007,0,0,0,.432-.643,1.784,1.784,0,0,0,.135-.478,1.24,1.24,0,0,0,0-.128V186a2.708,2.708,0,0,1-.188.628,2.019,2.019,0,0,1-.436.613,1.673,1.673,0,0,1-.376.259,1.064,1.064,0,0,1-.489.117h0a1.561,1.561,0,0,1-1.3-.59,3.136,3.136,0,0,1-.474-1.632,2.967,2.967,0,0,1,.526-2.072,1.677,1.677,0,0,1,.752-.553,1.091,1.091,0,0,1,.421-.06,1.464,1.464,0,0,1,.376.056,1.5,1.5,0,0,1,.59.327,1.924,1.924,0,0,1,.327.4,3.712,3.712,0,0,1,.184.4Z" transform="translate(-365.277 -141.232)"/><path class="c" d="M394.584,186.115a2.1,2.1,0,0,1-.444,1.094,1.436,1.436,0,0,1-1.057.56,1.613,1.613,0,0,1-1.421-.714,4.061,4.061,0,0,1-.2-3.091,1.786,1.786,0,0,1,1.463-1.184,1.617,1.617,0,0,1,1.583,1.23" transform="translate(-366.12 -141.328)"/><path class="g" d="M394.427,183.945a1.327,1.327,0,0,0-.158-.421,1.755,1.755,0,0,0-.323-.421,1.5,1.5,0,0,0-.609-.357,1.583,1.583,0,0,0-.41-.068,1.249,1.249,0,0,0-.447.06,1.707,1.707,0,0,0-.8.572,2.256,2.256,0,0,0-.47.978,4.21,4.21,0,0,0-.086,1.158,3.188,3.188,0,0,0,.5,1.688,1.5,1.5,0,0,0,.651.489,1.745,1.745,0,0,0,.733.124h0a1.1,1.1,0,0,0,.526-.132,1.709,1.709,0,0,0,.395-.275,1.97,1.97,0,0,0,.432-.643,1.88,1.88,0,0,0,.135-.474,1.076,1.076,0,0,0,0-.132v-.041a2.684,2.684,0,0,1-.192.628,1.981,1.981,0,0,1-.432.613,1.793,1.793,0,0,1-.376.256,1.076,1.076,0,0,1-.489.117h0a1.561,1.561,0,0,1-1.3-.59,3.136,3.136,0,0,1-.474-1.632,2.952,2.952,0,0,1,.526-2.072,1.7,1.7,0,0,1,.752-.553,1.166,1.166,0,0,1,.421-.06,1.436,1.436,0,0,1,.376.056,1.4,1.4,0,0,1,.59.331,1.717,1.717,0,0,1,.327.4,3.419,3.419,0,0,1,.2.4Z" transform="translate(-366.038 -141.264)"/><path class="c" d="M396.254,185.457a1.008,1.008,0,0,1,1.053.605,1.737,1.737,0,0,1,0,1.275,1.537,1.537,0,0,1-.327.575.838.838,0,0,1-.583.282,1.015,1.015,0,0,1-.808-.478,1.82,1.82,0,0,1-.274-1.5c.09-.342.338-.688.688-.7" transform="translate(-368.62 -142.994)"/><path class="g" d="M395.927,185.492h-.075a.522.522,0,0,0-.214.071,1.056,1.056,0,0,0-.447.673,1.839,1.839,0,0,0,.124,1.2,1.5,1.5,0,0,0,.436.575.835.835,0,0,0,.752.18,1.038,1.038,0,0,0,.6-.493,2.257,2.257,0,0,0,.252-.673,1.5,1.5,0,0,0-.2-1.181,1.057,1.057,0,0,0-.681-.436.754.754,0,0,0-.226,0l-.075.023a1.226,1.226,0,0,1,.293.019,1.019,1.019,0,0,1,.628.436,1.429,1.429,0,0,1,.162,1.128,2.041,2.041,0,0,1-.244.643.948.948,0,0,1-.541.444.752.752,0,0,1-.669-.162,1.5,1.5,0,0,1-.414-.534,1.813,1.813,0,0,1-.135-1.128,1.026,1.026,0,0,1,.4-.654A.785.785,0,0,1,395.927,185.492Z" transform="translate(-368.549 -142.962)"/><path class="g" d="M395.278,193.174a1.112,1.112,0,0,1,.105-.143.722.722,0,0,1,.331-.214,2.181,2.181,0,0,1,.414-.064c.109,0,.177,0,.177-.03s-.068-.03-.177-.041a1.215,1.215,0,0,0-.444.041.658.658,0,0,0-.376.267C395.263,193.1,395.267,193.174,395.278,193.174Z" transform="translate(-368.629 -147.504)"/><path class="g" d="M394.88,184.76a.41.41,0,0,0,.12.143.986.986,0,0,0,.414.18.939.939,0,0,0,.447-.026c.113-.034.169-.079.165-.09a2.635,2.635,0,0,1-.594,0A2.409,2.409,0,0,1,394.88,184.76Z" transform="translate(-368.386 -142.564)"/><path class="g" d="M367.59,261.25c0,.056-6.445-.109-14.394-.376s-14.386-.508-14.386-.56,6.445.109,14.394.376S367.59,261.2,367.59,261.25Z" transform="translate(-333.399 -189.702)"/></g><g transform="translate(81.822 50.369)"><path class="g" d="M252.347,439.727l3.279,7.5s-4.475,3.418-4.136,4.813l14.323-4.275-3.384-11.532Z" transform="translate(-225.488 -302.769)"/><path class="g" d="M264,464.088c0,.071.346.1.669.327s.489.515.556.493,0-.432-.414-.7S263.967,464.009,264,464.088Z" transform="translate(-233.303 -320.106)"/><path class="g" d="M261.609,467.925c.068,0,.064-.376-.233-.711s-.666-.376-.677-.32.252.214.489.489S261.538,467.94,261.609,467.925Z" transform="translate(-231.246 -321.89)"/><path class="h" d="M259.424,445.539l.29,7.7s-7.727,2.88-7.814,4.305l14.95-.023.041-12.033Z" transform="translate(-225.755 -308.547)"/><path class="g" d="M267.87,467.579c0,.071.3.192.549.5s.32.635.395.632.117-.414-.2-.793S267.874,467.507,267.87,467.579Z" transform="translate(-235.72 -322.311)"/><path class="g" d="M264.544,470.528c.068,0,.169-.35-.019-.752s-.53-.557-.56-.5.181.274.327.605S264.473,470.52,264.544,470.528Z" transform="translate(-233.282 -323.383)"/><path class="b" d="M224.322,150.48a9.018,9.018,0,0,0-3.437,5.121c-.564,2.591-2.106,16.27-2.106,16.27l-2.7,5.264,1.764,4.193h0a6.453,6.453,0,0,0,4.223-1.218l1.184-.861,2.177-3.226Z" transform="translate(-203.404 -124.466)"/><path class="i" d="M254.455,159.612l2.219-.376s-4.681-12.924-7.464-14.187l-2.023-.929v-.038l-3.335-1.361-3.9-1.433h0l-.3-.109.124.12-7.821.5-.609.462-4.012,2.1h0a8.02,8.02,0,0,0-3.407,2.7c-1.621,2.109-3.986,12.886-3.986,12.886l5.245,2.158,1.3,8.709-3.332,16.624,28.577-.545-6.178-17.267.959-8.622Z" transform="translate(-205.813 -118.663)"/><g class="j" transform="translate(20.188 53.801)"><path d="M236.06,225.877a24.34,24.34,0,0,0,9.314,2.286,5.683,5.683,0,0,0,3.32-.62,7.561,7.561,0,0,1,1.2-.793,4.037,4.037,0,0,1,1.944-.056,13.127,13.127,0,0,0,4.531-.3,1.2,1.2,0,0,0,.613-.286A.436.436,0,0,0,257,225.5a.669.669,0,0,0-.395-.105l-20.4-1.019Z" transform="translate(-236.06 -224.38)"/></g><path class="g" d="M231.131,173.6c.056,0,.462,2.673.91,5.99s.771,6.016.718,6.016-.462-2.674-.91-5.99S231.078,173.607,231.131,173.6Z" transform="translate(-212.792 -138.893)"/><path class="g" d="M252.052,153.27a1.586,1.586,0,0,1-.29-.278c-.18-.188-.429-.462-.752-.8l-1.075-1.211c-.4-.459-.85-.959-1.271-1.527a6.493,6.493,0,0,1-.963-1.756,4.031,4.031,0,0,1-.2-1.628,2.79,2.79,0,0,1,.3-1.06,1.128,1.128,0,0,1,.229-.335,3.7,3.7,0,0,0-.376,1.406,4.178,4.178,0,0,0,.237,1.557,6.719,6.719,0,0,0,.951,1.7c.414.56.857,1.06,1.252,1.523l1.042,1.241c.293.353.526.643.688.846A1.964,1.964,0,0,1,252.052,153.27Z" transform="translate(-223.001 -120.841)"/><path class="g" d="M266.462,143.18a1.962,1.962,0,0,1-.045.455,6.391,6.391,0,0,1-.35,1.2,10.906,10.906,0,0,1-2.35,3.384c-1.1,1.166-2.121,2.2-2.862,2.944l-.884.876a2.151,2.151,0,0,1-.342.3,2,2,0,0,1,.286-.357l.842-.917,2.816-2.986a11.683,11.683,0,0,0,2.365-3.294A13.681,13.681,0,0,0,266.462,143.18Z" transform="translate(-230.579 -119.911)"/><path class="b" d="M271.493,191.635l.906,5.057-12.059,1.775.7,5.55s14.894.816,16.545.451c2.079-.459,3.67-2.952,3.617-6.592a44.736,44.736,0,0,0-1.538-7.667Z" transform="translate(-231.022 -149.257)"/><path class="g" d="M287.38,150.046c0,.023-.263.03-.711.169a4.027,4.027,0,0,0-1.647,1.053,4.865,4.865,0,0,0-1.26,2.587,7.226,7.226,0,0,0-.083,1.726,11.722,11.722,0,0,0,.3,1.842c.553,2.508,1.057,4.775,1.425,6.452.177.827.312,1.5.376,1.967.041.233.071.414.086.538a.62.62,0,0,1,0,.192s-.064-.256-.173-.714-.263-1.151-.451-1.952c-.376-1.647-.933-3.914-1.482-6.441a11.739,11.739,0,0,1-.3-1.88,7.227,7.227,0,0,1,.1-1.771,4.914,4.914,0,0,1,1.339-2.651,3.919,3.919,0,0,1,1.764-1.023,3.122,3.122,0,0,1,.541-.09A1.011,1.011,0,0,1,287.38,150.046Z" transform="translate(-245.439 -124.194)"/><path class="g" d="M256.945,262.708c0,.056-6.411.207-14.319.335s-14.326.2-14.326.139,6.392-.2,14.323-.335S256.945,262.656,256.945,262.708Z" transform="translate(-211.029 -194.483)"/><path class="i" d="M222.314,253.163l-6.366,33.612a20.038,20.038,0,0,0,1.166,11.378l13.507,32.714,10.649-6.791-10.9-32.338,6.9-28.675-2.256-12.014Z" transform="translate(-203.103 -187.22)"/><path class="i" d="M246.945,261.172l4.869,38.651.842,31.341,12.115.188s-.436-31.747-.436-33.661v-31.3a40.28,40.28,0,0,0,2.433-3.839c.7-1.391,0-8.344,0-8.344s-2.583-5.291-12.345-3.67S246.945,261.172,246.945,261.172Z" transform="translate(-222.519 -186.708)"/><path class="g" d="M251.689,341.148a1.9,1.9,0,0,1,0-.192,4.991,4.991,0,0,0-.026-.572c-.023-.511-.053-1.248-.09-2.192-.068-1.914-.165-4.666-.29-8.062s-.248-7.46-.4-11.961c-.083-2.256-.162-4.614-.278-7.058s-.263-4.982-.568-7.558c-.15-1.29-.342-2.557-.553-3.805s-.432-2.478-.643-3.685c-.4-2.418-.729-4.76-1.015-7-.568-4.467-.974-8.505-1.346-11.89s-.7-6.125-.948-8.013c-.128-.936-.226-1.669-.293-2.173-.03-.241-.056-.429-.071-.564a.623.623,0,0,1,0-.2.77.77,0,0,0,.038.192c.038.128.053.32.094.564.079.493.2,1.222.327,2.166.275,1.88.624,4.621,1.008,8.009s.812,7.419,1.388,11.882c.29,2.234.624,4.572,1.03,6.99.211,1.207.425,2.437.647,3.681s.4,2.523.549,3.817c.308,2.583.447,5.121.568,7.569s.192,4.813.267,7.062c.135,4.512.256,8.554.357,11.961s.173,6.155.226,8.066c.023.948.041,1.685.053,2.2v.568A.477.477,0,0,1,251.689,341.148Z" transform="translate(-221.551 -196.692)"/><path class="g" d="M266.317,346.427c-.053,0-.951-16.056-2-35.861s-1.858-35.872-1.8-35.876.948,16.052,2,35.865S266.37,346.427,266.317,346.427Z" transform="translate(-232.377 -201.971)"/><path class="g" d="M268.917,267.18a1.235,1.235,0,0,1-.248.323,5.143,5.143,0,0,1-.839.722,5.569,5.569,0,0,1-6.844-.338,4.887,4.887,0,0,1-.752-.8,1.369,1.369,0,0,1-.214-.342,11.36,11.36,0,0,0,1.064,1.042,5.663,5.663,0,0,0,6.678.331A10.421,10.421,0,0,0,268.917,267.18Z" transform="translate(-230.822 -197.011)"/><path class="g" d="M236.668,338.5l-.086-.177-.237-.526-.887-2.034c-.752-1.775-1.88-4.332-3.23-7.49s-2.952-6.945-4.73-11.134-3.723-8.806-5.64-13.7c-.113-.308-.229-.617-.346-.921a5.513,5.513,0,0,1-.2-.978,12.472,12.472,0,0,1-.06-1.944c.049-1.286.2-2.542.353-3.76.346-2.459.793-4.809,1.252-7.039.925-4.463,1.914-8.445,2.764-11.784s1.6-6.016,2.121-7.878L228.35,267c.071-.237.128-.417.165-.549a1.43,1.43,0,0,1,.064-.188.632.632,0,0,1-.045.192c-.045.124-.083.32-.147.557-.135.5-.327,1.218-.579,2.143-.5,1.858-1.218,4.55-2.057,7.9s-1.809,7.325-2.722,11.784c-.455,2.23-.895,4.58-1.237,7.032-.158,1.226-.3,2.478-.35,3.76a12.525,12.525,0,0,0,.079,1.884,4.887,4.887,0,0,0,.192.933c.117.3.229.613.346.917,1.914,4.888,3.869,9.5,5.64,13.7s3.358,7.975,4.693,11.149l3.174,7.52c.376.884.654,1.572.854,2.046l.218.534A1.084,1.084,0,0,0,236.668,338.5Z" transform="translate(-206.62 -196.711)"/><path class="g" d="M250,352.848a10.133,10.133,0,0,1-1.549-1.839,14.724,14.724,0,0,1-1.369-1.989,15.529,15.529,0,0,1,1.5,1.88c.4.53.752,1.019,1.008,1.372A4.533,4.533,0,0,1,250,352.848Z" transform="translate(-222.748 -248.352)"/><g class="j" transform="translate(23.915 71.835)"><path d="M245.97,272.34l1.752,30.029L249.305,305l.575-2.376Z" transform="translate(-245.97 -272.34)"/></g><g class="j" transform="translate(18.444 68.259)"><path d="M231.661,263.308l-.241,1.26h26.005l-.132-1.737Z" transform="translate(-231.42 -262.83)"/></g><path class="g" d="M182.37,207.44l17.425,6.452,14.691,2.245-17.466-8.513Z" transform="translate(-182.37 -160.008)"/><path class="k" d="M200.226,219.709a7.4,7.4,0,0,0-.925-2.632,2.016,2.016,0,0,1-.241-.5.575.575,0,0,1,.1-.523c.222-.241.632-.135.906.049a3.207,3.207,0,0,1,1.173,1.643,9.592,9.592,0,0,1,.376,2.015" transform="translate(-192.769 -165.298)"/><path class="k" d="M207.827,216.4h-.854a1.685,1.685,0,0,0-.752-.436.6.6,0,0,0-.572.226c.376-.639.8-1.342.884-1.534.158-.376-.188-.654-.752-.654s-3.027,3.493-3.027,3.493,1.534-2.809,1.681-3.241c.376-1.072-.8-1.151-1.226-.632-.53.639-2.666,3.873-2.666,3.873a1.5,1.5,0,0,0-.128,1.278c.282.624,1.094.376,1.094.376a1.045,1.045,0,0,0,.572.869,1.786,1.786,0,0,0,1.448-.056l3.189.718,1.154-.117a3.538,3.538,0,0,0,3.147-3.008h0Z" transform="translate(-193.576 -163.673)"/><path class="l" d="M211.268,220.84a10.4,10.4,0,0,1-.936,1.5c-.278.4-.53.752-.722,1.015a2.739,2.739,0,0,1-.32.4,2.687,2.687,0,0,1,.263-.444c.173-.267.421-.632.7-1.03s.526-.752.711-1.019l.222-.3C211.238,220.874,211.26,220.84,211.268,220.84Z" transform="translate(-199.168 -168.37)"/><path class="l" d="M214.05,224.468a2.926,2.926,0,0,1,.282-.519c.188-.316.455-.752.752-1.218.147-.237.286-.462.4-.669a.786.786,0,0,0,.071-.594,1.463,1.463,0,0,0-.274-.508.422.422,0,0,1,.124.105.988.988,0,0,1,.218.376.831.831,0,0,1-.056.654c-.117.218-.256.444-.4.681-.293.478-.572.9-.775,1.2A4.743,4.743,0,0,1,214.05,224.468Z" transform="translate(-202.138 -168.445)"/><path class="l" d="M217.826,226.853a1.959,1.959,0,0,1,.169-.5l.229-.519a4.2,4.2,0,0,0,.233-.647.752.752,0,0,0-.1-.62.534.534,0,0,0-.226-.162.617.617,0,0,0-.237-.068,1,1,0,0,0-.346.12c-.079.041-.128.06-.128.053s.034-.038.109-.086a1.423,1.423,0,0,1,.143-.086.572.572,0,0,1,.222-.071.8.8,0,0,1,.538.241.831.831,0,0,1,.124.7,3.531,3.531,0,0,1-.248.658c-.09.2-.177.376-.244.515A5.23,5.23,0,0,1,217.826,226.853Z" transform="translate(-204.241 -170.51)"/><path class="l" d="M220.066,223.12a.354.354,0,0,1,.135.041,1.6,1.6,0,0,1,.331.2,1.809,1.809,0,0,1,.515,2.309,1.4,1.4,0,0,1-.218.32c-.06.068-.1.1-.105.094a2.748,2.748,0,0,0,.259-.444,1.839,1.839,0,0,0-.5-2.226C220.247,223.206,220.04,223.135,220.066,223.12Z" transform="translate(-205.89 -169.792)"/><path class="l" d="M202.607,218.24a18.171,18.171,0,0,1-1.527,2.256A18.953,18.953,0,0,1,202.607,218.24Z" transform="translate(-194.045 -166.747)"/><path class="k" d="M241,208.084l-1.989-.451-1.921-1.8a1.369,1.369,0,0,0-.854-.376l-3.482-.2a1.365,1.365,0,0,0-.955.32l-2.489,2.1,10.863,5.3,1.5.132Z" transform="translate(-211.66 -158.645)"/><path class="l" d="M237.463,209.947s-.259-.03-.673-.083a2.918,2.918,0,0,0-1.576.162,4.2,4.2,0,0,0-.752.47c-.218.165-.417.32-.59.436a3.567,3.567,0,0,1-.432.252.576.576,0,0,1-.169.06,4.275,4.275,0,0,0,.56-.376c.165-.124.376-.282.579-.451a3.863,3.863,0,0,1,.752-.489,2.308,2.308,0,0,1,.891-.2,3.893,3.893,0,0,1,.752.056,4.911,4.911,0,0,1,.485.1A.578.578,0,0,1,237.463,209.947Z" transform="translate(-214.131 -161.436)"/><path class="l" d="M242.289,215.191a2.021,2.021,0,0,0-.376-.068,1.966,1.966,0,0,0-.895.124,4.546,4.546,0,0,0-.82.421,1.7,1.7,0,0,1-.338.188,1.343,1.343,0,0,1,.3-.248,3.434,3.434,0,0,1,.827-.455,1.779,1.779,0,0,1,.936-.1A.786.786,0,0,1,242.289,215.191Z" transform="translate(-218.243 -164.744)"/><path class="l" d="M256.009,213.337c-.023,0-.3-.4-.673-.895a11.127,11.127,0,0,1-.666-.9A6.729,6.729,0,0,1,256.009,213.337Z" transform="translate(-227.484 -162.567)"/><path class="i" d="M241.441,197.8l4.414-4.11a.421.421,0,0,0-.03-.643h0a.421.421,0,0,0-.538.019l-5.178,4.64" transform="translate(-218.399 -150.971)"/><g class="j" transform="translate(21.711 41.985)"><path d="M241.441,197.8l4.414-4.11a.421.421,0,0,0-.03-.643h0a.421.421,0,0,0-.538.019l-5.178,4.64" transform="translate(-240.11 -192.956)"/></g><path class="g" d="M241.216,90.092a5.264,5.264,0,0,1,1.162-4.678,6.862,6.862,0,0,1,3.2-1.906,7.415,7.415,0,0,1,4.971.113,4.874,4.874,0,0,1,3.008,3.794,10.582,10.582,0,0,0,.184,2.29,1.7,1.7,0,0,1,.192.963.793.793,0,0,1-.688.523,1.786,1.786,0,0,1-.887-.18,9.6,9.6,0,0,1-2.523-1.812" transform="translate(-219.001 -82.444)"/><path class="k" d="M241.107,95.41c.154-2.384,1.741-5.3,4.114-5.046l7.408,1.88a1.4,1.4,0,0,1,1.245,1.418l-.831,17.872h0l-4.851,5.757s-3.1-3.606-3.294-4.7h0a3.008,3.008,0,0,1-.053-.376,11.7,11.7,0,0,1-.03-2.452h0V107.74c0,.011-3.042-.511-3.662-4.482A40.956,40.956,0,0,1,241.107,95.41Z" transform="translate(-218.919 -86.945)"/><path class="g" d="M244.5,110.706a.515.515,0,0,0,.493.515.493.493,0,0,0,.526-.459.511.511,0,0,0-.493-.515.489.489,0,0,0-.526.459Z" transform="translate(-221.138 -99.361)"/><path class="g" d="M243.225,107.4c.06.068.447-.218,1-.214s.948.278,1.008.211-.034-.15-.211-.278a1.38,1.38,0,0,0-.8-.252,1.357,1.357,0,0,0-.793.256C243.251,107.253,243.191,107.374,243.225,107.4Z" transform="translate(-220.337 -97.255)"/><path class="g" d="M258.83,110.706a.511.511,0,0,0,.489.515.489.489,0,0,0,.526-.459.508.508,0,0,0-.489-.515.485.485,0,0,0-.526.459Z" transform="translate(-230.08 -99.361)"/><path class="g" d="M257.547,107.714c.064.064.451-.218,1-.218s.951.278,1.012.211-.034-.15-.211-.278a1.433,1.433,0,0,0-.808-.248,1.335,1.335,0,0,0-.793.252C257.573,107.563,257.517,107.684,257.547,107.714Z" transform="translate(-229.274 -97.448)"/><path class="g" d="M249.946,111.814a3.7,3.7,0,0,0-.891-.162c-.139,0-.271-.045-.293-.139a.7.7,0,0,1,.094-.414c.132-.338.271-.692.414-1.064a17.905,17.905,0,0,0,.936-2.786,18.645,18.645,0,0,0-1.158,2.7l-.4,1.072a.808.808,0,0,0-.071.549.342.342,0,0,0,.229.2.835.835,0,0,0,.237.034A3.493,3.493,0,0,0,249.946,111.814Z" transform="translate(-223.67 -97.491)"/><path class="l" d="M251.2,134.3a10.073,10.073,0,0,0,5.321-1.406s-1.342,2.745-5.313,2.365Z" transform="translate(-225.319 -113.491)"/><path class="l" d="M252.764,122.267a.985.985,0,0,1,.884-.376.906.906,0,0,1,.624.338.568.568,0,0,1,.041.651.658.658,0,0,1-.718.18,2.072,2.072,0,0,1-.7-.417.6.6,0,0,1-.158-.165.18.18,0,0,1,0-.2" transform="translate(-226.259 -106.624)"/><path class="g" d="M253.625,120.41c-.086,0-.09.59-.6,1.011s-1.128.353-1.151.436.143.117.41.124a1.5,1.5,0,0,0,.959-.331,1.316,1.316,0,0,0,.466-.85C253.734,120.553,253.666,120.406,253.625,120.41Z" transform="translate(-225.74 -105.703)"/><path class="g" d="M256.906,105.329c.053.15.6.079,1.245.158s1.162.256,1.248.124c.038-.064-.053-.2-.263-.35a2.173,2.173,0,0,0-1.88-.214C257,105.156,256.883,105.273,256.906,105.329Z" transform="translate(-228.877 -96.041)"/><path class="g" d="M243.757,103.155c.1.124.474,0,.929,0s.839.086.925-.045c.041-.06-.019-.188-.188-.3a1.3,1.3,0,0,0-.752-.207,1.32,1.32,0,0,0-.752.248C243.769,102.963,243.716,103.091,243.757,103.155Z" transform="translate(-220.666 -94.589)"/><path class="g" d="M261.486,101.237c-1.03.425-1.948-2.749-2.892-3.339s-1.88,1.421-1.97.308c-.064-.978.263-2.053-.244-2.9-.673-1.128-2.422-1.154-3.1-2.256-.376-.643-.316-1.5-.752-2.125a2.557,2.557,0,0,0-1.846-.936,6.649,6.649,0,0,1-2.072-.459,1.532,1.532,0,0,1-.895-1.73,37.675,37.675,0,0,1,8.919.414,3.355,3.355,0,0,1,1.88.752,3.711,3.711,0,0,1,.752,2.023c.519,3.531,1.688,6.708,2.2,10.239" transform="translate(-223.106 -85.297)"/><path class="i" d="M241.013,90.286c.2-2.328,1.6-5.264,3.715-6.272a6.536,6.536,0,0,1,6.539.222c2.083,1.433,2.632,3.847,2.9,6.362s-.132,3.422-.718,5.885L253.2,101.9c1.455,1.658,3.358-.218,3.636-.35a12.252,12.252,0,0,0,1.451-2.143c1.5-2.835-.82-3.253-.421-4.847a7.727,7.727,0,0,0-.3-4.832c-.3-.714-.726-1.38-.966-2.113-.267-.8-.3-1.677-.639-2.455a4.486,4.486,0,0,0-1.918-2.046,9.272,9.272,0,0,0-2.673-.959c-2.147-.481-3.572-1.309-5.64-.553a6.67,6.67,0,0,0-4.471,4.539,9.777,9.777,0,0,0-.248,4.136" transform="translate(-218.888 -81.298)"/><path class="g" d="M243.41,87.631a1.088,1.088,0,0,1,.128-.222,4.889,4.889,0,0,1,.447-.587,6.844,6.844,0,0,1,2.14-1.658,6.727,6.727,0,0,1,3.941-.651,6.99,6.99,0,0,1,4.283,2.32,9.1,9.1,0,0,1,1.933,4.512,14.841,14.841,0,0,1,.147,4.016,8.443,8.443,0,0,1-.688,2.632,5.374,5.374,0,0,1-.342.654,1.052,1.052,0,0,1-.147.211,8.761,8.761,0,0,0,.421-.895,9.076,9.076,0,0,0,.62-2.6,15.307,15.307,0,0,0-.188-3.971,8.995,8.995,0,0,0-1.906-4.4,6.877,6.877,0,0,0-4.159-2.256,6.633,6.633,0,0,0-3.854.6,7.073,7.073,0,0,0-2.143,1.583C243.632,87.342,243.425,87.643,243.41,87.631Z" transform="translate(-220.458 -83.265)"/><path class="g" d="M278.177,132.917a1.117,1.117,0,0,1-.47.376,2.523,2.523,0,0,1-1.448.3,2.549,2.549,0,0,1-1.361-.572c-.29-.248-.406-.459-.376-.474a5.021,5.021,0,0,1,.474.376,2.651,2.651,0,0,0,2.658.259C277.978,133.037,278.158,132.894,278.177,132.917Z" transform="translate(-239.869 -113.277)"/><path class="g" d="M276.9,125.289a8.759,8.759,0,0,1-.876-.752,8.621,8.621,0,0,1-.9-.707,2.211,2.211,0,0,1,1.023.557A2.173,2.173,0,0,1,276.9,125.289Z" transform="translate(-240.251 -107.837)"/><path class="g" d="M278.688,117.183a1.765,1.765,0,0,0-1.218-1.527c0-.023.132-.045.335,0a1.346,1.346,0,0,1,.662.447,1.368,1.368,0,0,1,.3.752C278.76,117.067,278.711,117.187,278.688,117.183Z" transform="translate(-241.711 -102.721)"/><path class="g" d="M279.037,114.547c-.049.026-.188-.169-.417-.331s-.447-.244-.44-.3.286-.06.557.143S279.086,114.528,279.037,114.547Z" transform="translate(-242.153 -101.63)"/><path class="g" d="M273.182,89.537c.019.053-.139.154-.32.29s-.323.259-.376.226.045-.226.252-.376S273.167,89.488,273.182,89.537Z" transform="translate(-238.592 -86.426)"/><path class="g" d="M272.065,89.088c.034.041-.038.165-.165.274s-.259.169-.293.128.038-.165.165-.274S272.027,89.047,272.065,89.088Z" transform="translate(-238.046 -86.151)"/><path class="k" d="M272.3,115.1c0-.3.346-.993.635-1.038.782-.12,2.188-.053,2.2,1.925a2.037,2.037,0,0,1-2.715,2.083C272.409,117.989,272.3,116.116,272.3,115.1Z" transform="translate(-238.484 -101.718)"/><path class="l" d="M274.795,118.457s.049.03.128.068a.466.466,0,0,0,.353,0,1.173,1.173,0,0,0,.534-1.049,1.607,1.607,0,0,0-.135-.673.542.542,0,0,0-.357-.376.237.237,0,0,0-.278.132c-.034.075-.019.128-.03.132s-.06-.041-.038-.154a.279.279,0,0,1,.105-.169.338.338,0,0,1,.259-.071.658.658,0,0,1,.5.417,1.582,1.582,0,0,1,.165.752,1.2,1.2,0,0,1-.681,1.173.5.5,0,0,1-.432-.068C274.8,118.521,274.783,118.46,274.795,118.457Z" transform="translate(-240.039 -103.133)"/><path class="d" d="M251.118,121.24s-3.177,2.854-6.242,2.433a5.492,5.492,0,0,1-4.136-2.433s-.485,2.929.872,4.381c1.5,1.609,2.192,2.053,5.385,1.5s4.918-4.166,4.918-4.166Z" transform="translate(-218.739 -106.221)"/><path class="d" d="M270.056,115a11.151,11.151,0,0,1-1.666,2.425,5.827,5.827,0,0,1,.752-1.267A5.639,5.639,0,0,1,270.056,115Z" transform="translate(-236.045 -102.328)"/><path class="d" d="M271.911,124.919c0,.056-.3.113-.654.2s-.647.165-.669.113.248-.214.628-.3S271.911,124.867,271.911,124.919Z" transform="translate(-237.415 -108.487)"/><path class="g" d="M250.531,124.938a2.1,2.1,0,0,1-.293.342,8.589,8.589,0,0,1-.921.808,7.118,7.118,0,0,1-3.719,1.534,5.076,5.076,0,0,1-3.783-1.271,3.516,3.516,0,0,1-.752-.97,1.594,1.594,0,0,1-.173-.417,5.493,5.493,0,0,0,1.019,1.286,5.1,5.1,0,0,0,3.677,1.177,7.457,7.457,0,0,0,3.655-1.448C250.065,125.382,250.5,124.912,250.531,124.938Z" transform="translate(-218.885 -108.528)"/><path class="g" d="M252.252,130.275a2.632,2.632,0,0,1-.752.53,6.043,6.043,0,0,1-4.373.493,2.737,2.737,0,0,1-.857-.35c0-.03.342.1.891.214a6.814,6.814,0,0,0,4.272-.481C251.944,130.444,252.234,130.245,252.252,130.275Z" transform="translate(-222.242 -111.857)"/></g><g transform="translate(46.544 48.22)"><path class="g" d="M127.924,78.372a3.5,3.5,0,0,1,2.455-2.5,4.166,4.166,0,0,1,3.832.41,8.9,8.9,0,0,0,2.2,1.5c1.418.406,3.008-.722,4.358-.173a1.9,1.9,0,0,1-.7,3.662,1.688,1.688,0,0,1,.79,2.4,2.529,2.529,0,0,1-2.516,1.075,5.313,5.313,0,0,1-2.572-1.263c-.752-.605-1.436-1.3-2.237-1.842a4.136,4.136,0,0,0-2.715-.831,3.792,3.792,0,0,0-2.884,2.388,9.75,9.75,0,0,0-.579,3.858,15.977,15.977,0,0,1-.271,3.907.5.5,0,0,1-.241.376c-.207.075-.4-.139-.515-.331a19.143,19.143,0,0,1-2.568-7.024,5.958,5.958,0,0,1,.466-4.072c.729-1.26,2.689-2.256,3.715-1.553" transform="translate(-110.431 -75.583)"/><path class="m" d="M125.74,105.628c-.068-.026-2.632-.7-2.489,1.906a1.961,1.961,0,0,0,2.741,1.839C125.992,109.3,125.74,105.628,125.74,105.628Z" transform="translate(-110.199 -94.269)"/><path class="n" d="M126.236,109.858a.84.84,0,0,1-.117.075.447.447,0,0,1-.338.026,1.128,1.128,0,0,1-.583-.978,1.5,1.5,0,0,1,.09-.658.526.526,0,0,1,.32-.376.237.237,0,0,1,.278.109c.038.068.023.124.038.128s.053-.049.026-.154a.289.289,0,0,0-.113-.158.338.338,0,0,0-.256-.053.647.647,0,0,0-.451.432,1.572,1.572,0,0,0-.113.752,1.18,1.18,0,0,0,.729,1.087.485.485,0,0,0,.414-.094C126.236,109.922,126.248,109.861,126.236,109.858Z" transform="translate(-111.301 -95.694)"/><path class="m" d="M134.941,81.521a7.035,7.035,0,0,1,7.52,6.648c.173,3.268.323,6.8.286,8.585-.079,3.82-3.9,4.384-3.9,4.384s.083,1.128.177,2.538a5.035,5.035,0,0,1-4.832,5.37h0a5.031,5.031,0,0,1-5.219-4.843L128.4,88.786a7.035,7.035,0,0,1,6.543-7.28Z" transform="translate(-113.414 -79.277)"/><path class="n" d="M148.058,131.224a9.107,9.107,0,0,1-4.888-1.5s1.154,2.779,4.971,2.467Z" transform="translate(-122.632 -109.364)"/><path class="g" d="M160.577,105.554a.545.545,0,0,1-.53.549.523.523,0,0,1-.557-.5.549.549,0,0,1,.53-.549.519.519,0,0,1,.556.5Z" transform="translate(-132.815 -93.974)"/><path class="g" d="M159.709,101.863c-.068.068-.481-.241-1.068-.244s-1.019.29-1.083.214.038-.158.226-.293a1.5,1.5,0,0,1,.869-.259,1.433,1.433,0,0,1,.85.282C159.683,101.7,159.743,101.829,159.709,101.863Z" transform="translate(-131.598 -91.617)"/><path class="g" d="M145.5,105.334a.541.541,0,0,1-.53.545.519.519,0,0,1-.556-.5.549.549,0,0,1,.53-.545.519.519,0,0,1,.556.5Z" transform="translate(-123.406 -93.837)"/><path class="g" d="M144.408,102.039c-.068.071-.478-.237-1.064-.241s-1.023.29-1.083.214.038-.158.226-.293a1.482,1.482,0,0,1,.869-.259,1.421,1.421,0,0,1,.846.278A.54.54,0,0,1,144.408,102.039Z" transform="translate(-122.054 -91.729)"/><path class="g" d="M153.138,106.5a3.812,3.812,0,0,1,.955-.165c.15,0,.293-.041.316-.143a.752.752,0,0,0-.094-.447c-.139-.376-.282-.752-.436-1.128a18.821,18.821,0,0,1-.97-3.008,18.951,18.951,0,0,1,1.211,2.91l.414,1.154a.854.854,0,0,1,.075.587.376.376,0,0,1-.248.218.959.959,0,0,1-.256.034A3.805,3.805,0,0,1,153.138,106.5Z" transform="translate(-128.704 -91.822)"/><path class="g" d="M148.757,115.67c.1,0,.094.632.635,1.087s1.222.376,1.226.481-.154.124-.44.128a1.587,1.587,0,0,1-1.023-.376,1.391,1.391,0,0,1-.493-.914C148.641,115.82,148.716,115.666,148.757,115.67Z" transform="translate(-126.057 -100.596)"/><path class="g" d="M143.778,97.147c-.06.158-.647.079-1.335.154s-1.248.263-1.339.117c-.041-.068.056-.218.282-.376a2.324,2.324,0,0,1,2.038-.211C143.692,96.944,143.8,97.072,143.778,97.147Z" transform="translate(-121.338 -88.752)"/><path class="g" d="M159.77,97.165c-.105.132-.508,0-1,0s-.9.083-.993-.06c-.041-.068.026-.2.207-.323a1.391,1.391,0,0,1,.812-.214,1.414,1.414,0,0,1,.79.275C159.758,96.962,159.815,97.1,159.77,97.165Z" transform="translate(-131.741 -88.676)"/><path class="g" d="M142.457,85.7c-.752,1.075-3.685.639-5.155-.466a8.412,8.412,0,0,0-3.189-1.67,3.275,3.275,0,0,0-2.482.489,6.306,6.306,0,0,0-1.8,1.858c.9,2,.511,4.317.109,6.471a1.106,1.106,0,0,1-.282.654.9.9,0,0,1-1.128-.177,3.407,3.407,0,0,1-.854-1.752,11.281,11.281,0,0,1-.237-4.467,7.723,7.723,0,0,1,1.88-4.02,7.336,7.336,0,0,1,5.012-2.256,9.024,9.024,0,0,1,5.313,1.553,5.264,5.264,0,0,1,1.8,1.85" transform="translate(-112.741 -78.564)"/><path class="i" d="M114.476,444.85l.18,7.693s-7.761,2.764-7.866,4.189l14.928.192.218-12Z" transform="translate(-99.932 -305.999)"/><g class="o" transform="translate(18.618 145.943)"><path class="f" d="M138.791,463.725a.609.609,0,0,1,.41.7.583.583,0,0,1-.688.417.65.65,0,0,1-.436-.752.609.609,0,0,1,.752-.35" transform="translate(-138.063 -463.711)"/></g><g class="o" transform="translate(6.853 149.729)"><path class="f" d="M121.709,474.991l-.023-1.211-14.308.271s-.669.278-.6.752Z" transform="translate(-106.776 -473.78)"/></g><path class="g" d="M127.068,464.967c0,.071.376.109.718.35s.545.549.613.519-.038-.451-.474-.752S127.042,464.9,127.068,464.967Z" transform="translate(-112.584 -318.502)"/><path class="g" d="M122.88,466.721c0,.071.3.2.541.508s.308.639.376.639.124-.414-.188-.8S122.884,466.65,122.88,466.721Z" transform="translate(-109.971 -319.628)"/><path class="g" d="M119.527,469.615c.068,0,.173-.346,0-.752s-.519-.564-.553-.5.177.278.323.609S119.455,469.608,119.527,469.615Z" transform="translate(-107.532 -320.661)"/><path class="g" d="M127.475,460c.026.068.376-.026.775,0s.752.169.771.105-.267-.323-.752-.357S127.438,459.94,127.475,460Z" transform="translate(-112.837 -315.291)"/><path class="g" d="M127.46,454.343a1.406,1.406,0,0,0,.752,0,3.422,3.422,0,0,0,.782-.229,3.923,3.923,0,0,0,.432-.222.991.991,0,0,0,.229-.173.312.312,0,0,0,.038-.376.4.4,0,0,0-.316-.173,1.056,1.056,0,0,0-.282.034,3.235,3.235,0,0,0-.466.154,2.741,2.741,0,0,0-.7.444c-.35.316-.474.587-.447.6s.2-.2.56-.463a3.008,3.008,0,0,1,.673-.376,2.475,2.475,0,0,1,.429-.128c.158-.038.293-.038.335.034s0,.038-.019.083a.7.7,0,0,1-.165.124,3.89,3.89,0,0,1-.4.222,3.964,3.964,0,0,1-.726.267A5.843,5.843,0,0,0,127.46,454.343Z" transform="translate(-112.829 -311.19)"/><path class="g" d="M126.117,452.643a1.214,1.214,0,0,0,.2-.722,2.339,2.339,0,0,0-.09-.82,2.566,2.566,0,0,0-.184-.455.609.609,0,0,0-.474-.376.342.342,0,0,0-.312.2.978.978,0,0,0-.083.275,1.62,1.62,0,0,0,0,.5,1.711,1.711,0,0,0,.308.775c.286.376.59.481.594.459a2.925,2.925,0,0,1-.444-.556,1.723,1.723,0,0,1-.229-.707,1.661,1.661,0,0,1,0-.429c.026-.162.086-.286.147-.271a.529.529,0,0,1,.259.248,2.434,2.434,0,0,1,.18.41,2.677,2.677,0,0,1,.135.752C126.159,452.357,126.076,452.628,126.117,452.643Z" transform="translate(-111.393 -309.381)"/><path class="i" d="M187.106,445.6l-.29,7.69s7.72,2.877,7.806,4.3l-14.932-.023-.041-12Z" transform="translate(-145.395 -306.448)"/><g class="o" transform="translate(36.373 146.155)"><path class="f" d="M185.718,464.31a.609.609,0,0,0-.425.7.59.59,0,0,0,.684.425.639.639,0,0,0,.444-.752.6.6,0,0,0-.752-.376" transform="translate(-185.282 -464.273)"/></g><g class="o" transform="translate(34.296 149.914)"><path class="f" d="M179.76,475.481l.041-1.211,14.289.478s.666.29.59.752Z" transform="translate(-179.76 -474.27)"/></g><path class="g" d="M197.1,465.8c0,.071-.376.105-.73.338s-.549.541-.617.511.041-.451.481-.726S197.111,465.732,197.1,465.8Z" transform="translate(-155.429 -319.029)"/><path class="g" d="M201.908,467.589c0,.071-.3.192-.549.5s-.32.635-.376.632-.12-.414.2-.793S201.9,467.517,201.908,467.589Z" transform="translate(-158.677 -320.168)"/><path class="g" d="M205.733,470.537c-.068,0-.169-.35.019-.752s.53-.557.56-.5-.18.274-.331.6S205.8,470.53,205.733,470.537Z" transform="translate(-161.615 -321.241)"/><path class="g" d="M196.465,460.8c-.03.064-.376-.034-.775,0s-.733.154-.752.094.271-.323.752-.35S196.507,460.746,196.465,460.8Z" transform="translate(-154.934 -315.792)"/><path class="g" d="M195.331,455.128a1.4,1.4,0,0,1-.752,0,3.385,3.385,0,0,1-.778-.244,3.434,3.434,0,0,1-.432-.229.861.861,0,0,1-.226-.173.323.323,0,0,1-.03-.376.406.406,0,0,1,.32-.165.867.867,0,0,1,.278.041,2.422,2.422,0,0,1,.466.158,2.7,2.7,0,0,1,.688.455c.346.32.462.594.44.609s-.2-.207-.553-.47a3.074,3.074,0,0,0-.669-.376,2.73,2.73,0,0,0-.429-.132c-.158-.041-.293-.041-.331.026s0,.038,0,.086a.812.812,0,0,0,.165.128,3.509,3.509,0,0,0,.376.226,4.252,4.252,0,0,0,.722.278A4.647,4.647,0,0,1,195.331,455.128Z" transform="translate(-153.766 -311.671)"/><path class="g" d="M198.511,453.443a1.2,1.2,0,0,1-.2-.726,2.446,2.446,0,0,1,.1-.816,2.614,2.614,0,0,1,.192-.455.62.62,0,0,1,.478-.376.346.346,0,0,1,.312.211,1.035,1.035,0,0,1,.079.271,1.614,1.614,0,0,1,0,.5,1.7,1.7,0,0,1-.32.775c-.293.376-.6.474-.6.447a3.127,3.127,0,0,0,.455-.549,1.764,1.764,0,0,0,.237-.7,1.535,1.535,0,0,0,0-.432c-.023-.158-.083-.286-.139-.271a.557.557,0,0,0-.263.244,2.422,2.422,0,0,0-.184.406,2.728,2.728,0,0,0-.147.752C198.474,453.157,198.572,453.431,198.511,453.443Z" transform="translate(-157.041 -309.88)"/><path class="g" d="M133.947,247.423l11.3,81.085-10.965-.214-12.127-67.935,2.666,68.259-12.006-.741L108.6,246.93Z" transform="translate(-101.061 -182.5)"/><path class="i" d="M128.825,140.875l-.147-4.535a5.49,5.49,0,0,0,5.621,4.095c4.512-.049,4.426-3.655,4.426-3.655l.162,1.827v7.381l-2.94,12.033-3.76.478-4.136-16.466Z" transform="translate(-113.197 -113.494)"/><path class="g" d="M139.6,143.723a.5.5,0,0,1-.053.1,2.642,2.642,0,0,1-.181.263,3.854,3.854,0,0,1-.839.812,4.888,4.888,0,0,1-1.568.752,5.517,5.517,0,0,1-2.117.147,6.889,6.889,0,0,1-2.034-.613,8.943,8.943,0,0,1-1.485-.895,10.2,10.2,0,0,1-.9-.752c-.1-.094-.177-.169-.229-.222s-.075-.079-.071-.083l.086.068.241.207c.207.181.515.432.914.718a9.346,9.346,0,0,0,1.482.872,7,7,0,0,0,2.008.594,5.493,5.493,0,0,0,2.083-.135,4.888,4.888,0,0,0,1.553-.707,4.255,4.255,0,0,0,.85-.782C139.5,143.847,139.587,143.719,139.6,143.723Z" transform="translate(-114.488 -117.794)"/><path class="b" d="M119.732,201.718l.068-19.463-.083-25.411-6.392-15.624-.2-4.7-3.7,2.813s-5.392,18.56-5.475,17.914,1.3,16.488,1.3,16.488L103.12,202.6Z" transform="translate(-97.642 -113.607)"/><path class="b" d="M151.569,138.994c-1.087-1.9-1.651-1.7-1.651-1.7l.056.677v1.425l-.515,6.1L146,156.938l.538,25.336,1.286,20.034,16-1.309-5.561-27.592,2-19.057-.143-10.5Z" transform="translate(-124.398 -114.084)"/><path class="g" d="M119.841,253.149a2.012,2.012,0,0,1-.233.376,7.49,7.49,0,0,1-.79.948,8.306,8.306,0,0,1-7.483,2.38,7.556,7.556,0,0,1-1.192-.32,1.818,1.818,0,0,1-.414-.184c0-.038.609.211,1.628.376a8.648,8.648,0,0,0,7.366-2.331C119.465,253.672,119.811,253.126,119.841,253.149Z" transform="translate(-101.766 -186.38)"/><path class="i" d="M117.384,258.487a4.69,4.69,0,0,0-.192-.752l1.685-.981a5.5,5.5,0,0,0-3.268-.9,6.179,6.179,0,0,0-2.88,1.109,1.91,1.91,0,0,0-.557.376,1.051,1.051,0,0,0-.15.1,1.594,1.594,0,0,0-.211.211h0a3.117,3.117,0,0,0-.59,1.482,11.018,11.018,0,0,0-.064,3.426c.06.436.226.951.658,1.034a.681.681,0,0,0,.662-.308,9.185,9.185,0,0,0,.143,1.47c.068.376.248.812.624.823s.6-.463.666-.85a9.2,9.2,0,0,0,.1-2.489,4.457,4.457,0,0,1,.2,1.388c.068.466.429.978.891.884s.594-.658.643-1.128c.12-1.207.244-2.418.376-3.625a9.582,9.582,0,0,1,.421,1.354c.184.436.775.79,1.128.463a.981.981,0,0,0,.143-.88C117.663,259.965,117.527,259.228,117.384,258.487Z" transform="translate(-102.592 -188.064)"/><path class="g" d="M117.446,282.442a2.273,2.273,0,0,1-.353.376,7.311,7.311,0,0,1-1.105.857,5.467,5.467,0,0,1-1.933.775,4.106,4.106,0,0,1-2.523-.316,3.535,3.535,0,0,1-1.7-1.88,6.039,6.039,0,0,1-.417-2.038,12.988,12.988,0,0,1,.023-1.4,2.7,2.7,0,0,1,.056-.508c.041,0,0,.733.06,1.88a6.133,6.133,0,0,0,.444,1.974,3.384,3.384,0,0,0,1.621,1.779,4.031,4.031,0,0,0,2.407.316,5.61,5.61,0,0,0,1.88-.718A17.887,17.887,0,0,0,117.446,282.442Z" transform="translate(-101.564 -202.081)"/><path class="g" d="M166.716,253.735a1.819,1.819,0,0,1-.241.18,4.831,4.831,0,0,1-.722.376,7.054,7.054,0,0,1-5.283.109,5.6,5.6,0,0,1-.752-.35c-.165-.1-.252-.158-.248-.173s.376.173,1.034.376a7.727,7.727,0,0,0,5.182-.105C166.332,253.927,166.7,253.705,166.716,253.735Z" transform="translate(-132.803 -186.745)"/><path class="g" d="M146.756,215.769a1.324,1.324,0,0,1-.023-.278v-.8c0-.714-.023-1.711-.041-2.937-.038-2.5-.09-5.907-.15-9.679s-.124-7.189-.165-9.686c0-1.222-.03-2.219-.038-2.933v-.8a1.4,1.4,0,0,1,0-.282,1.506,1.506,0,0,1,.026.278c0,.2.023.466.038.8.026.714.06,1.711.1,2.937.071,2.474.158,5.9.222,9.682s.1,7.2.094,9.682c0,1.241,0,2.256-.023,2.937,0,.331,0,.6-.019.8A2.26,2.26,0,0,1,146.756,215.769Z" transform="translate(-124.604 -145.966)"/><path class="c" d="M120.02,152.1l.752.568-.53,3.463,8.874,9.3-8.058-10.581.688-2.745Z" transform="translate(-108.187 -123.328)"/><path class="b" d="M110.777,171.949l-13.616-3.993-.451-10.341L100.437,144s-8.893,4.429-9.5,7.257a94.693,94.693,0,0,0-2.222,14.665c-.139,4.441-.158,7.408.854,8.825,1.7,2.384,9,3.926,16.285,3.572,5.125-.252,10.239-1.6,13.4-3.58" transform="translate(-88.611 -118.274)"/><path class="g" d="M129.214,155.933l-.045-.049-.124-.15-.459-.6-1.685-2.188-5.535-7.246-.417-.549v-.041c.237-.948.466-1.88.688-2.741l.045.056H119.9V139.3h0l2.677-2.034.752-.549.2-.143.068-.045-.064.053-.184.15-.722.568-2.658,2.061v3.027l-.026-.041h1.782v.056c-.222.876-.451,1.8-.688,2.745v-.041l.417.545,5.512,7.265,1.662,2.207.447.6.117.162Z" transform="translate(-108.112 -113.613)"/><path class="b" d="M150.159,154.74a9.383,9.383,0,0,1,3.508,6.216c.226,3.113.752,11.657.842,13.5.147,2.892-2.106,9.66-7.964,7.742-3.512-1.151-16.5-5.565-16.5-5.565l.861-5.512,15.417.917.3-12.852Z" transform="translate(-114.445 -124.976)"/><path class="m" d="M119.057,199.506a33.4,33.4,0,0,0-5.373-.229,7.428,7.428,0,0,0-2.354,1.425l.023,1.722,7.017,1.97Z" transform="translate(-102.765 -152.723)"/><path class="g" d="M146.43,156.739l.023-.056a.718.718,0,0,1,.064-.173c.064-.154.15-.376.259-.651.233-.572.568-1.384.978-2.391s.91-2.207,1.459-3.538c.139-.331.274-.677.447-1.015s.357-.677.557-1.015a22.53,22.53,0,0,1,1.388-2c.252-.323.5-.639.752-.94v.049l-.541-1.384v-.045h.049l2.256-.775-.023.064-2.564-4.317a3.357,3.357,0,0,0-.857-1.128,1.222,1.222,0,0,0-.346-.143l-.128-.03h.132a1.072,1.072,0,0,1,.353.128,1.591,1.591,0,0,1,.44.425,7.361,7.361,0,0,1,.451.681l2.587,4.313.026.049h-.049l-2.256.778.026-.06c.177.451.376.91.545,1.38v.026l-.019.023c-.259.3-.515.617-.752.94a23.094,23.094,0,0,0-1.38,1.989c-.2.335-.395.669-.557,1.008s-.308.673-.447,1.008l-1.478,3.531c-.425,1-.752,1.812-1,2.38l-.278.643-.075.169C146.441,156.709,146.434,156.743,146.43,156.739Z" transform="translate(-124.666 -114.062)"/><path class="g" d="M140.349,214.23l-.053.056-.165.162a5.21,5.21,0,0,1-.711.538,4.79,4.79,0,0,1-1.3.541,5.162,5.162,0,0,1-1.854.117,5.9,5.9,0,0,1-1.064-.222c-.376-.117-.726-.259-1.109-.376-.752-.274-1.576-.56-2.437-.865-1.718-.6-3.614-1.245-5.614-1.9-3.993-1.312-7.637-2.418-10.28-3.207l-3.128-.925-.85-.252-.222-.068-.075-.026h.079l.222.06.857.237c.752.207,1.812.511,3.136.895,2.632.752,6.295,1.88,10.292,3.181,2,.654,3.9,1.3,5.614,1.91.857.3,1.673.594,2.437.876.376.135.752.278,1.1.376a5.764,5.764,0,0,0,1.049.226,5.17,5.17,0,0,0,1.835-.1,4.8,4.8,0,0,0,1.29-.523,5.516,5.516,0,0,0,.714-.519l.173-.154C140.327,214.245,140.349,214.226,140.349,214.23Z" transform="translate(-102.864 -158.084)"/><path class="g" d="M105.684,207.708c0,.019-.248-.034-.635,0a2.858,2.858,0,0,0-.677.109,3.137,3.137,0,0,0-.752.346,3.55,3.55,0,0,0-1.057,1.083c-.207.335-.3.564-.312.557s0-.06.053-.165a2.549,2.549,0,0,1,.2-.425,3.3,3.3,0,0,1,1.06-1.128,3.193,3.193,0,0,1,.786-.35,2.755,2.755,0,0,1,.7-.094,2.348,2.348,0,0,1,.47.045A.534.534,0,0,1,105.684,207.708Z" transform="translate(-97.096 -157.984)"/><path class="g" d="M100,203.5v-.049a.376.376,0,0,1,.083-.12.876.876,0,0,1,.485-.241,2.478,2.478,0,0,1,.8,0,4.575,4.575,0,0,1,.948.233,4.155,4.155,0,0,1,1.5.918,3.259,3.259,0,0,1,.35.41,1.13,1.13,0,0,1,.1.169,4.242,4.242,0,0,0-.5-.526,4.422,4.422,0,0,0-1.5-.88,4.6,4.6,0,0,0-.929-.233,2.486,2.486,0,0,0-.775-.023.857.857,0,0,0-.47.2A1.294,1.294,0,0,0,100,203.5Z" transform="translate(-95.695 -155.122)"/><path class="g" d="M104.34,165.921a1.529,1.529,0,0,1-.064-.282c-.026-.086-.068-.192-.109-.316a1.976,1.976,0,0,0-.2-.395,5.558,5.558,0,0,0-.692-.925,7.519,7.519,0,0,0-1.064-.933A6.354,6.354,0,0,0,99.884,162a4.806,4.806,0,0,0-.775-.1,1.526,1.526,0,0,1-.29-.023,1.593,1.593,0,0,1,.29,0,4.019,4.019,0,0,1,.786.071,6.084,6.084,0,0,1,2.369,1.057,7.061,7.061,0,0,1,1.072.951,5.235,5.235,0,0,1,.688.951,4.229,4.229,0,0,1,.192.41c.041.128.075.237.1.327A1.658,1.658,0,0,1,104.34,165.921Z" transform="translate(-94.958 -129.426)"/><path class="g" d="M150.346,204.573v-.263a6.9,6.9,0,0,0-.034-.752,10.6,10.6,0,0,0-.549-2.666,3.831,3.831,0,0,0-.376-.812,1.624,1.624,0,0,0-.722-.613,6.367,6.367,0,0,0-2.125-.275l-4.967-.207c-4.1-.181-7.75-.335-10.043-.459l.03-.023c-.139.842-.248,1.5-.323,1.974-.041.226-.071.4-.09.523a.214.214,0,0,1-.026.135V201c0-.124.045-.3.075-.523.071-.466.173-1.128.3-1.982v-.023h.03l10.043.417,4.967.214c.376.023.752.03,1.128.06a3.144,3.144,0,0,1,1.034.233,1.662,1.662,0,0,1,.752.643,3.866,3.866,0,0,1,.376.831,10.006,10.006,0,0,1,.519,2.689c.023.32.023.572.019.752v.192A.461.461,0,0,1,150.346,204.573Z" transform="translate(-115.113 -152.262)"/><path class="g" d="M174.349,182.61c.026,0,.049,1.5.049,3.335s-.023,3.332-.049,3.332-.049-1.5-.049-3.332S174.323,182.61,174.349,182.61Z" transform="translate(-142.057 -142.366)"/><path class="g" d="M90.976,162.41a.344.344,0,0,1-.038.124,1.822,1.822,0,0,0-.109.376c-.09.32-.207.8-.335,1.421-.256,1.245-.572,3.068-.929,5.351-.177,1.128-.376,2.4-.549,3.76-.094.681-.154,1.387-.2,2.121s-.086,1.485-.117,2.256c-.056,1.553-.09,3.2-.045,4.911,0,.425.03.857.068,1.294a4.947,4.947,0,0,0,.229,1.29,3.633,3.633,0,0,0,.613,1.169,2.655,2.655,0,0,0,1.053.812h0a15.655,15.655,0,0,0,2.741,1.049c.959.286,1.944.519,2.948.722a40.634,40.634,0,0,0,6.622.808,30.305,30.305,0,0,0,3.162-.083q1.545-.107,3.008-.323A31.828,31.828,0,0,0,114.5,188.2a27.679,27.679,0,0,0,4.362-1.88v.06l-5.982-2.117-1.6-.575-.417-.154-.139-.053.143.045.414.162,1.617.56,5.994,2.072.071.026-.068.034a27.272,27.272,0,0,1-4.369,1.88,31.11,31.11,0,0,1-5.4,1.267c-.974.147-1.982.256-3.008.327a30.454,30.454,0,0,1-3.174.086,40.793,40.793,0,0,1-6.637-.8c-1.008-.207-2-.44-2.956-.729a16.1,16.1,0,0,1-2.76-1.053h0a2.692,2.692,0,0,1-1.094-.839,3.686,3.686,0,0,1-.628-1.2,4.984,4.984,0,0,1-.162-.651c-.026-.222-.064-.44-.075-.658-.034-.44-.049-.872-.06-1.3-.045-1.715,0-3.358.049-4.915q.045-1.166.12-2.256c.053-.733.113-1.44.207-2.121.188-1.357.376-2.632.564-3.76.376-2.282.688-4.106.959-5.351.132-.624.252-1.1.346-1.421.041-.162.094-.278.12-.376Z" transform="translate(-88.551 -129.762)"/><path class="c" d="M111.33,187.523c2.279-2.519,2.177-7,.872-10.183-.12,3.444-.526,6.5-.839,9.848" transform="translate(-102.765 -139.078)"/><path class="g" d="M112.249,179.05a.44.44,0,0,1,0,.113,1.679,1.679,0,0,1-.023.312c-.023.286-.053.681-.09,1.158-.079.985-.192,2.328-.312,3.813s-.222,2.824-.3,3.813c-.034.478-.064.869-.086,1.154a1.111,1.111,0,0,1-.026.316c-.026.083,0,.109,0,.109a.3.3,0,0,1,0-.109v-.316c0-.275.03-.669.056-1.158.056-.978.15-2.328.271-3.817s.244-2.839.342-3.813c.053-.478.09-.869.12-1.151a1.966,1.966,0,0,1,.041-.316A.376.376,0,0,1,112.249,179.05Z" transform="translate(-102.807 -140.145)"/><path class="g" d="M128.509,166.94c.026,0,.049.876.049,1.955s-.023,1.955-.049,1.955-.049-.876-.049-1.955S128.483,166.94,128.509,166.94Z" transform="translate(-113.453 -132.588)"/><path class="c" d="M124.64,178.968a2,2,0,0,0,.421,1.038,1.365,1.365,0,0,0,1,.53,1.523,1.523,0,0,0,1.346-.673,3.835,3.835,0,0,0,.188-2.925,1.677,1.677,0,0,0-1.38-1.128,1.527,1.527,0,0,0-1.5,1.162" transform="translate(-111.07 -138.123)"/><path class="g" d="M124.7,176.927a1.268,1.268,0,0,1,.15-.4,1.681,1.681,0,0,1,.308-.4,1.368,1.368,0,0,1,.575-.338,1.413,1.413,0,0,1,.376-.064,1.173,1.173,0,0,1,.421.056,1.628,1.628,0,0,1,.752.541,2.166,2.166,0,0,1,.444.925,3.921,3.921,0,0,1,.083,1.1,3.027,3.027,0,0,1-.47,1.594,1.391,1.391,0,0,1-.617.462,1.609,1.609,0,0,1-.692.117h0a1.052,1.052,0,0,1-.5-.12,1.669,1.669,0,0,1-.376-.263,1.846,1.846,0,0,1-.41-.609,1.782,1.782,0,0,1-.128-.447.935.935,0,0,1,0-.124v-.041a2.632,2.632,0,0,0,.18.594,1.978,1.978,0,0,0,.41.583,1.7,1.7,0,0,0,.376.241.925.925,0,0,0,.463.109h0a1.482,1.482,0,0,0,1.23-.56,2.963,2.963,0,0,0,.451-1.545,2.813,2.813,0,0,0-.5-1.959,1.628,1.628,0,0,0-.711-.523,1.128,1.128,0,0,0-.4-.056,1.391,1.391,0,0,0-.929.376,1.753,1.753,0,0,0-.308.376,3.95,3.95,0,0,0-.184.376Z" transform="translate(-111.054 -138.071)"/><path class="c" d="M123.49,179.068a2,2,0,0,0,.421,1.038,1.357,1.357,0,0,0,1,.53,1.5,1.5,0,0,0,1.346-.677,3.828,3.828,0,0,0,.188-2.922,1.688,1.688,0,0,0-1.384-1.128,1.53,1.53,0,0,0-1.5,1.166" transform="translate(-110.352 -138.185)"/><path class="g" d="M123.539,177.006a1.267,1.267,0,0,1,.15-.4,1.741,1.741,0,0,1,.3-.4,1.5,1.5,0,0,1,.579-.338,1.387,1.387,0,0,1,.376-.06,1.105,1.105,0,0,1,.425.056,1.647,1.647,0,0,1,.752.541,2.166,2.166,0,0,1,.444.925,3.906,3.906,0,0,1,.083,1.094,3.042,3.042,0,0,1-.47,1.6,1.462,1.462,0,0,1-.617.463,1.617,1.617,0,0,1-.7.117h0a1.038,1.038,0,0,1-.5-.124,1.6,1.6,0,0,1-.376-.259,1.88,1.88,0,0,1-.41-.609,1.823,1.823,0,0,1-.128-.447,1,1,0,0,1,0-.124.117.117,0,0,1,0-.041,2.632,2.632,0,0,0,.18.594,1.854,1.854,0,0,0,.41.579,1.5,1.5,0,0,0,.376.244.966.966,0,0,0,.463.109h0a1.478,1.478,0,0,0,1.23-.556,2.971,2.971,0,0,0,.451-1.545,2.828,2.828,0,0,0-.5-1.959,1.591,1.591,0,0,0-.714-.523,1.026,1.026,0,0,0-.376-.056,1.283,1.283,0,0,0-.376.053,1.346,1.346,0,0,0-.564.32,1.553,1.553,0,0,0-.308.376A3.944,3.944,0,0,0,123.539,177.006Z" transform="translate(-110.33 -138.119)"/><path class="c" d="M123.741,178.457a.944.944,0,0,0-.993.572,1.632,1.632,0,0,0,0,1.207,1.5,1.5,0,0,0,.308.541.82.82,0,0,0,.553.271.966.966,0,0,0,.752-.451,1.737,1.737,0,0,0,.263-1.421c-.086-.32-.323-.647-.654-.658" transform="translate(-109.817 -139.769)"/><path class="g" d="M123.9,178.462h.075a.5.5,0,0,1,.2.068.985.985,0,0,1,.425.635,1.764,1.764,0,0,1-.117,1.128,1.433,1.433,0,0,1-.414.545.8.8,0,0,1-.714.173,1.015,1.015,0,0,1-.572-.466,2.207,2.207,0,0,1-.237-.639,1.448,1.448,0,0,1,.184-1.128,1.011,1.011,0,0,1,.647-.41.753.753,0,0,1,.211,0c.049,0,.071.019.071.023a.953.953,0,0,0-.274,0,1,1,0,0,0-.6.414,1.384,1.384,0,0,0-.154,1.06,2.057,2.057,0,0,0,.233.609.914.914,0,0,0,.515.421.714.714,0,0,0,.632-.154,1.421,1.421,0,0,0,.376-.508,1.715,1.715,0,0,0,.128-1.079.981.981,0,0,0-.376-.62A.877.877,0,0,0,123.9,178.462Z" transform="translate(-109.738 -139.714)"/><path class="g" d="M126.469,185.772a1.105,1.105,0,0,0-.1-.132.7.7,0,0,0-.316-.2,1.655,1.655,0,0,0-.376-.06c-.105,0-.169,0-.169-.03s.064-.026.169-.038a1.068,1.068,0,0,1,.417.038.621.621,0,0,1,.342.252C126.484,185.7,126.48,185.772,126.469,185.772Z" transform="translate(-111.613 -144.047)"/><path class="g" d="M126.671,177.8a.414.414,0,0,1-.117.132.929.929,0,0,1-.376.173.94.94,0,0,1-.425-.026c-.105-.034-.162-.075-.154-.083a1.425,1.425,0,0,0,1.083-.2Z" transform="translate(-111.668 -139.365)"/><path class="g" d="M162.25,142.56a.132.132,0,0,1,.06.023,1.107,1.107,0,0,1,.165.083,3.2,3.2,0,0,1,.553.4,3.959,3.959,0,0,1,1.192,1.88,12.035,12.035,0,0,1,.455,2.192c.03.286.049.515.06.677a1.258,1.258,0,0,1,0,.248,1.044,1.044,0,0,1-.041-.244c-.026-.177-.056-.4-.09-.673a14.359,14.359,0,0,0-.481-2.173,4.091,4.091,0,0,0-1.128-1.861A6.121,6.121,0,0,0,162.25,142.56Z" transform="translate(-134.538 -117.375)"/><path class="g" d="M156.014,195.834c.538-.023.966-.557,1.5-.526a.752.752,0,1,1-.124,1.485c-.564-.068-.891-.726-1.444-.854" transform="translate(-130.607 -150.288)"/><path class="g" d="M158.3,172.337a2.925,2.925,0,0,1-.5-.041l.03-.18a2.136,2.136,0,0,0,1.654-.323,3.117,3.117,0,0,0,1.049-2.14v-.038c.06-.406.143-8.318.143-9.818a2.564,2.564,0,0,0-2.147-2.681c-.083,0-1.955-.327-2.948,2.237-1.038,2.681-2.7,7.855-2.813,8.46a1.587,1.587,0,0,1-.056.271c-.173.778-.534,2.391.545,3.324a2.129,2.129,0,0,0,2.185.617l.079.169a2.308,2.308,0,0,1-2.384-.647c-1.162-1-.786-2.692-.605-3.5l.056-.267c.109-.609,1.779-5.806,2.82-8.494s3.132-2.354,3.151-2.35a2.779,2.779,0,0,1,2.3,2.861c0,1.237-.083,9.4-.147,9.844v.038a3.213,3.213,0,0,1-1.128,2.256A2.117,2.117,0,0,1,158.3,172.337Z" transform="translate(-128.345 -126.336)"/><path class="g" d="M165.711,164.5a3.321,3.321,0,0,0-.376-.921,3.219,3.219,0,0,0-.752-.793,3.162,3.162,0,0,0-1.188-.56,3.489,3.489,0,0,0-2.339.3,4.3,4.3,0,0,0-.816.583s0-.019.041-.056.071-.086.139-.147a2.827,2.827,0,0,1,.6-.44,3.313,3.313,0,0,1,1.042-.376,3.384,3.384,0,0,1,1.354.026,3.136,3.136,0,0,1,1.222.587,3.1,3.1,0,0,1,.733.823,2.425,2.425,0,0,1,.286.692,1.128,1.128,0,0,1,.038.2C165.715,164.481,165.715,164.5,165.711,164.5Z" transform="translate(-133.283 -129.532)"/><path class="g" d="M180.257,203.205a6.187,6.187,0,0,0-.256-.79,3.452,3.452,0,0,0-1.252-1.5,2.741,2.741,0,0,0-1.019-.376c-.335-.056-.639-.075-.895-.094l-.609-.041a.854.854,0,0,1-.226-.03,1.076,1.076,0,0,1,.226,0h.609a8.045,8.045,0,0,1,.91.075,2.692,2.692,0,0,1,1.053.376,3.384,3.384,0,0,1,1.267,1.56,3.036,3.036,0,0,1,.169.59A1.131,1.131,0,0,1,180.257,203.205Z" transform="translate(-143.117 -153.444)"/><path class="m" d="M162.5,191.371a30.313,30.313,0,0,1,2.286-3.117c.466-.361,4.433-2.151,4.888-1.88s.177.914.177.914,1.681-.587,1.861-.357a.831.831,0,0,1,0,.948s.929-.143.929.143a1.177,1.177,0,0,1-.534.966c-.429.323-3.222,2.181-3.444,2.692l-.906-.053Z" transform="translate(-134.694 -144.697)"/><path class="n" d="M176.43,193.117a.53.53,0,0,1,.083-.173,3.379,3.379,0,0,1,.3-.429,4.975,4.975,0,0,1,1.32-1.128,10.15,10.15,0,0,1,1.56-.752l.489-.177a.68.68,0,0,1,.188-.049,1.445,1.445,0,0,1-.173.086l-.478.2a12.463,12.463,0,0,0-1.538.752,5.662,5.662,0,0,0-1.316,1.072C176.573,192.888,176.445,193.129,176.43,193.117Z" transform="translate(-143.386 -147.233)"/><path class="n" d="M170.29,192.059a.921.921,0,0,1,.086-.2c.064-.128.158-.312.282-.534a4.671,4.671,0,0,1,.5-.752,2.415,2.415,0,0,1,.376-.376c.154-.1.316-.2.485-.3a13.338,13.338,0,0,1,1.775-.887,5.313,5.313,0,0,1,.572-.192.906.906,0,0,1,.218-.038,5.968,5.968,0,0,0-.752.293,16.322,16.322,0,0,0-1.771.917c-.165.1-.331.2-.478.293a2.211,2.211,0,0,0-.376.357,6.08,6.08,0,0,0-.511.718l-.3.515A1.305,1.305,0,0,1,170.29,192.059Z" transform="translate(-139.554 -146.216)"/></g><g transform="translate(23.527 116.327)"><path class="g" d="M48.421,328.951a1.634,1.634,0,0,1,.075-.18c.06-.124.139-.3.241-.515a12.978,12.978,0,0,0,.714-2.068,18.271,18.271,0,0,0-.064-7.983,42.949,42.949,0,0,0-1.478-5.358c-.628-1.906-1.357-3.926-1.952-6.107a23.648,23.648,0,0,1-.963-7.02,27.478,27.478,0,0,1,1.636-7.43,35.287,35.287,0,0,0,1.88-7.317,11.153,11.153,0,0,0-1.342-6.768c-1.072-1.97-2.418-3.659-3.426-5.4a18.8,18.8,0,0,1-2.057-5.2,19.41,19.41,0,0,1-.132-8.051,15.041,15.041,0,0,1,.842-2.843,1.269,1.269,0,0,1-.053.192l-.169.545a21.583,21.583,0,0,0-.523,2.124,19.583,19.583,0,0,0,.222,8,18.707,18.707,0,0,0,2.064,5.129c1,1.726,2.358,3.407,3.448,5.4a11.4,11.4,0,0,1,1.384,6.9,36.108,36.108,0,0,1-1.9,7.37,27,27,0,0,0-1.613,7.359,23.411,23.411,0,0,0,.94,6.949c.583,2.173,1.3,4.193,1.921,6.1a42.772,42.772,0,0,1,1.459,5.4,18.011,18.011,0,0,1-.023,8.043,12.087,12.087,0,0,1-.752,2.064c-.113.214-.2.376-.267.508a.857.857,0,0,1-.117.165Z" transform="translate(-35.986 -256.71)"/><path class="i" d="M50.7,286.786s-2.046-6.543,1.639-10.374a.229.229,0,0,1,.376.113C52.911,277.607,53.156,280.9,50.7,286.786Z" transform="translate(-41.563 -268.966)"/><path class="g" d="M52.744,282.31a6.073,6.073,0,0,1-.135,1.207c-.135.831-.293,1.809-.47,2.888l-.455,2.884a6.622,6.622,0,0,1-.218,1.2,5,5,0,0,1,.038-1.218c.068-.752.2-1.775.376-2.9s.376-2.147.541-2.88a5.712,5.712,0,0,1,.323-1.173Z" transform="translate(-42.381 -272.684)"/><path class="i" d="M58,331.162s1.252-6.738,6.287-8.411a.229.229,0,0,1,.293.282C64.261,324.081,62.937,327.1,58,331.162Z" transform="translate(-46.471 -297.91)"/><path class="g" d="M62.886,327.4a6.164,6.164,0,0,1-.688,1c-.508.673-1.1,1.463-1.764,2.331l-1.752,2.339a6.143,6.143,0,0,1-.752.951,5.506,5.506,0,0,1,.6-1.057c.41-.628,1.008-1.478,1.7-2.388s1.342-1.718,1.824-2.29A5.418,5.418,0,0,1,62.886,327.4Z" transform="translate(-46.428 -300.819)"/><path class="i" d="M54.327,373.636s-.752-6.813,3.576-9.874a.229.229,0,0,1,.376.184C58.249,365.044,57.862,368.33,54.327,373.636Z" transform="translate(-44.148 -323.475)"/><path class="g" d="M57.084,369.34a5.912,5.912,0,0,1-.376,1.158L55.7,373.243c-.376,1.027-.714,1.955-1,2.745a7.182,7.182,0,0,1-.44,1.128,4.96,4.96,0,0,1,.267-1.188c.207-.722.534-1.7.933-2.779s.782-2.03,1.079-2.722a5.331,5.331,0,0,1,.545-1.087Z" transform="translate(-44.138 -326.989)"/><path class="i" d="M64.47,419.113s-.515-6.836,3.926-9.739a.226.226,0,0,1,.353.2C68.7,410.667,68.192,413.927,64.47,419.113Z" transform="translate(-50.497 -351.945)"/><path class="g" d="M67.471,414.85a5.851,5.851,0,0,1-.406,1.128c-.32.782-.7,1.7-1.105,2.707l-1.1,2.707a6.879,6.879,0,0,1-.481,1.128,4.922,4.922,0,0,1,.308-1.177c.237-.711.6-1.685,1.03-2.741s.857-2,1.181-2.681a5.3,5.3,0,0,1,.572-1.072Z" transform="translate(-50.452 -355.386)"/><path class="i" d="M33.537,274.356s-6.076-3.174-6.2-8.475a.229.229,0,0,1,.357-.2C28.6,266.31,31.1,268.46,33.537,274.356Z" transform="translate(-27.34 -262.286)"/><path class="g" d="M30.7,271.11a6.016,6.016,0,0,1,.752.951l1.715,2.369,1.718,2.361a6.262,6.262,0,0,1,.692,1,5.569,5.569,0,0,1-.835-.887c-.481-.575-1.128-1.4-1.782-2.324s-1.252-1.786-1.654-2.418A5.265,5.265,0,0,1,30.7,271.11Z" transform="translate(-29.437 -265.695)"/><path class="i" d="M50.056,312.353s-6.257-2.8-6.7-8.084a.229.229,0,0,1,.342-.218C44.641,304.618,47.269,306.615,50.056,312.353Z" transform="translate(-37.335 -286.231)"/><path class="g" d="M47,309.31a6.133,6.133,0,0,1,.816.9c.534.651,1.158,1.418,1.854,2.256l1.858,2.256a6.455,6.455,0,0,1,.752.951,5.011,5.011,0,0,1-.887-.842c-.515-.545-1.2-1.327-1.921-2.211s-1.342-1.692-1.8-2.3A5.641,5.641,0,0,1,47,309.31Z" transform="translate(-39.607 -289.531)"/><path class="i" d="M46.92,350.617s-4.3-5.339-2.282-10.247a.226.226,0,0,1,.4-.038C45.619,341.269,47.07,344.239,46.92,350.617Z" transform="translate(-37.798 -308.822)"/><path class="g" d="M46.67,346.39a6.23,6.23,0,0,1,.312,1.173c.177.823.376,1.79.62,2.858s.447,2.03.628,2.854a7.024,7.024,0,0,1,.237,1.192,5.051,5.051,0,0,1-.414-1.147c-.211-.722-.463-1.726-.7-2.846s-.429-2.136-.549-2.877A5.264,5.264,0,0,1,46.67,346.39Z" transform="translate(-39.401 -312.669)"/><path class="i" d="M52.029,402.907s-6.212-2.9-6.562-8.2a.222.222,0,0,1,.342-.211C46.742,395.082,49.337,397.12,52.029,402.907Z" transform="translate(-38.65 -342.665)"/><path class="g" d="M49,399.81a5.756,5.756,0,0,1,.8.917c.523.658,1.128,1.433,1.816,2.29l1.824,2.286a7.064,7.064,0,0,1,.752.963,5.163,5.163,0,0,1-.872-.846c-.508-.553-1.177-1.346-1.88-2.256s-1.327-1.726-1.76-2.339A5.379,5.379,0,0,1,49,399.81Z" transform="translate(-40.855 -346.002)"/><path class="g" d="M76.173,345.24v.587c0,.414-.045.97-.075,1.666-.079,1.459-.192,3.5-.323,5.934h0a23.31,23.31,0,0,1-3.384,7.9c-1.245,1.967-2.549,3.76-3.674,5.415a37.915,37.915,0,0,0-2.756,4.557,19.3,19.3,0,0,0-1.29,3.339c-.109.41-.192.729-.237.948a1.444,1.444,0,0,1-.094.331,2.073,2.073,0,0,1,.041-.338c.03-.222.1-.549.192-.963a17.712,17.712,0,0,1,1.222-3.384,36.713,36.713,0,0,1,2.722-4.61c1.128-1.673,2.418-3.463,3.655-5.422a23.4,23.4,0,0,0,3.407-7.8h0c.173-2.437.316-4.471.417-5.934l.135-1.658a3.922,3.922,0,0,1,.041-.436A.572.572,0,0,1,76.173,345.24Z" transform="translate(-50.427 -311.951)"/><path class="i" d="M83.706,369.168s2.632-6.332-.677-10.48a.229.229,0,0,0-.4.079C82.33,359.824,81.788,363.08,83.706,369.168Z" transform="translate(-61.649 -320.289)"/><path class="g" d="M84.677,364.7a5.754,5.754,0,0,1,.207,1.2c.094.752.2,1.775.278,2.914s.12,2.177.12,2.929a5.005,5.005,0,0,1-.071,1.215,6.527,6.527,0,0,1-.109-1.211c-.056-.839-.12-1.824-.2-2.914s-.143-2.076-.2-2.918A5.851,5.851,0,0,1,84.677,364.7Z" transform="translate(-63.105 -324.094)"/><g class="j" transform="translate(20.675 38.314)"><path d="M83.706,369.168s2.632-6.332-.677-10.48a.229.229,0,0,0-.4.079C82.33,359.824,81.788,363.08,83.706,369.168Z" transform="translate(-82.324 -358.603)"/></g><path class="i" d="M60.93,409.93s2.106-6.524-1.527-10.389a.229.229,0,0,0-.376.109C58.805,400.729,58.531,404.019,60.93,409.93Z" transform="translate(-47.025 -345.796)"/><path class="g" d="M61.26,405.45a5.109,5.109,0,0,1,.3,1.177c.154.733.342,1.752.515,2.884s.3,2.158.376,2.907a5.035,5.035,0,0,1,.026,1.218,6.441,6.441,0,0,1-.207-1.2c-.124-.835-.267-1.812-.429-2.892s-.312-2.057-.44-2.888A6.015,6.015,0,0,1,61.26,405.45Z" transform="translate(-48.505 -349.521)"/><g class="j" transform="translate(11.862 53.684)"><path d="M60.93,409.93s2.106-6.524-1.527-10.389a.229.229,0,0,0-.376.109C58.805,400.729,58.531,404.019,60.93,409.93Z" transform="translate(-58.887 -399.48)"/></g><path class="i" d="M94.89,350.515s5.614-3.933,5.05-9.209a.229.229,0,0,0-.376-.147C98.748,341.893,96.544,344.352,94.89,350.515Z" transform="translate(-69.49 -309.371)"/><g class="j" transform="translate(25.4 31.734)"><path d="M94.89,350.515s5.614-3.933,5.05-9.209a.229.229,0,0,0-.376-.147C98.748,341.893,96.544,344.352,94.89,350.515Z" transform="translate(-94.89 -341.105)"/></g><path class="g" d="M99.008,346.88a5.193,5.193,0,0,1-.466,1.128c-.32.677-.786,1.6-1.327,2.606s-1.068,1.9-1.47,2.538a4.856,4.856,0,0,1-.714.985,6.582,6.582,0,0,1,.56-1.079l1.4-2.564,1.391-2.568A6.392,6.392,0,0,1,99.008,346.88Z" transform="translate(-69.577 -312.974)"/><path class="i" d="M70.34,399.537s6.768-1.053,8.588-6.039a.229.229,0,0,0-.274-.3C77.6,393.494,74.536,394.735,70.34,399.537Z" transform="translate(-54.171 -341.871)"/><g class="j" transform="translate(16.169 51.319)"><path d="M70.34,399.537s6.768-1.053,8.588-6.039a.229.229,0,0,0-.274-.3C77.6,393.494,74.536,394.735,70.34,399.537Z" transform="translate(-70.34 -393.189)"/></g><path class="g" d="M77.2,397.52a5.55,5.55,0,0,1-.917.8c-.587.47-1.414,1.094-2.343,1.76s-1.8,1.237-2.437,1.628a5.175,5.175,0,0,1-1.075.572,6.2,6.2,0,0,1,.978-.722c.684-.489,1.5-1.057,2.384-1.688l2.384-1.692A6.122,6.122,0,0,1,77.2,397.52Z" transform="translate(-54.227 -344.573)"/><path class="h" d="M49.02,443.23l1.944,12.743,7.761-.015,2.613-12.728Z" transform="translate(-40.868 -373.095)"/><path class="g" d="M61.7,451.1s0,.019-.064.045a1.5,1.5,0,0,1-.2.12,2.842,2.842,0,0,1-.869.256,3.141,3.141,0,0,1-1.425-.132,2.963,2.963,0,0,1-1.534-1.128,2.155,2.155,0,0,1-.376-1.064,1.154,1.154,0,0,1,.526-1.094,1.252,1.252,0,0,1,1.3.105,1.88,1.88,0,0,1,.752,1.169,4.975,4.975,0,0,1,.1,1.44,4.666,4.666,0,0,1-.316,1.474,3.252,3.252,0,0,1-.9,1.282,2.519,2.519,0,0,1-1.5.624,2.783,2.783,0,0,1-1.553-.451A4.691,4.691,0,0,1,54.48,452.7a2.527,2.527,0,0,1-.579-1.388,1.617,1.617,0,0,1,.549-1.35,1.267,1.267,0,0,1,1.376-.086,1.474,1.474,0,0,1,.793,1.042,1.989,1.989,0,0,1-.981,2.016,2.734,2.734,0,0,1-1.88.271,4.275,4.275,0,0,1-1.335-.523,7.739,7.739,0,0,1-.752-.5,2.109,2.109,0,0,1-.241-.2,1.5,1.5,0,0,1,.267.165,7.923,7.923,0,0,0,.752.47,4.344,4.344,0,0,0,1.312.477,2.632,2.632,0,0,0,1.779-.282,1.846,1.846,0,0,0,.884-1.854,1.29,1.29,0,0,0-.707-.906,1.06,1.06,0,0,0-1.166.071,1.414,1.414,0,0,0-.47,1.184,2.324,2.324,0,0,0,.572,1.282,4.457,4.457,0,0,0,1.128,1A2.541,2.541,0,0,0,57.2,454a2.3,2.3,0,0,0,1.365-.572,3.071,3.071,0,0,0,.842-1.2,4.512,4.512,0,0,0,.3-1.406,4.783,4.783,0,0,0-.083-1.38,1.722,1.722,0,0,0-.658-1.064,1.094,1.094,0,0,0-1.128-.109.989.989,0,0,0-.447.936,2.016,2.016,0,0,0,.32.993,2.9,2.9,0,0,0,1.451,1.083,3.143,3.143,0,0,0,1.376.162A3.55,3.55,0,0,0,61.7,451.1Z" transform="translate(-42.372 -376.054)"/></g></g></svg>