<svg xmlns="http://www.w3.org/2000/svg" width="24" height="24" viewBox="0 0 24 24">
  <g id="Group_3895" data-name="Group 3895" transform="translate(-314 -17)">
    <g id="mail-24px_1_" data-name="mail-24px (1)" transform="translate(314 17)">
      <path id="Path_4338" data-name="Path 4338" d="M0,0H24V24H0Z" fill="none"/>
      <path id="Path_4339" data-name="Path 4339" d="M20,4H4A2.006,2.006,0,0,0,2,6V18a2.006,2.006,0,0,0,2,2H20a2.006,2.006,0,0,0,2-2V6A2.006,2.006,0,0,0,20,4Zm-.4,4.25-6.54,4.09a1.981,1.981,0,0,1-2.12,0L4.4,8.25a.849.849,0,1,1,.9-1.44L12,11l6.7-4.19a.849.849,0,1,1,.9,1.44Z" fill="#51087e"/>
    </g>
  </g>
</svg>
