<?xml version="1.0" encoding="utf-8"?>
<!-- Generator: Adobe Illustrator 24.0.3, SVG Export Plug-In . SVG Version: 6.00 Build 0)  -->
<svg version="1.1" id="Layer_1" xmlns="http://www.w3.org/2000/svg" xmlns:xlink="http://www.w3.org/1999/xlink" x="0px" y="0px"
	 viewBox="0 0 24 24" style="enable-background:new 0 0 24 24;" xml:space="preserve">
<style type="text/css">
	.st0{fill:none;}
	.st1{fill:#51087E;}
	.st2{fill:#FFFFFF;}
	.st3{fill:#DD1414;}
</style>
<g id="Group_3894" transform="translate(-314 -17)">
	<g id="mail-24px_1_" transform="translate(314 17)">
		<path id="Path_4338" class="st0" d="M0,0h24v24H0V0z"/>
		<path id="Path_4339" class="st1" d="M20,4H4C2.9,4,2,4.9,2,6v12c0,1.1,0.9,2,2,2h16c1.1,0,2-0.9,2-2V6C22,4.9,21.1,4,20,4z
			 M19.6,8.2l-6.5,4.1c-0.6,0.4-1.5,0.4-2.1,0L4.4,8.2C4,8,3.9,7.5,4.1,7.1s0.8-0.5,1.2-0.3L12,11l6.7-4.2c0.4-0.2,0.9-0.1,1.2,0.3
			C20.1,7.5,20,8,19.6,8.2z"/>
	</g>
	<circle id="Ellipse_134" class="st2" cx="333" cy="24" r="5"/>
	<circle id="Ellipse_135" class="st3" cx="333" cy="24" r="3"/>
</g>
</svg>
