<svg xmlns="http://www.w3.org/2000/svg" width="206.526" height="302.576" viewBox="0 0 206.526 302.576"><defs><style>.a{fill:#e0e0e0;}.b{fill:#f5f5f5;}.c{fill:#fff;}.d{fill:#ebebeb;}.e{fill:#fafafa;}.f{fill:#263238;}.g{fill:#455a64;}.h{fill:#b24bf3;}.i{fill:#a36957;}.j{fill:#7c3b29;}.k{opacity:0.3;}.l{opacity:0.2;}</style></defs><g transform="translate(-356.04 -47.262)"><g transform="translate(356.04 53.266)"><path class="a" d="M400.83,55.55a1.874,1.874,0,0,1-.043.326c-.036.21-.109.522-.167.934a27.093,27.093,0,0,0-.348,3.622,25.5,25.5,0,0,0,.478,5.737,23.587,23.587,0,0,0,2.695,7.1,77.1,77.1,0,0,0,5.332,7.577,38.523,38.523,0,0,1,5.353,9.236,35.6,35.6,0,0,1,2.463,11.525,32.438,32.438,0,0,1-8.483,23.3,30.722,30.722,0,0,1-9.417,7.041c-3.383,1.666-6.751,2.9-9.721,4.346a25.426,25.426,0,0,0-7.468,5.36,24.861,24.861,0,0,0-6.193,11.692c-.2.768-.268,1.449-.377,2.072a11.754,11.754,0,0,0-.145,1.536,7.565,7.565,0,0,1-.051.949,2.235,2.235,0,0,1,0,.326,2.168,2.168,0,0,1,0-.326v-.949c0-.4.072-.934.116-1.55a13.485,13.485,0,0,1,.34-2.086,24.157,24.157,0,0,1,1.84-5.5,24.629,24.629,0,0,1,4.3-6.346,25.411,25.411,0,0,1,7.519-5.455c2.992-1.521,6.36-2.745,9.714-4.4a30.49,30.49,0,0,0,9.265-6.925,32.177,32.177,0,0,0,8.381-23.065A35.386,35.386,0,0,0,413.8,90.212a38.713,38.713,0,0,0-5.281-9.171,77.137,77.137,0,0,1-5.317-7.635,23.435,23.435,0,0,1-2.666-7.193,24.629,24.629,0,0,1-.42-5.8,24.032,24.032,0,0,1,.42-3.622c.072-.413.152-.724.2-.927Z" transform="translate(-361.192 -55.55)"/><path class="a" d="M436.253,62.6a41.611,41.611,0,0,1-1.492,4.8,37.971,37.971,0,0,1-2.419,5.382,22.216,22.216,0,0,1-4.774,6.179,15.4,15.4,0,0,1-1.789,1.347c-.652.4-1.333.768-2.036,1.13l-4.383,2.246c-3.028,1.55-6.28,3.173-9.613,5.071a34.77,34.77,0,0,0-9.2,7.454,30.765,30.765,0,0,0-6.223,11.083,28.179,28.179,0,0,0-.9,12.655,25.223,25.223,0,0,0,4.47,10.931c2.238,3.079,4.875,5.614,6.983,8.3a26.186,26.186,0,0,1,2.745,4.115,23.593,23.593,0,0,1,1.7,4.23,24.49,24.49,0,0,1,.927,7.758,22.731,22.731,0,0,1-1.007,5.8,21.646,21.646,0,0,1-1.391,3.463c-.2.362-.355.645-.464.855a1.5,1.5,0,0,1-.174.283s.043-.109.138-.3.246-.5.435-.862a24.333,24.333,0,0,0,1.318-3.47,22.9,22.9,0,0,0,.927-5.8,24.246,24.246,0,0,0-.963-7.606,23.234,23.234,0,0,0-1.71-4.172,25.478,25.478,0,0,0-2.731-4.049c-2.1-2.659-4.745-5.179-7.019-8.294a25.578,25.578,0,0,1-4.556-11.076,28.592,28.592,0,0,1,.905-12.822,31.235,31.235,0,0,1,6.3-11.221,35.076,35.076,0,0,1,9.316-7.592c3.347-1.862,6.606-3.47,9.642-5.006l4.383-2.231c.724-.355,1.391-.724,2.028-1.108a15.43,15.43,0,0,0,1.76-1.311,22.355,22.355,0,0,0,4.766-6.078,39.84,39.84,0,0,0,2.463-5.331c.579-1.507.963-2.7,1.224-3.513.123-.391.225-.724.29-.927A2.936,2.936,0,0,1,436.253,62.6Z" transform="translate(-366.147 -57.493)"/><path class="a" d="M431.088,86.4c0,.1-3.521-.536-7.809-1.449s-7.751-1.681-7.729-1.782a77.591,77.591,0,0,1,7.809,1.449C427.654,85.535,431.088,86.288,431.088,86.4Z" transform="translate(-372.442 -63.158)"/><path class="a" d="M435.221,78.038c0,.1-5.411-1.391-12.025-3.325s-11.945-3.622-11.916-3.694,5.411,1.391,12.025,3.332S435.25,77.937,435.221,78.038Z" transform="translate(-371.265 -59.813)"/><path class="a" d="M438.775,68.353c0,.094-6.483-1.753-14.408-4.136s-14.35-4.4-14.307-4.5,6.476,1.753,14.444,4.136S438.8,68.252,438.775,68.353Z" transform="translate(-370.928 -56.698)"/><path class="a" d="M409.775,153.547c-.036.1-3.5-1.137-7.736-2.767s-7.635-3.028-7.6-3.122,3.5,1.145,7.736,2.767S409.811,153.453,409.775,153.547Z" transform="translate(-366.623 -80.935)"/><path class="a" d="M416.362,141.795a5.068,5.068,0,0,1-.927-.225c-.594-.159-1.449-.42-2.492-.724-2.086-.659-4.955-1.63-8.091-2.8s-5.947-2.311-7.968-3.173c-1.007-.435-1.818-.8-2.376-1.058a5.15,5.15,0,0,1-.848-.442,4.827,4.827,0,0,1,.905.3l2.419.942c2.036.8,4.853,1.905,7.968,3.079s5.983,2.173,8.048,2.9l2.448.869A5.179,5.179,0,0,1,416.362,141.795Z" transform="translate(-366.409 -76.998)"/><path class="a" d="M420.738,129.776a5.462,5.462,0,0,1-1-.377l-2.68-1.108c-2.26-.942-5.4-2.217-8.9-3.521s-6.708-2.39-9.033-3.158l-2.76-.913a6.46,6.46,0,0,1-1-.369,5.324,5.324,0,0,1,1.043.232c.666.174,1.615.442,2.8.8,2.347.724,5.571,1.753,9.084,3.057s6.635,2.622,8.874,3.622c1.116.5,2.014.92,2.63,1.224A5.577,5.577,0,0,1,420.738,129.776Z" transform="translate(-366.88 -73.404)"/><path class="a" d="M422.886,116.363a3.159,3.159,0,0,1-.8-.225l-2.115-.724c-1.789-.623-4.252-1.449-7-2.369s-5.237-1.652-7.048-2.173l-2.173-.659a3.731,3.731,0,0,1-.775-.283,3.281,3.281,0,0,1,.811.145c.522.109,1.26.3,2.173.536,1.833.485,4.346,1.2,7.092,2.1s5.208,1.789,6.976,2.477c.876.34,1.586.63,2.072.84A3.621,3.621,0,0,1,422.886,116.363Z" transform="translate(-368.977 -70.538)"/><path class="a" d="M425.515,105.769a67.512,67.512,0,0,1-6.744-2.093,65.425,65.425,0,0,1-6.621-2.456,68.86,68.86,0,0,1,6.744,2.093,67.121,67.121,0,0,1,6.621,2.456Z" transform="translate(-371.505 -68.137)"/><path class="a" d="M408.217,175.44a3.338,3.338,0,0,1-.724-.2l-1.912-.645-6.288-2.173-6.3-2.115-1.912-.659a3.105,3.105,0,0,1-.688-.283,2.688,2.688,0,0,1,.724.145c.464.116,1.13.3,1.949.536,1.637.478,3.883,1.181,6.346,2.021s4.672,1.652,6.259,2.275c.8.311,1.449.572,1.869.724A2.469,2.469,0,0,1,408.217,175.44Z" transform="translate(-365.507 -86.92)"/><path class="a" d="M406.736,187.567c-.036.094-5.991-1.833-13.3-4.346s-13.213-4.571-13.177-4.672,5.983,1.833,13.3,4.346S406.765,187.43,406.736,187.567Z" transform="translate(-362.715 -89.449)"/><path class="a" d="M405.384,197.318c0,.1-6.679-1.854-14.843-4.346s-14.77-4.622-14.741-4.723,6.679,1.854,14.85,4.346S405.42,197.216,405.384,197.318Z" transform="translate(-361.486 -92.122)"/><path class="a" d="M208.422,109h-.572l-1.666.065c-1.449.043-3.622.109-6.4.152h-4.636a12.641,12.641,0,0,1-2.651-.246,27.017,27.017,0,0,1-2.6-1.21,5.31,5.31,0,0,0-2.941-.391c-.254.036-.514.1-.768.152a2.231,2.231,0,0,0-.674.355,5.367,5.367,0,0,0-1.094,1.188,30.555,30.555,0,0,0-3.05,6.353c-.884,2.325-1.666,4.8-2.6,7.367-.116.319-.246.637-.384.956l-.116.239a.449.449,0,0,1-.08.13.261.261,0,0,1-.217.13c-.261-.065-.225-.2-.29-.275a1.886,1.886,0,0,1-.094-.261,15.769,15.769,0,0,1-.384-2.086c-.188-1.4-.333-2.832-.471-4.288-.529-5.8-.949-12.068-1.514-18.617-.3-3.274-.565-6.643-1.137-10.018-.08-.42-.159-.84-.275-1.253a3.051,3.051,0,0,0-.21-.565c-.1-.174-.188-.254-.3-.2a2.3,2.3,0,0,0-.724.9,12.255,12.255,0,0,0-.565,1.159,52.884,52.884,0,0,0-1.833,5.027c-1.065,3.412-2.007,6.925-2.9,10.5l-.34,1.347a9.315,9.315,0,0,1-.391,1.369,2.9,2.9,0,0,1-2.311,1.7c-.971.036-1.876.087-2.847.065a13.119,13.119,0,0,1-2.847-.42,14.531,14.531,0,0,1-3.383-1.347,8.04,8.04,0,0,0-1.557-.782,1.362,1.362,0,0,0-1.449.275,4.18,4.18,0,0,0-.724,1.528c-.181.558-.34,1.123-.5,1.688-.3,1.13-.594,2.267-.877,3.4-.58,2.26-1.13,4.491-1.847,6.693a.8.8,0,0,1-.123.232.319.319,0,0,1-.42.1.913.913,0,0,1-.311-.427,6.709,6.709,0,0,1-.29-.833c-.152-.558-.275-1.108-.391-1.666-.232-1.108-.427-2.217-.608-3.318-.724-4.4-1.318-8.693-1.956-12.872-.319-2.079-.63-4.136-1.05-6.121a8.129,8.129,0,0,0-.413-1.449c-.13-.406-.594.08-.869.435a18.97,18.97,0,0,0-1.514,2.528c-1.789,3.492-3.238,7-4.853,10.25a16.849,16.849,0,0,1-1.355,2.347,1.043,1.043,0,0,1-.594.449,1.84,1.84,0,0,1-.724,0,2.565,2.565,0,0,1-1.116-.775,3.549,3.549,0,0,0-.985-.724,2.231,2.231,0,0,0-1.145-.246,4.346,4.346,0,0,0-2.072,1.152,2.666,2.666,0,0,1-1.13.579,1.319,1.319,0,0,1-.666-.058A1.949,1.949,0,0,1,125.1,109a13.525,13.525,0,0,1-1.514-1.818c-.456-.623-.891-1.239-1.347-1.818a6.056,6.056,0,0,0-1.528-1.449c-.594-.391-1.253.1-1.782.478a13.3,13.3,0,0,0-1.449,1.362,33.9,33.9,0,0,0-2.448,2.9v.043h-.051l-13.235-.051h-4.4a2.416,2.416,0,0,1-.3,0h4.7l13.235-.051-.08.043a33.8,33.8,0,0,1,2.448-2.948,12.6,12.6,0,0,1,1.507-1.391,4,4,0,0,1,.913-.558,1.6,1.6,0,0,1,.565-.116,1.2,1.2,0,0,1,.558.174,6.121,6.121,0,0,1,1.608,1.536c.464.587.905,1.2,1.362,1.818a12.4,12.4,0,0,0,1.449,1.775,1.825,1.825,0,0,0,.456.311,1.014,1.014,0,0,0,.514.036,2.419,2.419,0,0,0,1.007-.529,4.571,4.571,0,0,1,2.173-1.217,3.064,3.064,0,0,1,2.362,1.058,2.289,2.289,0,0,0,.985.724,1.485,1.485,0,0,0,.594,0c.13,0,.283-.181.406-.348a16.477,16.477,0,0,0,1.318-2.3c1.6-3.238,3.042-6.744,4.839-10.265a18.108,18.108,0,0,1,1.543-2.579,2.636,2.636,0,0,1,.565-.572.623.623,0,0,1,.471-.145.58.58,0,0,1,.4.326,7.969,7.969,0,0,1,.435,1.384c.427,2.007.724,4.064,1.065,6.15.645,4.165,1.239,8.475,1.97,12.865.181,1.1.377,2.173.608,3.3.116.551.239,1.094.384,1.637a6.622,6.622,0,0,0,.268.782.818.818,0,0,0,.159.261c-.036,0,0,.109,0,.043h0a.406.406,0,0,0,.065-.138c.724-2.173,1.26-4.4,1.833-6.65.283-1.13.565-2.267.877-3.4.159-.565.319-1.137.507-1.7.087-.283.188-.565.29-.848a2.448,2.448,0,0,1,.493-.819,1.449,1.449,0,0,1,.877-.464,2.043,2.043,0,0,1,.963.087,7.665,7.665,0,0,1,1.637.811,14.1,14.1,0,0,0,3.3,1.311,13.291,13.291,0,0,0,2.767.406c.913,0,1.883,0,2.789-.065a2.543,2.543,0,0,0,2.014-1.449,9.489,9.489,0,0,0,.369-1.3l.34-1.347c.913-3.622,1.862-7.106,2.934-10.525.543-1.71,1.094-3.4,1.8-5.027.181-.406.369-.8.587-1.2.116-.2.232-.384.369-.572a1.507,1.507,0,0,1,.565-.485.514.514,0,0,1,.478.058.869.869,0,0,1,.261.311,2.9,2.9,0,0,1,.239.645c.116.427.2.855.283,1.282.572,3.412.833,6.773,1.13,10.047.558,6.563.963,12.8,1.449,18.624.138,1.449.275,2.9.456,4.281a15.306,15.306,0,0,0,.369,2.036,2.049,2.049,0,0,0,.08.225.486.486,0,0,0,.043.087h0s-.036,0,0,.058,0-.08-.036-.058h0a.5.5,0,0,0,.051-.094l.109-.225c.138-.3.261-.623.384-.942.927-2.543,1.724-5.027,2.622-7.353a30.527,30.527,0,0,1,3.1-6.4,5.8,5.8,0,0,1,1.152-1.231,2.246,2.246,0,0,1,.724-.384,7.713,7.713,0,0,1,.8-.152,5.491,5.491,0,0,1,3.05.413c.92.4,1.71.956,2.572,1.224a13.4,13.4,0,0,0,2.608.246c1.688.043,3.238,0,4.629,0l6.4-.087h1.666A2.668,2.668,0,0,1,208.422,109Z" transform="translate(-97.04 -61.167)"/><path class="a" d="M.014,0H12.329V76.945a2.811,2.811,0,0,1-2.811,2.811H2.811A2.811,2.811,0,0,1,0,76.945V0Z" transform="translate(164.793 108.698) rotate(11.56)"/><path class="b" d="M.014,0H12.329V55.285A2.811,2.811,0,0,1,9.518,58.1H2.811A2.811,2.811,0,0,1,0,55.285V0Z" transform="translate(162.123 121.885) rotate(11.55)"/><rect class="c" width="8.215" height="36.56" transform="translate(167.302 117.137) rotate(11.55)"/><path class="a" d="M570.995,285.522a3.158,3.158,0,0,0,1.579-.174,2.8,2.8,0,0,0,1.413-1.268,4.027,4.027,0,0,0,.355-1.181c.087-.442.174-.913.275-1.405.8-3.984,1.956-9.743,3.4-16.9,2.9-14.336,6.969-34.264,11.525-56.683l.145.217-9.316-1.9-2.753-.565.225-.145c-4.926,23.956-9.352,45.513-12.554,61.1-.8,3.89-1.536,7.4-2.173,10.5-.159.768-.319,1.514-.464,2.231-.072.355-.152.724-.217,1.058a5.032,5.032,0,0,0-.159,1,2.782,2.782,0,0,0,.6,1.739,2.738,2.738,0,0,0,1.405.92l4.984,1.065,1.3.283c.29.065.435.109.435.109l-.442-.072-1.3-.246-5.005-1a2.9,2.9,0,0,1-2.173-2.8,5.073,5.073,0,0,1,.152-1.043c.065-.34.138-.724.21-1.05.145-.724.29-1.449.449-2.238.623-3.093,1.333-6.614,2.122-10.511,3.173-15.589,7.555-37.154,12.438-61.124v-.181l.181.036,2.76.565,9.316,1.905.181.036v.181c-4.607,22.42-8.693,42.333-11.648,56.662l-3.506,16.871c-.109.5-.2.963-.3,1.405a3.95,3.95,0,0,1-.384,1.21,2.825,2.825,0,0,1-1.449,1.282,2.76,2.76,0,0,1-1.2.174,2.056,2.056,0,0,1-.406-.065Z" transform="translate(-412.824 -96.812)"/><path class="d" d="M1.463,0H13.59a1.449,1.449,0,0,1,1.449,1.449V19.66H0V1.463A1.449,1.449,0,0,1,1.463,0Z" transform="translate(166.838 92.646) rotate(11.55)"/><path class="a" d="M595.985,210.476c0,.1-3.347-.493-7.432-1.326a75.025,75.025,0,0,1-7.353-1.7c.022-.1,3.347.493,7.432,1.326S596,210.375,595.985,210.476Z" transform="translate(-418.097 -97.414)"/><path class="a" d="M583.156,201.217c-.109,0,.587-3.825,1.543-8.49s1.811-8.439,1.912-8.417-.594,3.825-1.543,8.49S583.257,201.239,583.156,201.217Z" transform="translate(-418.633 -91.038)"/><path class="a" d="M585.886,201.777c-.1,0,.587-3.825,1.543-8.49s1.811-8.439,1.912-8.417-.587,3.825-1.543,8.49S585.966,201.8,585.886,201.777Z" transform="translate(-419.386 -91.192)"/><path class="a" d="M588.706,202.35c-.1,0,.587-3.818,1.543-8.49s1.811-8.432,1.912-8.41-.587,3.818-1.543,8.49S588.808,202.372,588.706,202.35Z" transform="translate(-420.163 -91.352)"/><path class="a" d="M591.436,202.91c-.1,0,.594-3.818,1.543-8.49s1.811-8.432,1.92-8.41-.594,3.818-1.543,8.49S591.545,202.932,591.436,202.91Z" transform="translate(-420.915 -91.506)"/><path class="a" d="M594.256,203.487c-.1,0,.594-3.825,1.543-8.49s1.811-8.439,1.912-8.417-.587,3.825-1.543,8.49S594.358,203.545,594.256,203.487Z" transform="translate(-421.693 -91.663)"/><path class="a" d="M597,204.047c-.1,0,.587-3.825,1.543-8.49s1.811-8.439,1.912-8.417-.587,3.825-1.543,8.49S597.1,204.069,597,204.047Z" transform="translate(-422.448 -91.818)"/><path class="a" d="M599.816,204.627c-.1,0,.587-3.825,1.543-8.49s1.811-8.439,1.912-8.417-.587,3.818-1.543,8.49S599.947,204.642,599.816,204.627Z" transform="translate(-423.225 -91.978)"/><path class="a" d="M.007,0h9.7V59.994A2.811,2.811,0,0,1,6.9,62.8H2.811A2.811,2.811,0,0,1,0,59.994V0Z" transform="translate(191.102 144.256) rotate(-5.26)"/><path class="b" d="M.007,0h9.7V42.934A2.811,2.811,0,0,1,6.9,45.745H2.811A2.811,2.811,0,0,1,0,42.934V0Z" transform="translate(192.077 154.871) rotate(-5.26)"/><rect class="c" width="6.469" height="28.787" transform="translate(194.888 150.11) rotate(-5.26)"/><path class="a" d="M632.4,316.217a3.4,3.4,0,0,0,1.188-.435,2.767,2.767,0,0,0,1.007-1.123,2.711,2.711,0,0,0,.275-.934,5.411,5.411,0,0,0-.058-1.116c-.3-3.216-.724-7.845-1.3-13.6-1.079-11.539-2.579-27.563-4.259-45.571l.2.167-6.86.63-2.8.261.167-.2c1.724,18.972,3.274,36.017,4.39,48.338.275,3.071.522,5.853.724,8.294.116,1.217.2,2.369.311,3.39a2.746,2.746,0,0,0,1.717,2.035,4.911,4.911,0,0,0,2.231.087L631,316.3l1.029-.072h.355l-.348.051-1.029.109-1.666.174-1.065.1a2.81,2.81,0,0,1-1.224-.159,2.9,2.9,0,0,1-1.84-2.137c-.13-1.058-.217-2.173-.34-3.4-.232-2.441-.5-5.223-.8-8.294-1.145-12.315-2.731-29.359-4.506-48.331v-.188h.188l2.8-.261,6.86-.63h.188v.188c1.63,18.016,3.086,34.046,4.136,45.586.5,5.752.906,10.388,1.188,13.6a6.153,6.153,0,0,1,.043,1.145,2.9,2.9,0,0,1-1.369,2.1,2.673,2.673,0,0,1-.9.34A2.243,2.243,0,0,1,632.4,316.217Z" transform="translate(-428.672 -110.041)"/><path class="d" d="M1.456,0h8.932a1.449,1.449,0,0,1,1.449,1.449v14.01H0v-14A1.449,1.449,0,0,1,1.456,0Z" transform="translate(188.968 131.766) rotate(-5.26)"/><path class="a" d="M630.319,255.18a93.326,93.326,0,0,1-11.829,1.087,46.741,46.741,0,0,1,5.9-.724,44.912,44.912,0,0,1,5.933-.362Z" transform="translate(-428.374 -110.57)"/><path class="a" d="M619.526,251.232a59.041,59.041,0,0,1-.811-6.751,58.858,58.858,0,0,1-.435-6.78,63.232,63.232,0,0,1,.811,6.751,62.973,62.973,0,0,1,.435,6.78Z" transform="translate(-428.316 -105.753)"/><path class="a" d="M621.726,251.032a59.041,59.041,0,0,1-.811-6.751,58.844,58.844,0,0,1-.435-6.78,62.227,62.227,0,0,1,.8,6.744,62.059,62.059,0,0,1,.442,6.788Z" transform="translate(-428.923 -105.698)"/><path class="a" d="M623.976,250.852a63.231,63.231,0,0,1-.811-6.751,62.973,62.973,0,0,1-.435-6.78,59.042,59.042,0,0,1,.811,6.751A60.8,60.8,0,0,1,623.976,250.852Z" transform="translate(-429.543 -105.648)"/><path class="a" d="M626.166,250.622a63.214,63.214,0,0,1-.811-6.751,63.083,63.083,0,0,1-.435-6.78,61.051,61.051,0,0,1,.782,6.744A63.032,63.032,0,0,1,626.166,250.622Z" transform="translate(-430.147 -105.585)"/><path class="a" d="M628.426,250.412a59.055,59.055,0,0,1-.811-6.751,58.8,58.8,0,0,1-.435-6.78,63.215,63.215,0,0,1,.811,6.751,62.942,62.942,0,0,1,.435,6.78Z" transform="translate(-430.769 -105.527)"/><path class="a" d="M630.624,250.2a59.065,59.065,0,0,1-.79-6.78,58.844,58.844,0,0,1-.435-6.78,63.231,63.231,0,0,1,.811,6.751A62.948,62.948,0,0,1,630.624,250.2Z" transform="translate(-431.381 -105.461)"/><path class="a" d="M632.866,250a63.238,63.238,0,0,1-.811-6.744,63.013,63.013,0,0,1-.435-6.788,59.041,59.041,0,0,1,.811,6.751A58.857,58.857,0,0,1,632.866,250Z" transform="translate(-431.993 -105.414)"/><path class="a" d="M215.586,177.817c-1.275-5.665-6.657-10.525-12.431-9.96a12.666,12.666,0,0,0-8.57,5.158,24.7,24.7,0,0,0-2.007,2.9,24.7,24.7,0,0,0-2.007-2.9,12.749,12.749,0,0,0-8.562-5.172c-5.8-.572-11.156,4.288-12.445,9.946s.848,11.67,4.346,16.306a32.678,32.678,0,0,0,19.131,12.836c6.483-1.492,14.705-8.186,18.2-12.814S216.861,183.475,215.586,177.817Z" transform="translate(-116.925 -83.589)"/><path class="e" d="M215.065,192.63h-2.927l-7.932.058.138-.1c-.724,2.564-1.528,5.563-2.434,8.852l-.145.536-.181-.522-4.622-13.264c-.514-1.449-1.014-2.934-1.507-4.346l.34.036L190.6,192.7l-.043.08h-.1l-13.944-.072-3.948-.051h-1.05a1.246,1.246,0,0,1-.355,0h1.405l3.948-.043,13.944-.065-.145.087,5.15-8.852.2-.355.138.384q.739,2.173,1.507,4.346l4.614,13.35h-.333c.934-3.289,1.775-6.28,2.5-8.838v-.1h.1l7.932.065h2.738Z" transform="translate(-117.468 -87.898)"/></g><g transform="translate(379.662 107.376)"><path class="f" d="M514.465,188.592a10.069,10.069,0,1,1,12.249,14.951,6.78,6.78,0,1,1-5.846,12.235c-.789,2.781-3.9,4.462-6.787,4.266a11.66,11.66,0,0,1-7.454-4.02,18.218,18.218,0,0,1-4.4-16.661A16.114,16.114,0,0,1,514.7,187.715" transform="translate(-419.816 -145.119)"/><path class="g" d="M521.931,184a1.5,1.5,0,0,1,.123.2,5.209,5.209,0,0,1,.275.623,8.947,8.947,0,0,1,.558,2.492,10.063,10.063,0,0,1-.427,3.861,9.736,9.736,0,0,1-2.586,4.187v-.239a10.612,10.612,0,0,1,1.92,4.614,10.474,10.474,0,0,1-8.236,11.945,7.185,7.185,0,0,1-.992.13,1.884,1.884,0,0,1-.355,0c0-.043.478-.08,1.318-.275a11.163,11.163,0,0,0,3.318-1.449,10.366,10.366,0,0,0,2.738-14.756l-.094-.13.116-.109a9.417,9.417,0,0,0,2.535-4.013,10.09,10.09,0,0,0,.5-3.752A12.134,12.134,0,0,0,521.931,184Z" transform="translate(-422.705 -145.062)"/><path class="h" d="M554.645,181.22a8.12,8.12,0,0,1-1.072.637c-.724.384-1.724.927-2.992,1.579-2.55,1.311-6.1,3.042-10.091,4.824s-7.657,3.26-10.33,4.281c-1.333.507-2.419.913-3.18,1.174a8.373,8.373,0,0,1-1.181.369,7.719,7.719,0,0,1,1.13-.507l3.137-1.282c2.644-1.087,6.288-2.608,10.272-4.346s7.548-3.47,10.141-4.716l3.05-1.449a8.225,8.225,0,0,1,1.116-.565Z" transform="translate(-426.45 -144.296)"/><path class="h" d="M545.73,168.26c.065.08-3.912,3.883-8.888,8.49s-9.069,8.294-9.142,8.215,3.912-3.854,8.91-8.49S545.657,168.187,545.73,168.26Z" transform="translate(-426.973 -140.724)"/><path class="f" d="M475.5,142.093c0-7.794-9.316-8.178-14.024-6.23-2.535-3.477-4.346-5.23-10.178-5.592-4.281-.275-10.808,1.876-14.1,6.186a15.552,15.552,0,0,0-1.753,15.408c.724,1.644,1.76,3.3,1.557,5.071-.3,2.579-2.941,4.086-4.651,6.034a9.844,9.844,0,0,0-.464,12.047c1.659,2.173,4.3,3.745,5.172,6.353.724,2.173.043,4.571.181,6.874.254,4.238,3.47,7.968,7.411,9.5a17.894,17.894,0,0,0,12.438-.261" transform="translate(-400.062 -130.248)"/><path class="i" d="M445.75,230.172l14.611-6.519.5-9.772s-10.982-1.623-13.51-15.864c-1.253-7.085-1.1-18.74-.674-28.251.391-8.584,9.475-17.306,18.03-16.552l27.788,4.774V162.6l.254,58.849,14.372,6.932-32.6,38.508Z" transform="translate(-404.387 -136.564)"/><path class="f" d="M454.2,189.357a1.825,1.825,0,0,0,1.8,1.811,1.76,1.76,0,0,0,1.862-1.681,1.833,1.833,0,0,0-1.8-1.818,1.753,1.753,0,0,0-1.862,1.688Z" transform="translate(-406.716 -146.073)"/><path class="f" d="M450.658,183.562c.232.232,1.6-.819,3.571-.848s3.434.934,3.622.688c.109-.109-.13-.536-.768-.985a5.071,5.071,0,0,0-2.9-.848,4.817,4.817,0,0,0-2.84.978C450.745,183.018,450.542,183.453,450.658,183.562Z" transform="translate(-405.732 -144.392)"/><path class="f" d="M479.63,189.357a1.826,1.826,0,0,0,1.8,1.818,1.76,1.76,0,0,0,1.862-1.688,1.84,1.84,0,0,0-1.8-1.818,1.753,1.753,0,0,0-1.862,1.688Z" transform="translate(-413.725 -146.073)"/><path class="f" d="M477.419,183.594c.232.239,1.608-.819,3.578-.848s3.434.934,3.622.688c.1-.109-.138-.536-.775-.985a5.071,5.071,0,0,0-2.9-.84,4.825,4.825,0,0,0-2.84.971C477.506,183.058,477.31,183.493,477.419,183.594Z" transform="translate(-413.108 -144.403)"/><path class="f" d="M466.018,198.453a13.753,13.753,0,0,0-3.216-.522c-.507-.043-.985-.13-1.072-.471a2.535,2.535,0,0,1,.311-1.5c.449-1.231.92-2.514,1.449-3.861,1.97-5.5,3.383-10.011,3.166-10.091s-2,4.346-3.97,9.808c-.478,1.355-.927,2.651-1.362,3.883a2.934,2.934,0,0,0-.225,1.985,1.268,1.268,0,0,0,.84.724,3.579,3.579,0,0,0,.855.109A12.887,12.887,0,0,0,466.018,198.453Z" transform="translate(-408.596 -144.514)"/><path class="j" d="M466.541,234.93a36.342,36.342,0,0,0,19.037-5.44s-4.9,10.069-19.218,8.99Z" transform="translate(-410.068 -157.6)"/><path class="j" d="M469.112,210.72a3.571,3.571,0,0,1,3.166-1.376,3.289,3.289,0,0,1,2.26,1.159,2.065,2.065,0,0,1,.2,2.354,2.376,2.376,0,0,1-2.572.724,7.548,7.548,0,0,1-2.55-1.449,2.26,2.26,0,0,1-.572-.572.667.667,0,0,1,0-.724" transform="translate(-410.777 -152.043)"/><path class="f" d="M473.643,206.45c-.319,0-.29,2.13-2.094,3.68s-4.086,1.355-4.1,1.659c0,.13.514.406,1.449.413a5.331,5.331,0,0,0,3.426-1.26,4.636,4.636,0,0,0,1.615-3.086C474.006,206.964,473.759,206.435,473.643,206.45Z" transform="translate(-410.368 -151.25)"/><path class="f" d="M476.536,173.111c.2.529,2.173.239,4.484.478s4.2.84,4.5.348c.138-.232-.2-.724-.963-1.231a7.845,7.845,0,0,0-6.845-.637C476.869,172.43,476.449,172.857,476.536,173.111Z" transform="translate(-412.869 -141.635)"/><path class="f" d="M451.51,175.629c.355.435,1.71-.051,3.339-.1s3.021.246,3.332-.225c.138-.232-.094-.681-.724-1.094a4.846,4.846,0,0,0-5.375.268C451.539,174.948,451.358,175.411,451.51,175.629Z" transform="translate(-405.961 -142.175)"/><path class="f" d="M441.83,150.663c2.173,5.071,7.164,12.59,12.626,13.256a16.161,16.161,0,0,0,14.488-6.143c.826,4.071,5.346,6.23,9.417,6.9a16.319,16.319,0,0,0,8.693-.587,8.605,8.605,0,0,0,5.5-6.367c.427-2.9-3.687-10.04-6.577-10.576" transform="translate(-403.307 -134.906)"/><path class="f" d="M492.363,159.776a8.881,8.881,0,0,0,4.411,11.7,10.665,10.665,0,0,0-1.608,9.164,25.017,25.017,0,0,0,4.419,8.512s-4.911,7.106,4.977,12.315c0,0,6.94-2.173,3.839-12.612a3.1,3.1,0,0,1,.13-2.275,3.912,3.912,0,0,1,1.717-1.355,11.366,11.366,0,0,0,4.484-15.306,7.435,7.435,0,0,1-.963-2.173c-.2-1.174-1.094-4.238-.724-5.36,2.122-5.86-.609-13.14-7.483-16.755-5.513-2.9-12.416-3.383-16.661,1.2" transform="translate(-416.28 -133.877)"/><path class="h" d="M503.118,303.764l9.417-36.835L486.116,252.39l-25.5,39.305-23.1-38.219-23.8,10.772a7.164,7.164,0,0,0-3.542,3.521L388.65,326l29.091,9.417,3.332-13.5,3.832,23.3-11.069,61.153,94.989-.348-16.835-62.783,2.34-14Z" transform="translate(-388.65 -163.911)"/><g class="k" transform="translate(34.72 173.16)"><path d="M436.58,383.727c6.519,1.1,12.387-4.672,18.993-4.723,6.092-.043,11.148,4.73,17.081,6.114,2.615.608,5.469.587,7.729,2.021a15.97,15.97,0,0,1,4.086,4.571A40.8,40.8,0,0,0,508.3,407.378c1.449.326,4.694,1.449,5.585.225l-.942-3.752-.826-11.38-31.83-23.18-36.328,1.782Z" transform="translate(-436.58 -369.29)"/></g><rect class="f" width="19.653" height="3.253" transform="translate(84.84 134.289)"/><path class="h" d="M534.572,366.508c7.968,2.825,16.661,2.4,24.977,1.174a11.424,11.424,0,0,0,5.6-1.927c.522-.413,1.782-1.449,1.76-1.724-.058-.761-1.449-1.775-2.238-2.4a26.759,26.759,0,0,0-21.58-5.071,16,16,0,0,0-5.636,2.173c-1.688,1.13-2.745,1.753-3.325,3.7" transform="translate(-428.746 -192.479)"/><g class="k" transform="translate(105.384 163.562)"><path d="M534.572,366.508c7.968,2.825,16.661,2.4,24.977,1.174a11.424,11.424,0,0,0,5.6-1.927c.522-.413,1.782-1.449,1.76-1.724-.058-.761-1.449-1.775-2.238-2.4a26.759,26.759,0,0,0-21.58-5.071,16,16,0,0,0-5.636,2.173c-1.688,1.13-2.745,1.753-3.325,3.7" transform="translate(-534.13 -356.04)"/></g><path class="h" d="M566.57,340.914s-8.345-49.773-8.859-54.213c-1.3-11.011-5.44-14.531-5.44-14.531L532.9,331.447l1.34,11.945S540.361,334.178,566.57,340.914Z" transform="translate(-428.407 -169.363)"/><path class="f" d="M558.359,311.89a8.361,8.361,0,0,1-.362,1.231c-.246.79-.659,1.912-1.2,3.289a75.68,75.68,0,0,1-5.071,10.366,71.8,71.8,0,0,1-6.65,9.417c-.949,1.13-1.746,2.028-2.318,2.622a9.9,9.9,0,0,1-.913.9,7.967,7.967,0,0,1,.8-1c.536-.623,1.3-1.543,2.224-2.695a83.449,83.449,0,0,0,6.52-9.461,87.017,87.017,0,0,0,5.158-10.243c.565-1.362,1.014-2.47,1.3-3.238A8.692,8.692,0,0,1,558.359,311.89Z" transform="translate(-430.874 -180.31)"/><path class="f" d="M434.266,354.662a.478.478,0,0,1-.043-.159,3.323,3.323,0,0,0-.087-.485c-.065-.456-.167-1.072-.29-1.854-.275-1.644-.659-3.962-1.137-6.809-1-5.781-2.448-13.676-4.028-22.442s-3.028-16.661-4.078-22.456l-1.2-6.809c-.116-.775-.217-1.4-.29-1.854l-.051-.485a.421.421,0,0,1,0-.167.565.565,0,0,1,.043.159,3.229,3.229,0,0,0,.094.478c.087.456.2,1.072.355,1.847.319,1.637.761,3.941,1.311,6.78,1.094,5.73,2.593,13.655,4.194,22.413s2.984,16.7,3.912,22.456c.464,2.9.8,5.216,1.021,6.831.094.79.167,1.413.225,1.869a1.607,1.607,0,0,0,.043.485A.724.724,0,0,1,434.266,354.662Z" transform="translate(-398.133 -174.591)"/><path class="f" d="M544.127,296a2.89,2.89,0,0,1-.1.558c-.087.4-.2.927-.355,1.586-.326,1.413-.782,3.4-1.347,5.8-1.152,4.919-2.745,11.706-4.433,19.225s-3.158,14.336-4.129,19.29c-.478,2.477-.869,4.484-1.108,5.875-.116.666-.217,1.2-.29,1.6a2.752,2.752,0,0,1-.123.551,3.3,3.3,0,0,1,.051-.565q.087-.608.217-1.608c.2-1.405.543-3.419.992-5.9.906-4.969,2.325-11.8,4.02-19.327s3.325-14.3,4.542-19.2c.609-2.419,1.108-4.39,1.449-5.8.174-.652.319-1.174.42-1.572a2.759,2.759,0,0,1,.2-.507Z" transform="translate(-428.225 -175.931)"/><path class="f" d="M447.66,256.368a1.232,1.232,0,0,1,.159.225l.449.724c.4.623.963,1.521,1.688,2.673l6.143,9.844L476.382,302.7h-.311l.956-1.355c1.036-1.449,2.05-2.9,3.006-4.23v.246l-18.718-31.04c-2.347-3.919-4.238-7.085-5.549-9.287l-1.485-2.514-.377-.659a1.151,1.151,0,0,1-.123-.232,1.7,1.7,0,0,1,.152.21l.406.645c.362.58.884,1.449,1.543,2.485,1.34,2.173,3.267,5.324,5.65,9.221l18.834,30.975.058.1-.065.1c-.963,1.347-1.978,2.782-3.006,4.23l-.963,1.355-.167.232-.145-.239-20.2-32.96c-2.55-4.194-4.614-7.584-6.049-9.953-.724-1.159-1.246-2.072-1.63-2.709l-.413-.724a1.283,1.283,0,0,1-.123-.232Z" transform="translate(-404.914 -164.253)"/><path class="f" d="M513.386,252.09a.725.725,0,0,1-.109.21l-.37.594-1.449,2.275-5.361,8.367L488.032,291.5v-.2c.8,1.3,1.644,2.695,2.506,4.093l.811,1.326h-.319c3.868-5.8,7.432-11.344,10.7-16.378s6.244-9.533,8.838-13.242,4.759-6.65,6.28-8.693l1.775-2.3.471-.594a1.58,1.58,0,0,1,.167-.188,1.119,1.119,0,0,1-.138.217l-.442.608c-.406.551-.978,1.34-1.717,2.34-1.449,2.036-3.622,5-6.179,8.693s-5.527,8.229-8.765,13.278-6.787,10.685-10.656,16.48l-.167.246-.152-.254-.811-1.326-2.5-4.093-.065-.094.065-.1,18.168-27.9,5.455-8.3,1.492-2.238.391-.572Z" transform="translate(-415.941 -163.829)"/><path class="d" d="M448.238,348.082a6.338,6.338,0,0,0-8.026,2.695,6.592,6.592,0,0,0,.869,7.244c1.717,1.825,5.875,3.071,7.809.869Z" transform="translate(-402.666 -190.142)"/><path class="f" d="M448.17,348.047a5.174,5.174,0,0,1,.094.768c.043.565.109,1.3.181,2.209.138,1.978.326,4.68.543,7.852v.072l-.043.051a4.078,4.078,0,0,1-3.383,1.231,7.526,7.526,0,0,1-3.7-1.26,5.607,5.607,0,0,1-2.253-2.977,7.243,7.243,0,0,1-.239-3.477,5.882,5.882,0,0,1,1.34-2.854,6.584,6.584,0,0,1,2.173-1.644,6.244,6.244,0,0,1,3.89-.456,4.738,4.738,0,0,1,1.362.485,10.055,10.055,0,0,0-1.384-.34,6.28,6.28,0,0,0-3.752.558,5.8,5.8,0,0,0-3.31,4.31,6.809,6.809,0,0,0,.246,3.3,5.252,5.252,0,0,0,2.108,2.782,7.243,7.243,0,0,0,3.513,1.2,3.737,3.737,0,0,0,3.1-1.086l-.043.123c-.159-3.144-.29-5.8-.391-7.78-.036-.92-.065-1.673-.087-2.246a6.145,6.145,0,0,1,.036-.826Z" transform="translate(-402.598 -190.107)"/><path class="f" d="M444.41,319.107s2.065-42.551,3.129-48.65,3.8-15.937,8.113-21.927c4.122-5.7,4.527-6.1,4.527-6.1l-.275,5.31a74.612,74.612,0,0,0-8.273,22.072c-2.3,12.054-3.875,49.258-3.875,49.258Z" transform="translate(-404.018 -161.166)"/><path class="a" d="M526.551,343.329a9.416,9.416,0,0,1-3.52-.724l.55-1.34a7.164,7.164,0,0,0,4.687.369,5.31,5.31,0,0,0,3.426-3.115,7.824,7.824,0,0,0,.072-4.535,27.374,27.374,0,0,0-1.079-3.238c-.181-.471-.362-.942-.536-1.449-3.042-8.555-2.514-18.11-2.05-26.578l1.449.08c-.456,8.309-.971,17.733,1.978,26.013.167.471.34.927.514,1.391a28.131,28.131,0,0,1,1.145,3.412,9.121,9.121,0,0,1-.13,5.4A6.679,6.679,0,0,1,528.709,343a7.409,7.409,0,0,1-2.159.333Z" transform="translate(-425.687 -177.783)"/><path class="d" d="M522.43,344.515a8.051,8.051,0,0,1-6.375-3.412c-2.391-2.941-2.774-10.236-3.108-16.661-.116-2.3-.232-4.477-.435-6.056-.724-5.563-3.9-13.039-3.933-13.1l1.326-.572c.138.311,3.3,7.722,4.042,13.5.21,1.63.326,3.832.449,6.157.3,5.911.688,13.271,2.782,15.842,3.158,3.89,6.99,3.854,12.423-.123l.855,1.173C527.465,343.421,524.821,344.515,522.43,344.515Z" transform="translate(-421.704 -178.331)"/><path class="f" d="M534.75,354a8.466,8.466,0,0,1,1.108-2.086,2.9,2.9,0,0,1,1.869-1.181,1.818,1.818,0,0,1,1.854,1.021,2.173,2.173,0,0,1-.333,2.173,3.043,3.043,0,0,1-1.847,1.029,8.214,8.214,0,0,1-2.108,0" transform="translate(-428.917 -191.013)"/><path class="f" d="M511.939,260.612a46.955,46.955,0,0,1,9.779,25.281h3.013a47.3,47.3,0,0,0-11.757-28.512,44.6,44.6,0,0,0,1.659-7.367c.666-5.657-5.542-9.084-5.542-9.084v4.288a5.006,5.006,0,0,1,2.535,4.448c-.138,3.05-2.427,9.533-4.665,15.125a33.532,33.532,0,0,0-2.47,14.488c.21,6.338,2.687,9.214,2.687,9.214l2.992-1.268s-1.789-2.238-2.564-8.359c-.594-4.68.79-8.338,1.992-11.721C510.208,265.465,511.085,263.147,511.939,260.612Z" transform="translate(-420.565 -160.753)"/><path class="i" d="M393.71,355l-3.622,13.814a13.133,13.133,0,0,0,3.166,12.59c.2.2.4.391.6.572h0A13.655,13.655,0,0,0,408,384.494l37.516-14.93-5.542-16.914-28.4,8.091Z" transform="translate(-388.914 -191.544)"/><path class="g" d="M437.768,322.656l6.8,36.219a3.238,3.238,0,0,0,3.31,2.644l51.968-2.007a3.253,3.253,0,0,0,3.122-3.354l-1.188-34.22a3.238,3.238,0,0,0-3.245-3.129H440.955a3.238,3.238,0,0,0-3.187,3.846Z" transform="translate(-402.172 -182.218)"/><path class="i" d="M497.74,344.48h0a4.824,4.824,0,0,0-4.506,3.071c-.724,1.963-1.854,4.252-3.071,4.911-2.253,1.231-6.15,2.217-8.193,1.21s-10.243-8.374-11.677-7.555-2.666,2.659-1.231,4.3,9,6.556,7.548,8.2-17.385-5.578-19.87-4.94-3.89,2.173-2.456,3.137,12.315,5.071,12.9,6.52c0,0-16.386-4.3-17-3.274s-1.637,2.659,0,3.274,15.777,4.3,17,4.919a29.7,29.7,0,0,0,6.324,1.84c.442,0,3.622,1.079,6.6,2.094a14.444,14.444,0,0,0,10.192-.268l1.659-.681a6.519,6.519,0,0,0,4.035-6.411l-.333-5.585,1.789-4.614Z" transform="translate(-405.366 -189.293)"/><path class="i" d="M498.05,378.143s29.9,27.07,39.972,27.15c10.612.08,16.589-10.931,15.458-17.776-.609-3.622-2.173-22.739-2.173-22.739-7.106-1.941-17.726-2.811-25.3,2.224l2.76,11.141-19.964-9.649Z" transform="translate(-418.802 -194.465)"/><path class="f" d="M567.033,365.967a1.447,1.447,0,0,1-.34-.058l-.971-.232c-.833-.2-2.043-.5-3.542-.84a49.5,49.5,0,0,0-11.88-1.376,41.553,41.553,0,0,0-6.52.724,23.673,23.673,0,0,0-5.143,1.514,12.731,12.731,0,0,0-3.071,1.891c-.645.558-.956.92-.985.9a1.183,1.183,0,0,1,.2-.283,7.971,7.971,0,0,1,.688-.724,11.705,11.705,0,0,1,3.057-2.021,22.259,22.259,0,0,1,5.187-1.615,39.445,39.445,0,0,1,6.606-.775,45.68,45.68,0,0,1,11.945,1.492c1.5.377,2.7.724,3.528.963l.942.3A1.992,1.992,0,0,1,567.033,365.967Z" transform="translate(-428.87 -194.416)"/></g><g transform="translate(520.549 294.778)"><path class="h" d="M612.44,411.348c1.529,2.173,4.455,1.413,5.8.087a11.014,11.014,0,0,0,2.412-5.071c1.166-4.158,2.333-8.526,1.413-12.742a7.005,7.005,0,0,0-1.652-3.448,3.709,3.709,0,0,0-3.513-1.145c-1.449.406-2.376,1.862-3.028,3.238a30.424,30.424,0,0,0-2.9,13.039,10.6,10.6,0,0,0,1.449,6.012" transform="translate(-590.81 -388.951)"/><g class="l" transform="translate(20.159)"><path d="M612.44,411.348c1.529,2.173,4.455,1.413,5.8.087a11.014,11.014,0,0,0,2.412-5.071c1.166-4.158,2.333-8.526,1.413-12.742a7.005,7.005,0,0,0-1.652-3.448,3.709,3.709,0,0,0-3.513-1.145c-1.449.406-2.376,1.862-3.028,3.238a30.424,30.424,0,0,0-2.9,13.039,10.6,10.6,0,0,0,1.449,6.012" transform="translate(-610.97 -388.951)"/></g><path class="h" d="M619.825,434.383a13.112,13.112,0,0,1,8.1-1.05,6.737,6.737,0,0,1,4.02,1.76c1.007,1.094,1.21,3.035.073,3.991a3.861,3.861,0,0,1-2.521.666c-2.173,0-4.527-.369-6.23.934-.971.724-1.608,1.97-2.774,2.34a2.774,2.774,0,0,1-3.05-1.326,4.716,4.716,0,0,1-.369-3.484A5.3,5.3,0,0,1,619.825,434.383Z" transform="translate(-592.444 -401.12)"/><path class="h" d="M600.67,417.167a7.831,7.831,0,0,0,1.166-7.244,13.887,13.887,0,0,0-4.346-6.165A23.179,23.179,0,0,0,589.8,399.3a8.265,8.265,0,0,0-3.441-.558,3.622,3.622,0,0,0-2.9,1.775c-.79,1.536,0,3.39.84,4.9a58.273,58.273,0,0,0,5.071,7.613c1.514,1.927,3.26,3.832,5.556,4.687s4.687.724,5.889-.862" transform="translate(-583.14 -391.648)"/><path class="f" d="M613.214,457.152a4.627,4.627,0,0,0,.13-.985c.065-.724.145-1.6.239-2.666a37.822,37.822,0,0,1,.572-3.926,30.292,30.292,0,0,1,1.384-4.629,16.873,16.873,0,0,1,2.333-4.2,8.794,8.794,0,0,1,2.963-2.506,8.411,8.411,0,0,1,2.506-.8,5.069,5.069,0,0,0,.971-.145,4.485,4.485,0,0,0-.985,0,7.425,7.425,0,0,0-2.622.724,8.692,8.692,0,0,0-3.122,2.521,16.743,16.743,0,0,0-2.419,4.288,28.753,28.753,0,0,0-1.376,4.708,33.545,33.545,0,0,0-.485,3.97c-.08,1.137-.1,2.057-.116,2.687a4.627,4.627,0,0,0,.029.963Z" transform="translate(-591.417 -402.266)"/><path class="f" d="M613.352,445.072a1.872,1.872,0,0,0,0-.456v-6.07c.072-4.028.377-9.591,1-15.7s1.449-11.59,2.26-15.567c.188-.992.369-1.883.551-2.666s.312-1.449.449-2,.217-.934.3-1.268a.225.225,0,1,0-.08,0c-.1.326-.217.724-.369,1.246s-.326,1.21-.522,1.992-.4,1.666-.609,2.659a148.293,148.293,0,0,0-2.383,15.589c-.623,6.128-.884,11.7-.877,15.741,0,2.021.051,3.622.109,4.781,0,.522.065.956.087,1.3a2.177,2.177,0,0,0,.087.427Z" transform="translate(-591.389 -392.243)"/><path class="f" d="M607.821,435.59a8.386,8.386,0,0,0,0-1.355c-.058-.869-.188-2.13-.449-3.673a50.445,50.445,0,0,0-3.535-11.634,33.647,33.647,0,0,0-6.657-10.192,15.662,15.662,0,0,0-1.557-1.449c-.239-.2-.449-.4-.659-.558l-.609-.406a8.536,8.536,0,0,0-1.145-.724,40.565,40.565,0,0,1,3.767,3.31,35.494,35.494,0,0,1,6.52,10.141,50.527,50.527,0,0,1,2.3,6.259,53.954,53.954,0,0,1,1.318,5.3c.29,1.521.464,2.767.565,3.622a9.668,9.668,0,0,0,.145,1.362Z" transform="translate(-585.916 -393.54)"/></g><g transform="translate(482.714 47.262)"><rect class="a" width="6.136" height="35.097" rx="3.068" transform="translate(24.882 22.715)"/><rect class="h" width="6.136" height="24.607" rx="3.068" transform="translate(24.882 33.205)"/><rect class="a" width="6.136" height="35.097" rx="3.068" transform="translate(34.93 22.715)"/><rect class="h" width="6.136" height="19.167" rx="3.068" transform="translate(34.93 38.645)"/><rect class="a" width="6.136" height="35.097" rx="3.068" transform="translate(46.295 22.715)"/><rect class="h" width="6.136" height="28.758" rx="3.068" transform="translate(46.295 29.061)"/><path class="f" d="M568.44,113.651a3.045,3.045,0,0,0,.768-.145,2.9,2.9,0,0,0,1.7-1.318,2.847,2.847,0,0,0,.413-1.507c0-.6,0-1.246,0-1.941V82.561A6.812,6.812,0,0,0,571.2,80.7a2.832,2.832,0,0,0-2.847-1.963,2.8,2.8,0,0,0-2.7,2.122,9.42,9.42,0,0,0-.087,1.883v28.092a2.833,2.833,0,0,0,.5,1.449,2.991,2.991,0,0,0,1.782,1.217c.5.1.775.08.775.1a2.34,2.34,0,0,1-.79,0,3.042,3.042,0,0,1-1.891-1.2,3,3,0,0,1-.558-1.557v-6.664c0-3.506,0-7.671-.043-12.315V81.778a4.1,4.1,0,0,1,.094-1.014,3.187,3.187,0,0,1,3.071-2.4,3.318,3.318,0,0,1,1.992.572,3.246,3.246,0,0,1,1.21,1.652,3.77,3.77,0,0,1,.145,1.014V91.71c0,4.622,0,8.787-.043,12.315v6.664a3.071,3.071,0,0,1-.464,1.579,2.962,2.962,0,0,1-2.122,1.326,2.288,2.288,0,0,1-.782.058Z" transform="translate(-540.399 -55.832)"/><path class="f" d="M582.291,113.64a3.045,3.045,0,0,0,.768-.145,2.9,2.9,0,0,0,2.122-2.825c0-.6,0-1.246,0-1.941V82.549a6.809,6.809,0,0,0-.13-1.862,2.9,2.9,0,0,0-5.549.159,9.464,9.464,0,0,0-.08,1.883V91.88c0,4.622,0,8.787-.043,12.315v6.657a2.937,2.937,0,0,0,2.289,2.666c.493.1.775.08.768.1a2.333,2.333,0,0,1-.79,0,3.014,3.014,0,0,1-2.441-2.76v-6.664c0-3.506,0-7.671-.036-12.315V81.738a3.785,3.785,0,0,1,.094-1.014,3.18,3.18,0,0,1,3.071-2.4,3.281,3.281,0,0,1,1.985.572,3.216,3.216,0,0,1,1.217,1.652,3.49,3.49,0,0,1,.138,1.014V91.7c0,4.622,0,8.787-.036,12.315v6.664a3.014,3.014,0,0,1-.471,1.579,2.955,2.955,0,0,1-1.811,1.318,2.332,2.332,0,0,1-1.065.065Z" transform="translate(-544.21 -55.821)"/><path class="f" d="M597.975,113.629a3.045,3.045,0,0,0,.768-.145,2.9,2.9,0,0,0,2.122-2.825v-6.664c0-3.506,0-7.671-.043-12.315V82.538a6.809,6.809,0,0,0-.13-1.862,2.9,2.9,0,0,0-5.549.159,10.019,10.019,0,0,0-.087,1.883v9.12c0,4.622,0,8.787-.043,12.315v6.657a2.9,2.9,0,0,0,.5,1.449,3.006,3.006,0,0,0,1.782,1.217c.5.1.775.08.775.1a2.333,2.333,0,0,1-.79,0,3.013,3.013,0,0,1-2.441-2.76c0-.608,0-1.246,0-1.941V81.7a3.783,3.783,0,0,1,.094-1.014,3.284,3.284,0,0,1,6.273-.181,3.49,3.49,0,0,1,.138,1.014v29.12a3.013,3.013,0,0,1-.471,1.579,2.956,2.956,0,0,1-1.811,1.318,2.332,2.332,0,0,1-1.087.094Z" transform="translate(-548.529 -55.809)"/><path class="f" d="M569.571,47.275a4.137,4.137,0,0,1,.659,0l1.949.051a11.61,11.61,0,0,1,1.449.065l1.717.246,2.007.283,2.238.558a36.314,36.314,0,0,1,10.866,4.738,38.335,38.335,0,0,1,17.617,28.823,39.5,39.5,0,0,1,.1,5.252c-.058.891-.043,1.789-.174,2.687s-.268,1.8-.406,2.709a38.63,38.63,0,0,1-3.622,10.692,40.92,40.92,0,0,1-7.019,9.613,40.276,40.276,0,0,1-10.062,7.244A36.7,36.7,0,0,1,574.627,124a24.544,24.544,0,0,1-3.274.275,27.875,27.875,0,0,1-3.3.058,38.6,38.6,0,0,1-19.812-6.382l.4.043-13.43,5.389-.79.319.225-.826,3.948-14.357.065.348a38.5,38.5,0,0,1-7.164-16.407,34.814,34.814,0,0,1-.514-8.446,27.387,27.387,0,0,1,.377-4.035c.109-.659.21-1.318.312-1.97s.311-1.268.464-1.9a38.458,38.458,0,0,1,14.98-21.8,36.645,36.645,0,0,1,8.917-4.7l2.007-.724,1.92-.514,1.739-.435c.565-.109,1.1-.167,1.608-.239,1.014-.13,1.905-.3,2.688-.348l1.978-.065h1.2a2.537,2.537,0,0,1,.413,0,1.449,1.449,0,0,1-.413.058l-1.2.094-1.963.13c-.775.065-1.659.261-2.666.406A38.219,38.219,0,0,0,532.8,76.308c-.145.623-.333,1.239-.449,1.869s-.2,1.282-.29,1.934a26.421,26.421,0,0,0-.355,3.962,34.276,34.276,0,0,0,.543,8.244,37.834,37.834,0,0,0,7.07,16.045l.116.167-.051.188-3.919,14.372-.565-.507q6.563-2.644,13.423-5.4l.21-.087.188.123a37.864,37.864,0,0,0,19.37,6.237,28.253,28.253,0,0,0,3.231-.058,23.463,23.463,0,0,0,3.195-.268,35.843,35.843,0,0,0,12-3.665,39.7,39.7,0,0,0,9.859-7.056,40.566,40.566,0,0,0,6.86-9.417,37.974,37.974,0,0,0,3.622-10.467q.2-1.34.413-2.651c.13-.877.116-1.76.181-2.63a39.366,39.366,0,0,0-.087-5.158,37.914,37.914,0,0,0-17.175-28.49,36.459,36.459,0,0,0-10.677-4.8l-2.209-.587-1.985-.326-1.71-.283c-.521-.058-1-.072-1.449-.1l-1.941-.145a3.658,3.658,0,0,1-.645-.08Z" transform="translate(-530.911 -47.262)"/></g></g></svg>