<svg xmlns="http://www.w3.org/2000/svg" width="202.43" height="150.834" viewBox="0 0 202.43 150.834"><defs><style>.a{fill:#ebebeb;}.b{fill:#e6e6e6;}.c{fill:#f0f0f0;}.d{fill:#f5f5f5;}.e{fill:#fff;}.f{fill:#fafafa;}.g{fill:#e0e0e0;}.h{fill:#ffb573;}.i{fill:#263238;}.j{fill:#b24bf3;}.k{opacity:0.2;}.l{fill:#ed893e;}.m{fill:none;}</style></defs><g transform="translate(0 -55)"><g transform="translate(0 55)"><rect class="a" width="202.43" height="0.101" transform="translate(0 132.551)"/><rect class="a" width="13.409" height="0.101" transform="translate(21.239 136.405)"/><rect class="a" width="13.968" height="0.101" transform="translate(58.838 135.308)"/><rect class="a" width="22.437" height="0.101" transform="translate(30.802 138.361)"/><rect class="a" width="17.486" height="0.101" transform="translate(164.227 138.733)"/><rect class="a" width="9.271" height="0.101" transform="translate(149.972 136.203)"/><rect class="a" width="37.927" height="0.101" transform="translate(79.203 137.826)"/><path class="a" d="M118.692,169.494H40.518a2.312,2.312,0,0,1-2.308-2.312V57.292A2.312,2.312,0,0,1,40.518,55h78.174A2.312,2.312,0,0,1,121,57.312V167.182A2.312,2.312,0,0,1,118.692,169.494ZM40.518,55.081a2.211,2.211,0,0,0-2.206,2.211V167.182a2.211,2.211,0,0,0,2.206,2.211h78.174a2.215,2.215,0,0,0,2.211-2.211V57.292a2.215,2.215,0,0,0-2.211-2.211Z" transform="translate(-22.74 -55)"/><path class="a" d="M334.99,169.494H256.812a2.316,2.316,0,0,1-2.312-2.312V57.292A2.316,2.316,0,0,1,256.812,55H334.99a2.312,2.312,0,0,1,2.3,2.292V167.182A2.312,2.312,0,0,1,334.99,169.494ZM256.812,55.081a2.215,2.215,0,0,0-2.211,2.211V167.182a2.215,2.215,0,0,0,2.211,2.211H334.99a2.215,2.215,0,0,0,2.211-2.211V57.292a2.215,2.215,0,0,0-2.211-2.211Z" transform="translate(-151.463 -55)"/><rect class="b" width="6.158" height="23.858" transform="translate(59.709 105.612) rotate(180)"/><path class="c" d="M91.05,274.8h20.433l3.085-27.923H94.135Z" transform="translate(-54.188 -169.196)"/><path class="d" d="M85.58,274.8h21.105l3.085-27.923H88.665Z" transform="translate(-50.932 -169.196)"/><path class="e" d="M108.121,275.836l2.6-23.526H93.149l-2.6,23.526Z" transform="translate(-53.89 -172.427)"/><path class="d" d="M113.4,278.517l.109-.955c.652-5.9-3.036-11.162-7.822-11.162h0l-.105.96C104.928,273.258,108.612,278.517,113.4,278.517Z" transform="translate(-62.79 -180.813)"/><rect class="b" width="121.073" height="43.911" transform="translate(164.689 59.053) rotate(180)"/><rect class="c" width="122.247" height="43.911" transform="translate(163.66 59.053) rotate(180)"/><rect class="b" width="121.073" height="4.093" transform="translate(164.689 63.146) rotate(180)"/><rect class="c" width="122.247" height="4.093" transform="translate(159.988 63.146) rotate(180)"/><rect class="f" width="37.745" height="116.081" transform="translate(160.575 18.227) rotate(90)"/><path class="e" d="M324.312,137.765,309.223,100.02H295.98l15.089,37.745Z" transform="translate(-176.15 -81.793)"/><path class="e" d="M162.786,137.765,147.7,100.02H134.45l15.089,37.745Z" transform="translate(-80.017 -81.793)"/><path class="e" d="M296.445,137.765,281.356,100.02H276.19l15.089,37.745Z" transform="translate(-164.372 -81.793)"/><rect class="b" width="37.745" height="0.393" transform="translate(44.887 18.227) rotate(90)"/><rect class="b" width="18.154" height="26.943" transform="translate(41.385 132.551) rotate(180)"/><path class="c" d="M59.206,374.764H57.38V369.57h3.741Z" transform="translate(-34.149 -242.213)"/><rect class="b" width="18.154" height="26.943" transform="translate(92.263 132.551) rotate(180)"/><rect class="c" width="52.474" height="23.753" transform="translate(75.705 129.365) rotate(180)"/><path class="c" d="M179.665,374.764h1.826V369.57H177.75Z" transform="translate(-105.786 -242.213)"/><rect class="b" width="49.64" height="9.587" transform="translate(74.288 116.68) rotate(180)"/><path class="c" d="M102.829,330.191h6.619a10.473,10.473,0,0,0,7.6-3.271H95.23A10.462,10.462,0,0,0,102.829,330.191Z" transform="translate(-56.675 -216.831)"/><rect class="b" width="49.64" height="9.587" transform="translate(74.288 127.814) rotate(180)"/><path class="c" d="M102.829,357.651h6.619a10.473,10.473,0,0,0,7.6-3.271H95.23A10.462,10.462,0,0,0,102.829,357.651Z" transform="translate(-56.675 -233.173)"/><path class="c" d="M314.782,287.674a.381.381,0,0,0-.377-.3H299.835a.376.376,0,0,0-.372.3l-5.182,38.17h.781l5.077-37.709H314.09l5.077,37.709h.785Z" transform="translate(-175.138 -193.293)"/><path class="c" d="M384.5,287.674a.381.381,0,0,0-.377-.3H369.551a.38.38,0,0,0-.376.3L364,325.844h.781l5.077-37.709h13.956l5.077,37.709h.781Z" transform="translate(-216.631 -193.293)"/><path class="g" d="M342.432,280.17H296.578c-2.19,0-3.968,1.053-3.968,2.356v.081c0,.474.648.858,1.445.858H344.95c.81,0,1.449-.385,1.449-.858v-.077C346.4,281.223,344.622,280.17,342.432,280.17Z" transform="translate(-174.144 -189.008)"/><path class="b" d="M371.573,233.5h-30.32l-4.393,17.907h30.32Z" transform="translate(-200.479 -161.233)"/><path class="b" d="M367,277.73l-.126.988H336.55l.121-.988Z" transform="translate(-200.295 -187.556)"/><path class="c" d="M369.267,233.5h-30.32l-4.4,17.907h30.32Z" transform="translate(-199.104 -161.233)"/><path class="e" d="M365.766,251.787l3.992-16.267H341.122l-3.992,16.267Z" transform="translate(-200.64 -162.435)"/><path class="c" d="M340.67,277.73l-.121.988H307.16l.121-.988Z" transform="translate(-182.803 -187.556)"/><path class="b" d="M177.868,283.984h.466c0-.968,0-3.417.053-9.032.081-10.182.243-10.8.243-10.8l-1.117,4.7C176.807,274.053,177.718,279.284,177.868,283.984Z" transform="translate(-105.487 -179.474)"/><path class="b" d="M163.562,269.65c-1.619-1.915-5.04-2.474-8.559-2.951-1.381-.186,3.644,2.968,6.073,5.207,1.9,1.741,3.113,2.223,3.644,3.955C164.983,273.7,164.946,271.31,163.562,269.65Z" transform="translate(-92.108 -180.986)"/><path class="b" d="M179.855,278.136c1.619-1.915,5.04-2.47,8.559-2.947,1.381-.186-3.644,2.968-6.073,5.206-1.9,1.741-3.117,2.223-3.644,3.955C178.426,282.188,178.47,279.788,179.855,278.136Z" transform="translate(-106.272 -186.038)"/><path class="b" d="M178.83,255.24c1.215-2.292,4.239-4.453,7.64-5.263,1.336-.32-3.093,4.227-4.777,7.162-1.308,2.275-3.045,4.955-3.312,6.883C177.972,260.223,177.628,257.543,178.83,255.24Z" transform="translate(-105.936 -171.029)"/><path class="c" d="M175.373,311.131h0c-1.433,0-2.623-.717-2.7-1.64l-.239-1.571h5.9l-.239,1.571C178,310.414,176.811,311.131,175.373,311.131Z" transform="translate(-102.62 -205.523)"/><path class="c" d="M177.858,306.833H171.21l-.19-1.753h7.028Z" transform="translate(-101.781 -203.833)"/></g><g transform="translate(22.717 196.668)"><ellipse class="d" cx="78.498" cy="4.583" rx="78.498" ry="4.583"/></g><g transform="translate(113.381 78.211)"><path class="h" d="M306.757,388.1l-3.077-.753.919-7.328,3.081.753Z" transform="translate(-294.113 -271.643)"/><path class="h" d="M369.236,397.46h-3.17l-2.466-7.34h3.166Z" transform="translate(-329.774 -277.654)"/><path class="i" d="M360.025,407.34h3.862a.279.279,0,0,1,.271.215l.628,2.834a.466.466,0,0,1-.466.563c-1.243-.02-2.15-.093-3.717-.093-.964,0-3.866.1-5.2.1s-1.5-1.316-.96-1.437a12.576,12.576,0,0,0,5.065-1.972A.773.773,0,0,1,360.025,407.34Z" transform="translate(-324.154 -287.902)"/><path class="i" d="M292.182,397.219l3.36.81a.279.279,0,0,1,.211.275l-.061,2.887a.458.458,0,0,1-.575.437c-1.215-.316-2.943-.81-4.453-1.186-1.781-.437-3.344-.717-5.433-1.215-1.263-.308-1.3-1.672-.745-1.656,2.534.061,4.518.486,6.911-.292A1.462,1.462,0,0,1,292.182,397.219Z" transform="translate(-282.485 -281.862)"/><path class="h" d="M309.9,170.631c-.219.656-.429,1.215-.668,1.818s-.478,1.17-.733,1.749c-.506,1.158-1.069,2.292-1.684,3.417a33.028,33.028,0,0,1-2.065,3.3,19.226,19.226,0,0,1-2.7,3.081c-.271.239-.542.478-.846.7-.162.117-.279.215-.478.34a6.339,6.339,0,0,1-.583.348,5.644,5.644,0,0,1-2.733.66,6.477,6.477,0,0,1-2.53-.575,9.469,9.469,0,0,1-1.927-1.174,15.789,15.789,0,0,1-2.794-2.919,16.6,16.6,0,0,1-1.085-1.619,17.928,17.928,0,0,1-.943-1.7l2.024-1.255c.348.4.749.858,1.138,1.271s.81.81,1.215,1.215a14.708,14.708,0,0,0,2.555,1.964,3.9,3.9,0,0,0,2.263.672,1.72,1.72,0,0,0,.729-.291,1.8,1.8,0,0,0,.182-.138c.053-.04.166-.142.243-.211a6.556,6.556,0,0,0,.53-.5,23.419,23.419,0,0,0,3.6-5.421c.522-1.016,1-2.065,1.474-3.117.231-.53.457-1.065.672-1.6s.433-1.093.615-1.579Z" transform="translate(-284.859 -146.092)"/><path class="j" d="M327.989,165.165c.676,2.951-5.8,10.506-5.8,10.506l-5.822-4.259a38.6,38.6,0,0,1,4.619-6.883C323.657,161.537,327.24,161.926,327.989,165.165Z" transform="translate(-301.665 -142.185)"/><path class="k" d="M326.619,176.814A30.528,30.528,0,0,0,325,180.668l2.328,1.7s3.846-4.482,5.3-7.895C330.875,172.972,328.142,173.826,326.619,176.814Z" transform="translate(-306.802 -148.882)"/><path class="h" d="M288.044,186.37l-1.478-1.98-2.506,2.955a3.639,3.639,0,0,0,3.4.927Z" transform="translate(-282.436 -155.216)"/><path class="h" d="M280.88,181.7l-.83,3.393,1.623.652,2.506-2.955Z" transform="translate(-280.05 -153.615)"/><path class="k" d="M305.254,380.02l-.474,3.781,3.081.749.474-3.777Z" transform="translate(-294.768 -271.643)"/><path class="k" d="M366.77,390.12H363.6l1.271,3.785h3.17Z" transform="translate(-329.774 -277.654)"/><path class="j" d="M348.293,164.411a71.176,71.176,0,0,0-2.68,10.275c-.457,2.429-.81,4.757-1.036,6.883-.583,4.955-.717,8.753-.947,10.028l-16.8-2.263c-1.138-18.138,3.846-27.126,3.846-27.126a32.387,32.387,0,0,1,4.069-.239c.287,0,.579,0,.874.02a62.633,62.633,0,0,1,7.142.96c.449.085.9.178,1.34.279C346.338,163.735,348.293,164.411,348.293,164.411Z" transform="translate(-307.791 -141.872)"/><path class="k" d="M342.237,173.574c-3.077-.4-4.453.486-4.7,1.619-.988,4.421,2.429,8.538,2.429,8.538s5.016-3.04,6-7.462C346.225,175.137,345.31,173.967,342.237,173.574Z" transform="translate(-314.156 -148.72)"/><path class="e" d="M341.953,183.823c-.842-1.3-2.308-4.049-1.684-6.883.117-.514,1.308-.9,3.36-.636s3.008.923,2.895,1.437C345.9,180.584,343.31,182.815,341.953,183.823Z" transform="translate(-315.799 -150.353)"/><path class="k" d="M368.608,193.38c-.457,2.429-.81,4.757-1.036,6.883l-2.271-5.255Z" transform="translate(-330.786 -160.566)"/><path class="h" d="M355.816,144.28c-.761,2.235-1.777,6.385-.377,8.134a7.2,7.2,0,0,1-5.8,1.47c-1.972-.308-1.883-1.7-1.34-2.409,2.644-.267,2.834-2.178,2.632-4.024Z" transform="translate(-320.468 -131.345)"/><path class="k" d="M358.185,147.46l-2.895,1.862a7.359,7.359,0,0,1,.049,1.3,3.167,3.167,0,0,0,2.729-1.911A3.538,3.538,0,0,0,358.185,147.46Z" transform="translate(-324.828 -133.237)"/><path class="i" d="M349.267,122.093c-2.453-.2-3.3,5.713-1.773,6.846S353.862,122.457,349.267,122.093Z" transform="translate(-319.733 -118.137)"/><path class="h" d="M355.511,128.225c-.611,3.085-.81,4.923-2.6,6.308a4.179,4.179,0,0,1-6.66-3.065c-.292-2.887.757-7.445,3.968-8.275a4.292,4.292,0,0,1,5.292,5.032Z" transform="translate(-319.422 -118.711)"/><path class="i" d="M365.476,132.413c-1.518.947-2.8-8.526,1.235-7.287C373.265,127.154,367.285,131.287,365.476,132.413Z" transform="translate(-330.018 -119.879)"/><path class="i" d="M352.513,119.334c-.919-1.134-6.506-.449-9.081-2.138s-.943-5.4,3.769-4.8c-2.194.255-1.794,2.085-.287,2.069s4.972-1.883,6.478-.291c2.1,2.211,3.154.9,4.2,2.154C359.132,118.132,354.5,121.8,352.513,119.334Z" transform="translate(-317.047 -112.33)"/><path class="h" d="M366.893,141.455a2.976,2.976,0,0,1-2.024,1.057c-1.045.089-1.372-.895-.915-1.777.4-.81,1.449-1.8,2.429-1.47A1.336,1.336,0,0,1,366.893,141.455Z" transform="translate(-329.865 -128.322)"/><path class="i" d="M302.278,293.2l5.215,1.255s3.36-17.761,4.919-27.53a103.292,103.292,0,0,1,2.81-11.457c1.619-5.522,3.575-11.482,5.166-16.142,1.68-4.911,2.939-8.385,2.939-8.385l-11.041-1.486s-8.413,25.826-9.344,35.445C301.938,274.908,302.278,293.2,302.278,293.2Z" transform="translate(-293.246 -182.033)"/><path class="k" d="M334.308,266.3c1.619-5.522,3.575-11.482,5.166-16.142l-.992-2.555C335.518,250.693,334.13,260.766,334.308,266.3Z" transform="translate(-312.332 -192.835)"/><path class="i" d="M341.506,231.51s-.547,27.154.2,36.409c.81,10.121,8.413,30.858,8.413,30.858h5.806s-3.874-18.968-5.061-28.81c-1.352-11.215,1.482-37,1.482-37Z" transform="translate(-316.51 -183.259)"/><path class="j" d="M360.166,394.774H367v-2.041l-7.64-.134Z" transform="translate(-327.251 -279.13)"/><path class="j" d="M300.355,383.441l6.211,1.518.49-2.008-6.915-1.8Z" transform="translate(-292.006 -272.316)"/><path class="i" d="M356.349,135.671c-.032.251-.194.437-.36.4s-.275-.247-.239-.5.194-.441.36-.4S356.381,135.416,356.349,135.671Z" transform="translate(-325.098 -125.922)"/><path class="i" d="M349.279,134.705c-.036.255-.2.441-.364.4s-.271-.247-.235-.5.194-.441.36-.4S349.311,134.454,349.279,134.705Z" transform="translate(-320.89 -125.345)"/><path class="l" d="M350.162,136.07a9.109,9.109,0,0,1-1.5,2.024,1.478,1.478,0,0,0,1.182.4Z" transform="translate(-320.883 -126.459)"/><path class="i" d="M353.415,142.886a2.374,2.374,0,0,1-.332-.024.074.074,0,1,1,.02-.146,2.024,2.024,0,0,0,1.741-.567.077.077,0,0,1,.105,0,.073.073,0,0,1,0,.105A2.105,2.105,0,0,1,353.415,142.886Z" transform="translate(-323.476 -130.064)"/><path class="i" d="M358.028,132.944a.146.146,0,0,1-.13-.077,1.215,1.215,0,0,0-.887-.628.15.15,0,0,1-.142-.158.154.154,0,0,1,.158-.142,1.5,1.5,0,0,1,1.13.777.15.15,0,0,1-.057.206A.166.166,0,0,1,358.028,132.944Z" transform="translate(-325.768 -124.001)"/><path class="i" d="M347.228,131.247a.17.17,0,0,1-.085-.024.154.154,0,0,1-.04-.211,1.5,1.5,0,0,1,1.182-.692.15.15,0,1,1,0,.3,1.17,1.17,0,0,0-.931.559A.15.15,0,0,1,347.228,131.247Z" transform="translate(-319.941 -123.037)"/><path class="j" d="M364.929,407.515a.968.968,0,0,1-.611-.162.453.453,0,0,1-.154-.4.239.239,0,0,1,.13-.215c.348-.178,1.372.449,1.486.522a.073.073,0,0,1,.036.077.077.077,0,0,1-.057.061,3.741,3.741,0,0,1-.83.121Zm-.47-.656a.223.223,0,0,0-.1,0,.1.1,0,0,0-.049.089.3.3,0,0,0,.1.271,1.522,1.522,0,0,0,1.126.057A3.013,3.013,0,0,0,364.459,406.859Z" transform="translate(-330.107 -287.523)"/><path class="j" d="M366.694,406.349h-.036c-.328-.178-.964-.875-.895-1.215a.243.243,0,0,1,.239-.2.425.425,0,0,1,.32.1c.368.3.441,1.215.445,1.255a.049.049,0,0,1-.073.061Zm-.64-1.283h-.036c-.1,0-.105.057-.109.077-.04.211.364.733.692.98a1.785,1.785,0,0,0-.376-.992.255.255,0,0,0-.17-.065Z" transform="translate(-331.058 -286.47)"/><path class="j" d="M300.332,396.563h0c-.522-.02-1.433-.113-1.7-.5a.425.425,0,0,1-.049-.385.243.243,0,0,1,.17-.166c.425-.121,1.506.81,1.619.919a.089.089,0,0,1,.02.085A.077.077,0,0,1,300.332,396.563Zm-1.518-.911h-.032a.089.089,0,0,0-.065.065.279.279,0,0,0,.032.255,1.958,1.958,0,0,0,1.356.4A3.356,3.356,0,0,0,298.813,395.652Z" transform="translate(-291.064 -280.858)"/><path class="j" d="M301.707,395.8a.077.077,0,0,1-.053,0c-.332-.259-.9-1.105-.765-1.437.036-.081.117-.166.324-.138a.526.526,0,0,1,.372.223,2.132,2.132,0,0,1,.19,1.3.077.077,0,0,1-.049.057Zm-.6-1.441c-.065,0-.077.036-.081.049-.085.2.287.846.611,1.166a1.814,1.814,0,0,0-.174-1.049.4.4,0,0,0-.275-.166Z" transform="translate(-292.44 -280.092)"/><path class="h" d="M359.311,176.426c-.053.6-.109,1.113-.186,1.66s-.158,1.077-.247,1.619q-.273,1.609-.664,3.2c-.259,1.061-.555,2.121-.915,3.174a27.685,27.685,0,0,1-1.247,3.142l-.376.773-.024.049-.053.1-.109.194a3.9,3.9,0,0,1-.255.364,4.017,4.017,0,0,1-.591.607,4.389,4.389,0,0,1-1.239.717,6.559,6.559,0,0,1-1.125.308,11.741,11.741,0,0,1-3.713-.049,26.951,26.951,0,0,1-6.336-1.87l.676-2.287c.984.13,2.024.259,3.012.34s1.992.154,2.943.146a9.206,9.206,0,0,0,2.526-.283c.316-.093.514-.255.462-.251a.138.138,0,0,0-.057.032l-.036.04-.02.024h0v-.04l.255-.656a38.155,38.155,0,0,0,1.551-5.636c.211-.976.377-1.964.547-2.947q.126-.741.231-1.482l.2-1.449Z" transform="translate(-317.056 -150.199)"/><path class="j" d="M373.231,169.648c1.769,2.458-.275,10.032-.275,10.032l-8.316.267a58.269,58.269,0,0,1,1.907-8.713C367.883,167.186,371.081,166.672,373.231,169.648Z" transform="translate(-330.393 -145.312)"/><path class="h" d="M340.569,204.242l-2.919-1.352v4.049s2.741.6,3.219-.81Z" transform="translate(-314.33 -166.226)"/><path class="h" d="M331.27,203.473l.146,3.348,2.421.113.016-4.045Z" transform="translate(-310.533 -166.226)"/></g><g transform="translate(38.044 85.214)"><path class="i" d="M178.808,186.431H101.431a4.077,4.077,0,0,1-3.992-3.729l-3.457-49.344a3.437,3.437,0,0,1,3.466-3.729h77.361a4.081,4.081,0,0,1,3.992,3.729l3.474,49.344a3.437,3.437,0,0,1-3.466,3.729Z" transform="translate(-93.969 -129.629)"/><path class="i" d="M207.458,310.2H120.271c-2.312,0-4.644-1.494-5.174-3.3L105,272.582c-.433-1.466.9-2.652,2.947-2.652h77.377a6.46,6.46,0,0,1,5.219,2.652L209.81,306.9C210.822,308.707,209.769,310.2,207.458,310.2Z" transform="translate(-100.485 -213.128)"/><path class="j" d="M181.085,186.431H103.712A4.073,4.073,0,0,1,99.72,182.7l-3.478-49.344a3.441,3.441,0,0,1,3.466-3.729h77.377a4.077,4.077,0,0,1,3.992,3.729l3.478,49.344a3.441,3.441,0,0,1-3.47,3.729Z" transform="translate(-95.315 -129.629)"/><path class="e" d="M109.008,187.9a1.619,1.619,0,0,1-1.579-1.474l-3.356-47.644a1.356,1.356,0,0,1,1.368-1.47h75.676a1.619,1.619,0,0,1,1.575,1.47l3.356,47.644a1.36,1.36,0,0,1-1.368,1.474Z" transform="translate(-99.98 -134.2)"/><ellipse class="k" cx="0.555" cy="0.595" rx="0.555" ry="0.595" transform="translate(42.384 1.63) rotate(-45.99)"/><path class="j" d="M209.763,310.2H122.573c-2.312,0-4.64-1.494-5.174-3.3l-10.1-34.316c-.429-1.466.9-2.652,2.951-2.652h77.373a6.46,6.46,0,0,1,5.219,2.652L212.107,306.9C213.124,308.707,212.075,310.2,209.763,310.2Z" transform="translate(-101.856 -213.128)"/><path class="k" d="M122.824,295.129a2.062,2.062,0,0,1-1.935-1.182l-5.32-17.494c-.178-.579.344-1.053,1.162-1.053h76.2a2.547,2.547,0,0,1,2.065,1.053l9.656,17.5c.356.648-.057,1.182-.923,1.182Z" transform="translate(-106.803 -216.383)"/><path class="k" d="M211.311,342.964a1.417,1.417,0,0,1-1.255-.753l-4.453-11.4c-.15-.385.142-.7.652-.7h23.279a1.466,1.466,0,0,1,1.251.7l5.292,11.4c.194.4-.081.753-.607.753Z" transform="translate(-160.383 -248.944)"/><path class="m" d="M198.01,159.092l1.777,2.733,1.777,2.737h6.312l1.377-2.733,1.381-2.729-1.777-2.737-1.777-2.733h-6.312l-1.381,2.729Z" transform="translate(-155.888 -143.913)"/><path class="m" d="M224.235,150.9h6.308l1.381-2.733,1.377-2.729-1.777-2.737-1.777-2.733h-6.308l-1.381,2.733-1.377,2.729,1.773,2.733Z" transform="translate(-169.38 -135.784)"/><path class="m" d="M252.037,208.26l-1.381,2.729-1.377,2.733,1.777,2.733,1.777,2.737h6.308l1.381-2.733,1.381-2.729-1.777-2.737-1.777-2.733Z" transform="translate(-186.401 -176.426)"/><path class="m" d="M250.057,180.94l-1.377,2.733L247.3,186.4l1.777,2.737,1.777,2.733h6.312l1.377-2.729,1.381-2.733-1.777-2.733-1.777-2.737Z" transform="translate(-185.223 -160.166)"/><path class="m" d="M245.32,159.092l1.777,2.733,1.777,2.737h6.312l1.377-2.733,1.381-2.729-1.777-2.737-1.777-2.733h-6.312l-1.377,2.729Z" transform="translate(-184.044 -143.913)"/><path class="m" d="M137.9,178.211l1.377-2.729,1.381-2.733-1.777-2.733L137.1,167.28h-6.312l-1.377,2.733-1.381,2.733,1.777,2.733,1.777,2.733Z" transform="translate(-114.24 -152.037)"/><path class="m" d="M150.7,159.092l1.777,2.733,1.777,2.737h6.308l1.381-2.733,1.381-2.729-1.777-2.737-1.777-2.733h-6.312l-1.381,2.729Z" transform="translate(-127.732 -143.913)"/><path class="m" d="M135.545,232.851h6.308l1.381-2.733,1.381-2.729-1.777-2.737-1.777-2.733h-6.312l-1.377,2.729-1.381,2.733,1.777,2.733Z" transform="translate(-116.597 -184.555)"/><path class="m" d="M176.915,150.9h6.312l1.381-2.733,1.377-2.729-1.777-2.737-1.777-2.733h-6.308l-1.381,2.733-1.381,2.729,1.777,2.733Z" transform="translate(-141.218 -135.784)"/><path class="m" d="M139.876,205.531l1.377-2.733,1.381-2.729-1.777-2.737-1.777-2.733h-6.312l-1.377,2.733-1.381,2.729,1.777,2.733,1.777,2.737Z" transform="translate(-115.419 -168.296)"/><path class="m" d="M202.747,180.94l-1.381,2.733L199.99,186.4l1.777,2.737,1.777,2.733h6.308l1.381-2.729,1.381-2.733-1.777-2.733-1.777-2.737Z" transform="translate(-157.067 -160.166)"/><path class="m" d="M226.011,197.333l-1.381,2.729,1.777,2.733,1.777,2.737H234.5l1.381-2.733,1.377-2.729-1.777-2.737L233.7,194.6h-6.312Z" transform="translate(-171.731 -168.296)"/><path class="m" d="M186.389,194.6h-6.312l-1.377,2.733-1.381,2.729,1.777,2.733,1.777,2.737h6.312l1.377-2.733,1.381-2.729-1.777-2.737Z" transform="translate(-143.575 -168.296)"/><path class="m" d="M135.916,150.9l1.377-2.733,1.381-2.729L136.9,142.7l-1.777-2.733h-6.312l-1.377,2.733-1.381,2.729,1.777,2.733L129.6,150.9Z" transform="translate(-113.062 -135.784)"/><path class="m" d="M167.279,213.73l-1.777-2.737-1.773-2.733h-6.312l-1.381,2.729-1.377,2.733,1.773,2.733,1.777,2.737h6.312l1.381-2.733Z" transform="translate(-130.089 -176.426)"/><path class="m" d="M235.279,172.75l-1.777-2.733-1.777-2.737h-6.308l-1.381,2.733-1.377,2.733,1.773,2.733,1.777,2.733h6.312l1.381-2.729Z" transform="translate(-170.558 -152.037)"/><path class="m" d="M235.679,221.92h-6.312l-1.377,2.729-1.381,2.733,1.777,2.733,1.777,2.737h6.312l1.377-2.733,1.381-2.729-1.777-2.737Z" transform="translate(-172.909 -184.555)"/><path class="m" d="M188.369,221.92h-6.312l-1.377,2.729-1.381,2.733,1.777,2.733,1.777,2.737h6.312l1.377-2.733,1.381-2.729-1.777-2.737Z" transform="translate(-144.753 -184.555)"/><path class="m" d="M214.594,213.73l-1.781-2.737-1.773-2.733h-6.312l-1.381,2.729-1.377,2.733,1.777,2.733,1.777,2.737h6.308l1.381-2.733Z" transform="translate(-158.245 -176.426)"/><path class="m" d="M184.409,167.28H178.1l-1.377,2.733-1.381,2.733,1.777,2.733,1.777,2.733h6.312l1.381-2.729,1.377-2.733-1.777-2.733Z" transform="translate(-142.396 -152.037)"/><path class="m" d="M155.437,180.94l-1.381,2.733L152.68,186.4l1.777,2.737,1.777,2.733h6.308l1.381-2.729,1.377-2.733-1.773-2.733-1.777-2.737Z" transform="translate(-128.91 -160.166)"/><path class="g" d="M107.19,180.881l1.911-3.789h6.312l1.777,2.737,1.777,2.733-1.381,2.733-1.312,2.6h.142l1.283-2.543,1.381-2.733h6.312l1.777,2.737,1.648,2.538h.154l-1.7-2.607-1.777-2.737,1.381-2.729,1.381-2.733h6.3l1.777,2.737,1.777,2.733-1.377,2.733-1.316,2.6h.142l1.287-2.543,1.377-2.733h6.312l1.777,2.737,1.648,2.538h.154l-1.692-2.607-1.745-2.737,1.377-2.729,1.381-2.733h6.308l1.777,2.737,1.777,2.733-1.377,2.733-1.316,2.6h.142l1.267-2.534,1.377-2.733H163.7l1.777,2.737,1.648,2.538h.154l-1.692-2.607-1.777-2.737,1.377-2.729,1.381-2.733h6.312l1.777,2.737,1.777,2.733-1.4,2.725-1.316,2.6h.146l1.283-2.543,1.377-2.733h6.324l1.777,2.737,1.3,1.992.081-.109-1.251-1.951-1.777-2.737,1.377-2.729,1.215-2.429v-.247l-1.316,2.607-1.381,2.733h-6.336l-1.777-2.737-1.777-2.733,1.381-2.733,1.377-2.729h6.312l3.478,5.348-.02-.263-3.348-5.154,2.619-5.19v-.251l-2.717,5.381h-6.328l-1.777-2.733-1.777-2.737,1.381-2.729,1.381-2.733h6.308l3.506,5.4-.02-.263-3.372-5.194,2.64-5.227v-.247l-2.737,5.417H174.94l-1.777-2.737-1.765-2.733,1.377-2.733,1.381-2.729h6.312l3.522,5.421v-.263l-3.4-5.227,2.66-5.263v-.247l-2.8,5.462h-6.308l-1.777-2.737-1.773-2.745,1.377-2.733,1.377-2.717h6.312l1.777,2.733,1.769,2.729V143.6l-1.68-2.543-1.777-2.737.51-1.008h-.142l-.478.947h-6.3l-.619-.947h-.15l.66,1.016-1.381,2.733-1.377,2.729h-6.312l-1.777-2.733-1.777-2.737.51-1.008h-.142l-.482.947h-6.308l-.6-.947h-.15l.66,1.016-1.381,2.733-1.377,2.729H145l-1.777-2.733-1.789-2.737.51-1.008h-.142l-.482.947h-6.3l-.615-.947h-.154l.664,1.016-1.381,2.733-1.377,2.729H125.85l-1.777-2.733-1.777-2.737.51-1.008h-.142l-.482.947h-6.312l-.615-.947h-.134l.664,1.016-1.381,2.733-1.381,2.729H106.7l-2.377-3.644v.263l2.251,3.462-1.761,3.486.02.247,1.854-3.672H113l1.773,2.733,1.777,2.737-1.377,2.729-1.381,2.733h-6.3l-1.773-2.737-.623-.96v.263l.5.765,1.777,2.733-1.381,2.733-.4.81v.247l.494-.98L107.462,155h6.308l1.777,2.737,1.777,2.733-1.377,2.733-1.381,2.729H108.3l-1.777-2.733-.648-1v.259l.522.81,1.777,2.733-1.381,2.729-.4.834v.247l.514-1.02,1.381-2.729h6.308l1.777,2.733,1.777,2.737-1.377,2.729L115.385,177H109.1l-2.449-3.781.02.263,2.324,3.575-1.818,3.6Zm27.364-3.915h-6.3l-1.794-2.737-1.773-2.733,1.377-2.733,1.381-2.729h6.308l1.777,2.733L137.3,171.5l-1.377,2.729Zm27.53-16.6h-6.3l-1.794-2.725-1.777-2.733,1.381-2.733,1.381-2.729h6.308l1.777,2.733,1.777,2.733-1.377,2.733Zm0,.126,1.777,2.737,1.777,2.733-1.377,2.729-1.368,2.745h-6.312L154.8,168.7l-1.777-2.737,1.381-2.729,1.377-2.733Zm-8.2-2.794,1.777,2.733-1.381,2.733-1.381,2.729h-6.3l-1.777-2.733-1.773-2.725,1.377-2.729,1.381-2.733h6.312Zm-7.389,8.275-1.381,2.729-1.377,2.733h-6.312l-1.777-2.733-1.777-2.737,1.381-2.729,1.377-2.733h6.312l1.777,2.737Zm-2.178-8.328-1.381,2.733h-6.312l-1.777-2.737-1.777-2.733,1.381-2.733,1.377-2.729h6.312l1.777,2.733,1.777,2.733Zm-9.575.065,1.773,2.733-1.377,2.733-1.4,2.729h-6.292l-1.777-2.733-1.777-2.737,1.377-2.729,1.381-2.733h6.312Zm11.174,22.053-1.377,2.733h-6.312l-1.777-2.737-1.777-2.733,1.381-2.733,1.377-2.729h6.312l1.777,2.733,1.777,2.737Zm7.8-2.8h-6.308l-1.777-2.737-1.765-2.733,1.377-2.733,1.381-2.729h6.312l1.777,2.733,1.773,2.737-1.377,2.729Zm11.336,2.8-1.377,2.733h-6.292l-1.777-2.737-1.777-2.733,1.381-2.733,1.377-2.729H162.9l1.777,2.733,1.777,2.737Zm8.8-11,1.777,2.737-1.381,2.729-1.381,2.733h-6.308l-1.777-2.737-1.777-2.733,1.377-2.733,1.381-2.729h6.312Zm-.81-11.057,1.777,2.733-1.381,2.733-1.377,2.729h-6.3l-1.777-2.733-1.777-2.737,1.381-2.729,1.377-2.733h6.312Zm-8.907-13.794h6.312l1.777,2.733L174,149.383l-1.381,2.729-1.377,2.733H164.96l-1.777-2.737-1.777-2.733,1.381-2.733Zm-11.336-2.8,1.381-2.729h6.312l1.773,2.733,1.777,2.737-1.377,2.729-1.393,2.749h-6.3l-1.773-2.737-1.777-2.733Zm-7.8,2.8h6.312l1.777,2.733,1.777,2.737-1.381,2.729-1.377,2.733h-6.308l-1.777-2.737-1.781-2.729,1.377-2.733Zm-11.336-2.8,1.381-2.729h6.308l1.777,2.733,1.777,2.737-1.377,2.729-1.4,2.749h-6.312l-1.777-2.737-1.777-2.733Zm-7.8,2.8h6.3l1.777,2.733,1.777,2.737-1.381,2.729-1.381,2.733h-6.308l-1.777-2.737-1.777-2.733,1.377-2.733Zm-10.96,2.664-1.777-2.733,1.381-2.733,1.377-2.729H122.2l1.777,2.733,1.777,2.737-1.381,2.729L123,149.314h-6.328Zm.81,11.061-1.814-2.729,1.381-2.733,1.377-2.729h6.312l1.777,2.733,1.777,2.733-1.381,2.733-1.377,2.733h-6.3Zm.81,11.061-1.814-2.733,1.381-2.729,1.377-2.733h6.312l1.777,2.737,1.777,2.733L125.96,168.7l-1.377,2.733h-6.308Zm.4,5.591,1.381-2.729h6.312l1.777,2.733,1.777,2.737-1.381,2.729-1.377,2.733h-6.348l-1.777-2.737-1.773-2.729Z" transform="translate(-100.129 -134.2)"/><path class="g" d="M114.383,256.85l-2.393-3.68.016.263,2.223,3.417Z" transform="translate(-104.694 -203.153)"/><path class="j" d="M199.173,215.391h-28a2.243,2.243,0,0,1-2.206-2.089l-1.073-19.263a1.96,1.96,0,0,1,1.972-2.089h28.008a2.239,2.239,0,0,1,2.2,2.089l1.057,19.263a1.96,1.96,0,0,1-1.96,2.089Z" transform="translate(-137.962 -166.719)"/><path class="k" d="M169.855,192a1.959,1.959,0,0,0-1.972,2.089l1.073,19.263a2.243,2.243,0,0,0,2.206,2.089h14L183.859,192Z" transform="translate(-137.956 -166.749)"/><path class="k" d="M201.515,218.018l.324-6.121a3.644,3.644,0,0,1-1.7-2.834,3.194,3.194,0,0,1,3.239-3.413,3.644,3.644,0,0,1,3.583,3.381,3.19,3.19,0,0,1-1.381,2.834l1,6.121Z" transform="translate(-157.151 -174.872)"/><path class="i" d="M207.216,209.762a3.085,3.085,0,0,0-3.045-2.883,2.7,2.7,0,0,0-2.721,2.883,3.077,3.077,0,0,0,1.717,2.563l-.308,5.879h3.887l-.96-5.879A2.692,2.692,0,0,0,207.216,209.762Z" transform="translate(-157.932 -175.604)"/><path class="j" d="M200.513,162.99h-3.7l-.227-4.02a10.344,10.344,0,0,0-10.186-9.652,9.045,9.045,0,0,0-9.113,9.652l.223,4.02h-3.7l-.223-4.02a12.51,12.51,0,0,1,12.611-13.36,14.316,14.316,0,0,1,14.1,13.36Z" transform="translate(-141.33 -139.139)"/></g></g></svg>