<?xml version="1.0" encoding="utf-8"?>
<!-- Generator: Adobe Illustrator 24.0.3, SVG Export Plug-In . SVG Version: 6.00 Build 0)  -->
<svg version="1.1" id="picture_as_pdf-24px" xmlns="http://www.w3.org/2000/svg" xmlns:xlink="http://www.w3.org/1999/xlink"
	 x="0px" y="0px" viewBox="0 0 50.4 50.4" style="enable-background:new 0 0 50.4 50.4;" xml:space="preserve">
<style type="text/css">
	.st0{fill:none;}
	.st1{fill:#828282;}
</style>
<path id="Path_8818" class="st0" d="M0,0h50.4v50.4H0V0z"/>
<path id="Path_8819" class="st1" d="M42,4.2H16.8c-2.3,0-4.2,1.9-4.2,4.2v25.2c0,2.3,1.9,4.2,4.2,4.2H42c2.3,0,4.2-1.9,4.2-4.2V8.4
	C46.2,6.1,44.3,4.2,42,4.2z M24.1,19.9c0,1.7-1.4,3.1-3.1,3.1c0,0,0,0,0,0h-2.1v2.6c0,0.9-0.7,1.6-1.5,1.6c-0.9,0-1.6-0.7-1.6-1.5
	c0,0,0-0.1,0-0.1v-8.9c0-1.2,0.9-2.1,2.1-2.1l0,0H21c1.7,0,3.1,1.4,3.1,3.1c0,0,0,0,0,0L24.1,19.9z M34.6,24.1
	c0,1.7-1.4,3.1-3.1,3.1c0,0,0,0,0,0h-4.2c-0.6,0-1-0.5-1-1c0,0,0,0,0,0V15.7c0-0.6,0.5-1,1-1c0,0,0,0,0,0h4.2c1.7,0,3.1,1.4,3.1,3.1
	c0,0,0,0,0,0V24.1z M43,16.3c0,0.9-0.7,1.6-1.6,1.6h-1.6v2.1h1.6c0.9,0,1.6,0.7,1.5,1.6c0,0.8-0.7,1.5-1.5,1.5h-1.6v2.6
	c0,0.9-0.7,1.6-1.5,1.6c-0.9,0-1.6-0.7-1.6-1.5c0,0,0-0.1,0-0.1v-8.9c0-1.2,0.9-2.1,2.1-2.1h2.6C42.3,14.7,43,15.4,43,16.3L43,16.3z
	 M18.9,19.9H21v-2.1h-2.1V19.9z M6.3,12.6c-1.2,0-2.1,0.9-2.1,2.1c0,0,0,0,0,0V42c0,2.3,1.9,4.2,4.2,4.2h27.3c1.2,0,2.1-0.9,2.1-2.1
	c0-1.2-0.9-2.1-2.1-2.1H10.5c-1.2,0-2.1-0.9-2.1-2.1V14.7C8.4,13.5,7.5,12.6,6.3,12.6z M29.4,24.1h2.1v-6.3h-2.1V24.1z"/>
</svg>
