<svg xmlns="http://www.w3.org/2000/svg" width="18.508" height="18.508" viewBox="0 0 18.508 18.508"><defs><style>.a{fill:none;}.b{fill:#51087e;}</style></defs><path class="a" d="M0,0H18.508V18.508H0Z"/><path class="b" d="M16.11,16.881a.773.773,0,0,0,.771-.771V13.418a.773.773,0,0,0-.771-.771,8.8,8.8,0,0,1-2.753-.44.647.647,0,0,0-.239-.039.79.79,0,0,0-.548.224l-1.7,1.7A11.682,11.682,0,0,1,5.792,9.007l1.7-1.7a.774.774,0,0,0,.193-.787,8.761,8.761,0,0,1-.44-2.753A.773.773,0,0,0,6.47,3h-2.7A.773.773,0,0,0,3,3.771,13.109,13.109,0,0,0,16.11,16.881Zm-2.776-3.069a9.834,9.834,0,0,0,2.005.347v1.149a11.9,11.9,0,0,1-2.93-.578ZM4.565,4.542H5.722a10.025,10.025,0,0,0,.355,2l-.925.925A11.433,11.433,0,0,1,4.565,4.542Z" transform="translate(-0.687 -0.687)"/></svg>