<svg xmlns="http://www.w3.org/2000/svg" xmlns:xlink="http://www.w3.org/1999/xlink" width="347" height="257" viewBox="0 0 347 257"><defs><style>.a,.h{fill:#6c0ba9;}.b,.k{fill:#51087e;}.c{clip-path:url(#e);}.d{opacity:0.337;}.e{stroke:rgba(0,0,0,0);stroke-miterlimit:10;fill:url(#f);}.f,.n{fill:#fff;}.f{font-size:15px;}.f,.h,.i,.l{font-family:NexaBold, Nexa Bold;}.g{fill:#f7eaff;stroke:#6c0ba9;}.h{font-size:9px;letter-spacing:0.05em;}.i{fill:#a884bf;}.i,.l{font-size:10px;}.j{font-family:LucidaGrande-Bold, Lucida Grande;font-weight:700;}.k{stroke:#c576f6;}.l{fill:#fafafa;}.m{fill:none;}.o{stroke:none;}.p{filter:url(#c);}.q{filter:url(#a);}</style><filter id="a" x="0" y="0" width="347" height="257" filterUnits="userSpaceOnUse"><feOffset dy="3" input="SourceAlpha"/><feGaussianBlur stdDeviation="7.5" result="b"/><feFlood flood-color="#51087e" flood-opacity="0.051"/><feComposite operator="in" in2="b"/><feComposite in="SourceGraphic"/></filter><filter id="c" x="0" y="0" width="347" height="257" filterUnits="userSpaceOnUse"><feOffset dy="3" input="SourceAlpha"/><feGaussianBlur stdDeviation="7.5" result="d"/><feFlood flood-color="#51087e" flood-opacity="0.051"/><feComposite operator="in" in2="d"/><feComposite in="SourceGraphic"/></filter><clipPath id="e"><g class="q" transform="matrix(1, 0, 0, 1, 0, 0)"><rect class="a" width="302" height="212" rx="5" transform="translate(-47 806)"/></g></clipPath><linearGradient id="f" x1="0.183" y1="0.156" x2="0.799" y2="0.863" gradientUnits="objectBoundingBox"><stop offset="0" stop-color="#fff"/><stop offset="1" stop-color="#51087e"/></linearGradient></defs><g transform="translate(-13.5 -704.5)"><g class="p" transform="matrix(1, 0, 0, 1, 13.5, 704.5)"><rect class="b" width="302" height="212" rx="5" transform="translate(22.5 19.5)"/></g><g class="c" transform="translate(83 -82)"><g class="d" transform="translate(119 793.721)"><path class="e" d="M99.866,205.745c-.833-.027-1.665-.071-2.5-.123.917.046,1.816.088,2.605.123Zm3.8-.049c-2-.012-3.5-.08-5.175-.225q2.394.186,4.811.22a78.738,78.738,0,0,1-8.078-.539l-.075-.023.064-.056c2.318-.1,4.61.311,6.921.435,1.369.079,2.742.071,4.111.146a4.414,4.414,0,0,1-.668.038q-.548.008-1.1.008Q104.072,205.7,103.665,205.7Zm-.208,0-.129,0Zm-9.87-.3c-.315-.026-.634-.045-.949-.094h.022c1.57.1,3.138.225,4.71.323C96.06,205.555,94.711,205.478,93.586,205.392Zm15.481.1.041-.015c2.014-.191,4.044-.236,6.055-.476.143-.015.334-.041.476-.056l-.96.116-1.478.165c-2.424.242-3.568.269-3.965.269C109.122,205.492,109.07,205.489,109.068,205.489Zm-8.178-1.032c.037-.056.068-.064.229-.1.87-.086,1.553-.007,6.009.5a21.47,21.47,0,0,1,2.851.323,5.43,5.43,0,0,1-1.841.185C105.507,205.363,101.091,204.9,100.89,204.458ZM81.3,203l0-.064.086-.015c.641.008.641.008,7.266,1.324,4.059.806,4.059.806,4.138.836a1.058,1.058,0,0,1-.329.033C90.633,205.114,82.587,203.75,81.3,203Zm31.544,1.977a.181.181,0,0,1,.1-.045c1.568-.206,3.151-.139,4.719-.308.259-.027.751-.083,1.309-.168l-.938.149a31.9,31.9,0,0,1-4.495.4A4.554,4.554,0,0,1,112.849,204.976Zm-4.693-1.553c0-.161.274-.221.443-.259a13.789,13.789,0,0,1,4.682.671c1.373.386,1.444.5,1.478.544-.115.155-.561.22-1.171.22C111.681,204.6,108.173,203.962,108.156,203.423Zm-17.387.42c-2.693-.585-4.261-1.264-4.168-1.564.026-.079.184-.109.308-.131,1.392-.094,4.532.668,6.921,1.324,2.806.769,2.945.938,3.008,1.02a1.186,1.186,0,0,1-.622.093A33.236,33.236,0,0,1,90.769,203.843Zm28.209.611.214-.034-.218.034Zm-1.662-.221c.03-.049.06-.06.221-.094a9.953,9.953,0,0,1,1.891-.053c.39.015.78.026,1.17.015a6.892,6.892,0,0,0,.979-.1l-.69.128a15.172,15.172,0,0,1-2.557.258C117.711,204.386,117.355,204.316,117.317,204.233Zm-32.366.03c-2.108-.371-4.063-.773-6.148-1.264l6.156,1.264Zm37.081-.84a1.012,1.012,0,0,1,.536-.27c.777-.131,1.215.131,1.193.319-.008.06-.056.1-.146.127-.169.03-.386.075-.551.113a2.65,2.65,0,0,1-.481.049C122.118,203.761,121.922,203.59,122.032,203.423Zm-26.251-2.258c.026-.244.39-.326.608-.371,1.849-.21,4.648.773,6.009,1.388.518.233,2.168,1.017,1.609,1.309a2.118,2.118,0,0,1-.9.137C100.824,203.627,95.66,202.273,95.781,201.164Zm23.156,2.363c-1.921-.139-3.267-1.073-2.446-1.7a1.531,1.531,0,0,1,.611-.244,3.509,3.509,0,0,1,3.046.942c.41.488.406,1.014-.814,1.014C119.214,203.543,119.082,203.538,118.937,203.528Zm7.086-.694a6.668,6.668,0,0,1,1.7-.792c.4-.079.4.023.33.116a2.849,2.849,0,0,1-1.1.608,10.463,10.463,0,0,1-1.253.371c-.188.041-.439.1-.623.143A3.6,3.6,0,0,0,126.023,202.834Zm6.677-1.981c.041-.007.1-.019.143-.023l.007.038a12.941,12.941,0,0,1-2.858,1.159c-.319.1-.641.191-.964.281l-1.414.371-.259.064C129.2,202.275,130.878,201.367,132.7,200.853ZM66.24,198.767l.079-.037c.69.079,2.194.6,7.18,2.3a42.079,42.079,0,0,1,4.258,1.5c-.021,0-.045,0-.071,0C76.221,202.533,66.966,199.5,66.24,198.767Zm58.032,3.027c-.188-.619.338-1.681,1.812-2.063,1.324-.229,1.711.5,1.223,1.29a3,3,0,0,1-2.2,1.357A.793.793,0,0,1,124.272,201.795Zm-12.762.353c-2.607-.038-5.908-1.887-4.629-2.979a1.771,1.771,0,0,1,.806-.338,5.982,5.982,0,0,1,4.7,1.561c.871.878.867,1.756-.8,1.756Zm-30.933-.139q-1.91-.6-3.794-1.292.562.208,1.127.407c-1-.323-1.775-.611-2.593-.961q-2.015-.782-3.994-1.669c-.113-.221-.008-.278.285-.326,1.9-.049,6.467,1.812,7.364,2.187,1.107.462,3.612,1.553,3.012,1.752a.953.953,0,0,1-.276.03A8.016,8.016,0,0,1,80.577,202.008Zm56.269-2.262.056-.015a13.34,13.34,0,0,1-1.512.63c-.814.27-1.894.623-2.708.882C134.081,200.774,135.439,200.189,136.846,199.746Zm-55.369-2.528c.12-.218.386-.27.671-.33,2.232-.2,5.5,1.309,6.914,2.138,1.305.761,2.506,1.748,1.579,2.018a2.748,2.748,0,0,1-.762.091C87.025,201.135,80.817,198.405,81.477,197.218Zm49.194,3.792a9.048,9.048,0,0,1,4.321-3.3c.934-.18.713.308.574.529a4.532,4.532,0,0,1-1.249,1.155,11.1,11.1,0,0,1-3.511,1.711C130.715,201.1,130.667,201.072,130.671,201.01ZM118.8,199.529c-1.069-1.032-.762-2.615,1.238-3.121,2.071-.334,3.069.87,3.117,1.827a2.142,2.142,0,0,1-2.356,2.092A2.87,2.87,0,0,1,118.8,199.529Zm24.293-3.871c.18-.037.218-.041.3-.011.116.251-1.14,1.178-2.922,2.149a25.583,25.583,0,0,1-4.554,2.026A45.081,45.081,0,0,1,143.092,195.657Zm-48.594-.5a1.9,1.9,0,0,1,.957-.409,8.042,8.042,0,0,1,6,2.206c1.148,1.163,1.287,2.408-.728,2.435h-.062C97.568,199.394,92.929,196.608,94.5,195.162Zm54.7-1.272.086-.019.023.041a24.518,24.518,0,0,1-4.363,2.536c-2.311,1.148-4.562,2.067-5.109,2.255C139.881,198.677,148.407,194.183,149.2,193.891Zm-19.762,3.721c-.334-1.114.9-3.309,3.23-3.943,1.816-.33,2.164.852,1.35,2.161a5.423,5.423,0,0,1-3.628,2.465A.9.9,0,0,1,129.441,197.612ZM57.285,192.87c.019-.116.161-.139.293-.161,1.984.06,7.1,2.9,7.315,3.02.626.349,3.714,2.1,3.046,2.337a.943.943,0,0,1-.309.042C65.468,198.109,57.108,193.966,57.285,192.87Zm5.244,4.783-.379-.161c-2.678-1.272-6.272-2.926-8.89-4.321-.848-.469-1-.57-1.11-.645V192.5c2.307.889,4.408,2.2,6.621,3.282,1.452.713,2.934,1.362,4.374,2.1A2.43,2.43,0,0,1,62.53,197.653Zm48.039-1.144c-2.495-1.313-2.69-3.785-.349-4.479.1-.03.236-.06.334-.082a4.249,4.249,0,0,1,4.73,2.378c.565,1.659-.671,2.789-2.414,2.789A4.978,4.978,0,0,1,110.568,196.509Zm-44.745-4.843a1.153,1.153,0,0,1,.6-.236c2.217-.131,5.627,1.669,7.382,2.911,1.647,1.17,2.813,2.5,1.478,2.675a3.147,3.147,0,0,1-.4.024C71.647,197.039,64.547,192.943,65.823,191.666Zm87.254.829a42.943,42.943,0,0,1-3.789,2.1l-3.069,1.5c-.626.281-1.455.664-2.086.934C147.184,195.65,150.061,193.939,153.077,192.5Zm-13.8,3.35c-.019-.852,2.843-4.276,5.537-5.083,1.591-.319.8.972.626,1.234a8.084,8.084,0,0,1-1.182,1.324c-1.53,1.422-3.8,2.791-4.649,2.791C139.405,196.111,139.284,196.029,139.28,195.845Zm-52.334-.559c-3.841-.068-8.845-3.838-7.24-5.454a1.974,1.974,0,0,1,1.05-.461c2.765-.3,5.709,1.606,6.921,2.873,1.433,1.507,1.572,3.043-.643,3.043Zm36.89-1.928c-1.024-1.545-.071-3.988,2.648-4.7,2.393-.409,3.5,1.02,3.185,2.637a4.107,4.107,0,0,1-3.775,3.173A2.38,2.38,0,0,1,123.836,193.358Zm23.355.694c-.019-.533,5.627-5.282,7.675-5.995.2-.041.649-.142.3.424a11.187,11.187,0,0,1-2.78,2.592c-2.006,1.5-4.578,3-5.122,3A.139.139,0,0,1,147.192,194.052ZM99.6,192.435c-3.564-1.174-5.162-4.348-2.847-5.664A4.009,4.009,0,0,1,97.8,186.4a6.045,6.045,0,0,1,6.036,2.945c.891,1.817-.127,3.423-2.329,3.423A6.12,6.12,0,0,1,99.6,192.435Zm62.293-6.606a.3.3,0,0,1,.139-.011c-.008.311-1.917,1.883-4.168,3.429a39.464,39.464,0,0,1-5.248,3.159A99.487,99.487,0,0,1,161.9,185.829Zm-118.952-.521c-.015-.124.086-.139.184-.15,1.283.18,4.993,2.641,6.775,3.916,1.212.867,3.245,2.39,3.256,2.844a.244.244,0,0,1-.166.047C51.552,191.965,43.1,186.445,42.944,185.308Zm94.836,5.387c-.439-1.512,1.478-4.775,4.494-5.642,2.277-.435,2.532,1.2,1.467,2.96-1.159,1.905-3.431,3.485-4.833,3.486A1.066,1.066,0,0,1,137.78,190.695Zm-80.4-.06q-3.674-2.521-7.135-5.428c-.206-.735.176-.867.623-.945,2.179-.045,5.691,2.258,7.394,3.721s2.907,3.087,1.538,3.222c-.054.005-.11.008-.169.008A7.48,7.48,0,0,1,57.379,190.635Zm100.711-1.127c-.731.49-1.47.968-2.221,1.427Zm-86.1.133c-4.055-.218-9.4-4.828-7.731-6.666a1.837,1.837,0,0,1,1.08-.5c2.918-.251,6.088,2.059,7.4,3.575,1.533,1.772,1.735,3.6-.505,3.6Q72.114,189.647,71.987,189.641Zm42.592-1.1c-2.018-1.812-1.5-4.948,1.827-5.8,3.125-.5,4.689,1.516,4.8,3.11a3.646,3.646,0,0,1-3.855,3.749A4.119,4.119,0,0,1,114.578,188.545Zm51.1-4.37a5.865,5.865,0,0,1-.63.51l-4.4,3.181-2.554,1.641C160.658,187.786,163.126,185.918,165.678,184.175Zm-15.343,3.954c-.1-1.287,3.245-5.728,6.253-6.7,1.951-.409.686,1.722.536,1.966a10.476,10.476,0,0,1-1.084,1.426c-1.711,1.934-4.218,3.717-5.244,3.718A.405.405,0,0,1,150.335,188.129Zm-64.008-1.358c-4.228-1.26-6.546-5.285-3.939-6.831a3.679,3.679,0,0,1,1.122-.4,7.347,7.347,0,0,1,6.929,3.545c1.223,2.269.028,3.967-2.321,3.967A6.286,6.286,0,0,1,86.328,186.771Zm45.33-1.868c-1.032-1.778.12-5.278,3.766-6.283,2.8-.5,3.883,1.309,3.3,3.354-.652,2.3-3.019,4.147-4.948,4.147A2.34,2.34,0,0,1,131.658,184.9Zm27.962.945c-.019-.694,5.368-6.621,7.735-7.544.574-.135.6.21.079,1.028a17.993,17.993,0,0,1-2.446,2.791c-2.092,2.01-4.625,3.838-5.233,3.838C159.67,185.961,159.622,185.925,159.62,185.848ZM36.942,176.158a.655.655,0,0,1,.488-.229c1.988.071,5.319,2.787,6.951,4.483,1.711,1.774,2.806,3.609,1.6,3.687-.033,0-.068,0-.1,0C43.169,184.1,35.939,177.721,36.942,176.158Zm137.21-.311.079-.026c.113.368-2.27,2.738-3.916,4.231a34.177,34.177,0,0,1-4.9,3.89A93.057,93.057,0,0,1,174.152,175.847Zm-143.9-.082.06-.045c.889.379,4.989,4.081,5.8,4.82a30.714,30.714,0,0,1,3.4,3.327l-.049.038C38.1,183.338,30.779,176.871,30.25,175.765Zm73.206,7.09c-3.365-1.988-3.271-6,.165-7.037.135-.041.323-.079.458-.112a5.186,5.186,0,0,1,6.055,3.616,3.672,3.672,0,0,1-3.87,4.35A5.52,5.52,0,0,1,103.456,182.854Zm-47.626-.323c-4.239-.443-9.795-6.291-7.626-8.024a1.883,1.883,0,0,1,.852-.323c2.858-.161,6.07,2.555,7.42,4.3,1.79,2.32,1.639,4.065-.268,4.065A3.638,3.638,0,0,1,55.83,182.532Zm92.483-1.264c-.443-1.9,1.887-5.968,5.368-7.026,2.776-.555,2.57,1.819,1.534,3.684-1.335,2.4-3.981,4.4-5.6,4.4A1.234,1.234,0,0,1,148.313,181.268Zm-77.325-1.339c-4.562-1.264-7.6-6.261-4.854-7.979a3.469,3.469,0,0,1,1.148-.405c3.357-.353,6.355,2.221,7.412,4.168,1.386,2.55.314,4.452-2.108,4.452A6.018,6.018,0,0,1,70.989,179.928Zm51.587-1.624c-1.681-2.022-.938-6,3.151-7.094,3.571-.6,4.989,1.849,4.854,3.778a5.141,5.141,0,0,1-5.019,4.7A3.8,3.8,0,0,1,122.576,178.3Zm39.76-.026c-.161-1.771,3.432-7.041,6.4-8.1,1.8-.394,1.062,1.722.12,3.237-.169.274-.413.626-.6.885-1.726,2.369-4.281,4.51-5.385,4.51C162.564,178.815,162.369,178.65,162.336,178.278ZM89.22,176c-4.19-2.119-4.685-6.977-.829-8.121.143-.045.341-.086.488-.12a6.4,6.4,0,0,1,6.962,4.141c.851,2.781-1.1,4.816-3.789,4.816A6.293,6.293,0,0,1,89.22,176Zm82.723-.248c-.041-.852,5.008-7.881,7.281-8.913.9-.225.071,1.275-.33,1.932a22.631,22.631,0,0,1-1.883,2.6c-1.982,2.419-4.316,4.527-4.92,4.527C172,175.906,171.948,175.859,171.943,175.757Zm-29.354-1.613c-1.253-2.086.356-6.61,4.55-7.832,3.414-.645,4.04,1.958,3.4,4.014-.846,2.7-3.679,4.988-5.853,4.988A2.322,2.322,0,0,1,142.589,174.144Zm-110.576.735c-1.992-.015-9.086-8.212-8.076-9.329a.466.466,0,0,1,.255-.09c1.474.229,4.438,3.391,5.957,5.327,1.6,2.033,2.753,4.092,1.869,4.093Zm8.238-1.107a7.151,7.151,0,0,1-2.438-1.092q-2.7-3.241-5.158-6.76c-.045-1.032.255-1.456,1.148-1.621,2.615-.037,5.653,3.084,6.951,5.057,1.674,2.541,1.611,4.459-.039,4.459A2.671,2.671,0,0,1,40.251,173.773Zm144.581-9.4.045-.015a33.58,33.58,0,0,1-3.684,4.929,50.79,50.79,0,0,1-4.123,4.471C177.123,173.221,184.757,164.428,184.832,164.368ZM24.721,170.134l-.079-.091,2.322,2.62C26.679,172.359,25.929,171.541,24.721,170.134Zm85.412,1.125c-2.855-2.419-2.247-6.97,2.262-8.133,3.95-.626,5.965,2.082,6.13,4.205a4.9,4.9,0,0,1-5.054,5.162A5.115,5.115,0,0,1,110.133,171.259Zm-55.245.255c-4.742-1.617-7.765-7.679-4.558-9.142a4.37,4.37,0,0,1,.8-.225c3.3-.274,6.321,2.656,7.412,4.824,1.42,2.824.455,4.87-1.874,4.87A5.545,5.545,0,0,1,54.888,171.514Zm106.033-1.624c-.634-2.176,1.906-7.289,5.522-8.485,2.735-.57,2.483,2.228,1.429,4.4-1.348,2.779-4.028,5.126-5.674,5.126A1.263,1.263,0,0,1,160.921,169.89ZM24.1,169.429l-.442-.546c.324.385.655.774.986,1.159Zm-3.012-3.718,2.57,3.172C22.7,167.747,21.8,166.636,21.086,165.711Zm52.878,2.232c-4.505-2.067-5.754-7.469-2.089-9.029a6.6,6.6,0,0,1,.964-.281,7.174,7.174,0,0,1,7.409,4.7c1.017,3.05-.788,5.258-3.557,5.258A6.571,6.571,0,0,1,73.963,167.943Zm58.636-1.5c-2.187-2.521-.69-7.3,3.778-8.545,3.894-.694,5.255,2.127,4.978,4.351a6.307,6.307,0,0,1-5.871,5.482A3.717,3.717,0,0,1,132.6,166.446Zm42.269.233c-.409-1.737,3.151-8.331,6.01-9.487,1.692-.39,1.073,2.194-.469,4.809-1.58,2.683-3.961,5.139-5.027,5.139A.507.507,0,0,1,174.868,166.679ZM95.95,163.2c-3.631-2.487-3.5-7.926,1.418-9.157a5.963,5.963,0,0,1,7,4.663,4.785,4.785,0,0,1-4.942,5.612A6.137,6.137,0,0,1,95.95,163.2Zm87.618.938c-.476-.885,4.745-9.314,6.347-10.256.818-.225-.42,2.288-1.193,3.654-.251.443-.638,1.084-.938,1.56-1.541,2.435-3.593,5.047-4.172,5.048A.147.147,0,0,1,183.568,164.139Zm-155.973-.172c-3.492-.975-8.317-9.007-6.22-10.35a1.417,1.417,0,0,1,.469-.143c2.142.1,4.865,3.425,6.115,5.758,1.483,2.776,1.5,4.81.138,4.811A1.875,1.875,0,0,1,27.594,163.967ZM13.52,153.276l.071,0c.837.394,3.264,3.976,4.6,6.141.409.668,2.442,4.01,2.172,4.43h-.009C19.278,163.844,12.981,154.114,13.52,153.276Zm140.867,8.02c-1.418-2.652.81-7.641,4.948-8.924,3.47-.686,4.089,2.281,3.421,4.61-.957,3.328-3.868,5.671-6.1,5.672A2.447,2.447,0,0,1,154.387,161.3Zm-115.059.574c-4.663-1.613-7.9-8.707-4.693-10.256a3.61,3.61,0,0,1,.739-.21c3.061-.158,5.9,3.117,6.929,5.5v0c1.3,3,.466,5.22-1.649,5.22A4.086,4.086,0,0,1,39.328,161.87Zm148.441-1.238c1.546-2.3,3.41-5.5,4.847-7.87-1.11,1.992-3.039,5.2-4.843,7.87Zm-67.789-2.746c-2.813-2.731-1.733-7.878,3.181-9.2,4.261-.717,6.2,2.326,6.212,4.712a5.985,5.985,0,0,1-5.938,5.885A4.872,4.872,0,0,1,119.98,157.886Zm-62.657.6c-4.76-2.528-5.811-8.789-1.677-10,.146-.041.345-.075.491-.109,3.8-.39,6.613,2.847,7.39,5.267h0c1.048,3.265-.69,5.613-3.381,5.613A6.066,6.066,0,0,1,57.323,158.486Zm115.734-1.44c-.915-2.348,1.493-8.455,5.072-9.761,2.566-.555,2.386,2.592,1.44,5-1.2,3.055-3.7,5.687-5.3,5.687A1.262,1.262,0,0,1,173.057,157.046Zm-93.5-3.144c-3.834-2.753-3.886-8.609,1.144-9.828a6.657,6.657,0,0,1,7.424,5.139,4.793,4.793,0,0,1-4.834,5.959A6.391,6.391,0,0,1,79.557,153.9Zm106.521-.139c-.623-1.651,2.465-9.416,5.075-10.657,1.425-.349.919,2.532-.368,5.4-1.407,3.134-3.367,5.594-4.285,5.594A.441.441,0,0,1,186.077,153.763ZM144.4,152.387c-1.984-2.543-.825-8.05,4.235-9.543,4.07-.765,5.443,2.375,5.12,4.843-.472,3.579-3.619,6.141-6.363,6.141A3.681,3.681,0,0,1,144.4,152.387Zm-128.6-.349c-2.607-1.294-6.688-10.83-4.907-11.464a.914.914,0,0,1,.18-.026c1.538.255,3.684,3.95,4.719,6.5,1.212,2.986,1.36,5.114.441,5.114A.992.992,0,0,1,15.808,152.038ZM198,140.026l.068-.023c.285.7-2.026,5.754-2.052,5.807-1.148,2.51-2.652,5.3-3.05,5.443C192.668,150.327,197.234,140.728,198,140.026Zm-187.03,9.624c.24.495.471.973.69,1.427C11.534,150.831,11.29,150.325,10.973,149.651Zm14.3.857a8.408,8.408,0,0,1-2.648-2.292q-1.272-2.842-2.4-5.792c-.158-2.922,1.3-3.2,1.774-3.29,2.7-.023,5.154,3.605,6.028,6.186,1.092,3.215.365,5.524-1.439,5.524A3.085,3.085,0,0,1,25.276,150.507Zm79.827-1.564A5.7,5.7,0,0,1,107.41,138.8a5.847,5.847,0,0,1,7.079,5.09,5.776,5.776,0,0,1-5.82,6.28A5.85,5.85,0,0,1,105.1,148.943Zm-97.75-7.086-.912-2.307c.356.874,1.741,4,3.024,6.831.565,1.241,1.1,2.4,1.509,3.27C9.76,147.145,8.339,144.209,7.352,141.857ZM42.4,147.889c-4.708-2.521-5.927-9.851-1.834-11.051.135-.041.326-.071.461-.1,3.6-.285,6.216,3.267,6.925,5.882.924,3.429-.688,5.92-3.2,5.92A5,5,0,0,1,42.4,147.889Zm124.737-.776c-1.688-2.757.42-8.763,4.411-10.106,3.256-.672,3.9,2.615,3.32,5.162-.824,3.62-3.494,6.191-5.629,6.192A2.391,2.391,0,0,1,167.133,147.113ZM64.09,143.695c-4.246-2.858-4.558-9.588.671-10.826,4.224-.5,6.865,3.009,7.394,5.661.733,3.682-1.61,6.3-4.612,6.3A6.191,6.191,0,0,1,64.09,143.695Zm66.93-.761c-2.813-2.993-1.519-8.628,3.6-10.076,4.434-.78,6.388,2.525,6.362,5.124a6.577,6.577,0,0,1-6.309,6.551A4.917,4.917,0,0,1,131.02,142.934Zm53.527-.09c-1.14-2.326.807-9.483,4.078-10.837,2.247-.506,2.206,2.93,1.463,5.533-.989,3.466-3.084,6.054-4.5,6.054A1.149,1.149,0,0,1,184.547,142.844ZM89.434,138.59c-3.8-2.975-3.35-9.367,2.067-10.74a6.455,6.455,0,0,1,7.476,5.518,5.691,5.691,0,0,1-5.643,6.625A6.3,6.3,0,0,1,89.434,138.59Zm106.142,1.1c-.724-1.572,1.808-10.425,3.691-11.591,1.035-.281.668,2.851-.274,5.912-1.005,3.283-2.442,5.9-3.139,5.9C195.739,139.905,195.645,139.835,195.575,139.685ZM14.435,138.147c-3.147-2.663-5.139-11.344-2.007-11.914,1.823.094,3.26,2.686,3.954,4.224q.518,1.969,1.1,3.9c.336,3.015-.423,4.46-1.561,4.46A2.4,2.4,0,0,1,14.435,138.147Zm-7.4.461C5.552,137.592,2.367,126.6,3.41,126.094a.35.35,0,0,1,.09-.011c.829.42,2.262,4.475,3.012,7.221.861,3.136,1.124,5.359.663,5.359A.258.258,0,0,1,7.034,138.608Zm149.806-1.343c-2.637-2.836-1.035-9.168,3.789-10.684,3.946-.773,5.376,2.622,5.135,5.286-.351,3.82-3.387,6.626-6.143,6.626A3.714,3.714,0,0,1,156.84,137.265ZM203,125.637c-.435,1.883-2.476,9.044-3.354,11.558C200.782,133.765,202.061,129.121,203,125.637ZM27.714,135.784c-3.961-2.761-5.184-10.935-.75-11.861,3.2-.146,5.4,3.714,5.942,6.5.7,3.614-.761,6.16-2.951,6.16A3.959,3.959,0,0,1,27.714,135.784Zm89.107-2.813A6.354,6.354,0,0,1,119.549,122a5.921,5.921,0,0,1,7.176,5.462,6.4,6.4,0,0,1-6.295,6.817A5.631,5.631,0,0,1,116.822,132.97Zm-68.5-.48c-4.374-2.915-4.824-10.56.469-11.775,3.98-.39,6.4,3.4,6.854,6.208.61,3.782-1.605,6.515-4.423,6.515A5.231,5.231,0,0,1,48.324,132.49Zm130.214-.581c-2.007-2.825-.424-9.7,3.3-11.085,2.922-.623,3.706,2.907,3.327,5.612-.53,3.778-2.824,6.527-4.794,6.527A2.228,2.228,0,0,1,178.537,131.909ZM72.943,127.82c-4.25-3.023-4.036-10.248,1.579-11.636,4.483-.581,7.019,3.143,7.394,5.976a5.75,5.75,0,0,1-5.507,6.822A5.951,5.951,0,0,1,72.943,127.82Zm121.113.206c-1.636-2.018-.281-10.582,2.442-11.921,1.823-.439,2.014,3.222,1.572,5.961-.583,3.585-2.122,6.337-3.32,6.338A.886.886,0,0,1,194.056,128.026Zm-49.97-1.223c-3.252-2.975-2.131-9.6,3.114-11.164,4.445-.829,6.493,2.7,6.527,5.477a6.778,6.778,0,0,1-6.334,6.99A4.826,4.826,0,0,1,144.086,126.8Zm60.058-14.169.083-.03c.54.281.161,4.048-.206,6.358-.356,2.247-1.137,5.889-1.726,6.088C201.465,124.62,203.089,113.708,204.143,112.635ZM6.077,124.414c-2.116-1.939-3.751-12.312-1.245-12.705,1.5.266,2.63,4.336,2.948,7.142.391,3.416-.122,5.862-1.083,5.862A.951.951,0,0,1,6.077,124.414Zm-4.291-.938c-.611-3.751-1.4-8.767-1.774-12.552-.015-.187-.015-.187,0-.244.169.608.912,5.908,1.137,7.521.428,3.072.664,4.9.7,5.432Zm98.185-1.392c-3.815-3.151-3.144-9.952,2.465-11.438a6.493,6.493,0,0,1,7.555,5.822,6.243,6.243,0,0,1-6.1,7.072A6.1,6.1,0,0,1,99.971,122.084Zm-83.777.488a7.951,7.951,0,0,1-2.217-3.582q-.321-2.009-.566-4.01c.113-1.958.679-4.37,2.712-4.76,2.81-.015,4.239,4.138,4.479,6.756.337,3.655-1,6.243-2.8,6.243A2.6,2.6,0,0,1,16.194,122.572Zm153.213-1.692c-2.949-2.862-1.984-10.023,2.51-11.569,3.537-.717,5.064,2.9,5.015,5.709-.067,3.988-2.565,6.924-5.079,6.924A3.474,3.474,0,0,1,169.407,120.88ZM34.073,119.7c-3.684-3.1-3.582-10.864,1.2-11.91,3.766-.293,5.541,3.77,5.773,6.4.343,3.893-1.724,6.623-4.222,6.623A4.282,4.282,0,0,1,34.073,119.7Zm94.153-3.7a6.776,6.776,0,0,1,2.581-11.565,6.2,6.2,0,0,1,7.352,5.739,6.468,6.468,0,0,1-6.189,7.245A5.735,5.735,0,0,1,128.225,116Zm-71.105-.4c-3.913-3.237-3.429-10.417,1.981-11.7,4.2-.491,6.463,3.271,6.73,6.1.381,4.049-2.26,6.926-5.276,6.926A5.368,5.368,0,0,1,57.12,115.594Zm131.7.458c-2.457-2.393-2-10.676,1.414-12.135,2.446-.544,3.432,3.185,3.35,6.006-.114,3.826-1.781,6.716-3.487,6.716A1.826,1.826,0,0,1,188.823,116.052Zm12.158-3.811c-1.437-1.681-1.358-11.254.563-12.533,1.268-.33,1.737,3.507,1.666,6.34-.09,3.629-.93,6.441-1.794,6.441A.586.586,0,0,1,200.981,112.241ZM83.357,110.271c-3.721-3.3-3-10,2.555-11.423a6.443,6.443,0,0,1,7.356,5.852,6.227,6.227,0,0,1-6,7.116A5.851,5.851,0,0,1,83.357,110.271Zm72.14-.765c-3.35-3.121-2.667-10.012,2.337-11.618,4.13-.8,6.321,2.9,6.557,5.781.341,4.158-2.518,7.226-5.561,7.226A4.846,4.846,0,0,1,155.5,109.506ZM8.433,108.471c-1.909-3.406-1.26-10.939,1.6-11.445.69.034,1.7.39,2.491,3.035-.011,2.1.038,4.216.143,6.336-.572,2.375-1.533,3.44-2.477,3.44C9.554,109.837,8.929,109.357,8.433,108.471Zm-7.266,1.2c-1.2-.968-1.185-12.289.015-12.751a.467.467,0,0,1,.1-.011c.8.424,1.032,4.651.994,7.221-.045,3.276-.46,5.6-.972,5.6A.222.222,0,0,1,1.167,109.675Zm204.2-12.566c.06,2.944.222,6.8.1,9.693l-.15,2.915C205.386,107.649,205.4,99.1,205.37,97.109ZM22.159,106.374c-2.84-3.166-2.007-10.762,2.153-11.621,3.031-.146,4.34,3.691,4.306,6.46-.049,3.729-2.046,6.33-4.15,6.33A3.106,3.106,0,0,1,22.159,106.374Zm89.449-1.909c-3.838-3.219-3.226-9.941,2.393-11.486a6.493,6.493,0,0,1,7.615,5.676,6.314,6.314,0,0,1-6.117,7.275A6,6,0,0,1,111.607,104.464Zm67.41-.349c-3.159-2.69-3.252-10.68.713-12.2,3.069-.638,4.813,3.132,5.075,6.013.36,4-1.532,7.016-3.775,7.016A3.11,3.11,0,0,1,179.017,104.116ZM42.7,103.031c-3.2-3.174-2.187-10.282,2.667-11.389,3.785-.379,5.563,3.346,5.619,6.107.073,3.885-2.509,6.637-5.213,6.637A4.326,4.326,0,0,1,42.7,103.031ZM195.4,99.644c-2.461-2.131-3.372-11.19-.626-12.612,1.921-.446,3.211,3.406,3.511,6.287.4,3.812-.562,6.735-1.954,6.735A1.445,1.445,0,0,1,195.4,99.644Zm-127.76-.923c-3.747-3-2.915-10.121,2.513-11.452,4.28-.563,6.46,3.05,6.636,5.8a6.2,6.2,0,0,1-5.83,6.865A5.256,5.256,0,0,1,67.635,98.721Zm72.561-.259c-4.273-2.949-4.134-10.17,1.467-11.858,4.475-.829,7.082,2.753,7.5,5.563v0a6.134,6.134,0,0,1-5.73,7.349A5.662,5.662,0,0,1,140.2,98.462Zm65.171-1.553c0,.056,0,.123,0,.2Q205.368,97.008,205.366,96.909Zm-1.245-.473c-.87-.566-2.735-11.663-1.647-12.976.615-.191,1.452,3.279,1.868,6.61.442,3.55.377,6.4-.123,6.4A.181.181,0,0,1,204.121,96.437ZM4.505,95.259c-1.564-1.846-.435-11.8,2.131-12.207,1.369.244,1.414,4.126,1.009,6.812-.5,3.312-1.647,5.686-2.6,5.686A.707.707,0,0,1,4.505,95.259ZM.214,92.4l.15-1.366.979-6.546a11.7,11.7,0,0,1,.544-2.337l.023.007c.15.653-.8,7.086-.8,7.15a45.761,45.761,0,0,1-.983,5.315C.079,94.546.011,94.422.214,92.4Zm94.243.611a6.207,6.207,0,1,1,9.881-5.548,6.136,6.136,0,0,1-5.98,7.036A5.964,5.964,0,0,1,94.457,93.016Zm-79.95.128c-2.172-2.862-.641-10.856,2.994-11.558,2.435-.011,3.02,3.762,2.652,6.448-.481,3.559-2.333,6.03-4.026,6.03A2.031,2.031,0,0,1,14.506,93.143Zm151.772-.818c-4.01-2.645-4.663-10.41.034-12.042,3.575-.724,5.923,2.881,6.448,5.672h0c.768,4.069-1.3,7.171-4.036,7.171A4.437,4.437,0,0,1,166.278,92.325ZM31.833,90.27C29.4,87.1,31.027,80.239,35.337,79.3c3.279-.263,4.445,3.387,4.224,6.058-.313,3.753-2.752,6.343-5.071,6.343A3.314,3.314,0,0,1,31.833,90.27Zm91.08-2.937c-4.366-2.828-4.321-9.757,1.332-11.377a6.605,6.605,0,0,1,7.69,5.331,5.828,5.828,0,0,1-5.65,7.084A6.163,6.163,0,0,1,122.914,87.332Zm-68.633-.656c-3.151-2.971-1.846-9.828,3.162-11.018,3.879-.458,5.589,3.061,5.563,5.706-.038,3.823-2.845,6.571-5.671,6.571A4.394,4.394,0,0,1,54.281,86.676Zm132.025.593c-3.391-1.981-5.267-10.841-1.767-12.368,2.487-.551,4.479,3.1,5.105,5.871.867,3.865-.206,6.87-2.112,6.87A2.445,2.445,0,0,1,186.306,87.269Zm12.473-4.014c-2.067-1.14-5.075-11.122-3.054-12.544,1.313-.341,2.907,3.38,3.616,6.126.937,3.636.806,6.524-.2,6.524A.758.758,0,0,1,198.779,83.255ZM79.347,81.586a6.34,6.34,0,0,1,2.892-10.612,5.748,5.748,0,0,1,6.632,5.387,6.1,6.1,0,0,1-5.908,6.676A5.259,5.259,0,0,1,79.347,81.586Zm70.52-.687c-4.168-2.7-4.678-9.637.3-11.235,3.988-.776,6.733,2.6,7.412,5.256,1,3.923-1.461,6.961-4.609,6.961A5.708,5.708,0,0,1,149.866,80.9ZM10.747,79.575c-.649-3.346,1.737-9.869,4.306-10.327.731.037,1.092.443,1.377,1.564q-1.131,4.2-1.947,8.538c-.92,1.349-1.73,1.912-2.367,1.912C11.43,81.261,10.946,80.605,10.747,79.575ZM3.489,81.053C2.9,79.8,5.477,69.379,7.052,69.206c.66.364-.2,4.31-.908,6.707-.913,3.119-1.95,5.3-2.459,5.3C3.606,81.214,3.54,81.162,3.489,81.053ZM199.413,67.939l.056.116c1.152,3.68,2.7,8.594,3.575,12.353l.019.109C202.677,79.6,199.428,68.01,199.413,67.939ZM23.794,77.962c-1.891-2.937.379-10,4.254-10.8,2.8-.135,3.035,3.6,2.525,5.979-.753,3.512-3.023,5.945-4.9,5.945A2.187,2.187,0,0,1,23.794,77.962Zm82.9-1.575c-4.085-2.656-3.916-9.363,1.467-10.845a6.377,6.377,0,0,1,7.394,5.105,5.669,5.669,0,0,1-5.617,6.725A5.924,5.924,0,0,1,106.689,76.386Zm-63.9-1.531c-2.371-2.926-.45-9.468,4-10.481,3.331-.334,4.4,3.076,4.1,5.6-.426,3.577-3.138,6.138-5.56,6.138A3.2,3.2,0,0,1,42.794,74.856Zm130.367.608c-4-2.146-6.07-9.982-2.067-11.52,2.986-.634,5.529,2.753,6.385,5.364,1.221,3.734-.107,6.668-2.487,6.668A3.9,3.9,0,0,1,173.162,75.463ZM65.291,70.531c-2.637-2.9-1.2-8.905,3.485-10.057,3.789-.5,5.492,2.761,5.492,5.24a6.12,6.12,0,0,1-5.7,6.307A4.356,4.356,0,0,1,65.291,70.531Zm68.1-.229c-4.261-2.543-4.824-9.119.233-10.65a6.955,6.955,0,0,1,7.8,4.884,5.02,5.02,0,0,1-4.825,6.695A6.231,6.231,0,0,1,133.391,70.3Zm55.954.626c-3.091-1.456-6.655-10.215-3.92-11.659,1.887-.446,4.141,2.971,5.135,5.541,1.345,3.472,1.04,6.307-.474,6.307A1.753,1.753,0,0,1,189.345,70.928ZM10.387,67.635c-.923-1.666,2.675-10.725,5.079-11.108,1.144.218.041,3.9-.923,6.163-1.3,3.069-2.895,5.216-3.743,5.216A.459.459,0,0,1,10.387,67.635Zm187.356-.083c-1.185-.521-6-10.395-5.045-11.685.705-.229,2.573,3.245,3.673,5.784,1.4,3.237,2.064,5.928,1.486,5.928A.283.283,0,0,1,197.744,67.552ZM11.325,55.8l.038,0a58.393,58.393,0,0,1-2.6,6.445,36.045,36.045,0,0,1-2.42,4.869C6.009,66.588,10.383,56.647,11.325,55.8ZM90.619,65.98a5.6,5.6,0,1,1,8.53-5.342,5.527,5.527,0,0,1-5.433,6.337A5.378,5.378,0,0,1,90.619,65.98Zm-70.948-.289c-1.193-2.592,1.984-9.825,5.259-10.455,2.089-.007,1.546,3.56.709,5.807-1.208,3.252-3.338,5.5-4.783,5.5A1.274,1.274,0,0,1,19.672,65.691Zm138.928-1c-4.678-1.988-6.561-9.089-2.832-10.7.12-.053.293-.1.416-.146,3.324-.679,6.227,2.446,7.225,4.877,1.464,3.566-.046,6.417-2.8,6.418A5.143,5.143,0,0,1,158.6,64.69ZM35.07,63.126c-1.463-2.855,1.159-9.014,4.959-9.843,2.858-.221,3,3.215,2.427,5.432-.88,3.37-3.415,5.718-5.385,5.719A2.178,2.178,0,0,1,35.07,63.126Zm81.083-2.686c-4.07-2.4-4.49-8.583.439-10a6.67,6.67,0,0,1,7.442,4.606,4.776,4.776,0,0,1-4.712,6.3A6.217,6.217,0,0,1,116.154,60.44Zm-61.412-.476c-2.307-2.645-.4-8.725,3.954-9.761,3.234-.383,4.306,2.723,4.036,5.045-.4,3.4-3.095,5.862-5.508,5.862A3.214,3.214,0,0,1,54.742,59.963Zm122.745-.191c-3.973-1.272-7.66-9.2-4.993-10.736.075-.045.191-.086.274-.124,2.333-.521,5.087,2.592,6.3,4.967,1.68,3.286,1.235,6.037-.734,6.038A2.788,2.788,0,0,1,177.487,59.772ZM77.055,55.814c-3.039-2.453-2.063-8.392,2.555-9.573a4.778,4.778,0,0,1,5.462,4.678,5.54,5.54,0,0,1-5.3,5.865A4.273,4.273,0,0,1,77.055,55.814Zm112.035.045c-1.909-.341-8.118-9.359-6.235-10.766,1.245-.33,3.725,2.8,5.09,5.128,1.786,3.051,2.359,5.651,1.286,5.652A.8.8,0,0,1,189.09,55.859Zm-47.352-.829c-4.783-1.7-6.782-7.84-3.192-9.809a5.437,5.437,0,0,1,.859-.338c3.552-.7,6.613,2.168,7.653,4.426,1.529,3.313-.266,6.089-3.311,6.089A6.02,6.02,0,0,1,141.737,55.03ZM19.84,53.759c.079-2.945,4.19-9.011,6.377-9.408.364.023.664.113.671,1.005q-2.3,4.018-4.258,8.275c-.925.916-1.605,1.288-2.063,1.288C20.055,54.919,19.823,54.45,19.84,53.759Zm-6.606,1.005c-.248-1.234,4.944-10.233,6.486-10.421.6.383-2.678,5.8-2.708,5.848h0c-1.736,2.86-3.184,4.716-3.636,4.716C13.3,54.907,13.253,54.86,13.234,54.764ZM186,42.584c.06.034.064.037.311.379,1.564,2.375,3.733,5.5,5.162,7.956h0l1.088,1.917a3.394,3.394,0,0,1,.188.368C192.376,52.96,186.036,42.67,186,42.584ZM30.922,52.029c-.882-2.72,2.941-8.793,5.927-9.412,2.146-.1,1.493,3.144.581,5.207-1.435,3.234-3.763,5.168-5.246,5.168A1.258,1.258,0,0,1,30.922,52.029Zm69.653-1.084c-3.627-2.273-3.729-8.016.867-9.288a5.93,5.93,0,0,1,6.655,4.325,4.62,4.62,0,0,1-4.606,5.831A5.467,5.467,0,0,1,100.575,50.945Zm-85.7-1.8c.423-.683,1-1.6,1.665-2.627L13.6,51.272C14.142,50.341,14.634,49.539,14.874,49.141Zm32,.263c-1.392-2.54,1.242-8.174,4.948-9.025,2.742-.27,2.877,2.821,2.315,4.832-.866,3.1-3.445,5.323-5.393,5.323A2.036,2.036,0,0,1,46.872,49.4ZM162.8,49.88c-4.288-.979-8.29-7.8-5.709-9.727a2.687,2.687,0,0,1,.6-.293c2.678-.574,5.769,2.236,7.112,4.415,1.894,3.075,1.262,5.712-1.115,5.712A3.982,3.982,0,0,1,162.8,49.88ZM65.917,46.087c-2.228-2.337-.619-7.829,3.425-8.827,2.99-.39,4.119,2.363,3.965,4.442-.228,3.08-2.771,5.377-5.079,5.378A3.121,3.121,0,0,1,65.917,46.087Zm-49.325.341.135-.2-.188.287ZM124.9,46.065c-4.524-1.523-6.347-7.281-2.873-9.059a5.749,5.749,0,0,1,.848-.311c3.556-.668,6.538,1.943,7.518,4.01,1.458,3.069-.467,5.7-3.524,5.7A6.185,6.185,0,0,1,124.9,46.065ZM17.7,44.778l-.971,1.448C17.035,45.758,17.36,45.271,17.7,44.778Zm159.53.8c-3.095-.214-9.146-8.283-7.277-9.7a1.5,1.5,0,0,1,.188-.1c1.718-.413,4.689,2.378,6.25,4.49,2.094,2.835,2.524,5.319.95,5.319C177.3,45.577,177.266,45.576,177.228,45.573ZM23.093,42.963c-.3-1.624,5.736-9.1,7.6-9.412,1.013.221-2.7,5.113-2.742,5.162-2.049,2.682-3.932,4.48-4.606,4.48A.241.241,0,0,1,23.093,42.963ZM86.7,42c-2.975-2.138-2.566-7.42,1.553-8.519a4.834,4.834,0,0,1,5.458,4.055A4.45,4.45,0,0,1,86.7,42Zm-67.106.551c.653-1.726,7.307-9.487,7.874-9.5-.075.236-.15.458-4.164,5.361a33.916,33.916,0,0,1-3.665,4.2ZM176.335,32.8c.6-.2,3.095,2.258,5.057,4.648,2.157,2.622,3.474,4.88,2.877,4.922h-.018C183.005,42.375,175.816,33.693,176.335,32.8ZM31.053,41.515c-.585-2.1,4.419-8.5,7.049-9.026,1.632.011-.341,3.519-1.242,4.869-1.938,2.919-4.094,4.636-5.167,4.636A.61.61,0,0,1,31.053,41.515Zm115.891-.555c-4.558-.807-8.62-7.019-5.792-8.864a2.98,2.98,0,0,1,.641-.285c2.866-.585,6.1,1.921,7.476,3.89,2,2.854,1.2,5.34-1.449,5.34A5.038,5.038,0,0,1,146.944,40.959ZM43.477,39.466c-.84-2.352,2.971-7.8,5.908-8.452,2.044-.15,1.4,2.69.514,4.52-1.437,2.963-3.771,4.76-5.23,4.76A1.177,1.177,0,0,1,43.477,39.466Zm65.362-1.673c-4.04-1.418-5.447-6.67-2.217-8.26a5.548,5.548,0,0,1,.773-.274,6.481,6.481,0,0,1,6.688,3.691,3.5,3.5,0,0,1-3.353,5.183A5.7,5.7,0,0,1,108.839,37.793ZM58.9,36.679c-1.422-2.311,1.279-7.229,4.378-7.971,2.36-.27,2.757,2.254,2.285,4.134-.748,2.974-3.089,4.8-4.883,4.8A1.994,1.994,0,0,1,58.9,36.679Zm104.371-.2c-3.44-.053-9.723-6.778-8-8.564a1.4,1.4,0,0,1,.4-.244c2.041-.458,5.327,1.988,7.007,3.867,2.32,2.6,2.618,4.94.635,4.941ZM76.421,33.4c-2.127-1.932-1.088-6.752,2.371-7.645,2.637-.379,3.913,1.958,3.98,3.733a4.526,4.526,0,0,1-4.205,4.755A3.137,3.137,0,0,1,76.421,33.4Zm53.842-.311c-4.682-.683-7.926-5.968-5.683-7.8a2.767,2.767,0,0,1,.923-.446c2.907-.57,6.066,1.654,7.386,3.41,1.92,2.562.931,4.9-1.82,4.9A5.567,5.567,0,0,1,130.262,33.093Zm33.7-8.542a.516.516,0,0,1,.1-.079c1.017-.266,4,1.831,6.167,3.935,2.427,2.345,3.65,4.423,2.667,4.535a.738.738,0,0,1-.088,0C170.779,32.948,163.091,25.7,163.96,24.551ZM29.519,32.215c.007-1.077,7.671-8.294,9.007-8.485.023.112.071.386-4.355,4.64-2.67,2.564-4.215,3.862-4.593,3.862A.1.1,0,0,1,29.519,32.215Zm5.252-.488c.39-1.947,6.265-7.645,8.272-8.024.214.019.285.075.2.39q-1.048,1.024-2.065,2.084c-.425.493-.877.99-1.341,1.476-.2.2-.454.465-.649.664q.295-.328.592-.652-1.785,1.943-3.47,3.995a2.758,2.758,0,0,1-1.253.557C34.727,32.217,34.735,31.917,34.77,31.728ZM40.1,27.313l.016-.017ZM28.731,31.266l.006-.006-.014.014ZM32.5,27.654q.665-.614,1.346-1.209c-1.788,1.644-3.6,3.369-5.113,4.816C29.9,30.122,30.905,29.133,32.5,27.654Zm10.849,2.48c-.124-1.988,4.7-7.161,7.169-7.686,1.474-.049-.514,2.963-1.4,4.126-2.024,2.648-4.141,4.161-5.155,4.162A.562.562,0,0,1,43.353,30.133ZM166.6,22.383c.064.015.2.041,1.6,1.2l3.084,2.652,3.447,3.226a9.171,9.171,0,0,1,1.1,1.163C175.349,30.5,166.65,22.455,166.6,22.383Zm-71.371,7.4c-3.282-1.624-3.68-6.287-.623-7.334.1-.038.24-.071.345-.1a5.261,5.261,0,0,1,5.507,3.339,3.277,3.277,0,0,1-3.167,4.6A4.65,4.65,0,0,1,95.229,29.785Zm-40.056-1.6c-.72-1.958,2.787-6.636,5.439-7.255,1.752-.161,1.167,2.228.383,3.774-1.318,2.6-3.448,4.188-4.765,4.188A1.041,1.041,0,0,1,55.173,28.183Zm84.358-7.1a1.714,1.714,0,0,1,.443-.229c2.206-.469,5.7,1.684,7.364,3.29,2.416,2.326,2.573,4.472.334,4.5h-.042C143.925,28.649,137.588,22.752,139.532,21.085ZM37.419,23.265c.143-.116.281-.236.431-.345v0c-1.308,1.207-2.667,2.349-4,3.521C35.089,25.305,36.316,24.205,37.419,23.265Zm31.552,2.255c-1.332-1.906.777-6.036,3.41-6.7,1.977-.251,2.476,1.827,2.2,3.384-.44,2.49-2.472,4.082-4.065,4.082A1.8,1.8,0,0,1,68.971,25.519Zm45.908.424c-4.265-.6-7.064-5.267-4.948-6.884a2.756,2.756,0,0,1,.852-.39c2.69-.5,5.631,1.471,6.771,2.956,1.731,2.253.682,4.373-1.916,4.373A5.4,5.4,0,0,1,114.878,25.943Zm34.688-8.137a.58.58,0,0,1,.221-.191c1.328-.315,4.64,1.444,6.944,3.252,2.566,2.014,3.7,3.924,2.446,4.093a1.462,1.462,0,0,1-.192.012C156.424,24.973,148.854,19.287,149.566,17.807ZM84.321,22.728c-2.517-1.534-2.048-5.694.731-6.445a3.679,3.679,0,0,1,3.943,2.967,3.105,3.105,0,0,1-3.028,3.943A3.143,3.143,0,0,1,84.321,22.728Zm-42.836.045c-.356-.953,8.193-6.981,9.727-7.255l.045.015c-.007.1-.026.33-4.569,3.826-3.854,2.964-4.825,3.421-5.14,3.421A.247.247,0,0,1,41.485,22.773ZM49.3,15.237a12.667,12.667,0,0,1-1.816,1.313c-.679.465-2.089,1.433-3.781,2.63-4.374,3.1-4.374,3.1-4.659,3.234C39.317,21.427,48.635,15.308,49.3,15.237Zm105.328.038c.559-.173,3.661,1.609,6.1,3.316,2.119,1.482,4.273,3.279,4.093,3.691a.2.2,0,0,1-.06.008C163.608,22.29,154.369,15.918,154.627,15.275ZM47.21,21.678c.146-1.485,6.711-6.471,8.628-6.865a.379.379,0,0,1,.158.041c.079.488-2.57,2.847-3.384,3.56-2.7,2.37-4.546,3.51-5.17,3.511C47.273,21.925,47.194,21.842,47.21,21.678Zm76.867-6.257a1.329,1.329,0,0,1,.593-.349c2.206-.446,5.631,1.362,7.251,2.727,2.221,1.872,2.472,3.68.544,3.95a3.789,3.789,0,0,1-.53.036C128.241,21.785,122.821,16.952,124.077,15.421Zm-68.5,4.892c.015-1.714,4.738-5.9,6.733-6.351,1.358-.079-1.422,3.166-1.542,3.3-1.925,2.234-3.862,3.527-4.726,3.527A.419.419,0,0,1,55.579,20.313Zm45.338-.642c-3.526-.555-5.623-4.554-3.778-5.908a2.169,2.169,0,0,1,.709-.311c2.228-.386,4.61,1.294,5.518,2.551,1.518,2.1.3,3.724-1.773,3.724A4.318,4.318,0,0,1,100.916,19.671Zm-35.134-1.2c-.619-1.654,2.487-5.342,4.483-5.829,1.482-.157.683,2.131.285,2.945-1.025,2.1-2.831,3.433-3.927,3.433A.825.825,0,0,1,65.782,18.467Zm68.761-6.261a.669.669,0,0,1,.255-.173c1.425-.315,4.914,1.088,7.274,2.6,2.656,1.7,3.729,3.365,2.3,3.564a2.041,2.041,0,0,1-.282.018C141.276,18.211,133.68,13.525,134.543,12.206ZM77.268,16.314c-1.44-1.305-.221-4.813,1.864-5.364,1.493-.206,2.157,1.362,2.153,2.54a3.154,3.154,0,0,1-2.834,3.271A1.731,1.731,0,0,1,77.268,16.314Zm32.1-5.526a1.3,1.3,0,0,1,.548-.293c2.056-.394,5.188,1.08,6.658,2.2,2.018,1.542,2.179,3.117.341,3.372a4.274,4.274,0,0,1-.586.039C112.792,16.106,108.107,12.141,109.364,10.788ZM140.8,9.749c.011-.022.041-.037.056-.056.844-.218,4.291,1.174,6.857,2.558,2.66,1.433,4.475,2.881,3.961,3.159a.438.438,0,0,1-.2.038C149.726,15.449,140.439,10.563,140.8,9.749ZM62.432,8.755a8.3,8.3,0,0,1-1.474.8c-1.174.6-2.48,1.264-4.4,2.3-5.049,2.716-5.049,2.716-5.267,2.75C51.632,13.778,61.127,8.987,62.432,8.755Zm-8.046,5.8c.053-.994,8.609-5.537,10.023-5.818a.46.46,0,0,1-.139.169q-.843.43-1.675.879c-.911.525-1.822,1.057-2.733,1.589q-.931.544-1.866,1.085-1.43.894-2.823,1.845a2.071,2.071,0,0,1-.727.256A.465.465,0,0,1,54.386,14.558Zm3.75-2.184.127-.079Zm.16-.1q2.1-1.3,4.28-2.477Q60.4,10.973,58.3,12.275Zm31.873,1.81c-2.588-.506-3.83-3.785-2.341-4.854A1.667,1.667,0,0,1,88.357,9c1.639-.259,3.324,1.107,3.95,2.116,1.058,1.711.033,3.03-1.546,3.03A3.079,3.079,0,0,1,90.169,14.085ZM62.113,8.417c-2.116,1.1-4.321,2-6.445,3.072-1.639.833-3.2,1.8-4.88,2.562A78.9,78.9,0,0,1,62.113,8.417Zm80.468-.24a44.893,44.893,0,0,1,5.965,2.626,46.027,46.027,0,0,1,5.139,2.84C153.276,13.605,142.638,8.226,142.581,8.177ZM59.649,13.545c-.105-.874,6.636-5.072,8.369-5.458h.06c-.008.109-.019.24-3.519,2.738C61.226,13.2,60.144,13.64,59.8,13.64,59.684,13.64,59.653,13.588,59.649,13.545Zm59.585-5.552a.641.641,0,0,1,.255-.146c1.448-.3,4.869.769,7.161,1.966,2.39,1.245,3.474,2.585,2.367,2.926a2,2,0,0,1-.582.073C125.621,12.812,118.32,9.15,119.234,7.993ZM66.363,12.36c-.086-1.155,4.449-4.561,5.9-4.914.18-.011.506-.034-.8,1.452-.131.146-.484.536-.919.983-1.86,1.886-3.285,2.716-3.878,2.716C66.478,12.6,66.374,12.515,66.363,12.36Zm30.6-5.244a1.009,1.009,0,0,1,.428-.218c1.474-.266,4.115.672,5.563,1.681,1.906,1.328,1.707,2.536.255,2.727a3.566,3.566,0,0,1-.456.028C99.872,11.334,95.962,8.183,96.959,7.116ZM74.027,10.754c-.443-1.219,1.939-3.868,3.185-4.194,1.032-.116.176,2.037.173,2.059-.686,1.642-1.945,2.541-2.727,2.541A.617.617,0,0,1,74.027,10.754Zm51.835-5c.015-.023.056-.037.079-.052.9-.21,4.344.656,7.214,1.823,2.982,1.212,4.4,2.329,3.8,2.573a.749.749,0,0,1-.278.04C134.662,10.135,125.349,6.434,125.862,5.75ZM63.355,7.765v0c-1.369.578-3.177,1.4-4.535,2C61.04,8.717,62.728,8.02,63.355,7.765ZM82.625,9.3c-1.677-.7-1.328-3.369-.21-3.777.038-.011.083-.023.116-.034.9-.124,1.816.893,2.1,1.643a1.575,1.575,0,0,1-1.362,2.3A1.676,1.676,0,0,1,82.625,9.3Zm22.41-4.261c.019-.1.139-.15.244-.191,1.264-.248,4.513.51,6.58,1.358,2.348.96,3.08,1.883,2.435,2.217a1.81,1.81,0,0,1-.816.15C110.9,8.572,104.889,5.844,105.035,5.037Zm24.023-.848V4.156c.413-.124,3.624.675,6.782,1.782A20.411,20.411,0,0,1,140.8,8.151a.275.275,0,0,1-.171.037C139.118,8.189,129.133,4.257,129.058,4.19ZM76.293,3.833c-2.044.762-4.138,1.388-6.171,2.176-1.2.465-2.408.957-3.057,1.223a21.97,21.97,0,0,1-2.341.9C65.122,7.558,74.106,4.3,76.293,3.833Zm-.338-.045c-6.31,2-6.31,2-6.82,2.172C67.3,6.605,65.523,7.4,63.666,7.982,64.383,7.393,73.57,4.253,75.955,3.788Zm1.7-.225c-1.7.743-3.47,1.29-5.173,2.018-4.768,2.048-4.768,2.048-4.862,2.067C67.864,6.966,75.712,4.021,77.658,3.563Zm-1.587.086c-4.993,1.418-4.993,1.418-6.887,2.044-1.737.578-3.44,1.257-5.169,1.846A84.146,84.146,0,0,1,76.072,3.649Zm11.584.784A.494.494,0,0,1,87.9,4.3a7.466,7.466,0,0,1,3.95,1.2c1.384.893,1.373,1.744.5,1.947a2.291,2.291,0,0,1-.527.059C89.755,7.5,87.162,5.072,87.656,4.433ZM71.03,7.119c.788-1.005,6.4-3.38,7.585-3.684a1.583,1.583,0,0,1-.341.161c-.784.353-1.688.769-3.294,1.632-3.62,1.947-3.62,1.947-3.931,1.954Zm4.149-.739c-.026-.717,3.755-2.9,4.607-3.14-.023.045-.023.045-.21.18-.611.446-.968.747-1.613,1.294C76.2,6.194,75.554,6.488,75.316,6.488,75.2,6.488,75.18,6.416,75.179,6.38ZM129.715,3.6c1.814.5,5.061,1.453,8.627,2.773C135.788,5.448,132.318,4.419,129.715,3.6ZM69.223,5.56c-.565.195-1.311.455-1.873.655C67.93,6,68.579,5.777,69.223,5.56Zm41.705-2.349.09-.09c.908-.195,4.43.356,7.112,1.114,2.783.784,4.149,1.583,3.826,1.872a.72.72,0,0,1-.418.078C119.522,6.185,111.386,3.984,110.928,3.211ZM79.65,5.39c-.428-.679,1.024-2.266,1.437-2.4.2-.007.158.927.139,1.084C81.1,5.048,80.445,5.567,80,5.567A.392.392,0,0,1,79.65,5.39Zm-10.413.165a64.394,64.394,0,0,1,7.382-2.127c-5.458,1.5-5.458,1.5-6.4,1.8-.323.1-.657.214-.993.327ZM97.285,5c-1.782-.506-4.6-1.587-4.46-1.872.019-.037.086-.053.124-.068a17.946,17.946,0,0,1,5.518.777c2.086.611,2.806,1.275,2.277,1.534a1.691,1.691,0,0,1-.689.106A11.19,11.19,0,0,1,97.285,5ZM74.39,3.946c-.626.183-1.448.428-2.069.611C73.192,4.283,73.577,4.162,74.39,3.946ZM82.4,2.727c0-.011.023-.019.034-.022a5.9,5.9,0,0,1,2.131.649c.919.5,1.024,1.043.5,1.163a1.071,1.071,0,0,1-.233.025A3.662,3.662,0,0,1,82.4,2.727Zm40.36,1.1c-.334-.071-8.208-1.733-8.328-2.037a34.381,34.381,0,0,1,7.161.972c2.577.566,4.723,1.253,4.888,1.572a.63.63,0,0,1-.332.063A21.527,21.527,0,0,1,122.764,3.826Zm-48.335.109c1.838-.548,3.129-.8,3.14-.8-1.627.411-2.537.64-3.179.81ZM96.9,2l.041-.053a31.541,31.541,0,0,1,6.557.443c1.737.278,3.654.747,3.751,1.122-.063.089-.313.128-.694.128A54.7,54.7,0,0,1,96.9,2Zm32.445,1.5.323.086.046.014ZM88.586,3.342c-.019,0-4.8-.923-4.824-.93l0-.019a23.363,23.363,0,0,1,4.025.187c1.557.221,2.371.555,2.228.743-.017.022-.1.1-.508.1A6.559,6.559,0,0,1,88.586,3.342Zm-7.049-.908c-.158.03-.368.068-.525.1-1.061.2-2.1.48-3.168.649.045-.01,1.222-.3,3.694-.75l-.461.075c-.9.15-1.8.33-2.693.5,0,0,1.009-.244,3.155-.57-.109.015-.251.034-.356.045-.672.09-1.339.21-2.011.3a20.822,20.822,0,0,1,2.367-.349l-.218.011c-.315.015-.63.041-.945.067a.976.976,0,0,1-.184.015,5.853,5.853,0,0,1,1.347-.094l.09-.056a2.84,2.84,0,0,1,.807-.33.783.783,0,0,1-.173.075c-.248.1-.488.2-.724.311.071-.023.165-.06.236-.083a15.9,15.9,0,0,1,1.681-.488,1.685,1.685,0,0,1-.18.052c-.773.214-1.144.326-1.737.518.105-.03.255-.071.364-.105,1.309-.368,2.307-.578,2.45-.608-.934.259-1.879.461-2.813.713l.2-.053c1.606-.394,2.547-.578,2.555-.578-.912.251-1.842.409-2.757.63l.229-.053C83.494,2,84.515,1.816,84.59,1.8c-1.011.24-2.038.412-3.053.633l.236-.049c1.726-.349,2.8-.521,2.866-.529-1.032.218-2.074.375-3.1.578l.221-.041c1.681-.3,2.63-.431,2.678-.435-.964.184-1.936.308-2.9.476l.2-.03c1.418-.221,2.236-.3,2.277-.3-.822.139-1.651.21-2.472.33l.146-.015C82.7,2.3,83.248,2.28,83.364,2.28a3.023,3.023,0,0,1-.518.049c-.439.03-.874.064-1.309.105h.086a3.875,3.875,0,0,1,.934.045c-.015.011-.068.011-.236,0-.263-.011-.525-.034-.784-.049l.019.015c.176.109.184.214.12.229s-.158-.064-.139-.244l-.049.026c-.656.394-.656.394-.69.39a2.615,2.615,0,0,1,.739-.416l-.109.037c-.48.173-.938.39-1.425.529a12.435,12.435,0,0,1,1.534-.566l-.165.049c-.69.2-1.369.443-2.067.623.019-.011.694-.251,2.232-.671l-.626.16.138-.036q-1.421.364-2.817.777l-.146.037s.878-.3,3.451-.938L81,2.558c-1.11.259-2.206.585-3.324.821C77.688,3.376,78.784,3.045,81.537,2.434Zm0,0ZM81.537,2.434ZM81.537,2.434ZM81.537,2.434Zm0,0ZM81.537,2.434ZM81.537,2.434ZM81.537,2.434Zm0,0ZM81.537,2.434ZM81.537,2.434ZM81.537,2.434Zm0,0ZM81.537,2.434ZM81.537,2.434ZM81.537,2.434Zm0,0ZM81.537,2.434ZM81.537,2.434ZM81.537,2.434Zm0,0Zm0,0Zm0,0Zm0,0ZM81.537,2.434ZM81.537,2.434ZM81.537,2.434ZM81.537,2.434ZM81.537,2.434ZM81.537,2.434ZM81.537,2.434ZM81.537,2.434ZM81.537,2.434ZM81.537,2.434ZM81.537,2.434ZM81.537,2.434ZM81.537,2.434ZM81.537,2.434ZM81.537,2.434ZM81.537,2.434Zm0,0Zm0,0Zm0,0Zm0,0Zm0,0Zm0,0Zm0,0Zm0,0Zm0,0Zm0,0Zm0,0Zm0,0Zm0,0Zm0,0Zm0,0Zm0,0Zm0,0Zm0,0Zm0,0Zm0,0Zm0,0Zm0,0Zm0,0Zm0,0Zm0,0Zm0,0Zm0,0Zm0,0Zm-3.929.877h0Zm3.7-.832c-.114.024-.23.048-.328.071-1.128.24-2.241.547-3.377.761C77.669,3.3,78.764,3,81.313,2.48ZM115.377.934a51.736,51.736,0,0,1,6.681.938A51.275,51.275,0,0,1,127.674,3.2h-.014C127.18,3.2,115.462.974,115.377.934ZM77.617,3.075l.589-.142c.529-.128.7-.15.7-.15l-.015.007c-.57.131-1.148.251-1.718.4Zm.226.109h0Zm3.067-.59-.349.092Zm-.717-.126.225-.049c.023-.007.045-.019.064-.007a.24.24,0,0,1-.049.015c-.206.045-.409.079-.611.124Zm1.343-.034-.224.046Zm-.064-.023c-.2-.083-.206-.083-.218-.109.015-.034.214-.071.259.034a.413.413,0,0,1,.022.1Zm11.67-.071c-.105,0-8.181-.236-8.242-.24v0a48.245,48.245,0,0,1,5.556-.229,12.686,12.686,0,0,1,3.661.379c-.063.05-.114.1-.708.1Zm6.482-1.287a45.484,45.484,0,0,1,7.109.2,20.113,20.113,0,0,1,4.79.821l-.019.075a1.265,1.265,0,0,1-.225.012C109.586,2.157,99.8,1.247,99.626,1.054ZM81.929,2.1l-.046.01A.263.263,0,0,1,81.929,2.1Zm.479-.1.034-.008c-.143.03-.281.068-.42.1-.03.005-.061.005-.092.009Zm3.324-.154c.4-.064,3.327-.439,6.6-.57a28.951,28.951,0,0,1,4.734.071c-.086.068-.086.068-.394.083-2.052.09-4.108.041-6.16.112-1.591.056-3.177.244-4.768.308ZM84.595,1.8h0Zm-.649-.1.713-.127c-.368.064-.735.146-1.1.218l-.022,0A3.875,3.875,0,0,1,83.946,1.7Zm9.4-.87a45.016,45.016,0,0,1,5.5-.165A2.254,2.254,0,0,1,98.5.723c-2.453.191-4.914.214-7.367.413-1.643.135-3.267.443-4.918.518C86.68,1.571,89.775,1.1,93.35.832Zm-6.932.443c.371-.056.867-.135,1.238-.187-.908.135-1.812.311-2.716.473C84.992,1.541,85.57,1.414,86.418,1.275ZM93.459.57c3.069-.3,5.334-.353,5.814-.341A5.557,5.557,0,0,1,98.23.315C96.914.4,94.708.528,92.2.783c-1.958.2-3.9.544-5.859.747C86.373,1.526,89.441.956,93.459.57ZM92.6.51C95.822.157,98.332.082,98.358.078,93.3.487,93.3.487,86.084,1.489,86.106,1.485,88.848.919,92.6.51ZM90.2.742,90.548.7l.915-.1c-.889.109-2.046.289-5.379.805C86.1,1.4,87.566,1.069,90.2.742Zm10.71-.33a58.333,58.333,0,0,1,7.139.045,36.655,36.655,0,0,1,5.537.619,1.549,1.549,0,0,1-.264.012C111.471,1.088,100.954.437,100.909.412Zm-7.968.03c-.441.044-.969.1-1.478.155C91.936.539,92.333.5,92.941.442ZM106.6.138c-.867-.03-1.733-.026-2.6-.023-1.1.007-2.2.015-3.3-.049.229-.03,2.945-.142,6.621.015,3.2.139,5.694.413,5.938.45C111.033.435,108.82.213,106.6.138Z" transform="translate(17 19)"/></g></g><text class="f" transform="translate(61 788)"><tspan x="0" y="11">Access Unlimited </tspan><tspan x="0" y="29">Health Features With </tspan><tspan x="0" y="47">Platinum Plan</tspan></text><g transform="translate(25 601)"><g class="g" transform="translate(36 149)"><rect class="o" width="104" height="23" rx="4"/><rect class="m" x="0.5" y="0.5" width="103" height="22" rx="3.5"/></g><text class="h" transform="translate(48 164)"><tspan x="0" y="0">PLATINUM PLAN</tspan></text></g><text class="i" transform="translate(61 857)"><tspan x="0" y="0">Starting At Just </tspan><tspan class="j" y="0">₦</tspan><tspan y="0">1,000/Month</tspan></text><g transform="translate(12.34 410.107)"><g class="k" transform="translate(48.659 464.893)"><rect class="o" width="86" height="29" rx="3"/><rect class="m" x="0.5" y="0.5" width="85" height="28" rx="2.5"/></g><text class="l" transform="translate(84.659 480.893)"><tspan x="-21.115" y="0">Buy Now</tspan></text><g transform="translate(107.584 487.046) rotate(-90)"><path class="m" d="M0,0H17.263V17.263H0Z"/><path class="n" d="M7.014,8.59l3.3,3.294,3.3-3.294L14.631,9.6,10.316,13.92,6,9.6Z" transform="translate(-1.684 -2.411)"/></g></g></g></svg>