<svg xmlns="http://www.w3.org/2000/svg" width="58.891" height="93.604" viewBox="0 0 58.891 93.604">
  <g id="medal_1_" data-name="medal (1)" transform="translate(-94.938)">
    <g id="Group_3897" data-name="Group 3897" transform="translate(94.937 0)">
      <path id="Path_9053" data-name="Path 9053" d="M120.2,334.8l-11.585-7.541-4.509-1.435-9.119,26.2a.952.952,0,0,0,1,1.26l10.094-1.057a.952.952,0,0,1,.765.266l7.256,7.1a.952.952,0,0,0,1.565-.368l7.512-21.581Z" transform="translate(-94.937 -266.256)" fill="#880ed4"/>
      <path id="Path_9054" data-name="Path 9054" d="M164.184,321.991l1.2-3.451-19.054-11.866-1.219,3.5A50.54,50.54,0,0,0,164.184,321.991Z" transform="translate(-135.94 -250.608)" fill="#6c0ba9"/>
      <path id="Path_9055" data-name="Path 9055" d="M265.547,334.8l11.585-7.541,4.509-1.435,9.119,26.2a.952.952,0,0,1-1,1.26l-10.094-1.057a.952.952,0,0,0-.765.266l-7.256,7.1a.952.952,0,0,1-1.565-.368l-7.512-21.581Z" transform="translate(-231.923 -266.256)" fill="#880ed4"/>
      <path id="Path_9056" data-name="Path 9056" d="M257.2,321.991,256,318.54l19.054-11.866,1.219,3.5A50.54,50.54,0,0,1,257.2,321.991Z" transform="translate(-226.554 -250.608)" fill="#6c0ba9"/>
      <path id="Path_9057" data-name="Path 9057" d="M135.306,65.589a44.541,44.541,0,0,0,20.649-13.678c4.133-5,6.352-11.352,6.352-15.417l0-3-.029-21.4a.952.952,0,0,0-.577-.874L135.681.077a.952.952,0,0,0-.75,0L108.914,11.223a.952.952,0,0,0-.577.874l-.029,21.4,0,3c0,3.426,2.219,10.416,6.352,15.417A44.544,44.544,0,0,0,135.306,65.589Z" transform="translate(-105.86 0)" fill="#ced3dd"/>
      <path id="Path_9058" data-name="Path 9058" d="M155.955,200.539a44.446,44.446,0,0,1-20.341,13.574.96.96,0,0,1-.617,0,44.444,44.444,0,0,1-20.341-13.574,27.8,27.8,0,0,1-6.348-17.332l0,3a27.8,27.8,0,0,0,6.352,17.761,44.542,44.542,0,0,0,20.649,13.678,44.542,44.542,0,0,0,20.649-13.678,27.8,27.8,0,0,0,6.352-17.761l0-3a27.8,27.8,0,0,1-6.348,17.332Z" transform="translate(-105.86 -149.713)" fill="#a0a5af"/>
      <path id="Path_9059" data-name="Path 9059" d="M162.645,89.943a34.453,34.453,0,0,0,15.972-10.58c3.2-3.868,4.913-9.458,4.913-11.635l0-3.224-.021-16.4a.952.952,0,0,0-.577-.874L163.02,38.7a.952.952,0,0,0-.75,0l-19.908,8.529a.953.953,0,0,0-.577.874l-.021,16.4,0,3.224c0,1.869,1.717,7.766,4.913,11.635A34.453,34.453,0,0,0,162.645,89.943Z" transform="translate(-133.199 -31.561)" fill="#6c0ba9"/>
      <path id="Path_9060" data-name="Path 9060" d="M178.616,193.727A34.356,34.356,0,0,1,162.955,204.2a.963.963,0,0,1-.622,0,34.356,34.356,0,0,1-15.661-10.475,21.5,21.5,0,0,1-4.909-13.534l0,3.224a21.506,21.506,0,0,0,4.913,13.738,34.454,34.454,0,0,0,15.972,10.58,34.452,34.452,0,0,0,15.972-10.58,21.5,21.5,0,0,0,4.913-13.738l0-3.224A21.5,21.5,0,0,1,178.616,193.727Z" transform="translate(-133.199 -147.25)" fill="#51087e"/>
      <path id="Path_9061" data-name="Path 9061" d="M201.919,119.629l2.1,4.256a2.3,2.3,0,0,0,1.731,1.258l4.7.682a2.3,2.3,0,0,1,1.274,3.921l-3.4,3.313a2.3,2.3,0,0,0-.661,2.035l.8,4.677a4.209,4.209,0,0,1,.008.753l-3.344.025-5.27-2.771-5.27,2.771-3.344-.025a4.209,4.209,0,0,1,.008-.753l.8-4.677a2.3,2.3,0,0,0-.661-2.035l-3.4-3.313a2.3,2.3,0,0,1,1.274-3.921l4.7-.682a2.3,2.3,0,0,0,1.731-1.258l2.1-4.256A2.3,2.3,0,0,1,201.919,119.629Z" transform="translate(-170.412 -96.711)" fill="#e6f5fe"/>
      <g id="Group_3896" data-name="Group 3896" transform="translate(20.833 39.408)">
        <path id="Path_9062" data-name="Path 9062" d="M217.945,215.665a.952.952,0,0,0-.886,0l-8.17,4.3a2.3,2.3,0,0,0,3.343,1.671l4.2-2.208a2.3,2.3,0,0,1,2.14,0l4.2,2.208a2.3,2.3,0,0,0,3.343-1.671Z" transform="translate(-208.889 -215.555)" fill="#cddbeb"/>
      </g>
    </g>
  </g>
</svg>
