<svg xmlns="http://www.w3.org/2000/svg" width="120.734" height="89.961" viewBox="0 0 120.734 89.961"><defs><style>.a{fill:#ebebeb;}.b{fill:#fafafa;}.c{fill:#e6e6e6;}.d{fill:#f0f0f0;}.e{fill:#f5f5f5;}.f{fill:#ffb573;}.g{fill:#b24bf3;}.h,.k{opacity:0.2;}.i{fill:#263238;}.j,.k{fill:#fff;}.l{fill:#ed893e;}</style></defs><g transform="translate(0 0)"><rect class="a" width="120.734" height="0.06" transform="translate(0 79.057)"/><rect class="a" width="6.271" height="0.06" transform="translate(95.764 80.701)"/><rect class="a" width="2.098" height="0.06" transform="translate(74.124 81.136)"/><rect class="a" width="4.634" height="0.06" transform="translate(104.003 82.942)"/><rect class="a" width="3.924" height="0.06" transform="translate(12.667 81.107)"/><rect class="a" width="8.893" height="0.06" transform="translate(17.883 81.107)"/><rect class="a" width="22.621" height="0.06" transform="translate(48.695 82.126)"/><path class="a" d="M86.212,123.287H39.586a1.379,1.379,0,0,1-1.376-1.379V56.367A1.379,1.379,0,0,1,39.586,55H86.212a1.379,1.379,0,0,1,1.379,1.379v65.53A1.379,1.379,0,0,1,86.212,123.287ZM39.586,55.048a1.318,1.318,0,0,0-1.316,1.318v65.542a1.318,1.318,0,0,0,1.316,1.318H86.212a1.321,1.321,0,0,0,1.318-1.318V56.367a1.321,1.321,0,0,0-1.318-1.318Z" transform="translate(-28.983 -55)"/><path class="a" d="M302.506,123.287H255.879a1.381,1.381,0,0,1-1.379-1.379V56.367A1.381,1.381,0,0,1,255.879,55h46.628a1.379,1.379,0,0,1,1.374,1.367v65.542A1.379,1.379,0,0,1,302.506,123.287ZM255.879,55.048a1.321,1.321,0,0,0-1.318,1.318v65.542a1.321,1.321,0,0,0,1.318,1.318h46.628a1.321,1.321,0,0,0,1.318-1.318V56.367a1.321,1.321,0,0,0-1.318-1.318Z" transform="translate(-193.046 -55)"/><path class="b" d="M166.073,109.1c-.377-.828-1.13-1.468-1.69-1.429a.526.526,0,0,0-.447.3,4.476,4.476,0,0,0-3.158-1.6,1.5,1.5,0,0,0-1.137.594c-1.094-1.557-2.485-2.656-3.5-2.656a1.049,1.049,0,0,0-1.058.966,5.282,5.282,0,0,0-3.2-1.69c-1.483,0-1.963,1.632-1.357,3.926-.241.432-1.41,1.036-1.362,1.76h16.968A1.179,1.179,0,0,0,166.073,109.1Z" transform="translate(-113.146 -91.849)"/><path class="b" d="M291.22,71.968c-.292-.645-.876-1.142-1.311-1.111a.41.41,0,0,0-.348.229,3.445,3.445,0,0,0-2.451-1.239,1.169,1.169,0,0,0-.886.461c-.848-1.207-1.932-2.069-2.717-2.069a.814.814,0,0,0-.821.741A4.11,4.11,0,0,0,280.2,67.67c-1.152,0-1.526,1.268-1.055,3.05-.188.336-1.1.8-1.058,1.367H291.27Z" transform="translate(-210.936 -64.611)"/><path class="b" d="M75.142,86.909a.415.415,0,0,0-.357.3,3.6,3.6,0,0,0-2.656-1.632,1.137,1.137,0,0,0-.915.609h0c-.944-1.591-2.125-2.719-2.956-2.719-.483,0-.753.365-.838.966a4.348,4.348,0,0,0-2.685-1.727c-.947,0-1.364,1.009-1.234,2.562a2.069,2.069,0,0,0-1.268-.724c-.507,0-.744.509-.7,1.311a.579.579,0,0,0-.13,0c-.773.133-1.067,1.166-.7,2.347H76.519C76.171,87.455,75.574,86.87,75.142,86.909Z" transform="translate(-45.924 -76.019)"/><path class="b" d="M338.98,157.643a.483.483,0,0,0-.413.348c-1-1.207-2.123-1.953-3.028-1.871a1.311,1.311,0,0,0-1.048.7h0c-1.082-1.823-2.434-3.115-3.381-3.115-.541,0-.864.418-.966,1.116-1.094-1.227-2.2-1.978-3.076-1.978-1.084,0-1.562,1.157-1.413,2.934a2.354,2.354,0,0,0-1.449-.821c-.579,0-.85.584-.8,1.5a1.014,1.014,0,0,0-.15.012c-.884.155-1.222,1.338-.8,2.692h18.11C340.159,158.266,339.475,157.6,338.98,157.643Z" transform="translate(-244.455 -129.215)"/><path class="a" d="M80.535,133.441c-.435.034-.862.092-1.289.157s-.848.15-1.263.254c-.316.082-.628.169-.937.283a6.863,6.863,0,0,0-1.258-.724,8.806,8.806,0,0,0-.855-.328,7.336,7.336,0,0,0-.913-.241l.724.444c.241.147.466.292.688.442s.437.3.647.454.4.311.58.471l.215.191.319-.126c.336-.13.724-.241,1.1-.35s.778-.212,1.174-.316c.79-.213,1.6-.411,2.391-.669A12.364,12.364,0,0,0,80.535,133.441Z" transform="translate(-56.146 -114.044)"/><path class="a" d="M133.215,145.681c-.435.036-.862.094-1.289.157s-.848.152-1.263.256a9.268,9.268,0,0,0-.937.283,6.864,6.864,0,0,0-1.258-.724,7.734,7.734,0,0,0-.855-.331,7.338,7.338,0,0,0-.913-.241l.724.442c.241.15.466.295.688.442s.437.3.647.454a5.687,5.687,0,0,1,.58.483l.215.191.319-.126c.336-.133.724-.241,1.1-.353s.778-.212,1.174-.314c.79-.215,1.6-.413,2.391-.669a13.056,13.056,0,0,0-1.321.051Z" transform="translate(-96.106 -123.329)"/><path class="a" d="M387.83,138.58c-.507.041-1.009.109-1.509.184s-.992.176-1.48.3a11.133,11.133,0,0,0-1.094.331,8.042,8.042,0,0,0-1.473-.84c-.326-.142-.657-.273-1-.386a8.823,8.823,0,0,0-1.072-.287l.838.519c.273.174.543.343.8.519s.512.353.758.529a8.323,8.323,0,0,1,.679.555l.241.222.374-.147c.391-.155.838-.285,1.285-.413s.913-.241,1.376-.367c.925-.241,1.869-.483,2.8-.782A14.71,14.71,0,0,0,387.83,138.58Z" transform="translate(-288.394 -117.867)"/><path class="a" d="M307.56,120.34c-.507.041-1.009.109-1.509.184s-.992.176-1.48.3a10.939,10.939,0,0,0-1.094.328,8.206,8.206,0,0,0-1.475-.838,10.14,10.14,0,0,0-1-.386,8.676,8.676,0,0,0-1.07-.287l.838.519c.273.174.543.343.8.517s.512.355.758.531.466.367.679.553l.241.225.374-.147c.391-.155.838-.285,1.285-.413s.91-.241,1.376-.367c.925-.241,1.867-.483,2.8-.785C308.577,120.265,308.068,120.3,307.56,120.34Z" transform="translate(-227.506 -104.031)"/><path class="a" d="M376.839,115.685c-.309.024-.613.065-.918.111s-.6.106-.9.181c-.225.058-.447.121-.664.2a5.133,5.133,0,0,0-.9-.509,6.149,6.149,0,0,0-.611-.241,5.446,5.446,0,0,0-.65-.176l.509.316c.164.106.331.21.483.316s.311.215.461.321a4.821,4.821,0,0,1,.413.338l.152.135.229-.089a6.423,6.423,0,0,1,.78-.241c.273-.068.553-.152.835-.225.563-.152,1.137-.292,1.69-.483-.3,0-.61.015-.914.046Z" transform="translate(-282.325 -100.702)"/><path class="a" d="M268.436,106.252c-.307.027-.611.068-.915.113s-.6.106-.9.181c-.225.058-.447.121-.666.2a5.044,5.044,0,0,0-.9-.509,6.1,6.1,0,0,0-.609-.241,5.576,5.576,0,0,0-.65-.176l.507.316c.167.106.331.208.483.314s.311.215.461.324.283.222.411.336l.155.138.227-.089a6.46,6.46,0,0,1,.782-.241c.273-.068.553-.152.835-.225.563-.152,1.135-.292,1.7-.483C269.057,106.209,268.748,106.228,268.436,106.252Z" transform="translate(-200.101 -93.549)"/><path class="a" d="M425.49,111.447c-.217.019-.43.046-.642.08s-.423.075-.63.128a4.156,4.156,0,0,0-.468.14,3.45,3.45,0,0,0-.628-.357c-.138-.06-.278-.118-.425-.167a3.953,3.953,0,0,0-.456-.121l.357.22c.116.075.241.147.343.222s.217.15.321.225a3.13,3.13,0,0,1,.29.241l.106.094.159-.063c.167-.065.357-.121.548-.174s.389-.106.587-.157c.394-.106.794-.205,1.193-.333A6.5,6.5,0,0,0,425.49,111.447Z" transform="translate(-320.282 -97.592)"/><path class="a" d="M354.68,84.967c-.217.019-.43.048-.642.08a6.2,6.2,0,0,0-.63.128,4.722,4.722,0,0,0-.468.14,3.508,3.508,0,0,0-.625-.357c-.14-.06-.28-.116-.427-.164a3.957,3.957,0,0,0-.456-.123l.357.222c.116.072.241.145.343.22s.217.15.321.227a3.126,3.126,0,0,1,.29.241l.106.1.159-.063c.167-.065.357-.123.548-.176s.389-.106.587-.157c.394-.106.794-.205,1.193-.333a6.5,6.5,0,0,0-.654.019Z" transform="translate(-266.571 -77.506)"/><rect class="c" width="4.786" height="3.721" transform="translate(54.205 75.336)"/><path class="d" d="M187.424,257.785,202.3,285.5a.278.278,0,0,1-.319.4L198.84,285a.275.275,0,0,0-.353.266v1.207a.278.278,0,0,1-.452.217l-2.963-2.359a.275.275,0,0,0-.365.017l-1.461,1.388a.278.278,0,0,1-.314.048l-3.279-1.627a.275.275,0,0,0-.338.075l-1.743,2.185a.278.278,0,0,1-.418.019l-2.072-2.173a.28.28,0,0,0-.4,0l-2.077,2.077a.28.28,0,0,1-.367.024l-2.622-2.05a.275.275,0,0,0-.328,0l-1.992,1.42a.278.278,0,0,1-.437-.208l-.109-1.628a.275.275,0,0,0-.4-.227l-3.8,1.987a.278.278,0,0,1-.374-.374l14.754-27.5a.278.278,0,0,1,.488,0Z" transform="translate(-130.582 -208.709)"/><path class="c" d="M200.617,261.431,190.256,278.3c-.133.215.089.466.355.4l1.823-.454a.307.307,0,0,1,.394.268v.413a.316.316,0,0,0,.5.217l1.857-1.289a.338.338,0,0,1,.4.017l.915.761a.341.341,0,0,0,.348.046l2.19-.949a.336.336,0,0,1,.377.072l1.106,1.207a.336.336,0,0,0,.464.019l1.311-1.207a.34.34,0,0,1,.439,0l1.333,1.164a.338.338,0,0,0,.406.022l1.726-1.178a.338.338,0,0,1,.365,0l1.207.739a.314.314,0,0,0,.483-.208l.053-.678a.312.312,0,0,1,.452-.227l2.221,1.017c.273.123.563-.14.415-.379L201.17,261.431a.331.331,0,0,0-.553,0Z" transform="translate(-144.285 -211.472)"/><path class="d" d="M212.4,249.423l-6.6,12.139c-.121.22.116.456.377.384l.819-.229a.307.307,0,0,1,.408.263h0a.319.319,0,0,0,.522.208l.934-.724a.34.34,0,0,1,.435.017l.454.425a.345.345,0,0,0,.379.053l1.251-.613a.341.341,0,0,1,.406.082l.575.712a.34.34,0,0,0,.495.019l.666-.691a.345.345,0,0,1,.483,0l.7.691a.343.343,0,0,0,.439.024l.966-.741a.345.345,0,0,1,.4,0l.526.365a.319.319,0,0,0,.5-.2l.014-.193a.316.316,0,0,1,.471-.222l1,.514c.266.138.572-.114.439-.36l-6.476-11.9a.333.333,0,0,0-.58-.022Z" transform="translate(-156.08 -202.356)"/><path class="d" d="M338.449,354.934c-.2-1.263-1.079-2.241-1.975-2.173a1.207,1.207,0,0,0-.845.452,5,5,0,0,0-4.2-2.434,3.363,3.363,0,0,0-2.072.908c-.98-2.376-2.656-4.061-4.233-4.061A2.41,2.41,0,0,0,323,349.074c-1.268-1.594-2.772-2.574-4.233-2.574-2.328,0-3.863,2.49-3.987,5.986-.587.659-2.707,1.579-2.975,2.683h26.668Z" transform="translate(-236.518 -276.112)"/><path class="c" d="M79.182,352.437a1.024,1.024,0,0,0-.746.483c-.915-1.69-2.217-2.736-3.559-2.622a2.757,2.757,0,0,0-1.818.978h0c-.773-2.555-2.173-4.366-3.538-4.366-.782,0-1.429.587-1.871,1.565-1.048-1.719-2.321-2.774-3.583-2.774-1.567,0-2.76,1.62-3.318,4.1a2.35,2.35,0,0,0-1.741-1.154c-.838,0-1.483.821-1.813,2.106a1.412,1.412,0,0,0-.225.019c-1.343.215-2.347,1.874-2.321,3.772H80.8C80.611,353.311,79.916,352.374,79.182,352.437Z" transform="translate(-41.452 -275.505)"/><path class="d" d="M124.329,293.372l.063-3.871,1.323-5.216h-1.239l.094-5.856h-3.851l-.377,10.559-.932.234.478,5.6.244.019-.311,8.7h4.344l.068-4.158.538-6.078Z" transform="translate(-90.576 -224.479)"/><path class="c" d="M76.378,209.406c-2.282-1.026-3.207-3.793-.705-6.015s-1.529-2.924,1.69-7.191,7.587-1.246,8.64-5.049,5.056-5.276,7.111-.746,1.949.633,4.53,5.071-4.057,6.319-.79,8.321,7.1,5.489,3.731,7.486c-5.071,3-.773,2.345-3.622,5.532-3.279,3.649-4.636-1.949-10.32.633s-9.949,1-7.968-3.424C80.215,210.57,78.807,210.5,76.378,209.406Z" transform="translate(-56.268 -155.58)"/><path class="b" d="M381.358,309.435l-.07-3.173-1.468-4.274h1.374l-.1-4.8h4.272l.418,8.654,1.031.191-.529,4.588-.27.017.345,7.126h-4.817l-.075-3.407-.6-4.981Z" transform="translate(-288.105 -238.709)"/><path class="d" d="M364.57,257.648c2.173-.9,3.064-3.318.676-5.252s1.461-2.557-1.613-6.278-7.244-1.091-8.261-4.414-4.829-4.614-6.8-.652-1.864.541-4.334,4.4,3.878,5.527.756,7.278-6.793,4.8-3.567,6.549c4.849,2.625.739,2.05,3.475,4.829,3.139,3.19,4.433-1.7,9.869.553s9.514.879,7.611-2.994C360.9,258.665,362.247,258.6,364.57,257.648Z" transform="translate(-258.034 -194.265)"/></g><g transform="translate(13.549 84.495)"><ellipse class="e" cx="46.818" cy="2.733" rx="46.818" ry="2.733"/></g><g transform="translate(43.969 15.244)"><path class="f" d="M201.7,179.9c-.348,1.326-.724,2.634-1.142,3.941q-.3.98-.642,1.958c-.222.652-.456,1.3-.724,1.966l-.065.162c-.029.072-.06.135-.092.2a3.941,3.941,0,0,1-.208.35,3.987,3.987,0,0,1-.452.553,7.132,7.132,0,0,1-.939.8,13.206,13.206,0,0,1-1.915,1.116,23.1,23.1,0,0,1-3.965,1.466l-.509-1.328c.572-.316,1.166-.64,1.734-.98s1.135-.679,1.671-1.041a13.41,13.41,0,0,0,1.49-1.123,4.451,4.451,0,0,0,.56-.582,2,2,0,0,0,.169-.256.547.547,0,0,0,.041-.092.155.155,0,0,0,0-.034v-.019l.017-.058c.377-1.246.724-2.564,1.084-3.863s.724-2.608,1.1-3.9Z" transform="translate(-188.887 -164.4)"/><path class="g" d="M221.259,172.785c.835,1.69-1.838,7.213-1.838,7.213L216,178.64a19.559,19.559,0,0,1,.966-4.924C217.833,171.312,220.332,170.913,221.259,172.785Z" transform="translate(-207.812 -158.695)"/><path class="h" d="M227.5,177.127c-.809-.27-1.63.138-2.316,1.69a15.142,15.142,0,0,0-1.067,4.74l1.449.577S228.076,179,227.5,177.127Z" transform="translate(-213.967 -162.822)"/><path class="f" d="M184.592,228.27l-1.328.031a1.207,1.207,0,0,0-1.169,1.314h0a1.207,1.207,0,0,0,1.9.867,5.874,5.874,0,0,0,1.041-.918Z" transform="translate(-182.09 -201.675)"/><path class="i" d="M191.343,226.212a6.408,6.408,0,0,1,.6,1.372.128.128,0,0,0,.14.087,3.168,3.168,0,0,0,1.174-.4.116.116,0,0,0,.036-.116c-.118-.51-.616-1.591-.9-1.6a3.211,3.211,0,0,0-1.021.483.118.118,0,0,0-.036.169Z" transform="translate(-189.093 -199.619)"/><path class="g" d="M226.389,167.428s-1.586,6.172,1.932,16.879l10.436-1.268c-.123-1.611-2.079-9.3-1.449-17.038a27.287,27.287,0,0,0-3.547-.017,38.514,38.514,0,0,0-4.436.538A19.745,19.745,0,0,0,226.389,167.428Z" transform="translate(-215.422 -154.391)"/><path class="j" d="M236.633,162.191h0a.029.029,0,0,1-.022-.036c.307-1.094-.181-1.606-.922-2.386a10.512,10.512,0,0,1-1.787-2.362c-1.222-2.258-.031-3.161.756-3.757a3.722,3.722,0,0,0,.432-.36.03.03,0,0,1,.043.041,3.764,3.764,0,0,1-.437.367c-.773.584-1.932,1.468-.741,3.68a10.383,10.383,0,0,0,1.77,2.354c.756.792,1.253,1.316.937,2.441a.031.031,0,0,1-.029.017Z" transform="translate(-220.993 -144.793)"/><path class="f" d="M243.06,145.67c-.106,1.461-.068,4.1,1.046,4.943a13.727,13.727,0,0,0-3.484,2.912,5.044,5.044,0,0,1-.951-2.374c1.545-.575,1.362-1.751.949-2.825Z" transform="translate(-225.766 -139.02)"/><path class="h" d="M245.039,150.16l-1.449,1.57a4.87,4.87,0,0,1,.241.773,1.977,1.977,0,0,0,1.338-1.577,2.1,2.1,0,0,0-.13-.765Z" transform="translate(-228.74 -142.426)"/><path class="i" d="M230.083,127.08c-1.391.8-.394,4.059.3,4.31C231.689,131.859,231.81,126.09,230.083,127.08Z" transform="translate(-217.964 -124.832)"/><path class="f" d="M236.2,128.723c.116,1.946.282,3.081-.572,4.192a2.592,2.592,0,0,1-4.477-.8c-.625-1.69-.71-4.588,1.089-5.585a2.656,2.656,0,0,1,3.96,2.193Z" transform="translate(-218.994 -124.241)"/><path class="i" d="M235.2,120.9c.186,1.13-.724,4.315-1.55,4.346s-1.273-1.71-1.058-3.352c-.78-.133-5.539.483-4.936-1.543.558-1.869,3.342-.992,5.242-2.224.145.741-.681,1.41-.27,1.289,1.69-.5,2.391.565,3.571.027A2.1,2.1,0,0,1,235.2,120.9Z" transform="translate(-216.612 -118.13)"/><path class="f" d="M252.013,141.233a1.859,1.859,0,0,1-1.048.966c-.613.215-.966-.324-.828-.925.123-.541.589-1.306,1.222-1.26A.817.817,0,0,1,252.013,141.233Z" transform="translate(-233.683 -134.728)"/><path class="f" d="M216.291,238.913s-3.716,12.337-4.153,18.318c-.454,6.223-1.968,21.954-1.968,21.954l1.526.459s5.184-14.488,5.387-20.607c.133-4.006,7.309-21.107,7.309-21.107Z" transform="translate(-203.39 -209.002)"/><path class="i" d="M196.082,402.391l2.009.918a.169.169,0,0,1,.1.191l-.372,1.751a.29.29,0,0,1-.408.2c-.7-.331-1.017-.529-1.9-.932-.543-.241-2.48-1.062-3.231-1.405s-.51-1.128-.171-1.055a9.748,9.748,0,0,0,3.637.314A.483.483,0,0,1,196.082,402.391Z" transform="translate(-189.442 -333.493)"/><path class="g" d="M205.187,401.252a.314.314,0,0,1,.019-.041.157.157,0,0,1,.135-.092c.241-.012.637.565.724.681a.056.056,0,0,1,0,.06.051.051,0,0,1-.056.024c-.241-.048-.693-.167-.806-.4A.28.28,0,0,1,205.187,401.252Zm.7.495c-.176-.241-.42-.522-.536-.517-.012,0-.027,0-.041.031a.189.189,0,0,0-.014.174A.92.92,0,0,0,205.882,401.747Z" transform="translate(-199.597 -332.786)"/><path class="g" d="M207.508,400.175l.022-.041a.167.167,0,0,1,.2-.053.268.268,0,0,1,.162.142,1.426,1.426,0,0,1-.07.828.051.051,0,0,1-.043.036.056.056,0,0,1-.053-.022A1.318,1.318,0,0,1,207.508,400.175Zm.241.724a1.1,1.1,0,0,0,.039-.63.161.161,0,0,0-.094-.085c-.053-.017-.068,0-.072.012-.07.1.014.48.128.705Z" transform="translate(-201.353 -331.989)"/><path class="i" d="M229.156,239.034s-1.545,4.829-2.026,7.07a32.778,32.778,0,0,1,6.5,2.052c.563-1.021,3.294-10.067,3.294-10.067Z" transform="translate(-216.254 -209.123)"/><path class="h" d="M254.462,251.093c-.285,1.079-.659,3.74.147,5.472.36-1.021.831-2.48,1.287-3.914C255.428,251.679,254.67,250.3,254.462,251.093Z" transform="translate(-236.729 -218.808)"/><path class="g" d="M226.241,268.21a3,3,0,0,0-.241,1.029,58.928,58.928,0,0,1,6.587,2.154,1.873,1.873,0,0,0,.529-1.012A33.88,33.88,0,0,0,226.241,268.21Z" transform="translate(-215.397 -231.97)"/><path class="k" d="M226.241,268.21a3,3,0,0,0-.241,1.029,58.928,58.928,0,0,1,6.587,2.154,1.873,1.873,0,0,0,.529-1.012A33.88,33.88,0,0,0,226.241,268.21Z" transform="translate(-215.397 -231.97)"/><path class="f" d="M247.41,237.682s5.894,15.845,8.835,20.993c3.12,5.481,16.13-4.629,16.13-4.629l-1.169-1.224s-7.633,3.313-10.649,3.072c-2.965-5.554-5.583-19.134-5.583-19.134Z" transform="translate(-231.637 -208.115)"/><path class="i" d="M246.62,237.712s2.77,7.14,3.453,9.321a34.171,34.171,0,0,1,6.783-1.417c-.014-1.169-2.48-8.845-2.48-8.845Z" transform="translate(-231.038 -208.122)"/><path class="j" d="M250.51,168.125a.034.034,0,0,1-.029-.022,14.017,14.017,0,0,0-3.354-5.1c-1.538-1.71-2.866-3.185-2.656-5.163A6.369,6.369,0,0,1,245.7,154.7c.724-1.106,1.294-1.98.179-4.122-1.676-3.212.135-4.774.816-5.361a2.777,2.777,0,0,0,.208-.191.029.029,0,0,1,.041,0,.031.031,0,0,1,0,.043c-.043.048-.118.113-.215.2-.671.577-2.453,2.118-.8,5.288,1.13,2.173.551,3.059-.181,4.182a6.406,6.406,0,0,0-1.227,3.117c-.2,1.951,1.12,3.419,2.656,5.117a14.09,14.09,0,0,1,3.366,5.129.029.029,0,0,1-.019.036Z" transform="translate(-229.391 -138.523)"/><path class="j" d="M254.427,143.622a.295.295,0,1,1-.512-.268.3.3,0,1,1,.512.268Z" transform="translate(-236.522 -137.107)"/><path class="j" d="M.155,0H2.108a.155.155,0,0,1,.155.155v.9H0v-.9A.155.155,0,0,1,.155,0Z" transform="matrix(0.984, -0.176, 0.176, 0.984, 20.366, 29.571)"/><path class="g" d="M259.68,271.712a2.97,2.97,0,0,0,.3,1.012,59.872,59.872,0,0,1,6.795-1.374,1.841,1.841,0,0,0-.039-1.14A34.289,34.289,0,0,0,259.68,271.712Z" transform="translate(-240.945 -233.487)"/><path class="k" d="M259.68,271.712a2.97,2.97,0,0,0,.3,1.012,59.872,59.872,0,0,1,6.795-1.374,1.841,1.841,0,0,0-.039-1.14A34.289,34.289,0,0,0,259.68,271.712Z" transform="translate(-240.945 -233.487)"/><path class="i" d="M345.821,299.553l-1.69-1.422a.176.176,0,0,1-.041-.212l.828-1.586a.29.29,0,0,1,.447-.08c.58.5.838.782,1.579,1.408.459.384,2.1,1.69,2.733,2.221s.188,1.224-.118,1.062a9.649,9.649,0,0,0-3.417-1.277A.483.483,0,0,1,345.821,299.553Z" transform="translate(-304.958 -253.186)"/><path class="g" d="M352.829,310.393l-.029.034a.162.162,0,0,1-.155.053c-.241-.056-.461-.724-.5-.848a.051.051,0,0,1,.077-.06c.241.116.623.348.669.6A.278.278,0,0,1,352.829,310.393Zm-.536-.664c.1.285.266.616.377.642a.053.053,0,0,0,.051-.019.188.188,0,0,0,.058-.164c-.019-.123-.191-.278-.48-.449Z" transform="translate(-311.077 -263.338)"/><path class="g" d="M351.33,310.537a.106.106,0,0,1-.031.034.159.159,0,0,1-.2,0,.263.263,0,0,1-.116-.179c-.056-.295.275-.761.29-.782a.055.055,0,0,1,.053-.022.058.058,0,0,1,.043.034A1.352,1.352,0,0,1,351.33,310.537Zm-.036-.763a1.1,1.1,0,0,0-.205.6.157.157,0,0,0,.068.106c.046.031.065.017.072,0C351.323,310.411,351.342,310.02,351.294,309.774Z" transform="translate(-310.194 -263.356)"/><path class="i" d="M240.282,139.571c.019.157-.048.295-.15.307s-.2-.1-.222-.261.048-.3.152-.309S240.262,139.414,240.282,139.571Z" transform="translate(-225.946 -134.193)"/><path class="i" d="M232.914,140.468c.019.159-.051.3-.152.309s-.2-.106-.222-.263.051-.295.152-.307S232.89,140.311,232.914,140.468Z" transform="translate(-220.356 -134.876)"/><path class="l" d="M234.629,141.33a5.73,5.73,0,0,1-.589,1.449.92.92,0,0,0,.77.048Z" transform="translate(-221.496 -135.728)"/><path class="i" d="M239.175,146.768a.046.046,0,0,1,0-.092,1.253,1.253,0,0,0,.966-.611.046.046,0,0,1,.063-.022.051.051,0,0,1,.022.063,1.328,1.328,0,0,1-1.031.662Z" transform="translate(-225.356 -139.3)"/><path class="i" d="M240.848,136.311a.094.094,0,0,1-.068-.029.741.741,0,0,0-.63-.241.094.094,0,0,1-.034-.184.932.932,0,0,1,.8.29.1.1,0,0,1,0,.133A.1.1,0,0,1,240.848,136.311Z" transform="translate(-226.056 -131.571)"/><path class="i" d="M230.224,136.889h-.031a.094.094,0,0,1-.058-.118.927.927,0,0,1,.6-.6.092.092,0,0,1,.114.068.094.094,0,0,1-.068.113.724.724,0,0,0-.483.483A.092.092,0,0,1,230.224,136.889Z" transform="translate(-218.53 -131.811)"/><path class="f" d="M265.868,171.86c.589,1.159,1.106,2.306,1.589,3.5.241.6.468,1.207.671,1.828a17.011,17.011,0,0,1,.543,1.961c.034.176.065.36.092.551a5.827,5.827,0,0,1,.048.645,2.234,2.234,0,0,1-.266,1.067,2.282,2.282,0,0,1-.642.739,3.559,3.559,0,0,1-1.26.584,6.744,6.744,0,0,1-1.1.181,13.927,13.927,0,0,1-3.982-.314l.128-1.415.9-.077c.3-.029.6-.065.9-.1a14.833,14.833,0,0,0,1.707-.3,4.861,4.861,0,0,0,.724-.241,1.058,1.058,0,0,0,.408-.241c.017-.027,0-.024-.043.024a.418.418,0,0,0-.063.162v-.121l-.031-.167c-.029-.118-.058-.241-.094-.369-.147-.514-.343-1.072-.563-1.623s-.452-1.111-.7-1.666c-.483-1.111-1.007-2.238-1.519-3.327Z" transform="translate(-242.371 -158.886)"/><path class="f" d="M255.7,207.184l-.814-1.048a1.207,1.207,0,0,0-1.751-.159h0a1.207,1.207,0,0,0,.432,2.04,6.037,6.037,0,0,0,1.355.292Z" transform="translate(-235.68 -184.535)"/><path class="g" d="M264.723,166.115c3,.415,3.943,5.554,3.943,5.554l-3.342,1.743a16.565,16.565,0,0,1-2.695-3.678C261.444,167.5,262.726,165.837,264.723,166.115Z" transform="translate(-242.837 -154.505)"/></g></svg>