<svg xmlns="http://www.w3.org/2000/svg" width="118.568" height="69.774" viewBox="0 0 118.568 69.774"><defs><style>.a{fill:#263238;}.b{fill:#b78876;}.c{fill:#aa6550;}.d{fill:#455a64;}.e{fill:#b24bf3;}.f{opacity:0.2;}.g{fill:#fafafa;}.h{opacity:0.5;}.i{fill:#fff;}</style></defs><g transform="translate(2 -9.073)"><g transform="translate(0.053 71.934)"><path class="a" d="M152.2,455.291c0,.041-26.1.073-58.255.073s-58.26-.033-58.26-.073,26.08-.071,58.26-.071S152.2,455.253,152.2,455.291Z" transform="translate(-35.69 -455.22)"/></g><g transform="translate(27.018 9.073)"><path class="a" d="M154.424,250.5a2.55,2.55,0,0,0-1.631,2.275c-.019.628,0,1.359-.487,1.753s-1.153.2-1.707.4a2.3,2.3,0,0,0-1.212,1.789,6.088,6.088,0,0,1-.614,2.156,5.091,5.091,0,0,1-1.672,1.359,2.639,2.639,0,0,0-1.318,1.655c-.16,1.028.745,2.077.372,3.05-.239.625-.913.946-1.419,1.384a3.243,3.243,0,0,0-.256,4.659,2.2,2.2,0,0,0,1.857.775,3.492,3.492,0,0,0,1.715-1.038,27.452,27.452,0,0,1,6.16-4.137,2.231,2.231,0,0,0,1.753-2.1q.935-6.421,1.873-12.842" transform="translate(-141.242 -243.29)"/><path class="a" d="M203.081,227.118a2.4,2.4,0,0,1,1.117-2.5,4.851,4.851,0,0,1,2.811-.633,3.219,3.219,0,0,1,2.672,1.117c.345.525.405,1.2.715,1.745.873,1.549,3.3,1.577,4.243,3.083.9,1.43-.019,3.3.2,4.977a10.138,10.138,0,0,0,1.3,3.118,4.046,4.046,0,0,1,.454,3.262c-.462,1.12-1.762,1.846-1.9,3.05-.16,1.492,1.609,2.86,1.066,4.26-.4,1.038-1.9,1.433-2.074,2.534a4.508,4.508,0,0,0,.421,1.718,3.4,3.4,0,0,1-1.9,3.732,5.793,5.793,0,0,1-4.417.076,9.03,9.03,0,0,1-5.486-11.738" transform="translate(-183.543 -223.977)"/><path class="a" d="M147.791,248.044a.481.481,0,0,0-.212-.19.544.544,0,0,0-.34-.027.454.454,0,0,0-.337.294.652.652,0,0,0,.09.56.7.7,0,0,0,.6.288,1.025,1.025,0,0,0,.718-.323,1.9,1.9,0,0,0,.435-.8,11.3,11.3,0,0,0,.2-2.139,3.284,3.284,0,0,1,.321-1.177,1.9,1.9,0,0,1,.389-.522,1.7,1.7,0,0,1,.574-.343,7.1,7.1,0,0,1,1.335-.228,1.707,1.707,0,0,0,1.193-.544,1.829,1.829,0,0,0,.272-1.337,10.711,10.711,0,0,1-.1-1.5,2.974,2.974,0,0,1,.5-1.43,2.308,2.308,0,0,1,1.147-.919,3.439,3.439,0,0,1,1.416-.068,1.785,1.785,0,0,0,1.248-.209,1.43,1.43,0,0,0,.443-1.087,6.126,6.126,0,0,1,.12-1.21,3.262,3.262,0,0,1,1.218-1.783,2.955,2.955,0,0,1,1.691-.571,3.156,3.156,0,0,1,1.327.256,2.737,2.737,0,0,1,.731.443,1.811,1.811,0,0,1,.215.2s-.079-.065-.234-.182a3.014,3.014,0,0,0-.734-.416,3.225,3.225,0,0,0-1.3-.226,2.89,2.89,0,0,0-1.631.574,3.159,3.159,0,0,0-1.163,1.732,6.124,6.124,0,0,0-.109,1.188,2.513,2.513,0,0,1-.106.636,1.15,1.15,0,0,1-.383.544,1.235,1.235,0,0,1-.647.245,3.911,3.911,0,0,1-.69,0,3.261,3.261,0,0,0-1.359.062,2.175,2.175,0,0,0-1.087.867,2.827,2.827,0,0,0-.476,1.359,11.322,11.322,0,0,0,.1,1.482,3.107,3.107,0,0,1-.019.745,1.452,1.452,0,0,1-.291.688,1.408,1.408,0,0,1-.593.432,3.03,3.03,0,0,1-.691.163,6.829,6.829,0,0,0-1.31.217,1.565,1.565,0,0,0-.544.313,1.747,1.747,0,0,0-.362.484,3.219,3.219,0,0,0-.315,1.134,11.279,11.279,0,0,1-.226,2.156,1.941,1.941,0,0,1-.468.835,1.1,1.1,0,0,1-.78.34.778.778,0,0,1-.661-.329.707.707,0,0,1-.084-.617.5.5,0,0,1,.378-.315.574.574,0,0,1,.364.041A.351.351,0,0,1,147.791,248.044Z" transform="translate(-143.553 -230.384)"/><path class="a" d="M235.971,247.516a.764.764,0,0,1,.033.071.6.6,0,0,1,.038.22.9.9,0,0,1-.454.71.875.875,0,0,1-.612.125,1.087,1.087,0,0,1-.633-.391,1.52,1.52,0,0,1-.332-.791,1.919,1.919,0,0,1,.158-.949,7.3,7.3,0,0,1,1.278-1.761,3.735,3.735,0,0,0,.617-1.011,3.21,3.21,0,0,0,.212-1.231,3.289,3.289,0,0,0-.291-1.28,3.422,3.422,0,0,0-.815-1.087c-.345-.323-.734-.62-1.087-.984a2.316,2.316,0,0,1-.69-1.359,3.884,3.884,0,0,1,.231-1.5,6.6,6.6,0,0,0,.323-1.405,3.371,3.371,0,0,0-.723-2.525,2.684,2.684,0,0,0-1-.737,2.719,2.719,0,0,0-1.161-.177,2.787,2.787,0,0,1-1.136-.141,1.455,1.455,0,0,1-.729-.764,9,9,0,0,1-.394-1.751,2.413,2.413,0,0,0-.247-.68,1.332,1.332,0,0,0-.4-.443,1.087,1.087,0,0,0-.791-.207,1.316,1.316,0,0,0-.272.1.593.593,0,0,1,.272-.128,1.1,1.1,0,0,1,.815.188,1.425,1.425,0,0,1,.43.457,2.447,2.447,0,0,1,.272.693,8.478,8.478,0,0,0,.408,1.729,1.359,1.359,0,0,0,.682.7,2.686,2.686,0,0,0,1.087.125,2.642,2.642,0,0,1,2.262.943,3.5,3.5,0,0,1,.761,2.626,6.554,6.554,0,0,1-.323,1.43,3.776,3.776,0,0,0-.226,1.446,2.175,2.175,0,0,0,.65,1.269c.337.351.72.65,1.074.979a3.51,3.51,0,0,1,.848,1.142,3.389,3.389,0,0,1,.3,1.332,3.34,3.34,0,0,1-.226,1.278,3.838,3.838,0,0,1-.644,1.041,7.337,7.337,0,0,0-1.275,1.726,1.843,1.843,0,0,0-.16.9,1.46,1.46,0,0,0,.3.75,1.025,1.025,0,0,0,.585.378.816.816,0,0,0,.574-.109.87.87,0,0,0,.451-.661A1.087,1.087,0,0,0,235.971,247.516Z" transform="translate(-202.026 -226.489)"/><path class="a" d="M159.1,251.71a1.273,1.273,0,0,0-.8,1.264,6.021,6.021,0,0,0,.348,1.56,2.123,2.123,0,0,1-.046,1.563c-.516.941-1.965.892-2.664,1.707-.889,1.036-.06,2.748-.7,3.952-.584,1.087-2.218,1.441-2.542,2.642-.207.764.228,1.6,0,2.357-.242.864-1.2,1.3-1.707,2.044a2.784,2.784,0,0,0-.155,2.6,5.061,5.061,0,0,0,1.5,1.868c.076.065.155.128.234.19l9.362-2.175,1.876-17.316Z" transform="translate(-146.316 -244.171)"/><path class="b" d="M188.451,239.155a1.359,1.359,0,0,0-1.484,1.087h0l-3.08,18.194c-.424,2.137,2.427,4,4.716,4.439h0c2.313.443,2.629-.669,3.094-2.686.777-3.373,1.047-4.643,1.044-4.621s3.012.139,4.423-3.534a41.386,41.386,0,0,0,1.647-7.5c.343-2.308-.571-5.437-2.89-5.665Z" transform="translate(-170.536 -234.822)"/><path class="a" d="M231.206,266.617a.5.5,0,0,1-.574.389.473.473,0,0,1-.408-.544.5.5,0,0,1,.574-.391.476.476,0,0,1,.408.546Z" transform="translate(-204.304 -254.623)"/><path class="a" d="M230,264.312c-.073.052-.383-.3-.908-.41s-.962.071-1.006,0c-.022-.035.063-.136.256-.223a1.359,1.359,0,0,1,.815-.073,1.308,1.308,0,0,1,.707.408C230.01,264.165,230.04,264.29,230,264.312Z" transform="translate(-202.753 -252.81)"/><path class="a" d="M212.018,262.525a.5.5,0,0,1-.574.391.478.478,0,0,1-.408-.544.5.5,0,0,1,.574-.391.476.476,0,0,1,.408.544Z" transform="translate(-190.333 -251.645)"/><path class="a" d="M210.995,260.018c-.073.049-.383-.3-.908-.413s-.965.071-1.006,0c-.022-.035.063-.136.256-.223a1.386,1.386,0,0,1,.816-.073,1.324,1.324,0,0,1,.707.408C211,259.866,211.03,259.991,210.995,260.018Z" transform="translate(-188.91 -249.682)"/><path class="a" d="M220.07,265.395a3.479,3.479,0,0,1,.883.027c.139.014.272.016.313-.071a.7.7,0,0,0,0-.416l-.179-1.1a17.543,17.543,0,0,1-.318-2.852,17.591,17.591,0,0,1,.544,2.822c.054.383.109.753.16,1.1a.8.8,0,0,1-.043.544.345.345,0,0,1-.272.149.871.871,0,0,1-.234-.016,3.534,3.534,0,0,1-.854-.188Z" transform="translate(-196.914 -250.921)"/><path class="c" d="M203.71,293.737a9.849,9.849,0,0,1-4.79-2.447s.709,2.952,4.583,3.406Z" transform="translate(-181.514 -272.992)"/><path class="c" d="M213.872,280.217a.965.965,0,0,0-.772-.544.878.878,0,0,0-.661.193.544.544,0,0,0-.177.614.644.644,0,0,0,.65.321,2.013,2.013,0,0,0,.756-.256.658.658,0,0,0,.182-.125.174.174,0,0,0,.041-.193" transform="translate(-191.205 -264.529)"/><path class="a" d="M213.676,277.338c.087.014-.033.582.367,1.087s1.019.574,1.006.652c0,.038-.158.082-.416.035a1.451,1.451,0,0,1-.845-.514,1.264,1.264,0,0,1-.272-.905C213.546,277.455,213.644,277.327,213.676,277.338Z" transform="translate(-192.138 -262.832)"/><path class="a" d="M211.18,256.517c-.084.133-.593-.046-1.221-.1s-1.163,0-1.218-.141c-.024-.068.092-.185.321-.272a2.137,2.137,0,0,1,1.857.188C211.125,256.319,211.215,256.449,211.18,256.517Z" transform="translate(-188.663 -247.2)"/><path class="a" d="M230.9,260.773c-.117.1-.451-.1-.883-.2s-.816-.092-.875-.234c-.024-.068.057-.174.242-.253a1.316,1.316,0,0,1,1.419.348C230.927,260.591,230.952,260.724,230.9,260.773Z" transform="translate(-203.515 -250.215)"/><path class="a" d="M186.524,234.1a3.762,3.762,0,0,0-2.884-1.21,2.61,2.61,0,0,0-2.365,1.827c-.166.666-.033,1.438-.459,1.979s-1.155.6-1.737.908a2.313,2.313,0,0,0-1.115,2.623c.25.848,1,1.593.889,2.468-.106.815-.932,1.359-1.269,2.115a2.605,2.605,0,0,0,.487,2.577,7.942,7.942,0,0,0,2.175,1.734,3.876,3.876,0,0,0,2.012.777,2.175,2.175,0,0,0,1.944-1.443,2.971,2.971,0,0,0-.3-2.46c-.372-.639-.957-1.242-.922-1.976.057-1.142,1.566-1.764,1.723-2.9a3.288,3.288,0,0,0-.454-1.691,1.842,1.842,0,0,1-.079-1.7c.419-.642,1.381-.625,2.047-1.019a1.74,1.74,0,0,0,.837-1.631,1.791,1.791,0,0,0-1.12-1.468" transform="translate(-165.856 -230.469)"/><path class="a" d="M209.277,232.079a2.653,2.653,0,0,0,2.509,3.224c.6.019,1.3-.139,1.734.272s.307,1.237.688,1.745c.544.723,1.723.408,2.52.843a3.615,3.615,0,0,1,1.21,1.672c.323.622.864,1.261,1.563,1.21a7.9,7.9,0,0,0,.117-1.8,2.642,2.642,0,0,0-.688-1.631c-.231-.237-.525-.41-.731-.669-.451-.544-.41-1.359-.614-2.033a2.909,2.909,0,0,0-1.857-1.9,16.375,16.375,0,0,1-2.234-.519c-.508-.253-.9-.7-1.424-.924-1.017-.43-2.175.12-3.1.712" transform="translate(-188.832 -229.387)"/><path class="d" d="M155.473,260.232a1.116,1.116,0,0,1-.294-.092,1.73,1.73,0,0,1-.669-.565,1.941,1.941,0,0,1-.364-1.329,2.59,2.59,0,0,1,.816-1.631,9.907,9.907,0,0,1,.845-.658,1.808,1.808,0,0,0,.677-.87,3.534,3.534,0,0,0,0-1.21,2.536,2.536,0,0,1,.272-1.3,2.786,2.786,0,0,1,.927-1.049,2.585,2.585,0,0,1,1.389-.438c.495-.025.992.027,1.484-.038a1.8,1.8,0,0,0,.688-.231,1.381,1.381,0,0,0,.492-.544,6.5,6.5,0,0,0,.424-1.454,3.124,3.124,0,0,1,.258-.72,1.664,1.664,0,0,1,.5-.579,3.705,3.705,0,0,1,1.378-.476,3.167,3.167,0,0,0,1.259-.462,1.188,1.188,0,0,0,.4-.478,1.321,1.321,0,0,0,.106-.6,4.7,4.7,0,0,0-.294-1.185,2.9,2.9,0,0,1-.182-1.155,1.267,1.267,0,0,1,.171-.544,1.171,1.171,0,0,1,.389-.378,2.523,2.523,0,0,1,.943-.272,7.058,7.058,0,0,0,.848-.144,2.093,2.093,0,0,0,1.112-.748,2.215,2.215,0,0,0,.389-.767c.052-.193.057-.3.065-.3a1.272,1.272,0,0,1-.038.3,2.093,2.093,0,0,1-.372.8,2.142,2.142,0,0,1-1.134.788,6.948,6.948,0,0,1-.856.158,2.46,2.46,0,0,0-.905.272,1.044,1.044,0,0,0-.5.837,2.846,2.846,0,0,0,.185,1.112,4.622,4.622,0,0,1,.3,1.212,1.443,1.443,0,0,1-.111.663,1.326,1.326,0,0,1-.44.544,3.313,3.313,0,0,1-1.308.489,3.55,3.55,0,0,0-1.327.457,1.976,1.976,0,0,0-.7,1.221,6.506,6.506,0,0,1-.435,1.487,1.505,1.505,0,0,1-.544.59,1.9,1.9,0,0,1-.745.25c-.517.068-1.017.014-1.5.038a2.539,2.539,0,0,0-2.2,1.408,2.392,2.392,0,0,0-.272,1.234,3.66,3.66,0,0,1,0,1.253,1.93,1.93,0,0,1-.726.922c-.3.228-.6.419-.843.644a2.52,2.52,0,0,0-.816,1.563,1.9,1.9,0,0,0,.329,1.291,1.742,1.742,0,0,0,.644.579C155.37,260.2,155.476,260.224,155.473,260.232Z" transform="translate(-148.905 -235.652)"/><path class="d" d="M223.341,258.346a2.81,2.81,0,0,0,.236-.258,1.7,1.7,0,0,0,.313-.941,2.99,2.99,0,0,0-.361-1.53,19.06,19.06,0,0,1-.979-1.9,3.926,3.926,0,0,1,0-2.572,3.85,3.85,0,0,1,.718-1.264c.329-.381.729-.7,1.047-1.1a1.6,1.6,0,0,0,.386-1.43,3.418,3.418,0,0,0-1.017-1.259,2.831,2.831,0,0,1-.544-.685,2.238,2.238,0,0,1-.247-.859,4,4,0,0,1,.3-1.775c.22-.571.511-1.087.753-1.631a4.944,4.944,0,0,0,.487-1.631,3.515,3.515,0,0,0-1.172-2.871,11.045,11.045,0,0,0-1.275-.816,1.769,1.769,0,0,1-.544-.525,1.868,1.868,0,0,1-.228-.688,1.632,1.632,0,0,0-.209-.622,1.251,1.251,0,0,0-.462-.421,4.787,4.787,0,0,0-1.161-.378,4.272,4.272,0,0,1-1.087-.364,3.506,3.506,0,0,1-.816-.6,3.7,3.7,0,0,1-.883-1.359,3.286,3.286,0,0,1-.209-.995,2.388,2.388,0,0,1,0-.356,3.8,3.8,0,0,0,.253,1.332,3.661,3.661,0,0,0,.886,1.31,3.306,3.306,0,0,0,.8.576,4.254,4.254,0,0,0,1.055.351,4.678,4.678,0,0,1,1.191.378,1.327,1.327,0,0,1,.506.454,1.822,1.822,0,0,1,.231.663,1.7,1.7,0,0,0,.215.644,1.631,1.631,0,0,0,.5.487,10.667,10.667,0,0,1,1.291.816,3.634,3.634,0,0,1,1.223,2.99,4.986,4.986,0,0,1-.495,1.677c-.245.544-.544,1.057-.748,1.612a3.917,3.917,0,0,0-.291,1.713,2.1,2.1,0,0,0,.234.815,2.665,2.665,0,0,0,.519.652c.2.2.416.383.606.593a1.9,1.9,0,0,1,.446.726,1.415,1.415,0,0,1-.024.837,2.3,2.3,0,0,1-.391.712c-.329.419-.734.737-1.052,1.1a3.71,3.71,0,0,0-.7,1.221,3.805,3.805,0,0,0,0,2.5c.272.734.69,1.324.957,1.9a3.026,3.026,0,0,1,.342,1.571,1.672,1.672,0,0,1-.345.951A1.035,1.035,0,0,1,223.341,258.346Z" transform="translate(-194.224 -228.006)"/><path class="e" d="M221.458,323.71a8.473,8.473,0,0,1,2.341,5.98c-.071,3.719.53,10.463.53,10.463l10.289,6.29-2.9,4.447-11.336-5.029L218,340.993Z" transform="translate(-195.407 -296.599)"/><path class="e" d="M184.183,337.272s.383-.737-.7-1.3h-1.748l-3.412-5.891,2.718-18.292-4.654-3.534-10.3-.916-3.6,18.512,4.6,8.413,9.128,3.749Z" transform="translate(-154.987 -284.679)"/><path class="e" d="M182.4,301.837l.207-1.745a.544.544,0,0,1,.693-.47c2.553,2,5.165,3.015,7.949,2.215a.723.723,0,0,1,.508.87l-1.087,4.371-2.819.845-3.721-.729-1.74-3.213Z" transform="translate(-169.477 -279.043)"/><path class="a" d="M191.847,306.988a1.531,1.531,0,0,1-.34.2,5.97,5.97,0,0,1-.976.4,6.587,6.587,0,0,1-6.5-1.468,6.074,6.074,0,0,1-.707-.78,1.725,1.725,0,0,1-.212-.324,12.756,12.756,0,0,0,.987,1.03,6.761,6.761,0,0,0,6.407,1.443A12.25,12.25,0,0,0,191.847,306.988Z" transform="translate(-170.001 -282.99)"/><g class="f" transform="translate(13.347 22.28)"><path d="M184.06,306.03a1.087,1.087,0,0,0,.128,1.028,3.148,3.148,0,0,0,.78.737,10.378,10.378,0,0,0,3.235,1.824,3.736,3.736,0,0,0,3.518-.628c.272-.242.47-.7.2-.93-.207-.174-.519-.068-.769.03a5.891,5.891,0,0,1-6.948-2.15" transform="translate(-183.986 -305.94)"/></g><path class="e" d="M156.03,326.874l16.854,9.025-6.073,3.67-11.6-3.4c-6.141-1.631-7.818-4.175-7.758-6.8.024-.96-.09-10.33.323-14.91.563-6.252,7.361-7.095,7.361-7.095l-.114,5.336.076,6.524.231,5.98c.614-.307.767.845.767.845Z" transform="translate(-144.038 -284.701)"/><path class="a" d="M175.652,348.578c-.038,0-.092-2.264-.117-5.056s-.014-5.059.024-5.062.092,2.264.117,5.059S175.7,348.578,175.652,348.578Z" transform="translate(-164.476 -307.339)"/><path class="a" d="M176.589,376.381c-.019,0,.035-.111.06-.272a.989.989,0,0,0-.114-.642.979.979,0,0,0-.5-.413c-.16-.063-.272-.065-.272-.09s.114-.049.3,0a.938.938,0,0,1,.685,1.174C176.69,376.313,176.6,376.391,176.589,376.381Z" transform="translate(-164.649 -333.9)"/><path class="a" d="M178.805,380.25l.03.027.1.063c.09.054.223.128.4.223.345.188.851.454,1.476.777l4.893,2.514,4.909,2.509,1.482.772.4.215a.6.6,0,0,1,.136.084.724.724,0,0,1-.147-.06l-.413-.19-1.5-.731c-1.253-.623-3.007-1.492-4.909-2.466s-3.645-1.878-4.893-2.553A9.788,9.788,0,0,1,178.805,380.25Z" transform="translate(-166.866 -337.769)"/><path class="a" d="M205.335,386.9a4.168,4.168,0,0,1-.786-.19c-.481-.139-1.142-.343-1.865-.587s-1.359-.489-1.835-.674a4.484,4.484,0,0,1-.739-.329,4.912,4.912,0,0,1,.786.239l1.846.631,1.849.628A4.534,4.534,0,0,1,205.335,386.9Z" transform="translate(-182.38 -341.315)"/><path class="a" d="M191.994,366.149a1.047,1.047,0,0,1-.082.2,3.015,3.015,0,0,1-.31.5,4.375,4.375,0,0,1-.587.644,5.23,5.23,0,0,1-.875.614,5.09,5.09,0,0,1-.992.4,4.317,4.317,0,0,1-.862.141,3.063,3.063,0,0,1-.587,0c-.136-.016-.212-.03-.209-.041s.3,0,.788-.049a5.036,5.036,0,0,0,.835-.169,5.6,5.6,0,0,0,.96-.4,5.2,5.2,0,0,0,.856-.59,4.736,4.736,0,0,0,.6-.606C191.831,366.407,191.978,366.138,191.994,366.149Z" transform="translate(-173.191 -327.501)"/><path class="a" d="M167.415,317.829c-.022,0-.057-.378-.147-.987a8.376,8.376,0,0,0-.631-2.294,4.621,4.621,0,0,0-1.473-1.829,6.177,6.177,0,0,0-.864-.478.77.77,0,0,1,.272.065,3.049,3.049,0,0,1,.661.329,4.439,4.439,0,0,1,1.544,1.854,7.551,7.551,0,0,1,.6,2.343c.033.307.049.557.054.729A.865.865,0,0,1,167.415,317.829Z" transform="translate(-156.305 -288.247)"/><path class="a" d="M236.646,384.11a4.855,4.855,0,0,0-.429.345,5.537,5.537,0,0,0-.816,1.057,5.2,5.2,0,0,0-.544,1.21c-.092.326-.1.544-.12.544a1.183,1.183,0,0,1,.024-.565,4.158,4.158,0,0,1,.516-1.259,4.41,4.41,0,0,1,.859-1.057A.927.927,0,0,1,236.646,384.11Z" transform="translate(-207.578 -340.58)"/><g class="f" transform="translate(23.362 34.184)"><path d="M224.025,365.692a4.912,4.912,0,0,0,.106-3.534,19.243,19.243,0,0,1-.886-3.515,11.428,11.428,0,0,1,.351-3.118,10.343,10.343,0,0,0,.3-3.118,3.616,3.616,0,0,0-1.452-2.678,10.983,10.983,0,0,1,.816,2.675,3.683,3.683,0,0,1-.593,2.667,5.894,5.894,0,0,0-.873,1.134,18.387,18.387,0,0,0-.4,1.832c-.2.644-.574,2.8-.574,2.8a9.7,9.7,0,0,0,1.294,2.21,16.923,16.923,0,0,1,1.927,2.637" transform="translate(-220.828 -349.73)"/></g><path class="a" d="M223.827,358.825s-.024-.024-.068-.079l-.185-.247-.682-.946c-.587-.832-1.405-1.99-2.379-3.363l-.014-.022v-.027l.886-4.336c.035-.166.068-.329.1-.489v-.035a5.309,5.309,0,0,0,1.552-3.7,4.964,4.964,0,0,0-1.087-2.93h0v-.014c-.043-.693-.079-1.248-.1-1.645,0-.182-.016-.326-.022-.438a.714.714,0,0,1,0-.152.566.566,0,0,1,.024.15c0,.111.024.255.044.435.035.4.084.951.144,1.631v-.025a5,5,0,0,1,1.136,2.99,4.787,4.787,0,0,1-.375,1.971,5.707,5.707,0,0,1-1.2,1.838l.019-.035c-.033.158-.065.324-.1.489-.315,1.552-.609,3.026-.881,4.311v-.049l2.335,3.392c.272.405.495.729.652.965l.169.258A1.02,1.02,0,0,1,223.827,358.825Z" transform="translate(-197.227 -308.752)"/><g class="f" transform="translate(13.962 39.305)"><path d="M186.668,370.454c-.166-.133-.429.073-.419.285a.666.666,0,0,0,.37.489,2.8,2.8,0,0,0,1.691.337,3.243,3.243,0,0,0,1.976-.816,2.145,2.145,0,0,0,.669-1.968.342.342,0,0,0-.071-.16c-.139-.141-.367.016-.5.16a5.369,5.369,0,0,1-3.6,1.658" transform="translate(-186.249 -368.567)"/></g><g class="f" transform="translate(9.115 40.956)"><path d="M170.4,374.757a1.582,1.582,0,0,0-1.827.47.544.544,0,0,0-.111.6.443.443,0,0,0,.478.163,1.26,1.26,0,0,0,.468-.272c.313-.242.62-.492.916-.75a.3.3,0,0,0,.106-.128.111.111,0,0,0-.049-.141" transform="translate(-168.419 -374.64)"/></g><path class="a" d="M170.465,376.356c-.016,0,0-.139.082-.34a1.941,1.941,0,0,1,1.234-1.087.626.626,0,0,1,.345-.035,3.535,3.535,0,0,0-.989.544A3.662,3.662,0,0,0,170.465,376.356Z" transform="translate(-160.789 -333.861)"/><path class="g" d="M151.978,333.22a40.08,40.08,0,0,1,.147-4.85,20.018,20.018,0,0,1,0,2.425,20.867,20.867,0,0,1-.147,2.425Z" transform="translate(-147.307 -299.992)"/><path class="g" d="M156.316,344.57c-.038,0-.073-1.3-.076-2.911s.03-2.909.068-2.909.073,1.3.076,2.909S156.354,344.57,156.316,344.57Z" transform="translate(-150.435 -307.551)"/><path class="g" d="M163.957,324.8a3.036,3.036,0,0,1,.022.661c0,.408-.016.97-.041,1.59s-.054,1.183-.084,1.59a2.751,2.751,0,0,1-.076.655,2.992,2.992,0,0,1-.022-.658c0-.408.016-.97.041-1.593s.054-1.185.084-1.59A2.72,2.72,0,0,1,163.957,324.8Z" transform="translate(-155.902 -297.393)"/><path class="g" d="M170.156,343.469a12.237,12.237,0,0,1-.071-1.876,12.851,12.851,0,0,1,.073-1.873,12.446,12.446,0,0,1,.068,1.873A12.664,12.664,0,0,1,170.156,343.469Z" transform="translate(-160.51 -308.257)"/><path class="g" d="M163.731,359.788a22.531,22.531,0,0,1,.177-3.529,21.677,21.677,0,0,1-.177,3.534Z" transform="translate(-155.872 -320.301)"/><path class="g" d="M150.132,373.042a21.477,21.477,0,0,1-.06-3.482A21.474,21.474,0,0,1,150.132,373.042Z" transform="translate(-145.912 -329.985)"/><path class="g" d="M156.386,376.615a5.708,5.708,0,0,1,0-1.261,5.774,5.774,0,0,1,.139-1.253,5.712,5.712,0,0,1,0,1.261A5.607,5.607,0,0,1,156.386,376.615Z" transform="translate(-150.517 -333.291)"/><path class="g" d="M180.209,385.8a7.956,7.956,0,0,1-1.631-.788,8.171,8.171,0,0,1-1.5-1.019c.022-.035.707.4,1.569.9S180.228,385.767,180.209,385.8Z" transform="translate(-165.611 -340.495)"/><path class="g" d="M199.781,395.3a2.346,2.346,0,0,1-.56-.231,12.413,12.413,0,0,1-2.447-1.6,2.243,2.243,0,0,1-.435-.424c.027-.033.734.56,1.683,1.18S199.809,395.258,199.781,395.3Z" transform="translate(-179.635 -347.079)"/><path class="g" d="M203.327,403.955a7.262,7.262,0,0,1-1.335-.544,7.109,7.109,0,0,1-1.272-.671,7.288,7.288,0,0,1,1.332.544A7.547,7.547,0,0,1,203.327,403.955Z" transform="translate(-182.824 -354.146)"/><path class="g" d="M216.312,408.053c-.022.035-.642-.356-1.449-.761s-1.487-.674-1.473-.712A8.036,8.036,0,0,1,216.312,408.053Z" transform="translate(-192.05 -356.942)"/><path class="g" d="M215.511,415.889a7.033,7.033,0,0,1-.979-.544,7.5,7.5,0,0,1-.962-.565,3.19,3.19,0,0,1,1.03.443A3.36,3.36,0,0,1,215.511,415.889Z" transform="translate(-192.181 -362.913)"/><path class="g" d="M172.112,371.488a4.6,4.6,0,0,1-.114-1.12,4.666,4.666,0,0,1,.024-1.128,4.366,4.366,0,0,1,.117,1.12A4.424,4.424,0,0,1,172.112,371.488Z" transform="translate(-161.893 -329.752)"/><path class="g" d="M201.921,341.729a9.144,9.144,0,0,1-.272-1.558,8.544,8.544,0,0,1-.13-1.571,8.762,8.762,0,0,1,.272,1.555A8.564,8.564,0,0,1,201.921,341.729Z" transform="translate(-183.406 -307.441)"/><path class="g" d="M206.024,358.276a9.873,9.873,0,0,1-.1-1.653,9.627,9.627,0,0,1,.049-1.653,9.721,9.721,0,0,1,.092,1.653A9.52,9.52,0,0,1,206.024,358.276Z" transform="translate(-186.606 -319.361)"/><path class="g" d="M185.43,361.3a7.84,7.84,0,0,1-.22-3.085c.041,0,.035.693.1,1.544S185.471,361.287,185.43,361.3Z" transform="translate(-171.484 -321.721)"/><path class="g" d="M192.234,378.474a5.15,5.15,0,0,1-.272-1.446,5.213,5.213,0,0,1,.016-1.468,14.407,14.407,0,0,1,.125,1.457A13.823,13.823,0,0,1,192.234,378.474Z" transform="translate(-176.415 -334.354)"/><path class="g" d="M195.871,353.762a17.84,17.84,0,0,1,0-3.172A17.837,17.837,0,0,1,195.871,353.762Z" transform="translate(-179.242 -316.172)"/><path class="g" d="M187.591,342.15a9.7,9.7,0,0,1,0,2.381A10.059,10.059,0,0,1,187.591,342.15Z" transform="translate(-173.212 -310.026)"/><path class="g" d="M196.071,327.4a7.946,7.946,0,0,1,.044,2.115,4.173,4.173,0,0,1-.092-1.057A4.107,4.107,0,0,1,196.071,327.4Z" transform="translate(-179.393 -299.286)"/><path class="g" d="M210.965,331.576a17.843,17.843,0,0,1-.212-2.245,18.355,18.355,0,0,1-.073-2.251,17.369,17.369,0,0,1,.215,2.243A18.693,18.693,0,0,1,210.965,331.576Z" transform="translate(-190.071 -299.053)"/><path class="g" d="M216.6,359.344a44.647,44.647,0,0,1,0-5.023,44.695,44.695,0,0,1,0,5.023Z" transform="translate(-194.328 -318.888)"/><path class="g" d="M207.54,378.254a22.012,22.012,0,0,1,0-3.534A22.026,22.026,0,0,1,207.54,378.254Z" transform="translate(-187.739 -333.743)"/><path class="g" d="M215.789,392.817a1.725,1.725,0,0,1-.071-.682,1.744,1.744,0,0,1,.071-.685,1.686,1.686,0,0,1,.071.685A1.669,1.669,0,0,1,215.789,392.817Z" transform="translate(-193.74 -345.925)"/><path class="g" d="M221.331,335.18a18.361,18.361,0,0,1,0,3.219A18.356,18.356,0,0,1,221.331,335.18Z" transform="translate(-197.781 -304.951)"/><path class="g" d="M215.628,314.58a32.414,32.414,0,0,1,0,4.279,32.421,32.421,0,0,1,0-4.279Z" transform="translate(-193.622 -289.951)"/><path class="g" d="M204.951,316.69a15.027,15.027,0,0,1,0,2.911A15.027,15.027,0,0,1,204.951,316.69Z" transform="translate(-185.854 -291.487)"/><path class="g" d="M229.265,331.674a12.489,12.489,0,0,1-.063-3.534c.041,0,.027.8.046,1.772A16.9,16.9,0,0,1,229.265,331.674Z" transform="translate(-203.494 -299.825)"/><path class="g" d="M234.2,342.446a22.9,22.9,0,0,1,0-3.6A22.911,22.911,0,0,1,234.2,342.446Z" transform="translate(-207.152 -307.623)"/><path class="g" d="M237.091,361.368a24.342,24.342,0,0,1,0-3.708A24.358,24.358,0,0,1,237.091,361.368Z" transform="translate(-209.257 -321.32)"/><path class="g" d="M230.481,371.3a27.4,27.4,0,0,1,0-3.933A27.408,27.408,0,0,1,230.481,371.3Z" transform="translate(-204.444 -328.391)"/><path class="g" d="M225.311,382.859a30.629,30.629,0,0,1,0-4.159,30.629,30.629,0,0,1,0,4.159Z" transform="translate(-200.679 -336.641)"/><path class="g" d="M236.681,381.157a10.364,10.364,0,0,1,0-2.417A10.364,10.364,0,0,1,236.681,381.157Z" transform="translate(-208.958 -336.67)"/><path class="g" d="M237.041,404.673a17.519,17.519,0,0,1-2.074-.791,17.012,17.012,0,0,1-2.017-.922,17.619,17.619,0,0,1,2.071.791A17.191,17.191,0,0,1,237.041,404.673Z" transform="translate(-206.293 -354.306)"/><path class="g" d="M249.473,401.073a18.8,18.8,0,0,1-2.218-.715,19.153,19.153,0,0,1-2.175-.848,19.46,19.46,0,0,1,2.218.715A19.8,19.8,0,0,1,249.473,401.073Z" transform="translate(-215.126 -351.794)"/><path class="g" d="M244.119,392.405a9.528,9.528,0,0,1-1.487-.68,9.32,9.32,0,0,1-1.422-.816,9.52,9.52,0,0,1,1.487.68A9.216,9.216,0,0,1,244.119,392.405Z" transform="translate(-212.308 -345.532)"/><path class="g" d="M159.688,314.52c.03.033-.4.424-.829.995s-.69,1.087-.729,1.068a3.2,3.2,0,0,1,.617-1.155,3.15,3.15,0,0,1,.941-.908Z" transform="translate(-151.812 -289.907)"/><path class="g" d="M176.589,313.718a2.762,2.762,0,0,1-.247-.845,2.62,2.62,0,0,1-.109-.873,2.855,2.855,0,0,1,.247.843,2.816,2.816,0,0,1,.109.875Z" transform="translate(-164.992 -288.072)"/><path class="a" d="M223.008,396.623l17.982-8.731a5.981,5.981,0,0,1,5.736.272h0a5.98,5.98,0,0,1,1.427,8.99l-7.791,9.117-19.89,2.751-1.862-11.265,2.213-3.425Z" transform="translate(-195.851 -342.894)"/><path class="d" d="M258.155,435.35a1.086,1.086,0,0,1-.22.182c-.147.109-.364.272-.633.449-.544.37-1.3.862-2.153,1.378s-1.645.954-2.224,1.259c-.291.152-.527.272-.693.351a1.106,1.106,0,0,1-.272.109,1.019,1.019,0,0,1,.236-.158l.669-.391c.565-.326,1.346-.777,2.2-1.291s1.617-.992,2.175-1.34l.658-.411A1.094,1.094,0,0,1,258.155,435.35Z" transform="translate(-220.135 -377.891)"/><path class="a" d="M134.918,398.782s1.786-8.623,2.718-9.949,2.857-4.3,5.306-4.6,7.454,2.631,8.364,3.784c2.305,2.922,16.854,18.322,16.674,18.121l-4.689,3.232-4.956-1.566H144.12S134.271,406.136,134.918,398.782Z" transform="translate(-134.888 -340.652)"/><path class="d" d="M175.458,438.058a1.184,1.184,0,0,1-.217-.014,4.348,4.348,0,0,1-.617-.1,11.514,11.514,0,0,1-2.175-.764,32.451,32.451,0,0,1-6.4-4.018,54.229,54.229,0,0,1-5.73-4.939,14.479,14.479,0,0,1-1.487-1.745,4.82,4.82,0,0,1-.334-.53,1.148,1.148,0,0,1-.1-.19.921.921,0,0,1,.125.177c.084.117.182.3.353.511a16.274,16.274,0,0,0,1.514,1.71,59.291,59.291,0,0,0,5.747,4.893,34.007,34.007,0,0,0,6.361,4.029,12.643,12.643,0,0,0,2.134.815c.272.06.468.106.609.122A1.186,1.186,0,0,1,175.458,438.058Z" transform="translate(-152.008 -370.908)"/><path class="d" d="M152.071,447.7a1.5,1.5,0,0,1-.185.111l-.544.3c-.237.128-.544.247-.892.405-.174.082-.372.133-.576.209s-.432.151-.652.209a12.907,12.907,0,0,1-3.325.5,13.836,13.836,0,0,1-4.1-.53,12.638,12.638,0,0,1-3.73-1.77c-.256-.193-.514-.364-.745-.56a5.188,5.188,0,0,1-.62-.628,7.3,7.3,0,0,1-.875-1.313,6.863,6.863,0,0,1-.739-2.15,3.866,3.866,0,0,1-.054-.617,1.3,1.3,0,0,1,0-.215c.016,0,0,.3.1.815a7.112,7.112,0,0,0,.772,2.112,7.634,7.634,0,0,0,.875,1.283,5.388,5.388,0,0,0,.612.609c.228.19.487.359.739.544a12.774,12.774,0,0,0,3.7,1.74,13.906,13.906,0,0,0,4.053.544,13.223,13.223,0,0,0,3.311-.462c.234-.049.446-.136.652-.2a5.233,5.233,0,0,0,.574-.2c.348-.15.658-.272.9-.381l.544-.272A.993.993,0,0,1,152.071,447.7Z" transform="translate(-134.994 -382.479)"/><path class="d" d="M213.113,418.283c-.027.027-3.556-3.689-7.883-8.3s-7.807-8.37-7.78-8.394,3.558,3.686,7.883,8.3S213.143,418.259,213.113,418.283Z" transform="translate(-180.443 -353.308)"/><path class="e" d="M193.312,462.76s-3.216,1.31-2.879,2.808,1.993,2.194,3.67,2.033a21.638,21.638,0,0,0,4.763-1.541l1.588-.843a12.229,12.229,0,0,1-2.906-.378C196.417,464.435,193.312,462.76,193.312,462.76Z" transform="translate(-175.316 -397.85)"/><path class="d" d="M214.57,461.1l11.417,1.794,24.1-2.4-13.214-3.621-22.291,3.205a.516.516,0,0,0-.443.511h0A.519.519,0,0,0,214.57,461.1Z" transform="translate(-192.596 -393.561)"/><path class="d" d="M261.554,402.608l-2.762,16.329a1.414,1.414,0,0,0,1.536,1.631l22.255-2.218a1.414,1.414,0,0,0,1.25-1.153l3-16.517a1.416,1.416,0,0,0-1.541-1.661l-22.5,2.419A1.416,1.416,0,0,0,261.554,402.608Z" transform="translate(-225.097 -351.431)"/><path class="a" d="M214.11,429.486h.06l.177.019.677.1,2.512.375,8.506,1.324-.079.057c.141-.851.285-1.737.435-2.642.671-4.018,1.278-7.652,1.721-10.3.226-1.307.408-2.37.544-3.115.063-.362.114-.644.152-.848.016-.09.033-.16.043-.217a.339.339,0,0,1,.019-.076.321.321,0,0,1,0,.076,1.758,1.758,0,0,1-.03.223c-.03.2-.073.489-.125.851-.12.748-.288,1.813-.495,3.123-.43,2.648-1.022,6.285-1.677,10.3-.152.905-.3,1.791-.438,2.645v.068h-.071l-8.508-1.359-2.506-.416-.674-.117-.174-.035Z" transform="translate(-192.574 -362.461)"/><path class="g" d="M312.472,433.964a1.441,1.441,0,1,1-1.433-1.6A1.525,1.525,0,0,1,312.472,433.964Z" transform="translate(-262.114 -375.714)"/><path class="a" d="M182.769,274.7a11.114,11.114,0,0,1,1.479,2.691,3.78,3.78,0,0,1-.144,2.99c-.416.745-1.18,1.329-1.31,2.175-.217,1.438,1.509,2.5,1.631,3.952a3.217,3.217,0,0,1-.935,2.232,9.259,9.259,0,0,0-1.509,1.963,1.964,1.964,0,0,0,.307,2.292c-.794-.223-1.617.62-2.4.359-.666-.22-.843-1.063-.908-1.762a1.683,1.683,0,0,0-.3,1.492,4.162,4.162,0,0,1-.68-4.768c.478-.889,1.294-1.672,1.294-2.661-.014-1.087-1.033-1.9-1.318-2.971a4.028,4.028,0,0,1,.182-2.21,8.9,8.9,0,0,0,.525-2.175c.03-.742-.038-1.049-.68-1.435" transform="translate(-165.947 -260.912)"/><path class="d" d="M186.656,287.52h-.06a.725.725,0,0,1-.169-.054,1.161,1.161,0,0,1-.516-.446,1.783,1.783,0,0,1-.285-1.041,2.631,2.631,0,0,1,.5-1.343c.291-.446.7-.867,1.074-1.359a2.955,2.955,0,0,0,.739-1.756,3.681,3.681,0,0,0-.794-1.965,5.588,5.588,0,0,1-1.063-2.107,1.927,1.927,0,0,1,.174-1.2,3.944,3.944,0,0,1,.71-.938,8.253,8.253,0,0,0,.739-.816,2.156,2.156,0,0,0,.427-.938,1.359,1.359,0,0,0-.212-.932,6.37,6.37,0,0,0-.59-.748,3.012,3.012,0,0,1-.737-1.568,2.822,2.822,0,0,1,.158-1.422,2.917,2.917,0,0,1,.574-.919,2.717,2.717,0,0,1,.522-.44,1.706,1.706,0,0,1,.152-.09.171.171,0,0,1,.057-.025,3.575,3.575,0,0,0-.69.593,2.9,2.9,0,0,0-.544.908,2.776,2.776,0,0,0-.133,1.381,2.893,2.893,0,0,0,.726,1.506,6.675,6.675,0,0,1,.606.758,1.49,1.49,0,0,1,.234,1.014,2.278,2.278,0,0,1-.446,1,7.786,7.786,0,0,1-.748.84,3.913,3.913,0,0,0-.685.905,1.769,1.769,0,0,0-.158,1.117,5.505,5.505,0,0,0,1.038,2.055,6.644,6.644,0,0,1,.563.979,2.615,2.615,0,0,1,.245,1.063,2.362,2.362,0,0,1-.25,1.009,4.709,4.709,0,0,1-.525.816c-.389.489-.794.9-1.087,1.337a2.569,2.569,0,0,0-.5,1.288,1.767,1.767,0,0,0,.253,1.009,1.207,1.207,0,0,0,.481.451C186.575,287.5,186.659,287.509,186.656,287.52Z" transform="translate(-171.833 -255.603)"/><path class="b" d="M230.847,414.22c-.783-.7.1-1.528-1.321-2.868a17.742,17.742,0,0,0-6.959-4.012l-2.447,4.349,4.241,1.359-.041,2.765a1.011,1.011,0,0,0,1.025,1.028l2.2-.027a22.2,22.2,0,0,0-.544,2.882.582.582,0,0,0,1.038-.112c.087-.364,1.9-4.752,1.9-4.752s1.185,1.022,1.359.438C231.309,415.283,231.632,414.927,230.847,414.22Z" transform="translate(-196.951 -357.495)"/><path class="c" d="M237.8,437.206c0-.014.1-.082.247-.226a1.787,1.787,0,0,0,.419-.666,1.764,1.764,0,0,0,.084-.783c-.024-.2-.071-.323-.054-.332a.669.669,0,0,1,.13.321,1.576,1.576,0,0,1-.06.829,1.607,1.607,0,0,1-.468.7A.669.669,0,0,1,237.8,437.206Z" transform="translate(-209.825 -377.782)"/><path class="c" d="M243,437.43a3.1,3.1,0,0,0,.424-.851,3.054,3.054,0,0,0,.038-.949.6.6,0,0,1,.1.272,1.686,1.686,0,0,1-.342,1.329A.649.649,0,0,1,243,437.43Z" transform="translate(-213.611 -378.095)"/><path class="c" d="M247.649,436.39c.014,0,.041.087.043.239a1.416,1.416,0,0,1-.117.573,1.441,1.441,0,0,1-.332.481c-.111.1-.2.144-.2.133a3.38,3.38,0,0,0,.438-.655A3.264,3.264,0,0,0,247.649,436.39Z" transform="translate(-216.553 -378.649)"/></g><g transform="translate(-2 28)"><path class="e" d="M459.884,373.2a3.046,3.046,0,0,1,1.577-2.017,3.767,3.767,0,0,1,2.68.158,9.681,9.681,0,0,0,2.623.788,2.139,2.139,0,0,0,2.224-1.253,2.4,2.4,0,0,0-.859-2.3,5.437,5.437,0,0,0-8.889,2.134" transform="translate(-435.931 -347.101)"/><g class="h" transform="translate(23.308 19.973)"><path d="M459.884,373.2a3.046,3.046,0,0,1,1.577-2.017,3.767,3.767,0,0,1,2.68.158,9.681,9.681,0,0,0,2.623.788,2.139,2.139,0,0,0,2.224-1.253,2.4,2.4,0,0,0-.859-2.3,5.437,5.437,0,0,0-8.889,2.134" transform="translate(-459.24 -367.075)"/></g><path class="e" d="M432.058,374.967c-1.343-1.275-1.278-3.5-.606-5.222a7.918,7.918,0,0,1,3.765-3.928,11.923,11.923,0,0,1,10.392-.337,4.931,4.931,0,0,0-3.988,2.34c-.737,1.223-.9,2.718-1.509,4a6.29,6.29,0,0,1-8.055,3.148" transform="translate(-415.357 -345.19)"/><path class="e" d="M427.081,315.711c-1.487-1.753-1.685-4.572-1.465-6.861s.75-4.594.389-6.867c-.215-1.346-.737-2.631-.913-3.982a4.144,4.144,0,0,1,1.12-3.751,3.618,3.618,0,0,1,4.349.174,8.152,8.152,0,0,1,2.506,3.9,16.586,16.586,0,0,1,.636,10.134c-.957,3.305-3.2,6.252-6.494,7.258" transform="translate(-411.028 -293.599)"/><path class="a" d="M429.914,384.813a.873.873,0,0,1,0-.2v-.579c.019-.506.065-1.232.179-2.126a28.937,28.937,0,0,1,.571-3.115,14.356,14.356,0,0,1,1.422-3.6,14.991,14.991,0,0,1,2.321-3.1,14.768,14.768,0,0,1,2.433-2.025c.372-.256.731-.451,1.041-.631s.593-.3.816-.413l.544-.226a1.563,1.563,0,0,1,.19-.071,1.329,1.329,0,0,1-.179.092l-.525.247c-.223.114-.495.258-.816.43a9.486,9.486,0,0,0-1.025.644,15.32,15.32,0,0,0-4.7,5.116,18.712,18.712,0,0,0-2.012,6.668c-.125.889-.185,1.615-.22,2.118l-.033.576A1.439,1.439,0,0,1,429.914,384.813Z" transform="translate(-414.573 -348.299)"/><path class="e" d="M376.009,349.47c-2.751,1.661-2.743,3.172-2.283,4.6a2.888,2.888,0,0,0,3.55,1.884,4.375,4.375,0,0,0,1.854-1.68,7.931,7.931,0,0,1,1.631-1.927,2.1,2.1,0,0,1,2.37-.2" transform="translate(-373.496 -334.282)"/><g class="h" transform="translate(0 15.188)"><path d="M376.009,349.47c-2.751,1.661-2.743,3.172-2.283,4.6a2.888,2.888,0,0,0,3.55,1.884,4.375,4.375,0,0,0,1.854-1.68,7.931,7.931,0,0,1,1.631-1.927,2.1,2.1,0,0,1,2.37-.2" transform="translate(-373.496 -349.47)"/></g><path class="e" d="M375.17,346.173a3.248,3.248,0,0,1,3.618-.786,7.261,7.261,0,0,1,2.68,2.46,10.966,10.966,0,0,0,2.471,2.7,3.186,3.186,0,0,0,3.458.242,2.966,2.966,0,0,0,1.174-2.033,6.75,6.75,0,0,0-.16-2.4,5.161,5.161,0,0,0-1.563-3.091,5.684,5.684,0,0,0-3.77-.815,14.12,14.12,0,0,0-4.45.685,6.171,6.171,0,0,0-3.458,3.034" transform="translate(-374.715 -329.164)"/><path class="a" d="M402.556,364.3v-.239c0-.166-.014-.394-.022-.682-.019-.6-.044-1.457-.073-2.512s-.076-2.322-.152-3.721-.182-2.939-.394-4.54a14.831,14.831,0,0,0-.457-2.305,11.936,11.936,0,0,0-.843-2.017,11.423,11.423,0,0,0-1.066-1.669,10.576,10.576,0,0,0-1.161-1.275,8.561,8.561,0,0,0-2.058-1.405c-.136-.06-.253-.122-.359-.163l-.272-.106-.166-.065-.054-.027.057.014.171.057.272.092c.109.041.228.1.364.155a8.244,8.244,0,0,1,2.1,1.384,10.687,10.687,0,0,1,1.182,1.278,11.8,11.8,0,0,1,1.087,1.677,11.989,11.989,0,0,1,.856,2.036,14.4,14.4,0,0,1,.462,2.324c.215,1.609.315,3.151.386,4.55s.106,2.664.128,3.724.03,1.922.033,2.514v.862A.156.156,0,0,1,402.556,364.3Z" transform="translate(-389.504 -329.986)"/><path class="a" d="M423.856,343.047a7.734,7.734,0,0,1-.3-1.18,12.374,12.374,0,0,1-.128-3.322,22.243,22.243,0,0,1,1.049-4.814c.565-1.77,1.332-3.664,1.987-5.709a26.131,26.131,0,0,0,.788-3.015,27,27,0,0,0,.391-2.876,42.815,42.815,0,0,0,.087-4.92c-.046-1.4-.122-2.534-.169-3.316-.022-.386-.041-.688-.052-.9a1.169,1.169,0,0,0-.013-.236.348.348,0,0,1,0-.079q0,.039,0,.079a.894.894,0,0,0,.024.234c.016.212.044.514.076.9.06.783.147,1.9.207,3.316a40.2,40.2,0,0,1-.063,4.931,24.516,24.516,0,0,1-1.174,5.921c-.658,2.042-1.427,3.931-2,5.7a22.39,22.39,0,0,0-1.071,4.787,12.817,12.817,0,0,0,.087,3.306c.068.383.13.682.185.881.022.1.041.171.054.228Z" transform="translate(-409.812 -307.493)"/><path class="d" d="M414.854,422.307H401.936l-.3-2.487h13.214Z" transform="translate(-393.989 -385.509)"/><path class="d" d="M407.82,427.92l1.617,7.459h7.019l1.511-7.459Z" transform="translate(-398.489 -391.407)"/><path class="d" d="M416.267,428.776c0,.033-2.841.052-6.345.044s-6.342-.046-6.342-.082,2.838-.052,6.342-.044S416.267,428.733,416.267,428.776Z" transform="translate(-395.402 -391.969)"/><path class="a" d="M419.138,439.728a5.314,5.314,0,0,0-1.136-.652,3.991,3.991,0,0,0-1.384-.272,4.787,4.787,0,0,0-1.7.313c-.59.2-1.139.429-1.674.557a3.93,3.93,0,0,1-1.446.044,2.947,2.947,0,0,1-.93-.294,1.675,1.675,0,0,1-.226-.144.329.329,0,0,1-.071-.06s.112.065.318.16a3.191,3.191,0,0,0,.919.25,4.035,4.035,0,0,0,1.411-.068c.517-.128,1.066-.362,1.661-.563a4.823,4.823,0,0,1,1.742-.31,3.964,3.964,0,0,1,1.414.31,3.75,3.75,0,0,1,.84.492,2.016,2.016,0,0,1,.2.174C419.114,439.7,419.141,439.725,419.138,439.728Z" transform="translate(-400.492 -399.249)"/><path class="i" d="M419.586,441.572a5.518,5.518,0,0,0-1.087-.644,3.78,3.78,0,0,0-1.335-.272,4.823,4.823,0,0,0-1.645.3c-.568.19-1.1.411-1.612.544a4.152,4.152,0,0,1-1.392.155,2.377,2.377,0,0,1-.911-.242,1.86,1.86,0,0,1-.217-.139c-.046-.035-.071-.054-.068-.06s.106.063.3.155a2.528,2.528,0,0,0,.9.2,4.214,4.214,0,0,0,1.359-.177c.5-.141,1.03-.364,1.607-.557a4.749,4.749,0,0,1,1.685-.291,3.652,3.652,0,0,1,1.359.307,3.565,3.565,0,0,1,.815.489,1.785,1.785,0,0,1,.193.169C419.567,441.548,419.589,441.57,419.586,441.572Z" transform="translate(-401.037 -400.595)"/><path class="i" d="M418.894,437.647a6.241,6.241,0,0,0-1.169-.688,4.281,4.281,0,0,0-1.416-.343,4.621,4.621,0,0,0-1.756.31,15.8,15.8,0,0,1-1.734.565,4.347,4.347,0,0,1-1.492,0,3.418,3.418,0,0,1-.96-.3,1.732,1.732,0,0,1-.234-.147c-.052-.035-.076-.057-.073-.063s.114.068.326.166a3.809,3.809,0,0,0,.954.272,4.519,4.519,0,0,0,1.46-.03,17.333,17.333,0,0,0,1.715-.571,4.571,4.571,0,0,1,1.8-.3,4.212,4.212,0,0,1,1.446.372,4.293,4.293,0,0,1,.862.519,2.152,2.152,0,0,1,.207.179C418.875,437.62,418.9,437.644,418.894,437.647Z" transform="translate(-400.12 -397.662)"/><path class="a" d="M415.9,428.84c0,.035-2.906.062-6.491.062s-6.489-.027-6.489-.062,2.906-.06,6.489-.06S415.9,428.807,415.9,428.84Z" transform="translate(-394.921 -392.033)"/></g></g></svg>