<svg xmlns="http://www.w3.org/2000/svg" width="121.227" height="90.328" viewBox="0 0 121.227 90.328"><defs><style>.a{fill:#ebebeb;}.b{fill:#f5f5f5;}.c{fill:#fafafa;}.d{fill:#e6e6e6;}.e{fill:#e0e0e0;}.f{fill:#f0f0f0;}.g{fill:#b24bf3;}.h{opacity:0.2;}.i,.n{opacity:0.3;}.j{opacity:0.1;}.k{fill:#263238;}.l{fill:#ffb573;}.m{fill:#ed893e;}.n,.o{fill:#fff;}</style></defs><g transform="translate(0 0)"><rect class="a" width="121.227" height="0.061" transform="translate(0 79.379)"/><rect class="a" width="8.03" height="0.061" transform="translate(101.05 83.28)"/><rect class="a" width="2.107" height="0.061" transform="translate(78.198 83.94)"/><rect class="a" width="4.653" height="0.061" transform="translate(96.154 81.03)"/><rect class="a" width="10.472" height="0.061" transform="translate(12.719 81.437)"/><rect class="a" width="1.535" height="0.061" transform="translate(25.351 81.437)"/><rect class="a" width="22.713" height="0.061" transform="translate(31.875 82.461)"/><path class="a" d="M86.407,123.566H39.592a1.384,1.384,0,0,1-1.382-1.384V56.372A1.384,1.384,0,0,1,39.592,55H86.407a1.384,1.384,0,0,1,1.384,1.384v65.8A1.384,1.384,0,0,1,86.407,123.566ZM39.592,55.048a1.324,1.324,0,0,0-1.321,1.324v65.809a1.324,1.324,0,0,0,1.321,1.324H86.407a1.326,1.326,0,0,0,1.324-1.324V56.372a1.326,1.326,0,0,0-1.324-1.324Z" transform="translate(-28.946 -55)"/><path class="a" d="M302.7,123.566H255.884a1.387,1.387,0,0,1-1.384-1.384V56.372A1.387,1.387,0,0,1,255.884,55H302.7a1.384,1.384,0,0,1,1.38,1.372v65.809A1.384,1.384,0,0,1,302.7,123.566ZM255.884,55.048a1.326,1.326,0,0,0-1.324,1.324v65.809a1.326,1.326,0,0,0,1.324,1.324H302.7a1.326,1.326,0,0,0,1.324-1.324V56.372a1.326,1.326,0,0,0-1.324-1.324Z" transform="translate(-192.796 -55)"/><rect class="b" width="28.018" height="67.661" transform="translate(28.26 11.718)"/><path class="c" d="M149.663,103.33h-4.321l-9.892,67.661h4.321Z" transform="translate(-102.61 -91.612)"/><path class="c" d="M172.212,103.33h-2.16l-9.892,67.661h2.16Z" transform="translate(-121.329 -91.612)"/><rect class="a" width="0.322" height="67.661" transform="translate(56.598 79.379) rotate(180)"/><path class="d" d="M283.816,153.234l1.53-73.344H280.97V80.5l2.352,7.111-.783,65.62Z" transform="translate(-212.848 -73.855)"/><path class="e" d="M289.206,153.234V79.89H285.63L287.982,87l-.783,66.233Z" transform="translate(-216.378 -73.855)"/><path class="f" d="M326.308,87.652H297.456a.606.606,0,0,1-.606-.606h0a.609.609,0,0,1,.606-.606h28.852a.609.609,0,0,1,.606.606h0A.609.609,0,0,1,326.308,87.652Z" transform="translate(-224.878 -78.817)"/><path class="f" d="M326.308,106.782H297.456a.609.609,0,0,1-.606-.606h0a.606.606,0,0,1,.606-.606h28.852a.609.609,0,0,1,.606.606h0A.609.609,0,0,1,326.308,106.782Z" transform="translate(-224.878 -93.309)"/><path class="f" d="M326.308,125.9H297.456a.609.609,0,0,1-.606-.606h0a.606.606,0,0,1,.606-.606h28.852a.609.609,0,0,1,.606.606h0A.609.609,0,0,1,326.308,125.9Z" transform="translate(-224.878 -107.793)"/><rect class="f" width="30.064" height="1.212" rx="0.606" transform="translate(71.972 21.532)"/><path class="f" d="M326.308,164.142H297.456a.609.609,0,0,1-.606-.606h0a.606.606,0,0,1,.606-.606h28.852a.609.609,0,0,1,.606.606h0A.609.609,0,0,1,326.308,164.142Z" transform="translate(-224.878 -136.762)"/><path class="f" d="M326.308,183.262H297.456a.606.606,0,0,1-.606-.606h0a.609.609,0,0,1,.606-.606h28.852a.609.609,0,0,1,.606.606h0A.609.609,0,0,1,326.308,183.262Z" transform="translate(-224.878 -151.246)"/><path class="f" d="M326.308,202.382H297.456a.606.606,0,0,1-.606-.606h0a.609.609,0,0,1,.606-.606h28.852a.609.609,0,0,1,.606.606h0A.609.609,0,0,1,326.308,202.382Z" transform="translate(-224.878 -165.731)"/><path class="f" d="M326.308,221.5H297.456a.606.606,0,0,1-.606-.606h0a.609.609,0,0,1,.606-.606h28.852a.609.609,0,0,1,.606.606h0A.608.608,0,0,1,326.308,221.5Z" transform="translate(-224.878 -180.215)"/><path class="f" d="M326.308,240.632H297.456a.609.609,0,0,1-.606-.606h0a.606.606,0,0,1,.606-.606h28.852a.609.609,0,0,1,.606.606h0A.608.608,0,0,1,326.308,240.632Z" transform="translate(-224.878 -194.707)"/><path class="f" d="M326.308,259.752H297.456a.609.609,0,0,1-.606-.606h0a.606.606,0,0,1,.606-.606h28.852a.609.609,0,0,1,.606.606h0A.608.608,0,0,1,326.308,259.752Z" transform="translate(-224.878 -209.191)"/><path class="f" d="M326.308,278.872H297.456a.609.609,0,0,1-.606-.606h0a.606.606,0,0,1,.606-.606h28.852a.609.609,0,0,1,.606.606h0A.609.609,0,0,1,326.308,278.872Z" transform="translate(-224.878 -223.675)"/><path class="f" d="M326.308,297.992H297.456a.609.609,0,0,1-.606-.606h0a.606.606,0,0,1,.606-.606h28.852a.609.609,0,0,1,.606.606h0A.609.609,0,0,1,326.308,297.992Z" transform="translate(-224.878 -238.16)"/><path class="f" d="M326.308,317.112H297.456a.606.606,0,0,1-.606-.606h0a.609.609,0,0,1,.606-.606h28.852a.609.609,0,0,1,.606.606h0A.609.609,0,0,1,326.308,317.112Z" transform="translate(-224.878 -252.644)"/><path class="f" d="M326.308,336.212H297.456a.606.606,0,0,1-.606-.606h0a.609.609,0,0,1,.606-.606h28.852a.609.609,0,0,1,.606.606h0A.608.608,0,0,1,326.308,336.212Z" transform="translate(-224.878 -267.113)"/><path class="f" d="M326.308,355.352H297.456a.606.606,0,0,1-.606-.606h0a.609.609,0,0,1,.606-.606h28.852a.609.609,0,0,1,.606.606h0A.608.608,0,0,1,326.308,355.352Z" transform="translate(-224.878 -281.613)"/><path class="f" d="M326.308,374.472H297.456a.606.606,0,0,1-.606-.606h0a.609.609,0,0,1,.606-.606h28.852a.609.609,0,0,1,.606.606h0A.608.608,0,0,1,326.308,374.472Z" transform="translate(-224.878 -296.097)"/><path class="e" d="M408.745,153.234l-.187-73.344H404.18V80.5l2.352,7.111-.783,65.62Z" transform="translate(-306.185 -73.855)"/><path class="b" d="M412.426,153.234V79.89H408.85L411.2,87l-.783,66.233Z" transform="translate(-309.723 -73.855)"/><rect class="e" width="11.318" height="17.044" transform="translate(13.463 22.953)"/><rect class="f" width="12.069" height="17.044" transform="translate(12.462 22.953)"/><rect class="c" width="14.227" height="9.25" transform="translate(23.123 24.359) rotate(90)"/><path class="f" d="M82.97,162.245a1.283,1.283,0,1,1-.376-.909A1.285,1.285,0,0,1,82.97,162.245Z" transform="translate(-60.907 -135.27)"/><rect class="f" width="7.138" height="5.142" transform="translate(14.928 30.183)"/><rect class="f" width="7.138" height="1.215" transform="translate(14.928 36.179)"/></g><g transform="translate(13.604 84.839)"><ellipse class="b" cx="47.009" cy="2.745" rx="47.009" ry="2.745"/></g><g transform="translate(36.252 77.316)"><path class="g" d="M350.991,394.745a3.44,3.44,0,1,0,0-6.878h-.521v6.878Z" transform="translate(-301.749 -384.477)"/><path class="h" d="M350.991,394.745a3.44,3.44,0,1,0,0-6.878h-.521v6.878Z" transform="translate(-301.749 -384.477)"/><ellipse class="g" cx="3.438" cy="3.438" rx="3.438" ry="3.438" transform="translate(44.581 4.277) rotate(-13.28)"/><path class="i" d="M339.957,387.866h-.521a3.44,3.44,0,1,0,0,6.878h.521a3.44,3.44,0,1,0,0-6.878Z" transform="translate(-290.714 -384.477)"/><path class="g" d="M328.5,400.582H322.38V399.2H328.5a.693.693,0,0,1,.693.691h0a.691.691,0,0,1-.693.691Z" transform="translate(-280.47 -393.064)"/><path class="g" d="M323.464,394.748a3.44,3.44,0,0,0,0-6.878h-.524v6.878Z" transform="translate(-280.894 -384.481)"/><path class="h" d="M323.464,394.748a3.44,3.44,0,0,0,0-6.878h-.524v6.878Z" transform="translate(-280.894 -384.481)"/><ellipse class="g" cx="3.448" cy="3.448" rx="3.448" ry="3.448" transform="matrix(0.987, -0.16, 0.16, 0.987, 38.303, 4.272)"/><path class="g" d="M322.652,398.247a1.792,1.792,0,1,0,0-3.581h-.272v3.581Z" transform="translate(-280.47 -389.628)"/><path class="h" d="M322.652,398.247a1.792,1.792,0,1,0,0-3.581h-.272v3.581Z" transform="translate(-280.47 -389.628)"/><ellipse class="g" cx="1.792" cy="1.792" rx="1.792" ry="1.792" transform="translate(40.119 5.036)"/><path class="g" d="M382.759,401.847a2.3,2.3,0,1,0,0-4.607h-.349v4.607Z" transform="translate(-325.945 -391.579)"/><path class="h" d="M382.759,401.847a2.3,2.3,0,1,0,0-4.607h-.349v4.607Z" transform="translate(-325.945 -391.579)"/><ellipse class="g" cx="2.298" cy="2.298" rx="2.298" ry="2.298" transform="translate(54.166 5.671)"/><path class="i" d="M375.562,397.28h-.349a2.3,2.3,0,1,0,0,4.607h.349a2.3,2.3,0,1,0,0-4.607Z" transform="translate(-318.748 -391.609)"/><path class="g" d="M367.73,405.774h-4.09v-.924h4.09a.463.463,0,0,1,.461.463h0A.461.461,0,0,1,367.73,405.774Z" transform="translate(-311.726 -397.344)"/><path class="g" d="M364.354,401.847a2.3,2.3,0,1,0,0-4.607H364v4.607Z" transform="translate(-311.999 -391.579)"/><path class="h" d="M364.354,401.847a2.3,2.3,0,1,0,0-4.607H364v4.607Z" transform="translate(-311.999 -391.579)"/><ellipse class="g" cx="2.298" cy="2.298" rx="2.298" ry="2.298" transform="translate(49.708 5.671)"/><path class="g" d="M363.822,404.209a1.2,1.2,0,1,0,0-2.393h-.182v2.393Z" transform="translate(-311.726 -395.044)"/><path class="h" d="M363.822,404.209a1.2,1.2,0,1,0,0-2.393h-.182v2.393Z" transform="translate(-311.726 -395.044)"/><path class="g" d="M361.1,403.01a1.2,1.2,0,1,0-1.2,1.2A1.2,1.2,0,0,0,361.1,403.01Z" transform="translate(-307.984 -395.041)"/><path class="g" d="M158.138,392.27a3.724,3.724,0,0,1-1.033,2.577,13.415,13.415,0,0,1-5.395,0,3.729,3.729,0,1,1,6.427-2.577Z" transform="translate(-150.399 -384.991)"/><path class="g" d="M150.955,379.037a5.23,5.23,0,0,1-1.435-2.948c0-2.2,2.732-2.2,3.9-2.2s3.9,0,3.9,2.2a5.228,5.228,0,0,1-1.438,2.948l-.7-.669.349.335-.349-.335a4.224,4.224,0,0,0,1.169-2.279c0-1.021-1.173-1.229-2.931-1.229s-2.931.209-2.931,1.229a4.2,4.2,0,0,0,1.166,2.279Z" transform="translate(-149.52 -373.89)"/><path class="j" d="M162.529,398.735a1.455,1.455,0,1,1-1.455-1.455A1.455,1.455,0,0,1,162.529,398.735Z" transform="translate(-157.171 -391.609)"/></g><g transform="translate(42.937 15.44)"><path class="k" d="M261.1,120.3a1.205,1.205,0,0,1,.97-.383c-.512-.921-2.151-.79-2.7-.485a.669.669,0,0,1,.449-.727,1.244,1.244,0,0,0-1.489,1.081,3.177,3.177,0,0,1-1.94,2.587l1.782,1.666c1.94-.327,1.382,1.547.89,2.594a1.983,1.983,0,0,0,1.474-.931,1.94,1.94,0,0,1,.019,1.212,2.41,2.41,0,0,0,1.307-2.269,1.9,1.9,0,0,1,.616,1.028c1.341-1.438-.32-3.486-.32-3.486a3.69,3.69,0,0,1,1,.524C263.2,120.811,261.1,120.3,261.1,120.3Z" transform="translate(-237.165 -118.683)"/><path class="g" d="M257.206,133.4c-.7.213-1.6-2.386-1.11-3.152a1.4,1.4,0,0,1,2.393.262A1.907,1.907,0,0,1,257.206,133.4Z" transform="translate(-236.836 -127.017)"/><path class="l" d="M236.907,394.471l-1.4,0-.235-5.264,2.357.058Z" transform="translate(-221.165 -323.62)"/><path class="g" d="M230.606,223.57s-.126,15.056-.446,21.251c.456,6.287,1.244,18.911,1.244,18.911l2.374.061s2.068-9.783.788-18.645c2.056-10.023,3.166-18.967,1.3-21.578Z" transform="translate(-217.294 -198.14)"/><path class="h" d="M247.385,247.5c-.727,2.439-.019,10.28.356,13.9.512-2.614.948-5.128,1.27-7.446Z" transform="translate(-230.104 -216.268)"/><path class="k" d="M226.309,408.11h1.821a.15.15,0,0,1,.155.136l.184,1.491a.347.347,0,0,1-.347.354c-.8,0-1.186-.058-2.2-.056-.623,0-1,.063-1.86.063s-.861-.824-.5-.9a4.247,4.247,0,0,0,2.4-.97A.565.565,0,0,1,226.309,408.11Z" transform="translate(-212.127 -337.937)"/><path class="l" d="M201.286,177.578a35.3,35.3,0,0,1-1.394,3.394,32.208,32.208,0,0,1-1.734,3.268l-.121.2c-.012.024-.056.09-.092.145s-.082.109-.124.162a2.158,2.158,0,0,1-.6.485,3.011,3.011,0,0,1-1.2.335,7.029,7.029,0,0,1-2.017-.165,16.3,16.3,0,0,1-3.523-1.249.5.5,0,0,1,.347-.941h.019c.553.145,1.132.284,1.7.4a14.548,14.548,0,0,0,1.7.262,5.984,5.984,0,0,0,1.564,0,1.319,1.319,0,0,0,.512-.182.319.319,0,0,0,.092-.09l.133-.259c.272-.512.526-1.04.778-1.566s.485-1.062.727-1.6c.461-1.074.907-2.182,1.309-3.254V176.9a1.016,1.016,0,0,1,1.908.691Z" transform="translate(-187.029 -162.312)"/><path class="l" d="M187.784,203.81a4.852,4.852,0,0,0-1.154.218l.332,1.026s1.574.366,1.894-.4l-.116-.158C188.514,204.186,188.252,203.81,187.784,203.81Z" transform="translate(-184.318 -183.171)"/><path class="l" d="M177.73,203.81l.439.55,2.051.693-.332-1.026Z" transform="translate(-177.576 -183.171)"/><path class="l" d="M227.127,174.605c.056,1.675.769,4.585,1.176,9.754h8.132c-.126-3.1-.2-5.077,1.113-10.961a1.062,1.062,0,0,0-.87-1.28,22.279,22.279,0,0,0-2.308-.242,25.6,25.6,0,0,0-3.661,0c-.485.044-.97.107-1.428.175a2.512,2.512,0,0,0-2.153,2.555Z" transform="translate(-214.996 -158.929)"/><path class="h" d="M266.382,179.83a6.359,6.359,0,0,0,.32,2.425c.1-.56.225-1.161.364-1.818Z" transform="translate(-244.725 -165.005)"/><path class="h" d="M244.408,182.3a2.494,2.494,0,0,1,1.53-2.039,5.5,5.5,0,0,0-1.53,2.039Z" transform="translate(-228.085 -165.331)"/><path class="l" d="M244.177,155.06c-.242,1.176-.463,3.336.361,4.122,0,0-.322,1.2-2.509,1.2-2.408,0-1.152-1.2-1.152-1.2,1.314-.315,1.28-1.29,1.052-2.2Z" transform="translate(-225.165 -146.24)"/><path class="h" d="M247.571,158.29l-1.331,1.142a3.847,3.847,0,0,1,.114.65,1.619,1.619,0,0,0,1.244-1.149A1.8,1.8,0,0,0,247.571,158.29Z" transform="translate(-229.476 -148.687)"/><path class="k" d="M238.114,140.5c-.727.107-1.227-2.6-.63-3.288s1.974.158,2.328.613C240.478,138.679,239.462,140.3,238.114,140.5Z" transform="translate(-222.642 -132.519)"/><path class="l" d="M242.371,136.238c-.451,1.918-.6,2.74-1.748,3.566a2.52,2.52,0,0,1-4.122-1.738c-.121-1.811.633-4.645,2.667-5.091a2.689,2.689,0,0,1,3.2,3.263Z" transform="translate(-222.089 -129.459)"/><path class="k" d="M241.813,132.254c.216-.861.211-2.332-2.034-2.963-2.328-.652-3.993,2.071-4.439,1.084a.485.485,0,0,1,.15-.524s-1.03.5-.587,1.137c.674.958,5.106.89,5.106.89Z" transform="translate(-220.804 -126.642)"/><path class="k" d="M255.2,140.863c-.727.109-1.227-2.6-.63-3.285s1.974.158,2.328.613C257.575,139.049,256.559,140.667,255.2,140.863Z" transform="translate(-235.588 -132.8)"/><path class="l" d="M277.194,393.972l-1.467.051-.977-4.813,2.238.061Z" transform="translate(-251.073 -323.62)"/><path class="k" d="M271.647,408h1.94a.143.143,0,0,1,.141.119l.262,1.564a.272.272,0,0,1-.269.31h-3.353c-.708,0-.771-.679-.485-.8a2.585,2.585,0,0,0,1.481-1.093A.376.376,0,0,1,271.647,408Z" transform="translate(-247.265 -337.852)"/><path class="g" d="M241.17,223.54s2.679,15.291,3.807,21.336c1.173,6.3,4.335,18.814,4.335,18.814l2.245.061s-.992-13.89-2.374-19.425c-.269-10.023.361-18.184-2.109-20.8Z" transform="translate(-225.635 -198.11)"/><path class="k" d="M246.42,145.555c-.027.158-.131.272-.242.242s-.165-.16-.138-.318.133-.272.242-.255S246.446,145.4,246.42,145.555Z" transform="translate(-229.318 -138.788)"/><path class="k" d="M239.06,144.333c-.027.158-.131.272-.242.242s-.165-.158-.138-.318.133-.272.242-.242S239.089,144.176,239.06,144.333Z" transform="translate(-223.743 -137.87)"/><path class="k" d="M238.761,143.555l-.361-.175S238.545,143.71,238.761,143.555Z" transform="translate(-223.537 -137.392)"/><path class="m" d="M240.067,146.9a4.325,4.325,0,0,1-.727.912.693.693,0,0,0,.543.2Z" transform="translate(-224.249 -140.059)"/><path class="k" d="M243.8,153.253a1.347,1.347,0,0,1-.242-.022.046.046,0,0,1-.039-.053.048.048,0,0,1,.053-.039,1.275,1.275,0,0,0,1.1-.315.046.046,0,0,1,.068.063A1.309,1.309,0,0,1,243.8,153.253Z" transform="translate(-227.413 -144.535)"/><path class="l" d="M257.214,150.318a1.455,1.455,0,0,1-.875.667c-.485.124-.727-.315-.577-.771.129-.41.541-.97,1.028-.895a.65.65,0,0,1,.424,1Z" transform="translate(-236.655 -141.886)"/><path class="k" d="M248.286,142.953a.092.092,0,0,1-.087-.065,1.107,1.107,0,0,0-.664-.594.094.094,0,1,1,.058-.179,1.259,1.259,0,0,1,.786.727.095.095,0,0,1-.063.119Z" transform="translate(-230.406 -136.429)"/><path class="k" d="M238.353,140.592a.093.093,0,0,1-.044-.175.936.936,0,0,1,.856-.058.094.094,0,1,1-.085.167h0a.756.756,0,0,0-.679.053A.085.085,0,0,1,238.353,140.592Z" transform="translate(-223.431 -135.046)"/><path class="l" d="M263.53,173.2a27.664,27.664,0,0,1,2.2,2.682c.337.485.667.97.97,1.477a9.038,9.038,0,0,1,.8,1.709,3.574,3.574,0,0,1,.184,1.13,2.353,2.353,0,0,1-.034.356,1.869,1.869,0,0,1-.044.184l-.044.126c-.029.085-.058.172-.09.242l-.1.223a12.884,12.884,0,0,1-.89,1.557,26.362,26.362,0,0,1-2.083,2.725.507.507,0,0,1-.829-.567h0c.509-.984,1.04-1.969,1.515-2.946a14.307,14.307,0,0,0,.626-1.438l.058-.167.036-.148.019-.073v-.075a1.893,1.893,0,0,0-.133-.512,7.247,7.247,0,0,0-.686-1.3c-.276-.439-.584-.875-.909-1.3-.65-.851-1.358-1.7-2.066-2.5l-.015-.015a1.016,1.016,0,0,1,1.5-1.365Z" transform="translate(-241.248 -159.751)"/><path class="k" d="M246.121,144.8l-.361-.175S245.9,144.962,246.121,144.8Z" transform="translate(-229.112 -138.339)"/><path class="l" d="M263.688,222l-2,.778,1.772.97s1.074-.686,1.011-1.51Z" transform="translate(-241.18 -196.951)"/><path class="l" d="M258.18,226.615l1.527.73,1.1-1.2-1.772-.967Z" transform="translate(-238.521 -199.36)"/><path class="k" d="M237.606,172.244a1.239,1.239,0,0,1,.863.141c-.827,2.609-1.671,5.232-.177,5.906a18.824,18.824,0,0,0-.3,4.33c-1.414-.155-6.384-.424-8.658.075-.621-8.379.633-10.183.633-10.183a2.331,2.331,0,0,1,.8-.211c-.262,1.05-.994,3.579,2.461,3.547S237.606,172.244,237.606,172.244Z" transform="translate(-216.536 -159.25)"/><path class="k" d="M227.932,177c-.189.439-1.94,4.59-.4,5.484C229.314,183.529,227.932,177,227.932,177Z" transform="translate(-214.826 -162.861)"/><path class="g" d="M178.96,179.532a1.413,1.413,0,0,0-1.632-.812A.986.986,0,0,0,178.96,179.532Z" transform="translate(-177.271 -164.115)"/><path class="n" d="M178.96,179.532a1.413,1.413,0,0,0-1.632-.812A.986.986,0,0,0,178.96,179.532Z" transform="translate(-177.271 -164.115)"/><path class="g" d="M192.551,178.383a1.913,1.913,0,0,0-.851-.887l.109-.216a2.146,2.146,0,0,1,.97,1Z" transform="translate(-188.159 -163.073)"/><path class="g" d="M180.22,198.582a2.075,2.075,0,0,1-1.14-.659l.172-.172a1.835,1.835,0,0,0,1,.589Z" transform="translate(-178.599 -178.58)"/><path class="g" d="M180.952,180.575c-.543-1.127-2.063-.815-2.182-.141-.5-.47-1.9.2-1.644,1.428.216,1.052,1.193,2.238,1.7,2.3a1.856,1.856,0,0,0,1.081-.364,1.759,1.759,0,0,0,1.084-.366A3.461,3.461,0,0,0,180.952,180.575Z" transform="translate(-177.096 -165.003)"/><path class="o" d="M179.413,183.177a.933.933,0,0,0-.628,1.084l.943-1.1a.424.424,0,0,0-.315.017Z" transform="translate(-178.36 -167.51)"/><path class="k" d="M183.922,178.027a1.274,1.274,0,0,1,.6-1.377c0,.121.184.2.184.2A1.429,1.429,0,0,0,183.922,178.027Z" transform="translate(-182.248 -162.596)"/></g></svg>