<svg id="report_problem-24px_1_" data-name="report_problem-24px (1)" xmlns="http://www.w3.org/2000/svg" width="136.365" height="136.365" viewBox="0 0 136.365 136.365">
  <path id="Path_76" data-name="Path 76" d="M0,0H136.365V136.365H0Z" fill="none"/>
  <path id="Path_77" data-name="Path 77" d="M7.425,105.286H112.711a5.7,5.7,0,0,0,4.943-8.523L64.983,5.853a5.658,5.658,0,0,0-9.83,0L2.482,96.763a5.7,5.7,0,0,0,4.943,8.523ZM65.778,88.24H54.414V76.876H65.778ZM60.1,65.512a5.7,5.7,0,0,1-5.682-5.682V48.467a5.682,5.682,0,0,1,11.364,0V59.83A5.7,5.7,0,0,1,60.1,65.512Z" transform="translate(8.086 14.034)" fill="#a020f0"/>
</svg>
