<svg xmlns="http://www.w3.org/2000/svg" width="119.656" height="89.158" viewBox="0 0 119.656 89.158"><defs><style>.a{fill:#ebebeb;}.b{fill:#f5f5f5;}.c{fill:#e6e6e6;}.d{fill:#fafafa;}.e,.o,.t,.w,.x,.y{fill:#fff;}.f{fill:#e0e0e0;}.g{fill:#f0f0f0;}.h{fill:#b97964;}.i,.s,.u,.v,.z{fill:#b24bf3;}.j{opacity:0.2;}.k{fill:#a76755;}.l,.o{opacity:0.7;}.m{fill:#263238;}.n,.t,.z{opacity:0.5;}.p{opacity:0.4;}.q{fill:#a24e3f;}.r,.s,.u,.w{opacity:0.9;}.u,.w{mix-blend-mode:multiply;isolation:isolate;}.v,.x{opacity:0.6;}.y{opacity:0.8;}</style></defs><g transform="translate(0 -55)"><g transform="translate(0 55)"><rect class="a" width="119.656" height="0.06" transform="translate(0 78.351)"/><rect class="a" width="2.508" height="0.06" transform="translate(80.852 81.022)"/><rect class="a" width="9.632" height="0.06" transform="translate(15.539 79.825)"/><rect class="a" width="14.155" height="0.06" transform="translate(29.957 80.002)"/><rect class="a" width="4.075" height="0.06" transform="translate(60.3 80.002)"/><rect class="a" width="13.066" height="0.06" transform="translate(93.676 80.38)"/><rect class="a" width="5.399" height="0.06" transform="translate(49.351 81.366)"/><rect class="a" width="3.425" height="0.06" transform="translate(108.141 80.411)"/><path class="a" d="M85.783,122.678H39.574a1.366,1.366,0,0,1-1.364-1.366V56.355A1.366,1.366,0,0,1,39.574,55H85.783a1.366,1.366,0,0,1,1.366,1.366v64.945A1.366,1.366,0,0,1,85.783,122.678ZM39.574,55.048a1.307,1.307,0,0,0-1.3,1.307v64.957a1.307,1.307,0,0,0,1.3,1.307H85.783a1.309,1.309,0,0,0,1.307-1.307V56.355a1.309,1.309,0,0,0-1.307-1.307Z" transform="translate(-29.066 -55)"/><path class="a" d="M302.078,122.678H255.866a1.369,1.369,0,0,1-1.366-1.366V56.355A1.369,1.369,0,0,1,255.866,55h46.211a1.366,1.366,0,0,1,1.362,1.355v64.957A1.366,1.366,0,0,1,302.078,122.678Zm-46.211-67.63a1.309,1.309,0,0,0-1.307,1.307v64.957a1.309,1.309,0,0,0,1.307,1.307h46.211a1.309,1.309,0,0,0,1.307-1.307V56.355a1.309,1.309,0,0,0-1.307-1.307Z" transform="translate(-193.595 -55)"/><rect class="b" width="32.614" height="38.003" transform="translate(50.04 42.461) rotate(180)"/><rect class="b" width="33.085" height="38.003" transform="translate(49.624 42.461) rotate(180)"/><rect class="c" width="32.614" height="2.13" transform="translate(50.04 44.589) rotate(180)"/><rect class="b" width="31.147" height="2.13" transform="translate(43.631 44.589) rotate(180)"/><rect class="d" width="34.779" height="30.603" transform="translate(48.384 6.069) rotate(90)"/><path class="e" d="M130.281,115.147,123,80.37H113.45l7.282,34.777Z" transform="translate(-86.3 -74.299)"/><path class="e" d="M100.565,115.147,93.282,80.37H88.97l7.285,34.777Z" transform="translate(-67.678 -74.299)"/><rect class="e" width="31.357" height="0.158" transform="translate(17.936 5.854) rotate(90)"/><path class="c" d="M176.423,70.312V83.842h-3.59a20.147,20.147,0,0,1-7.9-12.827,1.436,1.436,0,0,1,1.412-1.675h9.094a.974.974,0,0,1,.981.972Z" transform="translate(-125.45 -65.908)"/><path class="c" d="M186.393,155.1V134.5H182.8s-2.058,4.159-4.111,8.941a8.376,8.376,0,0,0,7.7,11.657Z" transform="translate(-135.42 -115.475)"/><rect class="b" width="4.061" height="1.091" rx="0.546" transform="translate(51.196 19.025) rotate(180)"/><path class="c" d="M64.87,70.312V83.842h3.59a20.147,20.147,0,0,0,7.9-12.827,1.436,1.436,0,0,0-1.412-1.675H65.851a.974.974,0,0,0-.981.972Z" transform="translate(-49.346 -65.908)"/><path class="c" d="M64.87,155.1V134.5h3.59s2.058,4.159,4.111,8.941A8.376,8.376,0,0,1,64.88,155.1Z" transform="translate(-49.346 -115.475)"/><rect class="b" width="4.061" height="1.091" rx="0.546" transform="translate(15.299 17.934)"/><rect class="f" width="14.366" height="25.901" transform="translate(102.758 35.026) rotate(180)"/><rect class="b" width="15.608" height="25.901" transform="translate(102.392 35.026) rotate(180)"/><rect class="e" width="22.682" height="12.389" transform="translate(100.782 10.733) rotate(90)"/><rect class="b" width="3.353" height="3.731" transform="translate(96.453 15.309) rotate(90)"/><rect class="b" width="3.353" height="3.731" transform="translate(96.453 20.397) rotate(90)"/><rect class="b" width="3.353" height="3.731" transform="translate(96.453 25.484) rotate(90)"/><path class="c" d="M303.639,126.042a7.858,7.858,0,1,0,0-15.717h-.479v15.716Z" transform="translate(-230.61 -97.085)"/><circle class="b" cx="7.857" cy="7.857" r="7.857" transform="translate(63.076 15.291) rotate(-13.48)"/><circle class="e" cx="5.925" cy="5.925" r="5.925" transform="matrix(0.987, -0.161, 0.161, 0.987, 65.741, 16.215)"/><path class="c" d="M291.432,131.742l-.462-.663,2.465-1.718-.814-3.958.79-.163.921,4.478Z" transform="translate(-221.337 -108.431)"/><rect class="c" width="10.269" height="27.746" transform="translate(44.61 79.2) rotate(180)"/><path class="g" d="M146.243,371.335H143.5V366.74h5.617Z" transform="translate(-109.159 -292.137)"/><rect class="g" width="10.269" height="27.746" transform="translate(106.173 79.2) rotate(180)"/><rect class="d" width="63.959" height="26.164" transform="translate(98.3 77.619) rotate(180)"/><path class="g" d="M390.157,371.335H392.9V366.74H387.28Z" transform="translate(-294.599 -292.137)"/><rect class="g" width="59.704" height="9.63" transform="translate(96.173 63.334) rotate(180)"/><rect class="g" width="59.704" height="9.63" transform="translate(96.173 75.29) rotate(180)"/><circle class="b" cx="2.144" cy="2.144" r="2.144" transform="translate(78.241 44.455)"/><path class="b" d="M342.22,248.675A1.675,1.675,0,1,0,343.9,247,1.675,1.675,0,0,0,342.22,248.675Z" transform="translate(-260.322 -201.052)"/><circle class="b" cx="2.144" cy="2.144" r="2.144" transform="translate(74.572 45.477)"/><circle class="b" cx="2.144" cy="2.144" r="2.144" transform="translate(71.057 44.847)"/><path class="c" d="M300.286,252.53s-.294,4.181-11.578,4.181-11.578-4.181-11.578-4.181Z" transform="translate(-210.809 -205.259)"/></g><g transform="translate(13.428 138.74)"><ellipse class="b" cx="46.4" cy="2.709" rx="46.4" ry="2.709"/></g><g transform="translate(34.502 67.27)"><path class="h" d="M198.092,160.64c.031.105.086.266.134.4l.153.428c.105.285.22.567.342.847a16.719,16.719,0,0,0,.8,1.62,7.86,7.86,0,0,0,2.154,2.556l.148.1h0s0,.017.036.022a1,1,0,0,0,.462-.127,5.881,5.881,0,0,0,1.34-.974,18.231,18.231,0,0,0,1.314-1.333c.426-.479.845-.974,1.24-1.46l1.142.689a16.992,16.992,0,0,1-2.218,3.513,7.471,7.471,0,0,1-1.7,1.541,3.372,3.372,0,0,1-1.4.51,2.475,2.475,0,0,1-.943-.086,2.359,2.359,0,0,1-.455-.187l-.275-.153a7.929,7.929,0,0,1-1.8-1.484,11.457,11.457,0,0,1-1.331-1.771,15.079,15.079,0,0,1-1-1.915c-.141-.325-.275-.656-.4-.988-.062-.168-.122-.335-.177-.507s-.105-.33-.163-.543Z" transform="translate(-183.224 -147.629)"/><path class="i" d="M198.278,159.759l-3.061,1.694s-.091-.132-.239-.359c-.108-.168-.239-.388-.407-.646-.9-1.462-2.393-4.133-2-5.265.6-1.742,2.793-1.713,3.872.306a31.589,31.589,0,0,1,1.4,3.1c.112.282.206.529.278.718C198.22,159.594,198.278,159.759,198.278,159.759Z" transform="translate(-180.937 -142.52)"/><path class="j" d="M198.278,159.759l-3.061,1.694s-.091-.132-.239-.359c-.108-.168-.239-.388-.407-.646-.9-1.462-2.393-4.133-2-5.265.6-1.742,2.793-1.713,3.872.306a31.589,31.589,0,0,1,1.4,3.1c.112.282.206.529.278.718C198.22,159.594,198.278,159.759,198.278,159.759Z" transform="translate(-180.937 -142.52)"/><path class="j" d="M204.727,174.17l-3.14,1.778c-.108-.168-.239-.388-.407-.646l3.269-1.852C204.552,173.732,204.645,173.979,204.727,174.17Z" transform="translate(-187.537 -157.374)"/><path class="j" d="M192.532,159.665c.684-.33,1.474-.055,2.3,1.256a14.892,14.892,0,0,1,1.627,4.128l-1.223.675S192.281,161.41,192.532,159.665Z" transform="translate(-180.947 -146.79)"/><path class="i" d="M170.81,168.115h-9.489c-.067-.847.129-3.6-.017-7.115a45.079,45.079,0,0,0-.943-7.739c-.043-.191-.086-.38-.132-.572,0,0,.479-.1,1.17-.2.572-.084,1.29-.17,1.993-.2a35.394,35.394,0,0,1,4.032,0c.62.057,1.225.16,1.709.254.617.124,1.039.239,1.039.239S172.454,158.139,170.81,168.115Z" transform="translate(-156.387 -141.232)"/><path class="j" d="M170.81,168.115h-9.489c-.067-.847.129-3.6-.017-7.115a45.079,45.079,0,0,0-.943-7.739c-.043-.191-.086-.38-.132-.572,0,0,.479-.1,1.17-.2.572-.084,1.29-.17,1.993-.2a35.394,35.394,0,0,1,4.032,0c.62.057,1.225.16,1.709.254.617.124,1.039.239,1.039.239S172.454,158.139,170.81,168.115Z" transform="translate(-156.387 -141.232)"/><path class="h" d="M150.37,387l1.407,1.259,2.676-2.788-1.4-1.259Z" transform="translate(-148.886 -317.696)"/><path class="h" d="M170.5,393.749h1.773l.232-4.109H170.73Z" transform="translate(-164.199 -321.827)"/><path class="k" d="M158.568,385.471l-1.381,1.436-1.407-1.259,1.381-1.438Z" transform="translate(-153.002 -317.696)"/><path class="k" d="M171.08,389.65h1.776l-.12,2.118H170.96Z" transform="translate(-164.549 -321.834)"/><path class="i" d="M167.311,218.207s1.869,12.937,2.508,19.98c.512,5.648-11.7,22.5-11.7,22.5l-2.364-2.223s8.924-15.1,8.237-21.392c-.665-6.093-2.92-18.867-2.92-18.867Z" transform="translate(-152.979 -191.414)"/><path class="l" d="M167.311,218.207s1.869,12.937,2.508,19.98c.512,5.648-11.7,22.5-11.7,22.5l-2.364-2.223s8.924-15.1,8.237-21.392c-.665-6.093-2.92-18.867-2.92-18.867Z" transform="translate(-152.979 -191.414)"/><path class="m" d="M171.264,406h-1.986a.127.127,0,0,0-.132.122l-.1,1.577a.316.316,0,0,0,.311.316c.694-.012,1.024-.055,1.914-.055.538,0,2.831.057,3.575.057s.718-.737.409-.8a13.818,13.818,0,0,1-3.671-1.1A.5.5,0,0,0,171.264,406Z" transform="translate(-163.096 -334.271)"/><path class="m" d="M147.449,395.236l-1.711-1.151a.158.158,0,0,0-.194,0l-1.307,1.319a.263.263,0,0,0,.062.4,17.875,17.875,0,0,1,2.5,2.171c.718.818,1.108.933,2.783.933.775,0,1.213-.653.9-.754-2.793-.883-2.046-1.268-2.723-2.563A.991.991,0,0,0,147.449,395.236Z" transform="translate(-144.17 -325.182)"/><path class="h" d="M239.38,164.393l.61-1.953,1.584,1.161s-.866,1.74-1.453,1.582Z" transform="translate(-216.595 -148.998)"/><path class="h" d="M243.6,159.32l.893,1.094-.976.814-1.584-1.161Z" transform="translate(-218.535 -146.625)"/><path class="j" d="M161.723,164.233a45.079,45.079,0,0,0-.943-7.739c.634-.055,1.718,0,1.9,1.031A17.925,17.925,0,0,1,161.723,164.233Z" transform="translate(-156.805 -144.464)"/><path class="n" d="M170.339,252.187c-.342-3.137-1.108-8.053-1.766-12.078.345-.675,1.309-2.039,1.309-2.039.866,2.994,2.75,14.277.065,29.519-2.8,4.513-5.48,8.213-5.48,8.213l-.366-5.82C166.687,265.115,170.815,256.54,170.339,252.187Z" transform="translate(-159.331 -206.529)"/><path class="h" d="M150.547,160.333l-.419.718q-.215.373-.416.754-.409.761-.787,1.532c-.239.515-.479,1.031-.692,1.548a16.252,16.252,0,0,0-.538,1.558l-.029.1-.014.05h0a.105.105,0,0,0-.014.043,1.129,1.129,0,0,0,0,.223,3.4,3.4,0,0,0,.141.665,11.57,11.57,0,0,0,.605,1.517c.479,1.029,1.06,2.075,1.642,3.085l-1.051.821a20.258,20.258,0,0,1-2.357-2.886,11.291,11.291,0,0,1-.957-1.725,5.7,5.7,0,0,1-.349-1.067,3.328,3.328,0,0,1-.072-.672,2.448,2.448,0,0,1,.029-.407l.017-.1v-.062l.026-.122a17.425,17.425,0,0,1,1.185-3.671c.251-.579.526-1.144.821-1.7.148-.278.3-.55.457-.823s.313-.531.5-.821Z" transform="translate(-144.983 -146.298)"/><path class="i" d="M151.821,157.249a33.381,33.381,0,0,1-1.539,3.59c-.127.263-.239.5-.34.687-.167.333-.273.534-.273.534l-3.59-1.991s.045-.151.127-.4c.062-.191.144-.443.239-.732.6-1.706,1.821-4.75,3.02-4.925C151.259,153.757,152.549,155.1,151.821,157.249Z" transform="translate(-145.623 -142.56)"/><path class="j" d="M150.67,176.637c-.127.263-.239.5-.34.687l-3.74-1.862c.062-.191.144-.443.239-.732Z" transform="translate(-146.011 -158.347)"/><path class="i" d="M179.3,405.814a2.271,2.271,0,0,1-.479-.062.048.048,0,0,1-.034-.034.043.043,0,0,1,.019-.041c.055-.041.56-.383.775-.3a.156.156,0,0,1,.1.117.239.239,0,0,1-.053.225.479.479,0,0,1-.325.093Zm-.359-.122c.318.062.55.053.634-.029a.153.153,0,0,0,.029-.148.072.072,0,0,0-.045-.057C179.442,405.412,179.148,405.56,178.942,405.692Z" transform="translate(-170.504 -333.788)"/><path class="i" d="M178.858,404.467a.031.031,0,0,1-.019,0,.043.043,0,0,1-.022-.034c0-.022-.041-.531.139-.7a.2.2,0,0,1,.175-.057.163.163,0,0,1,.151.124c.041.194-.225.565-.4.67Zm.239-.718a.12.12,0,0,0-.089.036.914.914,0,0,0-.117.562c.153-.129.33-.412.3-.538,0-.024-.019-.053-.079-.06Z" transform="translate(-170.523 -332.499)"/><path class="i" d="M159.792,401.638a2.209,2.209,0,0,1-.885-.342.041.041,0,0,1-.019-.043.043.043,0,0,1,.036-.033c.1,0,.936-.062,1.1.129a.134.134,0,0,1,.024.12.206.206,0,0,1-.124.148A.365.365,0,0,1,159.792,401.638Zm-.718-.345c.383.211.684.3.818.239a.132.132,0,0,0,.079-.093.045.045,0,0,0,0-.045,2.066,2.066,0,0,0-.9-.093Z" transform="translate(-155.365 -330.627)"/><path class="i" d="M158.931,399.8a.043.043,0,0,1-.036-.019.048.048,0,0,1,0-.041c.014-.029.335-.68.744-.479.112.055.124.122.115.168-.043.191-.577.369-.821.376Zm.553-.5c-.218,0-.4.278-.479.407.256-.033.644-.191.668-.3,0-.026-.019-.05-.069-.077A.269.269,0,0,0,159.484,399.3Z" transform="translate(-155.368 -329.113)"/><path class="h" d="M161.082,211.636l1.766-.306-.907,2.044s-1.613,0-1.539-.84Z" transform="translate(-156.516 -186.188)"/><path class="h" d="M169.063,212.357l-.828,1.651-1.4-.634.907-2.044Z" transform="translate(-161.415 -186.188)"/><path class="i" d="M155.15,382.125l2.652,2.494.852-.917-3.03-2.762Z" transform="translate(-152.522 -315.209)"/><path class="o" d="M155.15,382.125l2.652,2.494.852-.917-3.03-2.762Z" transform="translate(-152.522 -315.209)"/><path class="i" d="M170.526,218.222s.17,13.559-.117,18.638c-.316,5.564-1.893,23.991-1.893,23.991h-3.255s.1-17.98-.1-23.486c-.213-5.983-.763-19.145-.763-19.145Z" transform="translate(-159.559 -191.429)"/><path class="l" d="M170.526,218.222s.17,13.559-.117,18.638c-.316,5.564-1.893,23.991-1.893,23.991h-3.255s.1-17.98-.1-23.486c-.213-5.983-.763-19.145-.763-19.145Z" transform="translate(-159.559 -191.429)"/><path class="i" d="M166.89,392.442H170.4l.2-1.232-3.877.191Z" transform="translate(-161.324 -323.021)"/><path class="o" d="M166.89,392.442H170.4l.2-1.232-3.877.191Z" transform="translate(-161.324 -323.021)"/><path class="j" d="M151.821,157.249a33.381,33.381,0,0,1-1.539,3.59c-.127.263-.239.5-.34.687-.167.333-.273.534-.273.534l-3.59-1.991s.045-.151.127-.4c.062-.191.144-.443.239-.732.6-1.706,1.821-4.75,3.02-4.925C151.259,153.757,152.549,155.1,151.821,157.249Z" transform="translate(-145.623 -142.56)"/><path class="i" d="M172.242,153.668a2.91,2.91,0,0,1-2.19,1.915l-.383.115-.39-.069a6.138,6.138,0,0,1-4.308-2.467l-.4-.67c.572-.084,1.29-.17,1.993-.2a35.394,35.394,0,0,1,4.032,0c.62.057,1.225.16,1.709.254A2.465,2.465,0,0,1,172.242,153.668Z" transform="translate(-159.688 -141.232)"/><path class="p" d="M172.242,153.668a2.91,2.91,0,0,1-2.19,1.915l-.383.115-.39-.069a6.138,6.138,0,0,1-4.308-2.467l-.4-.67c.572-.084,1.29-.17,1.993-.2a35.394,35.394,0,0,1,4.032,0c.62.057,1.225.16,1.709.254A2.465,2.465,0,0,1,172.242,153.668Z" transform="translate(-159.688 -141.232)"/><path class="h" d="M175.951,139.808a4.587,4.587,0,0,1-3.161-1.675c.878-.866.541-3.233.239-4.533l1.079.9,1.469,1.22a4.763,4.763,0,0,0-.093.593,1.484,1.484,0,0,0,1.3,1.8C176.789,138.1,177.761,139.269,175.951,139.808Z" transform="translate(-165.941 -127.06)"/><path class="k" d="M179.766,138.53a4.769,4.769,0,0,0-.093.594,1.871,1.871,0,0,1-1.357-1.254,2.551,2.551,0,0,1-.019-.56Z" transform="translate(-170.124 -129.882)"/><path class="m" d="M185.593,114.371c.876.395,1.362,2.857.239,3.389S183.937,113.622,185.593,114.371Z" transform="translate(-174.953 -112.371)"/><path class="h" d="M171.8,116.682c.376,1.725.507,2.752,1.527,3.539a2.3,2.3,0,0,0,3.714-1.654c.134-1.606-.5-4.157-2.319-4.645a2.321,2.321,0,0,0-2.922,2.759Z" transform="translate(-165.141 -112.018)"/><path class="m" d="M162.145,109.225c-.84.371-.364,1.52.208,2.25.792,1.015,1.63,1.489,2.2,1.022.512-.256.85-1.766.4-2.7.787-.519,2.422.122,2.932-.718s.873-.771,1.771-.215,1.615-1.639-.718-2.049c1.292.582,1,1.713.05.553-.668-.818-2.269-1.723-3.381-.5C164.789,107.758,161.906,106.382,162.145,109.225Z" transform="translate(-157.498 -106.272)"/><path class="h" d="M169.543,129.623a1.915,1.915,0,0,0,1.1.653c.543.091.665-.412.39-.9-.239-.438-.833-1.015-1.319-.885S169.192,129.2,169.543,129.623Z" transform="translate(-163.293 -123.16)"/><path class="m" d="M183.316,125.605c.022.141.115.239.208.239s.151-.134.127-.275-.112-.239-.206-.239S183.294,125.462,183.316,125.605Z" transform="translate(-173.944 -120.769)"/><path class="m" d="M190,124.8c.022.141.115.239.208.239s.151-.136.129-.278-.115-.239-.208-.239S190,124.656,190,124.8Z" transform="translate(-179.032 -120.153)"/><path class="q" d="M188,126.23a5.374,5.374,0,0,0,.866,1.13.814.814,0,0,1-.661.206Z" transform="translate(-177.511 -121.454)"/><path class="m" d="M183.754,132.3a1.235,1.235,0,0,1-.893-.366.042.042,0,0,1,.06-.06,1.2,1.2,0,0,0,.986.328.041.041,0,0,1,.045.038.038.038,0,0,1-.036.045A1.333,1.333,0,0,1,183.754,132.3Z" transform="translate(-173.593 -125.736)"/><path class="m" d="M180.653,122.841a.079.079,0,0,1-.041,0,.086.086,0,0,1-.034-.115.823.823,0,0,1,.629-.426.086.086,0,0,1,0,.17h0a.634.634,0,0,0-.491.337A.086.086,0,0,1,180.653,122.841Z" transform="translate(-171.858 -118.464)"/><path class="m" d="M190.394,121.326a.086.086,0,0,1-.069-.038.7.7,0,0,0-.531-.321.084.084,0,1,1,0-.168.85.85,0,0,1,.67.395.084.084,0,0,1-.022.117A.086.086,0,0,1,190.394,121.326Z" transform="translate(-178.812 -117.323)"/></g><g transform="translate(26.283 63.589)"><g class="r" transform="translate(6.111 33.604)"><path class="s" d="M174.032,233.086h0a2.824,2.824,0,0,1,2.53-1.776h21.1a1.9,1.9,0,0,1,1.915,2.29L192.9,273.448a2.819,2.819,0,0,1-2.673,2.3h-52.9a1.886,1.886,0,0,1-1.915-2.29l5.674-33.923a2.822,2.822,0,0,1,2.673-2.29h24.367A6.626,6.626,0,0,0,174.032,233.086Z" transform="translate(-135.365 -231.31)"/></g><path class="t" d="M174.032,233.086h0a2.824,2.824,0,0,1,2.53-1.776h21.1a1.9,1.9,0,0,1,1.915,2.29L192.9,273.448a2.819,2.819,0,0,1-2.673,2.3h-52.9a1.886,1.886,0,0,1-1.915-2.29l5.674-33.923a2.822,2.822,0,0,1,2.673-2.29h24.367A6.626,6.626,0,0,0,174.032,233.086Z" transform="translate(-129.254 -197.706)"/><path class="s" d="M211.1,90.89,195.14,146.363l36.519,10.508L247.621,101.4Z" transform="translate(-174.724 -90.89)"/><path class="o" d="M211.1,90.89,195.14,146.363l36.519,10.508L247.621,101.4Z" transform="translate(-174.724 -90.89)"/><path class="u" d="M210.4,101.16,195.14,154.175l35.277,10.152,14.3-54.87Z" transform="translate(-174.724 -98.702)"/><path class="v" d="M210.4,101.16,195.14,154.175l35.277,10.152,14.3-54.87Z" transform="translate(-174.724 -98.702)"/><g class="r" transform="translate(20.416 2.458)"><path class="w" d="M210.4,101.16,195.14,154.175l35.277,10.152,14.3-54.87Z" transform="translate(-195.14 -101.16)"/><path class="x" d="M210.4,101.16,195.14,154.175l35.277,10.152,14.3-54.87Z" transform="translate(-195.14 -101.16)"/></g><circle class="i" cx="6.583" cy="6.583" r="6.583" transform="matrix(0.658, -0.753, 0.753, 0.658, 34.358, 13.765)"/><path class="e" d="M274.2,134.211a5.215,5.215,0,1,1,3.971-.444A5.217,5.217,0,0,1,274.2,134.211Z" transform="translate(-231.993 -116.062)"/><rect class="i" width="12.095" height="2.719" transform="matrix(0.961, 0.276, -0.276, 0.961, 34.563, 20.299)"/><rect class="i" width="6.667" height="10.568" transform="matrix(0.961, 0.276, -0.276, 0.961, 28.239, 42.284)"/><rect class="i" width="6.667" height="10.568" transform="matrix(0.961, 0.276, -0.276, 0.961, 50.912, 48.808)"/><rect class="i" width="6.667" height="10.568" transform="matrix(0.961, 0.276, -0.276, 0.961, 39.574, 45.547)"/><rect class="i" width="8.182" height="2.719" transform="matrix(0.961, 0.276, -0.276, 0.961, 47.715, 24.081)"/><rect class="e" width="29.94" height="1.12" transform="matrix(0.961, 0.276, -0.276, 0.961, 32.93, 25.974)"/><rect class="e" width="14.888" height="1.12" transform="matrix(0.961, 0.276, -0.276, 0.961, 32.272, 28.261)"/><rect class="e" width="9.958" height="1.12" transform="matrix(0.961, 0.276, -0.276, 0.961, 49.027, 33.082)"/><rect class="e" width="23.934" height="1.12" transform="matrix(0.961, 0.276, -0.276, 0.961, 31.614, 30.547)"/><rect class="e" width="27.511" height="1.12" transform="translate(30.693 32.975) rotate(16.26)"/><rect class="e" width="3.178" height="1.12" transform="matrix(0.961, 0.276, -0.276, 0.961, 30.297, 35.122)"/><rect class="e" width="14.043" height="1.12" transform="matrix(0.961, 0.276, -0.276, 0.961, 35.802, 36.706)"/><rect class="e" width="29.94" height="1.12" transform="matrix(0.961, 0.276, -0.276, 0.961, 29.64, 37.41)"/><path class="i" d="M199.476,99,185.44,155l36.854,9.24,14.033-56Z" transform="translate(-167.345 -97.059)"/><path class="y" d="M199.476,99,185.44,155l36.854,9.24,14.033-56Z" transform="translate(-167.345 -97.059)"/><circle class="i" cx="6.583" cy="6.583" r="6.583" transform="translate(31.055 11.739) rotate(-25.78)"/><circle class="e" cx="5.217" cy="5.217" r="5.217" transform="matrix(0.18, -0.984, 0.984, 0.18, 33.771, 19.002)"/><rect class="i" width="12.095" height="2.719" transform="translate(31.016 22.284) rotate(14.07)"/><rect class="i" width="6.667" height="10.568" transform="translate(25.456 44.475) rotate(14.07)"/><rect class="i" width="6.667" height="10.568" transform="translate(48.337 50.211) rotate(14.07)"/><rect class="i" width="6.667" height="10.568" transform="translate(36.897 47.343) rotate(14.07)"/><rect class="i" width="8.182" height="2.719" transform="translate(44.289 25.61) rotate(14.07)"/><rect class="e" width="29.94" height="1.12" transform="translate(29.579 28.012) rotate(14.07)"/><rect class="e" width="14.888" height="1.12" transform="translate(29.002 30.319) rotate(14.07)"/><rect class="e" width="9.958" height="1.12" transform="translate(45.912 34.557) rotate(14.07)"/><rect class="e" width="23.934" height="1.12" transform="translate(28.422 32.628) rotate(14.07)"/><rect class="e" width="27.511" height="1.12" transform="translate(27.845 34.938) rotate(14.07)"/><rect class="e" width="3.178" height="1.12" transform="translate(27.265 37.249) rotate(14.07)"/><rect class="e" width="14.043" height="1.12" transform="translate(32.822 38.638) rotate(14.07)"/><rect class="e" width="29.94" height="1.12" transform="translate(26.687 39.555) rotate(14.07)"/><path class="z" d="M140.516,268.622h0a1.725,1.725,0,0,1,1.9-1.532h21.1a2.812,2.812,0,0,1,2.721,1.974l6.335,31.915c.239,1.091-.593,1.977-1.857,1.977H117.8a2.815,2.815,0,0,1-2.723-1.977l-5.21-26.8c-.239-1.091.593-1.977,1.859-1.977h24.357C138.587,272.2,140.416,270.718,140.516,268.622Z" transform="translate(-109.829 -224.923)"/></g></g></svg>