<svg xmlns="http://www.w3.org/2000/svg" width="13.014" height="13.013" viewBox="0 0 13.014 13.013"><defs><style>.a{fill:none;}.b{fill:#9b9b9b;}</style></defs><g transform="translate(0)"><path class="a" d="M0,0H13.014V13.013H0Z" transform="translate(0)"/><path class="b" d="M3.669,8.648v1.524a1.091,1.091,0,0,0,.564.954l2.711,1.48a1.077,1.077,0,0,0,1.041,0l2.711-1.48a1.091,1.091,0,0,0,.564-.954V8.648L7.985,10.437a1.077,1.077,0,0,1-1.041,0ZM6.944,3.41,2.373,5.9a.546.546,0,0,0,0,.954L6.944,9.353a1.077,1.077,0,0,0,1.041,0l4.36-2.38v3.2a.542.542,0,0,0,1.084,0V6.7a.545.545,0,0,0-.282-.477L7.985,3.41A1.106,1.106,0,0,0,6.944,3.41Z" transform="translate(-0.958 -1.501)"/></g></svg>