<svg xmlns="http://www.w3.org/2000/svg" width="101.979" height="75.987" viewBox="0 0 101.979 75.987"><defs><style>.a,.d{fill:#e0e0e0;}.b{fill:#f0f0f0;}.c,.j,.n,.o,.r{fill:#fafafa;}.d,.l{opacity:0.4;}.e{fill:#e6e6e6;}.f{fill:#f5f5f5;}.g{fill:#b24bf3;}.h,.k,.o{opacity:0.3;}.i,.j{opacity:0.1;}.m{fill:#b55b52;}.n{opacity:0.5;}.p{fill:#263238;}.q{fill:#9e4541;}.r{opacity:0.6;}.s{fill:#a02724;}</style></defs><g transform="translate(0 0)"><rect class="a" width="101.979" height="0.051" transform="translate(0 66.776)"/><rect class="a" width="2.137" height="0.051" transform="translate(17.602 68.008)"/><rect class="a" width="8.142" height="0.051" transform="translate(84.031 69.346)"/><rect class="a" width="6.253" height="0.051" transform="translate(79.849 68.032)"/><rect class="a" width="10.161" height="0.051" transform="translate(57.689 69.195)"/><rect class="a" width="10.696" height="0.051" transform="translate(29.166 68.873)"/><rect class="a" width="2.709" height="0.051" transform="translate(77.63 69.346)"/><rect class="a" width="3.359" height="0.051" transform="translate(13.243 68.848)"/><path class="a" d="M78.755,112.679H39.373a1.165,1.165,0,0,1-1.163-1.165V56.154A1.165,1.165,0,0,1,39.373,55H78.755a1.165,1.165,0,0,1,1.165,1.165v55.35A1.165,1.165,0,0,1,78.755,112.679ZM39.373,55.041a1.114,1.114,0,0,0-1.112,1.114v55.36a1.114,1.114,0,0,0,1.112,1.114H78.755a1.116,1.116,0,0,0,1.114-1.114V56.154a1.116,1.116,0,0,0-1.114-1.114Z" transform="translate(-30.417 -55)"/><path class="a" d="M295.049,112.679H255.665a1.167,1.167,0,0,1-1.165-1.165V56.154A1.167,1.167,0,0,1,255.665,55h39.384a1.165,1.165,0,0,1,1.161,1.154v55.36A1.165,1.165,0,0,1,295.049,112.679ZM255.665,55.041a1.116,1.116,0,0,0-1.114,1.114v55.36a1.116,1.116,0,0,0,1.114,1.114h39.384a1.116,1.116,0,0,0,1.114-1.114V56.154a1.116,1.116,0,0,0-1.114-1.114Z" transform="translate(-202.593 -55)"/><rect class="a" width="30.736" height="42.515" transform="translate(44.826 47.463) rotate(180)"/><rect class="b" width="30.736" height="42.515" transform="translate(44.143 47.463) rotate(180)"/><rect class="c" width="40.035" height="28.285" transform="translate(42.917 6.188) rotate(90)"/><rect class="a" width="40.035" height="1.848" transform="translate(25.521 6.19) rotate(90)"/><rect class="a" width="40.035" height="1.848" transform="translate(35.242 6.19) rotate(90)"/><rect class="b" width="41.744" height="1.848" transform="translate(24.871 5.266) rotate(90)"/><rect class="b" width="41.744" height="1.848" transform="translate(34.593 5.268) rotate(90)"/><rect class="a" width="40.035" height="0.516" transform="translate(15.148 6.188) rotate(90)"/><path class="a" d="M62.589,71.45h32.88a.159.159,0,0,1,.159.157h0a.159.159,0,0,1-.159.159H62.589a.159.159,0,0,1-.159-.159h0A.159.159,0,0,1,62.589,71.45Z" transform="translate(-49.697 -68.095)"/><path class="a" d="M58.56,69.139a.791.791,0,1,0,.789-.789A.791.791,0,0,0,58.56,69.139Z" transform="translate(-46.616 -65.627)"/><path class="a" d="M217.083,73.144h0a.2.2,0,0,0,.214-.2v-.467a.2.2,0,0,0-.214-.2h0a.2.2,0,0,0-.2.2v.459a.2.2,0,0,0,.2.212Z" transform="translate(-172.645 -68.747)"/><path class="a" d="M74.063,73.144h0a.2.2,0,0,0,.2-.2v-.467a.2.2,0,0,0-.2-.2h0a.2.2,0,0,0-.214.2v.459a.2.2,0,0,0,.214.212Z" transform="translate(-58.787 -68.747)"/><rect class="d" width="30.714" height="20.6" transform="translate(43.657 24.112) rotate(180)"/><path class="a" d="M201.54,69.139a.791.791,0,1,0,.791-.789A.791.791,0,0,0,201.54,69.139Z" transform="translate(-160.434 -65.627)"/><path class="a" d="M307.932,176.936s2.668-4.6-1.032-8.256c0,0-.965.63-.95,1.477s1.034,1.059.816,1.766-1.181,1.4-.549,1.982-.1,1.1-.059,1.817S307.932,176.936,307.932,176.936Z" transform="translate(-243.549 -145.494)"/><path class="e" d="M313.2,183.54s-1.081-5.205,3.584-7.51a2.092,2.092,0,0,1,.438,1.7c-.279.8-1.315.681-1.332,1.428s.681,1.7-.1,2.056-.253,1.079-.518,1.744S313.2,183.54,313.2,183.54Z" transform="translate(-249.232 -151.345)"/><path class="b" d="M310.158,198.93s-.065,6.3-2.582,6.3-2.576-6.3-2.576-6.3Z" transform="translate(-242.793 -169.574)"/><path class="e" d="M361.408,218.2s-.141,2.37-5.519,2.37-5.519-2.37-5.519-2.37Z" transform="translate(-278.909 -184.914)"/><rect class="b" width="4.12" height="5.976" rx="2.06" transform="translate(31.097 59.646) rotate(180)"/><rect class="e" width="2.772" height="4.022" rx="1.386" transform="translate(22.431 59.644) rotate(180)"/><rect class="b" width="2.772" height="0.453" rx="0.226" transform="translate(22.431 55.685) rotate(180)"/><path class="e" d="M153.5,331.13s-.1,3.325-4,3.325-4-3.325-4-3.325Z" transform="translate(-115.832 -274.811)"/><rect class="a" width="5.892" height="1.163" transform="translate(41.461 59.644)"/><rect class="b" width="29.294" height="1.163" transform="translate(41.461 60.808) rotate(180)"/><rect class="a" width="5.892" height="1.163" transform="translate(41.461 62.746)"/><rect class="b" width="29.294" height="1.163" transform="translate(41.461 63.908) rotate(180)"/><rect class="a" width="1.087" height="5.97" transform="translate(46.317 66.776) rotate(180)"/><rect class="b" width="1.087" height="5.97" transform="translate(41.461 66.776) rotate(180)"/><rect class="a" width="1.087" height="5.97" transform="translate(17.022 66.776) rotate(180)"/><rect class="b" width="1.087" height="5.97" transform="translate(13.255 66.776) rotate(180)"/><rect class="e" width="5.572" height="28.112" transform="translate(88.071 65.244) rotate(180)"/><rect class="e" width="27.477" height="1.532" transform="translate(87 66.776) rotate(180)"/><rect class="b" width="24.045" height="28.112" transform="translate(58.454 37.135)"/><rect class="e" width="19.664" height="6.48" transform="translate(60.645 47.949)"/><rect class="e" width="19.664" height="6.48" transform="translate(60.645 55.874)"/><path class="b" d="M332.6,290.107h4.416a.545.545,0,0,0,.543-.543h0a.545.545,0,0,0-.543-.545H332.6a.545.545,0,0,0-.543.545h0A.545.545,0,0,0,332.6,290.107Z" transform="translate(-264.334 -241.29)"/><rect class="e" width="19.664" height="6.48" transform="translate(60.645 40.025)"/><path class="b" d="M332.6,251.257h4.416a.545.545,0,0,0,.543-.545h0a.545.545,0,0,0-.543-.543H332.6a.545.545,0,0,0-.543.543h0a.545.545,0,0,0,.543.545Z" transform="translate(-264.334 -210.363)"/><path class="b" d="M332.6,328.967h4.416a.545.545,0,0,0,.543-.545h0a.545.545,0,0,0-.543-.542H332.6a.545.545,0,0,0-.543.543h0A.545.545,0,0,0,332.6,328.967Z" transform="translate(-264.334 -272.224)"/><rect class="e" width="24.787" height="1.479" transform="translate(82.499 37.133) rotate(180)"/><rect class="a" width="6.351" height="1.479" transform="translate(82.499 35.656)"/><rect class="e" width="11.358" height="12.886" transform="translate(85.016 22.081) rotate(180)"/><rect class="b" width="12.121" height="12.886" transform="translate(84.506 22.081) rotate(180)"/><rect class="c" width="10.855" height="10.09" transform="translate(83.492 10.21) rotate(90)"/><rect class="b" width="5.593" height="5.199" transform="translate(81.047 12.841) rotate(90)"/><rect class="e" width="8.523" height="9.56" transform="translate(69.809 14.95) rotate(180)"/><rect class="b" width="8.992" height="9.56" transform="translate(69.333 14.95) rotate(180)"/><rect class="c" width="8.052" height="7.485" transform="translate(68.579 6.143) rotate(90)"/><path class="b" d="M309.906,94.89l2.048,3.545H307.86Z" transform="translate(-245.07 -86.754)"/></g><g transform="translate(11.444 71.369)"><ellipse class="f" cx="39.545" cy="2.309" rx="39.545" ry="2.309"/></g><g transform="translate(35.721 9.095)"><path class="g" d="M315.476,164.29H298.494A2.494,2.494,0,0,0,296,166.776v9.19a2.494,2.494,0,0,0,2.488,2.486h1.719l-.663,2.707a7.181,7.181,0,0,0,4.985-2.7h10.946a2.494,2.494,0,0,0,2.488-2.486v-9.194A2.494,2.494,0,0,0,315.476,164.29Z" transform="translate(-271.35 -151.094)"/><path class="h" d="M315.476,164.29H298.494A2.494,2.494,0,0,0,296,166.776v9.19a2.494,2.494,0,0,0,2.488,2.486h1.719l-.663,2.707a7.181,7.181,0,0,0,4.985-2.7h10.946a2.494,2.494,0,0,0,2.488-2.486v-9.194A2.494,2.494,0,0,0,315.476,164.29Z" transform="translate(-271.35 -151.094)"/><ellipse class="g" cx="2.101" cy="2.101" rx="2.101" ry="2.101" transform="translate(40.025 18.177)"/><ellipse class="g" cx="2.101" cy="2.101" rx="2.101" ry="2.101" transform="translate(33.535 18.177)"/><ellipse class="g" cx="2.101" cy="2.101" rx="2.101" ry="2.101" transform="translate(27.047 18.177)"/><g class="i" transform="translate(27.047 18.177)"><ellipse class="c" cx="2.101" cy="2.101" rx="2.101" ry="2.101" transform="translate(12.978)"/><ellipse class="c" cx="2.101" cy="2.101" rx="2.101" ry="2.101" transform="translate(6.488)"/><ellipse class="c" cx="2.101" cy="2.101" rx="2.101" ry="2.101"/></g><path class="g" d="M177.626,99.59H194.61a2.5,2.5,0,0,1,2.488,2.488v9.188a2.5,2.5,0,0,1-2.488,2.48H192.89l.669,2.7a7.185,7.185,0,0,1-4.987-2.7H177.626a2.494,2.494,0,0,1-2.486-2.488V102.08A2.494,2.494,0,0,1,177.626,99.59Z" transform="translate(-175.14 -99.59)"/><path class="j" d="M177.626,99.59H194.61a2.5,2.5,0,0,1,2.488,2.488v9.188a2.5,2.5,0,0,1-2.488,2.48H192.89l.669,2.7a7.185,7.185,0,0,1-4.987-2.7H177.626a2.494,2.494,0,0,1-2.486-2.488V102.08A2.494,2.494,0,0,1,177.626,99.59Z" transform="translate(-175.14 -99.59)"/><rect class="g" width="15.943" height="1.509" transform="translate(3.006 3.2)"/><rect class="g" width="12.297" height="1.509" transform="translate(3.006 6.327)"/><rect class="g" width="13.902" height="1.509" transform="translate(3.006 9.456)"/><g class="k" transform="translate(3.006 3.2)"><rect width="15.943" height="1.509"/><rect width="12.297" height="1.509" transform="translate(0 3.127)"/><rect width="13.902" height="1.509" transform="translate(0 6.255)"/></g></g><g transform="translate(25.09 30.143)"><path class="g" d="M278.961,311.31h0c-.112,0-.226,0-.343.01a5.018,5.018,0,0,0-4.538,4.75,5.359,5.359,0,0,0,.157,1.658,26.5,26.5,0,0,1,.767,6.639v6.527a.84.84,0,0,0,.816.857H292V311.31Z" transform="translate(-243.261 -289.176)"/><path class="h" d="M278.961,311.31h0c-.112,0-.226,0-.343.01a5.018,5.018,0,0,0-4.538,4.75,5.359,5.359,0,0,0,.157,1.658,26.5,26.5,0,0,1,.767,6.639v6.527a.84.84,0,0,0,.816.857H292V311.31Z" transform="translate(-243.261 -289.176)"/><path class="g" d="M347.822,316.4a4.889,4.889,0,1,0-9.772-.332,5.361,5.361,0,0,0,.157,1.658,26.5,26.5,0,0,1,.767,6.639V330.9a.84.84,0,0,0,.816.857h6.272a.838.838,0,0,0,.816-.857v-6.91a24.158,24.158,0,0,1,.771-6.213A5.341,5.341,0,0,0,347.822,316.4Z" transform="translate(-294.184 -289.176)"/><rect class="g" width="20.632" height="12.405" transform="translate(21.376 30.159)"/><rect class="h" width="20.632" height="12.405" transform="translate(21.376 30.159)"/><path class="g" d="M159.369,277.81h22.782a3.777,3.777,0,0,1,3.777,3.777v13.885H155.59V281.587A3.777,3.777,0,0,1,159.369,277.81Z" transform="translate(-148.946 -262.509)"/><path class="l" d="M159.369,277.81h22.782a3.777,3.777,0,0,1,3.777,3.777v13.885H155.59V281.587A3.777,3.777,0,0,1,159.369,277.81Z" transform="translate(-148.946 -262.509)"/><path class="g" d="M182.046,277.81H201.52a3.6,3.6,0,0,1,3.6,3.6v14.073H178.45V281.406A3.6,3.6,0,0,1,182.046,277.81Z" transform="translate(-167.144 -262.509)"/><path class="g" d="M232.3,344.33h19.186a1.114,1.114,0,0,1,1.114,1.114v2.984a1.114,1.114,0,0,1-1.114,1.114H232.3a.332.332,0,0,1-.332-.332v-4.538a.332.332,0,0,1,.332-.341Z" transform="translate(-209.747 -315.462)"/><path class="l" d="M232.3,344.33h19.186a1.114,1.114,0,0,1,1.114,1.114v2.984a1.114,1.114,0,0,1-1.114,1.114H232.3a.332.332,0,0,1-.332-.332v-4.538a.332.332,0,0,1,.332-.341Z" transform="translate(-209.747 -315.462)"/><path class="g" d="M145.754,411.49h44.355v.012a.612.612,0,0,1-.612.612H146.362a.612.612,0,0,1-.612-.612v-.012Z" transform="translate(-141.113 -368.924)"/><path class="l" d="M145.754,411.49h44.355v.012a.612.612,0,0,1-.612.612H146.362a.612.612,0,0,1-.612-.612v-.012Z" transform="translate(-141.113 -368.924)"/><path class="m" d="M267.744,267.74l.082.332.094.361c.065.241.135.483.2.724.145.485.3.971.465,1.454s.332.969.516,1.448c.092.241.182.481.275.72l.112.288a.555.555,0,0,0,.088.137,2.525,2.525,0,0,0,.969.612,9.419,9.419,0,0,0,1.381.428c.485.112.985.2,1.491.284s1.02.143,1.522.2l.018,1.03a15.8,15.8,0,0,1-3.284-.014,9.411,9.411,0,0,1-1.689-.328,5.577,5.577,0,0,1-.869-.341,3.361,3.361,0,0,1-.873-.612,2.426,2.426,0,0,1-.383-.494c-.029-.047-.053-.1-.08-.149l-.049-.1-.09-.182c-.118-.243-.237-.487-.347-.734-.222-.494-.436-.989-.63-1.5s-.379-1.02-.545-1.544c-.08-.263-.155-.526-.226-.8l-.1-.408c-.033-.143-.059-.265-.092-.436Z" transform="translate(-236.598 -254.493)"/><path class="g" d="M262.694,256.581c.816.2,1.4,3.588,1.4,3.588l-2.262,1.538s-2.17-3.408-1.538-4.31A1.844,1.844,0,0,1,262.694,256.581Z" transform="translate(-232.199 -245.501)"/><path class="n" d="M262.694,256.581c.816.2,1.4,3.588,1.4,3.588l-2.262,1.538s-2.17-3.408-1.538-4.31A1.844,1.844,0,0,1,262.694,256.581Z" transform="translate(-232.199 -245.501)"/><path class="g" d="M265.375,263.13l-1.756.408-.169,1.717a19.869,19.869,0,0,0,.985,1.772l1.371-.932A14.651,14.651,0,0,0,265.375,263.13Z" transform="translate(-234.807 -250.823)"/><path class="o" d="M265.375,263.13l-1.756.408-.169,1.717a19.869,19.869,0,0,0,.985,1.772l1.371-.932A14.651,14.651,0,0,0,265.375,263.13Z" transform="translate(-234.807 -250.823)"/><path class="m" d="M308.834,296.358l1.413-1.428.186,2.017s-1.061.716-1.793.33Z" transform="translate(-270.78 -276.137)"/><path class="m" d="M318.18,293.86l.063,1.7-1.538.534-.186-2.017Z" transform="translate(-277.053 -275.285)"/><path class="g" d="M231.669,254.863s.948.334-.952,12.021h-8.089c.137-3.292.141-5.323-1.428-12.078a23.819,23.819,0,0,1,3.426-.453,25.649,25.649,0,0,1,3.671,0C229.88,254.5,231.669,254.863,231.669,254.863Z" transform="translate(-201.175 -243.784)"/><path class="n" d="M231.669,254.863s.948.334-.952,12.021h-8.089c.137-3.292.141-5.323-1.428-12.078a23.819,23.819,0,0,1,3.426-.453,25.649,25.649,0,0,1,3.671,0C229.88,254.5,231.669,254.863,231.669,254.863Z" transform="translate(-201.175 -243.784)"/><path class="g" d="M239.366,254.459c-.31-.041-.628-.078-.938-.106a25.649,25.649,0,0,0-3.671,0c-.284.014-.565.035-.836.061l.059.186a6.944,6.944,0,0,0,3.761,3.875l.559.251.4-.469A3.7,3.7,0,0,0,239.366,254.459Z" transform="translate(-211.3 -243.784)"/><path class="h" d="M239.366,254.459c-.31-.041-.628-.078-.938-.106a25.649,25.649,0,0,0-3.671,0c-.284.014-.565.035-.836.061l.059.186a6.944,6.944,0,0,0,3.761,3.875l.559.251.4-.469A3.7,3.7,0,0,0,239.366,254.459Z" transform="translate(-211.3 -243.784)"/><path class="g" d="M226.424,272.21l-1.044.887c.224,1.183.373,2.168.469,3.043A18.884,18.884,0,0,0,226.424,272.21Z" transform="translate(-204.502 -258.051)"/><path class="o" d="M226.424,272.21l-1.044.887c.224,1.183.373,2.168.469,3.043A18.884,18.884,0,0,0,226.424,272.21Z" transform="translate(-204.502 -258.051)"/><path class="p" d="M227.13,203.241c-2.142-.671-3.335,1.632-3.129,4.512.149,2.064-.267,2.964-1.5,2.9.577,1.356,7.852,3.4,9.957.971-.591-.32-.887-1.746-.455-3.023C232.981,205.723,232.074,201.374,227.13,203.241Z" transform="translate(-202.209 -202.79)"/><path class="m" d="M238.375,234.33c.23,1.183.463,3.347-.365,4.136a6.143,6.143,0,0,0,3.316,3.378,2.988,2.988,0,0,0,.353-3.378c-1.318-.314-1.283-1.293-1.054-2.211Z" transform="translate(-214.556 -227.897)"/><path class="q" d="M244.129,238.18l1.336,1.14a3.851,3.851,0,0,0-.114.651,1.62,1.62,0,0,1-1.248-1.152A1.779,1.779,0,0,1,244.129,238.18Z" transform="translate(-219.393 -230.962)"/><path class="m" d="M238.591,209.941c-.463,1.921-.7,2.725-.045,3.985a2.527,2.527,0,0,0,4.475.3c.926-1.57,1.528-4.448-.088-5.766a2.7,2.7,0,0,0-4.342,1.481Z" transform="translate(-214.662 -206.815)"/><path class="p" d="M238.67,210.659s3.977-1.238,2.158-3.329c-2.142.528-2.158,1.156-2.158,1.156Z" transform="translate(-215.081 -206.404)"/><path class="p" d="M247.712,207.214a5.047,5.047,0,0,1,3.467,1.836,3.02,3.02,0,0,0-1.783-3.3,4.9,4.9,0,0,0-2.4.271Z" transform="translate(-221.712 -205.097)"/><path class="m" d="M235.489,221.778a1.5,1.5,0,0,0,.388,1.032c.343.371.759.128.869-.33.1-.408.039-1.107-.408-1.307A.605.605,0,0,0,235.489,221.778Z" transform="translate(-212.549 -217.376)"/><path class="p" d="M253.711,315.815a10.938,10.938,0,0,0-7.475,3.037c.432,1.254.706,2.2.706,2.2,2.474-.438,5.285-.632,7.6-1.189,2.093-.5,2.333-3.029,2.119-4.079s-1.4-1.293-2.564-1.632a25.382,25.382,0,0,0-5.68-.379,35.088,35.088,0,0,0-5.741.467s-2.772-.088-4.824-.037c-1.2-.171-.494,1.57,1.4,3.045A9.109,9.109,0,0,0,246.214,319h.014" transform="translate(-213.961 -291.131)"/><path class="p" d="M272.42,339.088l-.575-2.162a.157.157,0,0,0-.171-.12l-1.776.2a.318.318,0,0,0-.261.408c.214.751.355,1.1.612,2.052.155.585.408,1.811.63,2.619s1.02.638,1.01.283a5.316,5.316,0,0,1,.5-2.929A.518.518,0,0,0,272.42,339.088Z" transform="translate(-239.721 -309.471)"/><path class="g" d="M282.71,349.86a.241.241,0,0,1-.133-.041c-.239-.155-.308-.724-.328-1.048a.033.033,0,0,1,.057-.025c.067.073.659.73.6,1a.137.137,0,0,1-.094.1A.241.241,0,0,1,282.71,349.86Zm-.388-1c.041.471.147.8.292.9a.181.181,0,0,0,.171.016.073.073,0,0,0,.051-.053C282.88,349.552,282.525,349.1,282.323,348.864Z" transform="translate(-249.772 -318.968)"/><path class="g" d="M280.456,337.366l-.746-2.8.983-.406,1.385,3.006Z" transform="translate(-247.751 -307.366)"/><path class="r" d="M280.456,337.366l-.746-2.8.983-.406,1.385,3.006Z" transform="translate(-247.751 -307.366)"/><path class="g" d="M283.061,349.151a1.527,1.527,0,0,1-.816-.463.037.037,0,0,1,0-.033.039.039,0,0,1,.025-.022,1.375,1.375,0,0,1,.816.09.322.322,0,0,1,.141.222c.02.12-.031.171-.076.19A.171.171,0,0,1,283.061,349.151Zm-.718-.463c.2.2.636.445.773.385.012,0,.051-.024.037-.12a.255.255,0,0,0-.114-.177A1.176,1.176,0,0,0,282.343,348.688Z" transform="translate(-249.766 -318.868)"/><path class="p" d="M210.6,315.923c-2.511-.322-6.225-.447-6.437,2.17s1.593,5.3,6.5,5.448,5.97-1.089,6.145-2.142c.224-1.33.612-1.668-.561-2.27S214.863,316.467,210.6,315.923Z" transform="translate(-187.601 -292.714)"/><path class="p" d="M259.552,338.19l-.577-2.162a.157.157,0,0,1,.09-.19l1.646-.7a.32.32,0,0,1,.424.216c.188.759.241,1.134.494,2.084.155.585.538,1.779.755,2.586s-.573,1.065-.734.746a5.348,5.348,0,0,0-1.895-2.29A.52.52,0,0,1,259.552,338.19Z" transform="translate(-231.239 -308.127)"/><path class="g" d="M262.607,351.577a.133.133,0,0,1-.1-.043c-.188-.2,0-1.061.02-1.158a.033.033,0,0,1,.029-.027.031.031,0,0,1,.033.018c.145.292.367.816.237,1.073a.247.247,0,0,1-.19.135Zm-.035-1.091c-.059.3-.141.873-.018,1a.073.073,0,0,0,.071.022.183.183,0,0,0,.141-.1c.108-.21-.086-.687-.194-.928Z" transform="translate(-233.991 -320.253)"/><path class="g" d="M259.821,351.21c-.049,0-.108-.024-.147-.129a.337.337,0,0,1,.01-.263c.135-.29.636-.471.657-.477a.031.031,0,0,1,.033,0,.029.029,0,0,1,.012.031c-.043.253-.33.816-.553.832Zm.485-.783a1.116,1.116,0,0,0-.561.42.257.257,0,0,0,0,.2c.033.09.077.086.09.084.141-.006.4-.428.471-.708Z" transform="translate(-231.784 -320.243)"/><path class="g" d="M255.975,339.656l-.469-2.623-1.146-.043.088,3.339Z" transform="translate(-227.571 -309.619)"/><path class="r" d="M255.975,339.656l-.469-2.623-1.146-.043.088,3.339Z" transform="translate(-227.571 -309.619)"/><path class="p" d="M253.5,224.111c-.047.153,0,.3.1.334s.22-.069.267-.222,0-.3-.1-.335S253.547,223.96,253.5,224.111Z" transform="translate(-226.871 -219.581)"/><path class="p" d="M262.008,226.731c-.047.155,0,.3.1.334s.22-.069.267-.222,0-.3-.1-.334S262.057,226.578,262.008,226.731Z" transform="translate(-233.645 -221.666)"/><path class="p" d="M263.16,226.51h.408S263.284,226.747,263.16,226.51Z" transform="translate(-234.576 -221.672)"/><path class="s" d="M258.142,228.23a4.272,4.272,0,0,0,.247,1.148.691.691,0,0,1-.579-.067Z" transform="translate(-230.318 -223.041)"/><path class="p" d="M251.007,231.984a.014.014,0,0,1-.012,0,1.36,1.36,0,0,1-.651-.781.029.029,0,0,1,.02-.037.031.031,0,0,1,.037.02,1.336,1.336,0,0,0,.612.744.031.031,0,0,1-.014.057Z" transform="translate(-224.374 -225.378)"/><path class="p" d="M252.916,218.935a.061.061,0,0,1-.033-.112.9.9,0,0,1,.816-.108.063.063,0,0,1,.033.08.059.059,0,0,1-.08.031.789.789,0,0,0-.708.1A.061.061,0,0,1,252.916,218.935Z" transform="translate(-226.374 -215.425)"/><path class="p" d="M264.8,222.814a.059.059,0,0,1-.053-.033.793.793,0,0,0-.575-.424.059.059,0,0,1-.055-.065.061.061,0,0,1,.065-.053.893.893,0,0,1,.671.487.061.061,0,0,1-.024.082A.071.071,0,0,1,264.8,222.814Z" transform="translate(-235.339 -218.272)"/><path class="p" d="M254.65,223.89h.408S254.774,224.129,254.65,223.89Z" transform="translate(-227.802 -219.586)"/><path class="g" d="M227.329,313.479l-.065.724c-.029.057.039.114.133.114h8.183c.071,0,.133-.037.137-.082l.073-.724c0-.051-.057-.094-.139-.094H227.46A.145.145,0,0,0,227.329,313.479Z" transform="translate(-205.997 -290.854)"/><path class="h" d="M227.329,313.479l-.065.724c-.029.057.039.114.133.114h8.183c.071,0,.133-.037.137-.082l.073-.724c0-.051-.057-.094-.139-.094H227.46A.145.145,0,0,0,227.329,313.479Z" transform="translate(-205.997 -290.854)"/><path class="p" d="M231.853,314.15h-.218c-.045,0-.077-.022-.075-.049l.1-.942c0-.027.041-.049.084-.049h.22c.043,0,.077.022.073.049l-.1.942C231.935,314.128,231.9,314.15,231.853,314.15Z" transform="translate(-209.421 -290.609)"/><path class="p" d="M263.916,314.15h-.2c-.045,0-.078-.022-.073-.049l.1-.942c0-.027.041-.049.086-.049h.218c.045,0,.078.022.073.049l-.1.942A.1.1,0,0,1,263.916,314.15Z" transform="translate(-234.957 -290.609)"/><path class="p" d="M247.852,314.15h-.22c-.043,0-.078-.022-.073-.049l.1-.942c0-.027.043-.049.086-.049h.22c.043,0,.075.022.073.049l-.1.942C247.938,314.128,247.9,314.15,247.852,314.15Z" transform="translate(-222.157 -290.609)"/><path class="c" d="M275.483,288.64h-14.2l-2.058,8.383h14.2Z" transform="translate(-231.448 -271.13)"/><path class="c" d="M248.025,322.08l-8.682,2.025-5.572-1.562.057-.463Z" transform="translate(-211.181 -297.75)"/><path class="m" d="M213.623,268.389c-.171.555-.355,1.132-.518,1.7s-.337,1.14-.485,1.711-.292,1.14-.408,1.7c-.053.277-.1.555-.135.816a3.875,3.875,0,0,0-.037.555.989.989,0,0,0,.241.4,3.432,3.432,0,0,0,.549.483,10.042,10.042,0,0,0,1.428.861,31.207,31.207,0,0,0,3.263,1.377l-.247,1a19.635,19.635,0,0,1-3.632-.961,10.626,10.626,0,0,1-1.776-.842,5.394,5.394,0,0,1-.867-.657,2.719,2.719,0,0,1-.74-1.118,2.074,2.074,0,0,1-.088-.408v-.855c.018-.343.055-.667.1-.985a18.142,18.142,0,0,1,.357-1.864c.153-.608.294-1.209.463-1.805s.349-1.181.557-1.776Z" transform="translate(-192.394 -254.477)"/><path class="g" d="M213.21,256.656c-.816.247-2.04,3.426-2.04,3.426l3.143,2.244s1.413-2.719,1.073-3.767C215.021,257.471,214.136,256.374,213.21,256.656Z" transform="translate(-193.19 -245.634)"/><path class="n" d="M213.21,256.656c-.816.247-2.04,3.426-2.04,3.426l3.143,2.244s1.413-2.719,1.073-3.767C215.021,257.471,214.136,256.374,213.21,256.656Z" transform="translate(-193.19 -245.634)"/><path class="m" d="M241.5,316.527l1.889-.477-.9,1.813s-1.277.055-1.7-.657Z" transform="translate(-216.769 -292.95)"/><path class="m" d="M251.547,316.739l-.836,1.479-1.591-.355.9-1.813Z" transform="translate(-223.4 -292.95)"/><path class="g" d="M277.623,288.64h-14.2l-2.058,8.383h14.2Z" transform="translate(-233.152 -271.13)"/><path class="g" d="M275.343,329.74l-.057.463h-14.2l.057-.463Z" transform="translate(-232.929 -303.847)"/><rect class="g" width="0.204" height="2.445" transform="translate(53.15 36.056)"/><rect class="h" width="0.204" height="2.445" transform="translate(53.15 36.056)"/><rect class="g" width="0.204" height="0.869" transform="translate(53.15 39.442)"/><rect class="h" width="0.204" height="0.869" transform="translate(53.15 39.442)"/><path class="g" d="M127.907,311.31h0c-.114,0-.228,0-.345.01a5.015,5.015,0,0,0-4.536,4.75,5.24,5.24,0,0,0,.157,1.658,26.594,26.594,0,0,1,.767,6.639v6.527a.838.838,0,0,0,.816.857h19.865V311.31Z" transform="translate(-123.015 -289.176)"/><path class="h" d="M127.907,311.31h0c-.114,0-.228,0-.345.01a5.015,5.015,0,0,0-4.536,4.75,5.24,5.24,0,0,0,.157,1.658,26.594,26.594,0,0,1,.767,6.639v6.527a.838.838,0,0,0,.816.857h19.865V311.31Z" transform="translate(-123.015 -289.176)"/><path class="g" d="M214.818,316.4a4.889,4.889,0,1,0-9.772-.332,5.239,5.239,0,0,0,.157,1.658,26.594,26.594,0,0,1,.767,6.639V330.9a.838.838,0,0,0,.816.857h6.272a.84.84,0,0,0,.816-.857v-6.91a24.155,24.155,0,0,1,.757-6.213A5.252,5.252,0,0,0,214.818,316.4Z" transform="translate(-188.307 -289.176)"/></g></svg>