<svg xmlns="http://www.w3.org/2000/svg" width="101.979" height="75.987" viewBox="0 0 101.979 75.987"><defs><style>.a,.f{fill:#e0e0e0;}.b{fill:#e6e6e6;}.c{fill:#f0f0f0;}.d{fill:#ebebeb;}.e,.n,.p,.s,.t,.u,.x{fill:#fafafa;}.f,.p,.v{opacity:0.4;}.g{fill:#f5f5f5;}.h{fill:#e58a7b;}.i{fill:#b24bf3;}.j{opacity:0.5;}.k,.u{opacity:0.7;}.l{fill:#263238;}.m{fill:#cf6f64;}.n{opacity:0.6;}.o{opacity:0.3;}.q{fill:#df5753;}.r{opacity:0.2;}.s{opacity:0.9;}.t{opacity:0.8;}.w,.x{opacity:0.1;}</style></defs><g transform="translate(0 0)"><rect class="a" width="101.979" height="0.051" transform="translate(0 66.776)"/><rect class="a" width="9.15" height="0.051" transform="translate(79.205 69.974)"/><rect class="a" width="1.772" height="0.051" transform="translate(76.091 69.974)"/><rect class="a" width="3.949" height="0.051" transform="translate(57.1 69.27)"/><rect class="a" width="8.809" height="0.051" transform="translate(16.506 69.244)"/><rect class="a" width="1.291" height="0.051" transform="translate(13.4 69.244)"/><rect class="a" width="19.107" height="0.051" transform="translate(38.609 68.036)"/><path class="a" d="M78.755,112.679H39.373a1.165,1.165,0,0,1-1.163-1.165V56.154A1.165,1.165,0,0,1,39.373,55H78.755a1.165,1.165,0,0,1,1.165,1.165v55.35A1.165,1.165,0,0,1,78.755,112.679ZM39.373,55.041a1.114,1.114,0,0,0-1.112,1.114v55.36a1.114,1.114,0,0,0,1.112,1.114H78.755a1.116,1.116,0,0,0,1.114-1.114V56.154a1.116,1.116,0,0,0-1.114-1.114Z" transform="translate(-30.417 -55)"/><path class="a" d="M295.049,112.679H255.665a1.167,1.167,0,0,1-1.165-1.165V56.154A1.167,1.167,0,0,1,255.665,55h39.384a1.165,1.165,0,0,1,1.161,1.154v55.36A1.165,1.165,0,0,1,295.049,112.679ZM255.665,55.041a1.116,1.116,0,0,0-1.114,1.114v55.36a1.116,1.116,0,0,0,1.114,1.114h39.384a1.116,1.116,0,0,0,1.114-1.114V56.154a1.116,1.116,0,0,0-1.114-1.114Z" transform="translate(-202.593 -55)"/><rect class="b" width="24.385" height="53.929" transform="translate(23.555 12.872)"/><rect class="c" width="23.229" height="53.929" transform="translate(24.712 12.872)"/><rect class="d" width="51.481" height="20.781" transform="translate(46.717 14.096) rotate(90)"/><rect class="b" width="51.481" height="0.318" transform="translate(46.717 14.098) rotate(90)"/><ellipse class="b" cx="1.042" cy="1.042" rx="1.042" ry="1.042" transform="translate(42.898 36.566)"/><ellipse class="e" cx="1.042" cy="1.042" rx="1.042" ry="1.042" transform="translate(43.306 36.349)"/><rect class="a" width="27.677" height="41.424" transform="translate(58.65 6.233)"/><rect class="c" width="27.677" height="41.424" transform="translate(59.264 6.233)"/><rect class="e" width="38.944" height="25.468" transform="translate(85.838 7.473) rotate(90)"/><rect class="a" width="38.944" height="0.465" transform="translate(85.838 7.473) rotate(90)"/><rect class="c" width="26.763" height="1.664" transform="translate(59.721 19.615)"/><path class="a" d="M311.7,75.5H281a.169.169,0,0,0-.169.169h0a.171.171,0,0,0,.169.171h30.7a.173.173,0,0,0,.171-.171h0A.171.171,0,0,0,311.7,75.5Z" transform="translate(-223.553 -71.319)"/><path class="a" d="M430.531,73.018a.85.85,0,1,1-.851-.848A.851.851,0,0,1,430.531,73.018Z" transform="translate(-341.367 -68.668)"/><path class="a" d="M287.788,77.282h0a.23.23,0,0,1-.228-.23V76.56a.23.23,0,0,1,.228-.23h0a.232.232,0,0,1,.23.23v.492a.232.232,0,0,1-.23.23Z" transform="translate(-228.91 -71.98)"/><path class="a" d="M418.71,77.282h0a.233.233,0,0,1-.23-.23V76.56a.233.233,0,0,1,.23-.23h0a.23.23,0,0,1,.228.23v.492a.23.23,0,0,1-.228.23Z" transform="translate(-333.128 -71.98)"/><rect class="f" width="28.371" height="11.897" transform="translate(59.721 4.35)"/><path class="a" d="M299.611,73.018a.851.851,0,1,1-.851-.848.851.851,0,0,1,.851.848Z" transform="translate(-237.149 -68.668)"/><rect class="b" width="5.462" height="12.113" transform="translate(57.512 53.896)"/><rect class="b" width="26.941" height="0.767" transform="translate(58.562 66.009)"/><rect class="c" width="23.575" height="12.113" transform="translate(86.549 66.009) rotate(180)"/><rect class="b" width="19.28" height="3.973" transform="translate(84.402 59.36) rotate(180)"/><rect class="b" width="19.28" height="3.973" transform="translate(84.402 64.516) rotate(180)"/><rect class="c" width="5.395" height="0.545" rx="0.272" transform="translate(72.066 57.1)"/><rect class="c" width="5.395" height="0.545" rx="0.272" transform="translate(72.066 62.258)"/><ellipse class="c" cx="1.203" cy="1.203" rx="1.203" ry="1.203" transform="translate(68.575 49.703)"/><ellipse class="c" cx="1.203" cy="1.203" rx="1.203" ry="1.203" transform="translate(70.467 49.476)"/><path class="c" d="M376.457,301.513a1.2,1.2,0,1,1-1.2-1.2,1.2,1.2,0,0,1,1.2,1.2Z" transform="translate(-297.76 -250.277)"/><path class="c" d="M361.211,304.233a1.205,1.205,0,1,1-1.2-1.2,1.205,1.205,0,0,1,1.2,1.2Z" transform="translate(-285.62 -252.442)"/><path class="b" d="M325,305.67s.2,2.77,7.669,2.77,7.669-2.77,7.669-2.77Z" transform="translate(-258.714 -254.544)"/><rect class="b" width="3.718" height="16.125" transform="translate(8.886 49.629)"/><rect class="b" width="18.336" height="1.022" transform="translate(9.6 65.754)"/><rect class="c" width="16.045" height="16.125" transform="translate(28.648 65.754) rotate(180)"/><rect class="b" width="13.121" height="5.289" transform="translate(27.188 56.904) rotate(180)"/><rect class="b" width="13.121" height="5.289" transform="translate(27.188 63.77) rotate(180)"/><path class="c" d="M95.438,319.952H92.493a.363.363,0,0,1-.363-.369h0a.363.363,0,0,1,.363-.363h2.945a.363.363,0,0,1,.363.363h0a.363.363,0,0,1-.363.369Z" transform="translate(-73.339 -265.33)"/><path class="c" d="M95.438,353.644H92.493a.363.363,0,0,1-.363-.363h0a.363.363,0,0,1,.363-.361h2.945a.363.363,0,0,1,.363.361h0A.363.363,0,0,1,95.438,353.644Z" transform="translate(-73.339 -292.157)"/><path class="c" d="M93.2,246.082s-3.059-5.285,1.189-9.492c0,0,1.11.722,1.093,1.695s-1.189,1.224-.938,2.04,1.358,1.609.632,2.28.116,1.269.067,2.091S93.2,246.082,93.2,246.082Z" transform="translate(-73.343 -199.553)"/><path class="b" d="M75.47,279s.1,3.943,4.012,3.943S83.492,279,83.492,279Z" transform="translate(-60.077 -233.313)"/><path class="b" d="M80.181,251.8s1.244-5.982-4.12-8.634a2.435,2.435,0,0,0-.5,1.954c.314.918,1.511.781,1.53,1.632s-.783,1.954.118,2.362.29,1.242.6,2.007S80.181,251.8,80.181,251.8Z" transform="translate(-60.091 -204.791)"/><rect class="a" width="6.121" height="15.397" transform="translate(12.119 17.518)"/><rect class="c" width="6.496" height="15.397" transform="translate(12.982 17.518)"/><rect class="e" width="13.418" height="4.518" transform="translate(18.489 18.507) rotate(90)"/></g><g transform="translate(11.444 71.369)"><ellipse class="g" cx="39.545" cy="2.309" rx="39.545" ry="2.309"/></g><g transform="translate(49.407 14.018)"><path class="h" d="M336.307,195.024c-.033.573-.1,1.1-.179,1.646s-.19,1.077-.308,1.611a15.437,15.437,0,0,1-1.075,3.163,2.677,2.677,0,0,1-.673.828,5.763,5.763,0,0,1-.726.526,11.57,11.57,0,0,1-1.487.769,21.1,21.1,0,0,1-3.076,1.046l-.253-.757c.469-.2.95-.43,1.415-.661s.93-.463,1.375-.716a12.234,12.234,0,0,0,1.271-.8,4.72,4.72,0,0,0,.53-.443,1.405,1.405,0,0,0,.308-.408,12.9,12.9,0,0,0,.479-1.4c.131-.487.251-.979.353-1.479s.184-1.006.257-1.513.133-1.02.177-1.509Z" transform="translate(-310.931 -180.408)"/><path class="i" d="M356.955,185.557c-.651.165-1.105,2.843-1.105,2.843l1.793,1.224s1.719-2.7,1.224-3.414A1.447,1.447,0,0,0,356.955,185.557Z" transform="translate(-332.678 -172.857)"/><path class="j" d="M356.955,185.557c-.651.165-1.105,2.843-1.105,2.843l1.793,1.224s1.719-2.7,1.224-3.414A1.447,1.447,0,0,0,356.955,185.557Z" transform="translate(-332.678 -172.857)"/><path class="i" d="M359.61,188.89l-.5,2.7,1.008.683Z" transform="translate(-335.274 -175.6)"/><path class="k" d="M359.61,188.89l-.5,2.7,1.008.683Z" transform="translate(-335.274 -175.6)"/><path class="h" d="M325.4,234.074l-1.12-1.134-.147,1.6s.838.567,1.428.263Z" transform="translate(-307.428 -210.666)"/><path class="h" d="M318.191,232.11l-.051,1.344,1.222.424.147-1.6Z" transform="translate(-302.66 -210.005)"/><path class="h" d="M371.955,392.615h-1.579l-.106-3.655h1.579Z" transform="translate(-344.157 -334.864)"/><path class="h" d="M431.377,361.348l-1.2,1.022-2.753-2.458,1.2-1.022Z" transform="translate(-389.651 -310.927)"/><path class="l" d="M436.946,369.959l1.16-1.336a.122.122,0,0,1,.163-.024l1.189.771a.253.253,0,0,1,.045.375c-.408.459-.638.659-1.15,1.246-.316.361-.74.922-1.175,1.428s-.952.094-.816-.153a3.094,3.094,0,0,0,.475-2.04.408.408,0,0,1,.108-.267Z" transform="translate(-396.752 -318.639)"/><path class="l" d="M360.516,406h1.774a.126.126,0,0,1,.126.108l.2,1.4a.253.253,0,0,1-.253.279c-.612,0-.918-.047-1.7-.047-.479,0-1.473.051-2.133.051s-.7-.657-.422-.716a4.26,4.26,0,0,0,2.139-.983.422.422,0,0,1,.261-.1Z" transform="translate(-334.353 -348.429)"/><path class="m" d="M370.27,388.97l.055,1.885H371.9l-.053-1.885Z" transform="translate(-344.157 -334.872)"/><path class="m" d="M428.633,358.89l-1.2,1.022,1.42,1.267,1.2-1.022Z" transform="translate(-389.659 -310.927)"/><path class="i" d="M360.54,184.2s-.751.265.755,9.527h6.41c-.108-2.609-.11-4.218,1.136-9.574a18.832,18.832,0,0,0-2.721-.361,20.1,20.1,0,0,0-2.913,0A26.666,26.666,0,0,0,360.54,184.2Z" transform="translate(-336.263 -171.501)"/><path class="j" d="M360.54,184.2s-.751.265.755,9.527h6.41c-.108-2.609-.11-4.218,1.136-9.574a18.832,18.832,0,0,0-2.721-.361,20.1,20.1,0,0,0-2.913,0A26.666,26.666,0,0,0,360.54,184.2Z" transform="translate(-336.263 -171.501)"/><path class="i" d="M379,184.442l.579,1.183s2.429-.742,2.111-1.811l-.816-.094Z" transform="translate(-351.107 -171.485)"/><path class="n" d="M379,184.442l.579,1.183s2.429-.742,2.111-1.811l-.816-.094Z" transform="translate(-351.107 -171.485)"/><path class="i" d="M371.864,184.332l-.816,1.207s-1.73-.751-.536-1.76l.508-.059Z" transform="translate(-344.016 -171.485)"/><path class="n" d="M371.864,184.332l-.816,1.207s-1.73-.751-.536-1.76l.508-.059Z" transform="translate(-344.016 -171.485)"/><path class="l" d="M391.55,127.864c.749-.72.031-4.1,2-2.984,2.5,1.428,4.122-.441,3.286-1.15,1.758.124,1.587,2.125.855,3.2-1.858,2.735-5.607.135-5.629,1.524S391.55,127.864,391.55,127.864Z" transform="translate(-361.097 -123.73)"/><path class="i" d="M386.25,140.589c.859-.679,3.792-.114,1.781,2.621Z" transform="translate(-356.878 -136.942)"/><path class="o" d="M386.25,140.589c.859-.679,3.792-.114,1.781,2.621Z" transform="translate(-356.878 -136.942)"/><path class="l" d="M383.765,147.84c2.5.373,2.676,4.436-1.205,5.066Z" transform="translate(-353.941 -142.923)"/><path class="h" d="M375.959,167.91c-.184.936-.367,2.651.29,3.278,0,0-.257.948-2,.948-1.913,0-.916-.948-.916-.948,1.044-.251,1.02-1.02.836-1.752Z" transform="translate(-346.391 -158.899)"/><path class="m" d="M379.509,171l-1.059.9a2.726,2.726,0,0,1,.09.518,1.284,1.284,0,0,0,.991-.914,1.4,1.4,0,0,0-.022-.506Z" transform="translate(-350.669 -161.359)"/><path class="l" d="M364.356,145.985c-.863-1.112-1.987-3.979,1.377-4.255Z" transform="translate(-338.735 -138.059)"/><path class="h" d="M370.034,148.856c.2,1.554.326,2.207-.294,3.145a2,2,0,0,1-3.551-.131c-.6-1.314-.838-3.633.543-4.538a2.137,2.137,0,0,1,3.3,1.524Z" transform="translate(-340.53 -142.236)"/><path class="i" d="M360.519,232.67s-1.244,12.158-1.142,16.971c.108,5.007,1.944,16.427,1.944,16.427h2.133s-.339-11.128-.149-16.043c.2-5.362,1.909-17.355,1.909-17.355Z" transform="translate(-335.481 -210.451)"/><path class="n" d="M360.519,232.67s-1.244,12.158-1.142,16.971c.108,5.007,1.944,16.427,1.944,16.427h2.133s-.339-11.128-.149-16.043c.2-5.362,1.909-17.355,1.909-17.355Z" transform="translate(-335.481 -210.451)"/><path class="i" d="M369.778,393.3h-2.5l-.184-.8,2.8-.1Z" transform="translate(-341.626 -337.603)"/><path class="p" d="M369.778,393.3h-2.5l-.184-.8,2.8-.1Z" transform="translate(-341.626 -337.603)"/><path class="i" d="M375.548,244.565c-1.575,3.167-.316,8.946.241,11.1.286-3.229.767-7.175,1.142-10.074C376.692,243.947,376.274,243.1,375.548,244.565Z" transform="translate(-347.751 -219.321)"/><path class="p" d="M375.548,244.565c-1.575,3.167-.316,8.946.241,11.1.286-3.229.767-7.175,1.142-10.074C376.692,243.947,376.274,243.1,375.548,244.565Z" transform="translate(-347.751 -219.321)"/><path class="i" d="M373.27,232.654s1.452,12.645,2.549,16.7c1.3,4.82,9.382,11.3,9.382,11.3l1.642-1.4s-5.862-7.043-6.857-9.586c-2.125-5.417-.306-13.49-2-17.024Z" transform="translate(-346.546 -210.435)"/><path class="n" d="M373.27,232.654s1.452,12.645,2.549,16.7c1.3,4.82,9.382,11.3,9.382,11.3l1.642-1.4s-5.862-7.043-6.857-9.586c-2.125-5.417-.306-13.49-2-17.024Z" transform="translate(-346.546 -210.435)"/><path class="i" d="M430.224,359.369l-2.036,1.728-.759-.455,2.3-2.142Z" transform="translate(-389.659 -310.617)"/><path class="p" d="M430.224,359.369l-2.036,1.728-.759-.455,2.3-2.142Z" transform="translate(-389.659 -310.617)"/><path class="l" d="M374.72,159.737c.025.124-.022.239-.1.255s-.167-.073-.192-.2.022-.239.1-.255S374.7,159.61,374.72,159.737Z" transform="translate(-347.46 -152.229)"/><path class="l" d="M367.82,161.1c.025.124-.022.239-.1.255s-.167-.073-.192-.2.02-.239.1-.255S367.791,160.97,367.82,161.1Z" transform="translate(-341.966 -153.312)"/><path class="l" d="M366.978,160.819l-.318-.029S366.86,160.994,366.978,160.819Z" transform="translate(-341.284 -153.231)"/><path class="q" d="M369.878,162.59a3.425,3.425,0,0,1-.288.885.551.551,0,0,0,.461,0Z" transform="translate(-343.616 -154.664)"/><path class="l" d="M374.317,166.389a.037.037,0,1,1,0-.073,1.008,1.008,0,0,0,.73-.547.038.038,0,1,1,.069.029,1.067,1.067,0,0,1-.785.591Z" transform="translate(-347.35 -157.177)"/><path class="l" d="M367.519,141.374a5.6,5.6,0,0,0,3.775,2.278s2.527-2.295.973-3.885C369.751,137.193,366.748,140.472,367.519,141.374Z" transform="translate(-341.87 -135.726)"/><path class="h" d="M385.316,159.874a1.13,1.13,0,0,1-.355.8c-.294.275-.624.057-.7-.316-.065-.337,0-.883.377-1.02a.514.514,0,0,1,.675.538Z" transform="translate(-355.279 -152.052)"/><path class="l" d="M374.891,156.607a.077.077,0,0,1-.051-.018.6.6,0,0,0-.518-.153.073.073,0,0,1-.092-.053.075.075,0,0,1,.053-.092.742.742,0,0,1,.657.186.075.075,0,0,1,0,.106A.073.073,0,0,1,374.891,156.607Z" transform="translate(-347.308 -149.638)"/><path class="l" d="M364.845,157.182a.065.065,0,0,1-.029,0,.073.073,0,0,1-.041-.1.74.74,0,0,1,.512-.451.071.071,0,0,1,.086.059.073.073,0,0,1-.059.088h0a.6.6,0,0,0-.408.361A.073.073,0,0,1,364.845,157.182Z" transform="translate(-339.779 -149.921)"/><path class="h" d="M394.444,200.186V200a6.867,6.867,0,0,0-.059-.716,17.713,17.713,0,0,0-.583-2.707,24.452,24.452,0,0,0-.914-2.582l-1.5.612c.3.787.591,1.617.855,2.433.126.408.247.816.351,1.224s.2.816.275,1.224l.043.271c-.141-.047-.286-.1-.432-.159-.771-.314-1.558-.722-2.335-1.114l-.451.659a14.846,14.846,0,0,0,2.227,1.6,5.659,5.659,0,0,0,.659.326,2.829,2.829,0,0,0,.392.137,1.8,1.8,0,0,0,.243.051,1.3,1.3,0,0,0,.328,0,.987.987,0,0,0,.5-.188.959.959,0,0,0,.361-.549A1.28,1.28,0,0,0,394.444,200.186Zm-1.1-.3h.037c.022,0-.006,0-.047,0Z" transform="translate(-359.617 -179.668)"/><path class="i" d="M395.108,185.593c.642.2,1.413,2.407,1.413,2.407l-2.49,1.783s-.91-1.846-.638-2.676C393.666,186.241,394.37,185.37,395.108,185.593Z" transform="translate(-362.524 -172.947)"/><path class="j" d="M395.108,185.593c.642.2,1.413,2.407,1.413,2.407l-2.49,1.783s-.91-1.846-.638-2.676C393.666,186.241,394.37,185.37,395.108,185.593Z" transform="translate(-362.524 -172.947)"/><path class="i" d="M436.4,376.821a.218.218,0,0,1-.167-.086.125.125,0,0,1-.029-.124c.057-.194.612-.351.667-.367a.039.039,0,0,1,.041.012.041.041,0,0,1,0,.041c-.1.186-.294.5-.492.524Zm.408-.479c-.218.069-.5.19-.53.292a.049.049,0,0,0,.014.053.139.139,0,0,0,.126.059c.1-.012.247-.161.388-.4Z" transform="translate(-396.641 -324.74)"/><path class="i" d="M436.433,375.281a.645.645,0,0,1-.457-.128.128.128,0,0,1,0-.163.2.2,0,0,1,.141-.086c.224-.026.571.267.585.281a.033.033,0,0,1,.012.035.035.035,0,0,1-.024.029.885.885,0,0,1-.257.033Zm-.277-.306h-.024a.124.124,0,0,0-.09.055c-.026.039-.016.061,0,.075a.81.81,0,0,0,.567.088.959.959,0,0,0-.447-.218Z" transform="translate(-396.439 -323.673)"/><path class="i" d="M365.853,405.779a.591.591,0,0,1-.383-.1.2.2,0,0,1-.067-.182.122.122,0,0,1,.063-.1c.194-.1.816.216.893.253a.039.039,0,0,1,.02.039.035.035,0,0,1-.029.031A2.548,2.548,0,0,1,365.853,405.779Zm-.281-.326a.135.135,0,0,0-.069.014.043.043,0,0,0-.025.039.129.129,0,0,0,.043.12,1,1,0,0,0,.706.043A2.038,2.038,0,0,0,365.572,405.452Z" transform="translate(-340.281 -347.934)"/><path class="i" d="M367.861,404.262h-.016c-.188-.086-.559-.424-.53-.612,0-.043.037-.1.141-.106a.263.263,0,0,1,.2.065,1,1,0,0,1,.237.612.033.033,0,0,1-.014.033.035.035,0,0,1-.02.008Zm-.375-.64h-.022c-.069,0-.073.033-.075.043-.016.106.235.375.426.492a.846.846,0,0,0-.2-.487.2.2,0,0,0-.12-.047Z" transform="translate(-341.803 -346.472)"/><path class="h" d="M387.635,210.581l-.53-1.621-.844,1.365s.5.883,1.154.869Z" transform="translate(-356.886 -191.577)"/><path class="h" d="M382.454,205.34l-.645,1.181.9.922.844-1.364Z" transform="translate(-353.344 -188.695)"/><path class="l" d="M373.906,159.459l-.316-.029S373.79,159.634,373.906,159.459Z" transform="translate(-346.8 -152.149)"/><path class="l" d="M370.7,230.671l.165.575c.022.043-.031.09-.106.09h-6.6c-.059,0-.106-.029-.11-.065l-.057-.563c0-.041.045-.073.108-.073H370.6A.116.116,0,0,1,370.7,230.671Z" transform="translate(-339.166 -208.829)"/><path class="i" d="M392.018,231.164h.173c.035,0,.061-.018.059-.039l-.082-.747c0-.022-.033-.039-.067-.039h-.173c-.035,0-.061.016-.059.039l.082.747C391.953,231.146,391.984,231.164,392.018,231.164Z" transform="translate(-361.352 -208.596)"/><path class="n" d="M392.018,231.164h.173c.035,0,.061-.018.059-.039l-.082-.747c0-.022-.033-.039-.067-.039h-.173c-.035,0-.061.016-.059.039l.082.747C391.953,231.146,391.984,231.164,392.018,231.164Z" transform="translate(-361.352 -208.596)"/><path class="i" d="M366.628,231.164h.173c.035,0,.061-.018.059-.039l-.082-.747c0-.022-.033-.039-.067-.039h-.173c-.035,0-.061.016-.059.039l.082.747C366.563,231.146,366.586,231.164,366.628,231.164Z" transform="translate(-341.14 -208.596)"/><path class="n" d="M366.628,231.164h.173c.035,0,.061-.018.059-.039l-.082-.747c0-.022-.033-.039-.067-.039h-.173c-.035,0-.061.016-.059.039l.082.747C366.563,231.146,366.586,231.164,366.628,231.164Z" transform="translate(-341.14 -208.596)"/><path class="i" d="M379.318,231.164h.175c.035,0,.061-.018.057-.039l-.082-.747c0-.022-.033-.039-.067-.039h-.173c-.035,0-.061.016-.059.039l.082.747A.065.065,0,0,0,379.318,231.164Z" transform="translate(-351.242 -208.596)"/><path class="n" d="M379.318,231.164h.175c.035,0,.061-.018.057-.039l-.082-.747c0-.022-.033-.039-.067-.039h-.173c-.035,0-.061.016-.059.039l.082.747A.065.065,0,0,0,379.318,231.164Z" transform="translate(-351.242 -208.596)"/><path class="i" d="M256.754,217.038h13.492a2.258,2.258,0,0,0,2.276-2.447L269.3,168.447A2.674,2.674,0,0,0,266.677,166H253.185a2.258,2.258,0,0,0-2.276,2.447l3.227,46.146A2.674,2.674,0,0,0,256.754,217.038Z" transform="translate(-249.135 -157.378)"/><path class="r" d="M256.754,217.038h13.492a2.258,2.258,0,0,0,2.276-2.447L269.3,168.447A2.674,2.674,0,0,0,266.677,166H253.185a2.258,2.258,0,0,0-2.276,2.447l3.227,46.146A2.674,2.674,0,0,0,256.754,217.038Z" transform="translate(-249.135 -157.378)"/><rect class="i" width="0.204" height="3.223" transform="translate(0.289 25.311) rotate(-4)"/><rect class="j" width="0.204" height="3.223" transform="translate(0.289 25.311) rotate(-4)"/><path class="i" d="M248.094,217.038h13.49a2.258,2.258,0,0,0,2.276-2.448l-3.227-46.144A2.674,2.674,0,0,0,258.015,166h-13.49a2.258,2.258,0,0,0-2.276,2.447l3.227,46.144A2.674,2.674,0,0,0,248.094,217.038Z" transform="translate(-242.241 -157.378)"/><path class="j" d="M248.094,217.038h13.49a2.258,2.258,0,0,0,2.276-2.448l-3.227-46.144A2.674,2.674,0,0,0,258.015,166h-13.49a2.258,2.258,0,0,0-2.276,2.447l3.227,46.144A2.674,2.674,0,0,0,248.094,217.038Z" transform="translate(-242.241 -157.378)"/><path class="i" d="M279.007,201.17h2.5a.408.408,0,0,0,.422-.453l-.6-8.546a.494.494,0,0,0-.485-.453H278.35a.408.408,0,0,0-.42.453l.6,8.546A.494.494,0,0,0,279.007,201.17Z" transform="translate(-270.649 -177.852)"/><path class="r" d="M279.007,201.17h2.5a.408.408,0,0,0,.422-.453l-.6-8.546a.494.494,0,0,0-.485-.453H278.35a.408.408,0,0,0-.42.453l.6,8.546A.494.494,0,0,0,279.007,201.17Z" transform="translate(-270.649 -177.852)"/></g><g transform="translate(16.591 21.704)"><path class="i" d="M146.677,217.038H133.185a2.258,2.258,0,0,1-2.276-2.448l3.227-46.144A2.676,2.676,0,0,1,136.754,166h13.492a2.258,2.258,0,0,1,2.276,2.447L149.3,214.59A2.674,2.674,0,0,1,146.677,217.038Z" transform="translate(-120.794 -165.064)"/><path class="j" d="M146.677,217.038H133.185a2.258,2.258,0,0,1-2.276-2.448l3.227-46.144A2.676,2.676,0,0,1,136.754,166h13.492a2.258,2.258,0,0,1,2.276,2.447L149.3,214.59A2.674,2.674,0,0,1,146.677,217.038Z" transform="translate(-120.794 -165.064)"/><rect class="i" width="0.761" height="0.204" transform="translate(19.448 0.22)"/><rect class="o" width="0.761" height="0.204" transform="translate(19.448 0.22)"/><rect class="i" width="2.392" height="0.204" transform="translate(15.691 0.22)"/><rect class="o" width="2.392" height="0.204" transform="translate(15.691 0.22)"/><path class="i" d="M138.015,217.038h-13.49a2.258,2.258,0,0,1-2.276-2.448l3.227-46.144A2.674,2.674,0,0,1,128.094,166h13.49a2.258,2.258,0,0,1,2.276,2.447l-3.227,46.144A2.674,2.674,0,0,1,138.015,217.038Z" transform="translate(-113.9 -165.064)"/><path class="o" d="M138.015,217.038h-13.49a2.258,2.258,0,0,1-2.276-2.448l3.227-46.144A2.674,2.674,0,0,1,128.094,166h13.49a2.258,2.258,0,0,1,2.276,2.447l-3.227,46.144A2.674,2.674,0,0,1,138.015,217.038Z" transform="translate(-113.9 -165.064)"/><path class="i" d="M138.96,225.352H121.2a.312.312,0,0,1-.31-.332l3.143-44.95a.312.312,0,0,1,.312-.29H142.1a.312.312,0,0,1,.312.332l-3.149,44.95A.31.31,0,0,1,138.96,225.352Z" transform="translate(-112.822 -176.034)"/><path class="s" d="M138.96,225.352H121.2a.312.312,0,0,1-.31-.332l3.143-44.95a.312.312,0,0,1,.312-.29H142.1a.312.312,0,0,1,.312.332l-3.149,44.95A.31.31,0,0,1,138.96,225.352Z" transform="translate(-112.822 -176.034)"/><path class="i" d="M152.836,202.34h-11.53a1.267,1.267,0,0,0-1.24,1.158l-1.2,17.173a1.069,1.069,0,0,0,1.079,1.158h.8l-.408,1.258a3.614,3.614,0,0,0,2.429-1.258h8.709a1.267,1.267,0,0,0,1.24-1.158l1.2-17.173a1.071,1.071,0,0,0-1.079-1.158Z" transform="translate(-127.131 -193.992)"/><path class="n" d="M152.836,202.34h-11.53a1.267,1.267,0,0,0-1.24,1.158l-1.2,17.173a1.069,1.069,0,0,0,1.079,1.158h.8l-.408,1.258a3.614,3.614,0,0,0,2.429-1.258h8.709a1.267,1.267,0,0,0,1.24-1.158l1.2-17.173a1.071,1.071,0,0,0-1.079-1.158Z" transform="translate(-127.131 -193.992)"/><path class="i" d="M136.115,314.85h11.53a1.069,1.069,0,0,1,1.079,1.158l-.516,7.377a1.267,1.267,0,0,1-1.24,1.158h-.8l.224,1.258a3.1,3.1,0,0,1-2.244-1.258h-8.713a1.069,1.069,0,0,1-1.079-1.158l.516-7.377A1.267,1.267,0,0,1,136.115,314.85Z" transform="translate(-123.541 -283.555)"/><path class="n" d="M136.115,314.85h11.53a1.069,1.069,0,0,1,1.079,1.158l-.516,7.377a1.267,1.267,0,0,1-1.24,1.158h-.8l.224,1.258a3.1,3.1,0,0,1-2.244-1.258h-8.713a1.069,1.069,0,0,1-1.079-1.158l.516-7.377A1.267,1.267,0,0,1,136.115,314.85Z" transform="translate(-123.541 -283.555)"/><path class="i" d="M191.052,170.825a.418.418,0,0,1-.408.385.355.355,0,0,1-.359-.385.422.422,0,0,1,.408-.385.355.355,0,0,1,.359.385Z" transform="translate(-168.065 -168.599)"/><path class="j" d="M191.052,170.825a.418.418,0,0,1-.408.385.355.355,0,0,1-.359-.385.422.422,0,0,1,.408-.385.355.355,0,0,1,.359.385Z" transform="translate(-168.065 -168.599)"/><path class="i" d="M172.4,171.211h-2.69a.357.357,0,0,1-.359-.385h0a.42.42,0,0,1,.408-.385h2.69a.357.357,0,0,1,.359.385h0A.42.42,0,0,1,172.4,171.211Z" transform="translate(-151.405 -168.599)"/><path class="j" d="M172.4,171.211h-2.69a.357.357,0,0,1-.359-.385h0a.42.42,0,0,1,.408-.385h2.69a.357.357,0,0,1,.359.385h0A.42.42,0,0,1,172.4,171.211Z" transform="translate(-151.405 -168.599)"/><path class="h" d="M105.842,217.67l.32.626c.112.2.226.426.345.636.237.422.477.84.73,1.246a15.75,15.75,0,0,0,1.652,2.256c.153.153.318.337.424.42a3.283,3.283,0,0,0,.473.318,8.4,8.4,0,0,0,1.236.53,25.147,25.147,0,0,0,2.8.753l-.065,1.124a13.633,13.633,0,0,1-3.176-.186,8.267,8.267,0,0,1-1.632-.459,4.585,4.585,0,0,1-.836-.439,3.467,3.467,0,0,1-.388-.3l-.322-.283a14.482,14.482,0,0,1-2.06-2.5c-.3-.443-.575-.891-.83-1.352-.128-.23-.255-.463-.375-.7s-.235-.463-.355-.728Z" transform="translate(-99.205 -206.196)"/><path class="h" d="M150.944,248.44l.908-.64.479,1.852a1.745,1.745,0,0,1-1.4-.124Z" transform="translate(-136.738 -230.181)"/><path class="h" d="M156.694,245.74l.322,1.55-1.1.722-.479-1.852Z" transform="translate(-140.328 -228.541)"/><path class="i" d="M172.459,227.167l-.247-.045a1.685,1.685,0,0,0-.773.047l-.712.216a4.283,4.283,0,0,0,.392-2.419c-.086-.624-.555-.481-.555-.481s-.687,2.594-2.115,3.59l-.449.312.64,4.571.528-.049h2.113a1.469,1.469,0,0,0,1.122-.6,3.11,3.11,0,0,0,.626-1.746l.135-2.127C173.2,227.808,172.895,227.243,172.459,227.167Z" transform="translate(-150.327 -211.61)"/><path class="s" d="M172.459,227.167l-.247-.045a1.685,1.685,0,0,0-.773.047l-.712.216a4.283,4.283,0,0,0,.392-2.419c-.086-.624-.555-.481-.555-.481s-.687,2.594-2.115,3.59l-.449.312.64,4.571.528-.049h2.113a1.469,1.469,0,0,0,1.122-.6,3.11,3.11,0,0,0,.626-1.746l.135-2.127C173.2,227.808,172.895,227.243,172.459,227.167Z" transform="translate(-150.327 -211.61)"/><path class="i" d="M158.079,245.854l2.011-.439c.157-.033.267-.249.243-.479l-.524-5.236c-.024-.23-.171-.39-.328-.357l-2.011.439c-.157.033-.267.249-.243.479l.524,5.236C157.775,245.727,157.922,245.886,158.079,245.854Z" transform="translate(-141.748 -223.445)"/><path class="l" d="M142.393,185.928c-.024.118.018.226.1.243s.161-.065.186-.184-.018-.228-.1-.245S142.418,185.809,142.393,185.928Z" transform="translate(-129.937 -180.778)"/><path class="q" d="M141.553,187.76a4.355,4.355,0,0,0,.353,1.13.687.687,0,0,1-.585-.012Z" transform="translate(-129.088 -182.386)"/><path class="l" d="M141.459,182.247a.072.072,0,0,1-.039-.012.563.563,0,0,0-.512-.012.071.071,0,0,1-.094-.035.069.069,0,0,1,.037-.094.7.7,0,0,1,.647.022.071.071,0,0,1-.039.131Z" transform="translate(-128.68 -177.822)"/><path class="h" d="M120.519,188.52c.2,1.1.428,3.1-.339,3.834,0,0,.3,1.114,2.337,1.114,2.244,0,1.069-1.114,1.069-1.114-1.224-.292-1.189-1.2-.977-2.04Z" transform="translate(-112.26 -182.991)"/><path class="i" d="M118.259,204.789c-.147-.359-.122-1.02-.014-1.03a13.558,13.558,0,0,1,3.437.253.783.783,0,0,1,.508.993Z" transform="translate(-110.649 -195.112)"/><path class="i" d="M92.5,408.609a1.9,1.9,0,0,1-.392-.043.033.033,0,0,1-.027-.027.041.041,0,0,1,.014-.037c.018-.012.432-.294.651-.245a.169.169,0,0,1,.112.084.145.145,0,0,1,0,.169A.479.479,0,0,1,92.5,408.609Zm-.292-.094c.224.037.53.037.6-.049a.092.092,0,0,0,0-.09.1.1,0,0,0-.065-.049.963.963,0,0,0-.53.192Z" transform="translate(-89.89 -357.907)"/><path class="i" d="M92.114,407.2H92.1a.033.033,0,0,1-.016-.033,1.092,1.092,0,0,1,.2-.594.2.2,0,0,1,.153-.045.116.116,0,0,1,.112.094c.031.167-.269.494-.422.579Zm.3-.612a.122.122,0,0,0-.08.031.832.832,0,0,0-.177.469c.153-.116.345-.363.326-.463,0,0,0-.031-.053-.037Z" transform="translate(-89.89 -356.531)"/><path class="h" d="M83.77,396.1h1.5l1.381-3.469h-1.5Z" transform="translate(-83.276 -345.471)"/><path class="l" d="M83.459,408.79H81.776a.133.133,0,0,0-.128.1l-.3,1.332a.22.22,0,0,0,.22.265c.587-.01.873-.045,1.613-.045.455,0,1.393.049,2.023.049s.71-.612.453-.679a3.722,3.722,0,0,1-1.958-.932A.363.363,0,0,0,83.459,408.79Z" transform="translate(-81.347 -358.335)"/><path class="h" d="M143.693,214.47c.447.816.887,1.652,1.322,2.48l1.3,2.486.326.612a2.8,2.8,0,0,0,.245.424,2.9,2.9,0,0,0,.816.679,11.34,11.34,0,0,0,2.386,1.02l-.126,1.118a7.227,7.227,0,0,1-.767-.024,7.347,7.347,0,0,1-.757-.088,7.149,7.149,0,0,1-1.515-.408,4.452,4.452,0,0,1-1.5-.936,4,4,0,0,1-.561-.734l-.383-.612q-.753-1.224-1.45-2.46c-.463-.83-.912-1.662-1.342-2.513Z" transform="translate(-129.383 -203.648)"/><path class="i" d="M101.077,209.8c-.612,1.307,1.344,5.435,1.344,5.435l3.341-1.55a23.923,23.923,0,0,0-1.358-3.414C103.531,208.544,101.7,208.468,101.077,209.8Z" transform="translate(-96.959 -199.199)"/><path class="t" d="M101.077,209.8c-.612,1.307,1.344,5.435,1.344,5.435l3.341-1.55a23.923,23.923,0,0,0-1.358-3.414C103.531,208.544,101.7,208.468,101.077,209.8Z" transform="translate(-96.959 -199.199)"/><path class="i" d="M107.385,214.72l-.755,4.477c.179.422.306.691.306.691l3.341-1.55A14.86,14.86,0,0,0,107.385,214.72Z" transform="translate(-101.473 -203.847)"/><path class="u" d="M107.385,214.72l-.755,4.477c.179.422.306.691.306.691l3.341-1.55A14.86,14.86,0,0,0,107.385,214.72Z" transform="translate(-101.473 -203.847)"/><path class="i" d="M115.423,207.545s1.595,1.8.09,12.951H107.5c-.057-1.224.716-7.23-.469-13.029a20.912,20.912,0,0,1,2.682-.339,29.625,29.625,0,0,1,3.406,0,15.28,15.28,0,0,1,2.3.416Z" transform="translate(-101.792 -197.766)"/><path class="t" d="M115.423,207.545s1.595,1.8.09,12.951H107.5c-.057-1.224.716-7.23-.469-13.029a20.912,20.912,0,0,1,2.682-.339,29.625,29.625,0,0,1,3.406,0,15.28,15.28,0,0,1,2.3.416Z" transform="translate(-101.792 -197.766)"/><path class="i" d="M146.518,222.37l-1.238,3.059,1.238,1.8A32.227,32.227,0,0,0,146.518,222.37Z" transform="translate(-132.24 -209.937)"/><path class="u" d="M146.518,222.37l-1.238,3.059,1.238,1.8A32.227,32.227,0,0,0,146.518,222.37Z" transform="translate(-132.24 -209.937)"/><path class="i" d="M138.312,210c-.494,1.346,1.489,5.429,1.489,5.429l3.59-1.809a18.339,18.339,0,0,0-1.758-3.494C140.557,208.559,138.854,208.533,138.312,210Z" transform="translate(-126.631 -199.235)"/><path class="t" d="M138.312,210c-.494,1.346,1.489,5.429,1.489,5.429l3.59-1.809a18.339,18.339,0,0,0-1.758-3.494C140.557,208.559,138.854,208.533,138.312,210Z" transform="translate(-126.631 -199.235)"/><path class="h" d="M180.869,250.2l1.468-.587.408,1.77a2.409,2.409,0,0,1-2.015-.192Z" transform="translate(-160.46 -231.621)"/><path class="h" d="M190.229,249.628,190,251.211l-.987.169-.406-1.77Z" transform="translate(-166.733 -231.621)"/><path class="m" d="M87.1,392.64h1.5l-.993,2.492-1.387-.281Z" transform="translate(-85.226 -345.479)"/><path class="h" d="M122.514,174.554c-.2,1.471-.408,2.321.165,3.22a1.975,1.975,0,0,0,3.451-.318c.585-1.24.836-3.439-.465-4.314a2.04,2.04,0,0,0-3.151,1.411Z" transform="translate(-113.952 -170.477)"/><path class="l" d="M122.09,163.017c-1.269-1.173-.265-1.471-.265-1.471s-1.391-.575-.84.657c.769,1.717-1.385,1.189-2.417,0-.636-.734-2.311.018-2.229.734s-2.549.161-1.358,1.723c.022,1.632.657,3.218,1.5,3.649,1.444.736,2.527-1.324,2.931-2.974C121.588,166.382,123.4,164.231,122.09,163.017Z" transform="translate(-107.874 -161.412)"/><path class="h" d="M132.51,183.145a1.7,1.7,0,0,0,.369,1.02c.308.375.659.169.74-.265.073-.392,0-1.059-.388-1.277S132.508,182.7,132.51,183.145Z" transform="translate(-122.075 -178.239)"/><path class="l" d="M116.26,168.578a2.757,2.757,0,0,1,1.811.589A1.057,1.057,0,0,0,116.26,168.578Z" transform="translate(-109.139 -166.857)"/><path class="i" d="M94.585,272.86a86.865,86.865,0,0,0,1.407,11.422,6.333,6.333,0,0,1-.871,4.928c-2.919,4.163-7.546,9.706-7.546,9.706l-2.425-.271s3.926-7.279,5.937-10.9A2.759,2.759,0,0,0,91.6,285.3c-3.331-8.454-1.53-12.441-1.53-12.441Z" transform="translate(-84.374 -250.129)"/><path class="o" d="M94.585,272.86a86.865,86.865,0,0,0,1.407,11.422,6.333,6.333,0,0,1-.871,4.928c-2.919,4.163-7.546,9.706-7.546,9.706l-2.425-.271s3.926-7.279,5.937-10.9A2.759,2.759,0,0,0,91.6,285.3c-3.331-8.454-1.53-12.441-1.53-12.441Z" transform="translate(-84.374 -250.129)"/><path class="i" d="M124.535,287.77,122.214,285a14.783,14.783,0,0,0,3.237,8.744C125.041,291.731,124.745,289.607,124.535,287.77Z" transform="translate(-113.873 -259.793)"/><path class="v" d="M124.535,287.77,122.214,285a14.783,14.783,0,0,0,3.237,8.744C125.041,291.731,124.745,289.607,124.535,287.77Z" transform="translate(-113.873 -259.793)"/><path class="i" d="M87.128,396.149l-.475.983-2.923-.751.233-.912Z" transform="translate(-83.244 -347.732)"/><path class="w" d="M87.128,396.149l-.475.983-2.923-.751.233-.912Z" transform="translate(-83.244 -347.732)"/><path class="h" d="M143.09,396.1h1.5l.439-3.469h-1.5Z" transform="translate(-130.497 -345.471)"/><path class="i" d="M151.738,408.592a2.509,2.509,0,0,1-.461-.043.035.035,0,0,1-.01-.065c.022-.012.545-.31.8-.243a.175.175,0,0,1,.112.084.135.135,0,0,1,0,.155C152.115,408.57,151.929,408.592,151.738,408.592Zm-.347-.094c.281.039.661.033.728-.061a.1.1,0,0,0,0-.077.1.1,0,0,0-.069-.049,1.252,1.252,0,0,0-.649.192Z" transform="translate(-136.991 -357.891)"/><path class="i" d="M151.285,407.191a.039.039,0,0,1-.02,0,.041.041,0,0,1-.014-.033,1,1,0,0,1,.232-.577.255.255,0,0,1,.2-.061c.1.01.124.059.131.1.029.169-.33.494-.51.573Zm.367-.612a.186.186,0,0,0-.124.047.84.84,0,0,0-.2.461c.186-.11.428-.365.408-.467,0,0,0-.033-.069-.041Z" transform="translate(-136.993 -356.527)"/><path class="l" d="M142.6,408.79h-1.632a.128.128,0,0,0-.126.1l-.3,1.332a.218.218,0,0,0,.216.265c.591-.01,1.444-.045,2.184-.045.869,0,1.617.049,2.635.049.612,0,.785-.612.528-.679a9.063,9.063,0,0,1-3.143-.908A.679.679,0,0,0,142.6,408.79Z" transform="translate(-128.463 -358.335)"/><path class="m" d="M144.1,392.64h1.5l-.322,2.527-1.469-.226Z" transform="translate(-131.07 -345.479)"/><path class="i" d="M126.543,272.86s1.254,4.193,3.327,9.586a7.519,7.519,0,0,1,.467,4.928,117.527,117.527,0,0,0-2.711,11.542l-2.5-.271s-.1-7.071.789-10.716c.455-1.87.3-2.552-.167-3.17-6.363-8.466-4.654-11.893-4.654-11.893Z" transform="translate(-112.822 -250.129)"/><path class="o" d="M126.543,272.86s1.254,4.193,3.327,9.586a7.519,7.519,0,0,1,.467,4.928,117.527,117.527,0,0,0-2.711,11.542l-2.5-.271s-.1-7.071.789-10.716c.455-1.87.3-2.552-.167-3.17-6.363-8.466-4.654-11.893-4.654-11.893Z" transform="translate(-112.822 -250.129)"/><path class="i" d="M143.687,396.914l-.131,1-2.949-.5-.088-.91Z" transform="translate(-128.451 -348.552)"/><path class="w" d="M143.687,396.914l-.131,1-2.949-.5-.088-.91Z" transform="translate(-128.451 -348.552)"/></g><g transform="translate(36.378 1.267)"><rect class="i" width="2.549" height="0.204" transform="translate(14.577 17.852)"/><rect class="r" width="2.549" height="0.204" transform="translate(14.577 17.852)"/><path class="i" d="M220.419,107.48h13.814a1.391,1.391,0,0,1,1.389,1.389V114a1.391,1.391,0,0,1-1.389,1.389h-.959l.373,1.507a4.008,4.008,0,0,1-2.782-1.507H220.419A1.393,1.393,0,0,1,219.03,114v-5.128a1.393,1.393,0,0,1,1.389-1.389Z" transform="translate(-210.735 -98.043)"/><path class="r" d="M220.419,107.48h13.814a1.391,1.391,0,0,1,1.389,1.389V114a1.391,1.391,0,0,1-1.389,1.389h-.959l.373,1.507a4.008,4.008,0,0,1-2.782-1.507H220.419A1.393,1.393,0,0,1,219.03,114v-5.128a1.393,1.393,0,0,1,1.389-1.389Z" transform="translate(-210.735 -98.043)"/><rect class="i" width="0.204" height="1.699" transform="translate(17.102 2.235)"/><rect class="x" width="0.204" height="1.699" transform="translate(17.102 2.235)"/><path class="i" d="M193.563,61.21H179.749a1.391,1.391,0,0,0-1.389,1.385v5.132a1.391,1.391,0,0,0,1.389,1.389h.959l-.381,1.507a4.008,4.008,0,0,0,2.79-1.5h10.447a1.393,1.393,0,0,0,1.389-1.389V62.595A1.393,1.393,0,0,0,193.563,61.21Z" transform="translate(-178.36 -61.21)"/><path class="x" d="M193.563,61.21H179.749a1.391,1.391,0,0,0-1.389,1.385v5.132a1.391,1.391,0,0,0,1.389,1.389h.959l-.381,1.507a4.008,4.008,0,0,0,2.79-1.5h10.447a1.393,1.393,0,0,0,1.389-1.389V62.595A1.393,1.393,0,0,0,193.563,61.21Z" transform="translate(-178.36 -61.21)"/></g></svg>