<svg xmlns="http://www.w3.org/2000/svg" width="336.34" height="250.614" viewBox="0 0 336.34 250.614"><defs><style>.a{fill:#ebebeb;}.b{fill:#e6e6e6;}.c{fill:#f0f0f0;}.d{fill:#f5f5f5;}.e{fill:#e0e0e0;}.f{fill:#fafafa;}.g,.i{fill:#fff;}.h{fill:#b24bf3;}.i{opacity:0.1;}.j{fill:#263238;}.k{fill:#b78876;}.l{fill:#aa6550;}.m{fill:#455a64;}.n,.r{opacity:0.3;}.o{fill:#ce7a63;}.p{opacity:0.2;}.q{opacity:0.5;}.s{fill:#ba4d3c;}</style></defs><g transform="translate(0 -55)"><g transform="translate(0 55)"><rect class="a" width="336.34" height="0.168" transform="translate(0 220.235)"/><path class="a" d="M171.932,245.234H42.044a3.841,3.841,0,0,1-3.834-3.841V58.807A3.841,3.841,0,0,1,42.044,55H171.932a3.841,3.841,0,0,1,3.841,3.841V241.393A3.841,3.841,0,0,1,171.932,245.234ZM42.044,55.135a3.673,3.673,0,0,0-3.666,3.673V241.393a3.673,3.673,0,0,0,3.666,3.673H171.932a3.68,3.68,0,0,0,3.673-3.673V58.807a3.68,3.68,0,0,0-3.673-3.673Z" transform="translate(-12.507 -55)"/><path class="a" d="M388.235,245.234H258.341a3.848,3.848,0,0,1-3.841-3.841V58.807A3.848,3.848,0,0,1,258.341,55H388.235a3.841,3.841,0,0,1,3.828,3.807V241.393A3.841,3.841,0,0,1,388.235,245.234ZM258.341,55.135a3.68,3.68,0,0,0-3.673,3.673V241.393a3.68,3.68,0,0,0,3.673,3.673H388.235a3.68,3.68,0,0,0,3.673-3.673V58.807a3.68,3.68,0,0,0-3.673-3.673Z" transform="translate(-83.303 -55)"/><rect class="a" width="17.49" height="0.168" transform="translate(117.342 226.639)"/><rect class="a" width="36.392" height="0.168" transform="translate(35.289 224.816)"/><rect class="a" width="17.705" height="0.168" transform="translate(98.965 232.888)"/><rect class="a" width="26.12" height="0.168" transform="translate(173.706 231.758)"/><rect class="a" width="7.191" height="0.168" transform="translate(205.813 231.758)"/><rect class="a" width="36.701" height="0.168" transform="translate(265.944 228.92)"/><path class="b" d="M353.22,290.829h41.289c7.884,0,14.321-4.9,14.483-11.012l1.54-38.343c.121-4.588-4.635-8.355-10.548-8.355H374.1c-5.381,0-9.875,3.121-10.48,7.258Z" transform="translate(-115.616 -113.302)"/><path class="b" d="M322.71,309.78h41.572v6.142h-44.43a1.648,1.648,0,0,1-1.641-1.641h0A4.5,4.5,0,0,1,322.71,309.78Z" transform="translate(-104.157 -138.395)"/><path class="b" d="M356.832,361.277h-1.884l-4.426-16.568-.942-3.511-5.886-21.9H321.241l-11.234,42H308.13l11.436-42.856a.908.908,0,0,1,.908-.572h23.974a.9.9,0,0,1,.9.572l5.153,19.252.935,3.525Z" transform="translate(-100.857 -141.042)"/><path class="b" d="M410.462,361.277h-1.883L397.345,319.3H374.877l-5.866,21.916-.935,3.511L363.643,361.3H361.76l5.381-20.079.942-3.525,5.146-19.252a.9.9,0,0,1,.9-.572H398.1a.9.9,0,0,1,.9.572Z" transform="translate(-118.411 -141.042)"/><rect class="c" width="21.129" height="62.196" transform="translate(49.126 154.097)"/><rect class="c" width="93.025" height="3.942" transform="translate(53.182 216.293)"/><rect class="d" width="80.009" height="62.196" transform="translate(150.263 216.293) rotate(180)"/><rect class="c" width="63.393" height="20.396" transform="translate(141.956 182.155) rotate(180)"/><rect class="c" width="63.393" height="20.396" transform="translate(141.956 208.638) rotate(180)"/><rect class="d" width="20.867" height="2.798" rx="1.399" transform="translate(99.826 170.558)"/><rect class="d" width="20.867" height="2.798" rx="1.399" transform="translate(99.826 197.041)"/><path class="b" d="M169.687,247.927H154.216q.2-.565.4-1.211a.128.128,0,0,0,0-.067q.121-.39.242-.807a3.363,3.363,0,0,0,2.395,1.2h.262a1.971,1.971,0,0,0,1.769-1.662.249.249,0,0,0-.148-.249,4.406,4.406,0,0,0-4.036-.155c.161-.639.316-1.312.457-2.018a.148.148,0,0,0,0-.094c.04-.2.081-.4.114-.6a3.564,3.564,0,0,0,2.361,1.3h0c.868,0,1.608-.673,2.267-1.951a.235.235,0,0,0-.108-.289,4.316,4.316,0,0,0-4.386.094c.074-.518.141-1.049.188-1.588h0c.04-.451.067-.9.087-1.345a2.967,2.967,0,0,0,2.018,1.1h.155c.948-.087,1.675-1.029,1.951-2.5a.249.249,0,0,0-.047-.175.283.283,0,0,0-.155-.108,4.5,4.5,0,0,0-3.935.713,10.366,10.366,0,0,0-.054-1.292,2.943,2.943,0,0,0,.471.047,3.114,3.114,0,0,0,2.482-1.473.188.188,0,0,0,0-.188.256.256,0,0,0-.155-.135,2.926,2.926,0,0,0-2.388-.1,1.615,1.615,0,0,0-.733.942,6.9,6.9,0,0,0-4.85-3.5.161.161,0,0,0-.155.04.155.155,0,0,0-.047.155c.222,1.433.632,3.182,1.883,4.036a2.906,2.906,0,0,0,1.648.478,5,5,0,0,0,1.426-.235,22.107,22.107,0,0,1,0,3.061,10.763,10.763,0,0,0-4.863-2.973.168.168,0,0,0-.222.148,3.417,3.417,0,0,0,1.1,2.9,3.888,3.888,0,0,0,2.57.821,7.072,7.072,0,0,0,1.345-.141c-.087.841-.209,1.668-.357,2.455-.767-.565-2.96-2.018-4.89-1.413a.168.168,0,0,0-.108.114.222.222,0,0,0,0,.168,5.056,5.056,0,0,0,2.5,2.381,2.34,2.34,0,0,0,.673.1,3.229,3.229,0,0,0,1.621-.5c-.229,1.049-.484,2.018-.747,2.893a4.944,4.944,0,0,0-4.386-1.1.161.161,0,0,0-.114.222,3.363,3.363,0,0,0,1.924,2.018,2.691,2.691,0,0,0,1.009.2,2.536,2.536,0,0,0,1.251-.336l-.249.726h-13a50.754,50.754,0,0,1-.881-5.159,4.951,4.951,0,0,0,1.594.262,6.216,6.216,0,0,0,3.471-1.137,6.493,6.493,0,0,0,2.987-4.581.229.229,0,0,0-.283-.249,13.011,13.011,0,0,0-7.944,4.224,54.787,54.787,0,0,1-.289-5.489,4.594,4.594,0,0,0,2.462.8,3.975,3.975,0,0,0,1.177-.182c2.112-.673,4.036-2.967,5.839-5.381a.383.383,0,0,0,.081-.283.215.215,0,0,0-.155-.182c-3.518-1.083-7.951,2.637-9.384,3.969a43.627,43.627,0,0,1,.39-4.89,12.384,12.384,0,0,0,2.381.242,8.072,8.072,0,0,0,5.059-1.574,7.11,7.11,0,0,0,2.657-5.348c0-.188-.135-.3-.343-.242a23.526,23.526,0,0,0-9.532,5.529c.047-.289.1-.585.161-.881a.323.323,0,0,0,0-.2,2.793,2.793,0,0,0-1.224-2.637c-.969-.545-2.455-.471-4.406.235a.558.558,0,0,0-.289.235.343.343,0,0,0,0,.309,4.85,4.85,0,0,0,4.177,2.63,5.289,5.289,0,0,0,.942-.1q-.229,1.231-.383,2.462c-1.016-.841-3.363-2.173-7.13-1.218a.518.518,0,0,0-.283.182.4.4,0,0,0-.108.283c.188,2.691,1.345,4.386,3.041,4.534h.242c.895,0,2.253-.41,4.036-2.065a48.188,48.188,0,0,0-.141,5.543,7.845,7.845,0,0,0-8.072-.081.431.431,0,0,0-.229.478c.915,2.368,2.126,3.518,3.7,3.518h.04c1.312,0,2.832-.821,4.635-2.442.108,1.776.289,3.471.518,5.045-1.345-1.043-3.209-.874-5.839.491a.565.565,0,0,0-.262.283.262.262,0,0,0,.047.289,5.994,5.994,0,0,0,3.828,1.554,5.032,5.032,0,0,0,2.529-.673c.121.673.249,1.305.37,1.917H117.42c.431-1.157.9-2.509,1.345-4.036a.49.49,0,0,0,.04-.141q.256-.821.5-1.7a7.163,7.163,0,0,0,5.045,2.523,5.052,5.052,0,0,0,.552-.034,4.124,4.124,0,0,0,3.747-3.6.545.545,0,0,0-.309-.525,9.312,9.312,0,0,0-8.5-.33c.343-1.345.673-2.758.962-4.231a.377.377,0,0,0,.04-.2c.081-.417.155-.834.229-1.258,1.843,1.83,3.478,2.731,4.971,2.731h0c1.823,0,3.363-1.345,4.769-4.11a.5.5,0,0,0-.222-.605c-3.592-2.327-7.507-.74-9.236.2.161-1.1.3-2.213.4-3.363h0v-.054c.081-.942.135-1.89.168-2.852,1.81,1.843,3.289,2.307,4.312,2.307h.33c2.018-.2,3.525-2.173,4.1-5.281a.478.478,0,0,0-.094-.357.592.592,0,0,0-.33-.229,9.512,9.512,0,0,0-8.294,1.493c0-.9-.04-1.81-.1-2.691a5.813,5.813,0,0,0,1,.1,6.531,6.531,0,0,0,5.213-3.1.417.417,0,0,0,0-.39.619.619,0,0,0-.33-.3c-2.139-.787-3.834-.854-5.025-.2a3.323,3.323,0,0,0-1.54,1.984,14.564,14.564,0,0,0-10.2-7.4.383.383,0,0,0-.336.087.343.343,0,0,0-.1.323c.464,3.014,1.345,6.727,3.976,8.456a6.054,6.054,0,0,0,3.464,1,10.594,10.594,0,0,0,3-.491,47.874,47.874,0,0,1-.034,6.444c-1.514-1.561-5.321-5.052-10.238-6.256a.35.35,0,0,0-.464.316,7.163,7.163,0,0,0,2.294,6.088A8.18,8.18,0,0,0,117.9,230.1a15.039,15.039,0,0,0,2.859-.3c-.175,1.776-.437,3.511-.747,5.173-1.608-1.2-6.236-4.238-10.292-2.967a.33.33,0,0,0-.229.229.464.464,0,0,0,.067.357c1.789,2.872,3.458,4.467,5.26,5.011a4.742,4.742,0,0,0,1.433.215,6.76,6.76,0,0,0,3.4-1.063c-.471,2.2-1.016,4.258-1.574,6.094a10.359,10.359,0,0,0-9.222-2.321.35.35,0,0,0-.249.464,7.1,7.1,0,0,0,4.036,4.245,5.791,5.791,0,0,0,2.119.417,5.274,5.274,0,0,0,2.637-.726c-.377,1.137-.74,2.139-1.076,3.02H101.747c-.431-1.285-.874-2.745-1.271-4.339a4.708,4.708,0,0,0,1.419.229,5.18,5.18,0,0,0,5.032-5,.235.235,0,0,0-.276-.215,9.747,9.747,0,0,0-6.485,3.693,41.093,41.093,0,0,1-.848-4.8,4.467,4.467,0,0,0,2.233.673,3.276,3.276,0,0,0,1.016-.161c1.776-.565,3.222-2.59,4.52-4.709a.316.316,0,0,0,.04-.242.222.222,0,0,0-.155-.161c-3.189-.942-6.66,2.307-7.776,3.464a39.014,39.014,0,0,1-.182-4.272,11.186,11.186,0,0,0,2.105.215,6.424,6.424,0,0,0,4.258-1.379,5.5,5.5,0,0,0,1.742-4.675.235.235,0,0,0-.323-.209,17.492,17.492,0,0,0-7.743,4.837,4.232,4.232,0,0,1,.047-.774.249.249,0,0,0-.047-.175,2.785,2.785,0,0,0-1.345-2.307c-.908-.478-2.193-.41-3.828.209a.377.377,0,0,0-.222.209.262.262,0,0,0,0,.262,4.967,4.967,0,0,0,3.935,2.3,4.422,4.422,0,0,0,.814-.087c-.047.72-.074,1.433-.074,2.153a7.251,7.251,0,0,0-6.364-1.056.41.41,0,0,0-.222.161.323.323,0,0,0-.067.249c.451,2.354,1.628,3.834,3.148,3.962h.188a4.81,4.81,0,0,0,3.323-1.81,41.741,41.741,0,0,0,.471,4.843c-1.305-.673-4.325-1.884-7.07-.067a.343.343,0,0,0-.155.417c1.063,2.065,2.24,3.074,3.612,3.074h.04c1.137,0,2.381-.72,3.787-2.132.283,1.554.619,3.034.989,4.406-1.258-.908-2.893-.767-5.045.431a.4.4,0,0,0-.2.242.262.262,0,0,0,.074.256,5.947,5.947,0,0,0,3.511,1.345,4.1,4.1,0,0,0,2.139-.605c.155.518.316,1.022.471,1.5H86.84V250.6h5.61l3.949,10h63.7l3.949-10h5.637Z" transform="translate(-28.424 -106.516)"/><path class="e" d="M255.138,67.74H73.03v85.753H75.2l1.258,2.1H90.116l1.258-2.1H255.138Z" transform="translate(-23.904 -59.17)"/><path class="b" d="M256.265,67.74H74.15v85.753h2.173l1.265,2.1H91.236l1.265-2.1H256.265Z" transform="translate(-24.271 -59.17)"/><rect class="f" width="78.253" height="174.607" transform="translate(228.24 12.323) rotate(90)"/><path class="g" d="M242.338,151.573,203.4,73.32H187.05l38.928,78.253Z" transform="translate(-61.225 -60.997)"/><path class="g" d="M210.816,151.573,171.881,73.32H164.63l38.935,78.253Z" transform="translate(-53.887 -60.997)"/><circle class="f" cx="0.975" cy="0.975" r="0.975" transform="translate(55.099 93.61)"/><circle class="c" cx="0.975" cy="0.975" r="0.975" transform="translate(58.194 93.61)"/></g><g transform="translate(37.744 290.384)"><ellipse class="d" cx="130.426" cy="7.615" rx="130.426" ry="7.615"/></g><g transform="translate(152.348 79.405)"><rect class="h" width="0.673" height="3.706" transform="translate(131.603 38.242)"/><rect class="h" width="0.673" height="11.059" transform="translate(131.603 24.008)"/><path class="h" d="M348.329,91.28H245.712a8.072,8.072,0,0,0-8.072,8.072v33.8l-11.16,11.16,11.16,11.166v68.089a8.072,8.072,0,0,0,8.072,8.072H348.329a8.072,8.072,0,0,0,8.072-8.072V99.352A8.072,8.072,0,0,0,348.329,91.28Z" transform="translate(-226.48 -91.28)"/><path class="i" d="M298.645,231.641H272L298.941,91.28h26.645Z" transform="translate(-241.38 -91.28)"/><path class="i" d="M337.309,231.641H327.75L354.684,91.28h9.559Z" transform="translate(-259.628 -91.28)"/><path class="g" d="M332.643,106.612a2.422,2.422,0,1,1-2.422-2.422A2.422,2.422,0,0,1,332.643,106.612Z" transform="translate(-259.644 -95.506)"/><circle class="g" cx="2.422" cy="2.422" r="2.422" transform="translate(58.59 8.684)"/><path class="g" d="M346.763,106.612a2.422,2.422,0,1,1-2.422-2.422,2.422,2.422,0,0,1,2.422,2.422Z" transform="translate(-264.266 -95.506)"/><g transform="translate(17.418 25.531)"><g transform="translate(91.122 114.576) rotate(180)"><path class="j" d="M.491,11.024c-.042,1.518,1.358,2.688,2.786,3.246s2.981.766,4.242,1.612a20.505,20.505,0,0,1,2.807,2.876,9.343,9.343,0,0,0,15.712-4.287c.54-2.159.171-4.712-1.532-6.15-1.978-1.665-4.907-1.3-7.438-.777s-5.4,1.045-7.515-.456A10.872,10.872,0,0,1,6.766,3.38,6.551,6.551,0,0,0,3.535.145C2.044-.364.052.514,0,2.07" transform="translate(23.456 93.037)"/><path class="j" d="M5.08,29.066c.167-1.271-.752-2.41-1.668-3.308S1.462,23.908,1.3,22.623c-.188-1.487.9-2.95.582-4.416a10.743,10.743,0,0,0-1.362-2.49,5.307,5.307,0,0,1-.268-3.9c.376-1.282.979-4.141,1.87-5.137A20.544,20.544,0,0,1,12.1.733,38.7,38.7,0,0,1,23.119.127c3.016.185,6.488.045,9,4.2,1.3,2.152,1.947,5.008,2.636,7.424.6,2.089,1.114,4.308.494,6.383-.348,1.2-1.09,2.281-1.445,3.482a27.345,27.345,0,0,0-.46,4.691,10.764,10.764,0,0,1-15.322,8.5" transform="translate(18.968 74.163)"/><path class="k" d="M23.207,36.243c-.282,4.329-3.162,9.636-7.477,9.169L2.268,41.978A2.546,2.546,0,0,1,0,39.4L1.515,6.914,1.421,6.9S4.489-2.266,13.394.531c1.766.557,2.573,2.486,2.922,4.475h.091v.7a21.322,21.322,0,0,1,.052,4.461h0c.024,2.622.021,3.695.024,3.67s5.53.933,6.658,8.152C23.715,25.548,23.52,31.434,23.207,36.243Z" transform="translate(27.662 61.773)"/><path class="j" d="M1.846.94A.923.923,0,0,0,.958,0,.888.888,0,0,0,0,.835a.926.926,0,0,0,.891.937A.885.885,0,0,0,1.846.94Z" transform="translate(46.854 92.726)"/><path class="j" d="M3.661.019c-.115-.122-.818.4-1.814.394S.106-.093.012.029C-.04.081.078.3.395.53A2.511,2.511,0,0,0,1.861.987,2.438,2.438,0,0,0,3.306.527C3.613.29,3.721.074,3.661.019Z" transform="translate(45.94 94.932)"/><path class="j" d="M1.846.94A.926.926,0,0,0,.954,0,.884.884,0,0,0,0,.835a.923.923,0,0,0,.888.937A.885.885,0,0,0,1.846.94Z" transform="translate(37.065 92.726)"/><path class="j" d="M3.658.019C3.543-.1,2.84.412,1.844.409S.12-.1.012.026C-.04.081.075.3.4.531A2.552,2.552,0,0,0,1.861.987,2.438,2.438,0,0,0,3.3.524C3.609.29,3.714.057,3.658.019Z" transform="translate(36.151 94.727)"/><path class="j" d="M.484.041A6.788,6.788,0,0,0,2.1.337c.254.024.494.077.54.251a1.288,1.288,0,0,1-.174.752L1.71,3.277a34.113,34.113,0,0,0-1.7,5.06A33.557,33.557,0,0,0,2.1,3.423q.383-1.017.724-1.947a1.463,1.463,0,0,0,.136-1A.641.641,0,0,0,2.542.108,1.764,1.764,0,0,0,2.111.045,6.21,6.21,0,0,0,.484.041Z" transform="translate(42.957 87.325)"/><path class="l" d="M9.671,1.807A18.345,18.345,0,0,0,0,4.366S2.438-.624,9.664.065Z" transform="translate(34.485 73.772)"/><path class="l" d="M2.964,1.533A1.786,1.786,0,0,1,1.355,2.2,1.63,1.63,0,0,1,.223,1.586,1.045,1.045,0,0,1,.15.4,1.191,1.191,0,0,1,1.456.074,3.785,3.785,0,0,1,2.727.837a1.024,1.024,0,0,1,.282.293.348.348,0,0,1,0,.373" transform="translate(40.06 83.43)"/><path class="j" d="M.158,2.856c.16,0,.164-1.073,1.093-1.835S3.341.376,3.341.223C3.341.157,3.083.014,2.6,0A2.685,2.685,0,0,0,.858.6,2.344,2.344,0,0,0,.011,2.142C-.037,2.595.081,2.863.158,2.856Z" transform="translate(40.355 83.814)"/><path class="j" d="M4.546.6C4.449.327,3.453.452,2.286.31S.172-.154.016.087C-.054.2.11.459.493.72a3.719,3.719,0,0,0,1.678.592,3.782,3.782,0,0,0,1.769-.2C4.369.936,4.585.727,4.546.6Z" transform="translate(35.712 95.891)"/><path class="j" d="M3.394.1c-.178-.226-.864,0-1.689,0S.184-.053.02.181C-.05.3.062.529.368.738A2.438,2.438,0,0,0,3.084.661C3.374.442,3.478.209,3.394.1Z" transform="translate(45.835 97.734)"/><path class="j" d="M0,.407A6.408,6.408,0,0,1,7.623,7.494c-.223,1.773-1.181,3.576-.564,5.255.811,2.218,3.921,2.9,4.746,5.116.481,1.285.049,2.786.592,4.05a4.81,4.81,0,0,0,2.974,2.309,12.434,12.434,0,0,1,3.535,1.532,2.775,2.775,0,0,1,1,3.4A68.255,68.255,0,0,1,4.134,25.324,6.064,6.064,0,0,1,1.02,23.308,6.406,6.406,0,0,1,.38,19.439L1.288,0" transform="translate(24.891 79.597)"/><path class="m" d="M4.776,0a.827.827,0,0,0-.118.073l-.32.244c-.279.219-.7.543-1.194.993a12.334,12.334,0,0,0-1.7,1.783A6.658,6.658,0,0,0,.1,6.066a4.527,4.527,0,0,0,.93,3.8A14.5,14.5,0,0,0,2.708,11.3,3.9,3.9,0,0,1,4.02,13.08c.533,1.47.3,3.172.5,4.914A9.772,9.772,0,0,0,6.57,22.966a6.718,6.718,0,0,0,2.138,1.741,13.062,13.062,0,0,0,2.525.85,5.888,5.888,0,0,1,2.218,1.093,8.8,8.8,0,0,1,1.609,1.773c.905,1.288,1.578,2.661,2.438,3.806a8.159,8.159,0,0,0,1.421,1.508,5.45,5.45,0,0,0,1.685.919,3.6,3.6,0,0,0,3.207-.32,2.957,2.957,0,0,0,1.139-2.159,2.166,2.166,0,0,0-.435-1.487,1.393,1.393,0,0,0-.293-.282.5.5,0,0,0-.118-.077.789.789,0,0,0,.1.1,1.6,1.6,0,0,1,.261.3,2.124,2.124,0,0,1,.348,1.438,2.831,2.831,0,0,1-1.118,2.027,3.413,3.413,0,0,1-3.03.251,5.223,5.223,0,0,1-1.605-.895,8.306,8.306,0,0,1-1.365-1.477c-.836-1.125-1.494-2.5-2.413-3.831A8.956,8.956,0,0,0,13.621,26.4a6.112,6.112,0,0,0-2.288-1.132,12.8,12.8,0,0,1-2.469-.836,6.438,6.438,0,0,1-2.041-1.672,9.469,9.469,0,0,1-1.992-4.806c-.212-1.682.031-3.413-.536-4.976a4.224,4.224,0,0,0-1.393-1.9A14.734,14.734,0,0,1,1.242,9.681,4.294,4.294,0,0,1,.336,6.094,6.523,6.523,0,0,1,1.6,3.193a13.346,13.346,0,0,1,1.64-1.8C3.735.933,4.132.6,4.4.348A4.208,4.208,0,0,0,4.776,0Z" transform="translate(20.567 77.525)"/><path class="j" d="M23.86,38.534c-1.484,1.435-4.015.188-5.262-1.456s-2.128-3.768-4.019-4.6-4.346-.115-5.92-1.431c-2.187-1.818-.958-6.028-3.326-7.609-.937-.627-2.176-.606-3.179-1.121C-.211,21.1-.183,17.765.183,15.129c.5-3.709,1.062-7.539,3.1-10.674S9.3-.869,12.831.336c3.4,1.16,5.14,4.823,6.522,8.135q2.863,6.888,5.732,13.745a32.05,32.05,0,0,1,2.58,8.191,10.805,10.805,0,0,1-1.936,8.156" transform="translate(0.164 38.092)"/><path class="h" d="M1.673,4.572C.6,4.7-.229,3.381.057,2.333A3.379,3.379,0,0,1,2.373.244,3.455,3.455,0,0,1,4.159.038a1.741,1.741,0,0,1,1.355,1.09,1.024,1.024,0,0,1-.494,1.355c-.7.442-1.125.79-1.685,1.1-.857.47-.8.533-1.661,1.006" transform="translate(21.4 75.216)"/><path class="h" d="M20.6,68.168,16.412,71.34.634,72.35,0,70.233,5.133,38.209,1.083,0H23.1Z" transform="translate(27.28 0.007)"/><g class="n" transform="translate(30.583 0)"><path d="M.4,13.56a3.612,3.612,0,0,0,2.065,1.3c5.272.115,10.653.641,15.925.759L18.813,0a19.772,19.772,0,0,0-2.786,7.069c-.146,1.107-.348,2.438-1.341,2.9a3,3,0,0,1-1.86.038,44.133,44.133,0,0,0-5.732-.989A9.187,9.187,0,0,0,1.5,10.245,3.43,3.43,0,0,0,.165,11.69,1.772,1.772,0,0,0,.4,13.56Z" transform="translate(0 0)"/></g><path class="h" d="M16.259,7.128l.491,4.579a1.456,1.456,0,0,1-1.316,1.6L.912,14.623a.7.7,0,0,1-.749-.662L0,8.511,4.207,1.376,8.528,0h5.286l3.04,3.246Z" transform="translate(28.206 60.399)"/><path class="j" d="M0,1.481a4.931,4.931,0,0,1,.582.059,10.454,10.454,0,0,0,1.581.028A15.324,15.324,0,0,0,4.489,1.22C5.356,1.039,6.3.785,7.3.541A18.288,18.288,0,0,1,10.158.033a7.391,7.391,0,0,1,2.371.16,4.919,4.919,0,0,1,1.477.613,3.488,3.488,0,0,1,.348.258c.077.063.115.1.108.1s-.171-.115-.5-.3a5.4,5.4,0,0,0-1.473-.55A7.506,7.506,0,0,0,10.165.2,19.216,19.216,0,0,0,7.334.719c-1,.24-1.943.491-2.817.665a14.026,14.026,0,0,1-2.354.3A8.435,8.435,0,0,1,.564,1.6Q.282,1.551.136,1.516C.049,1.5,0,1.488,0,1.481Z" transform="translate(30.351 69.176)"/><g class="n" transform="translate(31.825 66.003)"><path d="M12.3,3.934a3.125,3.125,0,0,0-.39-3.211A2.829,2.829,0,0,0,9.321.068,8.152,8.152,0,0,0,6.8,1.2a22.08,22.08,0,0,1-6.3,2.925A.8.8,0,0,0,.086,4.3a.268.268,0,0,0,0,.394.38.38,0,0,0,.188.052,18.432,18.432,0,0,0,5.972-.808,10.6,10.6,0,0,1,5.972-.07" transform="translate(0 0)"/></g><path class="j" d="M0,4.583a1.334,1.334,0,0,0,.5-.474A3.357,3.357,0,0,0,.7,2.438C.658,1.083.435,0,.488,0a2.368,2.368,0,0,1,.2.7A10.974,10.974,0,0,1,.878,2.438a8.05,8.05,0,0,1-.021.972,1.679,1.679,0,0,1-.251.77A1.006,1.006,0,0,1,.2,4.545C.077,4.593,0,4.593,0,4.583Z" transform="translate(41.345 69.272)"/><path class="j" d="M.147,0a21.054,21.054,0,0,0,.1,2.215C.419,3.43.823,4.353.767,4.374a1.908,1.908,0,0,1-.3-.589,7.2,7.2,0,0,1-.4-1.543A7.061,7.061,0,0,1,.025.648,1.95,1.95,0,0,1,.147,0Z" transform="translate(37.36 69.874)"/><path class="j" d="M.474,3.907A1.431,1.431,0,0,1,.2,3.367,3.81,3.81,0,0,1,.007,1.915,3.751,3.751,0,0,1,.39.5,1.393,1.393,0,0,1,.739,0,4.806,4.806,0,0,0,.478,3.907Z" transform="translate(32.356 70.727)"/><path class="a" d="M2,56.082a16.466,16.466,0,0,0,6.268-9.3C9.294,42.068,12.1,17.2,12.1,17.2l4.907-9.549L13.8.029h0a11.715,11.715,0,0,0-7.7,2.2L3.953,3.794,0,9.654Z" transform="translate(51.193 10.031)"/><path class="a" d="M0,70.508l8.393-4.395L10.374,59.6,12.14,40.734,8.817,18.61,14.647.073,4.593,0l-.24,10.865-1,35.172L2.365,68.443Z" transform="translate(44.803 0)"/><path class="j" d="M.16,0A1.918,1.918,0,0,1,.317.265l.418.77c.174.348.348.773.561,1.268.1.251.188.526.289.815s.212.6.3.923a34.76,34.76,0,0,1,1.2,10.524c0,.32-.024.637-.045.954v.056l-.052.021-1.47.62.021-.153,1.47,1.181.031.024V17.3a12.7,12.7,0,0,1-.669,4.2C2,22.726,1.6,23.785,1.243,24.655S.578,26.2.359,26.665c-.111.233-.2.411-.258.526a1.2,1.2,0,0,1-.1.178.846.846,0,0,1,.073-.188l.233-.54c.2-.467.495-1.153.836-2.027s.731-1.933,1.086-3.159a12.742,12.742,0,0,0,.637-4.141l.035.059L1.428,16.2l-.115-.094.136-.059,1.47-.62-.056.077c.021-.31.035-.627.045-.947A35.941,35.941,0,0,0,1.762,4.078c-.08-.331-.188-.634-.282-.923S1.3,2.587,1.2,2.337C1,1.842.853,1.407.672,1.066L.289.282A2.307,2.307,0,0,1,.16,0Z" transform="translate(48.707 41.186)"/><path class="j" d="M.07,0A2.6,2.6,0,0,1,.15.272q.073.3.2.794c.087.348.185.766.282,1.257S.857,3.367.954,4s.23,1.309.324,2.048.188,1.532.275,2.364c.153,1.672.254,3.514.254,5.45s-.115,3.778-.272,5.446c-.094.832-.174,1.626-.289,2.365S1.031,23.1.919,23.725.69,24.909.571,25.4s-.2.916-.289,1.257-.15.6-.2.79a1.991,1.991,0,0,1-.08.275,1.6,1.6,0,0,1,.045-.282l.167-.8c.077-.348.171-.77.258-1.264S.683,24.338.777,23.7s.216-1.306.3-2.044.185-1.529.272-2.357c.146-1.668.251-3.5.258-5.436s-.1-3.764-.237-5.433c-.087-.829-.157-1.623-.261-2.358s-.2-1.424-.3-2.048S.6,2.838.515,2.344.338,1.424.261,1.079.136.481.1.282A1.33,1.33,0,0,1,.07,0Z" transform="translate(55.386 27.974)"/><path class="j" d="M0,4.9a3.586,3.586,0,0,1,.407-.846A13.686,13.686,0,0,1,1.692,2.194,13.477,13.477,0,0,1,3.266.568,3.775,3.775,0,0,1,4.015,0a6.7,6.7,0,0,1-.662.662A20.3,20.3,0,0,0,1.832,2.309,20.023,20.023,0,0,0,.515,4.123,6.723,6.723,0,0,1,0,4.9Z" transform="translate(53.185 6.084)"/><path class="a" d="M14.607,53.774a11.551,11.551,0,0,1-7.083-8.218C4.776,33.451.079,17.349,0,12.149-.088,5.533,2.788,1.006,6.58.17,9.568-.492,36.64.992,36.64.992l1.268,10.1L15.969,14.319l3,16.743L16,54.3Z" transform="translate(0 12.879)"/><path class="a" d="M5.857,67.179l6.063,2.476L18.31,73.4l.038-1.1h0a6.428,6.428,0,0,1-.77-4.444l5.328-27.741L21.7,19.85,19.226,0H0L8.828,20.772,5.711,48.767Z" transform="translate(10.143 0.014)"/><path class="j" d="M0,.1.132.087.519.049C.867.014,1.365.017,2.02,0c1.3,0,3.2.028,5.554.1,4.712.157,11.269.474,18.676.9h.073v.077c.15,1.2.31,2.469.47,3.754.275,2.177.54,4.3.794,6.331v.087H27.5L10.761,13.693l-4.917.7-1.32.178-.348.045H4.057l.115-.024.348-.059,1.316-.209,4.907-.749,16.715-2.5-.073.1c-.258-2.034-.526-4.155-.8-6.331-.164-1.289-.32-2.556-.47-3.757l.084.077C18.8.731,12.237.393,7.529.2,5.175.111,3.284.059,1.981.042c-.651,0-1.16,0-1.5.021L.1.084Z" transform="translate(10.383 12.773)"/><path class="j" d="M3.13,18.533a.715.715,0,0,1-.049-.188c-.028-.143-.063-.317-.1-.536-.091-.491-.212-1.163-.348-1.981-.3-1.7-.7-4-1.142-6.547S.678,4.426.392,2.723C.264,1.9.159,1.229.082.735.051.515.027.334.006.192A.794.794,0,0,1,.006,0,.666.666,0,0,1,.058.185C.086.327.121.5.166.721.257,1.215.382,1.884.535,2.7c.3,1.675.7,3.987,1.142,6.547s.822,4.875,1.09,6.557c.125.822.23,1.5.306,1.992q.042.327.073.543A.882.882,0,0,1,3.13,18.533Z" transform="translate(16.019 27.121)"/><path class="j" d="M.881,31.481a.168.168,0,0,0-.024-.07l-.056-.2c-.045-.181-.122-.442-.2-.791a25.32,25.32,0,0,1-.46-2.984,33.384,33.384,0,0,1-.115-4.555c.059-1.741.24-3.646.5-5.676V17.14H.6l2-.369-.066.122c-.115-.306-.23-.634-.32-.972A12.345,12.345,0,0,1,2.43,9.2,21.055,21.055,0,0,1,4.757,4.182c.829-1.344,1.574-2.375,2.089-3.089l.6-.815c.063-.087.118-.153.16-.209A.283.283,0,0,1,7.668,0s0,.028-.045.08L7.476.3c-.139.2-.348.481-.571.836-.5.724-1.229,1.766-2.037,3.113A21.5,21.5,0,0,0,2.59,9.242a12.21,12.21,0,0,0-.212,6.617,9.888,9.888,0,0,0,.313.954l.038.1-.108.021L.64,17.3l.073-.077C.449,19.247.257,21.155.191,22.883A35,35,0,0,0,.264,27.41a27.765,27.765,0,0,0,.407,2.984c.063.348.132.613.164.794.017.084.031.15.042.205A.228.228,0,0,1,.881,31.481Z" transform="translate(24.783 39.971)"/><path class="h" d="M0,3.343V7.763s-.056,1.09.864.86.749-1.954.749-1.954S1.784-.055,1.383,0,.826.575.826.575V3.162Z" transform="translate(25.663 39.661)"/><path class="j" d="M0,.1A15.27,15.27,0,0,1,2.371.012,15.27,15.27,0,0,1,4.743.1,15.816,15.816,0,0,1,2.372.193,15.817,15.817,0,0,1,0,.1Z" transform="translate(21.84 42.626)"/><path class="j" d="M0,10.148a3.272,3.272,0,0,1,.494-.185A11.176,11.176,0,0,0,1.811,9.4,10.234,10.234,0,0,0,5.37,6.362a7.588,7.588,0,0,0,.7-1.139,7.377,7.377,0,0,0,.418-1.17,11.527,11.527,0,0,0,.348-2.089c.049-.6.059-1.1.063-1.435A4.52,4.52,0,0,1,6.9,0a2.125,2.125,0,0,1,.07.508,12.693,12.693,0,0,1,0,1.445,10.759,10.759,0,0,1-.317,2.124,7.318,7.318,0,0,1-.421,1.2,7.738,7.738,0,0,1-.714,1.17,9.834,9.834,0,0,1-3.65,3.04,9.084,9.084,0,0,1-1.348.522A2.608,2.608,0,0,1,0,10.148Z" transform="translate(13.096 53.88)"/><path class="j" d="M58.372,15.81,26.7,4.081,0,0,31.745,15.476Z" transform="translate(32.75 11.419)"/><path class="k" d="M2.532.091a13.48,13.48,0,0,0,1.692,4.8,3.482,3.482,0,0,1,.432.9,1.024,1.024,0,0,1-.178.944c-.407.442-1.149.247-1.651-.087A5.8,5.8,0,0,1,.7,3.66,17.342,17.342,0,0,1,0,0" transform="translate(75.037 14.49)"/><path class="k" d="M5.767,7.783H7.341a3.085,3.085,0,0,0,1.393.794A1.094,1.094,0,0,0,9.779,8.17c-.7,1.16-1.463,2.438-1.609,2.786-.282.679.348,1.187,1.362,1.187s5.5-6.348,5.5-6.348-2.786,5.109-3.054,5.889c-.676,1.95,1.459,2.089,2.232,1.153.961-1.167,4.844-7.041,4.844-7.041a2.735,2.735,0,0,0,.23-2.323c-.508-1.132-1.985-.7-1.985-.7A1.9,1.9,0,0,0,16.252,1.2a3.231,3.231,0,0,0-2.633.1L7.814,0,5.725.209A6.435,6.435,0,0,0,0,5.669H0Z" transform="translate(59.457 9.813)"/><path class="l" d="M0,5.286A18.063,18.063,0,0,1,1.71,2.577c.5-.728.965-1.393,1.309-1.846A4.613,4.613,0,0,1,3.6,0a4.727,4.727,0,0,1-.481.8c-.317.484-.763,1.149-1.264,1.877S.9,4.074.565,4.534l-.4.554A1.417,1.417,0,0,1,0,5.286Z" transform="translate(69.123 12.787)"/><path class="l" d="M2.943,0a5.735,5.735,0,0,1-.515.947C2.08,1.518,1.6,2.295,1.063,3.159.795,3.587.537,4,.328,4.377A1.411,1.411,0,0,0,.2,5.453a2.674,2.674,0,0,0,.494.923.934.934,0,0,1-.223-.188,1.8,1.8,0,0,1-.394-.7A1.508,1.508,0,0,1,.178,4.3c.209-.393.463-.808.728-1.24C1.446,2.2,1.951,1.435,2.32.881A7.61,7.61,0,0,1,2.943,0Z" transform="translate(66.532 11.61)"/><path class="l" d="M1.378,0a3.245,3.245,0,0,1-.31.9l-.414.947A7.748,7.748,0,0,0,.229,3.016,1.372,1.372,0,0,0,.413,4.148a1.069,1.069,0,0,0,.414.3,1.144,1.144,0,0,0,.432.122,1.739,1.739,0,0,0,.623-.219.741.741,0,0,1,.237-.1,1.594,1.594,0,0,1-.2.16,2.839,2.839,0,0,1-.261.157,1.022,1.022,0,0,1-.4.129,1.284,1.284,0,0,1-.495-.111,1.177,1.177,0,0,1-.481-.327,1.494,1.494,0,0,1-.23-1.278A6.665,6.665,0,0,1,.5,1.779c.164-.348.32-.665.449-.93A8.962,8.962,0,0,1,1.378,0Z" transform="translate(65.05 11.032)"/><path class="l" d="M2.176,5.374A.62.62,0,0,1,1.932,5.3a2.843,2.843,0,0,1-.606-.348A3.3,3.3,0,0,1,.389.753,2.838,2.838,0,0,1,.783.171C.894.049.967-.006.974,0A5.076,5.076,0,0,0,.5.808a3.357,3.357,0,0,0,.9,4.043,8.367,8.367,0,0,0,.77.522Z" transform="translate(63.184 11.14)"/><path class="l" d="M0,4.113A17.007,17.007,0,0,1,1.313,2.023,16.718,16.718,0,0,1,2.772,0,16.715,16.715,0,0,1,1.463,2.089,16.95,16.95,0,0,1,0,4.113Z" transform="translate(75.563 15.733)"/><path class="k" d="M1.2,9.131l3.622.818,3.482,3.277a2.49,2.49,0,0,0,1.553.669l6.327.348a2.458,2.458,0,0,0,1.741-.578l4.527-3.831L2.709.24,0,0Z" transform="translate(36.783 14.448)"/><path class="l" d="M0,2.361c0-.028.467.056,1.219.153a5.11,5.11,0,0,0,2.866-.3A7.4,7.4,0,0,0,5.45,1.362c.4-.3.759-.578,1.076-.79A5.719,5.719,0,0,1,7.31.115,1.127,1.127,0,0,1,7.619,0c0,.028-.414.219-1.02.676-.3.223-.651.512-1.045.822a7.189,7.189,0,0,1-1.393.884,4.1,4.1,0,0,1-1.616.348,7.2,7.2,0,0,1-1.341-.1A8.393,8.393,0,0,1,.32,2.445.972.972,0,0,1,0,2.361Z" transform="translate(48.717 22.907)"/><path class="l" d="M0,1.208c0-.028.258.087.7.129a3.6,3.6,0,0,0,1.626-.226A8.36,8.36,0,0,0,3.813.348,3.115,3.115,0,0,1,4.43,0a2.538,2.538,0,0,1-.543.453,6.428,6.428,0,0,1-1.5.825,3.329,3.329,0,0,1-1.706.185A1.292,1.292,0,0,1,0,1.208Z" transform="translate(47.418 20.536)"/><path class="l" d="M0,0c.045-.028.554.731,1.226,1.63a19.84,19.84,0,0,1,1.212,1.64A8.129,8.129,0,0,1,1.083,1.738,7.987,7.987,0,0,1,0,0Z" transform="translate(39.273 21.158)"/><path class="h" d="M8.254,0,.245,7.47A.766.766,0,0,0,.3,8.64h0A.766.766,0,0,0,1.279,8.6l9.4-8.434" transform="translate(40.985 28.333)"/><g class="n" transform="translate(40.985 28.333)"><path d="M8.254,0,.245,7.47A.766.766,0,0,0,.3,8.64h0A.766.766,0,0,0,1.279,8.6l9.4-8.434" transform="translate(0 0)"/></g></g></g></g><g transform="translate(87.341 74.245)"><path class="o" d="M199.934,399.4l4.87-1.13-1.9-11.388-4.87,1.13Z" transform="translate(-152.16 -182.876)"/><path class="j" d="M205.486,402.869l-5.469,1.271a.363.363,0,0,0-.289.417l.706,4.379a.881.881,0,0,0,1.049.673c1.9-.471,2.778-.794,5.186-1.345,1.48-.343,7.81-1.655,9.848-2.126s1.534-2.475.626-2.462c-4.07.087-9.135.074-10.763-.673a1.406,1.406,0,0,0-.895-.135Z" transform="translate(-152.714 -188.103)"/><path class="p" d="M198.03,388.017l4.87-1.137.982,5.872-4.877,1.13Z" transform="translate(-152.16 -182.876)"/><path class="h" d="M178.489,220.47s6.417,40.6,8.3,54.756c2.065,15.505,6.424,60.857,6.424,60.857l-8.826,2.462s-8.361-43.953-11.806-59.028c-3.74-16.36-11.913-59.021-11.913-59.021Z" transform="translate(-139.931 -128.407)"/><path class="q" d="M178.489,220.47s6.417,40.6,8.3,54.756c2.065,15.505,6.424,60.857,6.424,60.857l-8.826,2.462s-8.361-43.953-11.806-59.028c-3.74-16.36-11.913-59.021-11.913-59.021Z" transform="translate(-139.931 -128.407)"/><path class="r" d="M169.446,240.379c3.363,8.6,3.175,25.616,1.729,31.616-2.018-9.841-4.359-21.613-6.155-30.768C165.679,238.872,167.395,235.146,169.446,240.379Z" transform="translate(-141.355 -134.055)"/><path class="h" d="M194.942,393.084l9.451-2.6-.155-3.841-10.649,3.673Z" transform="translate(-150.707 -182.798)"/><path class="h" d="M210.426,402.877a6.5,6.5,0,0,1-1.345.128.114.114,0,0,1-.108-.074.128.128,0,0,1,0-.121c.135-.148,1.3-1.406,1.951-1.312a.444.444,0,0,1,.336.262.632.632,0,0,1,0,.673,1.345,1.345,0,0,1-.834.444Zm-1.063-.114c.908,0,1.547-.2,1.722-.478a.417.417,0,0,0,0-.424.2.2,0,0,0-.161-.135C210.567,401.679,209.847,402.278,209.363,402.762Z" transform="translate(-155.737 -187.659)"/><path class="h" d="M209.019,402.576h-.054a.1.1,0,0,1-.081-.074c0-.061-.444-1.433-.061-2.018a.6.6,0,0,1,.444-.269.437.437,0,0,1,.491.249,2.645,2.645,0,0,1-.673,2.085Zm.222-2.119a.35.35,0,0,0-.222.155,2.6,2.6,0,0,0,0,1.614,2.388,2.388,0,0,0,.5-1.668c0-.061-.087-.128-.256-.114Z" transform="translate(-155.642 -187.238)"/><path class="o" d="M184.552,163.1c.78,1.083,1.426,2.072,2.085,3.135s1.278,2.1,1.863,3.175a71.466,71.466,0,0,1,3.269,6.639c.484,1.137.962,2.287,1.379,3.464.222.585.41,1.184.605,1.783.094.316.2.558.289.928s.175.727.235,1.144a10.258,10.258,0,0,1,.128,1.473,6.055,6.055,0,0,1-.108,1.13,4.144,4.144,0,0,1-.861,1.823,3.585,3.585,0,0,1-1.117.881,3.491,3.491,0,0,1-1.177.363,3.834,3.834,0,0,1-1.5-.121,4.776,4.776,0,0,1-1.453-.673,9.115,9.115,0,0,1-1.662-1.48,13.521,13.521,0,0,1-1.244-1.614l2.489-2.8a19.918,19.918,0,0,0,2.866,1c.161,0,.316,0,.2-.081a1.056,1.056,0,0,0-.612-.074,2.341,2.341,0,0,0-.767.222,2.57,2.57,0,0,0-1.312,1.614c-.047.175-.054.235-.081.242s-.087-.121-.168-.269l-.276-.558c-.1-.188-.215-.491-.323-.733-.222-.511-.424-1.022-.673-1.527-.457-1.016-.935-2.018-1.446-3.034-1.022-2.018-2.119-3.989-3.262-5.946-.579-.975-1.164-1.951-1.762-2.913s-1.218-1.951-1.783-2.805Z" transform="translate(-145.725 -109.629)"/><path class="h" d="M181.434,156.237c-4.951-1.15-7.958,2.018-6.478,8.213a94.785,94.785,0,0,0,3.363,10.447c.289.767.558,1.453.78,2.018l11.234-6.283C189.123,165.715,184.743,157.01,181.434,156.237Z" transform="translate(-144.484 -107.306)"/><path class="r" d="M184.463,164.874c-2.987-2.691.067,8.153,1.345,12.646l3.3-1.843C188.761,172.563,186.756,166.926,184.463,164.874Z" transform="translate(-147.304 -110.071)"/><path class="o" d="M145.98,403.05h4.985l.74-11.55H146.72Z" transform="translate(-135.123 -184.389)"/><path class="j" d="M150.733,407.81h-5.6a.357.357,0,0,0-.37.343l-.309,4.433a.868.868,0,0,0,.868.881c1.951-.034,2.879-.148,5.348-.148,1.514,0,7.958.161,10.05.161s2.052-2.072,1.164-2.26c-3.969-.841-8.893-2.018-10.292-3.1A1.345,1.345,0,0,0,150.733,407.81Z" transform="translate(-134.622 -189.727)"/><path class="p" d="M146.893,391.5h4.985l-.383,5.953H146.51Z" transform="translate(-135.296 -184.389)"/><path class="h" d="M163.149,220.47s.168,37.858-.753,52.133c-1.009,15.64-9.72,67.436-9.72,67.436H143.54s4.541-50.538,4.11-66.017c-.464-16.817-1.44-53.552-1.44-53.552Z" transform="translate(-134.324 -128.407)"/><path class="q" d="M163.149,220.47s.168,37.858-.753,52.133c-1.009,15.64-9.72,67.436-9.72,67.436H143.54s4.541-50.538,4.11-66.017c-.464-16.817-1.44-53.552-1.44-53.552Z" transform="translate(-134.324 -128.407)"/><path class="h" d="M142.771,396.531h9.875l.572-3.471-10.9.545Z" transform="translate(-133.925 -184.899)"/><path class="h" d="M155.712,408.486a6.4,6.4,0,0,1-1.345-.175.135.135,0,0,1-.087-.094.114.114,0,0,1,.054-.114c.155-.114,1.574-1.076,2.186-.841a.43.43,0,0,1,.262.33.673.673,0,0,1-.148.632A1.345,1.345,0,0,1,155.712,408.486Zm-1.009-.343c.888.175,1.547.148,1.783-.087a.417.417,0,0,0,.087-.41.215.215,0,0,0-.128-.168C156.109,407.349,155.282,407.746,154.7,408.143Z" transform="translate(-137.839 -189.536)"/><path class="h" d="M154.41,407.75h-.054a.128.128,0,0,1-.061-.094c0-.061-.108-1.493.4-1.978a.558.558,0,0,1,.491-.161.444.444,0,0,1,.417.35c.114.545-.639,1.588-1.137,1.883Zm.673-2.018a.336.336,0,0,0-.249.1,2.617,2.617,0,0,0-.343,1.581,2.388,2.388,0,0,0,.868-1.514c0-.067-.054-.148-.222-.168Z" transform="translate(-137.842 -188.974)"/><path class="h" d="M172.859,198.742H146.188c-.168-2.381.444-10.131.108-20a126.294,126.294,0,0,0-2.469-21.754c-.114-.538-.235-1.07-.356-1.608,0,0,1.345-.276,3.289-.558,1.614-.235,3.632-.478,5.61-.572a99.485,99.485,0,0,1,11.335,0c1.742.161,3.444.451,4.8.713,1.736.35,2.758.673,2.758.673S177.7,170.7,172.859,198.742Z" transform="translate(-134.301 -106.679)"/><path class="o" d="M185.866,188.875a7.13,7.13,0,0,0-1.816-2.085,11.5,11.5,0,0,1-1.419-.962.33.33,0,0,0-.525.222c-.054.39.108,1.029,1.063,1.957.074,1.231,1.884,2.59,1.884,2.59Z" transform="translate(-146.945 -117.046)"/><path class="r" d="M178.953,189.491H173.41l3.834-10.931h5.543Z" transform="translate(-144.101 -114.689)"/><path class="j" d="M179.513,189.491H173.97L177.8,178.56h5.543Z" transform="translate(-144.285 -114.689)"/><path class="r" d="M146.469,180.135A126.3,126.3,0,0,0,144,158.38c1.783-.155,4.83,0,5.314,2.9C149.825,164.374,149.079,171.652,146.469,180.135Z" transform="translate(-134.475 -108.071)"/><path class="o" d="M145.3,164.313l-2.839,9.714-1.406,4.85-.673,2.422-.336,1.2-.161.605v.074h0a.861.861,0,0,0,0-.128,1.864,1.864,0,0,0,0-.377,2.233,2.233,0,0,0-.343-.895,1.413,1.413,0,0,0-.41-.4c-.175-.094-.061,0,.128.087a7.488,7.488,0,0,0,1.789.39,37.578,37.578,0,0,0,4.709.2c3.263-.04,6.666-.229,10-.457l.74,3.673a67.944,67.944,0,0,1-10.279,2.415,35.5,35.5,0,0,1-5.536.444,13.959,13.959,0,0,1-3.263-.383,6.512,6.512,0,0,1-2.193-.969,4.8,4.8,0,0,1-1.3-1.345,4.648,4.648,0,0,1-.774-2.085,5.168,5.168,0,0,1,0-1.016,1.127,1.127,0,0,1,.061-.444l.047-.269.121-.673.235-1.285c.161-.854.336-1.709.525-2.556.363-1.7.74-3.363,1.164-5.065.827-3.363,1.749-6.66,2.812-9.983Z" transform="translate(-130.915 -109.288)"/><path class="h" d="M139,155.893c-3.323.774-7.05,9.525-8.361,14.442-.222.841-.4,1.561-.531,2.112-.175.726-.269,1.164-.269,1.164l11.146,3.175c.229-.552.511-1.238.807-2.018a94.382,94.382,0,0,0,3.552-10.447C146.926,158.14,143.966,154.749,139,155.893Z" transform="translate(-129.84 -107.198)"/><path class="o" d="M167.274,148.1c-3.289-.78-3.848-2.819-3.612-5.059a13.452,13.452,0,0,1,.276-1.668l-4.1-3.431-3.014-2.516c.814,3.653,1.709,10.305-.78,12.741a47.189,47.189,0,0,0,10.877,6.787C170.812,152.1,167.274,148.1,167.274,148.1Z" transform="translate(-138.416 -100.572)"/><path class="p" d="M165.682,142.6a13.453,13.453,0,0,0-.276,1.668c-1.534-.309-3.854-1.682-4.036-3.417a6.936,6.936,0,0,1,.235-1.682Z" transform="translate(-140.16 -101.796)"/><path class="j" d="M176.382,117.76c1.433,2.274-1.271,8.819-4.709,8.348S173.677,113.442,176.382,117.76Z" transform="translate(-143.171 -94.486)"/><path class="o" d="M157.363,121.61c-.605,4.931-1.218,7.776.753,10.763a6.458,6.458,0,0,0,11.388-1c1.85-4.15,2.536-11.51-1.823-14.463a6.565,6.565,0,0,0-10.319,4.7Z" transform="translate(-138.656 -94.118)"/><path class="j" d="M155.009,123.72c2.523-.316,4.346-4.52,3.828-6.485,1.857,1.345,16.6,3.054,14.348-6.559-4.2,0-21.748-.787-18.835,3-2.018,0-3.928,1.83-2.556,6.054C153.18,124.077,155.009,123.72,155.009,123.72Z" transform="translate(-136.874 -92.447)"/><path class="o" d="M153.494,129.67a5.28,5.28,0,0,0,2.3,2.724c1.345.747,2.153-.484,1.87-2.018-.249-1.392-1.258-3.458-2.691-3.558S152.956,128.217,153.494,129.67Z" transform="translate(-137.518 -97.751)"/><path class="j" d="M168.141,128.536c-.074.4.074.76.33.814s.525-.222.6-.619-.074-.76-.33-.814S168.215,128.139,168.141,128.536Z" transform="translate(-142.37 -98.11)"/><path class="j" d="M174.741,129.949c-.074.4.074.767.33.821s.525-.222.6-.619-.074-.76-.33-.814S174.815,129.559,174.741,129.949Z" transform="translate(-144.531 -98.575)"/><path class="s" d="M172.253,130.1a15.074,15.074,0,0,0,1.244,3.787,2.274,2.274,0,0,1-1.937-.047Z" transform="translate(-143.496 -98.827)"/><path class="j" d="M167.889,135.777a3.444,3.444,0,0,1-2.018-1.8.121.121,0,1,1,.222-.087,3.289,3.289,0,0,0,2.307,1.776.114.114,0,0,1,.094.141.121.121,0,0,1-.141.087,3.987,3.987,0,0,1-.464-.121Z" transform="translate(-141.628 -100.037)"/><path class="j" d="M166.433,125.755a.235.235,0,0,1-.081-.4,2.28,2.28,0,0,1,2.065-.565.242.242,0,0,1,.161.3.249.249,0,0,1-.3.161,1.8,1.8,0,0,0-1.614.457A.235.235,0,0,1,166.433,125.755Z" transform="translate(-141.766 -97.072)"/><path class="j" d="M177.311,127.615a.215.215,0,0,1-.148-.155,1.971,1.971,0,0,0-1.11-1.345.229.229,0,0,1-.141-.3.235.235,0,0,1,.3-.148h0a2.422,2.422,0,0,1,1.406,1.662.235.235,0,0,1-.161.289A.2.2,0,0,1,177.311,127.615Z" transform="translate(-144.915 -97.371)"/><path class="o" d="M165.257,190.038l5.328-2.758-.915,6.222s-4.379,1.2-4.789-1.1Z" transform="translate(-141.309 -117.543)"/><path class="o" d="M170.84,187.226a7.278,7.278,0,0,1,2.153-1.776,10.5,10.5,0,0,0,1.7-.969.33.33,0,0,1,.484.3,3.175,3.175,0,0,1-1.527,2.018c-.283,1.2-2.3,2.26-2.3,2.26Z" transform="translate(-143.26 -116.615)"/><path class="o" d="M177.251,188.078l-.747,3.881a.848.848,0,0,1-.673.673l-3.9.807.948-6.168,3.5-.182a.827.827,0,0,1,.868.989Z" transform="translate(-143.617 -117.48)"/><path class="o" d="M164.83,192.4l.41-2.361,5.328-2.758" transform="translate(-141.293 -117.543)"/><path class="o" d="M188.994,190.89l-4.245-2.57-.309,5.523s4.473,1.715,4.924-.592Z" transform="translate(-147.712 -117.884)"/><path class="o" d="M181.836,188.163l-.336,4.352a.538.538,0,0,0,.363.552l1.608.558.309-5.523-1.224-.417a.545.545,0,0,0-.72.478Z" transform="translate(-146.749 -117.667)"/><path class="h" d="M170.333,86.032a2.422,2.422,0,1,1-2.422-2.422A2.422,2.422,0,0,1,170.333,86.032Z" transform="translate(-141.509 -83.61)"/><path class="h" d="M156.163,88.152a2.422,2.422,0,1,1-2.422-2.422,2.422,2.422,0,0,1,2.422,2.422Z" transform="translate(-136.871 -84.304)"/><circle class="h" cx="2.422" cy="2.422" r="2.422" transform="translate(33.52 2.859)"/></g></g></svg>