<svg xmlns="http://www.w3.org/2000/svg" width="231.332" height="172.37" viewBox="0 0 231.332 172.37"><defs><style>.a{fill:#ebebeb;}.b{fill:#f0f0f0;}.c{fill:#fafafa;}.d,.j{fill:#fff;}.e{fill:#e0e0e0;}.f,.j,.l{opacity:0.6;}.g{fill:#f5f5f5;}.h{fill:#e6e6e6;}.i{fill:#a020f0;}.k{fill:#60c5ff;}.m{fill:#263238;}.n{fill:#b78876;}.o{opacity:0.2;}.p{fill:#936d5e;}</style></defs><g transform="translate(0 -55)"><g transform="translate(0 55)"><rect class="a" width="231.332" height="0.116" transform="translate(0 151.476)"/><rect class="a" width="15.323" height="0.116" transform="translate(24.271 155.881)"/><rect class="a" width="21.63" height="0.116" transform="translate(79.18 154.627)"/><rect class="a" width="8.879" height="0.116" transform="translate(52.188 159.457)"/><rect class="a" width="13.977" height="0.116" transform="translate(144.504 157.449)"/><rect class="a" width="8.939" height="0.116" transform="translate(162.599 157.449)"/><rect class="a" width="27.094" height="0.116" transform="translate(181.064 159.402)"/><path class="a" d="M130.183,185.841H40.847A2.642,2.642,0,0,1,38.21,183.2V57.619A2.642,2.642,0,0,1,40.847,55h89.336a2.642,2.642,0,0,1,2.642,2.642V183.2A2.642,2.642,0,0,1,130.183,185.841ZM40.847,55.093a2.526,2.526,0,0,0-2.522,2.526V183.2a2.526,2.526,0,0,0,2.522,2.526h89.336a2.531,2.531,0,0,0,2.526-2.526V57.619a2.531,2.531,0,0,0-2.526-2.526Z" transform="translate(-20.532 -55)"/><path class="a" d="M346.482,185.841h-89.34A2.646,2.646,0,0,1,254.5,183.2V57.619A2.646,2.646,0,0,1,257.142,55h89.34a2.642,2.642,0,0,1,2.633,2.619V183.2A2.642,2.642,0,0,1,346.482,185.841ZM257.142,55.093a2.531,2.531,0,0,0-2.526,2.526V183.2a2.531,2.531,0,0,0,2.526,2.526h89.34a2.531,2.531,0,0,0,2.526-2.526V57.619a2.531,2.531,0,0,0-2.526-2.526Z" transform="translate(-136.752 -55)"/><rect class="b" width="110.082" height="68.886" transform="translate(151.495 88.008) rotate(180)"/><rect class="c" width="62.409" height="105.774" transform="translate(149.339 22.361) rotate(90)"/><path class="d" d="M270.794,165.739,259.939,103.33h-8l10.849,62.409Z" transform="translate(-135.376 -80.969)"/><path class="d" d="M254.646,165.739,243.8,103.33H240.22l10.849,62.409Z" transform="translate(-129.079 -80.969)"/><path class="d" d="M211.669,165.739,200.819,103.33h-8l10.849,62.409Z" transform="translate(-103.609 -80.969)"/><path class="d" d="M173.21,165.739,162.356,103.33H158.78l10.849,62.409Z" transform="translate(-85.318 -80.969)"/><rect class="e" width="62.409" height="0.546" transform="translate(121.546 22.361) rotate(90)"/><rect class="e" width="62.409" height="0.546" transform="translate(149.339 22.365) rotate(90)"/><rect class="b" width="62.409" height="2.156" transform="translate(123.702 22.361) rotate(90)"/><rect class="e" width="62.409" height="0.546" transform="translate(94.846 22.361) rotate(90)"/><rect class="b" width="62.409" height="2.156" transform="translate(96.997 22.361) rotate(90)"/><rect class="e" width="62.409" height="0.546" transform="translate(68.127 22.361) rotate(90)"/><rect class="b" width="62.409" height="2.156" transform="translate(70.283 22.365) rotate(90)"/><rect class="e" width="68.886" height="0.546" transform="translate(41.408 19.122) rotate(90)"/><path class="e" d="M64.5,84.439H190.652a.722.722,0,0,0,.722-.717h0a.722.722,0,0,0-.722-.722H64.5a.722.722,0,0,0-.717.722h0a.722.722,0,0,0,.717.717Z" transform="translate(-34.271 -70.045)"/><g class="f" transform="translate(106.75 11.567)"><rect class="g" width="47.867" height="125.692" transform="translate(47.867 125.692) rotate(180)"/><path class="h" d="M293.64,207.912h4.011L296.527,82.22h-1.8Z" transform="translate(-264.534 -81.193)"/><path class="h" d="M312.77,207.912h1.939L314.163,82.22H313.3Z" transform="translate(-274.813 -81.193)"/><path class="h" d="M268.5,207.912h1.934L269.893,82.22h-.865Z" transform="translate(-251.025 -81.193)"/><path class="h" d="M247.2,207.912h1.934L248.593,82.22h-.865Z" transform="translate(-239.58 -81.193)"/></g><g class="f" transform="translate(32.696 11.567)"><rect class="g" width="23.934" height="125.692" transform="translate(23.934 125.692) rotate(180)"/><path class="h" d="M102.13,207.912h2l-.56-125.692h-.9Z" transform="translate(-87.575 -81.193)"/><path class="h" d="M111.69,207.912h.967L112.389,82.22h-.435Z" transform="translate(-92.712 -81.193)"/><path class="h" d="M89.56,207.912h.967L90.254,82.22h-.43Z" transform="translate(-80.82 -81.193)"/><path class="h" d="M78.91,207.912h.967L79.6,82.22h-.435Z" transform="translate(-75.098 -81.193)"/></g><rect class="h" width="31.753" height="39.632" transform="translate(167.068 30.998)"/><rect class="g" width="32.673" height="39.632" transform="translate(167.544 30.998)"/><rect class="c" width="34.006" height="27.663" transform="translate(197.715 33.811) rotate(90)"/><rect class="h" width="34.006" height="0.259" transform="translate(197.715 33.811) rotate(90)"/><circle class="b" cx="3.997" cy="3.997" r="3.997" transform="translate(184.554 45.753) rotate(-45)"/><circle class="d" cx="8.124" cy="8.124" r="8.124" transform="translate(172.333 51.749) rotate(-45)"/><circle class="b" cx="3.997" cy="3.997" r="3.997" transform="translate(173.009 48.719) rotate(-76.72)"/><rect class="b" width="4.34" height="44.24" transform="translate(161.784 104.266)"/><rect class="b" width="46.183" height="2.646" transform="translate(160.729 101.619)"/><rect class="b" width="40.534" height="2.97" transform="translate(163.552 148.506)"/><rect class="c" width="39.734" height="44.24" transform="translate(166.124 104.266)"/><rect class="b" width="32.493" height="13.575" transform="translate(202.235 122.768) rotate(180)"/><rect class="b" width="32.493" height="13.575" transform="translate(202.235 142.732) rotate(180)"/><rect class="c" width="9.091" height="2.11" rx="1.055" transform="translate(181.443 108.393)"/><rect class="c" width="9.091" height="2.11" rx="1.055" transform="translate(181.443 128.361)"/><circle class="a" cx="9.975" cy="9.975" r="9.975" transform="translate(75.591 133.248) rotate(-9.22)"/><circle class="g" cx="12.45" cy="12.45" r="12.45" transform="translate(57.428 128.729) rotate(-9.22)"/></g><g transform="translate(25.96 216.895)"><ellipse class="g" cx="89.706" cy="5.237" rx="89.706" ry="5.237"/></g><g transform="translate(26.315 67.023)"><path class="i" d="M121.274,192.865c-3.058,0-4.5-3.077-4.557-3.206a.611.611,0,0,1,1.106-.509c0,.042,1.217,2.563,3.544,2.5a.611.611,0,0,1,.032,1.217Z" transform="translate(-89.011 -138.939)"/><path class="i" d="M211.474,101.548a5.844,5.844,0,0,1-.8-.051.608.608,0,0,1,.18-1.2h0c.028,0,2.813.393,4.034-1.592a.607.607,0,1,1,1.036.634A5.121,5.121,0,0,1,211.474,101.548Z" transform="translate(-139.242 -90.35)"/><path class="j" d="M211.474,101.548a5.844,5.844,0,0,1-.8-.051.608.608,0,0,1,.18-1.2h0c.028,0,2.813.393,4.034-1.592a.607.607,0,1,1,1.036.634A5.121,5.121,0,0,1,211.474,101.548Z" transform="translate(-139.242 -90.35)"/><path class="i" d="M60.45,152.754a6.375,6.375,0,0,1-3.294-1.05.606.606,0,1,1,.7-.985h0c.023,0,2.355,1.578,4.321.324a.611.611,0,1,1,.657,1.027A4.368,4.368,0,0,1,60.45,152.754Z" transform="translate(-56.877 -118.385)"/><path class="j" d="M60.45,152.754a6.375,6.375,0,0,1-3.294-1.05.606.606,0,1,1,.7-.985h0c.023,0,2.355,1.578,4.321.324a.611.611,0,1,1,.657,1.027A4.368,4.368,0,0,1,60.45,152.754Z" transform="translate(-56.877 -118.385)"/><path class="i" d="M403.494,117.732a6.417,6.417,0,0,1-3.3-1.018.607.607,0,1,1,.689-1h0c.023,0,2.36,1.573,4.326.324a.606.606,0,0,1,.652,1.022,4.322,4.322,0,0,1-2.369.671Z" transform="translate(-241.213 -99.59)"/><path class="j" d="M403.494,117.732a6.417,6.417,0,0,1-3.3-1.018.607.607,0,1,1,.689-1h0c.023,0,2.36,1.573,4.326.324a.606.606,0,0,1,.652,1.022,4.322,4.322,0,0,1-2.369.671Z" transform="translate(-241.213 -99.59)"/><path class="i" d="M241.553,219.106c-2.836,0-4.381-2.748-4.451-2.873a.608.608,0,0,1,1.064-.588c0,.037,1.388,2.461,3.7,2.225a.611.611,0,0,1,.125,1.212C241.853,219.1,241.7,219.106,241.553,219.106Z" transform="translate(-153.678 -153.175)"/><path class="j" d="M241.553,219.106c-2.836,0-4.381-2.748-4.451-2.873a.608.608,0,0,1,1.064-.588c0,.037,1.388,2.461,3.7,2.225a.611.611,0,0,1,.125,1.212C241.853,219.1,241.7,219.106,241.553,219.106Z" transform="translate(-153.678 -153.175)"/><path class="k" d="M78.3,244.713a.606.606,0,0,1-.143-1.194h0c.028,0,2.744-.717,3.114-3.021a.607.607,0,1,1,1.2.194c-.5,3.1-3.877,3.97-4.021,4.007a.8.8,0,0,1-.148.014Z" transform="translate(-68.066 -166.424)"/><path class="l" d="M78.3,244.713a.606.606,0,0,1-.143-1.194h0c.028,0,2.744-.717,3.114-3.021a.607.607,0,1,1,1.2.194c-.5,3.1-3.877,3.97-4.021,4.007a.8.8,0,0,1-.148.014Z" transform="translate(-68.066 -166.424)"/><path class="k" d="M370.272,153.51a.606.606,0,0,1-.148-1.2h0c.028,0,2.744-.712,3.114-3.017a.611.611,0,1,1,1.2.194c-.5,3.1-3.882,3.97-4.025,4a.509.509,0,0,1-.143.019Z" transform="translate(-224.938 -117.393)"/><path class="l" d="M370.272,153.51a.606.606,0,0,1-.148-1.2h0c.028,0,2.744-.712,3.114-3.017a.611.611,0,1,1,1.2.194c-.5,3.1-3.882,3.97-4.025,4a.509.509,0,0,1-.143.019Z" transform="translate(-224.938 -117.393)"/><path class="i" d="M419.612,203.745h-.1c-.148-.028-3.581-.657-4.289-3.7a.612.612,0,1,1,1.194-.268c.527,2.267,3.285,2.776,3.313,2.776a.611.611,0,0,1-.106,1.208Z" transform="translate(-249.42 -144.559)"/><path class="i" d="M397.621,254.656a4.442,4.442,0,0,1-2.906-1.023.606.606,0,1,1,.777-.925c1.79,1.49,4.3.241,4.331.227a.608.608,0,0,1,.555,1.083A6.588,6.588,0,0,1,397.621,254.656Z" transform="translate(-238.273 -173.165)"/><path class="i" d="M336.39,86.545a.6.6,0,0,1-.3-.079c-.125-.069-3.146-1.818-2.776-4.941a.608.608,0,0,1,1.208.139c-.264,2.313,2.161,3.734,2.184,3.748a.606.606,0,0,1-.315,1.134Z" transform="translate(-205.399 -80.986)"/><path class="i" d="M78.056,93.106a.607.607,0,0,1-.051-1.212c2.313-.2,3.239-2.859,3.239-2.887a.606.606,0,0,1,1.152.375c-.042.143-1.152,3.451-4.284,3.7Z" transform="translate(-67.917 -85.082)"/></g><g transform="translate(56.643 76.633)"><path class="m" d="M159.059,132.164c-1.642.768-3.091,4.46-2.619,9.762s-10.512,1.582-12.006,7.523c-2.7,10.752,15.388,17.216,23.1,10.752,4.77-4,9.253-17.174,8.6-24.364C175.424,128.106,163.431,122.92,159.059,132.164Z" transform="translate(-134.107 -115.442)"/><path class="n" d="M213.87,144.894c.2-.06.5-.148.754-.231l.8-.268c.532-.185,1.06-.389,1.582-.606a29.663,29.663,0,0,0,3.044-1.457,18.936,18.936,0,0,0,5.14-4.016,18.252,18.252,0,0,0,2.984-5.848c.375-1.092.689-2.216.958-3.359s.523-2.313.717-3.438l1.888.116a34.194,34.194,0,0,1-.81,7.44,24.574,24.574,0,0,1-1.115,3.674,15.266,15.266,0,0,1-1.929,3.539,20.413,20.413,0,0,1-5.95,5.159,29.257,29.257,0,0,1-3.442,1.74c-.592.25-1.189.463-1.8.689-.3.106-.606.208-.925.3s-.6.18-.981.273Z" transform="translate(-171.563 -114.607)"/><path class="n" d="M249.725,124.007l.787-2.827-3.123.241a4.056,4.056,0,0,0,.856,2.966Z" transform="translate(-189.564 -112.194)"/><path class="n" d="M251,114.07l-2.85.745-.74,2.785,3.123-.241Z" transform="translate(-189.586 -108.374)"/><path class="i" d="M205.71,166.093c1.439-1.309,5.089-2.313,5.089-2.313l4,6.015s-4.566,3.049-6.505,2.341C206.279,171.432,204.368,167.31,205.71,166.093Z" transform="translate(-166.938 -135.085)"/><path class="n" d="M177.74,347.769l2.494,2.739,7.157-5.1L184.9,342.67Z" transform="translate(-152.149 -231.209)"/><path class="n" d="M147.32,368.7l3.345,1.661,4.918-7.213-3.345-1.661Z" transform="translate(-135.804 -241.322)"/><path class="m" d="M148.544,375.8l-2.582-3.308a.3.3,0,0,0-.384-.079l-2.91,1.666a.6.6,0,0,0-.157.879c.925,1.138,1.42,1.642,2.559,3.1.694.893,2.11,2.975,3.072,4.21s2.239.352,1.948-.25a10.835,10.835,0,0,1-1.342-5.584A.967.967,0,0,0,148.544,375.8Z" transform="translate(-133.151 -247.17)"/><path class="m" d="M177.564,354.713l-1.7-4.09a.356.356,0,0,0-.379-.217l-3.609.463a.546.546,0,0,0-.44.768c.62,1.42.995,2.082,1.744,3.882.463,1.106,1.536,4.011,2.17,5.552s2.262,1.175,2.142.5c-.541-3.026-.356-4.978.093-6.167A.9.9,0,0,0,177.564,354.713Z" transform="translate(-148.735 -235.364)"/><path class="o" d="M191.067,345.409l-3.687,2.628-2.79-2.526,3.984-2.841Z" transform="translate(-155.83 -231.209)"/><path class="o" d="M155,361.49l3.345,1.661-2.54,3.72-3.345-1.666Z" transform="translate(-138.566 -241.322)"/><path class="i" d="M194.31,168.474s.111-.167-1.915,21.94l-15.129,1.059c-.176-6.172.287-10.53-2.6-23.212a44.505,44.505,0,0,1,6.445-.814,47.866,47.866,0,0,1,6.884.037C190.956,167.766,194.31,168.474,194.31,168.474Z" transform="translate(-150.5 -136.998)"/><path class="n" d="M161.6,151.205c-1.124-.518-2.11-1.073-3.132-1.661s-1.989-1.217-2.952-1.883a35.578,35.578,0,0,1-5.436-4.543l-.611-.662-.157-.167a4.106,4.106,0,0,1-.254-.324,4.042,4.042,0,0,1-.37-.648,5.839,5.839,0,0,1-.463-2.286,14.865,14.865,0,0,1,.5-3.7,34.5,34.5,0,0,1,2.434-6.551l1.767.685c-.273,1.05-.532,2.142-.763,3.211s-.426,2.147-.555,3.2a13.646,13.646,0,0,0-.12,3,2.777,2.777,0,0,0,.259,1c0,.032.046.069.06.074h0l.143.134.569.541a39.715,39.715,0,0,0,5.089,3.91c.9.6,1.851,1.143,2.776,1.693s1.92,1.073,2.822,1.531Z" transform="translate(-136.287 -116.278)"/><path class="i" d="M176.906,168.425c-1.716-2.392-5.089-2.355-5.089-2.355l-4.067,6.015s4.539,3.091,6.477,2.4C176.282,173.755,177.966,169.9,176.906,168.425Z" transform="translate(-146.781 -136.315)"/><path class="d" d="M194.739,167.607l-6.884-.037c-1.055.426-1.666,3.169,5.321,5.492C198.019,170.309,195.442,167.861,194.739,167.607Z" transform="translate(-157.239 -137.121)"/><path class="n" d="M189.322,150.82c.421,2.216.833,6.278-.722,7.75,0,0,.6,2.253,5.321,5.492,3.308-3.317,1.564-5.455,1.564-5.455-2.466-.606-2.392-2.438-1.952-4.164Z" transform="translate(-157.985 -128.121)"/><path class="m" d="M211.054,180.449h-.074a.925.925,0,0,1-.847-.995c.167-2.063-1.388-3.623-3.174-5.432-2.05-2.068-4.377-4.414-4.469-8.064a.926.926,0,0,1,1.851-.046c.074,2.915,2.036,4.895,3.933,6.81s3.937,3.97,3.7,6.88A.925.925,0,0,1,211.054,180.449Z" transform="translate(-165.448 -135.745)"/><path class="m" d="M186.82,185.157a.927.927,0,0,1-.9-1.147c.893-3.627-.278-6.477-1.518-9.475-1.11-2.693-2.258-5.478-1.7-8.735a.925.925,0,0,1,1.823.315c-.463,2.73.532,5.154,1.587,7.717,1.24,3,2.642,6.408,1.605,10.641A.925.925,0,0,1,186.82,185.157Z" transform="translate(-154.738 -135.772)"/><path class="o" d="M195.231,157l-1.851.217a4.215,4.215,0,0,0,.527,1.411,2.455,2.455,0,0,0,1.985.814,6.241,6.241,0,0,1,.231-1.693Z" transform="translate(-160.553 -131.442)"/><path class="n" d="M180.88,137.922c1.356,3.451,1.851,4.941,4.215,6.172,3.553,1.851,7.5-.56,7.2-4.344-.264-3.41-2.434-8.481-6.334-8.767a5.057,5.057,0,0,0-5.08,6.94Z" transform="translate(-153.638 -117.453)"/><path class="m" d="M182.491,129.568c2.633,1.619.379,11.146-4.076,10.641S178.6,127.176,182.491,129.568Z" transform="translate(-151.533 -116.538)"/><path class="m" d="M188.157,129.294c-1.985,1.319-.629,3.613,6.061,2.253C194.217,131.542,191.451,127.1,188.157,129.294Z" transform="translate(-157.296 -116.227)"/><path class="n" d="M182.187,151.18a2.721,2.721,0,0,0,1.5,1.425c.893.333,1.416-.463,1.24-1.328-.162-.791-.819-1.925-1.744-1.878a1.217,1.217,0,0,0-.995,1.781Z" transform="translate(-154.464 -127.356)"/><path class="m" d="M198.465,217.21s8.1,26.432,8.749,37.8c.675,11.83-16.892,25.868-16.892,25.868l-4.372-4.8s14.273-12.122,12.316-20.9c-2.707-12.1-10.905-37.194-10.905-37.194Z" transform="translate(-156.561 -163.795)"/><path class="o" d="M198.651,234.592c-.74-2.313-2.387-.759-2.961,1.693,1.143,3.7,2.466,8.032,3.724,12.367C199.9,244.812,200.1,239.126,198.651,234.592Z" transform="translate(-161.795 -172.525)"/><path class="i" d="M183.39,341.676l5.547,5.723,2.369-1.309-5.862-6.38Z" transform="translate(-155.185 -229.618)"/><path class="m" d="M176.6,217.82s-2.313,25.909-4.627,40.34c-1.874,11.659-14.6,30.7-14.6,30.7l-4.664-2.17s8.555-20.39,9.887-28.315c4.275-25.368-1.5-32.687,2.873-39.789Z" transform="translate(-138.7 -164.123)"/><path class="i" d="M152,363.931l5.26,2.582,1.726-2.142-6.153-2.9Z" transform="translate(-138.318 -241.311)"/><path class="d" d="M178.967,216.179l-.588,1.388c-.046.106.083.208.259.194l15.869-1.11c.134,0,.245-.083.245-.171l.042-1.388c0-.093-.12-.162-.268-.153L179.2,216.012A.264.264,0,0,0,178.967,216.179Z" transform="translate(-152.488 -162.574)"/><path class="m" d="M183.715,218.722l-.407.028c-.083,0-.148-.032-.148-.083l.069-1.772c0-.051.074-.1.153-.106l.412-.028c.083,0,.148.032.143.083l-.069,1.772C183.868,218.675,183.8,218.722,183.715,218.722Z" transform="translate(-155.062 -163.553)"/><path class="m" d="M210.135,216.882l-.412.028c-.083,0-.148-.032-.143-.083l.069-1.772c0-.051.069-.1.153-.106l.407-.028c.083,0,.148.032.148.083l-.069,1.777C210.283,216.831,210.237,216.877,210.135,216.882Z" transform="translate(-169.258 -162.564)"/><path class="m" d="M196.925,217.812l-.412.028c-.079,0-.143-.032-.143-.083l.069-1.777c0-.051.069-.1.153-.1l.412-.028c.079,0,.143.032.143.083l-.069,1.772C197.078,217.77,197.008,217.8,196.925,217.812Z" transform="translate(-162.16 -163.064)"/><path class="m" d="M193.069,143.177c-.222.074-.315.407-.2.75l.81-.259C193.564,143.325,193.291,143.084,193.069,143.177Z" transform="translate(-160.252 -124.003)"/><path class="m" d="M200.7,140.765c-.227.074-.319.412-.208.754l.814-.264C201.166,140.913,200.9,140.7,200.7,140.765Z" transform="translate(-164.352 -122.711)"/><path class="m" d="M200.75,140.31l.745-.5S201.282,140.587,200.75,140.31Z" transform="translate(-164.513 -122.205)"/><path class="p" d="M199,143.8a8,8,0,0,0,1.61,1.5,1.291,1.291,0,0,1-.958.523Z" transform="translate(-163.573 -124.349)"/><path class="m" d="M196.363,150.739a.093.093,0,0,0,.028-.1.088.088,0,0,0-.111-.056,2.4,2.4,0,0,1-2.138-.287.088.088,0,0,0-.125,0,.083.083,0,0,0,0,.125,2.517,2.517,0,0,0,2.313.324Z" transform="translate(-160.881 -127.827)"/><path class="m" d="M190.492,141.186a.166.166,0,0,0,.051-.074,1.388,1.388,0,0,1,.9-.925.176.176,0,1,0-.083-.342,1.763,1.763,0,0,0-1.147,1.138.176.176,0,0,0,.111.222.167.167,0,0,0,.171-.018Z" transform="translate(-158.845 -122.221)"/><path class="m" d="M200.831,137.022a.056.056,0,0,0,.023-.023.176.176,0,0,0-.028-.25,1.767,1.767,0,0,0-1.578-.347.176.176,0,0,0-.111.227.18.18,0,0,0,.222.111,1.388,1.388,0,0,1,1.245.287A.176.176,0,0,0,200.831,137.022Z" transform="translate(-163.642 -120.342)"/><path class="n" d="M153,127.751l-.578-3.7L156.2,125.9a3.271,3.271,0,0,1-.925,1.633,1.527,1.527,0,0,1-1.559.463Z" transform="translate(-138.544 -113.737)"/><path class="n" d="M154.539,120.13l1.934,1.7-.278,1.943-3.775-1.832Z" transform="translate(-138.544 -111.63)"/><path class="i" d="M156.648,382.044a.983.983,0,0,0,.111-.093.3.3,0,0,0,.088-.291c-.111-.463-1.388-.925-1.531-.958a.079.079,0,0,0-.093.023.088.088,0,0,0,0,.1c.208.463.625,1.221,1.092,1.3A.463.463,0,0,0,156.648,382.044Zm-1.189-1.1c.5.19,1.157.514,1.217.759a.13.13,0,0,1-.046.125.333.333,0,0,1-.3.125C156.074,381.905,155.76,381.535,155.459,380.943Z" transform="translate(-140.042 -251.642)"/><path class="i" d="M156.857,380.139a.291.291,0,0,0,.079-.069.305.305,0,0,0,0-.389.463.463,0,0,0-.324-.222c-.532-.1-1.388.56-1.42.588a.093.093,0,0,0-.032.083.1.1,0,0,0,.051.069A2.341,2.341,0,0,0,156.857,380.139Zm-1.388-.069a1.948,1.948,0,0,1,1.115-.435.268.268,0,0,1,.2.139c.06.1.032.148,0,.18a1.892,1.892,0,0,1-1.346.13Z" transform="translate(-140.015 -250.972)"/><path class="i" d="M184.525,362.744a1.448,1.448,0,0,0,.523.722.541.541,0,0,0,.463.042.254.254,0,0,0,.18-.194c.1-.463-1.115-1.605-1.36-1.851a.093.093,0,0,0-.1,0,.083.083,0,0,0-.042.093A5.588,5.588,0,0,0,184.525,362.744Zm.962.347a.324.324,0,0,1,.032.171c0,.023,0,.046-.065.065a.384.384,0,0,1-.333-.028,2.457,2.457,0,0,1-.708-1.508,5.6,5.6,0,0,1,1.073,1.3Z" transform="translate(-155.613 -241.298)"/><path class="i" d="M184.2,361.551a.1.1,0,0,0,0,.028c.379.384,1.513,1,1.878.791.079-.046.162-.148.1-.37-.236-.851-1.851-.583-1.929-.569a.083.083,0,0,0-.069.06.093.093,0,0,0,.023.06Zm1.8.44.023.056v.171c-.213.12-1.069-.278-1.522-.638C184.888,361.537,185.8,361.5,186.008,361.991Z" transform="translate(-155.61 -241.262)"/><path class="m" d="M193.16,142.724l.745-.5S193.692,143,193.16,142.724Z" transform="translate(-160.435 -123.5)"/></g><g transform="translate(116.085 81.228)"><path class="n" d="M318.6,395.63l-3.586,0-.967-8.3,3.586,0Z" transform="translate(-284.836 -259.801)"/><path class="n" d="M380.3,365.4l-2.716,2.346-6.149-5.658,2.711-2.346Z" transform="translate(-315.673 -244.976)"/><path class="m" d="M379.718,373.439l3.3-2.859a.3.3,0,0,1,.384,0l2.517,2.008a.551.551,0,0,1,0,.842c-1.078.9-1.906,1.508-3.239,2.665-.824.713-3.239,2.952-4.377,3.937s-2.216-.056-1.851-.564c1.712-2.276,2.776-4.294,2.943-5.492A.926.926,0,0,1,379.718,373.439Z" transform="translate(-318.33 -250.763)"/><path class="m" d="M306.81,404.38h3.919a.315.315,0,0,1,.305.245l.713,3.188a.523.523,0,0,1-.514.638c-1.416-.023-3.456-.1-5.233-.1-2.073,0-3.29.055-5.723.06-1.471,0-1.883-1.485-1.268-1.619,2.8-.62,4.516-.625,6.94-2.124A1.657,1.657,0,0,1,306.81,404.38Z" transform="translate(-276.606 -268.963)"/><path class="n" d="M270.36,151.882c-.722-.278-1.342-.532-1.989-.828s-1.272-.588-1.9-.9a41.318,41.318,0,0,1-3.7-2.063,34.855,34.855,0,0,1-3.512-2.461c-.282-.231-.569-.463-.847-.7l-.824-.754c-.273-.25-.532-.537-.8-.805-.134-.148-.25-.254-.4-.43s-.3-.347-.435-.523a11.3,11.3,0,0,1-1.282-2.156,16.871,16.871,0,0,1-.819-2.151,26.272,26.272,0,0,1-.925-4.247,39.461,39.461,0,0,1-.208-8.356h2.693c.185,1.254.379,2.572.634,3.84s.523,2.535.851,3.757a26.8,26.8,0,0,0,1.175,3.5,10.048,10.048,0,0,0,1.633,2.776l.227.231c.069.074.208.185.31.278.222.19.426.389.662.569.463.37.925.736,1.444,1.087,1,.694,2.054,1.356,3.155,1.976s2.225,1.208,3.368,1.763c.574.282,1.152.56,1.73.819s1.184.532,1.7.754Z" transform="translate(-251.811 -119.116)"/><path class="m" d="M285.545,175.618a41.889,41.889,0,0,1-5.765-4.312L281.21,164a66.717,66.717,0,0,0,8.092,1.767C293.813,166.35,288.76,177.533,285.545,175.618Z" transform="translate(-266.421 -139.798)"/><path class="n" d="M254.6,121.566l.254-4.566-3.794,1.217s-.884,3.271,1.578,4.132Z" transform="translate(-250.906 -114.543)"/><path class="n" d="M254.576,111.69l-3.132,1.3-.2,2.369,3.794-1.217Z" transform="translate(-251.086 -111.69)"/><path class="o" d="M314.06,387.335l.5,4.28,3.586,0-.5-4.28Z" transform="translate(-284.841 -259.801)"/><path class="o" d="M374.156,359.74l-2.716,2.346L374.614,365l2.711-2.346Z" transform="translate(-315.673 -244.976)"/><path class="m" d="M306.6,165.184a1.925,1.925,0,0,0-1.878-1.985,44.271,44.271,0,0,0-17.35,2.864,1.083,1.083,0,0,0-.662.819c-.426,2.563-1.633,13.306,4.284,30.119l18.969-2.716C309.71,191.487,306.175,178.643,306.6,165.184Z" transform="translate(-269.933 -139.363)"/><path class="d" d="M296.044,164.858c-1.124,1.5-1.633,4.969,2.091,7.5,4.58-3.419,6.94-7.1,7.639-9.013A47.571,47.571,0,0,0,296.044,164.858Z" transform="translate(-274.718 -139.449)"/><path class="i" d="M294.085,164.422a.925.925,0,0,1-.925-.925,2.64,2.64,0,0,1,1.221-1.851c1.878-1.388,5.552-2.447,10.179-1.11a.925.925,0,0,1-.514,1.777c-5.367-1.55-8.675.652-9.031,1.286A.925.925,0,0,1,294.085,164.422Z" transform="translate(-273.611 -137.606)"/><path class="n" d="M304.387,144.34c-.139,2.67.032,7.5,2.1,8.971a9.15,9.15,0,0,1-5.894,4.039c-1.851.328-2.484-.356-2.563-1.221a2.225,2.225,0,0,1,1.129-2.077c1.994-1.157,1.6-3.017.879-4.775Z" transform="translate(-276.223 -129.234)"/><path class="i" d="M290.687,188.669a.888.888,0,0,1-.305-.056.925.925,0,0,1-.564-1.18,2.512,2.512,0,0,0-.074-2.022l-.1-.264a3.072,3.072,0,0,0-.62-.833,3.007,3.007,0,0,1-.791-3.724,2.494,2.494,0,0,0,.2-.833,3.091,3.091,0,0,0-.421-.925,3.66,3.66,0,0,1-.652-1.851,3.613,3.613,0,0,1,.726-1.915,2.513,2.513,0,0,0,.37-.694,1.85,1.85,0,0,0-.148-.75,2.776,2.776,0,0,1-.157-1.666,3.044,3.044,0,0,1,1.1-1.573,1.731,1.731,0,0,0,.384-.4,1.208,1.208,0,0,0,0-.685,2.119,2.119,0,0,1,.208-1.587c.324-.509.292-.638.264-.745a1.573,1.573,0,0,1-.06-.5.925.925,0,0,1,1.851,0v.028a2.58,2.58,0,0,1-.463,2.17,2.833,2.833,0,0,0,.042.324,2.568,2.568,0,0,1-.995,2.776c-.3.259-.463.416-.527.643a1.314,1.314,0,0,0,.125.62,3.4,3.4,0,0,1,.227,1.559,3.585,3.585,0,0,1-.648,1.467,2.23,2.23,0,0,0-.435.925,2.577,2.577,0,0,0,.4.9,4.3,4.3,0,0,1,.662,1.647,3.826,3.826,0,0,1-.282,1.629,2.313,2.313,0,0,0-.208,1.05,2.609,2.609,0,0,0,.615.847,4.473,4.473,0,0,1,1,1.471l.083.241a4.284,4.284,0,0,1,.079,3.262.925.925,0,0,1-.888.643ZM291.894,166.562Z" transform="translate(-270.494 -140.626)"/><path class="n" d="M325.572,167.17c.5.463.925.851,1.351,1.3s.842.874,1.254,1.319c.824.888,1.6,1.823,2.35,2.776a30.076,30.076,0,0,1,3.891,6.44,19.238,19.238,0,0,1,.675,1.883c.1.324.18.662.259,1l.028.125.042.217a4.366,4.366,0,0,1,.056.463,4.549,4.549,0,0,1-.028.925,4.627,4.627,0,0,1-.495,1.582,6.146,6.146,0,0,1-.782,1.147,8.325,8.325,0,0,1-1.716,1.49,15.791,15.791,0,0,1-3.488,1.712c-.583.213-1.171.393-1.763.546s-1.166.3-1.809.4l-.833-2.559c.463-.259.958-.532,1.425-.81s.925-.569,1.388-.861a17.076,17.076,0,0,0,2.42-1.851,4.983,4.983,0,0,0,.754-.925c.162-.264.148-.44.1-.384a.106.106,0,0,0,0,.046h0l-.028-.083c-.069-.213-.134-.43-.227-.652a13.169,13.169,0,0,0-.588-1.323,21.685,21.685,0,0,0-1.582-2.633c-.588-.87-1.235-1.721-1.92-2.554s-1.388-1.652-2.133-2.461c-.366-.4-.74-.8-1.12-1.184s-.777-.8-1.115-1.12Z" transform="translate(-289.075 -141.501)"/><path class="m" d="M322.208,163.3c2.091.31,5.371,5.552,5.371,5.552L322.254,176s-2.841-2.707-3.669-5.089C317.021,166.335,318.1,162.7,322.208,163.3Z" transform="translate(-286.905 -139.389)"/><path class="i" d="M316.285,180.205a.925.925,0,0,1-.791-.463,3.748,3.748,0,0,1-.4-2.017,2.513,2.513,0,0,0-.074-.856,3,3,0,0,0-.689-.75,3.646,3.646,0,0,1-1.2-1.545,3.558,3.558,0,0,1,.088-2.045,2.591,2.591,0,0,0,.134-.777,3.018,3.018,0,0,0-.5-.874,2.776,2.776,0,0,1-.153-3.7,2.67,2.67,0,0,0,.3-.606,3.059,3.059,0,0,0-.25-1.018,2.961,2.961,0,0,1-.259-1.758,4.252,4.252,0,0,1,1.231-2.23l.06-.06a.925.925,0,0,1,1.332,1.282l-.106.106a2.507,2.507,0,0,0-.726,1.356,4.217,4.217,0,0,0,.208.68,4.33,4.33,0,0,1,.356,1.777,3.308,3.308,0,0,1-.551,1.411,2.11,2.11,0,0,0-.384.925,2.73,2.73,0,0,0,.463.787,4.275,4.275,0,0,1,.8,1.578,3.572,3.572,0,0,1-.153,1.6,2.313,2.313,0,0,0-.125,1.018,2.656,2.656,0,0,0,.671.731,4.35,4.35,0,0,1,1.143,1.36,3.762,3.762,0,0,1,.241,1.633,2.451,2.451,0,0,0,.134,1.064.922.922,0,0,1-.805,1.4Z" transform="translate(-283.772 -138.32)"/><path class="o" d="M304.952,148.69l-2.572,2.919a8.473,8.473,0,0,1,.463,1.388,3.615,3.615,0,0,0,2.383-2.924A3.948,3.948,0,0,0,304.952,148.69Z" transform="translate(-278.565 -131.571)"/><path class="m" d="M295.5,127.511c-1.143,1.989-.412,4.821-.412,4.821a2.05,2.05,0,0,0,2.077.093l-.324-5.274Z" transform="translate(-274.525 -119.997)"/><path class="n" d="M303.337,131.764c-.874,3.451-1.212,5.515-3.313,6.972a4.726,4.726,0,0,1-7.338-3.863c-.157-3.28,1.3-8.37,4.983-9.11a4.849,4.849,0,0,1,5.668,6Z" transform="translate(-273.35 -119.198)"/><path class="m" d="M302.088,128.511c0-1.314-.99-2.272-4.294-2.017-2.7.2-4.011-1.055-3.239-2.808,2.184,1.138,1.823-.352,5.987-.532s5.372,1.388,5.811,3.826c2.549,3.78-1.851,5.348-1.851,5.348l-1.721,1.5a2.045,2.045,0,0,1-1.98-.634S300.464,130.131,302.088,128.511Z" transform="translate(-274.243 -117.842)"/><path class="n" d="M313.015,145.048a3.141,3.141,0,0,1-2.313.5c-1.05-.2-1.05-1.268-.324-2.022.652-.68,1.989-1.388,2.832-.8A1.394,1.394,0,0,1,313.015,145.048Z" transform="translate(-282.589 -128.249)"/><path class="i" d="M303.286,307.579h6.07s-.953-21.588-2.262-32.683c-.4-3.377.032-8,.074-13.172.056-6.51.356-13.6.652-19.168.315-5.862.578-10.086.578-10.086l-12.418,1.772s-1.231,30.735.7,41.506C298.687,286.935,303.286,307.579,303.286,307.579Z" transform="translate(-274.919 -176.589)"/><path class="o" d="M317.907,270.533c.056-6.51.356-13.6.652-19.168l-1.851-2.475C314.423,253.17,316.01,264.565,317.907,270.533Z" transform="translate(-285.657 -185.413)"/><path class="i" d="M309.22,232.269s7.713,30.457,11.377,40.307c4.011,10.78,18.784,23.383,18.784,23.383l3.734-4.108s-7.814-12.182-13.575-23.9c-2.753-15.217-7.25-37.55-7.25-37.55Z" transform="translate(-282.24 -175.477)"/><path class="m" d="M370.659,365.541l5.853-5.057L375,358.74l-6.639,5.538Z" transform="translate(-314.018 -244.439)"/><path class="m" d="M309.581,392.257l7.236-.009,0-2.336-8.083-.111Z" transform="translate(-281.977 -261.129)"/><path class="m" d="M303.485,137.375c-.231-.069-.5.153-.615.5l.824.264C303.8,137.792,303.712,137.449,303.485,137.375Z" transform="translate(-278.828 -125.485)"/><path class="m" d="M295.863,135.92c-.236,0-.463.268-.463.634l.861.056C296.274,136.244,296.1,135.957,295.863,135.92Z" transform="translate(-274.814 -124.71)"/><path class="p" d="M296.978,138.2a10.4,10.4,0,0,1-1.818,2.175,1.675,1.675,0,0,0,1.314.509Z" transform="translate(-274.685 -125.935)"/><path class="m" d="M305.5,135.017a.19.19,0,0,0,.088,0,.171.171,0,0,0,.111-.213,1.679,1.679,0,0,0-1.055-1.134.162.162,0,0,0-.208.116.167.167,0,0,0,.116.208h0a1.351,1.351,0,0,1,.824.925A.18.18,0,0,0,305.5,135.017Z" transform="translate(-279.664 -123.497)"/><path class="m" d="M293.918,133.877a.171.171,0,0,0,.153-.051,1.356,1.356,0,0,1,1.133-.463.171.171,0,0,0,.194-.143.167.167,0,0,0-.139-.19,1.684,1.684,0,0,0-1.439.574.167.167,0,0,0,0,.241A.19.19,0,0,0,293.918,133.877Z" transform="translate(-273.938 -123.153)"/><path class="i" d="M381.2,378.589a4.335,4.335,0,0,0,.629-.717.083.083,0,0,0,0-.092.074.074,0,0,0-.083-.042c-.148,0-1.467.217-1.638.638a.287.287,0,0,0,.037.282.5.5,0,0,0,.416.236,1.05,1.05,0,0,0,.638-.305Zm.37-.648c-.384.5-.754.782-1,.782a.329.329,0,0,1-.278-.167.1.1,0,0,1,0-.111c.065-.217.754-.412,1.282-.5Z" transform="translate(-320.318 -254.646)"/><path class="i" d="M381.868,377.011a.11.11,0,0,0,.028-.042.1.1,0,0,0,0-.088c-.032-.032-.74-.786-1.268-.782a.463.463,0,0,0-.342.153h0a.287.287,0,0,0-.065.352c.19.361,1.221.509,1.629.426Zm-1.453-.666a.287.287,0,0,1,.194-.069,2.015,2.015,0,0,1,1.022.6c-.463.023-1.171-.143-1.286-.356a.136.136,0,0,1,.042-.148h0Z" transform="translate(-320.373 -253.767)"/><path class="i" d="M312.906,404.558a.083.083,0,0,0,.056-.069.079.079,0,0,0-.042-.088c-.167-.083-1.605-.814-2.04-.569a.268.268,0,0,0-.143.227h0a.463.463,0,0,0,.162.412c.393.347,1.42.2,2,.088Zm-1.915-.592a3.643,3.643,0,0,1,1.624.463,2.271,2.271,0,0,1-1.605-.1.3.3,0,0,1-.1-.273.1.1,0,0,1,.056-.088Z" transform="translate(-283.053 -268.641)"/><path class="i" d="M313.943,403.586h.023a.1.1,0,0,0,.037-.079,2.474,2.474,0,0,0-.56-1.388.615.615,0,0,0-.463-.143h0a.278.278,0,0,0-.315.236c-.065.407.791,1.18,1.226,1.388a.092.092,0,0,0,.051-.014Zm-1.041-1.43h.088a.435.435,0,0,1,.342.111,1.976,1.976,0,0,1,.463,1.1c-.44-.264-1.027-.87-.985-1.115A.106.106,0,0,1,312.9,402.157Zm.079-.1Z" transform="translate(-284.09 -267.669)"/><path class="n" d="M324.541,211.54l-3.451,1.092,2.679,2.665s3.128-1.356,2.147-2.734Z" transform="translate(-288.619 -165.343)"/><path class="n" d="M318.02,216.944l2.457,1.49,1.642-1.869L319.44,213.9Z" transform="translate(-286.969 -166.611)"/></g></g></svg>