<svg xmlns="http://www.w3.org/2000/svg" width="121.965" height="90.878" viewBox="0 0 121.965 90.878"><defs><style>.a{fill:#ebebeb;}.b{fill:#e6e6e6;}.c{fill:#f5f5f5;}.d,.k{fill:#fff;}.e{opacity:0.5;}.f{fill:#f0f0f0;}.g{fill:#e0e0e0;}.h{fill:#b24bf3;}.i{fill:#263238;}.j{fill:#fafafa;opacity:0.8;}.k{opacity:0.4;}.l{fill:#7f3e3b;}.m{fill:#630f0f;}.n{opacity:0.3;}.o{opacity:0.2;}</style></defs><g transform="translate(0 -55)"><g transform="translate(0 55)"><rect class="a" width="121.965" height="0.061" transform="translate(0 79.863)"/><rect class="a" width="8.079" height="0.061" transform="translate(19.158 81.909)"/><rect class="a" width="7.359" height="0.061" transform="translate(32.523 83.668)"/><rect class="a" width="9.33" height="0.061" transform="translate(13.867 84.173)"/><rect class="a" width="3.878" height="0.061" transform="translate(105.865 84.041)"/><rect class="a" width="9.591" height="0.061" transform="translate(95.491 84.041)"/><rect class="a" width="7.398" height="0.061" transform="translate(60.982 81.877)"/><rect class="a" width="17.587" height="0.061" transform="translate(69.439 81.877)"/><path class="a" d="M86.7,123.983H39.6a1.393,1.393,0,0,1-1.39-1.393V56.381A1.393,1.393,0,0,1,39.6,55H86.7a1.393,1.393,0,0,1,1.393,1.393v66.2A1.393,1.393,0,0,1,86.7,123.983ZM39.6,55.049a1.332,1.332,0,0,0-1.329,1.332v66.21a1.332,1.332,0,0,0,1.329,1.332H86.7a1.334,1.334,0,0,0,1.332-1.332V56.381A1.334,1.334,0,0,0,86.7,55.049Z" transform="translate(-28.889 -55)"/><path class="a" d="M303,123.983h-47.1a1.4,1.4,0,0,1-1.393-1.393V56.381A1.4,1.4,0,0,1,255.893,55H303a1.393,1.393,0,0,1,1.388,1.381v66.21A1.393,1.393,0,0,1,303,123.983Zm-47.1-68.935a1.334,1.334,0,0,0-1.332,1.332v66.21a1.334,1.334,0,0,0,1.332,1.332H303a1.334,1.334,0,0,0,1.332-1.332V56.381A1.334,1.334,0,0,0,303,55.049Z" transform="translate(-192.42 -55)"/><rect class="b" width="7.018" height="28.342" transform="translate(64.549 51.52)"/><path class="c" d="M271.949,367.248h2.917V362.36H268.89Z" transform="translate(-203.3 -287.386)"/><rect class="b" width="7.018" height="28.342" transform="translate(13.867 51.52)"/><rect class="c" width="53.225" height="26.659" transform="translate(18.339 51.52)"/><path class="a" d="M132.935,281.69H84v-5.83h48.935Zm-48.691-.244h48.447V276.1H84.244Z" transform="translate(-63.51 -221.986)"/><path class="c" d="M78.1,367.248H75.18V362.36h5.976Z" transform="translate(-56.841 -287.386)"/><path class="a" d="M132.935,322.754H84v-13.9h48.935Zm-48.691-.244h48.447V309.094H84.244Z" transform="translate(-63.51 -246.928)"/><rect class="b" width="55.465" height="38.409" transform="translate(44.027 5.737)"/><rect class="c" width="55.465" height="38.409" transform="translate(45.046 5.737)"/><rect class="d" width="34.531" height="51.803" transform="translate(98.679 7.679) rotate(90)"/><rect class="b" width="34.531" height="0.771" transform="translate(98.682 7.676) rotate(90)"/><rect class="c" width="53.95" height="1.303" transform="translate(45.803 10.769)"/><g class="e" transform="translate(58.458 4.454)"><rect class="f" width="2.19" height="42.661" transform="translate(38.956)"/><rect class="f" width="2.19" height="42.661" transform="translate(36.172)"/><rect class="f" width="2.19" height="42.661" transform="translate(33.389)"/><rect class="f" width="2.19" height="42.661" transform="translate(30.608)"/><rect class="f" width="2.19" height="42.661" transform="translate(27.825)"/><rect class="f" width="2.19" height="42.661" transform="translate(25.042)"/><rect class="f" width="2.19" height="42.661" transform="translate(22.261)"/><rect class="f" width="2.19" height="42.661" transform="translate(19.478)"/><rect class="f" width="2.19" height="42.661" transform="translate(16.695)"/><rect class="f" width="2.19" height="42.661" transform="translate(13.911)"/><rect class="f" width="2.19" height="42.661" transform="translate(11.131)"/><rect class="f" width="2.19" height="42.661" transform="translate(8.347)"/><rect class="f" width="2.19" height="42.661" transform="translate(5.564)"/><rect class="f" width="2.19" height="42.661" transform="translate(2.781)"/><rect class="f" width="2.19" height="42.661"/></g><rect class="f" width="16.075" height="29.233" transform="translate(15.209 10.326)"/><rect class="c" width="18.49" height="29.233" transform="translate(16.246 10.326)"/><rect class="d" width="27.847" height="16.982" transform="translate(16.999 38.865) rotate(-90)"/><rect class="c" width="18.109" height="7.93" rx="2.76" transform="translate(21.527 33.996) rotate(-90)"/><path class="a" d="M371.35,197.29l3.288,8.1c-.1,23.439.964,24.791.976,28.823H367.32C367.013,214.6,369.923,219.007,371.35,197.29Z" transform="translate(-277.703 -162.581)"/><path class="a" d="M336.593,256.956c-6.681-18.395-22.063-12.7-21.373-5.993S340.435,267.535,336.593,256.956Z" transform="translate(-238.312 -198.31)"/><path class="a" d="M351.208,311.753c-3.644-11.853-13.338-9.918-13.338-4.471S353.306,318.571,351.208,311.753Z" transform="translate(-255.453 -242.502)"/><path class="a" d="M332.933,213.868c-5.723-15.855-19.975-13.66-18.826-6.979S336.229,222.981,332.933,213.868Z" transform="translate(-237.437 -166.014)"/><path class="a" d="M362.336,185.531c.529-10.8-10.162-15.241-9.421-8.781S362.031,191.739,362.336,185.531Z" transform="translate(-266.801 -144.782)"/><path class="a" d="M388.12,222.921c2.256-13.3,15.958-18.363,14.426-10.833S386.819,230.573,388.12,222.921Z" transform="translate(-293.382 -171.12)"/><path class="a" d="M382.483,186.49c-2.661-13.95,9.647-20.149,10-13.416S384.013,194.512,382.483,186.49Z" transform="translate(-288.9 -142.209)"/><path class="a" d="M378.133,272.2c5.437-13.443,17.075-10.108,15.907-3.991S375.006,279.936,378.133,272.2Z" transform="translate(-285.618 -212.165)"/><path class="a" d="M390.266,313.17c-.122-8.672,7.752-10.913,7.845-5.888S390.336,318.159,390.266,313.17Z" transform="translate(-295.067 -243.745)"/><path class="g" d="M349.857,350.381h0a9.057,9.057,0,0,1-8.867-7.074,18.472,18.472,0,0,0-.924-3.171L340,339.97h19.717l-.068.166a18.46,18.46,0,0,0-.922,3.171A9.06,9.06,0,0,1,349.857,350.381Z" transform="translate(-257.064 -270.457)"/></g><g transform="translate(13.687 140.356)"><ellipse class="c" cx="47.296" cy="2.761" rx="47.296" ry="2.761" transform="translate(0 0)"/></g><g transform="translate(13.842 73.612)"><path class="h" d="M128.894,209.033l-.154-.188a16.289,16.289,0,0,1,2-1.4l.124.212A16.05,16.05,0,0,0,128.894,209.033Z" transform="translate(-111.179 -188.875)"/><path class="h" d="M108.127,223.845l-.227-.085a16.76,16.76,0,0,1,3.822-5.94l.173.173A16.543,16.543,0,0,0,108.127,223.845Z" transform="translate(-95.422 -196.715)"/><path class="h" d="M116.71,222.252a13,13,0,0,0-17.858-11.94,15.7,15.7,0,0,0-29.442,3.476,13.514,13.514,0,0,0,.881,27H113.3a9.582,9.582,0,0,0,3.415-18.539Z" transform="translate(-56.746 -184.372)"/><path class="i" d="M152.955,262.135H118.536a1.061,1.061,0,0,1-1.056-1.059h0a1.059,1.059,0,0,1,1.056-1.056h34.418a1.059,1.059,0,0,1,1.056,1.056h0A1.061,1.061,0,0,1,152.955,262.135Z" transform="translate(-102.665 -228.621)"/><path class="d" d="M156.118,305.273H132.082a3.552,3.552,0,0,1,0-7.1h24.037a3.552,3.552,0,1,1,0,7.1Zm-24.037-6.859a3.308,3.308,0,0,0,0,6.615h24.037a3.308,3.308,0,0,0,0-6.615Z" transform="translate(-111.02 -257.465)"/><path class="d" d="M140.32,307.058h-5.61a2.708,2.708,0,0,1-2.71-2.7h0a2.708,2.708,0,0,1,2.7-2.7h5.61a2.708,2.708,0,0,1,2.7,2.7h0A2.708,2.708,0,0,1,140.32,307.058Z" transform="translate(-113.643 -260.104)"/><path class="h" d="M168.4,144.309l-4.564,19.446H136.61l7.615-32.455,18.853,4.422Z" transform="translate(-117.129 -131.3)"/><path class="j" d="M168.4,144.309l-4.564,19.446H136.61l7.615-32.455,18.853,4.422Z" transform="translate(-117.129 -131.3)"/><path class="h" d="M186.957,181.018l-20.68-4.854a.551.551,0,0,1-.412-.663h0a.554.554,0,0,1,.663-.415l20.683,4.847a.556.556,0,0,1,.412.666h0A.559.559,0,0,1,186.957,181.018Z" transform="translate(-139.236 -164.395)"/><path class="h" d="M183.717,194.818l-20.68-4.854a.554.554,0,0,1-.412-.666h0a.556.556,0,0,1,.666-.412l20.68,4.854a.554.554,0,0,1,.412.663h0a.556.556,0,0,1-.666.415Z" transform="translate(-136.786 -174.828)"/><path class="h" d="M180.478,208.577l-20.68-4.852a.556.556,0,0,1-.412-.666h0a.559.559,0,0,1,.666-.412l20.68,4.852a.554.554,0,0,1,.412.666h0A.554.554,0,0,1,180.478,208.577Z" transform="translate(-134.338 -185.233)"/><path class="h" d="M177.242,222.453l-20.683-4.84a.559.559,0,0,1-.412-.666h0a.556.556,0,0,1,.666-.412l20.68,4.852a.559.559,0,0,1,.415.666h0A.554.554,0,0,1,177.242,222.453Z" transform="translate(-131.89 -195.733)"/><path class="h" d="M165.812,234.27l-12.457-2.927a.554.554,0,0,1-.4-.666h0a.551.551,0,0,1,.663-.412l12.46,2.927a.554.554,0,0,1,.412.666h0a.554.554,0,0,1-.676.412Z" transform="translate(-129.473 -206.113)"/><path class="h" d="M245.384,158.016l-6.954-1.632,1.632-6.954Z" transform="translate(-194.112 -145.008)"/></g><g transform="translate(60.456 56.92)"><path class="i" d="M268.171,260.33l-5.781,38.031h1.142l.763-5.032h14.728l-.764,5.032H279.4l5.781-38.031Zm11.006,31.991H264.449l.822-5.4H280Zm.976-6.4H265.422l.822-5.4h14.728Zm.976-6.4H266.4l.822-5.4h14.729Zm.976-6.4H267.371l.82-5.4h14.728Zm-13.76-6.406.82-5.4h14.729l-.82,5.4Z" transform="translate(-258.841 -212.164)"/><path class="i" d="M312.852,260.33H295.84l5.781,38.031h1.142L302,293.329h14.728l.766,5.032h1.142Zm-15.721.976h14.728l.82,5.4H297.95Zm.976,6.4h14.726l.82,5.4H298.923Zm.976,6.406H313.81l.815,5.406H299.9Zm.976,6.4h14.728l.82,5.4H300.87Zm1.793,11.8-.82-5.4h14.728l.82,5.4Z" transform="translate(-284.131 -212.164)"/><path class="k" d="M312.852,260.33H295.84l5.781,38.031h1.142L302,293.329h14.728l.766,5.032h1.142Zm-15.721.976h14.728l.82,5.4H297.95Zm.976,6.4h14.726l.82,5.4H298.923Zm.976,6.406H313.81l.815,5.406H299.9Zm.976,6.4h14.728l.82,5.4H300.87Zm1.793,11.8-.82-5.4h14.728l.82,5.4Z" transform="translate(-284.131 -212.164)"/><path class="l" d="M330.445,108.58c.488.376.917.751,1.361,1.142s.868.79,1.288,1.2a27.083,27.083,0,0,1,2.381,2.664l.273.368.137.183a2.741,2.741,0,0,1,.207.339,3.264,3.264,0,0,1,.337,1.264,6.56,6.56,0,0,1-.207,2.012,13.6,13.6,0,0,1-1.351,3.366l-1.246-.507a23.675,23.675,0,0,0,.529-3.2,5.332,5.332,0,0,0-.044-1.393.961.961,0,0,0-.144-.368c-.012-.012-.017-.012-.024-.02l-.132-.149-.263-.3c-.732-.79-1.5-1.561-2.317-2.3s-1.659-1.488-2.478-2.181Z" transform="translate(-309.014 -97.43)"/><path class="l" d="M346.413,155.85l-1.4.976,1.708,1.034s.881-.842.5-1.622Z" transform="translate(-321.307 -133.169)"/><path class="l" d="M342.15,161.422l1.293.724,1.122-1.305-1.717-1.032Z" transform="translate(-319.145 -136.163)"/><path class="i" d="M295.342,86.911c.039.159-.012.307-.115.334s-.22-.08-.261-.244.012-.307.115-.334S295.3,86.745,295.342,86.911Z" transform="translate(-283.46 -80.859)"/><path class="m" d="M295.3,88.93a5.8,5.8,0,0,1-.407,1.542.944.944,0,0,0,.79-.051Z" transform="translate(-283.413 -82.573)"/><path class="i" d="M295.163,82.728a.1.1,0,0,1-.059,0,.766.766,0,0,0-.69.046.1.1,0,0,1-.11-.154.946.946,0,0,1,.871-.071.1.1,0,0,1-.012.181Z" transform="translate(-282.947 -77.693)"/><path class="l" d="M308.9,89.5c.227,1.488.546,3.769,1.854,4.344,0,0,.127,1.547-2.456,2.476-2.839,1.022-1.864-.92-1.864-.92,1.417-.929.964-2.064.3-3.047Z" transform="translate(-292.022 -83.004)"/><path class="i" d="M311.28,102.212c0-.466-.476-1.273-.956-1.22a9.061,9.061,0,0,0-3.286,1.486c-.737.681-.215,1.873-.215,1.873Z" transform="translate(-292.3 -91.691)"/><path class="h" d="M387.839,335.852c-.127.132-.271.244-.383.227-.049,0-.112-.034-.144-.141a.2.2,0,0,1,.022-.163c.137-.232.732-.351.749-.356a.044.044,0,0,1,.044.017.046.046,0,0,1,0,.046A2.283,2.283,0,0,1,387.839,335.852Zm-.4-.076a.182.182,0,0,0-.034.042.12.12,0,0,0-.012.1c.024.076.061.08.073.083.124.015.38-.244.534-.471A1.373,1.373,0,0,0,387.439,335.776Z" transform="translate(-353.284 -268.934)"/><path class="h" d="M387.9,334.547a.044.044,0,0,1-.017.012c-.2.063-.732.046-.851-.12a.142.142,0,0,1,.015-.173.229.229,0,0,1,.166-.093c.266-.032.668.3.685.312a.041.041,0,0,1,.015.039A.046.046,0,0,1,387.9,334.547Zm-.773-.244-.012.015c-.034.044-.019.063-.012.073.068.1.442.141.671.1a1.01,1.01,0,0,0-.551-.244A.134.134,0,0,0,387.124,334.3Z" transform="translate(-353.059 -267.993)"/><path class="h" d="M327.277,356.763c-.229,0-.451-.032-.527-.134a.163.163,0,0,1,0-.185.212.212,0,0,1,.134-.1c.3-.081.924.276.951.293a.039.039,0,0,1,.02.041.041.041,0,0,1-.034.037A3.218,3.218,0,0,1,327.277,356.763Zm-.283-.346a.287.287,0,0,0-.083,0,.124.124,0,0,0-.083.059c-.029.054-.02.078,0,.1.083.115.534.117.868.071a1.922,1.922,0,0,0-.7-.224Z" transform="translate(-307.48 -284.748)"/><path class="h" d="M329.274,355.4a.025.025,0,0,1-.017,0c-.217-.1-.644-.488-.612-.685,0-.049.041-.107.159-.12a.317.317,0,0,1,.244.073,1.19,1.19,0,0,1,.278.69.037.037,0,0,1-.051.041Zm-.437-.732h-.027c-.076,0-.081.037-.083.046-.02.122.273.427.488.559a.976.976,0,0,0-.244-.551.225.225,0,0,0-.134-.049Z" transform="translate(-308.933 -283.431)"/><path class="l" d="M333.2,344.862h-1.793l-.178-4.152h1.793Z" transform="translate(-310.889 -272.937)"/><path class="l" d="M386.506,321.287l-1.659.6-2.108-3.717,1.659-.6Z" transform="translate(-349.834 -255.441)"/><path class="i" d="M386.073,329.975l1.4-1.449a.159.159,0,0,1,.193-.024l1.39.854a.263.263,0,0,1,.046.41c-.488.488-.763.715-1.378,1.351-.38.39-1.507,1.707-2.03,2.259s-1.127.093-.961-.176a7.654,7.654,0,0,0,1.22-2.939A.432.432,0,0,1,386.073,329.975Z" transform="translate(-351.32 -263.69)"/><path class="i" d="M319.946,356.88H321.9a.156.156,0,0,1,.154.122l.354,1.593a.259.259,0,0,1-.259.317c-.7,0-1.725-.051-2.613-.051-1.037,0-1.49.056-2.708.056-.732,0-.939-.744-.632-.812a8.6,8.6,0,0,0,3.315-1.085A.839.839,0,0,1,319.946,356.88Z" transform="translate(-299.417 -285.162)"/><path class="l" d="M272.613,119.994c-.276.7-.568,1.342-.871,2.005s-.624,1.307-.956,1.951a29.792,29.792,0,0,1-2.305,3.808q-.34.461-.732.915c-.134.154-.271.3-.432.454a3.845,3.845,0,0,1-.607.468,7.092,7.092,0,0,1-1.127.559c-.366.149-.732.271-1.09.378a22.394,22.394,0,0,1-4.33.8l-.273-1.317c1.305-.471,2.632-.961,3.854-1.508.3-.141.6-.285.878-.434a4.94,4.94,0,0,0,.732-.466,1.413,1.413,0,0,0,.217-.2c.085-.1.188-.217.28-.337.188-.244.373-.5.551-.778.363-.542.7-1.129,1.025-1.727s.642-1.22.944-1.829c.607-1.237,1.2-2.517,1.737-3.769Z" transform="translate(-256.951 -105.286)"/><path class="h" d="M323.648,104.166c2.571-.2,4.879,3.613,4.879,3.613l-1.847,3a13.321,13.321,0,0,1-3.659-2.178C321.272,107.081,321.892,104.305,323.648,104.166Z" transform="translate(-303.895 -94.087)"/><path class="n" d="M328.16,117.36,330.865,121l-.122.149s-.932-.732-2.01-1.79Z" transform="translate(-308.568 -104.068)"/><path class="h" d="M299.568,107.214c-.144,1.256,1.951,6.813,2.439,13.4l9.54-.939a117.187,117.187,0,0,0-2.03-12.594c-.349-1.659-1.634-2.927-3.3-2.6h-.046a34.97,34.97,0,0,0-3.947,1.012,17.5,17.5,0,0,0-2.137.944A.993.993,0,0,0,299.568,107.214Z" transform="translate(-286.945 -94.293)"/><path class="n" d="M303.55,130.322c.161.671.329,1.4.488,2.171,1.451-.344,1.171-3.561,1.2-3.6Z" transform="translate(-289.961 -112.786)"/><path class="h" d="M297.753,113.654c.732,2.51-1.976,5.854-1.976,5.854l-2.727-1.756a10.647,10.647,0,0,1,.851-4.1C295.006,111.383,297.231,111.864,297.753,113.654Z" transform="translate(-282.022 -100.111)"/><path class="l" d="M256.605,162.829l-1.1-.149.017,2.288a2.826,2.826,0,0,0,2.3-.866l-.161-.429A1.32,1.32,0,0,0,256.605,162.829Z" transform="translate(-253.639 -138.333)"/><path class="l" d="M247.84,163.209l.7,1.864,1.2-.1-.017-2.288Z" transform="translate(-247.84 -138.333)"/><path class="o" d="M331.23,340.72l.1,2.332h1.793l-.1-2.332Z" transform="translate(-310.889 -272.944)"/><path class="o" d="M384.4,317.57l-1.659.6,1.166,2.059,1.581-.746Z" transform="translate(-349.834 -255.441)"/><path class="l" d="M300.807,73.794c.378,1.969.7,3.1-.024,4.347a2.661,2.661,0,0,1-4.664-.217c-.864-1.637-1.337-4.579.356-5.835a2.732,2.732,0,0,1,4.332,1.705Z" transform="translate(-283.752 -69.425)"/><path class="i" d="M291.229,68.557c-1.2.6-1.22-1.317-1.125-1.725a1.752,1.752,0,0,1-2.169.393c-1.361-.588-.976-2.125,0-2.105a.977.977,0,0,1,.868-1.537,5.306,5.306,0,0,1,1.937.3,1.413,1.413,0,0,1,2.037-.8,4.319,4.319,0,0,1,1.373,1.573s3.11.461,1.422,2.086a6.076,6.076,0,0,1-.807,4.71C294.334,71.957,290.638,71.808,291.229,68.557Z" transform="translate(-277.488 -62.873)"/><path class="i" d="M313.94,65.443a4.864,4.864,0,0,0,.61-2.573C315.865,64.3,313.94,65.443,313.94,65.443Z" transform="translate(-297.816 -62.87)"/><path class="l" d="M301.954,83.39a2.259,2.259,0,0,1-.381,1.405c-.366.544-.864.31-1.025-.263-.146-.515-.132-1.42.363-1.761S301.9,82.79,301.954,83.39Z" transform="translate(-287.631 -77.816)"/><path class="i" d="M323.48,167.532s3.366,13.416,4.981,18.424c1.766,5.474,9.43,19.824,9.43,19.824l3.008-1.31s-5.8-13.065-7.04-18.539c-1.344-5.932-4.222-19.012-4.222-19.012Z" transform="translate(-305.029 -141.539)"/><path class="h" d="M378.91,317.588c-.012,0,.976,1.412.976,1.412l3.378-1.493-.683-1.4Z" transform="translate(-346.938 -254.337)"/><path class="n" d="M329.072,188.8c2.386.227,3,8.979,3.156,13.5-.988-3.108-2.576-9.116-3.678-13.382A.812.812,0,0,1,329.072,188.8Z" transform="translate(-308.862 -158.079)"/><path class="i" d="M309.61,168.862s.388,13.787,1.117,19.207c.759,5.637,3.564,23.661,3.564,23.661h3.037s-.7-18.2-1.115-23.771c-.449-6.071-.332-19.719-.332-19.719Z" transform="translate(-294.542 -142.537)"/><path class="h" d="M326.319,340.72c-.012,0,.244,1.837.244,1.837l3.691-.127.034-1.707Z" transform="translate(-307.175 -272.944)"/></g></g></svg>