<svg xmlns="http://www.w3.org/2000/svg" width="18.29" height="18.29" viewBox="0 0 18.29 18.29"><defs><style>.a{fill:none;}.b{fill:#fff;}</style></defs><path class="a" d="M0,0H18.29V18.29H0Z"/><path class="b" d="M15.718,2H3.524A1.522,1.522,0,0,0,2.008,3.524L2,17.242l3.048-3.048H15.718a1.529,1.529,0,0,0,1.524-1.524V3.524A1.529,1.529,0,0,0,15.718,2Zm-2.759,8.154L11.145,8.706v1.677a.764.764,0,0,1-.762.762H5.81a.764.764,0,0,1-.762-.762V5.81a.764.764,0,0,1,.762-.762h4.573a.764.764,0,0,1,.762.762V7.487l1.814-1.448a.76.76,0,0,1,1.235.594V9.56A.76.76,0,0,1,12.959,10.154Z" transform="translate(-0.476 -0.476)"/></svg>