<svg xmlns="http://www.w3.org/2000/svg" width="12.923" height="12.923" viewBox="0 0 12.923 12.923"><defs><style>.a{fill:none;}.b{fill:#9b9b9b;}</style></defs><path class="a" d="M0,0H12.923V12.923H0Z"/><path class="b" d="M11.693,2H3.077A1.076,1.076,0,0,0,2.005,3.077L2,12.769l2.154-2.154h7.539a1.08,1.08,0,0,0,1.077-1.077V3.077A1.08,1.08,0,0,0,11.693,2ZM9.743,7.762,8.462,6.739V7.923a.54.54,0,0,1-.538.538H4.692a.54.54,0,0,1-.538-.538V4.692a.54.54,0,0,1,.538-.538H7.923a.54.54,0,0,1,.538.538V5.877L9.743,4.854a.537.537,0,0,1,.872.42V7.342A.537.537,0,0,1,9.743,7.762Z" transform="translate(-0.923 -0.923)"/></svg>