<svg xmlns="http://www.w3.org/2000/svg" width="20" height="20" viewBox="0 0 20 20"><defs><style>.a{fill:none;}.b,.c{fill:#6c0ba9;}.b{opacity:0.3;}</style></defs><g transform="translate(0.182 0.182)"><rect class="a" width="20" height="20" transform="translate(-0.182 -0.182)"/><g transform="translate(0.818 1.227)"><path class="b" d="M15.794,8.816l.065-.7.147-1.6-1.555-.352-.687-.155-.36-.605-.81-1.375L11.13,4.66l-.646.278L9.837,4.66,8.373,4.03,7.563,5.4,7.2,6.01l-.687.155-1.555.352L5.108,8.1l.065.7-.458.532L3.66,10.543l1.055,1.2.458.532-.065.7-.147,1.6,1.555.352.687.155.36.605.81,1.366,1.456-.63.655-.27.646.278,1.456.63.81-1.375.36-.605.687-.155L16,14.577l-.147-1.6-.065-.7.458-.532,1.055-1.2-1.055-1.2Zm-6.873,5.6L5.812,11.3l1.211-1.211,1.9,1.906,4.786-4.8L14.918,8.4Z" transform="translate(-1.484 -1.96)"/><path class="c" d="M19,10.083,17,7.8l.278-3.019L14.328,4.11,12.782,1.5,10,2.695,7.218,1.5,5.672,4.11l-2.954.663L3,7.8,1,10.083l2,2.283-.278,3.027,2.954.671,1.546,2.618L10,17.479l2.782,1.195,1.546-2.61,2.954-.671L17,12.374Zm-3.232,1.211-.458.532.065.7.147,1.6-1.555.352-.687.155-.36.605-.81,1.375-1.456-.63L10,15.7l-.646.278L7.9,16.6l-.81-1.366-.36-.605-.687-.155-1.555-.352.147-1.6.065-.7-.458-.532-1.055-1.2L4.24,8.88,4.7,8.348l-.074-.7L4.477,6.057l1.555-.352.687-.155.36-.605.81-1.375,1.456.63L10,4.478l.646-.278L12.1,3.57l.81,1.375.36.605.687.155,1.555.352-.147,1.6-.065.7.458.532,1.055,1.2Z" transform="translate(-1 -1.5)"/><path class="c" d="M9.4,12.681,7.5,10.775,6.29,11.994,9.4,15.111,15.4,9.089,14.194,7.87Z" transform="translate(-1.962 -2.658)"/></g></g></svg>