<svg xmlns="http://www.w3.org/2000/svg" width="212.237" height="256.438" viewBox="0 0 212.237 256.438"><defs><style>.a{fill:#ebebeb;}.b{fill:#e0e0e0;}.c{fill:#f5f5f5;}.d{fill:#b78876;}.e{fill:#aa6550;}.f{fill:#263238;}.g{fill:#b24bf3;}.h{fill:#455a64;}.i{fill:#fafafa;}.j{fill:#ffbe9d;}.k{fill:#eb996e;}.l{fill:#fff;}</style></defs><g transform="translate(-71.942 -46.87)"><g transform="translate(71.942 62.123)"><path class="a" d="M74.73,248.037s-6.353,2.191.122,15.763,11.027,20.34,11.027,20.34,1.129,3.137-1.5,3.552-8.373-.659-9.624,2.508c-1.3,3.289,1.031,6.487,5.846,9.368s15.147,9.581,16.074,10.191,1.831,2.069.061,2.636-14.744,1.574-13.9,7.714,15.586,11.949,17.216,12.626,1.971,1.361,1.831,2.246-4.553.806-8.239,1.221-7.885,1.587-7.1,5.09,9.4,11.046,30.757,13.725l9.978.61,5.614-8.312c11.034-18.479,10.374-29.9,8.117-32.692s-5.773-.171-8.385,2.441-5.26,6.151-6.054,5.73-1.111-1.141-.653-2.813,4.943-16.868.61-21.316-13.108,5.187-14.646,6.212-2.13-.61-2.038-1.672,1.166-13.371,1.831-18.918-.4-9.374-3.79-10.374c-3.265-.964-5.95,4.217-7.9,6.035s-3.723-1-3.723-1-2.526-7.75-9.245-21.207S74.6,248.092,74.6,248.092" transform="translate(-71.942 -140.353)"/><path class="b" d="M133.149,366.048c-4.882-9.9-13.3-27.651-20.59-42.847s-13.908-28.945-18.753-38.874l-5.749-11.748-1.562-3.2c-.171-.36-.305-.61-.4-.836a2.557,2.557,0,0,0-.128-.287s.055.092.153.275l.427.818,1.617,3.173c1.4,2.752,3.393,6.756,5.834,11.7,4.882,9.9,11.546,23.642,18.839,38.837s15.665,32.954,20.511,42.883" transform="translate(-77.409 -148.407)"/><path class="b" d="M89.61,320.4a3.814,3.814,0,0,1,.69.214c.439.159,1.068.4,1.831.7,1.544.61,3.662,1.52,5.962,2.557L104,326.545l1.788.8a3.082,3.082,0,0,1,.653.323,3.289,3.289,0,0,1-.7-.207c-.439-.159-1.062-.4-1.831-.714-1.532-.61-3.662-1.556-5.944-2.594l-5.92-2.636-1.794-.787A2.582,2.582,0,0,1,89.61,320.4Z" transform="translate(-78.828 -168.728)"/><path class="b" d="M118.338,318.705c-.079-.031,1.593-4.461,3.729-9.9S126,299,126.064,299s-1.593,4.461-3.729,9.9S118.418,318.736,118.338,318.705Z" transform="translate(-90.023 -160.388)"/><path class="b" d="M135,360.593a3.558,3.558,0,0,1,.421-.61l1.221-1.587c1.037-1.343,2.441-3.2,3.948-5.309s2.783-4.058,3.7-5.492l1.092-1.684a2.99,2.99,0,0,1,.433-.61,3.66,3.66,0,0,1-.33.659c-.232.415-.574,1.013-1.013,1.739-.873,1.452-2.136,3.43-3.662,5.541s-2.948,3.954-4.022,5.26c-.543.653-.989,1.172-1.306,1.526a3.391,3.391,0,0,1-.488.568Z" transform="translate(-96.518 -178.433)"/><path class="b" d="M106.81,366.219a3.4,3.4,0,0,1,.684,0l1.831.2c1.556.183,3.7.452,6.1.769s4.51.61,6.054.854l1.831.293a2.907,2.907,0,0,1,.665.146,2.49,2.49,0,0,1-.677-.031l-1.831-.2c-1.55-.177-3.7-.446-6.066-.763s-4.51-.61-6.06-.854l-1.831-.293A2.891,2.891,0,0,1,106.81,366.219Z" transform="translate(-85.531 -186.579)"/><path class="b" d="M117.11,402.586a4.276,4.276,0,0,1,.873.043l2.362.244c2,.22,4.748.543,7.787.921s5.791.732,7.775,1.007l2.356.342a4.173,4.173,0,0,1,.854.165,4.68,4.68,0,0,1-.873-.049l-2.362-.244c-2-.214-4.748-.537-7.787-.915s-5.785-.732-7.775-1.007l-2.35-.342a5.137,5.137,0,0,1-.86-.165Z" transform="translate(-89.546 -200.757)"/><path class="b" d="M152.34,394.1a4.993,4.993,0,0,1,.513-.781c.384-.531.885-1.221,1.483-2.069,1.221-1.745,2.966-4.168,4.791-6.89s3.411-5.23,4.546-7.055l1.343-2.16a6.494,6.494,0,0,1,.525-.775,4.766,4.766,0,0,1-.421.836c-.287.531-.714,1.288-1.263,2.215-1.086,1.831-2.649,4.382-4.473,7.11s-3.57,5.132-4.882,6.853c-.647.854-1.184,1.544-1.562,2.008a5.328,5.328,0,0,1-.6.708Z" transform="translate(-103.276 -189.762)"/><path class="c" d="M325.5,308.437c-15.482-7.647-21.414-25.314-23.343-41.705-.323-2.74-1.056-5.566-.128-8.147s3.7-4.681,6.316-3.906c2.173.647,3.411,2.862,4.833,4.638a16.178,16.178,0,0,0,7.323,5.126c1.867.61,4.1.86,5.669-.342,2.148-1.654,1.935-4.943,1.5-7.647l-2.4-15.147a25.587,25.587,0,0,1-.4-8.165c.452-2.673,1.947-5.37,4.412-6.481s5.877-.116,6.829,2.441a30.406,30.406,0,0,1,.61,3.356,2.95,2.95,0,0,0,2.075,2.441c1.117.165,2.1-.781,2.783-1.7,2.38-3.155,3.741-6.969,4.98-10.741s2.441-7.622,4.5-10.985,5.23-6.261,9.075-7.073,8.342.958,9.9,4.614-.073,7.878-2.032,11.339a61.026,61.026,0,0,1-10.759,13.914,4.991,4.991,0,0,0-1.758,2.581c-.317,1.9,1.666,3.43,3.539,3.753,2.124.366,4.272-.177,6.432-.25s4.577.507,5.675,2.38c1.532,2.6-.342,5.852-2.331,8.1a52.391,52.391,0,0,1-14,11.217c-1.886,1.031-3.881,1.989-5.273,3.662s-2,4.223-.732,5.981,3.845,2,5.871,1.294,3.723-2.124,5.6-3.173c3.509-1.971,8.354-2.441,11.229.4a8.683,8.683,0,0,1,2.063,7.439,20.039,20.039,0,0,1-3.088,7.323,52.337,52.337,0,0,1-19.852,19.01c-8.177,4.308-16.056,6.274-25.112,4.443" transform="translate(-161.44 -123.445)"/><path class="b" d="M345.13,298.663a245.728,245.728,0,0,1,5.657-27.578q.946-3.625,1.831-7.152c.61-2.35,1.221-4.675,1.959-6.914a121.829,121.829,0,0,1,4.968-12.632c1.776-3.942,3.6-7.616,5.334-11.04s3.424-6.579,5.083-9.392a97.078,97.078,0,0,1,8.824-12.675c1.153-1.41,2.081-2.478,2.722-3.192.311-.336.549-.61.732-.806a2.031,2.031,0,0,1,.262-.262,2.008,2.008,0,0,1-.226.3l-.7.836c-.61.738-1.513,1.831-2.642,3.247a103.817,103.817,0,0,0-8.647,12.736c-1.629,2.819-3.3,5.981-5.016,9.4s-3.527,7.1-5.285,11.04a125.205,125.205,0,0,0-4.919,12.59c-.732,2.227-1.33,4.54-1.947,6.89s-1.221,4.742-1.831,7.152a251.98,251.98,0,0,0-5.688,27.529" transform="translate(-178.414 -124.54)"/><path class="b" d="M355.47,270.207a5.191,5.191,0,0,1-.439-1.117c-.256-.726-.61-1.788-.989-3.106-.793-2.642-1.764-6.322-2.819-10.374s-2.075-7.72-2.9-10.338c-.415-1.312-.757-2.368-1.007-3.1A5.493,5.493,0,0,1,347,241a5.326,5.326,0,0,1,.513,1.08c.305.708.7,1.751,1.16,3.051.921,2.6,2,6.255,3.051,10.326s1.959,7.634,2.673,10.411c.33,1.251.61,2.3.83,3.149A5.8,5.8,0,0,1,355.47,270.207Z" transform="translate(-179.142 -137.783)"/><path class="b" d="M394.707,269.52a8.155,8.155,0,0,1-1.367.372c-.879.22-2.154.525-3.723.952-3.137.83-7.427,2.124-12.1,3.765s-8.837,3.314-11.815,4.614c-1.489.61-2.685,1.184-3.515,1.556a7.8,7.8,0,0,1-1.306.543,7.52,7.52,0,0,1,1.221-.72c.806-.427,1.977-1.031,3.46-1.709,2.948-1.385,7.1-3.112,11.79-4.766a125.121,125.121,0,0,1,12.205-3.662c1.581-.378,2.874-.61,3.771-.787a7.066,7.066,0,0,1,1.379-.159Z" transform="translate(-184.552 -148.898)"/><path class="b" d="M330.155,329.3a2.252,2.252,0,0,1-.3-.391c-.214-.317-.476-.7-.787-1.172-.684-1.013-1.623-2.514-2.764-4.382-2.288-3.735-5.285-8.989-8.513-14.836s-6.176-11.119-8.379-14.9l-2.624-4.461-.708-1.221a.249.249,0,1,1,.085-.055l.787,1.166c.677,1.019,1.623,2.52,2.764,4.388,2.289,3.729,5.285,8.989,8.513,14.835s6.17,11.119,8.379,14.9l2.624,4.461c.281.488.513.891.708,1.221A1.66,1.66,0,0,1,330.155,329.3Z" transform="translate(-163.109 -155.906)"/><path class="b" d="M389.67,320.07a2.3,2.3,0,0,1-.433.256c-.342.177-.763.4-1.275.653l-4.711,2.362c-3.973,2-9.435,4.809-15.464,7.933s-11.54,5.883-15.543,7.793c-2.008.958-3.662,1.715-4.784,2.215l-1.312.568a2.1,2.1,0,0,1-.476.171,1.654,1.654,0,0,1,.433-.262l1.275-.653,4.705-2.362c3.979-1.989,9.441-4.809,15.47-7.933s11.522-5.9,15.543-7.793c2.008-.958,3.662-1.715,4.778-2.215l1.318-.568a1.775,1.775,0,0,1,.476-.165Z" transform="translate(-178.624 -168.599)"/><path class="c" d="M110.415,71.947a9.209,9.209,0,0,1,6.975,1.928,16.215,16.215,0,0,1,4.516,5.822c2.13,4.272,2.441,9.813,2.081,14.591-5.273-.763-9.361-5.4-11.29-7.878-3.051-3.924-6.164-12.858-2.27-14.494" transform="translate(-86.232 -71.864)"/><path class="c" d="M145.776,105.934a7.885,7.885,0,0,1-1.922-7.671,10.472,10.472,0,0,1,5.181-6.212A4.381,4.381,0,0,1,152.7,91.5a3.356,3.356,0,0,1,1.9,2.838,6.853,6.853,0,0,1-.775,3.466c-1.739,3.717-4.1,7-8.049,8.135" transform="translate(-99.849 -79.433)"/><path class="b" d="M149.037,121.651a15.433,15.433,0,0,1-1.221-2.917,14.542,14.542,0,0,1-.745-3.387,32.225,32.225,0,0,1-.262-4.217,15.757,15.757,0,0,1,1.91-7.427,11.137,11.137,0,0,1,1.361-1.892c.384-.4.61-.61.641-.574a22.189,22.189,0,0,0-1.672,2.649,16.892,16.892,0,0,0-1.7,7.256,37.1,37.1,0,0,0,.22,4.156,16.409,16.409,0,0,0,.61,3.32A22.283,22.283,0,0,1,149.037,121.651Z" transform="translate(-101.121 -83.311)"/><path class="b" d="M116.46,82.75a9.222,9.222,0,0,1,.995,1.257c.61.83,1.489,2.038,2.557,3.54,2.13,3.009,5.035,7.2,8.123,11.906s5.761,9.05,7.628,12.205c.94,1.587,1.678,2.887,2.173,3.79a9.717,9.717,0,0,1,.726,1.434,8.732,8.732,0,0,1-.9-1.33l-2.319-3.7c-1.947-3.125-4.675-7.427-7.756-12.132L119.7,87.785l-2.441-3.662A8.542,8.542,0,0,1,116.46,82.75Z" transform="translate(-89.292 -76.107)"/><path class="c" d="M127.927,120.48a18.43,18.43,0,0,0-16.434-3.662c-1.44.391-3.051,1.221-3.222,2.685s1.172,2.679,2.49,3.375a15.745,15.745,0,0,0,17.35-2.038" transform="translate(-86.095 -89.152)"/><path class="b" d="M119.28,121.093a2.569,2.569,0,0,1,.818-.2c.537-.1,1.312-.189,2.282-.281a20.748,20.748,0,0,1,7.549.653,13,13,0,0,1,3.778,1.867,12.309,12.309,0,0,1,2.441,2.4,11.851,11.851,0,0,1,1.251,1.935,2.673,2.673,0,0,1,.342.775c-.1.055-.653-1.013-1.886-2.472a12.761,12.761,0,0,0-6.1-3.991A23.385,23.385,0,0,0,122.38,121a25.906,25.906,0,0,1-3.1.1Z" transform="translate(-90.391 -90.827)"/></g><g transform="translate(128.326 93.054)"><path class="d" d="M360.078,162.792c-.164-.064-6.51-1.729-6.128,4.69S360.7,172.191,360.7,172,360.078,162.792,360.078,162.792Z" transform="translate(-321.838 -139.865)"/><path class="e" d="M360.54,172.273c-.032-.023-.109.082-.291.182a1.11,1.11,0,0,1-.837.064,2.761,2.761,0,0,1-1.428-2.4,3.748,3.748,0,0,1,.2-1.6,1.292,1.292,0,0,1,.792-.91.569.569,0,0,1,.678.268c.1.173.064.3.1.314s.132-.118.064-.378a.691.691,0,0,0-.277-.387.828.828,0,0,0-.628-.127,1.57,1.57,0,0,0-1.105,1.064,3.739,3.739,0,0,0-.282,1.82,2.912,2.912,0,0,0,1.8,2.675,1.2,1.2,0,0,0,1.014-.232C360.536,172.428,360.563,172.282,360.54,172.273Z" transform="translate(-323.783 -142.444)"/><path class="f" d="M402.66,112.69c3.262,0,6.583,0,10.663,2.134a13.26,13.26,0,0,1,5.518,6.046,13.92,13.92,0,0,1,1.519,6.774,14.846,14.846,0,0,1-1.014,5.809" transform="translate(-348.397 -112.686)"/><path class="d" d="M380.517,113.748A17.287,17.287,0,0,1,399.01,130.1c.419,8.039.787,16.732.7,21.108-.191,9.4-9.6,10.786-9.6,10.786s.209,2.784.455,6.242a12.383,12.383,0,0,1-11.883,13.193h0a12.374,12.374,0,0,1-12.838-11.91l-1.4-37.877a17.287,17.287,0,0,1,16.086-17.9Z" transform="translate(-327.56 -113.239)"/><path class="e" d="M406.425,215.4a22.343,22.343,0,0,1-12.055-3.717s2.843,6.824,12.224,6.069Z" transform="translate(-343.879 -166.643)"/><path class="f" d="M429.326,159.766a1.337,1.337,0,0,1-1.3,1.365,1.278,1.278,0,0,1-1.365-1.219,1.365,1.365,0,0,1,1.3-1.365,1.283,1.283,0,0,1,1.365,1.219Z" transform="translate(-361.479 -137.68)"/><path class="f" d="M429.035,155.338c-.168.173-1.178-.587-2.625-.6s-2.507.71-2.661.532c-.077-.082.1-.4.56-.728a3.639,3.639,0,0,1,2.134-.637,3.494,3.494,0,0,1,2.084.691C428.967,154.942,429.117,155.26,429.035,155.338Z" transform="translate(-359.883 -135.153)"/><path class="f" d="M398.19,159.766a1.337,1.337,0,0,1-1.306,1.365,1.283,1.283,0,0,1-1.365-1.219,1.365,1.365,0,0,1,1.306-1.365,1.287,1.287,0,0,1,1.365,1.219Z" transform="translate(-344.506 -137.68)"/><path class="f" d="M397.821,155.682c-.168.173-1.183-.587-2.625-.6s-2.507.705-2.666.528c-.073-.077.1-.4.564-.728a3.68,3.68,0,0,1,2.134-.637,3.558,3.558,0,0,1,2.084.692C397.739,155.287,397.9,155.6,397.821,155.682Z" transform="translate(-342.867 -135.339)"/><path class="f" d="M414.814,166.576a10.071,10.071,0,0,1,2.347-.4c.369-.036.719-.1.783-.355a1.847,1.847,0,0,0-.237-1.1c-.337-.91-.7-1.82-1.069-2.816-1.483-4.012-2.552-7.306-2.388-7.365s1.5,3.144,2.975,7.156c.359.987.7,1.929,1.024,2.834a2.133,2.133,0,0,1,.182,1.447.951.951,0,0,1-.614.537,2.8,2.8,0,0,1-.623.082A8.138,8.138,0,0,1,414.814,166.576Z" transform="translate(-354.706 -135.497)"/><path class="f" d="M405.86,183.15c.237,0,.223,1.556,1.556,2.68s3.007.964,3.016,1.183c0,.1-.378.3-1.083.318a3.912,3.912,0,0,1-2.516-.91,3.426,3.426,0,0,1-1.206-2.247C405.573,183.536,405.751,183.141,405.86,183.15Z" transform="translate(-350.01 -151.092)"/><path class="f" d="M397.189,143.685c-.146.391-1.583.2-3.28.387s-3.071.641-3.294.287c-.1-.168.146-.537.7-.91a5.746,5.746,0,0,1,5-.51C396.944,143.171,397.253,143.48,397.189,143.685Z" transform="translate(-341.821 -128.982)"/><path class="f" d="M429.051,143.932c-.255.328-1.247-.023-2.443-.045s-2.211.2-2.443-.146c-.1-.168.059-.5.5-.8a3.535,3.535,0,0,1,3.94.155C429.029,143.436,429.165,143.773,429.051,143.932Z" transform="translate(-360.104 -128.888)"/><path class="f" d="M364.249,134.026s.409,2.175.519,3.153c.041.359,0,4.34.96,4.549a3.5,3.5,0,0,0,3.221-2.234c.737-1.647,2.138-5.6,1.984-7.4a26,26,0,0,1,.173-7.352,10.586,10.586,0,0,1,3.576-6.278,6.691,6.691,0,0,1,6.933-.942c1.365.682,2.37,1.888,3.639,2.73a5.646,5.646,0,0,0,3.876,1.005,3.639,3.639,0,0,0,3-2.457,3.97,3.97,0,0,0-1.488-3.953,9.085,9.085,0,0,0-4.094-1.679,22.014,22.014,0,0,0-12.2.855,15.878,15.878,0,0,0-8.916,8.161c-1.9,4.381-1.683,7.07-1.178,11.828" transform="translate(-327.269 -112.681)"/><path class="f" d="M396.459,153.589a11.037,11.037,0,0,0-.246-1.547,6.369,6.369,0,0,0-2.325-3.462,6.251,6.251,0,0,0-2.652-1.165,6.337,6.337,0,0,0-3.3.277,5.841,5.841,0,0,0-1.583.86,5.772,5.772,0,0,0-1.328,1.333,6.26,6.26,0,0,0,0,7.411,5.956,5.956,0,0,0,1.328,1.333,5.822,5.822,0,0,0,1.583.855,6.342,6.342,0,0,0,3.3.282,6.232,6.232,0,0,0,2.652-1.169,6.369,6.369,0,0,0,2.329-3.457,11.338,11.338,0,0,0,.241-1.551.273.273,0,0,1,0,.1v.3a2.612,2.612,0,0,1-.041.5,4.207,4.207,0,0,1-.118.664,6.369,6.369,0,0,1-2.316,3.576,6.446,6.446,0,0,1-6.128.955,6,6,0,0,1-1.647-.878,6.1,6.1,0,0,1-1.365-1.365,6.474,6.474,0,0,1,0-7.688,6.448,6.448,0,0,1,6.433-2.543,6.425,6.425,0,0,1,5.045,4.8,4.251,4.251,0,0,1,.118.669,2.565,2.565,0,0,1,.041.491v.3A.437.437,0,0,1,396.459,153.589Z" transform="translate(-337.997 -131.444)"/><path class="f" d="M432.8,153.583a11.985,11.985,0,0,0-.246-1.547,6.369,6.369,0,0,0-2.329-3.462,6.228,6.228,0,0,0-2.652-1.165,6.275,6.275,0,0,0-6.21,2.47,6.242,6.242,0,0,0,0,7.411,5.937,5.937,0,0,0,1.324,1.333,5.781,5.781,0,0,0,1.588.855,6.324,6.324,0,0,0,3.3.282,6.232,6.232,0,0,0,2.652-1.169,6.369,6.369,0,0,0,2.329-3.457,11.968,11.968,0,0,0,.246-1.551.935.935,0,0,1,0,.1v.3a2.978,2.978,0,0,1-.036.5,4.253,4.253,0,0,1-.123.664,6.323,6.323,0,0,1-2.315,3.576,6.49,6.49,0,0,1-9.162-9.007,6.055,6.055,0,0,1,1.365-1.365,6.147,6.147,0,0,1,1.647-.883,6.555,6.555,0,0,1,3.412-.268,6.406,6.406,0,0,1,2.73,1.228A6.328,6.328,0,0,1,432.628,152a4.3,4.3,0,0,1,.123.669,2.943,2.943,0,0,1,.036.491v.3A.845.845,0,0,1,432.8,153.583Z" transform="translate(-357.789 -131.438)"/><path class="f" d="M415.694,159.1a3.249,3.249,0,0,1-.591-.2,3.812,3.812,0,0,0-1.46-.191,3.975,3.975,0,0,0-1.41.373c-.341.168-.532.314-.555.282s.136-.214.455-.428a3.285,3.285,0,0,1,3-.2C415.531,158.908,415.713,159.081,415.694,159.1Z" transform="translate(-353.311 -137.636)"/><path class="f" d="M425.081,121.994c.1-.487-.068-.76.209-.96s.91.373,1.119.61c.073.077.291-.223.378-.278a1.66,1.66,0,0,0,.164-.623c-.041-.341-.573-.455-.823-.664a2.53,2.53,0,0,0-.887-.5.855.855,0,0,0-.846.05.833.833,0,0,0-.191.637,1.742,1.742,0,0,0,.127.664.91.91,0,0,0,.455.482" transform="translate(-360.137 -116.39)"/><path class="a" d="M363.9,145.862s4.608,1.688,7.006,2.707l-.136-2.357-6.7-2.652S363.9,145.311,363.9,145.862Z" transform="translate(-327.27 -129.513)"/><path class="a" d="M364.85,140.57a26.528,26.528,0,0,1,3.262,1.251,25.711,25.711,0,0,1,3.184,1.469,26.517,26.517,0,0,1-3.262-1.251A25.7,25.7,0,0,1,364.85,140.57Z" transform="translate(-327.788 -127.883)"/><path class="g" d="M365.583,236.33l-.355-11.15s2.216,10.2,13.821,10.072c11.087-.127,10.886-8.989,10.886-8.989l.4,4.495v18.156l-7.233,29.62-9.24,1.155L363.65,239.2Z" transform="translate(-327.134 -174.002)"/><path class="f" d="M391.225,240.4a1.139,1.139,0,0,1-.132.237,6.7,6.7,0,0,1-.455.646,9.553,9.553,0,0,1-2.065,2,11.882,11.882,0,0,1-3.858,1.82,13.591,13.591,0,0,1-5.209.359,16.877,16.877,0,0,1-5-1.506,21.779,21.779,0,0,1-3.639-2.2,25.722,25.722,0,0,1-2.211-1.82c-.25-.227-.432-.419-.56-.546a1.231,1.231,0,0,1-.182-.2,1.251,1.251,0,0,1,.214.168l.591.51a28,28,0,0,0,2.247,1.765,22.688,22.688,0,0,0,3.639,2.138,16.973,16.973,0,0,0,4.936,1.465,13.6,13.6,0,0,0,5.118-.332,12.211,12.211,0,0,0,3.821-1.738,10.243,10.243,0,0,0,2.088-1.92C391,240.7,391.207,240.386,391.225,240.4Z" transform="translate(-329.456 -181.638)"/><path class="a" d="M355.582,328.184l-.168-52.635-14.949-38.4-.5-11.56-9.1,6.888s-13.252,45.615-13.475,44.041,0,51.666,0,51.666Z" transform="translate(-301.865 -174.225)"/><path class="f" d="M400.528,387.31c-.064,0-.118-11.86-.118-26.49s.055-26.49.118-26.49.118,11.86.118,26.49S400.592,387.31,400.528,387.31Z" transform="translate(-347.171 -233.497)"/><path class="b" d="M347.4,257.21l1.847,1.4-1.3,8.516,21.818,22.855-19.817-26.026,1.688-6.747Z" transform="translate(-318.276 -191.461)"/><path class="a" d="M338.052,309.452l-33.487-9.817-1.11-25.435,9.185-33.51s-21.891,10.923-23.383,17.883-5.082,23.847-5.459,36.062c-.341,10.918-.391,18.2,2.1,21.7,7.142,9.981,54.2,11.764,73,0" transform="translate(-283.516 -182.456)"/><path class="f" d="M370.039,273.249a1.052,1.052,0,0,1-.109-.123c-.068-.086-.177-.218-.3-.373l-1.137-1.456c-.992-1.283-2.407-3.121-4.149-5.386l-13.616-17.819-1.024-1.365-.036-.046v-.055c.582-2.329,1.151-4.59,1.692-6.747l.109.146H347.12v-7.67l.036-.027,6.583-5,1.82-1.365.455-.35a.863.863,0,0,1,.168-.109l-.15.132-.455.368-1.779,1.392-6.533,5.068.036-.073V239.9l-.109-.1h4.422l-.036.146L349.9,246.69l-.023-.1,1.028,1.342L364.457,265.8l4.094,5.427c.455.637.842,1.133,1.1,1.483.118.164.209.3.282.391Z" transform="translate(-318.124 -174.176)"/><path class="a" d="M414.377,231.3c-2.67-4.667-4.058-4.185-4.058-4.185l.141,1.665v3.5l-1.269,15.012L401.08,279.9l.168,49.1h30.666l3.817-59.941-.346-25.826Z" transform="translate(-347.536 -175.048)"/><path class="a" d="M417.261,262.58s7.938,5.859,8.643,15.29c.56,7.656,1.82,28.624,2.07,33.187.364,7.106-5.172,23.752-19.584,19.039-8.644-2.83-40.57-13.68-40.57-13.68l2.125-13.561,37.9,2.275.755-31.608Z" transform="translate(-329.407 -194.388)"/><path class="d" d="M348.759,353.663s-10.727-1.16-13.193-.56c-2.388.578-5.787,3.5-5.787,3.5l.05,4.235,17.255,4.827Z" transform="translate(-308.672 -243.636)"/><path class="f" d="M401.09,275.032a.77.77,0,0,1,.05-.146c.036-.1.091-.246.159-.418.15-.382.368-.91.641-1.6l2.4-5.878,3.585-8.707c.341-.814.678-1.665,1.1-2.5s.883-1.665,1.365-2.5a55.728,55.728,0,0,1,3.4-4.913c.619-.8,1.242-1.574,1.888-2.32v.123l-1.337-3.4-.046-.114.114-.041L420,240.735l-.059.155c-2.593-4.331-4.781-7.989-6.337-10.582a8.245,8.245,0,0,0-2.115-2.73,2.871,2.871,0,0,0-.846-.341,2.9,2.9,0,0,1-.314-.077,2.629,2.629,0,0,1,.318.041,2.7,2.7,0,0,1,.878.323,3.879,3.879,0,0,1,1.074,1.042,18.382,18.382,0,0,1,1.115,1.674l6.414,10.545.068.114-.127.041-5.582,1.915.068-.15,1.342,3.4.027.064-.05.055c-.637.737-1.26,1.515-1.874,2.311a56.06,56.06,0,0,0-3.394,4.877c-.487.828-.964,1.642-1.365,2.475s-.755,1.66-1.1,2.479c-1.365,3.266-2.6,6.21-3.639,8.689s-1.883,4.454-2.47,5.846c-.291.678-.523,1.21-.682,1.588-.077.173-.136.3-.187.409a.574.574,0,0,1-.073.137Z" transform="translate(-347.542 -175.081)"/><path class="f" d="M401.049,386.189a.872.872,0,0,1-.132.141l-.409.4a11.773,11.773,0,0,1-1.742,1.319,11.631,11.631,0,0,1-3.184,1.337,12.815,12.815,0,0,1-4.549.291,14.384,14.384,0,0,1-2.616-.555c-.91-.282-1.783-.632-2.73-.96-1.87-.682-3.88-1.365-5.991-2.129-4.231-1.483-8.894-3.066-13.807-4.681-9.826-3.225-18.788-5.946-25.285-7.888l-7.7-2.275-2.093-.623-.541-.164a1.066,1.066,0,0,1-.182-.068l.191.041.546.146,2.106.578c1.82.509,4.463,1.26,7.734,2.206,6.505,1.9,15.467,4.595,25.307,7.825,4.918,1.61,9.581,3.184,13.807,4.695,2.111.751,4.117,1.465,5.987,2.152.937.337,1.82.691,2.73.974a14.1,14.1,0,0,0,2.579.56,12.805,12.805,0,0,0,4.513-.25,11.967,11.967,0,0,0,3.184-1.287,12.9,12.9,0,0,0,1.756-1.278l.423-.378A1.024,1.024,0,0,1,401.049,386.189Z" transform="translate(-308.841 -253.12)"/><path class="f" d="M319.722,370.229c0,.05-.605-.082-1.565-.041a6.882,6.882,0,0,0-1.656.273,7.534,7.534,0,0,0-1.865.851,8.717,8.717,0,0,0-2.6,2.666c-.5.819-.728,1.365-.769,1.365a1.6,1.6,0,0,1,.127-.4,7.012,7.012,0,0,1,.5-1.046,8.125,8.125,0,0,1,2.611-2.78,7.337,7.337,0,0,1,1.933-.86,6.688,6.688,0,0,1,1.711-.232,5.581,5.581,0,0,1,1.156.1,1.561,1.561,0,0,1,.414.1Z" transform="translate(-298.583 -252.95)"/><path class="f" d="M306.66,361.874a.3.3,0,0,1,.041-.123,1.2,1.2,0,0,1,.209-.3,2.151,2.151,0,0,1,1.192-.591,6.045,6.045,0,0,1,1.965,0,11.142,11.142,0,0,1,2.334.569,10.245,10.245,0,0,1,3.7,2.275,7.729,7.729,0,0,1,.86,1.005,1.993,1.993,0,0,1,.25.414c-.041.032-.414-.551-1.224-1.3a10.858,10.858,0,0,0-3.667-2.161,12.323,12.323,0,0,0-2.275-.578,6.4,6.4,0,0,0-1.911-.055,2.192,2.192,0,0,0-1.151.491A4.459,4.459,0,0,0,306.66,361.874Z" transform="translate(-296.07 -247.916)"/><path class="f" d="M317.88,287.043a3.576,3.576,0,0,1-.155-.687c-.068-.218-.164-.478-.268-.778a5.475,5.475,0,0,0-.5-.974,13.924,13.924,0,0,0-1.706-2.275,18.55,18.55,0,0,0-2.616-2.3,15.767,15.767,0,0,0-5.718-2.625,11.938,11.938,0,0,0-1.906-.246,4.269,4.269,0,0,1-.705-.055,3.965,3.965,0,0,1,.71-.036,9.692,9.692,0,0,1,1.933.173,15.013,15.013,0,0,1,5.823,2.6,17.221,17.221,0,0,1,2.638,2.343,13.076,13.076,0,0,1,1.692,2.338,7.7,7.7,0,0,1,.455,1.005,5.755,5.755,0,0,1,.237.805,4.8,4.8,0,0,1,.082.714Z" transform="translate(-294.789 -202.282)"/><path class="f" d="M417.2,366.511a.807.807,0,0,1,0-.164v-.478c0-.419-.032-1.033-.091-1.82a25.52,25.52,0,0,0-1.365-6.555,9.275,9.275,0,0,0-.91-2,3.927,3.927,0,0,0-1.774-1.506c-1.524-.655-3.357-.569-5.223-.673l-12.21-.514c-10.09-.455-19.066-.819-24.707-1.119l.077-.064c-.341,2.074-.614,3.717-.8,4.859-.1.55-.168.978-.223,1.283-.023.136-.046.246-.059.332l-.027.109a.536.536,0,0,1,0-.114l.046-.332c.041-.3.1-.737.182-1.292.173-1.142.419-2.789.732-4.868v-.064h.068l24.707,1.028,12.21.551c.937.045,1.852.068,2.729.141a7.91,7.91,0,0,1,2.548.573,4.126,4.126,0,0,1,1.865,1.56,9.267,9.267,0,0,1,.91,2.047,24.568,24.568,0,0,1,1.292,6.6c.05.792.05,1.41.046,1.82v.478C417.2,366.451,417.2,366.511,417.2,366.511Z" transform="translate(-330.532 -242.872)"/><path class="f" d="M457.858,319.24c.064,0,.118,3.671.118,8.189s-.055,8.189-.118,8.189-.118-3.671-.118-8.189S457.795,319.24,457.858,319.24Z" transform="translate(-378.42 -225.272)"/><path class="f" d="M289.386,278.17s-.027.1-.091.3a8.691,8.691,0,0,0-.273.91c-.223.787-.5,1.961-.819,3.494-.632,3.066-1.41,7.552-2.275,13.165-.432,2.811-.91,5.914-1.365,9.239-.232,1.67-.378,3.407-.5,5.209s-.214,3.639-.287,5.568c-.136,3.826-.218,7.866-.109,12.074.036,1.051.073,2.115.159,3.184.027.537.118,1.065.182,1.6a13.463,13.463,0,0,0,.387,1.574,8.967,8.967,0,0,0,1.51,2.88,6.46,6.46,0,0,0,2.584,1.993h0a39.548,39.548,0,0,0,6.747,2.575c2.352.705,4.781,1.274,7.247,1.779a99.661,99.661,0,0,0,16.286,1.983,75.677,75.677,0,0,0,7.775-.2c2.534-.177,5-.455,7.392-.8a77.756,77.756,0,0,0,13.266-3.084,67.6,67.6,0,0,0,10.727-4.6v.15l-14.676-5.218-3.962-1.415-1.024-.373c-.232-.086-.346-.136-.346-.136l.35.114,1.033.35,3.976,1.365,14.74,5.141.177.059-.164.091a67.747,67.747,0,0,1-10.75,4.645,77.667,77.667,0,0,1-13.3,3.116c-2.393.359-4.868.628-7.406.805a76.061,76.061,0,0,1-7.8.209,99.525,99.525,0,0,1-16.327-1.983c-2.475-.509-4.909-1.078-7.279-1.783a40.263,40.263,0,0,1-6.787-2.6h0a6.7,6.7,0,0,1-2.693-2.065,9.2,9.2,0,0,1-1.542-2.957,13.253,13.253,0,0,1-.4-1.6c-.068-.546-.155-1.083-.182-1.62-.086-1.074-.123-2.143-.155-3.184-.109-4.222,0-8.261.127-12.092q.109-2.866.3-5.573c.123-1.82.273-3.548.51-5.218.455-3.344.937-6.433,1.365-9.24.91-5.614,1.7-10.095,2.361-13.156.328-1.533.619-2.707.855-3.494.1-.4.227-.687.291-.883A.869.869,0,0,1,289.386,278.17Z" transform="translate(-283.382 -202.885)"/><path class="b" d="M329.74,333.564c5.6-6.2,5.354-17.223,2.138-25.044-.3,8.471-1.3,15.986-2.061,24.22" transform="translate(-308.65 -219.428)"/><path class="f" d="M331.945,312a1.259,1.259,0,0,1,0,.273c0,.2-.027.455-.05.773-.055.705-.127,1.67-.223,2.843-.2,2.429-.455,5.727-.769,9.376l-.737,9.381c-.086,1.174-.159,2.138-.214,2.843l-.068.769a1.819,1.819,0,0,1-.036.268.911.911,0,0,1,0-.268c0-.2,0-.455.023-.778.023-.673.073-1.647.137-2.848.141-2.4.368-5.723.669-9.385s.6-6.974.842-9.371c.123-1.174.223-2.134.3-2.839.041-.314.073-.569.1-.769A1,1,0,0,1,331.945,312Z" transform="translate(-308.704 -221.325)"/><path class="f" d="M364.668,287.38a97.847,97.847,0,0,1,0,9.617c-.064,0-.118-2.156-.118-4.809S364.6,287.38,364.668,287.38Z" transform="translate(-327.624 -207.905)"/><path class="b" d="M356.79,313.2a4.923,4.923,0,0,0,1.033,2.548,3.319,3.319,0,0,0,2.457,1.306,3.748,3.748,0,0,0,3.307-1.661,9.37,9.37,0,0,0,.455-7.188,4.146,4.146,0,0,0-3.4-2.761,3.763,3.763,0,0,0-3.685,2.866" transform="translate(-323.395 -217.748)"/><path class="f" d="M356.962,308.2a3.1,3.1,0,0,1,.369-.983,4.048,4.048,0,0,1,.751-.987,3.512,3.512,0,0,1,1.419-.828,3.553,3.553,0,0,1,.951-.155,2.861,2.861,0,0,1,1.042.137,4.1,4.1,0,0,1,1.856,1.333,5.365,5.365,0,0,1,1.1,2.275,9.98,9.98,0,0,1,.2,2.7,7.449,7.449,0,0,1-1.16,3.926,3.548,3.548,0,0,1-1.51,1.137,4.058,4.058,0,0,1-1.711.287h0a2.551,2.551,0,0,1-1.224-.3,4.113,4.113,0,0,1-.91-.646,4.607,4.607,0,0,1-1-1.492,4.244,4.244,0,0,1-.318-1.105,2.362,2.362,0,0,1-.027-.3.308.308,0,0,1,0-.1,6.421,6.421,0,0,0,.455,1.465,4.618,4.618,0,0,0,1.01,1.424,4.023,4.023,0,0,0,.91.6,2.412,2.412,0,0,0,1.137.268h0a3.64,3.64,0,0,0,3.025-1.365,7.331,7.331,0,0,0,1.1-3.8,6.878,6.878,0,0,0-1.228-4.822,3.94,3.94,0,0,0-1.765-1.269,2.813,2.813,0,0,0-.978-.141,3.463,3.463,0,0,0-.91.132,3.4,3.4,0,0,0-1.365.769,4.125,4.125,0,0,0-.76.933A9.094,9.094,0,0,0,356.962,308.2Z" transform="translate(-323.389 -217.641)"/><path class="b" d="M354.45,313.4a4.936,4.936,0,0,0,1.033,2.548,3.311,3.311,0,0,0,2.457,1.306,3.753,3.753,0,0,0,3.307-1.66,9.371,9.371,0,0,0,.455-7.188,4.138,4.138,0,0,0-3.4-2.761,3.762,3.762,0,0,0-3.685,2.861" transform="translate(-322.119 -217.858)"/><path class="f" d="M354.617,308.393a3.1,3.1,0,0,1,.368-.978,4.045,4.045,0,0,1,.751-.987,3.512,3.512,0,0,1,2.37-.983,2.877,2.877,0,0,1,1.042.137A4.1,4.1,0,0,1,361,306.914a5.3,5.3,0,0,1,1.092,2.275,9.8,9.8,0,0,1,.2,2.7,7.461,7.461,0,0,1-1.16,3.926,3.549,3.549,0,0,1-1.51,1.137,4.057,4.057,0,0,1-1.711.287h0a2.552,2.552,0,0,1-1.224-.3,3.961,3.961,0,0,1-.91-.641,4.5,4.5,0,0,1-1-1.5,4.219,4.219,0,0,1-.318-1.1,2.649,2.649,0,0,0-.032-.3.371.371,0,0,1,0-.1,6.429,6.429,0,0,0,.455,1.46,4.5,4.5,0,0,0,1.01,1.428,4.02,4.02,0,0,0,.91.6,2.466,2.466,0,0,0,1.137.268h0a3.639,3.639,0,0,0,3.021-1.365,7.3,7.3,0,0,0,1.105-3.8,6.879,6.879,0,0,0-1.228-4.822,3.894,3.894,0,0,0-1.751-1.283,2.793,2.793,0,0,0-.974-.141,3.43,3.43,0,0,0-2.275.91,4.126,4.126,0,0,0-.76.933,8.2,8.2,0,0,0-.469.919Z" transform="translate(-322.109 -217.75)"/><path class="b" d="M355.433,310.788a2.334,2.334,0,0,0-2.443,1.406,4.035,4.035,0,0,0,0,2.971,3.689,3.689,0,0,0,.76,1.337,2,2,0,0,0,1.365.66,2.375,2.375,0,0,0,1.879-1.11,4.249,4.249,0,0,0,.641-3.489c-.209-.792-.792-1.6-1.606-1.62" transform="translate(-321.169 -220.654)"/><path class="f" d="M355.894,310.909h.182a1.237,1.237,0,0,1,.5.168,2.425,2.425,0,0,1,1.037,1.565,4.263,4.263,0,0,1-.282,2.784,3.531,3.531,0,0,1-1.019,1.337,1.974,1.974,0,0,1-1.756.423,2.457,2.457,0,0,1-1.4-1.146,5.132,5.132,0,0,1-.582-1.574,3.5,3.5,0,0,1,.455-2.73,2.448,2.448,0,0,1,1.583-1.01,1.788,1.788,0,0,1,.523,0c.114.023.173.041.173.05a3.581,3.581,0,0,0-.678.041,2.416,2.416,0,0,0-1.465,1.015,3.353,3.353,0,0,0-.378,2.607,4.9,4.9,0,0,0,.569,1.5,2.225,2.225,0,0,0,1.265,1.037,1.742,1.742,0,0,0,1.551-.373,3.473,3.473,0,0,0,.964-1.246,4.168,4.168,0,0,0,.314-2.657,2.384,2.384,0,0,0-.91-1.524A1.882,1.882,0,0,0,355.894,310.909Z" transform="translate(-321.038 -220.621)"/><path class="f" d="M360.878,325.864c-.036,0-.086-.146-.241-.328a1.692,1.692,0,0,0-.778-.5,3.909,3.909,0,0,0-.955-.15c-.25,0-.414-.041-.414-.073s.155-.068.414-.1a2.67,2.67,0,0,1,1.028.091,1.488,1.488,0,0,1,.842.628C360.915,325.677,360.906,325.859,360.878,325.864Z" transform="translate(-324.321 -228.252)"/><path class="f" d="M361.335,309.45a1.024,1.024,0,0,1-.282.328,2.187,2.187,0,0,1-.96.419,2.274,2.274,0,0,1-1.046-.055c-.255-.086-.391-.187-.378-.214a5.349,5.349,0,0,0,1.365.036A5.682,5.682,0,0,0,361.335,309.45Z" transform="translate(-324.418 -219.935)"/><path class="f" d="M433.24,237.82a.343.343,0,0,1,.15.055,3.954,3.954,0,0,1,.4.209,8.007,8.007,0,0,1,1.365.974,9.758,9.758,0,0,1,2.93,4.631,29.613,29.613,0,0,1,1.115,5.4c.082.7.123,1.269.15,1.66a2.748,2.748,0,0,1,0,.614,3.464,3.464,0,0,1-.1-.605c-.059-.432-.136-.987-.223-1.647a34.846,34.846,0,0,0-1.178-5.35,10.081,10.081,0,0,0-2.811-4.577A15.256,15.256,0,0,0,433.24,237.82Z" transform="translate(-365.066 -180.892)"/><path class="f" d="M420.578,346.338c1.319-.05,2.375-1.365,3.694-1.292a1.826,1.826,0,0,1-.309,3.639c-1.388-.159-2.2-1.783-3.553-2.093" transform="translate(-358.072 -239.337)"/><path class="f" d="M427.75,304.918a7.8,7.8,0,0,1-1.233-.1l.073-.455a5.2,5.2,0,0,0,4.067-.8c1.365-.987,2.215-2.757,2.579-5.259v-.1c.15-.992.355-20.449.355-24.143a6.3,6.3,0,0,0-5.282-6.592c-.218-.032-4.809-.805-7.251,5.5-2.557,6.6-6.646,19.321-6.915,20.813-.036.182-.086.409-.141.669-.428,1.911-1.31,5.882,1.337,8.166,2.952,2.552,5.282,1.565,5.377,1.524l.187.414c-.109.046-2.675,1.16-5.859-1.592-2.857-2.466-1.933-6.615-1.488-8.612.059-.255.1-.455.136-.651.273-1.5,4.376-14.276,6.942-20.895s7.7-5.791,7.734-5.778a6.858,6.858,0,0,1,5.659,7.038c0,3.043-.2,23.156-.359,24.211v.091c-.382,2.629-1.31,4.5-2.761,5.564A5.236,5.236,0,0,1,427.75,304.918Z" transform="translate(-354.062 -196.793)"/><path class="f" d="M442.639,283.528a8.381,8.381,0,0,0-.946-2.275,7.831,7.831,0,0,0-1.8-1.947,7.734,7.734,0,0,0-2.925-1.365,8.549,8.549,0,0,0-5.755.751,10.294,10.294,0,0,0-2.006,1.433.656.656,0,0,1,.1-.136,3.168,3.168,0,0,1,.341-.364,6.823,6.823,0,0,1,1.479-1.078,8.453,8.453,0,0,1,5.891-.837,7.817,7.817,0,0,1,3,1.438,7.551,7.551,0,0,1,1.82,2.034,5.912,5.912,0,0,1,.7,1.692,3.718,3.718,0,0,1,.1.491A.6.6,0,0,1,442.639,283.528Z" transform="translate(-362.869 -202.524)"/><path class="f" d="M471.663,362.326a16,16,0,0,0-.628-1.938,8.443,8.443,0,0,0-3.084-3.7,6.7,6.7,0,0,0-2.5-.91,21.525,21.525,0,0,0-2.206-.227l-1.5-.1a2.622,2.622,0,0,1-.546-.073,2.266,2.266,0,0,1,.55,0l1.5.027a18.873,18.873,0,0,1,2.229.182,6.692,6.692,0,0,1,2.6.91,8.229,8.229,0,0,1,3.112,3.84,7.279,7.279,0,0,1,.419,1.451A2.077,2.077,0,0,1,471.663,362.326Z" transform="translate(-380.306 -244.956)"/><path class="d" d="M433.75,339.229s4.476-6.774,5.618-7.661,10.918-5.3,12.051-4.59.455,2.247.455,2.247,4.131-1.447,4.572-.878a2.043,2.043,0,0,1,0,2.329s2.275-.35,2.275.355a2.9,2.9,0,0,1-1.319,2.375c-1.055.792-7.92,5.359-8.471,6.624l-2.225-.136Z" transform="translate(-365.344 -229.447)"/><path class="e" d="M462.05,341.8a1.944,1.944,0,0,1,.2-.428,8.282,8.282,0,0,1,.737-1.055,12.283,12.283,0,0,1,3.244-2.73,24.537,24.537,0,0,1,3.84-1.82c.5-.2.91-.341,1.205-.455a1.985,1.985,0,0,1,.455-.127,1.728,1.728,0,0,1-.423.214l-1.178.5a31.192,31.192,0,0,0-3.776,1.852,13.566,13.566,0,0,0-3.239,2.634C462.409,341.236,462.091,341.827,462.05,341.8Z" transform="translate(-380.769 -233.966)"/><path class="e" d="M449.58,339.88a2.308,2.308,0,0,1,.218-.5c.155-.314.378-.764.687-1.31a12.527,12.527,0,0,1,1.233-1.82,5.685,5.685,0,0,1,.937-.933c.378-.255.773-.491,1.187-.737a32.336,32.336,0,0,1,4.367-2.175,11.8,11.8,0,0,1,1.4-.455,2.609,2.609,0,0,1,.537-.1c0,.041-.742.214-1.874.723a41.122,41.122,0,0,0-4.313,2.225c-.409.241-.805.482-1.174.723a5.684,5.684,0,0,0-.91.878,13.277,13.277,0,0,0-1.256,1.774l-.755,1.265A2.419,2.419,0,0,1,449.58,339.88Z" transform="translate(-373.972 -232.15)"/></g><g transform="translate(74.125 79.841)"><rect class="h" width="24.264" height="24.264" rx="4.98" transform="translate(172.535 23.268) rotate(-73.53)"/><path class="i" d="M382.87,127.894a1.162,1.162,0,0,1,.043-.207l.146-.568.58-2.124,2.1-7.525.079.146-13.511-3.845.177-.1h0v.134l-.049.177-.1.348-.214.7c-.134.464-.268.921-.4,1.373l-.824,2.691c-.507,1.739-.989,3.405-1.434,4.961l-.092-.159,9.7,2.85,2.764.83.745.226.262.092-.244-.055-.726-.189-2.758-.757-9.819-2.746-.128-.037.037-.128c.445-1.556.915-3.222,1.416-4.968.25-.873.5-1.77.763-2.679.128-.452.262-.909.391-1.373l.2-.7.1-.354.049-.171v-.134h0l.183-.1,13.5,3.893.116.037-.031.116c-.928,3.137-1.7,5.736-2.24,7.586-.268.879-.476,1.581-.61,2.081-.073.22-.128.4-.171.537a1.16,1.16,0,0,1-.006.134Z" transform="translate(-189.965 -105.813)"/><path class="i" d="M381.4,112.492a8.057,8.057,0,0,1,1.221.262c.757.2,1.831.482,3.106.836h.067v.073c.189.726.4,1.513.61,2.343l.067.244-.244-.073-1.282-.366c-2.13-.61-4.058-1.178-5.462-1.6l-.177-.055.134-.122c1.135-1.044,1.9-1.648,1.953-1.556,0,0-.183.146-.5.439l-1.312,1.269-.043-.177c1.422.378,3.356.915,5.492,1.526l1.282.372-.183.171-.61-2.343.092.092c-1.269-.372-2.331-.7-3.051-.934A6.836,6.836,0,0,1,381.4,112.492Z" transform="translate(-193.917 -105.406)"/><path class="i" d="M383.249,124.873a4.467,4.467,0,0,0,.317-.72,3.174,3.174,0,0,0,0-2.075,3.094,3.094,0,1,0-2.868,4.052,3.222,3.222,0,0,0,1.953-.714c.391-.317.549-.561.574-.543a.654.654,0,0,1-.1.183,2.528,2.528,0,0,1-.4.445,3.2,3.2,0,0,1-2.02.836,3.344,3.344,0,0,1-2.874-1.41,3.345,3.345,0,1,1,5.926-2.911,3.216,3.216,0,0,1-.11,2.179,2.541,2.541,0,0,1-.293.525C383.3,124.83,383.255,124.879,383.249,124.873Z" transform="translate(-193.102 -108.205)"/><rect class="g" width="33.998" height="33.998" rx="6.37" transform="translate(0 43.247) rotate(-12.08)"/><path class="i" d="M96.167,179.991a3.533,3.533,0,0,1,.61.256l1.709.818h.067l-.037.073c-.561,1.044-1.312,2.441-2.215,4.089l-.037-.159,8.324,5.34-.244.055c.708-1.221,1.459-2.5,2.227-3.826l.073-.116.128.031a13.059,13.059,0,0,1,3.051,1.178,5.859,5.859,0,0,1,2.508,2.356,3.052,3.052,0,0,1,.269.867l.067.458-.037.464a3.094,3.094,0,0,1-.207.9,3.912,3.912,0,0,1-.354.842,5.553,5.553,0,0,1-2.655,2.52,5.962,5.962,0,0,1-3.662.378,6.713,6.713,0,0,1-1.715-.61c-.537-.281-1-.61-1.5-.915l-5.572-3.558-5.035-3.234-1.166-.745a6.9,6.9,0,0,1-1.092-.806,3.3,3.3,0,0,1-1.08-2.3,4.833,4.833,0,0,1,1.831-3.857,5.2,5.2,0,0,1,3.051-1.159,5.084,5.084,0,0,1,2.038.311,4.094,4.094,0,0,1,.488.22.678.678,0,0,1,.159.092,6.023,6.023,0,0,0-2.679-.464,5.053,5.053,0,0,0-2.9,1.172,4.62,4.62,0,0,0-1.678,3.662,3,3,0,0,0,1.025,2.13,6.75,6.75,0,0,0,1.062.763l1.166.732,5.053,3.2,5.584,3.54c.488.305.97.641,1.465.9a6.219,6.219,0,0,0,1.611.555,5.572,5.572,0,0,0,3.4-.354,5.1,5.1,0,0,0,2.441-2.337,3.992,3.992,0,0,0,.33-.787,2.869,2.869,0,0,0,.189-.806l.037-.409-.061-.4a2.618,2.618,0,0,0-.238-.769,5.492,5.492,0,0,0-2.337-2.191,12.7,12.7,0,0,0-2.954-1.147l.2-.092-2.252,3.814-.1.159-.146-.1L96.167,185.3l-.1-.061.055-.1,2.3-4.046v.1l-1.648-.854A4.163,4.163,0,0,1,96.167,179.991Z" transform="translate(-80.617 -131.461)"/><path class="i" d="M114.616,184.084a12.1,12.1,0,0,1-.683-2.7,11.942,11.942,0,0,1-.372-2.771,12.5,12.5,0,0,1,.683,2.71,12.285,12.285,0,0,1,.372,2.764Z" transform="translate(-90.345 -131.185)"/><path class="i" d="M115.422,182.12a13.126,13.126,0,0,1-2.758.751,13.743,13.743,0,0,1-2.844.439,13.09,13.09,0,0,1,2.758-.745A12.919,12.919,0,0,1,115.422,182.12Z" transform="translate(-88.887 -132.553)"/></g><g transform="translate(196.123 72.397)"><rect class="c" width="38.611" height="56.614" transform="translate(0.134 0.159)"/><path class="f" d="M314.169,145.473v-4.18c0-2.716,0-6.664-.043-11.656,0-9.972-.043-24.105-.073-40.778l.146.146H275.595l.159-.159c0,21.3,0,40.955-.037,56.614l-.122-.128,28.072.067,7.775.031h.055l-7.75.031-28.157.067h-.128V145.4c0-15.659,0-35.316-.03-56.614V88.7h38.91v.183c0,16.709-.055,30.873-.073,40.888,0,4.974,0,8.916-.037,11.6V145.2A.513.513,0,0,1,314.169,145.473Z" transform="translate(-275.43 -88.7)"/><path class="f" d="M279.661,168.8a5.321,5.321,0,0,1,.043-9.66,2.24,2.24,0,0,0,.934-.61c.342-.452.207-1.086.22-1.654a2.978,2.978,0,0,1,2.868-2.783l8.7,3.417v9.154Z" transform="translate(-275.884 -114.185)"/><path class="g" d="M276.41,177.13a34.7,34.7,0,0,1,14.4-6.28,68.967,68.967,0,0,1,16.788,0,24.478,24.478,0,0,1,6.927,2.4l.043,4.009-8.544-.031Z" transform="translate(-275.812 -120.51)"/><path class="f" d="M311.68,106.318c-.83-2.3-4.76-4.272-6.92-5.425-3.228-1.715-6.158-1.221-7.933.427-3.363-2.636-7.756-5.126-11.851-3.912s-7.323,5.559-6.414,9.764c.525,2.441,2.313,4.626,2.295,7.146,0,1.715-.867,3.289-1.538,4.882s-1.166,3.411-.47,4.98c.653,1.459,2.179,2.331,3.051,3.662a19.164,19.164,0,0,1,1.349,3.662c1.709,4.51,7.177,6.884,11.9,5.926s8.544-4.669,10.661-9.007,2.685-9.258,2.783-14.073" transform="translate(-276.59 -91.97)"/><path class="j" d="M312.287,148.924l-.165-33.949-14.28-4.351a7.8,7.8,0,0,0-8.824,6.981c-.513,5.26-.94,11.876-.433,15.867.995,7.83,6.933,9.007,6.933,9.007s-.049,2.9-.11,6.3a8.41,8.41,0,0,0,1.623,5.132h13.627A8.4,8.4,0,0,0,312.287,148.924Z" transform="translate(-280.468 -97.216)"/><path class="k" d="M300.067,161.29a20.346,20.346,0,0,0,10.527-2.52s-2.789,5.566-10.564,4.589Z" transform="translate(-285.018 -116.009)"/><path class="f" d="M308,123c.1.3,1.178.2,2.441.384s2.264.568,2.441.311c.079-.122-.091-.4-.494-.7a4.15,4.15,0,0,0-1.794-.69,4.058,4.058,0,0,0-1.916.165C308.207,122.635,308,122.861,308,123Z" transform="translate(-288.124 -101.776)"/><path class="f" d="M291.735,123.772c.183.25.934,0,1.831,0s1.635.22,1.831,0c.079-.122-.031-.372-.354-.61a2.612,2.612,0,0,0-2.935,0C291.771,123.4,291.655,123.65,291.735,123.772Z" transform="translate(-281.775 -101.955)"/><path class="k" d="M307.55,137.665a.287.287,0,0,0,.293.275.293.293,0,0,0,.281-.293.287.287,0,1,0-.574,0Z" transform="translate(-287.948 -107.665)"/><path class="k" d="M294.278,135.821a.287.287,0,1,0,.568,0,.293.293,0,0,0-.293-.281A.287.287,0,0,0,294.278,135.821Z" transform="translate(-282.775 -106.955)"/><path class="k" d="M291.74,137.129a.29.29,0,1,0,.293-.3.293.293,0,0,0-.293.3Z" transform="translate(-281.787 -107.458)"/><path class="k" d="M290.89,135.2a.287.287,0,1,0,.275-.293A.287.287,0,0,0,290.89,135.2Z" transform="translate(-281.455 -106.71)"/><path class="k" d="M309.76,139.659a.281.281,0,0,0,.293.275.287.287,0,1,0-.293-.275Z" transform="translate(-288.81 -108.444)"/><path class="k" d="M311.44,137.729a.287.287,0,1,0,.275-.3.293.293,0,0,0-.275.3Z" transform="translate(-289.464 -107.692)"/><path class="f" d="M303.74,107.143a13.481,13.481,0,0,1,14.4-.732c4.424,2.606,6.835,6.365,7.067,12.565v7.9c-.232,3.6.537,5.688-1.221,6.3-2.441.83-4.272,7.4-6.359,6.939-2.569-2-2.612-3.161-2.7-7.244-.1-4.388-1.416-9.606.305-12.431a16.427,16.427,0,0,1-11.07-13.292" transform="translate(-286.463 -94.926)"/><path class="h" d="M290.68,97.2c0,.043.671.043,1.715.281a6.669,6.669,0,0,1,.842.244,9.063,9.063,0,0,1,.94.354,11.429,11.429,0,0,1,1.983,1.159,11.308,11.308,0,0,1,1.684,1.562,9.256,9.256,0,0,1,.61.793,7.681,7.681,0,0,1,.47.738c.537.928.732,1.574.769,1.556a2.44,2.44,0,0,0-.134-.445,3.662,3.662,0,0,0-.2-.519,6.421,6.421,0,0,0-.323-.653,7.631,7.631,0,0,0-.458-.763c-.171-.269-.391-.531-.61-.818a10.037,10.037,0,0,0-4.681-3.112,8.546,8.546,0,0,0-.86-.22,6.538,6.538,0,0,0-.726-.116,3.913,3.913,0,0,0-.549-.043A2.307,2.307,0,0,0,290.68,97.2Z" transform="translate(-281.374 -92.009)"/><path class="h" d="M282.131,131.033l-.055-.061-.165-.189a9,9,0,0,1-.61-.726,4.138,4.138,0,0,1-.738-1.312,2.4,2.4,0,0,1-.1-.922,2.538,2.538,0,0,1,.317-.983,16.993,16.993,0,0,1,1.471-1.947,10.954,10.954,0,0,0,2.13-5.492,21.9,21.9,0,0,0,0-3.344,11.758,11.758,0,0,1,.189-3.3,6.713,6.713,0,0,1,3.576-4.394,6.334,6.334,0,0,1,2.325-.61,6.987,6.987,0,0,1,3.43.61,7.591,7.591,0,0,1,.836.47l.207.134c.049,0,.073.049.073.043a4.883,4.883,0,0,0-1.086-.708,6.86,6.86,0,0,0-3.466-.7,6.3,6.3,0,0,0-2.386.61,6.9,6.9,0,0,0-3.662,4.485,11.49,11.49,0,0,0-.2,3.344,24.227,24.227,0,0,1,.031,3.32,10.984,10.984,0,0,1-2.075,5.425,16.57,16.57,0,0,0-1.465,1.971,2.661,2.661,0,0,0-.323,1.037,2.441,2.441,0,0,0,.122.958,4.076,4.076,0,0,0,.775,1.324c.268.323.5.555.653.708l.183.177Z" transform="translate(-277.359 -96.065)"/><path class="f" d="M291.76,131.636c.116.134.885-.409,1.953-.384s1.831.574,1.965.445-.061-.293-.4-.549a2.7,2.7,0,0,0-1.568-.519,2.6,2.6,0,0,0-1.562.47C291.815,131.343,291.7,131.575,291.76,131.636Z" transform="translate(-281.788 -105.041)"/><path class="f" d="M309.69,131.926c.122.128.885-.415,1.959-.391s1.831.58,1.965.452-.061-.3-.4-.555a2.728,2.728,0,0,0-1.568-.513,2.569,2.569,0,0,0-1.562.47C309.745,131.633,309.629,131.865,309.69,131.926Z" transform="translate(-288.776 -105.154)"/><path class="f" d="M301.346,137.465a7.086,7.086,0,0,0-1.733-.348c-.275-.031-.531-.092-.574-.281a1.386,1.386,0,0,1,.2-.806c.269-.659.549-1.349.848-2.069a34.8,34.8,0,0,0,1.922-5.413,35.493,35.493,0,0,0-2.356,5.248c-.281.726-.555,1.416-.818,2.081a1.556,1.556,0,0,0-.159,1.068.677.677,0,0,0,.439.409,2.063,2.063,0,0,0,.464.073A6.969,6.969,0,0,0,301.346,137.465Z" transform="translate(-284.478 -104.231)"/><path class="g" d="M303.667,146.963a1.934,1.934,0,0,1,1.745-.684,1.764,1.764,0,0,1,1.221.677,1.117,1.117,0,0,1,.061,1.275,1.288,1.288,0,0,1-1.41.33,3.978,3.978,0,0,1-1.355-.842,1.154,1.154,0,0,1-.3-.323.36.36,0,0,1,0-.4" transform="translate(-286.397 -111.134)"/><path class="f" d="M305.988,144.48c-.171,0-.2,1.147-1.221,1.953s-2.246.653-2.258.818c0,.073.268.232.793.256a2.917,2.917,0,0,0,1.886-.61,2.527,2.527,0,0,0,.94-1.642C306.2,144.8,306.068,144.474,305.988,144.48Z" transform="translate(-285.984 -110.439)"/><path class="h" d="M325.841,118.435a4.27,4.27,0,0,1-.891.189,16.514,16.514,0,0,1-2.49.171,18.167,18.167,0,0,1-14.3-7.042,16.6,16.6,0,0,1-1.379-2.075,4.994,4.994,0,0,1-.4-.818,5.552,5.552,0,0,1,.506.757,20.083,20.083,0,0,0,1.446,2,18.821,18.821,0,0,0,14.134,6.957,20.3,20.3,0,0,0,2.441-.067,5.858,5.858,0,0,1,.934-.067Z" transform="translate(-287.492 -96.557)"/><path class="h" d="M323.468,135.567a14.3,14.3,0,0,0,.873-1.221,9.85,9.85,0,0,0,1.452-3.729,8.745,8.745,0,0,0-1.1-5.73,9.477,9.477,0,0,0-2.276-2.642,11.21,11.21,0,0,0-3.326-1.745c-1.221-.445-2.441-.781-3.631-1.221a15.164,15.164,0,0,1-3.2-1.623,15.866,15.866,0,0,1-4.272-4.272,14.839,14.839,0,0,1-1.831-3.662,9.764,9.764,0,0,1-.305-1.068,2.756,2.756,0,0,1-.073-.384c.037,0,.153.513.494,1.41a15.946,15.946,0,0,0,6.145,7.72,15.086,15.086,0,0,0,3.155,1.574c1.147.427,2.386.763,3.631,1.221a11.54,11.54,0,0,1,3.411,1.831,9.593,9.593,0,0,1,2.331,2.746,8.849,8.849,0,0,1,1.074,5.907,9.466,9.466,0,0,1-1.574,3.759,7.612,7.612,0,0,1-.7.867,1.776,1.776,0,0,1-.275.262Z" transform="translate(-287.255 -96.327)"/><path class="h" d="M294.819,159.427a1.7,1.7,0,0,1-.409.128,5.494,5.494,0,0,1-1.178.085,7.629,7.629,0,0,1-3.662-1.221,6.926,6.926,0,0,1-2.557-2.893,5.832,5.832,0,0,1-.391-1.1,1.11,1.11,0,0,1-.055-.433c.055,0,.2.61.647,1.44a7.281,7.281,0,0,0,2.527,2.722,8.22,8.22,0,0,0,3.521,1.221C294.209,159.488,294.813,159.372,294.819,159.427Z" transform="translate(-279.77 -114.146)"/></g><g transform="translate(119.767 46.87)"><path class="f" d="M256.465,46.949l-87.121-.079a18.979,18.979,0,0,0-18.991,19l-.043,218.425a18.985,18.985,0,0,0,18.967,18.967l87.127.049a18.973,18.973,0,0,0,18.985-18.967l.043-218.425a18.973,18.973,0,0,0-18.967-18.967Zm13.151,234.213a13.285,13.285,0,0,1-13.31,13.267l-86.95-.049a13.292,13.292,0,0,1-13.285-13.3l.043-213.2a13.285,13.285,0,0,1,13.3-13.292H190.16a4.2,4.2,0,0,1,4.1,4.272v3.051a4.2,4.2,0,0,0,4.1,4.272h32.954a4.193,4.193,0,0,0,4.107-4.272V58.868a4.192,4.192,0,0,1,4.1-4.272h16.892a13.292,13.292,0,0,1,13.243,13.346Z" transform="translate(-150.31 -46.87)"/><rect class="f" width="45.208" height="20.126" transform="translate(42.706 199.684)"/><path class="g" d="M273.333,374.08H234.447c0,8.574-7.323,15.549-16.257,15.549s-16.251-6.975-16.251-15.549H159.83v34.876A13.292,13.292,0,0,0,173.1,422.242l86.95.049A13.285,13.285,0,0,0,273.345,409Z" transform="translate(-154.02 -174.396)"/><path class="l" d="M245.6,425.58v3.436h-.25v-3.179h-.836v-.226Z" transform="translate(-187.023 -194.467)"/><path class="l" d="M247.72,427.285c0-1.074.555-1.745,1.343-1.745s1.349.671,1.349,1.745-.555,1.739-1.349,1.739S247.72,428.359,247.72,427.285Zm2.441,0c0-.958-.445-1.513-1.1-1.513s-1.092.555-1.092,1.513.445,1.507,1.092,1.507S250.161,428.262,250.161,427.285Z" transform="translate(-188.274 -194.452)"/><path class="l" d="M253,427.165a.207.207,0,1,1,.091.209.207.207,0,0,1-.091-.209Zm0,2.185a.207.207,0,1,1,.091.209A.208.208,0,0,1,253,429.35Z" transform="translate(-190.33 -194.99)"/><path class="l" d="M254.62,427.285c0-1.074.555-1.745,1.349-1.745s1.343.671,1.343,1.745-.555,1.739-1.343,1.739S254.62,428.359,254.62,427.285Zm2.441,0c0-.958-.445-1.513-1.092-1.513s-1.1.555-1.1,1.513.452,1.507,1.1,1.507S257.061,428.262,257.061,427.285Z" transform="translate(-190.964 -194.452)"/><path class="l" d="M262.738,428.064h-.726v.952h-.262v-.952H259.79v-.183l1.867-2.3h.281l-1.831,2.264h1.642V427h.238v.842h.726Z" transform="translate(-192.978 -194.467)"/><rect class="i" width="13.206" height="13.206" rx="4.45" transform="translate(17.392 215.972)"/><path class="l" d="M318.121,412.594H310.8a2.874,2.874,0,0,1-2.868-2.868V402.4a2.868,2.868,0,0,1,2.868-2.862h7.323a2.868,2.868,0,0,1,2.868,2.862v7.323a2.874,2.874,0,0,1-2.868,2.868ZM310.8,399.839a2.563,2.563,0,0,0-2.563,2.557v7.323a2.569,2.569,0,0,0,2.563,2.563h7.323a2.563,2.563,0,0,0,2.563-2.563V402.4a2.563,2.563,0,0,0-2.563-2.557Z" transform="translate(-211.74 -184.319)"/><path class="g" d="M190.105,408.07H185.29a.61.61,0,0,0-.61.61v3.186a.61.61,0,0,0,.61.61h.409v1.4l1.623-1.4h2.783a.61.61,0,0,0,.61-.61V408.7a.61.61,0,0,0-.61-.629Zm-3.936,2.807a.476.476,0,1,1,.47-.47.47.47,0,0,1-.47.47Zm1.465,0a.476.476,0,1,1,.476-.47.476.476,0,0,1-.476.47Zm1.568,0a.476.476,0,1,1,.476-.47A.476.476,0,0,1,189.2,410.877Z" transform="translate(-163.705 -187.643)"/><path class="l" d="M315.761,410.339a.153.153,0,0,1-.146-.14,3.658,3.658,0,0,1,1.928-4.016.153.153,0,0,1,.2.079.146.146,0,0,1-.079.2,3.338,3.338,0,0,0-1.745,3.7.146.146,0,0,1-.134.165Z" transform="translate(-214.72 -186.904)"/><path class="l" d="M315.164,412.077a.171.171,0,0,1-.116-.055l-.958-1.129a.153.153,0,0,1,0-.22.159.159,0,0,1,.214,0l.836.989.738-.982a.146.146,0,0,1,.214,0,.153.153,0,0,1,.03.214l-.854,1.129a.158.158,0,0,1-.116.061Z" transform="translate(-214.123 -188.642)"/><path class="l" d="M318.263,411.638a.153.153,0,0,1-.061-.293,3.344,3.344,0,0,0,1.745-3.7.153.153,0,0,1,.134-.171.165.165,0,0,1,.171.134,3.685,3.685,0,0,1-1.935,4.022Z" transform="translate(-215.709 -187.409)"/><path class="l" d="M319.9,408.9a.14.14,0,0,1-.092-.031.153.153,0,0,1-.031-.214l.854-1.129a.146.146,0,0,1,.116-.061h0a.171.171,0,0,1,.116.055l.958,1.129a.153.153,0,0,1,0,.214.159.159,0,0,1-.22,0l-.836-.989-.738.976A.14.14,0,0,1,319.9,408.9Z" transform="translate(-216.347 -187.409)"/><circle class="a" cx="8.983" cy="8.983" r="8.983" transform="translate(14.915 22.299)"/><path class="f" d="M187.087,99.116a.165.165,0,0,1-.11-.049l-2.343-2.441a.159.159,0,0,1,0-.214l2.343-2.441a.159.159,0,0,1,.22,0,.153.153,0,0,1,0,.22l-2.24,2.356,2.24,2.362a.153.153,0,0,1,0,.22A.177.177,0,0,1,187.087,99.116Z" transform="translate(-163.671 -65.21)"/><path class="f" d="M191.156,98.185h-6.414a.153.153,0,0,1-.153-.153.159.159,0,0,1,.153-.153h6.414a.153.153,0,0,1,0,.305Z" transform="translate(-163.67 -66.75)"/><circle class="g" cx="8.08" cy="8.08" r="8.08" transform="translate(95.18 195.04) rotate(-80.74)"/><path class="l" d="M320.528,354.59a1.458,1.458,0,0,1-1.459-1.452v-3.179a1.459,1.459,0,1,1,2.917,0v3.18a1.459,1.459,0,0,1-1.459,1.452Zm0-5.779a1.153,1.153,0,0,0-1.153,1.147v3.179a1.153,1.153,0,0,0,2.307,0v-3.18a1.153,1.153,0,0,0-1.153-1.153Z" transform="translate(-216.082 -164.426)"/><path class="l" d="M319.649,357.827a2.618,2.618,0,0,1-2.044-.812,3.894,3.894,0,0,1-.775-2.7.153.153,0,0,1,.305.03,3.662,3.662,0,0,0,.7,2.472,2.337,2.337,0,0,0,1.831.708,2.441,2.441,0,0,0,1.831-.708,3.777,3.777,0,0,0,.836-2.484.153.153,0,0,1,.305-.006,4.034,4.034,0,0,1-.921,2.7A2.74,2.74,0,0,1,319.649,357.827Z" transform="translate(-215.203 -166.638)"/><path class="l" d="M321.363,362.2a.153.153,0,0,1-.153-.153v-2.234a.153.153,0,1,1,.305,0v2.234A.153.153,0,0,1,321.363,362.2Z" transform="translate(-216.916 -168.776)"/><circle class="g" cx="14.207" cy="14.207" r="14.207" transform="translate(49.962 184.781)"/><path class="l" d="M250.936,366.162a2.441,2.441,0,0,0-3.662.745,1.471,1.471,0,0,0,.342,1.831c1.306,1.282,4.046,3.851,5.236,4.968a2.954,2.954,0,0,0,2.441.787,2.532,2.532,0,0,0,1.721-1.068c1.349-1.831-1.874-3.283-1.874-3.283l-1.41,1.477-3.283-3.167,1.44-1.587Z" transform="translate(-188.03 -171.104)"/><path class="l" d="M2.835-6.3H.36V0H2.835a2.984,2.984,0,0,0,3.15-3.2A2.975,2.975,0,0,0,2.835-6.3Zm-1.3,1.125h1.3A1.873,1.873,0,0,1,4.806-3.213a1.87,1.87,0,0,1-1.971,2.07h-1.3Zm5.148.738V0h1.1V-2.34A1.024,1.024,0,0,1,8.892-3.465a1.1,1.1,0,0,1,.792.288l.495-.954a1.684,1.684,0,0,0-1.143-.423,1.308,1.308,0,0,0-1.251.63L7.7-4.437Zm3.879,3.87a.648.648,0,0,0,1.3,0A.648.648,0,0,0,10.566-.567ZM19.953-6.3H16.866v1.107h1.9v2.5a1.52,1.52,0,0,1-1.584,1.7,1.423,1.423,0,0,1-1.593-1.629h-1.17A2.556,2.556,0,0,0,17.181.126a2.633,2.633,0,0,0,2.772-2.817Zm3.033,1.773a2.221,2.221,0,0,0-2.3,2.313A2.208,2.208,0,0,0,23,.1a2.215,2.215,0,0,0,2.313-2.313A2.243,2.243,0,0,0,22.986-4.527Zm.009,1A1.253,1.253,0,0,1,24.2-2.214,1.2,1.2,0,0,1,23-.909a1.2,1.2,0,0,1-1.206-1.3A1.219,1.219,0,0,1,23-3.528ZM26.064-6.3V0h1.1V-2.268a1.137,1.137,0,0,1,1.1-1.215c.585,0,1.008.342,1.008,1.152V0h1.1V-2.34c0-1.305-.558-2.16-1.818-2.16a1.638,1.638,0,0,0-1.386.666V-6.3ZM35.658,0V-2.331a1.931,1.931,0,0,0-1.881-2.178,2,2,0,0,0-1.458.666l-.072-.6h-.981V0h1.089V-2.268A1.167,1.167,0,0,1,33.489-3.51,1.059,1.059,0,0,1,34.56-2.322V0Z" transform="translate(46.402 227.114)"/></g></g></svg>