<svg xmlns="http://www.w3.org/2000/svg" width="90.957" height="84.319" viewBox="0 0 90.957 84.319">
  <g id="Person_with_medical_mask-pana" data-name="Person with medical mask-pana" transform="translate(-34.804 -51.79)">
    <g id="freepik--background-complete--inject-83" transform="translate(34.804 51.79)">
      <path id="Path_9084" data-name="Path 9084" d="M46.9,330.288a3.487,3.487,0,0,0-1.315-3.121,8.727,8.727,0,0,1-2.3-2.659c-.72-1.777.221-4.085-1-5.564-.716-.868-2-1.153-2.632-2.081a4.788,4.788,0,0,1-.578-1.665,16.938,16.938,0,0,0-4.255-7.857,14.668,14.668,0,0,0,1.688,7.589,9.666,9.666,0,0,1,1.269,2.878c.275,1.69-.66,3.438-.235,5.1.485,1.9,2.626,3.157,2.738,5.111.1,1.654-1.338,3.121-1.219,4.763a4.455,4.455,0,0,0,.745,1.958,6.57,6.57,0,0,0,6.022,3.506l3.488.1Z" transform="translate(-34.804 -254.163)" fill="#f5f5f5"/>
      <path id="Path_9085" data-name="Path 9085" d="M101.174,292.3a2.8,2.8,0,0,0,.961-.027,5.621,5.621,0,0,0,1.13-.291,4.766,4.766,0,0,0,1.394-.774,1.95,1.95,0,0,0,.572-.77,3.619,3.619,0,0,0,.158-1.04,10.087,10.087,0,0,1,.075-1.128,3.1,3.1,0,0,1,.416-1.124,8.581,8.581,0,0,0,1.3-2.393,8.259,8.259,0,0,0-.112-3.055,6.505,6.505,0,0,1,.062-3.275c.393-1.09,1.126-2.081,1.5-3.313a16.505,16.505,0,0,0,.26-3.9,5.187,5.187,0,0,1,.443-1.937c.279-.624.668-1.2.97-1.854a13.57,13.57,0,0,0,.872-4.266q.119-1.1.237-2.229a10.936,10.936,0,0,1,.375-2.231,20.018,20.018,0,0,1,.822-2.164,7.017,7.017,0,0,0,.4-1.128,10.8,10.8,0,0,0,.106-1.2,13.992,13.992,0,0,0-.106-2.412c-.1-.8-.25-1.6-.339-2.405,0-.048-.012-.1-.017-.139l-.019-.16-.144.071a5.385,5.385,0,0,0-1.873,1.6,8.565,8.565,0,0,0-1.142,2.131,26.226,26.226,0,0,0-1.059,4.578,12.5,12.5,0,0,1-1.409,4.224c-.377.624-.832,1.192-1.238,1.8a4.921,4.921,0,0,0-.853,1.991c-.208,1.475.624,2.765.46,4.072a4.5,4.5,0,0,1-.624,1.815c-.312.558-.68,1.076-1.04,1.6a10.15,10.15,0,0,0-.926,1.613,5.123,5.123,0,0,0-.416,1.75c-.079,1.176.094,2.289.015,3.344a7.655,7.655,0,0,1-.845,2.87c-.416.861-.88,1.638-1.269,2.393-.2.377-.375.745-.522,1.113a5.5,5.5,0,0,0-.289,1.1,6.944,6.944,0,0,0-.015,1.989,5.038,5.038,0,0,0,1.011,2.532,2.578,2.578,0,0,0,.285.3,1.307,1.307,0,0,0,.229.191,2.445,2.445,0,0,0,.208.139,4.5,4.5,0,0,1-.678-.664,5.017,5.017,0,0,1-.959-2.514,6.867,6.867,0,0,1,.033-1.962,5.336,5.336,0,0,1,.3-1.078c.146-.36.329-.726.524-1.1.393-.747.861-1.523,1.288-2.389a7.844,7.844,0,0,0,.874-2.913c.085-1.076-.083-2.2,0-3.344a4.895,4.895,0,0,1,.416-1.69,10.044,10.044,0,0,1,.916-1.581c.35-.518.724-1.04,1.04-1.611a4.7,4.7,0,0,0,.653-1.885c.16-1.392-.653-2.693-.452-4.064a4.721,4.721,0,0,1,.832-1.9c.393-.6.855-1.167,1.249-1.806a12.6,12.6,0,0,0,1.442-4.295,25.451,25.451,0,0,1,1.053-4.532,8.258,8.258,0,0,1,1.111-2.081,5.148,5.148,0,0,1,1.787-1.527l-.16-.089a1.137,1.137,0,0,0,.017.141c.092.816.241,1.613.339,2.408a13.8,13.8,0,0,1,.106,2.376,11.582,11.582,0,0,1-.1,1.163,6.923,6.923,0,0,1-.385,1.088,19.982,19.982,0,0,0-.849,2.187,11.039,11.039,0,0,0-.379,2.268q-.119,1.128-.235,2.231a13.416,13.416,0,0,1-.849,4.2c-.289.635-.676,1.219-.963,1.858a5.381,5.381,0,0,0-.456,2.01,16.71,16.71,0,0,1-.243,3.854c-.358,1.194-1.109,2.181-1.488,3.309a6.93,6.93,0,0,0-.054,3.356,7.832,7.832,0,0,1,.129,3,9.252,9.252,0,0,1-1.271,2.364,3.2,3.2,0,0,0-.416,1.169,9.968,9.968,0,0,0-.067,1.14,3.572,3.572,0,0,1-.144,1.015,1.89,1.89,0,0,1-.537.737,4.786,4.786,0,0,1-1.361.776,6.005,6.005,0,0,1-1.115.31,4.49,4.49,0,0,1-.708.073C101.253,292.3,101.174,292.3,101.174,292.3Z" transform="translate(-85.943 -208.034)" fill="#e0e0e0"/>
      <path id="Path_9086" data-name="Path 9086" d="M118.763,259.09a.346.346,0,0,0-.033.106c-.021.083-.046.187-.075.314-.069.275-.148.691-.277,1.209s-.445,1.1-.712,1.825-.558,1.544-.816,2.476-.489,1.964-.73,3.073a12.679,12.679,0,0,1-1.1,3.411c-.283.568-.6,1.142-.853,1.771a8.182,8.182,0,0,0-.489,2,40.575,40.575,0,0,1-.728,4.22c-.683,2.861-1.334,5.587-1.925,8.068s-1.155,4.7-1.615,6.578-.814,3.375-1.07,4.441l-.281,1.211c-.027.127-.05.231-.067.314a.556.556,0,0,0-.017.11.416.416,0,0,0,.04-.1l.087-.31c.079-.291.185-.693.32-1.2.275-1.061.662-2.568,1.14-4.422l1.665-6.567c.6-2.482,1.249-5.2,1.944-8.07a39.989,39.989,0,0,0,.722-4.245,8.115,8.115,0,0,1,.472-1.954c.243-.612.556-1.184.832-1.758a12.962,12.962,0,0,0,1.092-3.465c.237-1.1.454-2.139.7-3.069s.514-1.758.778-2.474a18.812,18.812,0,0,0,.68-1.848c.125-.535.181-.941.235-1.221.021-.129.04-.233.052-.318A.482.482,0,0,0,118.763,259.09Z" transform="translate(-92.753 -215.954)" fill="#e0e0e0"/>
      <path id="Path_9087" data-name="Path 9087" d="M61.955,250.766c2.27-1.367,2.9-5.479,1.935-7.947s-2.639-4.717-2.913-7.352c-.208-2.025.443-4.11-.042-6.087-.651-2.67-3.273-4.726-3.259-7.474,0-1.542.878-3,.8-4.536-.1-1.889-1.554-3.379-2.464-5.04-1.388-2.539-1.5-5.552-1.983-8.4s-1.588-5.906-4.131-7.3c-.36,2.426-.988,4.091-.77,7.375.079,1.18,1.457,3.431,1.665,6.016.121,1.544.208,3.092.31,4.638a14.923,14.923,0,0,0,.753,4.441c.416,1.078,1.09,2.054,1.4,3.167.591,2.091-.156,4.37.323,6.486.416,1.8,1.665,3.329,1.925,5.161.37,2.562-1.273,5.233-.416,7.674.429,1.211,1.432,2.179,1.723,3.429.225.972,0,2,.2,2.978.329,1.571,3.329,2.774,4.938,2.668" transform="translate(-46.112 -166.491)" fill="#e0e0e0"/>
      <path id="Path_9088" data-name="Path 9088" d="M56.086,208.18a.624.624,0,0,0,0,.137c.015.1.031.233.054.4.054.35.117.864.237,1.529s.481,1.417.762,2.324.589,1.946.851,3.121.491,2.46.728,3.85a15.709,15.709,0,0,0,1.192,4.349c.323.726.685,1.457.959,2.227a10.018,10.018,0,0,1,.493,2.46,49.754,49.754,0,0,0,.7,5.3c.718,3.59,1.4,7.006,2.023,10.119.655,3.1,1.249,5.891,1.742,8.242l1.194,5.552c.142.643.254,1.149.335,1.507.037.162.069.291.092.391a.6.6,0,0,0,.04.131.609.609,0,0,0-.017-.135c-.019-.1-.042-.231-.071-.4-.071-.362-.169-.87-.293-1.517-.268-1.328-.651-3.227-1.124-5.566s-1.047-5.148-1.686-8.259-1.294-6.53-2-10.117a49.866,49.866,0,0,1-.7-5.292,10.165,10.165,0,0,0-.51-2.5c-.283-.791-.649-1.519-.974-2.239a16.162,16.162,0,0,1-1.2-4.3c-.254-1.386-.479-2.682-.755-3.852s-.581-2.214-.889-3.121-.653-1.665-.795-2.306-.208-1.169-.279-1.515c-.031-.164-.056-.293-.075-.4A.624.624,0,0,0,56.086,208.18Z" transform="translate(-51.654 -175.637)" fill="#ebebeb"/>
      <rect id="Rectangle_1001" data-name="Rectangle 1001" width="23.622" height="24.623" transform="translate(13.525 0.006)" fill="#e0e0e0"/>
      <rect id="Rectangle_1002" data-name="Rectangle 1002" width="23.622" height="24.623" transform="translate(11.925 0.006)" fill="#fafafa"/>
      <path id="Path_9089" data-name="Path 9089" d="M115.715,76.427H92.08V51.79h23.635Zm-23.62-.015H115.7V51.8H92.095Z" transform="translate(-80.162 -51.79)" fill="#e0e0e0"/>
      <rect id="Rectangle_1003" data-name="Rectangle 1003" width="17.271" height="18.004" transform="translate(15.1 3.317)" fill="#fafafa"/>
      <path id="Path_9090" data-name="Path 9090" d="M95.38,154.82a2.649,2.649,0,0,1-.427.5c-.275.291-.662.687-1.1,1.113s-.832.809-1.128,1.08a2.847,2.847,0,0,1-.5.416,2.706,2.706,0,0,1,.416-.493c.277-.291.666-.687,1.1-1.115s.832-.812,1.13-1.082A2.9,2.9,0,0,1,95.38,154.82Z" transform="translate(-80.28 -133.381)" fill="#e0e0e0"/>
      <path id="Path_9091" data-name="Path 9091" d="M190.37,154.61a2.84,2.84,0,0,1,.5.416c.291.275.685.664,1.113,1.1s.809.832,1.08,1.13a2.68,2.68,0,0,1,.416.5,2.8,2.8,0,0,1-.493-.416c-.291-.277-.687-.666-1.115-1.1s-.812-.832-1.082-1.13A2.689,2.689,0,0,1,190.37,154.61Z" transform="translate(-157.999 -133.215)" fill="#e0e0e0"/>
      <path id="Path_9092" data-name="Path 9092" d="M190.14,56.185a2.839,2.839,0,0,1,.427-.5c.277-.291.664-.685,1.1-1.113s.832-.809,1.128-1.08a2.76,2.76,0,0,1,.5-.416,2.692,2.692,0,0,1-.416.493c-.277.291-.664.687-1.1,1.115s-.832.812-1.13,1.082A2.691,2.691,0,0,1,190.14,56.185Z" transform="translate(-157.817 -52.812)" fill="#e0e0e0"/>
      <path id="Path_9093" data-name="Path 9093" d="M95.325,56.22a2.815,2.815,0,0,1-.5-.416c-.291-.275-.685-.662-1.113-1.1s-.809-.832-1.08-1.128a2.655,2.655,0,0,1-.416-.5,2.808,2.808,0,0,1,.493.416c.291.277.685.666,1.115,1.1s.812.832,1.082,1.132a2.649,2.649,0,0,1,.414.491Z" transform="translate(-80.272 -52.812)" fill="#e0e0e0"/>
      <path id="Path_9094" data-name="Path 9094" d="M124.4,85.29V83.979c0-.853,0-2.093-.019-3.669,0-3.155-.019-7.645-.033-13.024l.067.067H107.2l.077-.077v18l-.067-.067,12.471.033,3.5.019h.027l-3.49.017-12.512.033h-.065v-.065c0-5.215,0-11.395-.012-18V67.17H124.5v.067c-.015,5.4-.025,9.9-.033,13.066,0,1.569-.012,2.805-.017,3.654v1.2A.6.6,0,0,1,124.4,85.29Z" transform="translate(-92.08 -63.97)" fill="#e0e0e0"/>
      <rect id="Rectangle_1004" data-name="Rectangle 1004" width="5.764" height="5.762" transform="translate(20.854 9.437)" fill="#ebebeb"/>
      <path id="Path_9095" data-name="Path 9095" d="M299.768,109.56v21.485H268.911L267.8,109.71Z" transform="translate(-219.317 -97.539)" fill="#e0e0e0"/>
      <rect id="Rectangle_1005" data-name="Rectangle 1005" width="21.289" height="30.857" transform="translate(48.481 33.46) rotate(-90)" fill="#fff"/>
      <path id="Path_9096" data-name="Path 9096" d="M298.241,131.163H267.09V109.58h31.151Zm-30.857-.293h30.564V109.875H267.383Z" transform="translate(-218.754 -97.555)" fill="#e0e0e0"/>
      <rect id="Rectangle_1006" data-name="Rectangle 1006" width="24.173" height="16" transform="translate(51.825 14.818)" fill="#fff"/>
      <path id="Path_9097" data-name="Path 9097" d="M307.71,122.659h-1.792l-4.982.019-17.4.033.069-.069v16h0l-.075-.075,24.173.015-.062.06c.015-4.869.025-8.86.033-11.64,0-1.39.013-2.474.015-3.219v-.025c0,.741,0,1.821.017,3.2,0,2.788.017,6.794.031,11.678v.06h-.027l-24.173.017h-.077v-.077h0V122.57h.071l17.446.035,4.967.019h1.648A.391.391,0,0,0,307.71,122.659Z" transform="translate(-231.718 -107.842)" fill="#e0e0e0"/>
      <path id="Path_9098" data-name="Path 9098" d="M267.8,110a2.565,2.565,0,0,1,.531.343c.314.229.745.551,1.209.922s.872.724,1.159.986a2.582,2.582,0,0,1,.443.454c-.029.031-.772-.581-1.7-1.319A16.719,16.719,0,0,1,267.8,110Z" transform="translate(-219.314 -97.887)" fill="#e0e0e0"/>
      <path id="Path_9099" data-name="Path 9099" d="M403.37,110.285a15.365,15.365,0,0,1-1.625,1.382,15.577,15.577,0,0,1-1.717,1.263,15.061,15.061,0,0,1,1.623-1.384A15.63,15.63,0,0,1,403.37,110.285Z" transform="translate(-324.029 -98.112)" fill="#e0e0e0"/>
      <path id="Path_9100" data-name="Path 9100" d="M402.91,202l-3.44-2.788" transform="translate(-323.588 -168.534)" fill="#fff"/>
      <path id="Path_9101" data-name="Path 9101" d="M399.437,199.2a16.075,16.075,0,0,1,1.767,1.334A14.182,14.182,0,0,1,402.869,202a15.019,15.019,0,0,1-1.769-1.336A15.333,15.333,0,0,1,399.437,199.2Z" transform="translate(-323.561 -168.529)" fill="#e0e0e0"/>
      <path id="Path_9102" data-name="Path 9102" d="M267.8,202.63a14.472,14.472,0,0,1,1.606-1.367,14.845,14.845,0,0,1,1.7-1.249,29.451,29.451,0,0,1-3.306,2.616Z" transform="translate(-219.314 -169.17)" fill="#e0e0e0"/>
      <rect id="Rectangle_1007" data-name="Rectangle 1007" width="5.356" height="15.211" transform="translate(56.734 25.16) rotate(-90)" fill="#e0e0e0"/>
    </g>
    <g id="freepik--Character--inject-83" transform="translate(36.188 61.329)">
      <path id="Path_9103" data-name="Path 9103" d="M409.92,212.358l2.576-3.121s.647-4.226.558-4.821a20.07,20.07,0,0,0-.712-2.335.366.366,0,0,1,.289-.483c.468-.077,1.234,0,1.829,1.13a11.447,11.447,0,0,1,.97,3.356.789.789,0,0,0,1.015.624,26.732,26.732,0,0,1,3.617-.876,1.8,1.8,0,0,1,1.654,1.095c.117.379-.477,1.1-.477,1.1a1.78,1.78,0,0,1,.832.676c.029.056.056.11.079.164a1.1,1.1,0,0,1-.133,1.086l-.162.208s.749.127.88.537a2.5,2.5,0,0,1,.069.924l-.614.774a1.168,1.168,0,0,1,.416.624c.073.381-.859,1.436-.859,1.436l-4.726,1.794-1.665,1.588Z" transform="translate(-333.247 -179.947)" fill="#b78876"/>
      <path id="Path_9104" data-name="Path 9104" d="M445.181,226.617a.456.456,0,0,1-.1.058l-.293.148-1.084.529-1.615.77c-.306.139-.624.308-.97.433a1.249,1.249,0,0,1-1.136-.085.859.859,0,0,1-.323-.508,1.2,1.2,0,0,1,.021-.578,1.627,1.627,0,0,1,.641-.857,6.406,6.406,0,0,1,.832-.489l.737-.389,1.07-.556.293-.148a.455.455,0,0,1,.106-.044.491.491,0,0,1-.1.062l-.283.164-1.053.587-.73.4a6.624,6.624,0,0,0-.812.489,1.55,1.55,0,0,0-.6.805.9.9,0,0,0,.264.97.921.921,0,0,0,.51.162,1.516,1.516,0,0,0,.529-.087c.339-.119.653-.287.961-.416l1.623-.749,1.1-.5.3-.131A.439.439,0,0,1,445.181,226.617Z" transform="translate(-356.78 -198.417)" fill="#aa6550"/>
      <path id="Path_9105" data-name="Path 9105" d="M449.979,242.59a1.272,1.272,0,0,1-.227.121c-.15.071-.366.169-.639.283-.541.231-1.3.529-2.152.818a5.966,5.966,0,0,1-.635.189,1.234,1.234,0,0,1-.624-.012.961.961,0,0,1-.651-.795.939.939,0,0,1,.2-.676.812.812,0,0,1,.137-.135c.035-.025.056-.035.058-.033a1.486,1.486,0,0,0-.162.193.947.947,0,0,0-.156.641.891.891,0,0,0,.605.71,1.155,1.155,0,0,0,.578,0,6.147,6.147,0,0,0,.624-.189c.851-.287,1.611-.572,2.158-.784l.651-.252A1.238,1.238,0,0,1,449.979,242.59Z" transform="translate(-361.065 -212.235)" fill="#aa6550"/>
      <path id="Path_9106" data-name="Path 9106" d="M452.346,250.866a.958.958,0,0,1-.225.075l-.624.167c-.529.135-1.259.314-2.066.506a5.707,5.707,0,0,1-.6.123,1.074,1.074,0,0,1-.581-.073.624.624,0,0,1-.36-.4.691.691,0,0,1,.029-.462.964.964,0,0,1,.447-.477.584.584,0,0,1,.221-.089s-.075.042-.208.125a.986.986,0,0,0-.4.468.638.638,0,0,0-.015.416.545.545,0,0,0,.316.329,1,1,0,0,0,.526.06,5.64,5.64,0,0,0,.589-.125c.807-.191,1.542-.358,2.081-.474l.624-.133A1.19,1.19,0,0,1,452.346,250.866Z" transform="translate(-363.294 -218.484)" fill="#aa6550"/>
      <path id="Path_9107" data-name="Path 9107" d="M454.671,258.181a4.27,4.27,0,0,1-.7.035H451.8a1.84,1.84,0,0,1-.456-.04.645.645,0,0,1-.366-.225.431.431,0,0,1-.079-.368.624.624,0,0,1,.348-.389.329.329,0,0,1,.187-.04c0,.01-.067.019-.169.077a.593.593,0,0,0-.291.37.352.352,0,0,0,.075.3.6.6,0,0,0,.318.183,2.081,2.081,0,0,0,.435.029h.481c.658,0,1.249.017,1.686.029a4.642,4.642,0,0,1,.7.042Z" transform="translate(-365.692 -223.96)" fill="#aa6550"/>
      <path id="Path_9108" data-name="Path 9108" d="M439.138,251.526a6.084,6.084,0,0,0-1.161-.368,5.982,5.982,0,0,0-1.217-.015A2.676,2.676,0,0,1,439.138,251.526Z" transform="translate(-354.502 -219.1)" fill="#aa6550"/>
      <path id="Path_9109" data-name="Path 9109" d="M103.012,255l15.756-11.335,5.6,6.42-12.331,12.71c-5.51,4.984-7.439,6.243-16.574,1.04l-5.8-3.329,2.141,26.442H65.59c-2.88-.092,3.746-7.316,3.292-7.316L63.13,260.213l-8.9,5.98,8.434,6.594-3.121,7.223-14.42-6.665c-5.227-3.477-4.526-10.25-.067-14.67,8.032-7.959,14.248-13.75,21.115-14.924a31.479,31.479,0,0,1,5.618-1.248c5.527-.079,5.939-.06,8.9.079a12.608,12.608,0,0,1,1.717.208,20.1,20.1,0,0,1,8.929,3.675Z" transform="translate(-41.455 -212.321)" fill="#b24bf3"/>
      <path id="Path_9110" data-name="Path 9110" d="M336.1,307.135a.776.776,0,0,1-.121-.191,4.564,4.564,0,0,1-.258-.56,5.844,5.844,0,0,1-.264-.876,6.83,6.83,0,0,1-.142-1.111,6.6,6.6,0,0,1,.062-1.12,5.912,5.912,0,0,1,.208-.893,4.54,4.54,0,0,1,.208-.576.888.888,0,0,1,.106-.208c.021,0-.108.3-.243.8a7.261,7.261,0,0,0-.173.884,7.157,7.157,0,0,0-.052,1.1,7.454,7.454,0,0,0,.129,1.095,7.147,7.147,0,0,0,.237.868C335.973,306.842,336.122,307.125,336.1,307.135Z" transform="translate(-274.168 -259.157)" fill="#263238"/>
      <path id="Path_9111" data-name="Path 9111" d="M260.836,309.184a8.532,8.532,0,0,0-2.526-12.964" transform="translate(-213.185 -254.897)" fill="#b24bf3"/>
      <path id="Path_9112" data-name="Path 9112" d="M258.27,298.19a.493.493,0,0,1,.112.067c.069.048.179.114.306.208a8.812,8.812,0,0,1,1.04.907,12.982,12.982,0,0,1,2.514,3.773,5.841,5.841,0,0,1,.549,2.449,6.731,6.731,0,0,1-.325,2.021,10.25,10.25,0,0,1-.5,1.286l-.169.335a.7.7,0,0,1-.064.114.532.532,0,0,1,.046-.123c.037-.09.087-.208.148-.343a12.548,12.548,0,0,0,.466-1.29,6.979,6.979,0,0,0,.3-2,5.826,5.826,0,0,0-.553-2.4,13.61,13.61,0,0,0-2.468-3.766,10.289,10.289,0,0,0-1.011-.926c-.125-.1-.229-.175-.293-.231A.628.628,0,0,1,258.27,298.19Z" transform="translate(-213.154 -256.457)" fill="#263238"/>
      <path id="Path_9113" data-name="Path 9113" d="M207.907,334.07a.23.23,0,0,1,0,.09,1.6,1.6,0,0,1-.017.254,5.084,5.084,0,0,1-.183.918,5.5,5.5,0,0,1-4.409,3.9,5,5,0,0,1-.934.071c-.11,0-.2-.013-.254-.015a.292.292,0,0,1-.089-.015,3.3,3.3,0,0,1,.343-.015,5.856,5.856,0,0,0,.92-.1,5.606,5.606,0,0,0,4.351-3.854,6.06,6.06,0,0,0,.208-.9A3.127,3.127,0,0,1,207.907,334.07Z" transform="translate(-168.609 -284.871)" fill="#263238"/>
      <path id="Path_9114" data-name="Path 9114" d="M168.57,381.25a.434.434,0,0,1,.029.116c.017.09.035.208.06.339a5.161,5.161,0,0,1,.075.541c.019.208.052.454.056.722,0,.133.01.275.015.416s0,.3,0,.456c0,.316-.035.651-.064,1.005a13.975,13.975,0,0,1-.452,2.262,13.771,13.771,0,0,1-.853,2.143c-.167.312-.32.614-.493.878-.083.133-.158.266-.241.387l-.241.345a7.148,7.148,0,0,1-.439.574c-.131.158-.254.3-.356.416s-.175.185-.237.252a.471.471,0,0,1-.087.083.732.732,0,0,1,.071-.1l.221-.264c.1-.112.208-.252.341-.416a4.933,4.933,0,0,0,.416-.583l.233-.345c.081-.121.154-.254.235-.387.169-.266.318-.566.481-.876a13.142,13.142,0,0,0,1.294-4.37c.031-.352.071-.685.073-1,0-.156.017-.308.015-.454s0-.285,0-.416c0-.266-.027-.506-.04-.718s-.035-.393-.056-.541-.029-.252-.04-.341A.75.75,0,0,1,168.57,381.25Z" transform="translate(-139.561 -322.233)" fill="#263238"/>
      <path id="Path_9115" data-name="Path 9115" d="M76.19,350.36a.852.852,0,0,1,.225-.077,2.629,2.629,0,0,1,.273-.067c.106-.021.229-.05.364-.065a6.016,6.016,0,0,1,.966-.065,6.942,6.942,0,0,1,1.176.125,7.247,7.247,0,0,1,1.136.337,6.334,6.334,0,0,1,.866.429,2.9,2.9,0,0,1,.312.208c.092.067.164.117.225.164a.939.939,0,0,1,.179.158c-.012.017-.279-.194-.755-.458a6.84,6.84,0,0,0-.864-.4,7.585,7.585,0,0,0-1.12-.325,7.687,7.687,0,0,0-1.157-.131,7.347,7.347,0,0,0-.953.039C76.521,350.288,76.194,350.379,76.19,350.36Z" transform="translate(-68.962 -297.555)" fill="#263238"/>
      <path id="Path_9116" data-name="Path 9116" d="M140.642,266.2a.482.482,0,0,1,.017-.123c.019-.092.04-.208.069-.35a12.3,12.3,0,0,0,.173-1.286,8.739,8.739,0,0,0-.058-1.919,6.45,6.45,0,0,0-.743-2.214,5.081,5.081,0,0,0-1.552-1.727,4.491,4.491,0,0,0-1.762-.705,3.974,3.974,0,0,0-1.286,0c-.3.05-.464.108-.468.1a.708.708,0,0,1,.117-.044,2.621,2.621,0,0,1,.343-.094,3.814,3.814,0,0,1,1.307-.031,4.428,4.428,0,0,1,1.806.7,5.058,5.058,0,0,1,1.59,1.756,6.45,6.45,0,0,1,.747,2.252,8.424,8.424,0,0,1,.035,1.939,9.943,9.943,0,0,1-.208,1.29c-.033.15-.062.264-.085.343A.625.625,0,0,1,140.642,266.2Z" transform="translate(-115.558 -224.439)" fill="#263238"/>
      <path id="Path_9117" data-name="Path 9117" d="M122.4,279.755a13.879,13.879,0,0,1-.046-1.713,13.412,13.412,0,0,1,.064-1.713,27.663,27.663,0,0,1-.019,3.425Z" transform="translate(-105.516 -239.145)" fill="#fafafa"/>
      <path id="Path_9118" data-name="Path 9118" d="M97.708,309.878a6.806,6.806,0,0,1-.816-.868,6.514,6.514,0,0,1-.732-.941,6.749,6.749,0,0,1,.816.87A6.435,6.435,0,0,1,97.708,309.878Z" transform="translate(-84.777 -264.281)" fill="#fafafa"/>
      <path id="Path_9119" data-name="Path 9119" d="M124.187,312.05a10.537,10.537,0,0,1-1.469.439,10.852,10.852,0,0,1-1.5.335,10.521,10.521,0,0,1,1.471-.439A10.8,10.8,0,0,1,124.187,312.05Z" transform="translate(-104.622 -267.433)" fill="#fafafa"/>
      <path id="Path_9120" data-name="Path 9120" d="M148.065,290.494a1.551,1.551,0,0,1-.087-.416c-.035-.262-.071-.624-.087-1.04A10.1,10.1,0,0,1,147.9,288a1.57,1.57,0,0,1,.054-.427c.031,0,.012.653.042,1.457S148.1,290.489,148.065,290.494Z" transform="translate(-125.736 -248.047)" fill="#fafafa"/>
      <path id="Path_9121" data-name="Path 9121" d="M98.869,334.547a9.523,9.523,0,0,1-.054-1.423,9.342,9.342,0,0,1,.056-1.423,9.364,9.364,0,0,1,.052,1.423,9.521,9.521,0,0,1-.054,1.423Z" transform="translate(-86.874 -282.994)" fill="#fafafa"/>
      <path id="Path_9122" data-name="Path 9122" d="M63.859,332.814a15.989,15.989,0,0,1-1.76-.641,16.22,16.22,0,0,1-1.719-.743,15.975,15.975,0,0,1,1.76.643,16.693,16.693,0,0,1,1.719.741Z" transform="translate(-56.442 -282.78)" fill="#fafafa"/>
      <path id="Path_9123" data-name="Path 9123" d="M58,352.167a9.267,9.267,0,0,1,.1-1.43,9.668,9.668,0,0,1,.208-1.417,9.255,9.255,0,0,1-.1,1.43A9.546,9.546,0,0,1,58,352.167Z" transform="translate(-54.557 -296.947)" fill="#fafafa"/>
      <path id="Path_9124" data-name="Path 9124" d="M75.061,380.2a3.074,3.074,0,0,1-.547-.127c-.335-.087-.795-.208-1.309-.327s-.98-.208-1.319-.285a3.323,3.323,0,0,1-.545-.127,2.552,2.552,0,0,1,.56.052c.341.05.814.133,1.33.254s.976.252,1.3.36A2.835,2.835,0,0,1,75.061,380.2Z" transform="translate(-65.121 -320.719)" fill="#fafafa"/>
      <path id="Path_9125" data-name="Path 9125" d="M97.794,363.421a19.533,19.533,0,0,1-.614-2.851,19.687,19.687,0,0,1,.614,2.851Z" transform="translate(-85.584 -305.856)" fill="#fafafa"/>
      <path id="Path_9126" data-name="Path 9126" d="M99.073,400.785a1.871,1.871,0,0,1-.485-.037,10.254,10.254,0,0,1-2.251-.6,1.91,1.91,0,0,1-.437-.208,2.526,2.526,0,0,1,.464.135c.283.092.674.208,1.113.331s.832.208,1.13.264A2.4,2.4,0,0,1,99.073,400.785Z" transform="translate(-84.571 -337.034)" fill="#fafafa"/>
      <path id="Path_9127" data-name="Path 9127" d="M123.544,387.767a2.5,2.5,0,0,1,.023-.51c.025-.314.058-.747.077-1.228s.023-.913.025-1.228a2.809,2.809,0,0,1,.017-.512,2.1,2.1,0,0,1,.06.51,11.022,11.022,0,0,1,0,1.236,12.069,12.069,0,0,1-.108,1.23A2.239,2.239,0,0,1,123.544,387.767Z" transform="translate(-106.459 -324.64)" fill="#fafafa"/>
      <path id="Path_9128" data-name="Path 9128" d="M163.614,322.436c-.025.019-.445-.52-1.007-1.142s-1.053-1.1-1.03-1.124a1.849,1.849,0,0,1,.35.281,10.781,10.781,0,0,1,.76.77c.283.314.522.614.687.832A1.711,1.711,0,0,1,163.614,322.436Z" transform="translate(-136.581 -273.863)" fill="#fafafa"/>
      <path id="Path_9129" data-name="Path 9129" d="M192.38,305.89a6.66,6.66,0,0,1-.916.8,6.921,6.921,0,0,1-.984.716,7,7,0,0,1,.916-.8A6.922,6.922,0,0,1,192.38,305.89Z" transform="translate(-159.47 -262.554)" fill="#fafafa"/>
      <path id="Path_9130" data-name="Path 9130" d="M183.718,276.725a36.034,36.034,0,0,1,.056-3.985,37.441,37.441,0,0,1-.056,3.985Z" transform="translate(-154.081 -236.302)" fill="#fafafa"/>
      <path id="Path_9131" data-name="Path 9131" d="M229.65,253.307a14.667,14.667,0,0,1,.768-1.579,14.289,14.289,0,0,1,.864-1.527,13.858,13.858,0,0,1-.768,1.577A14.042,14.042,0,0,1,229.65,253.307Z" transform="translate(-190.489 -218.453)" fill="#fafafa"/>
      <path id="Path_9132" data-name="Path 9132" d="M217.524,282.758a35.906,35.906,0,0,1-2.314-3.2,17.361,17.361,0,0,1,1.2,1.567A18.765,18.765,0,0,1,217.524,282.758Z" transform="translate(-179.054 -241.703)" fill="#fafafa"/>
      <path id="Path_9133" data-name="Path 9133" d="M252.747,274.57a10.745,10.745,0,0,1-1,1.176,11.242,11.242,0,0,1-1.084,1.1,11.215,11.215,0,0,1,1.005-1.176A11.666,11.666,0,0,1,252.747,274.57Z" transform="translate(-207.127 -237.752)" fill="#fafafa"/>
      <path id="Path_9134" data-name="Path 9134" d="M241.93,310.977a15.771,15.771,0,0,1-1.1-1.5,16.29,16.29,0,0,1-1.015-1.559,16.326,16.326,0,0,1,1.1,1.5A15.859,15.859,0,0,1,241.93,310.977Z" transform="translate(-198.535 -264.162)" fill="#fafafa"/>
      <path id="Path_9135" data-name="Path 9135" d="M211.81,326.731a11.539,11.539,0,0,1,.549-1.475,11.783,11.783,0,0,1,.651-1.436,11.63,11.63,0,0,1-.549,1.477A11.829,11.829,0,0,1,211.81,326.731Z" transform="translate(-176.361 -276.753)" fill="#fafafa"/>
      <path id="Path_9136" data-name="Path 9136" d="M170.815,350.871c-.015.025-.934-.431-2.054-1.02s-2.016-1.09-2-1.115.932.429,2.052,1.02S170.827,350.844,170.815,350.871Z" transform="translate(-140.685 -296.484)" fill="#fafafa"/>
      <path id="Path_9137" data-name="Path 9137" d="M203,383.406a2.67,2.67,0,0,1,.271-.518,14.038,14.038,0,0,1,.782-1.174,13.633,13.633,0,0,1,.9-1.088,2.745,2.745,0,0,1,.416-.416,3.691,3.691,0,0,1-.362.46c-.229.277-.541.664-.868,1.1s-.605.851-.805,1.149A3.868,3.868,0,0,1,203,383.406Z" transform="translate(-169.385 -321.409)" fill="#fafafa"/>
      <path id="Path_9138" data-name="Path 9138" d="M170.017,380.177a6.035,6.035,0,0,1-.085-1.136,5.783,5.783,0,0,1,.023-1.14,6.28,6.28,0,0,1,.085,1.138A6.146,6.146,0,0,1,170.017,380.177Z" transform="translate(-143.183 -319.58)" fill="#fafafa"/>
      <path id="Path_9139" data-name="Path 9139" d="M193.758,417.54c-.025.019-.393-.443-.882-.982s-.909-.955-.889-.978a7.793,7.793,0,0,1,1.771,1.96Z" transform="translate(-160.663 -349.419)" fill="#fafafa"/>
      <path id="Path_9140" data-name="Path 9140" d="M174.211,439a11.49,11.49,0,0,1-1.269.986,12.355,12.355,0,0,1-1.332.9,11.494,11.494,0,0,1,1.269-.986,11.988,11.988,0,0,1,1.332-.9Z" transform="translate(-144.526 -367.966)" fill="#fafafa"/>
      <path id="Path_9141" data-name="Path 9141" d="M209.56,440.8a3.029,3.029,0,0,1-.489.106c-.3.058-.72.144-1.174.266s-.859.256-1.149.358a2.756,2.756,0,0,1-.479.154,2.053,2.053,0,0,1,.449-.225,9.17,9.17,0,0,1,1.149-.391,9.328,9.328,0,0,1,1.19-.239A1.951,1.951,0,0,1,209.56,440.8Z" transform="translate(-171.974 -369.388)" fill="#fafafa"/>
      <path id="Path_9142" data-name="Path 9142" d="M235.457,420.638c-.029,0-.208-.982-.4-2.206s-.316-2.218-.287-2.222.208.982.4,2.206S235.486,420.634,235.457,420.638Z" transform="translate(-194.544 -349.918)" fill="#fafafa"/>
      <path id="Path_9143" data-name="Path 9143" d="M227.609,393.621a2.8,2.8,0,0,1-.57-.131c-.348-.1-.832-.25-1.34-.439s-.98-.383-1.309-.533a3.05,3.05,0,0,1-.52-.268,3.381,3.381,0,0,1,.551.2c.335.131.8.312,1.315.5s.984.352,1.326.468A3.466,3.466,0,0,1,227.609,393.621Z" transform="translate(-185.912 -330.944)" fill="#fafafa"/>
      <path id="Path_9144" data-name="Path 9144" d="M262.757,418.77a12.961,12.961,0,0,1-.868,1.434,13.117,13.117,0,0,1-.959,1.375,12.8,12.8,0,0,1,.868-1.434A13.117,13.117,0,0,1,262.757,418.77Z" transform="translate(-215.26 -351.946)" fill="#fafafa"/>
      <path id="Path_9145" data-name="Path 9145" d="M255.5,446.575a10.811,10.811,0,0,1-1.234-.874,10.5,10.5,0,0,1-1.169-.961,10.821,10.821,0,0,1,1.234.874A10.5,10.5,0,0,1,255.5,446.575Z" transform="translate(-209.06 -372.512)" fill="#fafafa"/>
      <path id="Path_9146" data-name="Path 9146" d="M255.568,377.29a13.676,13.676,0,0,1-.416,1.692,13.96,13.96,0,0,1-.522,1.665,27.77,27.77,0,0,1,.938-3.356Z" transform="translate(-210.271 -319.097)" fill="#fafafa"/>
      <path id="Path_9147" data-name="Path 9147" d="M242.82,356.315a6.076,6.076,0,0,1-2.15-1.519c.023-.023.46.372,1.055.789S242.82,356.295,242.82,356.315Z" transform="translate(-199.216 -301.283)" fill="#fafafa"/>
      <path id="Path_9148" data-name="Path 9148" d="M258.543,337.79a5.733,5.733,0,0,1-.556.947,5.641,5.641,0,0,1-.647.886,5.73,5.73,0,0,1,.556-.947A5.646,5.646,0,0,1,258.543,337.79Z" transform="translate(-212.417 -287.816)" fill="#fafafa"/>
      <path id="Path_9149" data-name="Path 9149" d="M283.51,279.925a12.97,12.97,0,0,1,.416-1.627,13.6,13.6,0,0,1,.524-1.6,25.209,25.209,0,0,1-.941,3.225Z" transform="translate(-233.142 -239.438)" fill="#fafafa"/>
      <path id="Path_9150" data-name="Path 9150" d="M288.341,314.149a2.718,2.718,0,0,1-.483-.323,11.509,11.509,0,0,1-1.057-.918,10.886,10.886,0,0,1-.932-1.04,2.423,2.423,0,0,1-.329-.479,4.031,4.031,0,0,1,.387.429c.235.271.564.635.951,1.018s.757.705,1.028.934A3.6,3.6,0,0,1,288.341,314.149Z" transform="translate(-234.749 -266.91)" fill="#fafafa"/>
      <path id="Path_9151" data-name="Path 9151" d="M311.433,302.1c-.027-.017.268-.506.545-1.151s.435-1.2.466-1.188A5.41,5.41,0,0,1,311.433,302.1Z" transform="translate(-255.253 -257.7)" fill="#fafafa"/>
      <path id="Path_9152" data-name="Path 9152" d="M321.16,328.206a6.343,6.343,0,0,1,.208-1.151,6.5,6.5,0,0,1,.306-1.126,6.154,6.154,0,0,1-.208,1.151,6.292,6.292,0,0,1-.306,1.126Z" transform="translate(-262.957 -278.424)" fill="#fafafa"/>
      <path id="Path_9153" data-name="Path 9153" d="M335.644,345.267a9.671,9.671,0,0,1-1.165-.851,9.53,9.53,0,0,1-1.1-.936,9.681,9.681,0,0,1,1.165.851A9.3,9.3,0,0,1,335.644,345.267Z" transform="translate(-272.634 -292.322)" fill="#fafafa"/>
      <path id="Path_9154" data-name="Path 9154" d="M355.088,320.13a2.683,2.683,0,0,1-.223.466c-.146.283-.339.676-.529,1.124s-.339.857-.443,1.159a2.914,2.914,0,0,1-.183.483,2.205,2.205,0,0,1,.108-.506,10.065,10.065,0,0,1,.416-1.18,9.657,9.657,0,0,1,.562-1.117A2.26,2.26,0,0,1,355.088,320.13Z" transform="translate(-288.734 -273.831)" fill="#fafafa"/>
      <path id="Path_9155" data-name="Path 9155" d="M357.87,299.295a18.977,18.977,0,0,1-1.977-.549,19.23,19.23,0,0,1-1.944-.655,39.211,39.211,0,0,1,3.92,1.2Z" transform="translate(-288.924 -256.378)" fill="#fafafa"/>
      <path id="Path_9156" data-name="Path 9156" d="M378.531,318.53a4.482,4.482,0,0,1-.35.437,9.97,9.97,0,0,0-1.407,2.289,3.848,3.848,0,0,1-.235.508,2.24,2.24,0,0,1,.164-.539,7.463,7.463,0,0,1,1.419-2.3,2.161,2.161,0,0,1,.408-.391Z" transform="translate(-306.813 -272.564)" fill="#fafafa"/>
      <path id="Path_9157" data-name="Path 9157" d="M392.083,280.46a4.274,4.274,0,0,1,0-.6c.01-.372.017-.886,0-1.457s-.058-1.08-.092-1.457a4.32,4.32,0,0,1-.042-.6,2.8,2.8,0,0,1,.119.593,14.139,14.139,0,0,1,.123,1.457,13.62,13.62,0,0,1-.029,1.457,2.845,2.845,0,0,1-.079.614Z" transform="translate(-319.017 -239.153)" fill="#fafafa"/>
      <path id="Path_9158" data-name="Path 9158" d="M408.289,288.585a9.743,9.743,0,0,1-1.176-.9A10.086,10.086,0,0,1,406,286.7a10.42,10.42,0,0,1,1.178.9A9.942,9.942,0,0,1,408.289,288.585Z" transform="translate(-330.143 -247.358)" fill="#fafafa"/>
      <path id="Path_9159" data-name="Path 9159" d="M420.6,264.444a4.212,4.212,0,0,1-.219-.572c-.127-.356-.308-.843-.529-1.375s-.437-1.005-.6-1.346a3.932,3.932,0,0,1-.248-.56,3,3,0,0,1,.316.526,12.231,12.231,0,0,1,.624,1.338c.208.535.391,1.03.5,1.394A2.893,2.893,0,0,1,420.6,264.444Z" transform="translate(-340.446 -226.681)" fill="#fafafa"/>
      <g id="Group_3924" data-name="Group 3924" transform="translate(30.602 51.128)" opacity="0.3">
        <path id="Path_9160" data-name="Path 9160" d="M196.679,343.34c-.832,2.191-3.1,3.177-5.2,3.317h-.121a8.323,8.323,0,0,0-2.836.358,4.5,4.5,0,0,0,8.159-3.667Z" transform="translate(-188.52 -343.34)"/>
      </g>
      <g id="Group_3925" data-name="Group 3925" transform="translate(24.112 56.162)" opacity="0.3">
        <path id="Path_9161" data-name="Path 9161" d="M157.33,367.53c.508,1.894,1.226,4.12,1.733,6.014.445,1.665,1.126,3.485,1.571,5.144l.2-.019A12.278,12.278,0,0,0,157.33,367.53Z" transform="translate(-157.33 -367.53)"/>
      </g>
      <g id="Group_3926" data-name="Group 3926" transform="translate(47.285 43.758)" opacity="0.3">
        <path id="Path_9162" data-name="Path 9162" d="M272.916,311.749a7.645,7.645,0,0,0-4.226-3.829c1.04,1.5,2.216,3.307,2.335,5.248l1.55.891A2.461,2.461,0,0,0,272.916,311.749Z" transform="translate(-268.69 -307.92)"/>
      </g>
      <path id="Path_9163" data-name="Path 9163" d="M178.3,255.977a2.552,2.552,0,0,0-.593.264,2.412,2.412,0,0,0-.435.481c-.013,0,0-.083.052-.2a1.041,1.041,0,0,1,.32-.372,1.055,1.055,0,0,1,.452-.187C178.224,255.948,178.3,255.967,178.3,255.977Z" transform="translate(-149.008 -223.013)" fill="#263238"/>
      <path id="Path_9164" data-name="Path 9164" d="M194.173,266.043c-.012,0-.048-.087-.06-.243a1.39,1.39,0,0,1,.1-.6,1.348,1.348,0,0,1,.348-.5c.117-.1.208-.144.208-.133a2.641,2.641,0,0,0-.462.674A2.737,2.737,0,0,0,194.173,266.043Z" transform="translate(-162.345 -229.826)" fill="#263238"/>
      <path id="Path_9165" data-name="Path 9165" d="M181.391,262.923a1,1,0,0,1,.042-.4,2.56,2.56,0,0,1,1.122-1.554,1.006,1.006,0,0,1,.366-.166A3.219,3.219,0,0,0,181.391,262.923Z" transform="translate(-152.268 -226.847)" fill="#263238"/>
      <path id="Path_9166" data-name="Path 9166" d="M172.8,250.437c-.01,0,.027-.092.131-.208a1.14,1.14,0,0,1,1.076-.285c.144.042.208.1.208.108a1.9,1.9,0,0,0-.76,0A1.939,1.939,0,0,0,172.8,250.437Z" transform="translate(-145.47 -218.222)" fill="#263238"/>
      <path id="Path_9167" data-name="Path 9167" d="M207.346,266.8a2.7,2.7,0,0,1-.127-.529,2.983,2.983,0,0,1-.129-.526.943.943,0,0,1,.233.5A1,1,0,0,1,207.346,266.8Z" transform="translate(-172.624 -230.759)" fill="#263238"/>
      <path id="Path_9168" data-name="Path 9168" d="M219.108,264.372a3.563,3.563,0,0,0-.938-1.742,1.754,1.754,0,0,1,.689.753A1.715,1.715,0,0,1,219.108,264.372Z" transform="translate(-181.398 -228.296)" fill="#263238"/>
      <path id="Path_9169" data-name="Path 9169" d="M226.211,258.172c-.029.013-.108-.154-.293-.26s-.364-.1-.368-.133.042-.035.123-.039a.547.547,0,0,1,.3.081.529.529,0,0,1,.208.225C226.221,258.116,226.223,258.168,226.211,258.172Z" transform="translate(-187.241 -224.423)" fill="#263238"/>
      <path id="Path_9170" data-name="Path 9170" d="M231.018,252.329a3.66,3.66,0,0,1-.312-.225,2.257,2.257,0,0,0-.832-.337,2.288,2.288,0,0,0-.905.021c-.227.054-.36.119-.368.1a.832.832,0,0,1,.35-.175,2,2,0,0,1,1.806.327A.914.914,0,0,1,231.018,252.329Z" transform="translate(-189.658 -219.583)" fill="#263238"/>
      <path id="Path_9171" data-name="Path 9171" d="M232.5,245.475a3.6,3.6,0,0,0-.61-.044,3.992,3.992,0,0,0-.591.156A.974.974,0,0,1,232.5,245.475Z" transform="translate(-191.796 -214.587)" fill="#263238"/>
      <path id="Path_9172" data-name="Path 9172" d="M152.672,125.786c-2.212.05-5.383-.208-6.7-1.987s-.747-5.015-.058-7.117a6.038,6.038,0,0,1,.208-8,6.735,6.735,0,0,0,1.078-1.169,7.32,7.32,0,0,0,.487-2.932,5.111,5.111,0,0,1,7.345-3.939,12.977,12.977,0,0,1,4.058-2.705,4.488,4.488,0,0,1,4.592.749c.637.624,1.04,1.536,1.835,1.944s1.792.194,2.674.4c1.683.4,2.614,2.2,3.055,3.875s.66,3.5,1.792,4.813a18.053,18.053,0,0,1,1.873,1.937,2.894,2.894,0,0,1-2.249,4.436,5.329,5.329,0,0,1,.795,4.711c-.454,1.59-1.4,3.6-3.048,4.122a4.649,4.649,0,0,1-3.3-.237s-.855,1.627-4.786,1.469c-6.134-.25-8.71,1.921-9.645-.381" transform="translate(-123.056 -97.633)" fill="#263238"/>
      <path id="Path_9173" data-name="Path 9173" d="M187.2,135.057a54.112,54.112,0,0,0-.416-10.138c-.335-3.063-2.543-6.738-5.589-6.272l-9.447,2.857a1.8,1.8,0,0,0-1.527,1.9l1.993,22.582a1.494,1.494,0,0,0,.285.76,5.8,5.8,0,0,0,5.618,2.364c3.712-.481,4.545-2.861,4.715-3.621a1.509,1.509,0,0,0,.037-.387c-.094-2.928-.148-4.074-.146-4.054S186.628,140.215,187.2,135.057Z" transform="translate(-143.427 -114.242)" fill="#b78876"/>
      <path id="Path_9174" data-name="Path 9174" d="M237.173,162.958a.66.66,0,0,1-.6.693.624.624,0,0,1-.7-.562.655.655,0,0,1,.6-.691.624.624,0,0,1,.705.56Z" transform="translate(-195.411 -148.917)" fill="#263238"/>
      <path id="Path_9175" data-name="Path 9175" d="M236.641,159.132c-.077.089-.593-.256-1.3-.221s-1.209.416-1.29.329c-.04-.037.037-.2.256-.37a1.8,1.8,0,0,1,1.026-.368,1.725,1.725,0,0,1,1.04.283C236.6,158.94,236.678,159.092,236.641,159.132Z" transform="translate(-193.967 -145.833)" fill="#263238"/>
      <path id="Path_9176" data-name="Path 9176" d="M204.843,164.44a.658.658,0,0,1-.6.693.624.624,0,0,1-.705-.562.66.66,0,0,1,.6-.693.624.624,0,0,1,.705.562Z" transform="translate(-169.808 -150.089)" fill="#263238"/>
      <path id="Path_9177" data-name="Path 9177" d="M203.018,160.252c-.077.089-.593-.254-1.3-.221s-1.209.416-1.288.329c-.04-.035.035-.2.254-.37a1.815,1.815,0,0,1,1.026-.368,1.725,1.725,0,0,1,1.04.283C202.974,160.06,203.056,160.212,203.018,160.252Z" transform="translate(-167.343 -146.72)" fill="#263238"/>
      <path id="Path_9178" data-name="Path 9178" d="M223.86,164.028a4.862,4.862,0,0,1,1.138-.26c.179-.027.348-.071.372-.2a.92.92,0,0,0-.144-.529c-.191-.429-.389-.878-.6-1.348a23.77,23.77,0,0,1-1.365-3.537,23.723,23.723,0,0,1,1.646,3.421c.208.474.393.926.574,1.359a1.041,1.041,0,0,1,.127.7.447.447,0,0,1-.285.277,1.227,1.227,0,0,1-.3.058A4.687,4.687,0,0,1,223.86,164.028Z" transform="translate(-185.428 -145.563)" fill="#263238"/>
      <path id="Path_9179" data-name="Path 9179" d="M203.94,220.693A13.041,13.041,0,0,1,197,219.18s1.9,3.537,7,2.82Z" transform="translate(-164.633 -193.888)" fill="#aa6550"/>
      <path id="Path_9180" data-name="Path 9180" d="M217.147,192.974a1.28,1.28,0,0,0-1.163-.416,1.165,1.165,0,0,0-.782.468.737.737,0,0,0-.017.845.853.853,0,0,0,.936.191,2.68,2.68,0,0,0,.878-.581.8.8,0,0,0,.191-.208.235.235,0,0,0-.012-.262" transform="translate(-178.935 -172.792)" fill="#aa6550"/>
      <path id="Path_9181" data-name="Path 9181" d="M215.893,189.179c.114-.012.152.755.832,1.269s1.494.393,1.5.5c.012.048-.175.158-.52.183a1.908,1.908,0,0,1-1.249-.375,1.665,1.665,0,0,1-.649-1.065C215.764,189.373,215.839,189.177,215.893,189.179Z" transform="translate(-179.518 -170.13)" fill="#263238"/>
      <path id="Path_9182" data-name="Path 9182" d="M201.7,153.954c-.062.2-.772.137-1.6.275s-1.484.4-1.6.229c-.054-.081.056-.266.316-.466a2.815,2.815,0,0,1,2.437-.383C201.562,153.717,201.714,153.863,201.7,153.954Z" transform="translate(-165.81 -141.863)" fill="#263238"/>
      <path id="Path_9183" data-name="Path 9183" d="M236.629,152.931c-.117.166-.612.023-1.2.042s-1.076.158-1.2,0c-.054-.079.017-.243.227-.416a1.731,1.731,0,0,1,1.929-.029C236.6,152.688,236.681,152.85,236.629,152.931Z" transform="translate(-194.105 -140.883)" fill="#263238"/>
      <path id="Path_9184" data-name="Path 9184" d="M189.289,112.16a3.506,3.506,0,0,0,4.284,3.277c.776-.177,1.617-.61,2.312-.223.732.416.807,1.48,1.457,2,.936.745,2.339-.054,3.5.235a4.711,4.711,0,0,1,2.106,1.731,2.429,2.429,0,0,0,2.4,1.022,10.4,10.4,0,0,0-.456-2.345,3.479,3.479,0,0,0-1.425-1.873,12.777,12.777,0,0,1-1.159-.61c-.762-.56-.978-1.586-1.457-2.393a3.843,3.843,0,0,0-3.011-1.812,21.134,21.134,0,0,1-3.03.085c-.732-.152-1.388-.6-2.129-.7-1.444-.208-2.73.878-3.725,1.948" transform="translate(-158.266 -107.843)" fill="#263238"/>
      <path id="Path_9185" data-name="Path 9185" d="M164.62,172.433c-.081-.035-3.244-.959-3.14,2.268s3.329,2.46,3.329,2.366S164.62,172.433,164.62,172.433Z" transform="translate(-136.503 -156.75)" fill="#b78876"/>
      <path id="Path_9186" data-name="Path 9186" d="M166.943,179.885c-.015,0-.054.04-.148.087a.568.568,0,0,1-.416.021,1.392,1.392,0,0,1-.685-1.228,1.885,1.885,0,0,1,.131-.809.651.651,0,0,1,.416-.445.285.285,0,0,1,.337.144c.046.09.027.154.046.158s.067-.056.035-.187a.349.349,0,0,0-.133-.208.416.416,0,0,0-.312-.071.787.787,0,0,0-.572.518,1.919,1.919,0,0,0-.166.907,1.457,1.457,0,0,0,.866,1.367.6.6,0,0,0,.512-.1C166.939,179.962,166.954,179.89,166.943,179.885Z" transform="translate(-139.666 -160.754)" fill="#aa6550"/>
      <path id="Path_9187" data-name="Path 9187" d="M164.09,131.732a3.538,3.538,0,0,0,4.289-3.71,3.284,3.284,0,0,0,2.691-2.081,6.814,6.814,0,0,0,.329-3.523,1.664,1.664,0,0,0-.243-.791c-.354-.491-1.074-.487-1.677-.435a11.3,11.3,0,0,0-4.528,1.04,3.912,3.912,0,0,0-2.21,3.789c.121.753.539,1.494.352,2.233-.139.549-.6.995-.655,1.559a1.523,1.523,0,0,0,.481,1.172,4.418,4.418,0,0,0,1.074.739" transform="translate(-137.26 -116.272)" fill="#263238"/>
      <path id="Path_9188" data-name="Path 9188" d="M164.637,196.63a2.3,2.3,0,0,1,1.629.809,2.349,2.349,0,0,1,.347,1.81,1.261,1.261,0,0,1,1.1.878,3.067,3.067,0,0,1-1.076,3.429,1.728,1.728,0,0,1-1.248.435,1.993,1.993,0,0,1-1.07-.624,7.61,7.61,0,0,1-1.363-1.517,2.886,2.886,0,0,1,.208-3.675,8.7,8.7,0,0,1,1.457-1.544" transform="translate(-137.231 -176.03)" fill="#263238"/>
      <path id="Path_9189" data-name="Path 9189" d="M152.7,122.74a.91.91,0,0,0,.493.019,1.423,1.423,0,0,0,.516-.266,3.536,3.536,0,0,0,.543-.564,2.289,2.289,0,0,1,.732-.624,2.1,2.1,0,0,1,1.1-.092,2.6,2.6,0,0,0,.583,0,1.434,1.434,0,0,0,.558-.208,2.349,2.349,0,0,0,.832-.953,9.556,9.556,0,0,0,.46-1.211,6.42,6.42,0,0,1,.487-1.12,3.579,3.579,0,0,1,1.457-1.457,2.572,2.572,0,0,1,1.357-.285,1.44,1.44,0,0,1,.5.112,3.536,3.536,0,0,0-.5-.071,2.6,2.6,0,0,0-1.319.312,3.523,3.523,0,0,0-1.394,1.438,6.282,6.282,0,0,0-.472,1.107,9.364,9.364,0,0,1-.466,1.226,2.418,2.418,0,0,1-.864.993,1.554,1.554,0,0,1-.6.208,2.935,2.935,0,0,1-.606,0,2.028,2.028,0,0,0-1.059.073,2.249,2.249,0,0,0-.712.6,3.655,3.655,0,0,1-.564.56,1.457,1.457,0,0,1-.545.26.8.8,0,0,1-.381,0A.439.439,0,0,1,152.7,122.74Z" transform="translate(-129.551 -112.157)" fill="#455a64"/>
      <path id="Path_9190" data-name="Path 9190" d="M144.679,136.353a.16.16,0,0,1,0-.048.437.437,0,0,1,0-.139,1.72,1.72,0,0,1,.15-.516,3.952,3.952,0,0,1,.427-.739,3.881,3.881,0,0,1,.339-.416,2.037,2.037,0,0,1,.468-.379,1.59,1.59,0,0,1,1.353-.01,2.786,2.786,0,0,1,.662.389,3.862,3.862,0,0,0,.676.416,2.969,2.969,0,0,0,1.646.289,2.324,2.324,0,0,0,1.542-.857c.377-.489.466-1.163.945-1.594a1.06,1.06,0,0,1,.416-.218,1.727,1.727,0,0,1,.445-.054,5.825,5.825,0,0,0,.832-.021,3.161,3.161,0,0,0,1.413-.57,2.98,2.98,0,0,0,.882-1,3.188,3.188,0,0,0,.358-1.887,3.513,3.513,0,0,0-.1-.52,1.083,1.083,0,0,1-.052-.181,2.289,2.289,0,0,1,.208.7,3.121,3.121,0,0,1-2.68,3.556,5.77,5.77,0,0,1-.849.027,1.666,1.666,0,0,0-.416.05.942.942,0,0,0-.366.208c-.441.387-.535,1.055-.928,1.577a2.43,2.43,0,0,1-1.615.9,3.063,3.063,0,0,1-1.7-.306,3.858,3.858,0,0,1-.691-.429,2.729,2.729,0,0,0-.639-.381,1.511,1.511,0,0,0-1.28,0,1.968,1.968,0,0,0-.456.36,4.1,4.1,0,0,0-.341.4,4.211,4.211,0,0,0-.435.72,1.814,1.814,0,0,0-.169.5.6.6,0,0,0,0,.137A.17.17,0,0,1,144.679,136.353Z" transform="translate(-123.195 -121.919)" fill="#455a64"/>
      <path id="Path_9191" data-name="Path 9191" d="M213.658,114.319a1.746,1.746,0,0,0-.391-.562,2.909,2.909,0,0,0-1.725-.655c-.4-.037-.832-.037-1.309-.081a3.2,3.2,0,0,1-1.446-.439,4.7,4.7,0,0,1-1.174-1.19,8.6,8.6,0,0,0-1.14-1.353,3.261,3.261,0,0,0-1.571-.732,6.278,6.278,0,0,0-1.644-.058,14.6,14.6,0,0,0-1.486.208c-.466.085-.9.141-1.3.177a5.619,5.619,0,0,1-1.9-.094,2.842,2.842,0,0,1-.655-.237,1.163,1.163,0,0,1,.171.056,1.872,1.872,0,0,0,.208.067,2.873,2.873,0,0,0,.287.073,5.913,5.913,0,0,0,1.873.06c.4-.042.832-.11,1.294-.189s.961-.166,1.492-.208a6.3,6.3,0,0,1,1.665.054,3.375,3.375,0,0,1,1.623.755,8.5,8.5,0,0,1,1.155,1.371,4.672,4.672,0,0,0,1.142,1.169,3.1,3.1,0,0,0,1.4.433c.466.046.905.052,1.307.094a2.9,2.9,0,0,1,1.746.7,1.469,1.469,0,0,1,.3.416,1.248,1.248,0,0,1,.048.127Q213.662,114.319,213.658,114.319Z" transform="translate(-165.362 -106.737)" fill="#455a64"/>
      <path id="Path_9192" data-name="Path 9192" d="M217.228,124.786a.121.121,0,0,0-.052.021,1.592,1.592,0,0,1-.156.05,1.9,1.9,0,0,1-.624.056,1.846,1.846,0,0,1-.449-.1,2.151,2.151,0,0,1-.483-.252,3.383,3.383,0,0,1-.891-.978c-.262-.416-.416-.941-.678-1.444a2.17,2.17,0,0,0-.531-.683,1.989,1.989,0,0,0-.832-.379c-.624-.141-1.3-.083-2.008-.185a3.816,3.816,0,0,1-2.672-1.792,10.423,10.423,0,0,0-.581-.891,2.012,2.012,0,0,0-.782-.624,2.945,2.945,0,0,0-.941-.225,13.22,13.22,0,0,0-1.821.079,5.367,5.367,0,0,1-3.683-1.1,3.843,3.843,0,0,1-.624-.576.285.285,0,0,1,.044.035l.119.11a5.52,5.52,0,0,0,2.562,1.336,5.41,5.41,0,0,0,1.573.1,12.881,12.881,0,0,1,1.833-.089,3.034,3.034,0,0,1,.976.231,2.081,2.081,0,0,1,.832.647,10.457,10.457,0,0,1,.587.9,3.782,3.782,0,0,0,.693.832,3.723,3.723,0,0,0,1.906.909c.685.1,1.371.048,2.014.194a2.081,2.081,0,0,1,.866.4,2.237,2.237,0,0,1,.549.714c.264.516.416,1.04.666,1.446a3.314,3.314,0,0,0,.859.968,2.105,2.105,0,0,0,.46.256,1.741,1.741,0,0,0,.435.1A2.358,2.358,0,0,0,217.228,124.786Z" transform="translate(-166.55 -111.996)" fill="#455a64"/>
      <path id="Path_9193" data-name="Path 9193" d="M256.388,167.5a2.669,2.669,0,0,0,.416-.51,3.261,3.261,0,0,0,.4-1.721,3.538,3.538,0,0,0-.229-1.2,2.531,2.531,0,0,0-.327-.6,4.072,4.072,0,0,0-.489-.539c-.362-.345-.795-.653-1.2-1.04a3.1,3.1,0,0,1-.949-1.417,2.434,2.434,0,0,1-.042-.874c.033-.287.1-.56.152-.832a5.076,5.076,0,0,0,.117-.791,1.967,1.967,0,0,0-.1-.743,2.736,2.736,0,0,0-.818-1.124,11.657,11.657,0,0,0-.991-.751,4.453,4.453,0,0,1-1.292-1.249,2.178,2.178,0,0,1-.208-.452.946.946,0,0,1-.035-.169,2.573,2.573,0,0,0,.271.6,4.605,4.605,0,0,0,1.3,1.219,10.887,10.887,0,0,1,1.005.745,2.824,2.824,0,0,1,.853,1.159,2.1,2.1,0,0,1,.11.782,5.368,5.368,0,0,1-.117.805,3.647,3.647,0,0,0-.108,1.654,2.98,2.98,0,0,0,.916,1.367c.4.37.832.683,1.2,1.04a4.122,4.122,0,0,1,.5.554,2.651,2.651,0,0,1,.333.624,3.556,3.556,0,0,1,.223,1.234,3.217,3.217,0,0,1-.437,1.744,1.626,1.626,0,0,1-.171.231,1.008,1.008,0,0,1-.144.15A.817.817,0,0,1,256.388,167.5Z" transform="translate(-207.23 -141.867)" fill="#455a64"/>
      <path id="Path_9194" data-name="Path 9194" d="M150.582,161.925a1.338,1.338,0,0,1-.285-.429,2.21,2.21,0,0,1-.129-1.378,2.628,2.628,0,0,1,1.2-1.642,3.449,3.449,0,0,1,1.136-.464,6.887,6.887,0,0,1,1.307-.131,7.861,7.861,0,0,0,2.476-.266,3.471,3.471,0,0,0,1.6-1.2,3.6,3.6,0,0,0,.6-1.228c.081-.316.092-.5.1-.5a.52.52,0,0,1,0,.131,2.658,2.658,0,0,1-.056.377,3.581,3.581,0,0,1-2.212,2.512,7.737,7.737,0,0,1-2.51.281,6.925,6.925,0,0,0-1.286.127,3.4,3.4,0,0,0-1.1.443,2.578,2.578,0,0,0-1.184,1.575,2.237,2.237,0,0,0,.092,1.344A3.463,3.463,0,0,0,150.582,161.925Z" transform="translate(-127.502 -142.817)" fill="#455a64"/>
      <path id="Path_9204" data-name="Path 9204" d="M132.615,390.94c.037.069.874.718.874.718l1.534-.554,1.914.978s1.719.181,1.733.8,1.022,3.667-.285,5.752a10.872,10.872,0,0,1-2.233,2.776l-4.644-4.339-1.427-.293Z" transform="translate(-111.638 -329.907)" fill="#b78876"/>
    </g>
    <g id="freepik--Desk--inject-83" transform="translate(35.388 135.99)">
      <path id="Path_9205" data-name="Path 9205" d="M124.753,456.484c0,.029-19.51.054-43.569.054s-43.573-.025-43.573-.054,19.5-.054,43.573-.054S124.753,456.453,124.753,456.484Z" transform="translate(-37.61 -456.43)" fill="#263238"/>
    </g>
    <g id="freepik--speech-bubble--inject-83" transform="translate(93.072 52.733)">
      <path id="Path_9206" data-name="Path 9206" d="M325.563,56.32a9.947,9.947,0,0,0-7.339,16.664c.04.044.083.085.125.129l-1.887,4.838,6.035-2.125.015-.087a9.414,9.414,0,0,0,12.995-9.472A9.947,9.947,0,0,0,325.563,56.32Z" transform="translate(-315.448 -56.32)" fill="#fff"/>
      <path id="Path_9207" data-name="Path 9207" d="M324.925,56.932a.9.9,0,0,1,.179,0l.522.015a5.2,5.2,0,0,1,.845.083c.166.025.348.042.539.081l.6.148a10.074,10.074,0,0,1,1.167,19.025,9.909,9.909,0,0,1-3.363.741,9.628,9.628,0,0,1-3.517-.437l-.1-.033h.081L316,78.573l-.239.083.077-.241,1.521-4.89.025.117a10.053,10.053,0,0,1-2.358-8.7,9.908,9.908,0,0,1,1.515-3.623,10.219,10.219,0,0,1,2.328-2.428,10.786,10.786,0,0,1,1.219-.791,11.29,11.29,0,0,1,1.176-.539,8.073,8.073,0,0,1,1.057-.337,6.823,6.823,0,0,1,.907-.189c.275-.035.518-.077.728-.1l.535-.017h.327a.448.448,0,0,1,.11,0,.47.47,0,0,1-.11.017l-.325.027L323.96,57c-.208.025-.449.073-.72.114a6.789,6.789,0,0,0-.895.208,7.667,7.667,0,0,0-1.04.35,11.631,11.631,0,0,0-1.149.539,10.859,10.859,0,0,0-1.194.805,10.088,10.088,0,0,0-2.268,2.41,9.916,9.916,0,0,0,.87,12.057l.046.052-.021.067c-.485,1.569-.993,3.207-1.515,4.9l-.164-.158,5.876-2.039.042-.015.042.012.1.033a9.416,9.416,0,0,0,3.427.427,9.712,9.712,0,0,0,3.277-.718,9.9,9.9,0,0,0-1.092-18.69l-.591-.158c-.187-.044-.366-.062-.531-.094a5.747,5.747,0,0,0-.832-.106l-.52-.04A.922.922,0,0,1,324.925,56.932Z" transform="translate(-314.821 -56.79)" fill="#263238"/>
      <path id="Path_9208" data-name="Path 9208" d="M334.98,91.25l1.546-1.546,2.984,2.651,5.853-5.635,1.438,1.548-7.512,7.069Z" transform="translate(-330.785 -80.394)" fill="#b24bf3"/>
    </g>
    <g id="freepik--Plant--inject-83" transform="translate(102.736 118.5)">
      <path id="Path_9209" data-name="Path 9209" d="M378.486,379.582a1.246,1.246,0,0,1-1.86,0,3.474,3.474,0,0,1-.751-1.633,8.588,8.588,0,0,1-.4-4.093,2.289,2.289,0,0,1,.547-1.1,1.182,1.182,0,0,1,1.13-.35,1.736,1.736,0,0,1,.959,1.053,9.73,9.73,0,0,1,.87,4.2,3.363,3.363,0,0,1-.5,1.923" transform="translate(-372.425 -372.378)" fill="#b24bf3"/>
      <g id="Group_3927" data-name="Group 3927" transform="translate(2.932 0)" opacity="0.2">
        <path id="Path_9210" data-name="Path 9210" d="M378.486,379.582a1.246,1.246,0,0,1-1.86,0,3.474,3.474,0,0,1-.751-1.633,8.588,8.588,0,0,1-.4-4.093,2.289,2.289,0,0,1,.547-1.1,1.182,1.182,0,0,1,1.13-.35,1.736,1.736,0,0,1,.959,1.053,9.73,9.73,0,0,1,.87,4.2,3.363,3.363,0,0,1-.5,1.923" transform="translate(-375.358 -372.378)"/>
      </g>
      <path id="Path_9211" data-name="Path 9211" d="M365.439,421.913a4.19,4.19,0,0,0-2.593-.375,2.232,2.232,0,0,0-1.3.545.924.924,0,0,0-.042,1.282,1.236,1.236,0,0,0,.805.225,3.134,3.134,0,0,1,1.993.329c.308.241.508.639.88.764a.886.886,0,0,0,.984-.416,1.521,1.521,0,0,0,.133-1.115A1.7,1.7,0,0,0,365.439,421.913Z" transform="translate(-361.266 -411.258)" fill="#b24bf3"/>
      <path id="Path_9212" data-name="Path 9212" d="M394.85,389.639a2.513,2.513,0,0,1-.341-2.32,4.463,4.463,0,0,1,1.415-1.956,7.366,7.366,0,0,1,2.485-1.394,2.623,2.623,0,0,1,1.107-.162,1.161,1.161,0,0,1,.914.581,1.737,1.737,0,0,1-.291,1.571,18.657,18.657,0,0,1-1.665,2.416,4.261,4.261,0,0,1-1.8,1.479,1.62,1.62,0,0,1-1.885-.3" transform="translate(-387.483 -381.423)" fill="#b24bf3"/>
      <path id="Path_9213" data-name="Path 9213" d="M376.273,432.529a1.458,1.458,0,0,1-.037-.314c-.017-.229-.04-.516-.065-.859a12.242,12.242,0,0,0-.164-1.259,9.7,9.7,0,0,0-.416-1.494,5.381,5.381,0,0,0-.728-1.357,2.813,2.813,0,0,0-.938-.818,2.705,2.705,0,0,0-.8-.268,1.585,1.585,0,0,1-.312-.052,1.492,1.492,0,0,1,.318,0,2.482,2.482,0,0,1,.832.237,2.858,2.858,0,0,1,.993.832,5.369,5.369,0,0,1,.753,1.386,9.092,9.092,0,0,1,.416,1.517,10.569,10.569,0,0,1,.139,1.276c.019.364.023.66.023.864A1.572,1.572,0,0,1,376.273,432.529Z" transform="translate(-370.408 -414.92)" fill="#263238"/>
      <path id="Path_9214" data-name="Path 9214" d="M384.336,399.852a.606.606,0,0,1,0-.146c0-.11,0-.248.01-.416,0-.362.021-.884.015-1.532,0-1.292-.075-3.078-.248-5.042s-.416-3.735-.653-5c-.056-.318-.112-.606-.164-.857s-.094-.468-.135-.645-.064-.3-.09-.406a.073.073,0,1,1,.027-.006c.029.1.067.237.11.4s.1.389.158.641.123.537.183.853a46.894,46.894,0,0,1,.693,5.013,50.325,50.325,0,0,1,.208,5.052c0,.647-.031,1.172-.056,1.534-.015.169-.025.306-.035.416A.477.477,0,0,1,384.336,399.852Z" transform="translate(-378.517 -382.896)" fill="#263238"/>
      <path id="Path_9215" data-name="Path 9215" d="M389.544,400.931a2.537,2.537,0,0,1,.013-.435,11.64,11.64,0,0,1,.158-1.176,15.928,15.928,0,0,1,.416-1.708,14.978,14.978,0,0,1,.762-2.014,10.8,10.8,0,0,1,2.181-3.238,5.418,5.418,0,0,1,.506-.449c.079-.062.148-.127.208-.175l.2-.129a2.748,2.748,0,0,1,.372-.227,13.058,13.058,0,0,0-1.226,1.04A11.444,11.444,0,0,0,391,395.648a19.759,19.759,0,0,0-1.188,3.692c-.106.487-.16.886-.2,1.163a2.742,2.742,0,0,1-.073.429Z" transform="translate(-383.657 -387.426)" fill="#263238"/>
    </g>
  </g>
</svg>
